<svg width="64" height="64" fill="none" xmlns="http://www.w3.org/2000/svg"><path d="M57.928 8.938H46.47v-3.76a.937.937 0 10-1.874 0v3.76h-3.881a.937.937 0 100 1.874h3.881v3.967h-.703c-.982 0-1.781.8-1.781 1.781v11.03c0 .983.799 1.782 1.78 1.782h.704v7.433a.937.937 0 101.874 0v-7.433h.703c.982 0 1.781-.8 1.781-1.781V16.56c0-.983-.799-1.782-1.78-1.782h-.704v-3.967h11.457a4.088 4.088 0 014.083 4.083v32.07H1.988v-32.07a4.088 4.088 0 014.084-4.083h16.425v1.829h-.704c-.982 0-1.78.799-1.78 1.78v11.031c0 .982.798 1.78 1.78 1.78h.704v8.28a.937.937 0 101.873 0v-8.28h.704c.982 0 1.78-.798 1.78-1.78v-11.03c0-.983-.798-1.781-1.78-1.781h-.704v-1.83h3.882a.937.937 0 100-1.873H24.37v-.463a.937.937 0 10-1.874 0v.463H6.072a5.964 5.964 0 00-5.958 5.957v33.007a5.964 5.964 0 005.958 5.957h14.263v4.764l-3.02 3.503h-1.199a.937.937 0 100 1.874h31.68a.937.937 0 100-1.874h-1.112l-3.02-3.503v-4.764h14.264a5.964 5.964 0 005.957-5.958V14.895a5.964 5.964 0 00-5.957-5.957zM47.08 27.498h-3.094V16.653h3.094v10.845zm-22.1-2.14h-3.095V14.516h3.095v10.844zm32.947 26.627H38.964a.937.937 0 100 1.874h2.826v4.175h-2.334a.937.937 0 000 1.874h2.842l1.912 2.218H19.79l1.911-2.218h2.842a.937.937 0 100-1.874h-2.334V53.86H34.97a.937.937 0 100-1.874h-28.9a4.09 4.09 0 01-3.973-3.146H61.9a4.09 4.09 0 01-3.973 3.146z" fill="#2A3052"/><path d="M9.899 27.355a.937.937 0 00-.937.937v2.262c0 .982.799 1.781 1.78 1.781h.704v4.99a.937.937 0 001.874 0v-4.99h.703c.982 0 1.78-.799 1.78-1.78V19.523c0-.982-.798-1.781-1.78-1.781h-.703v-1.499a.937.937 0 10-1.874 0v1.499h-.703c-.982 0-1.781.799-1.781 1.78V24.3a.937.937 0 001.874 0v-4.682h3.094V30.46h-3.094v-2.168a.937.937 0 00-.937-.938zM32.843 25.379h.704v4.99a.937.937 0 101.874 0v-4.99h.703c.982 0 1.78-.8 1.78-1.781v-7.35a.937.937 0 10-1.873 0v7.257h-3.094V6.539h3.094v5.716a.937.937 0 101.874 0v-5.81c0-.981-.8-1.78-1.781-1.78h-.703V.937a.937.937 0 10-1.874 0v3.728h-.704c-.982 0-1.78.799-1.78 1.78v17.153c0 .982.798 1.78 1.78 1.78zM50.941 25.688a.937.937 0 001.27.38l4.316-2.327-.31.815a.937.937 0 001.75.667l1.056-2.77a.937.937 0 00-.542-1.208l-2.94-1.12a.937.937 0 00-.667 1.751l.682.26-4.234 2.283a.937.937 0 00-.38 1.27zM5.654 43.996a.937.937 0 001.23.493l12.091-5.175 1.099 2.879a.937.937 0 001.32.49l19.974-10.77a.937.937 0 10-.889-1.649L21.444 40.528l-1.066-2.793a.937.937 0 00-1.244-.527L6.147 42.766a.937.937 0 00-.493 1.23z" fill="#2A3052"/></svg>