<svg width="24" height="17" viewBox="0 0 24 17" fill="none" xmlns="http://www.w3.org/2000/svg">
<path d="M22 0.40625H2C0.89543 0.40625 0 1.30168 0 2.40625V14.4062C0 15.5108 0.89543 16.4062 2 16.4062H22C23.1046 16.4062 24 15.5108 24 14.4062V2.40625C24 1.30168 23.1046 0.40625 22 0.40625Z" fill="white"/>
<path fill-rule="evenodd" clip-rule="evenodd" d="M15.5 8.40625C15.5 10.3393 13.933 11.9062 12 11.9062C10.067 11.9062 8.5 10.3393 8.5 8.40625C8.5 7.28625 10.85 6.81625 12.828 6.99325C13.038 6.93725 13.264 6.90625 13.5 6.90625C14.605 6.90625 15.5 7.57825 15.5 8.40625Z" fill="#0048AB"/>
<path fill-rule="evenodd" clip-rule="evenodd" d="M11.5 7.90625C11.5 7.90625 12.395 6.90625 13.5 6.90625C14.605 6.90625 15.5 7.57825 15.5 8.40625C15.5 6.47325 13.933 4.90625 12 4.90625C10.603 4.90625 9.397 5.72425 8.836 6.90825C8.5 7.90625 8.5 8.19825 8.5 8.40625C9 8.90625 9.556 8.90625 10 8.90625C10.444 8.90625 10.843 8.71325 11.118 8.40625L11.5 7.90625Z" fill="#CD0027"/>
<path fill-rule="evenodd" clip-rule="evenodd" d="M16.5 5.90625H18.5L16.5 3.90625H15.5L16.5 5.90625ZM7.5 5.90625H5.5L7.5 3.90625H8.5L7.5 5.90625ZM16.5 10.9062H18.5L16.5 12.9062H15.5L16.5 10.9062ZM7.5 10.9062H5.5L7.5 12.9062H8.5L7.5 10.9062Z" fill="#252526"/>
<path fill-rule="evenodd" clip-rule="evenodd" d="M22 1.40625H2C1.44772 1.40625 1 1.85397 1 2.40625V14.4062C1 14.9585 1.44772 15.4062 2 15.4062H22C22.5523 15.4062 23 14.9585 23 14.4062V2.40625C23 1.85396 22.5523 1.40625 22 1.40625ZM2 0.40625C0.895431 0.40625 0 1.30168 0 2.40625V14.4062C0 15.5108 0.89543 16.4062 2 16.4062H22C23.1046 16.4062 24 15.5108 24 14.4062V2.40625C24 1.30168 23.1046 0.40625 22 0.40625H2Z" fill="black" fill-opacity="0.08"/>
</svg>
