<svg xmlns="http://www.w3.org/2000/svg" width="299" height="197"><g fill="none"><path fill="#FFF" d="M299 0v197H0V0z"/><path fill="#D6DADB" d="M297.013 1.98H1.987v193.04h295.026V1.98zM299 197H0V0h299v197z"/><g transform="translate(0 9)"><path fill="#F2F3F4" d="M2.94 45.948v-1.223h293.571v1.223H2.94zm0 40.897v-1.223h293.571v1.223H2.94zm0 40.894v-1.224h293.571v1.224H2.94zm0 40.857v-1.223h293.571v1.223H2.94zM37.786 24.908h1.223v161.093h-1.223V24.908zm37.161 0h1.224v161.093h-1.224V24.908zm37.123 0h1.223v161.093h-1.223V24.908zm37.16 0h1.223v161.093h-1.223V24.908zm37.122 0h1.224v161.093h-1.224V24.908zm37.123 0h1.223v161.093h-1.223V24.908zM2.94 107.273v-1.224h293.57v1.224H2.94z"/><path fill="#333" d="M248.493 32.207v26.819h48.018v1.144h-48.018v79.263l48.018.001v1.145h-48.018v27.696h-1.01v-27.696H2.94v-1.145l244.543-.001V60.17H2.94v-1.144h244.543V32.207h1.01z"/><path fill="#D6DADB" d="M.82 21.371v-2.446h297.812v2.446zm231.797 124.413a1.509 1.509 0 0 1 1.786-.872l.135.044 9.369 3.925a1.507 1.507 0 0 1-1.053 2.814l-.139-.045-9.343-3.915a1.507 1.507 0 0 1-.755-1.95zm1.393.576c-.008.006-.01.01-.017.009l-.015-.006 9.29 3.893c.005.001.01 0 .011-.004h.022l-9.291-3.892zm-20.044-8.388a1.507 1.507 0 0 1 1.818-.863l.146.051 9.343 3.915a1.507 1.507 0 0 1-1.053 2.814l-.139-.045-9.327-3.906a1.508 1.508 0 0 1-.788-1.966zm1.384.572l-.002.014 9.287 3.892c.004.001.008 0 .01-.004h.022l-9.317-3.902zm-20.009-8.373a1.508 1.508 0 0 1 1.8-.87l.136.046 9.317 3.903c.511.198.875.658.95 1.201a1.512 1.512 0 0 1-1.948 1.644l-.148-.056-9.335-3.911a1.508 1.508 0 0 1-.772-1.957zm1.394.574l-.015.01 9.326 3.908.011-.008-.008-.007-9.314-3.903zm-101.038-1.563a1.508 1.508 0 0 1 1.734-.95l.17.048 4.345 1.608 4.793-.294c.45-.045.89.114 1.206.423l.1.109.091.12c.311.456.348 1.047.095 1.538-.23.447-.665.747-1.136.806l-5.442.338a.797.797 0 0 1-.207-.016l-.1-.03-4.826-1.789a1.507 1.507 0 0 1-.823-1.911zm31.206-.831a1.509 1.509 0 0 1 1.492 2.19c-.23.447-.665.747-1.136.806l-10.224.633-.12.004a1.51 1.51 0 0 1-1.057-.431l-.1-.109-.091-.12a1.507 1.507 0 0 1-.095-1.538c.23-.447.665-.747 1.136-.806l10.195-.63zm-29.793 1.346c-.005.006-.006.01-.015.01l4.624 1.713 5.171-.318c.008-.007.008-.01.006-.012l-5.016.306a.797.797 0 0 1-.207-.016l-.1-.03-4.463-1.653zm50.016-2.593a1.51 1.51 0 0 1 1.54 1.415 1.511 1.511 0 0 1-1.239 1.575l-.145.02-10.09.623a1.507 1.507 0 0 1-.322-2.993l.144-.018 10.112-.622zm-20.066 2.743l-10.147.62-.007.005v.008l10.148-.62.007-.009v-.004zm40.172-3.982a1.509 1.509 0 0 1 1.492 2.19c-.23.447-.665.747-1.136.806l-10.195.63a1.508 1.508 0 0 1-1.492-2.191c.23-.447.665-.747 1.136-.806l10.195-.63zm-20.072 2.739l-10.046.619c-.004 0-.007.004-.007.009v.007l10.054-.62c.004 0 .007-.003.007-.008 0-.004-.004-.007-.008-.007zm38.84-3.898a.792.792 0 0 1 .228.021l.109.036 1.66.696a1.508 1.508 0 0 1 .772 1.957 1.51 1.51 0 0 1-1.817.863l-.138-.046-1.155-.485-8.16.503a1.508 1.508 0 0 1-1.496-1.138l-.028-.137-.015-.14a1.51 1.51 0 0 1 1.238-1.575l.145-.02 8.658-.535zm-18.61 2.655l-10.148.62-.007.005v.008l10.148-.62.007-.005v-.008zm-90.65-5.2a1.507 1.507 0 0 1 1.756-.946l.16.047 9.503 3.52a1.511 1.511 0 0 1 .83 1.916 1.511 1.511 0 0 1-1.767.938l-.141-.039-9.495-3.516a1.509 1.509 0 0 1-.846-1.92zm109.179 4.053l-8.455.521c-.004 0-.007.004-.007.009l8.285-.504a.785.785 0 0 1 .227.021l.11.036 1.296.545.015-.01-1.471-.618zm-107.763-3.538l-.014.01 9.436 3.494c.004-.006.004-.01.011-.008l-9.433-3.496zm-19.938-8.192a1.502 1.502 0 0 1 1.37-.28l.123.04 9.45 3.5a1.508 1.508 0 0 1 .472 2.601 1.503 1.503 0 0 1-1.348.286l-.148-.05-9.457-3.503a1.506 1.506 0 0 1-.462-2.594zm.956 1.16l-.008.002-.003.008.007.006 9.51 3.522.01-.009-.009-.007-9.507-3.521zm-20.315-7.517a1.509 1.509 0 0 1 1.742-.947l.136.037 9.535 3.532a1.507 1.507 0 0 1 .823 1.911 1.51 1.51 0 0 1-1.762.94l-.141-.038-9.504-3.52a1.51 1.51 0 0 1-.83-1.915zm1.413.517c-.006.006-.007.01-.014.01l9.42 3.49h.007c.005-.007.004-.01.012-.008l-9.425-3.492zm136.461-4.87a1.508 1.508 0 0 1 1.33-.455l.145.03 8.378 1.895.975-.12a1.506 1.506 0 0 1 .494 2.966l-.144.028-1.346.167a.761.761 0 0 1-.172.002l-.085-.014-8.765-1.984a1.504 1.504 0 0 1-1.148-1.018 1.505 1.505 0 0 1 .338-1.497zm30.839-1.132a1.51 1.51 0 0 1 1.606 2.09 1.512 1.512 0 0 1-1.074.879l-.143.021-10.025 1.243-.102.006-.072.001a1.509 1.509 0 0 1-1.414-1.05l-.036-.134-.024-.138a1.511 1.511 0 0 1 1.135-1.647l.143-.03 10.006-1.24zm-21.188 4.095l-8.552-1.936-.008.002-.002.008.01.006 8.678 1.963 1.197-.148a.005.005 0 0 0 .005-.003c0-.006 0-.01.003-.012l-1.072.132a.77.77 0 0 1-.173.002l-.086-.014zM29.54 95.647a1.509 1.509 0 0 1 1.871 2.26l-.087.106-.013.012.08.073c.312.32.464.757.424 1.192l-.024.163-.037.146c-.148.48-.526.852-.978.992l-4.792 1.161 5.276 1.955c.437.139.782.467.947.884l.048.142.031.135a1.508 1.508 0 0 1-.538 1.452c-.39.314-.907.41-1.355.278l-9.585-3.55-.079-.027-.078.013a1.511 1.511 0 0 1-1.53-.88l-.05-.13-.04-.135c-.18-.74.22-1.488.94-1.766l.139-.047.849-.206 8.58-4.223zm178.26 8.482l-.01-.002-10.006 1.24c-.005 0-.008.004-.007.008l.008.007 10.013-1.242c.004-.006.003-.009.002-.011zm-184.426-1.744l-.024.006 7.455 2.761c.006-.003.007-.006.007-.009l-.003-.003-7.435-2.755zm204.247-2.229a1.51 1.51 0 0 1 1.606 2.09 1.512 1.512 0 0 1-1.074.879l-.143.021-10.041 1.245a1.506 1.506 0 0 1-1.586-1.038l-.037-.135-.024-.141c-.095-.765.4-1.47 1.15-1.652l.143-.028 10.006-1.24zm-70.59-.838a1.508 1.508 0 0 1 1.324-.457l.127.024 9.829 2.225c.54.104.98.494 1.148 1.018a1.508 1.508 0 0 1-1.65 1.957l-.14-.03-9.828-2.224a1.508 1.508 0 0 1-1.031-.75l-.065-.131-.052-.14a1.508 1.508 0 0 1 .338-1.492zm70.818 2.325l-.01-.002-10.022 1.242c-.004 0-.007.004-.007.009l.003.005.005.001 10.027-1.243c.006-.007.005-.01.004-.012zm-69.718-1.3l-.008.003-.001.008.006.005 9.898 2.239.006-.006c-.001-.006-.002-.008-.01-.01l-9.89-2.238zm89.538-2.673a1.51 1.51 0 0 1 1.608 2.092 1.503 1.503 0 0 1-1.076.877l-.142.021-10.045 1.246a1.508 1.508 0 0 1-.494-2.967l.144-.028 10.005-1.24zm-217.46-.678l-8.66 4.26-.155.056-.9.218-.005.004v.01l-.005.003.168-.04a.743.743 0 0 1 .49.046.718.718 0 0 1 .176-.16l.09-.05 1.195-.589a.745.745 0 0 1 .473-.063l.118.032.273.101 6.852-1.66v-.012h-.014l-2.148.52c-.836.203-1.276-.91-.598-1.35l.09-.051 2.56-1.26c.005-.002.006-.007.004-.01l-.004-.005zm217.689 2.163l-10.03 1.242-.005.003-.003.012 10.035-1.243.003-.014zM137.326 94.86a1.508 1.508 0 0 1 1.324-.457l.127.024 9.829 2.225c.54.104.98.494 1.148 1.018a1.508 1.508 0 0 1-1.65 1.957l-.14-.03-9.828-2.224a1.508 1.508 0 0 1-1.031-.75l-.065-.131-.052-.14a1.508 1.508 0 0 1 .338-1.492zm-97.583.454l9.787-2.372a1.507 1.507 0 0 1 1.857 1.894 1.503 1.503 0 0 1-.978.993l-9.931 2.408a1.505 1.505 0 0 1-1.242-.206l-.13-.098-.108-.101a1.51 1.51 0 0 1 .606-2.48l.14-.038zm98.683.572l-.008.002-.001.008.006.005 9.898 2.239.006-.006c-.001-.006-.002-.008-.01-.01l-9.89-2.238zm-88.474-1.5h-.014l-9.86 2.391-.003.008.005.006 9.872-2.394c.003-.006.002-.009 0-.011zm67.339-3.273a1.509 1.509 0 0 1 1.617-1.169l.14.02 9.853 2.23c.54.104.98.494 1.148 1.018a1.508 1.508 0 0 1-1.65 1.957l-.14-.03-9.875-2.234a1.51 1.51 0 0 1-1.13-1.513l.012-.14.025-.14zm-69.648-4.376a1.507 1.507 0 0 1 2.215 1.445 1.503 1.503 0 0 1-.733 1.182l-.127.066-9.05 4.454a1.506 1.506 0 0 1-2.198-1.45c.036-.495.314-.938.726-1.182l.127-.067 9.04-4.448zm71.119 4.7l-.006.012 9.858 2.233.007-.006c0-.006-.001-.008-.01-.01l-9.849-2.229zm-49.538-3.273a1.51 1.51 0 0 1 1.76 1.124 1.51 1.51 0 0 1-.941 1.766l-.14.047-9.778 2.371c-.442.128-.905.05-1.272-.2l-.118-.09-.11-.1a1.508 1.508 0 0 1-.364-1.502c.148-.48.526-.852.978-.992l9.985-2.424zm-20.865-.104l-.012.002-9.097 4.476v.014h.009l9.099-4.478v-.014zm11.337 3.96l.004.013 9.82-2.382.005-.004c0-.008-.002-.01.004-.013l-9.833 2.386zm37.89-5.365a1.509 1.509 0 0 1 1.617-1.169l.14.02 9.896 2.24a1.507 1.507 0 0 1-.541 2.958l-.145-.023-9.874-2.234a1.51 1.51 0 0 1-1.13-1.513l.012-.14.025-.14zm1.471.324l-.006.012 9.818 2.224.01-.013-9.822-2.223zm-10.2-3.575a1.509 1.509 0 0 1 1.76 1.124c.18.74-.22 1.488-.94 1.766l-.14.047-9.806 2.379a1.508 1.508 0 0 1-1.225-.216l-.129-.099-.107-.1a1.51 1.51 0 0 1 .601-2.475l.14-.039 9.847-2.387zm.306 1.47l-9.812 2.379-.002.008.006.005 9.799-2.375.005-.004c0-.008-.002-.01.004-.013zM65.82 77.79a1.51 1.51 0 0 1 1.964.713 1.511 1.511 0 0 1-.534 1.93l-.126.075-9.055 4.455-.023.013a1.508 1.508 0 0 1-1.84-.46l-.08-.116-.069-.126a1.51 1.51 0 0 1 .547-1.938l.126-.073 9.09-4.473zm-8.413 5.812c-.004.002-.006.006-.004.01l.005.004 9.027-4.44c.002 0 .003-.003.003-.004-.001-.007-.004-.01.002-.014l-9.033 4.444zm120.456-8.536l5.546-2.342a1.51 1.51 0 0 1 2.139 1.57 1.5 1.5 0 0 1-.806 1.137l-6.24 2.639a.74.74 0 0 1-.274.059l-.094-.004-3.808-.388a1.51 1.51 0 0 1 .135-3.014l.142.012 3.26.331zm-23.359-2.38l10.04 1.023a1.505 1.505 0 0 1 1.24.878 1.506 1.506 0 0 1-1.392 2.133l-.144-.01-10.04-1.023a1.505 1.505 0 0 1-1.24-.878 1.505 1.505 0 0 1 1.4-2.132l.136.009zm29.552 1.394l-5.787 2.443a.74.74 0 0 1-.274.059l-.094-.004-3.483-.354-.005.007.003.006 3.68.376 5.963-2.52.003-.009-.006-.004zM83.933 68.873a1.508 1.508 0 0 1 1.442 2.64l-.126.073-9.063 4.46a1.507 1.507 0 0 1-1.868-.44l-.08-.118-.07-.128a1.508 1.508 0 0 1 .559-1.949l.127-.07 9.079-4.468zm80.481 6.331l-10.074-1.027-.007.003-.001.008 10.078 1.031.007-.003.001-.008-.004-.004zM84.58 70.226l-9.064 4.46a.01.01 0 0 0-.003.012l.004.004.007-.002 9.048-4.453.001-.015.007-.006zm49.824.412l10.04 1.023a1.505 1.505 0 0 1 1.24.878 1.506 1.506 0 0 1-1.392 2.133l-.144-.01-10.077-1.028-.104-.014a1.509 1.509 0 0 1-.954-.603l-.08-.122-.067-.132a1.506 1.506 0 0 1 1.404-2.134l.134.009zm-.165 1.49l-.008.004-.001.004 10.08 1.035.008-.003.001-.008-10.08-1.031zm-19.933-3.538l10.038 1.023a1.508 1.508 0 0 1-.151 3.011l-.144-.01-10.061-1.025a1.507 1.507 0 0 1-1.32-1.65 1.507 1.507 0 0 1 1.48-1.356l.158.007zm87.757-3.75c.761-.3 1.623.062 1.942.816.3.71.016 1.523-.655 1.903l-.13.066-9.288 3.925a1.507 1.507 0 0 1-2.116-1.573c.066-.493.37-.92.794-1.138l.131-.06 9.322-3.939zm-87.896 5.243l-.005.012.003.003 10.051 1.024c.005-.005.005-.008.004-.01l-.004-.004-10.049-1.025zm-19.96-3.541l10.04 1.023a1.505 1.505 0 0 1 1.24.878 1.506 1.506 0 0 1-1.392 2.133l-.144-.01-10.08-1.028a1.51 1.51 0 0 1 .166-3.001l.17.005zm108.423-.313l-9.325 3.941-.001.008.006.005.021-.008 9.288-3.925c.003-.014-.002-.016.01-.021zM94.08 68.037c-.004.007-.004.011-.01.013l10.043 1.025.007-.003-.003-.012-10.037-1.023zm126.592-11.06c.761-.3 1.623.062 1.942.816.3.71.016 1.523-.655 1.903l-.13.066-9.276 3.918a1.51 1.51 0 0 1-2.139-1.57 1.5 1.5 0 0 1 .806-1.137l9.452-3.996zm.567 1.389l-9.334 3.944-.006.006.004.007.003.001 9.322-3.937.002-.015.009-.006zm18.042-9.253c.761-.3 1.623.062 1.942.816.3.71.016 1.523-.655 1.903l-.13.066-9.32 3.939a1.509 1.509 0 1 1-1.288-2.719l.13-.066 9.32-3.939zm.567 1.389l-9.287 3.925c-.004.001-.006.006-.005.01l.01.004 9.271-3.918.003-.016.008-.005z"/><ellipse cx="247.621" cy="46.758" fill="#FFF" opacity=".6" rx="8.219" ry="8.518"/><ellipse cx="247.621" cy="99.023" fill="#FFF" opacity=".6" rx="8.219" ry="8.518"/><ellipse cx="248.632" cy="152.294" fill="#FFF" opacity=".6" rx="8.219" ry="8.518"/><ellipse cx="24.382" cy="100.028" fill="#FFF" opacity=".916" rx="8.219" ry="8.518"/><path fill="#FF444F" d="M248.632 142.552c5.225 0 9.442 4.371 9.442 9.742 0 5.37-4.217 9.741-9.442 9.741-5.225 0-9.443-4.37-9.443-9.741 0-5.37 4.218-9.742 9.443-9.742zm0 2.447c-3.854 0-6.997 3.256-6.997 7.295 0 4.038 3.143 7.295 6.997 7.295s6.996-3.257 6.996-7.295c0-4.039-3.142-7.295-6.996-7.295zM24.382 90.287c5.225 0 9.442 4.37 9.442 9.741 0 5.371-4.217 9.742-9.442 9.742-5.225 0-9.443-4.371-9.443-9.742 0-5.37 4.218-9.741 9.443-9.741zm223.239-1.005c5.226 0 9.443 4.37 9.443 9.741 0 5.37-4.217 9.742-9.443 9.742-5.225 0-9.442-4.371-9.442-9.742 0-5.37 4.217-9.741 9.442-9.741zM24.382 92.733c-3.854 0-6.997 3.257-6.997 7.295 0 4.039 3.143 7.295 6.997 7.295s6.996-3.256 6.996-7.295c0-4.038-3.142-7.295-6.996-7.295zm223.239-1.005c-3.853 0-6.996 3.257-6.996 7.295 0 4.039 3.143 7.295 6.996 7.295 3.854 0 6.997-3.256 6.997-7.295 0-4.038-3.143-7.295-6.997-7.295zm0-54.711c5.226 0 9.443 4.37 9.443 9.741 0 5.37-4.217 9.742-9.443 9.742-5.225 0-9.442-4.371-9.442-9.742 0-5.37 4.217-9.741 9.442-9.741zm0 2.446c-3.853 0-6.996 3.257-6.996 7.295 0 4.039 3.143 7.295 6.996 7.295 3.854 0 6.997-3.256 6.997-7.295 0-4.038-3.143-7.295-6.997-7.295z"/><path fill="#333" d="M27.244 8.115c-.108 1.144-.532 2.035-1.272 2.676-.74.64-1.724.96-2.952.96-.859 0-1.614-.2-2.268-.607-.653-.405-1.157-.98-1.513-1.726-.355-.745-.54-1.612-.555-2.599v-1c0-1.012.18-1.902.54-2.673.36-.77.878-1.364 1.55-1.781.674-.418 1.452-.627 2.335-.627 1.189 0 2.145.322 2.87.965.726.644 1.147 1.551 1.265 2.724H25.38c-.088-.77-.313-1.327-.677-1.667-.363-.342-.894-.513-1.594-.513-.814 0-1.44.297-1.876.888-.436.592-.66 1.459-.67 2.603v.949c0 1.159.21 2.042.627 2.65.416.61 1.026.913 1.83.913.735 0 1.287-.164 1.657-.493.37-.33.605-.876.703-1.642h1.864zm6.282 3.49c-.078-.152-.147-.4-.207-.744a2.808 2.808 0 0 1-2.1.89c-.805 0-1.46-.228-1.969-.683a2.183 2.183 0 0 1-.761-1.694c0-.849.316-1.5.95-1.955.634-.453 1.54-.68 2.719-.68h1.103v-.523c0-.412-.116-.743-.348-.99-.232-.248-.586-.372-1.058-.372-.41 0-.745.102-1.006.306a.943.943 0 0 0-.392.776h-1.798c0-.436.145-.844.436-1.226.29-.38.687-.678 1.188-.894a4.188 4.188 0 0 1 1.676-.324c.936 0 1.684.235 2.241.704.558.467.844 1.127.859 1.976v3.592c0 .717.1 1.289.303 1.715v.126h-1.836zm-1.974-1.289c.354 0 .688-.085 1.002-.257.313-.172.55-.402.707-.693v-1.5h-.97c-.666 0-1.166.115-1.502.346-.335.23-.503.557-.503.98 0 .342.115.616.344.82.23.204.537.305.922.305v-.001zm7.302 1.289h-1.798V.297h1.798v11.308zm3.869 0h-1.798V.297h1.798v11.308zm11.534-2.761c0-.47-.166-.835-.499-1.09-.333-.254-.934-.513-1.802-.773s-1.558-.549-2.07-.868c-.982-.613-1.473-1.413-1.473-2.4 0-.864.353-1.575 1.06-2.135.708-.56 1.627-.84 2.758-.84.749 0 1.417.138 2.004.413.562.254 1.042.66 1.384 1.174.335.508.503 1.07.503 1.69h-1.865c0-.56-.176-.998-.529-1.315-.352-.316-.857-.474-1.513-.474-.611 0-1.086.13-1.424.39-.338.26-.506.623-.506 1.09 0 .391.181.72.547.982.365.263.967.518 1.805.766.839.248 1.511.53 2.02.847.507.316.88.68 1.117 1.09.237.41.355.889.355 1.439 0 .892-.343 1.603-1.032 2.13-.687.528-1.621.791-2.8.791a5.279 5.279 0 0 1-2.15-.43c-.653-.287-1.162-.683-1.523-1.189-.364-.505-.545-1.094-.545-1.767h1.872c0 .61.202 1.08.606 1.414.405.334.985.5 1.74.5.651 0 1.141-.13 1.468-.393.329-.262.492-.61.492-1.042zm10.35-1.141c0 1.232-.28 2.215-.842 2.949-.563.733-1.317 1.1-2.265 1.1-.878 0-1.58-.287-2.108-.861v3.776h-1.798V3.64h1.656l.075.81c.528-.638 1.246-.957 2.153-.957.977 0 1.742.362 2.298 1.086.554.724.831 1.729.831 3.015v.11-.001zm-1.79-.155c0-.794-.158-1.425-.477-1.892-.318-.466-.773-.7-1.365-.7-.735 0-1.263.302-1.583.906v3.534c.325.619.859.928 1.598.928.572 0 1.02-.23 1.343-.688.324-.46.484-1.155.484-2.088zm7.503-2.275a4.383 4.383 0 0 0-.733-.058c-.824 0-1.379.314-1.665.942v5.448h-1.798V3.639h1.718l.043.89c.434-.69 1.037-1.037 1.805-1.037.257 0 .469.035.637.103l-.007 1.678zm4.66 6.478c-1.14 0-2.062-.356-2.77-1.07-.708-.714-1.061-1.666-1.061-2.853v-.22c0-.796.153-1.506.462-2.132.284-.6.734-1.106 1.298-1.46a3.438 3.438 0 0 1 1.864-.524c1.091 0 1.933.346 2.527 1.038.595.692.892 1.671.892 2.938v.721h-5.23c.053.658.274 1.177.66 1.56.388.383.875.575 1.462.575.824 0 1.495-.332 2.013-.995l.97.92c-.322.478-.766.86-1.286 1.11a4.058 4.058 0 0 1-1.8.392h-.001zm-.214-6.824c-.494 0-.892.173-1.195.516-.303.343-.497.821-.58 1.436h3.424v-.133c-.039-.6-.2-1.051-.48-1.358-.28-.307-.67-.46-1.169-.46v-.001zm9.6 6.678c-.078-.152-.147-.4-.207-.744a2.808 2.808 0 0 1-2.1.89c-.805 0-1.46-.228-1.968-.683a2.188 2.188 0 0 1-.762-1.694c0-.849.316-1.5.95-1.955.634-.453 1.54-.68 2.72-.68h1.1v-.523c0-.412-.114-.743-.346-.99-.232-.248-.585-.372-1.058-.372-.41 0-.745.102-1.006.306a.943.943 0 0 0-.392.776h-1.798c0-.436.145-.844.436-1.226.29-.38.687-.678 1.188-.894a4.188 4.188 0 0 1 1.676-.324c.936 0 1.684.235 2.241.704.558.467.844 1.127.859 1.976v3.592c0 .717.1 1.289.303 1.715v.126h-1.836zm-1.974-1.289c.35.001.695-.087 1.002-.257.313-.172.55-.402.707-.693v-1.5h-.97c-.666 0-1.166.115-1.501.346-.336.23-.504.557-.504.98 0 .342.115.616.344.82.23.204.537.305.922.305v-.001zm5.052-2.753c0-1.226.287-2.211.859-2.955.572-.744 1.34-1.116 2.301-1.116.849 0 1.533.295 2.057.884V.297h1.798v11.308H92.83l-.088-.825c-.538.648-1.255.971-2.152.971-.938 0-1.697-.375-2.276-1.125-.58-.751-.869-1.772-.869-3.063h-.002.001zm1.798.155c0 .809.157 1.441.47 1.895.313.454.759.68 1.336.68.735 0 1.272-.325 1.613-.978V5.914c-.33-.638-.864-.957-1.598-.957-.582 0-1.03.229-1.347.688-.316.46-.474 1.15-.474 2.073z"/><path fill="#999" d="M259.352 98.801v-1.515h34.85V98.8l-34.85.001zM49.795 53.316H48.75l.65-3.716h-3.945l-.65 3.716h-1.043l1.404-8.038h1.044l-.606 3.456h3.94l.605-3.456H51.2l-1.404 8.038h-.001zm2.813 0h-1l1.044-5.974h1l-1.044 5.974zm.827-8.154a.55.55 0 0 1 .424.15c.114.11.17.252.17.429a.601.601 0 0 1-.17.425.608.608 0 0 1-.424.177.537.537 0 0 1-.589-.569.623.623 0 0 1 .167-.43.589.589 0 0 1 .422-.182zm1.11 5.156c.088-.651.265-1.217.53-1.698.264-.48.585-.835.965-1.065a2.248 2.248 0 0 1 1.246-.329c.695.015 1.22.277 1.576.784l.2-.668h.92l-1 5.848c-.105.762-.416 1.372-.93 1.829-.515.46-1.15.677-1.904.655a2.705 2.705 0 0 1-1.167-.287 2.216 2.216 0 0 1-.88-.757l.572-.613c.362.535.841.808 1.436.824.478.014.882-.119 1.212-.398.331-.28.55-.677.659-1.193l.11-.53c-.488.486-1.06.722-1.714.707a1.771 1.771 0 0 1-.974-.302c-.276-.189-.489-.462-.64-.822a3.342 3.342 0 0 1-.251-1.2 6.056 6.056 0 0 1 .033-.785h.001zm.971.569c-.011.527.08.935.275 1.223.194.289.487.44.879.456.599.015 1.115-.279 1.548-.878l.472-2.744c-.222-.546-.623-.83-1.204-.851-.545-.014-.99.207-1.34.663-.35.456-.556 1.073-.619 1.85l-.011.281zm6.853-2.816c.525-.57 1.13-.849 1.814-.834.563.008.98.2 1.252.577.271.377.372.907.302 1.588l-.655 3.914h-1.004l.66-3.93c.022-.167.024-.336.006-.503-.064-.516-.37-.78-.917-.79-.614-.014-1.142.305-1.586.96l-.744 4.263h-1.004l1.482-8.48h1.004l-.61 3.236v-.001zm7.19 5.245l1.405-8.038 2.369.005c.825 0 1.442.184 1.853.552.41.368.59.882.539 1.54-.067.77-.554 1.35-1.46 1.739.363.14.633.38.813.719.18.338.253.711.22 1.12-.056.725-.348 1.3-.877 1.726-.53.425-1.213.637-2.054.637h-2.808zm1.698-3.759l-.505 2.893 1.648.005c.503 0 .926-.135 1.266-.402.34-.27.539-.632.594-1.089.05-.434-.024-.774-.228-1.015-.203-.244-.523-.372-.96-.387l-1.814-.006-.001.001zm.15-.851l1.505.006c.47 0 .866-.12 1.19-.359.323-.24.513-.569.568-.989.049-.39-.028-.683-.23-.883-.202-.198-.535-.307-1.001-.326l-1.588-.005-.444 2.556zm8.59 4.61a1.33 1.33 0 0 1-.039-.314l.016-.315c-.55.508-1.135.754-1.752.74-.53-.007-.96-.174-1.291-.5-.33-.325-.482-.733-.452-1.223.037-.633.316-1.128.836-1.482.519-.355 1.202-.533 2.05-.533l1.048.005.066-.474c.038-.357-.032-.64-.208-.848-.175-.208-.439-.315-.79-.322a1.553 1.553 0 0 0-.913.25c-.25.155-.425.405-.485.693l-1.01.005c.034-.35.17-.659.41-.93.24-.27.55-.48.927-.629.378-.15.767-.22 1.171-.213.625.015 1.112.203 1.46.566.347.362.494.845.438 1.445l-.488 2.959-.029.425c-.007.202.015.402.067.602l-.01.093h-1.022zm-1.576-.773c.322.007.626-.069.913-.229.287-.16.533-.382.74-.665l.218-1.231-.761-.005c-.632 0-1.117.098-1.455.297-.335.2-.526.48-.57.844-.034.28.032.513.197.7.164.186.404.281.718.29v-.001zm7.691-4.29l-.472-.05c-.643 0-1.15.29-1.52.868l-.737 4.245h-1.005l1.043-5.974.97-.005-.149.696c.424-.556.927-.827 1.503-.812.123 0 .282.028.478.083l-.111.95v-.001zm3.784 0l-.472-.05c-.643 0-1.15.29-1.52.868l-.737 4.245H86.16l1.044-5.974.97-.005-.149.696c.425-.556.927-.827 1.504-.812.122 0 .281.028.477.083l-.111.95.001-.001zm1.137 5.063h-.998l1.043-5.974h1l-1.045 5.974zm.828-8.154a.55.55 0 0 1 .594.579.601.601 0 0 1-.17.425.608.608 0 0 1-.424.177.537.537 0 0 1-.589-.569.622.622 0 0 1 .166-.43.587.587 0 0 1 .423-.182zm3.412 8.265c-.748-.015-1.331-.29-1.754-.823-.42-.533-.599-1.216-.532-2.049l.027-.237c.064-.593.24-1.134.53-1.623.29-.49.645-.858 1.063-1.107.408-.246.878-.37 1.354-.356.618.015 1.103.219 1.454.614.35.393.544.926.576 1.6.012.239.004.478-.021.717l-.06.459h-3.924c-.067.541.023 1 .269 1.38.246.38.613.577 1.1.59.593.016 1.14-.25 1.644-.793l.576.485c-.249.359-.583.65-.973.847-.412.208-.869.31-1.33.296h.001zm.638-5.361a1.472 1.472 0 0 0-1.085.419c-.309.291-.553.723-.735 1.297l2.92.006.02-.088c.061-.463-.015-.85-.224-1.156-.209-.308-.508-.467-.896-.478zm6.392.188l-.471-.05c-.644 0-1.15.289-1.52.867l-.738 4.245H98.57l1.043-5.974.971-.005-.15.696c.425-.556.927-.827 1.504-.812.122 0 .282.028.478.083l-.112.95h-.001zm163.589-12.56h-3.285l-.621 3.55h-1.044l1.404-8.038h4.861l-.156.873h-3.818l-.477 2.748h3.291l-.155.868v-.001zm4.856 2.96c-.471.482-1.068.717-1.793.701-.573-.015-.998-.219-1.273-.613-.276-.394-.379-.93-.308-1.612l.643-3.86h1.004l-.65 3.877a2.6 2.6 0 0 0-.01.475c.019.265.099.472.239.623.14.15.336.232.588.243.717.022 1.273-.266 1.665-.866l.754-4.351h1.004l-1.042 5.974h-.95l.129-.591zm3.406.59h-.998l1.474-8.48h1.006l-1.482 8.48zm2.73 0h-.999l1.476-8.48h1.005l-1.482 8.48zm-10.659 10.108a4.724 4.724 0 0 1-.495 1.64c-.254.486-.57.849-.948 1.09-.373.24-.81.36-1.254.345-.696-.014-1.228-.248-1.598-.7l-.538 2.88h-1.004l1.442-8.27.91-.005-.11.668c.494-.53 1.089-.788 1.78-.774.578.015 1.027.227 1.348.636.323.409.492.971.512 1.69.003.235-.006.463-.029.684l-.016.116zm-.988-.116l.028-.464c0-.537-.103-.949-.309-1.234-.205-.285-.502-.435-.89-.45-.58-.014-1.081.26-1.504.823l-.505 2.864c.227.531.632.805 1.216.819.5.01.924-.183 1.272-.583.35-.4.581-.991.692-1.775zm5.465 3.075a1.33 1.33 0 0 1-.038-.314l.017-.315c-.552.508-1.137.754-1.754.74-.529-.007-.96-.174-1.29-.5-.331-.325-.482-.733-.452-1.223.037-.633.315-1.128.835-1.482.52-.355 1.202-.533 2.05-.533l1.05.005.065-.475c.037-.356-.032-.639-.208-.847-.175-.208-.439-.315-.79-.323a1.555 1.555 0 0 0-.913.252 1.07 1.07 0 0 0-.485.692l-1.01.005c.033-.35.17-.659.41-.93.24-.27.55-.48.927-.629.377-.15.768-.22 1.17-.213.625.015 1.112.203 1.46.566.348.362.495.844.438 1.445l-.488 2.959-.028.425c-.007.202.015.402.066.602l-.01.093h-1.022zm-1.576-.773c.324.007.627-.07.913-.229.287-.16.534-.382.74-.665l.218-1.231-.76-.006c-.633 0-1.118.099-1.455.298-.336.199-.525.48-.57.844-.034.28.031.513.196.7.165.186.404.281.72.29h-.002v-.001zm6.11-.733l2.136-4.468h1.11l-3.563 6.968c-.495.968-1.131 1.447-1.909 1.436a3.255 3.255 0 0 1-.604-.1l.09-.828.26.028c.318.014.593-.056.824-.213.231-.157.435-.41.613-.759l.36-.684-1.037-5.848h1.049l.67 4.467.001.001zm6.453-4.578c.503.007.935.143 1.293.408.359.266.625.63.796 1.096.172.466.23.975.175 1.528l-.01.12a4.007 4.007 0 0 1-.522 1.576c-.26.45-.63.828-1.077 1.096-.44.261-.922.386-1.448.37-.5-.006-.929-.143-1.29-.408a2.268 2.268 0 0 1-.79-1.082 3.476 3.476 0 0 1-.178-1.507 4.053 4.053 0 0 1 .505-1.668c.257-.468.63-.862 1.085-1.146.438-.27.947-.403 1.461-.383zm-2.041 3.203a3.36 3.36 0 0 0 0 .723c.036.433.167.78.39 1.038.224.257.523.392.897.402.333.012.64-.07.921-.246.28-.175.518-.438.71-.792.196-.365.322-.764.372-1.176.03-.338.035-.623.016-.855-.043-.445-.179-.797-.404-1.055-.226-.258-.525-.393-.9-.408-.517-.011-.958.19-1.32.607-.363.416-.586.96-.671 1.634l-.011.128zm8.86 2.291c-.469.482-1.066.716-1.791.7-.574-.014-.998-.218-1.273-.612-.277-.394-.379-.931-.31-1.613l.644-3.86h1.005l-.65 3.878a2.588 2.588 0 0 0-.01.474c.018.265.098.472.238.623.142.15.338.232.59.243.716.022 1.272-.266 1.664-.866l.754-4.351h1.004l-1.043 5.974h-.95l.129-.59h-.001zm4.973-6.83l-.256 1.447h1.093l-.138.789h-1.088l-.627 3.716a1.295 1.295 0 0 0-.006.264c.027.288.184.431.472.431.122 0 .285-.018.489-.055l-.078.834c-.24.066-.485.099-.732.099-.4-.007-.7-.154-.9-.438-.2-.286-.277-.67-.232-1.152l.61-3.7h-1.06l.138-.79h1.061l.255-1.445h.999zM267.08 155.738a1.054 1.054 0 0 0-.239-.828c-.196-.236-.528-.442-.996-.621-.467-.179-.84-.38-1.118-.605-.547-.445-.795-1.028-.743-1.75.04-.603.26-1.104.656-1.5.398-.395.925-.635 1.58-.72l.216-1.208h.81l-.222 1.225c.548.106.956.382 1.223.825.27.444.375 1.02.32 1.726h-.993c.03-.541-.05-.956-.242-1.246-.19-.288-.47-.439-.84-.45-.418-.007-.764.11-1.036.352-.271.241-.429.565-.474.974-.033.316.036.589.209.817.172.228.51.442 1.018.643.506.201.89.41 1.154.63.262.219.454.47.574.753.12.284.167.607.142.972-.049.63-.284 1.137-.707 1.524-.425.386-.986.616-1.685.69l-.19 1.055h-.803l.194-1.066c-.606-.088-1.065-.348-1.376-.779-.311-.43-.446-.988-.405-1.673h1.004c-.04.482.047.867.264 1.155.216.286.543.434.98.441.47.007.862-.11 1.178-.356.312-.236.51-.592.547-.98zm4.422 2.22c-.68-.016-1.192-.256-1.531-.721-.34-.466-.495-1.136-.466-2.012.007-.273.027-.542.06-.806l.2-1.342c.177-1.145.516-2 1.016-2.562.499-.563 1.157-.836 1.976-.817.687.015 1.2.249 1.54.703.338.455.494 1.116.468 1.98a9.17 9.17 0 0 1-.067.811l-.194 1.298c-.196 1.211-.542 2.097-1.037 2.655-.496.56-1.152.83-1.965.813zm2.225-4.948c.052-.445.076-.79.072-1.038-.018-.935-.383-1.415-1.093-1.44a1.46 1.46 0 0 0-1.256.57c-.32.4-.544 1.026-.67 1.88l-.238 1.602c-.047.346-.07.695-.072 1.044.019.975.382 1.475 1.088 1.501.492.022.898-.159 1.218-.54.32-.383.548-.991.685-1.823l.266-1.756zM260.96 90.373l-.55 3.147h-1.043l1.404-8.038 2.697.005c.833 0 1.474.22 1.926.66.45.44.645 1.024.582 1.753-.066.769-.374 1.375-.924 1.816-.55.442-1.272.663-2.171.663l-1.92-.006h-.001zm.15-.867l1.798.006c.566 0 1.03-.142 1.392-.425.363-.284.576-.678.638-1.182.06-.452-.035-.82-.283-1.1-.247-.282-.608-.43-1.081-.446l-1.915-.005-.55 3.152h.001zm8.784 4.014a1.281 1.281 0 0 1-.04-.314l.018-.315c-.552.508-1.137.754-1.754.74-.53-.007-.96-.174-1.29-.5-.331-.325-.482-.733-.452-1.223.037-.633.315-1.127.835-1.482s1.202-.533 2.05-.533l1.05.005.066-.474c.036-.357-.034-.64-.208-.848-.176-.208-.44-.315-.791-.322a1.553 1.553 0 0 0-.913.25c-.25.155-.425.405-.485.693l-1.01.005c.033-.35.17-.659.41-.93.24-.27.55-.48.927-.628.377-.15.768-.222 1.17-.214.626.016 1.112.204 1.46.566.348.362.494.845.438 1.445l-.488 2.959-.028.425c-.007.202.015.402.066.602l-.01.093h-1.021zm-1.576-.773c.321.008.626-.069.912-.229.293-.165.546-.392.742-.665l.216-1.231-.76-.005c-.633 0-1.118.098-1.454.297-.337.2-.528.48-.572.844-.033.28.032.513.197.7.165.186.404.281.72.29l-.001-.001zm6.11-.733l2.135-4.468h1.11l-3.563 6.968c-.495.968-1.131 1.447-1.909 1.436a3.255 3.255 0 0 1-.604-.1l.089-.828.26.028c.319.014.594-.056.825-.213.231-.157.435-.409.613-.759l.36-.684-1.037-5.848h1.049l.671 4.467.001.001zm6.452-4.577c.503.007.935.142 1.293.408.359.265.624.63.796 1.095.172.467.23.975.175 1.528l-.01.12a4.012 4.012 0 0 1-.522 1.577c-.26.45-.63.827-1.077 1.095-.44.261-.922.386-1.448.371-.5-.007-.93-.144-1.29-.41a2.269 2.269 0 0 1-.79-1.08 3.479 3.479 0 0 1-.178-1.508 4.053 4.053 0 0 1 .505-1.668c.257-.468.63-.862 1.085-1.146.438-.27.947-.402 1.461-.382zm-2.041 3.202a3.36 3.36 0 0 0 0 .723c.036.434.166.78.39 1.038.224.257.523.392.897.402.333.012.64-.07.92-.245.282-.175.52-.439.711-.793.196-.365.322-.764.372-1.175.03-.34.035-.624.017-.856-.045-.445-.18-.797-.405-1.055-.226-.257-.525-.393-.9-.408-.517-.011-.958.19-1.32.607-.363.416-.586.96-.671 1.634l-.011.128zm8.86 2.291c-.47.482-1.066.716-1.791.701-.574-.015-.998-.22-1.273-.613-.277-.394-.379-.93-.31-1.612l.645-3.86h1.004l-.65 3.877a2.588 2.588 0 0 0-.01.474c.018.266.098.473.238.623.141.151.337.233.589.244.717.022 1.273-.267 1.665-.867l.754-4.35h1.004l-1.043 5.973h-.95l.129-.59h-.001zm4.973-6.83l-.256 1.447h1.094l-.14.79h-1.086l-.628 3.715a1.295 1.295 0 0 0-.006.264c.027.288.184.431.472.431.122 0 .285-.018.489-.055l-.078.834c-.24.066-.485.099-.732.099-.4-.007-.7-.154-.9-.438-.2-.286-.277-.67-.233-1.152l.61-3.699h-1.06l.14-.79h1.06l.254-1.446h1zm-14.254 24.507h-5.142l.121-.779 2.98-2.881.544-.536c.626-.622.971-1.196 1.038-1.723.048-.405-.031-.735-.239-.99-.207-.256-.5-.392-.876-.406-.485-.015-.89.126-1.215.422-.326.297-.524.702-.594 1.217l-.993.006c.047-.493.2-.93.457-1.311a2.545 2.545 0 0 1 1.015-.879c.42-.204.876-.3 1.368-.29.67.016 1.202.217 1.596.606.394.388.563.891.507 1.51-.062.706-.472 1.45-1.226 2.23l-.51.513-2.597 2.458h3.9l-.132.833h-.002zM44.961 152.96h3.718l-.155.867h-4.76l1.403-8.04h1.049l-1.254 7.173h-.001zm7.97-5.217c.502.007.932.142 1.292.408.359.265.624.63.796 1.095.172.467.23.975.175 1.528l-.011.12a4.012 4.012 0 0 1-.522 1.577c-.26.45-.63.827-1.076 1.095-.437.261-.94.39-1.449.371-.499-.007-.93-.144-1.29-.409a2.276 2.276 0 0 1-.79-1.081 3.479 3.479 0 0 1-.178-1.508 4.054 4.054 0 0 1 .506-1.668c.256-.468.63-.862 1.083-1.145.44-.27.948-.403 1.463-.383h.001zm-2.043 3.202c-.025.24-.025.483 0 .724.037.433.167.78.392 1.037.223.257.522.392.895.402.325.014.647-.071.922-.245.28-.175.517-.439.71-.792.196-.366.322-.765.372-1.176.03-.34.035-.624.016-.856-.045-.445-.179-.797-.404-1.055-.227-.257-.526-.393-.9-.408-.518-.011-.959.19-1.32.607-.363.416-.586.96-.672 1.634l-.01.128h-.001zm10.437 1.467l1.915-4.56h1.037l-2.736 5.975h-.815l-.622-4.516-2.163 4.516h-.815l-.65-5.975h.96l.367 4.45 2.131-4.45h.81l.582 4.561-.001-.001zm5.893 1.415l1.405-8.04 2.368.006c.826 0 1.443.185 1.854.553.41.367.59.881.538 1.54-.066.77-.553 1.35-1.46 1.738.363.14.634.38.814.719.18.344.256.733.219 1.12-.056.725-.348 1.301-.877 1.726-.53.425-1.213.638-2.053.638h-2.809.001zm1.697-3.76l-.505 2.893 1.649.005c.503 0 .925-.135 1.266-.402.34-.27.537-.632.593-1.088.052-.435-.024-.774-.228-1.016-.203-.244-.523-.371-.96-.387l-1.814-.006v.001h-.001zm.151-.85l1.504.005c.47 0 .866-.12 1.19-.359.323-.239.513-.569.569-.989.048-.39-.029-.683-.23-.883-.203-.198-.536-.307-1.003-.326l-1.586-.005-.444 2.556v.001zm8.59 4.61a1.29 1.29 0 0 1-.04-.315l.017-.315c-.55.508-1.135.754-1.753.74-.529-.007-.96-.174-1.29-.5-.33-.325-.482-.733-.452-1.223.018-.6.33-1.155.834-1.482.52-.355 1.203-.533 2.05-.533l1.05.005.066-.474c.037-.357-.032-.64-.208-.848-.176-.208-.44-.315-.791-.322a1.558 1.558 0 0 0-.912.251c-.25.155-.425.405-.485.693l-1.01.005c.032-.35.17-.66.41-.93.255-.28.572-.496.926-.63.378-.15.768-.22 1.172-.212.624.015 1.111.203 1.459.565.347.362.494.845.438 1.445l-.488 2.959-.028.425c-.007.202.015.402.067.602l-.01.094h-1.023.001zm-1.577-.773c.323.007.627-.07.914-.23.286-.16.533-.381.74-.665l.216-1.231-.76-.005c-.632 0-1.117.098-1.454.297-.336.2-.526.48-.57.845-.034.28.031.512.196.7.165.185.404.28.718.289zm7.692-4.29l-.472-.05c-.644 0-1.15.289-1.52.867l-.738 4.246h-1.005l1.044-5.975.97-.005-.15.696c.425-.556.927-.826 1.504-.811.122 0 .282.027.478.082l-.111.95zm3.783 0l-.471-.05c-.644 0-1.15.289-1.52.867l-.738 4.246H83.82l1.043-5.975.971-.005-.15.696c.426-.556.927-.826 1.505-.811.121 0 .28.027.477.082l-.112.95zm1.138 5.063h-1l1.044-5.975h1l-1.044 5.975zm.827-8.155a.55.55 0 0 1 .424.15c.114.11.17.252.17.43a.6.6 0 0 1-.17.424.608.608 0 0 1-.424.177.537.537 0 0 1-.589-.569.623.623 0 0 1 .167-.43.589.589 0 0 1 .422-.182zm3.412 8.265c-.747-.015-1.33-.29-1.753-.823-.421-.533-.6-1.216-.533-2.048l.028-.238c.063-.593.24-1.133.53-1.623.29-.49.645-.858 1.063-1.107a2.494 2.494 0 0 1 1.353-.355c.619.014 1.102.218 1.455.613.35.393.543.926.576 1.6.012.24.004.478-.022.718l-.06.458h-3.923c-.067.542.022 1 .268 1.38.247.38.613.577 1.101.59.592.016 1.14-.25 1.643-.793l.578.485c-.25.359-.584.65-.974.848a2.775 2.775 0 0 1-1.33.295zm.639-5.361a1.472 1.472 0 0 0-1.085.419c-.31.291-.555.724-.735 1.298l2.919.006.021-.089c.06-.463-.015-.85-.224-1.156-.21-.308-.508-.467-.896-.478zm6.392.188l-.472-.05c-.643 0-1.15.289-1.52.867l-.737 4.246h-1.006l1.044-5.975.97-.005-.149.696c.424-.556.926-.826 1.503-.811.123 0 .282.027.478.082l-.111.95z"/><path fill="#333" d="M246.735 170.474v8.48h-1.22l-.067-.618c-.404.485-.942.729-1.616.729-.702 0-1.27-.282-1.706-.845-.434-.563-.651-1.33-.651-2.297 0-.92.214-1.659.643-2.217.43-.557 1.004-.836 1.726-.836.636 0 1.151.221 1.542.663v-3.059h1.349zm-12.38.441v1.126h-3.84v2.22h3.32v1.104l-.001.001h-3.318v2.472h3.879v1.116h-5.283v-8.039h5.243zm4.089 1.955c1.251 0 1.887.712 1.91 2.136v3.948h-1.349v-3.87c0-.38-.082-.66-.246-.842-.165-.183-.435-.273-.809-.273-.543 0-.948.244-1.214.733v4.252h-1.348v-5.974h1.271l.038.69c.444-.533 1.026-.8 1.747-.8zm5.744 1.099c-.436 0-.773.17-1.01.515-.236.345-.355.863-.355 1.555 0 .607.118 1.08.352 1.422.235.34.569.51 1.002.51.551 0 .955-.244 1.21-.734v-2.55c-.248-.479-.647-.718-1.199-.718zM18.79 121.61c.703 0 1.262.175 1.681.527.418.351.633.845.644 1.482v2.694c0 .538.076.967.227 1.286v.095h-1.376c-.06-.115-.11-.3-.155-.558-.407.436-.98.679-1.576.668-.603 0-1.095-.17-1.476-.513a1.638 1.638 0 0 1-.572-1.27c0-.637.238-1.125.714-1.466.474-.34 1.154-.51 2.038-.51h.827v-.393c0-.31-.087-.556-.26-.742-.174-.186-.439-.279-.794-.279-.307 0-.559.077-.755.23a.71.71 0 0 0-.294.582h-1.348c0-.328.109-.635.327-.92.234-.297.54-.528.89-.67a3.12 3.12 0 0 1 1.258-.243zm9.421-1.342v1.452h1.06v.995h-1.06v3.334c0 .228.046.393.136.494.091.1.253.15.485.15.157 0 .313-.017.473-.053v1.038c-.29.082-.588.124-.889.126-1.035 0-1.552-.568-1.552-1.706v-3.384h-.988v-.994h.988v-1.452h1.347zm-13.922 0v1.452h1.061v.995h-1.06v3.334c0 .228.045.393.136.494.09.1.252.15.485.15.155 0 .313-.017.471-.053v1.038a3.336 3.336 0 0 1-.888.126c-1.035 0-1.553-.568-1.553-1.706v-3.384h-.988v-.994h.988v-1.452h1.348zm-5.715-.724c.563 0 1.064.104 1.504.31.44.206.786.5 1.038.88.252.381.377.805.377 1.267h-1.399c0-.42-.131-.748-.396-.985-.264-.237-.643-.356-1.135-.356-.459 0-.814.098-1.068.292-.253.196-.38.468-.38.818 0 .294.137.54.41.737.273.197.726.389 1.354.573.63.186 1.134.398 1.515.636.381.237.66.51.839.817.176.307.265.667.265 1.08 0 .67-.257 1.202-.773 1.597-.517.396-1.217.593-2.101.593a3.968 3.968 0 0 1-1.612-.321c-.49-.216-.871-.513-1.143-.893a2.214 2.214 0 0 1-.408-1.324h1.404c0 .456.151.81.454 1.06.304.25.739.375 1.306.375.487 0 .854-.099 1.1-.296a.95.95 0 0 0 .37-.78l-.001-.001c0-.353-.124-.625-.373-.817-.251-.19-.702-.385-1.352-.58-.652-.195-1.169-.412-1.554-.651-.736-.46-1.104-1.06-1.104-1.8 0-.647.265-1.181.796-1.601.53-.42 1.22-.63 2.067-.63zm16.624 2.066c.193 0 .352.025.478.076l-.005 1.26a3.381 3.381 0 0 0-.55-.044c-.618 0-1.034.235-1.248.706v4.086h-1.349v-5.974h1.287l.033.668c.327-.519.778-.778 1.354-.778zm-5.432 3.28h-.727c-.499 0-.875.086-1.126.259a.837.837 0 0 0-.377.734c0 .258.086.462.258.616.171.153.402.229.69.229.267 0 .518-.064.752-.194.224-.117.408-.298.53-.519v-1.125z"/></g></g></svg>