<svg xmlns="http://www.w3.org/2000/svg" width="299" height="197"><g fill="none"><path fill="#FFF" d="M0 0h299v197H0z"/><path fill="#D6DADB" d="M1.987 1.98v193.04h295.026V1.98H1.987zM299 0v197H0V0h299z"/><path fill="#F2F3F4" d="M40.473 35.419v19.542h35.459V35.419h1.206l-.001 19.542h35.422V35.419h1.206v19.542h35.459V35.419h1.206v19.542h35.421l.001-19.542h1.206v19.542h35.42l.001-19.542h1.206v19.542l70.858.001v1.206h-70.858v39.124h70.858v1.206l-70.858-.001v18.941h70.858v1.206l-70.858-.001v18.977l70.858.001v1.206h-70.858v39.085l70.858.001v1.206l-70.858-.001v17.165h-1.206l-.001-17.165h-35.42v17.165h-1.206l-.001-17.165H150.43v17.165h-1.206v-17.165h-35.459v17.165h-1.206v-17.165H77.137l.001 17.165h-1.206v-17.165H40.473v17.165h-1.206l-.001-17.165-34.379.001v-1.206l34.379-.001v-39.085H4.887v-1.206l34.379-.001v-18.977l-34.379.001v-1.206h34.379V96.497l-34.379.001v-1.206h34.379V56.168H4.887v-1.206l34.379-.001.001-19.542h1.206zm182.005 101.408h-35.42v39.085h35.42v-39.085zm-36.627 0H150.43v39.085h35.421v-39.085zm-36.627 0h-35.459v39.085h35.459v-39.085zm-36.665 0H77.137v39.085h35.422v-39.085zm-36.627 0H40.473v39.085h35.459v-39.085zm146.546-20.184h-35.42v18.977h35.42v-18.977zm-36.627 0H150.43v18.977h35.421v-18.977zm-36.627 0h-35.459v18.977h35.459v-18.977zm-36.665 0H77.137v18.977h35.422v-18.977zm-36.627 0H40.473v18.977h35.459v-18.977zm0-20.146H40.473v18.941h35.459V96.497zm36.627 0H77.137v18.941h35.422V96.497zm36.665 0h-35.459v18.941h35.459V96.497zm36.627 0H150.43v18.941h35.421V96.497zm36.627 0h-35.42v18.941h35.42V96.497zm0-40.329h-35.42v39.124h35.42V56.168zm-36.627 0H150.43v39.124h35.421V56.168zm-36.627 0h-35.459v39.124h35.459V56.168zm-36.665 0H77.137v39.124h35.422V56.168zm-36.627 0H40.473v39.124h35.459V56.168z"/><path fill="#333" d="M241.663 35.42v158.863h-1.206V35.42h1.206zm52.88 127.82v1.128H288.7v-1.128h5.843zm-282.187 0v1.128H4.887v-1.128h7.469zm268.875 0v1.128h-7.469v-1.128h7.469zm-14.938 0v1.128h-7.468v-1.128h7.468zm-14.937 0v1.128h-7.469v-1.128h7.469zm-14.938 0v1.128h-7.468v-1.128h7.468zm-14.937 0v1.128h-7.469v-1.128h7.469zm-14.938 0v1.128h-7.468v-1.128h7.468zm-14.937 0v1.128h-7.469v-1.128h7.469zm-14.938 0v1.128H169.2v-1.128h7.468zm-14.937 0v1.128h-7.469v-1.128h7.469zm-14.938 0v1.128h-7.468v-1.128h7.468zm-14.937 0v1.128h-7.469v-1.128h7.469zm-14.938 0v1.128h-7.468v-1.128h7.468zm-14.937 0v1.128h-7.469v-1.128h7.469zm-14.938 0v1.128h-7.468v-1.128h7.468zm-14.937 0v1.128h-7.469v-1.128h7.469zm-14.938 0v1.128H49.7v-1.128h7.468zm-14.937 0v1.128h-7.469v-1.128h7.469zm-14.938 0v1.128h-7.468v-1.128h7.468zm0-91.772v1.127h-7.468v-1.127h7.468zm-14.937 0v1.127H4.887v-1.127h7.469zm268.875 0v1.127h-7.469v-1.127h7.469zm-14.938 0v1.127h-7.468v-1.127h7.468zm-14.937 0v1.127h-7.469v-1.127h7.469zm-14.938 0v1.127h-7.468v-1.127h7.468zm-14.937 0v1.127h-7.469v-1.127h7.469zm-14.938 0v1.127h-7.468v-1.127h7.468zm-14.937 0v1.127h-7.469v-1.127h7.469zm-14.938 0v1.127H169.2v-1.127h7.468zm-14.937 0v1.127h-7.469v-1.127h7.469zm-14.938 0v1.127h-7.468v-1.127h7.468zm-14.937 0v1.127h-7.469v-1.127h7.469zm-14.938 0v1.127h-7.468v-1.127h7.468zm-14.937 0v1.127h-7.469v-1.127h7.469zm-14.938 0v1.127h-7.468v-1.127h7.468zm-14.937 0v1.127h-7.469v-1.127h7.469zm-14.938 0v1.127H49.7v-1.127h7.468zm-14.937 0v1.127h-7.469v-1.127h7.469zm252.312 0v1.127H288.7v-1.127h5.843z"/><path fill="#D6DADB" d="M2.794 35.436v-2.412h293.842v2.412zm19.124 82.257a1.809 1.809 0 1 1-1.471-3.305l35.745-15.92a1.806 1.806 0 0 1 1.887.257l24.615 20.291 36.945-77.79c.687-1.448 2.78-1.352 3.332.152l43.278 117.852 26.908-57.045c.138-.293.352-.543.62-.725l46.03-31.263a1.81 1.81 0 0 1 2.034 2.993l-45.623 30.986-28.541 60.507c-.685 1.452-2.781 1.359-3.335-.148L121.06 46.668l-36.092 75.995c-.24.503-.697.868-1.24.99a1.814 1.814 0 0 1-1.544-.37L56.64 102.23l-34.723 15.464.001-.001z"/><ellipse cx="241.06" cy="70.731" fill="#FFF" opacity=".6" rx="8.11" ry="8.4"/><ellipse cx="166.085" cy="163.655" fill="#FFF" opacity=".6" rx="8.11" ry="8.4"/><path fill="#FF444F" d="M166.085 154.049c5.155 0 9.317 4.31 9.317 9.606s-4.162 9.606-9.317 9.606-9.316-4.31-9.316-9.606 4.161-9.606 9.316-9.606zm0 2.412c-3.803 0-6.904 3.211-6.904 7.194s3.1 7.194 6.904 7.194 6.905-3.211 6.905-7.194-3.101-7.194-6.905-7.194zm74.975-95.337c5.155 0 9.316 4.31 9.316 9.607 0 5.296-4.161 9.606-9.316 9.606-5.155 0-9.317-4.31-9.317-9.606 0-5.297 4.162-9.607 9.317-9.607zm0 2.412c-3.804 0-6.905 3.212-6.905 7.195 0 3.982 3.101 7.194 6.905 7.194 3.803 0 6.904-3.212 6.904-7.194 0-3.983-3.1-7.195-6.904-7.195z"/><path fill="#333" d="M27.196 19.86a3.808 3.808 0 0 1-1.256 2.639 4.296 4.296 0 0 1-2.915.948 4.156 4.156 0 0 1-2.235-.599 3.94 3.94 0 0 1-1.495-1.702 6.111 6.111 0 0 1-.546-2.565v-.985a6.163 6.163 0 0 1 .535-2.639 3.996 3.996 0 0 1 1.528-1.754 4.273 4.273 0 0 1 2.303-.617 4.11 4.11 0 0 1 2.833.951 3.962 3.962 0 0 1 1.248 2.688h-1.839a2.606 2.606 0 0 0-.669-1.647 2.21 2.21 0 0 0-1.57-.502 2.161 2.161 0 0 0-1.853.874 4.352 4.352 0 0 0-.662 2.565v.936a4.615 4.615 0 0 0 .617 2.613c.4.597 1.088.94 1.809.903a2.402 2.402 0 0 0 1.633-.486c.42-.44.666-1.016.695-1.621h1.84-.001zm3.364 3.442h-1.772V12.15h1.772v11.152zm1.6-4a4.61 4.61 0 0 1 .46-2.081 3.348 3.348 0 0 1 1.292-1.424 3.66 3.66 0 0 1 1.914-.494c.97-.038 1.91.333 2.594 1.022a4.014 4.014 0 0 1 1.076 2.714l.008.416a4.644 4.644 0 0 1-.449 2.074 3.318 3.318 0 0 1-1.285 1.416 3.685 3.685 0 0 1-1.933.502 3.437 3.437 0 0 1-2.672-1.108 4.218 4.218 0 0 1-1.005-2.951v-.086zm1.775.15c-.04.671.135 1.337.5 1.902.321.45.849.707 1.402.684a1.622 1.622 0 0 0 1.398-.695c.374-.614.55-1.328.5-2.044a3.115 3.115 0 0 0-.511-1.885 1.736 1.736 0 0 0-2.78-.011 3.416 3.416 0 0 0-.51 2.052v-.004l.001.001zm11.496 1.716a.8.8 0 0 0-.392-.72 4.169 4.169 0 0 0-1.293-.436 6.654 6.654 0 0 1-1.514-.48 2.01 2.01 0 0 1-1.327-1.85 2.09 2.09 0 0 1 .86-1.699 3.42 3.42 0 0 1 2.19-.68 3.56 3.56 0 0 1 2.291.695c.565.43.889 1.103.871 1.81h-1.775a1.082 1.082 0 0 0-.378-.847 1.463 1.463 0 0 0-1.009-.335 1.572 1.572 0 0 0-.953.264.848.848 0 0 0-.366.721.714.714 0 0 0 .344.632c.434.222.9.374 1.382.454.57.107 1.123.29 1.645.542.354.174.658.435.882.758.2.324.3.699.288 1.078a2.041 2.041 0 0 1-.886 1.714 3.784 3.784 0 0 1-2.313.658 4.122 4.122 0 0 1-1.731-.35 2.846 2.846 0 0 1-1.181-.955 2.26 2.26 0 0 1-.422-1.316h1.719c.004.377.18.73.478.963a1.85 1.85 0 0 0 1.159.335c.374.026.746-.065 1.065-.26a.817.817 0 0 0 .366-.696zm6.765 2.279a3.679 3.679 0 0 1-2.732-1.056 3.82 3.82 0 0 1-1.046-2.814v-.219a4.69 4.69 0 0 1 .456-2.1 3.47 3.47 0 0 1 1.282-1.442 3.4 3.4 0 0 1 1.838-.513c.943-.056 1.86.32 2.493 1.022.635.83.947 1.86.879 2.9v.706h-5.158c.02.575.251 1.124.65 1.542.383.377.904.582 1.443.565a2.406 2.406 0 0 0 1.985-.981l.956.91c-.317.47-.754.848-1.267 1.093a3.978 3.978 0 0 1-1.779.387zm-.209-6.728a1.5 1.5 0 0 0-1.181.506 2.624 2.624 0 0 0-.572 1.416h3.379v-.13a2.135 2.135 0 0 0-.475-1.338 1.49 1.49 0 0 0-1.151-.454zm8.196 2.799h-3.83v-1.42h3.83v1.42zm3.484 2.316h4.821v1.468H61.82V12.73h1.847v9.104zm5.737-2.532a4.61 4.61 0 0 1 .46-2.081 3.35 3.35 0 0 1 1.293-1.424 3.658 3.658 0 0 1 1.91-.494c.97-.04 1.913.332 2.597 1.022a4.014 4.014 0 0 1 1.076 2.714l.008.416a4.644 4.644 0 0 1-.449 2.074 3.318 3.318 0 0 1-1.285 1.416 3.685 3.685 0 0 1-1.933.502 3.437 3.437 0 0 1-2.672-1.108 4.218 4.218 0 0 1-1.005-2.951v-.086zm1.775.15c-.04.671.135 1.337.5 1.902.322.45.849.707 1.402.684a1.622 1.622 0 0 0 1.398-.695c.374-.614.55-1.328.501-2.044a3.112 3.112 0 0 0-.516-1.885 1.736 1.736 0 0 0-2.777-.011 3.415 3.415 0 0 0-.508 2.052v-.004.001zm14.008 1.419l1.256-5.427h1.727l-2.153 7.858h-1.458l-1.693-5.393-1.667 5.393h-1.457l-2.164-7.854h1.73l1.278 5.364 1.622-5.364h1.335l1.644 5.423z"/><path fill="#999" d="M256.096 54.175a2.86 2.86 0 0 1-.942 1.978 3.218 3.218 0 0 1-2.183.71 3.118 3.118 0 0 1-1.678-.447 2.962 2.962 0 0 1-1.121-1.278 4.6 4.6 0 0 1-.411-1.922v-.743a4.625 4.625 0 0 1 .4-1.974 3 3 0 0 1 1.147-1.32 3.21 3.21 0 0 1 1.73-.46 3.084 3.084 0 0 1 2.123.713c.56.527.895 1.249.935 2.015h-1.38a1.954 1.954 0 0 0-.5-1.234 1.66 1.66 0 0 0-1.178-.38 1.622 1.622 0 0 0-1.39.659 3.266 3.266 0 0 0-.493 1.925v.703a3.458 3.458 0 0 0 .46 1.958c.3.448.815.706 1.356.677.44.032.876-.1 1.226-.368.314-.33.5-.759.523-1.212h1.376zm2.526 2.58h-1.33v-8.363h1.33v8.363zm1.196-3a3.472 3.472 0 0 1 .348-1.561 2.51 2.51 0 0 1 .971-1.067c.434-.253.93-.381 1.432-.371a2.6 2.6 0 0 1 1.943.765 3.01 3.01 0 0 1 .811 2.037l.004.312a3.48 3.48 0 0 1-.336 1.558c-.21.44-.545.81-.964 1.06-.439.256-.94.385-1.447.375a2.578 2.578 0 0 1-2.007-.83 3.169 3.169 0 0 1-.751-2.211l-.004-.067zm1.334.112c-.03.503.1 1.003.374 1.427.242.337.638.53 1.054.513.416.016.81-.18 1.047-.52.28-.46.41-.995.373-1.532.028-.5-.107-.997-.385-1.416a1.306 1.306 0 0 0-2.081-.007 2.557 2.557 0 0 0-.385 1.538l.003-.003zm8.623 1.286a.598.598 0 0 0-.295-.54 3.125 3.125 0 0 0-.972-.326 5.075 5.075 0 0 1-1.133-.357 1.505 1.505 0 0 1-.998-1.39 1.568 1.568 0 0 1 .647-1.275 2.56 2.56 0 0 1 1.645-.51c.615-.03 1.22.154 1.715.52.424.323.667.827.654 1.358h-1.33a.816.816 0 0 0-.284-.632c-.21-.178-.48-.27-.755-.257a1.177 1.177 0 0 0-.718.205.63.63 0 0 0-.277.539.536.536 0 0 0 .262.472c.326.167.677.282 1.039.342a4.9 4.9 0 0 1 1.23.409c.265.129.492.323.661.564.15.242.226.523.217.807.01.514-.24.998-.665 1.29-.51.348-1.119.52-1.735.49a3.072 3.072 0 0 1-1.296-.26 2.131 2.131 0 0 1-.886-.717 1.694 1.694 0 0 1-.318-.989h1.29c0 .283.132.55.355.725.253.18.56.268.87.253.282.018.561-.052.8-.2a.614.614 0 0 0 .277-.521zm5.075 1.71a2.76 2.76 0 0 1-2.052-.792 2.863 2.863 0 0 1-.784-2.108V53.8a3.517 3.517 0 0 1 .34-1.576 2.553 2.553 0 0 1 2.343-1.468 2.333 2.333 0 0 1 1.869.765c.475.623.709 1.395.658 2.175v.531h-3.869c.016.43.189.84.486 1.152.287.285.68.44 1.084.428a1.81 1.81 0 0 0 1.488-.736l.717.68a2.388 2.388 0 0 1-.95.818c-.414.2-.87.302-1.33.297v-.003zm-.16-5.048a1.126 1.126 0 0 0-.886.383 1.97 1.97 0 0 0-.43 1.063h2.538v-.1a1.604 1.604 0 0 0-.359-1.004 1.112 1.112 0 0 0-.863-.342zM156.431 182.032h3.622v1.1h-5.008v-7.928h1.386v6.828zm4.306-1.9c-.009-.54.11-1.074.344-1.56.213-.443.55-.814.972-1.067a2.743 2.743 0 0 1 1.431-.372 2.598 2.598 0 0 1 1.944.766c.516.553.805 1.28.81 2.036l.004.313a3.476 3.476 0 0 1-.336 1.557c-.21.44-.545.81-.964 1.06-.439.256-.94.385-1.447.375a2.575 2.575 0 0 1-2.007-.829 3.17 3.17 0 0 1-.751-2.215v-.064zm1.33.112c-.03.503.1 1.003.374 1.427.242.338.638.53 1.054.513.416.016.81-.18 1.047-.52.28-.46.413-.995.377-1.532.028-.5-.107-.997-.385-1.416a1.304 1.304 0 0 0-2.085-.007 2.56 2.56 0 0 0-.381 1.539v-.004h-.001zm10.503 1.063l.946-4.066h1.296l-1.614 5.891h-1.095l-1.271-4.044-1.248 4.044h-1.095l-1.622-5.891h1.3l.957 4.025 1.215-4.025h1.001l1.23 4.066z"/><path fill="#333" d="M8.789 123.059c.45.001.892.111 1.29.319.365.193.665.49.859.855.2.378.292.804.265 1.23l-1.035-.004c.06-.406-.06-.818-.329-1.13a1.481 1.481 0 0 0-1.095-.408 2.045 2.045 0 0 0-1.252.345 1.36 1.36 0 0 0-.583.982c-.072.54.263.949 1.005 1.226l.815.29.411.175a2.048 2.048 0 0 1 1.428 2.104c-.032.42-.191.822-.456 1.152a2.544 2.544 0 0 1-1.069.758c-.463.18-.958.265-1.454.25a3.06 3.06 0 0 1-1.371-.317 2.24 2.24 0 0 1-.946-.858 2.136 2.136 0 0 1-.284-1.238l1.031.007c-.052.413.09.828.385 1.123.34.295.78.449 1.23.427.461.026.92-.094 1.308-.342.33-.214.549-.562.598-.951v-.004c.08-.58-.223-1.004-.908-1.271l-.95-.342-.317-.138c-1.066-.483-1.565-1.162-1.495-2.037.032-.424.19-.83.456-1.163.28-.347.644-.616 1.058-.78a3.42 3.42 0 0 1 1.405-.26zm9.453 2.029a1.966 1.966 0 0 1 1.438.557c.351.386.509.91.43 1.424l-.482 2.921-.026.417c-.007.2.015.4.067.594l-.011.093h-1.01a1.312 1.312 0 0 1-.037-.312l.015-.308a2.437 2.437 0 0 1-1.73.728 1.774 1.774 0 0 1-1.271-.49 1.487 1.487 0 0 1-.449-1.209c.02-.592.327-1.137.823-1.46a3.514 3.514 0 0 1 2.025-.524l1.036.003.067-.468a1.075 1.075 0 0 0-.206-.836.994.994 0 0 0-.785-.316 1.54 1.54 0 0 0-.897.245c-.247.153-.42.4-.478.684l-.998.004c.033-.34.176-.662.408-.915a2.35 2.35 0 0 1 .911-.62c.368-.148.762-.22 1.16-.212zm-4.209-1.312l-.25 1.427h1.076l-.135.78h-1.073l-.62 3.662c-.01.086-.011.173-.004.26a.413.413 0 0 0 .464.427c.163-.004.326-.023.486-.055l-.079.821c-.236.066-.48.1-.725.1-.35.014-.684-.15-.886-.434a1.665 1.665 0 0 1-.228-1.134l.598-3.647h-1.046l.138-.78h1.047l.254-1.427h.983zm13.589 0l-.25 1.427h1.076l-.134.78h-1.077l-.62 3.662c-.01.086-.012.173-.004.26a.413.413 0 0 0 .464.427c.162-.004.323-.023.482-.055l-.075.821c-.236.066-.48.1-.725.1-.35.014-.684-.15-.886-.434a1.666 1.666 0 0 1-.232-1.134l.602-3.647h-1.046l.138-.78h1.046l.25-1.427h.991zm-3.304 1.308c.16.006.319.034.471.082l-.108.936-.464-.048a1.7 1.7 0 0 0-1.498.855l-.73 4.185h-.993l1.027-5.891.957-.004-.15.684c.329-.5.888-.8 1.488-.799zm-7.564 3.442a1.08 1.08 0 0 0-.561.833.84.84 0 0 0 .19.687.93.93 0 0 0 .71.286h.001c.315.01.626-.068.9-.223.29-.163.54-.388.733-.658l.213-1.215-.748-.004a2.852 2.852 0 0 0-1.438.294z"/></g></svg>