<svg xmlns="http://www.w3.org/2000/svg" width="299" height="197" viewBox="0 0 299 197">
    <g fill="none">
        <path fill="#FFF" d="M0 0L299 0 299 197 0 197z"/>
        <path fill="#D6DADB" d="M1.987 1.98v193.04h295.026V1.98H1.987zM299 0v197H0V0h299z"/>
        <path fill="#F2F3F4" d="M40.473 35.419v19.542h35.459V35.419h1.206l-.001 19.542h35.422V35.419h1.206v19.542h35.459V35.419h1.206v19.542h35.421l.001-19.542h1.206v19.542h35.42l.001-19.542h1.206v19.542l70.858.001v1.206h-70.858v39.124h70.858v1.206l-70.858-.001v18.941h70.858v1.206l-70.858-.001v18.977l70.858.001v1.206h-70.858v39.085l70.858.001v1.206l-70.858-.001v17.165h-1.206l-.001-17.165h-35.42v17.165h-1.206l-.001-17.165H150.43v17.165h-1.206v-17.165h-35.459v17.165h-1.206v-17.165H77.137l.001 17.165h-1.206v-17.165H40.473v17.165h-1.206l-.001-17.165-34.379.001v-1.206l34.379-.001v-39.085H4.887v-1.206l34.379-.001v-18.977l-34.379.001v-1.206h34.379V96.497l-34.379.001v-1.206h34.379V56.168H4.887v-1.206l34.379-.001.001-19.542h1.206zm182.005 101.408h-35.42v39.085h35.42v-39.085zm-36.627 0H150.43v39.085h35.421v-39.085zm-36.627 0h-35.459v39.085h35.459v-39.085zm-36.665 0H77.137v39.085h35.422v-39.085zm-36.627 0H40.473v39.085h35.459v-39.085zm146.546-20.184h-35.42v18.977h35.42v-18.977zm-36.627 0H150.43v18.977h35.421v-18.977zm-36.627 0h-35.459v18.977h35.459v-18.977zm-36.665 0H77.137v18.977h35.422v-18.977zm-36.627 0H40.473v18.977h35.459v-18.977zm0-20.146H40.473v18.941h35.459V96.497zm36.627 0H77.137v18.941h35.422V96.497zm36.665 0h-35.459v18.941h35.459V96.497zm36.627 0H150.43v18.941h35.421V96.497zm36.627 0h-35.42v18.941h35.42V96.497zm0-40.329h-35.42v39.124h35.42V56.168zm-36.627 0H150.43v39.124h35.421V56.168zm-36.627 0h-35.459v39.124h35.459V56.168zm-36.665 0H77.137v39.124h35.422V56.168zm-36.627 0H40.473v39.124h35.459V56.168z"/>
        <path fill="#333" d="M241.663 35.42v158.863h-1.206V35.42h1.206zm52.88 127.82v1.128H288.7v-1.128h5.843zm-282.187 0v1.128H4.887v-1.128h7.469zm268.875 0v1.128h-7.469v-1.128h7.469zm-14.938 0v1.128h-7.468v-1.128h7.468zm-14.937 0v1.128h-7.469v-1.128h7.469zm-14.938 0v1.128h-7.468v-1.128h7.468zm-14.937 0v1.128h-7.469v-1.128h7.469zm-14.938 0v1.128h-7.468v-1.128h7.468zm-14.937 0v1.128h-7.469v-1.128h7.469zm-14.938 0v1.128H169.2v-1.128h7.468zm-14.937 0v1.128h-7.469v-1.128h7.469zm-14.938 0v1.128h-7.468v-1.128h7.468zm-14.937 0v1.128h-7.469v-1.128h7.469zm-14.938 0v1.128h-7.468v-1.128h7.468zm-14.937 0v1.128h-7.469v-1.128h7.469zm-14.938 0v1.128h-7.468v-1.128h7.468zm-14.937 0v1.128h-7.469v-1.128h7.469zm-14.938 0v1.128H49.7v-1.128h7.468zm-14.937 0v1.128h-7.469v-1.128h7.469zm-14.938 0v1.128h-7.468v-1.128h7.468zm0-91.772v1.127h-7.468v-1.127h7.468zm-14.937 0v1.127H4.887v-1.127h7.469zm268.875 0v1.127h-7.469v-1.127h7.469zm-14.938 0v1.127h-7.468v-1.127h7.468zm-14.937 0v1.127h-7.469v-1.127h7.469zm-14.938 0v1.127h-7.468v-1.127h7.468zm-14.937 0v1.127h-7.469v-1.127h7.469zm-14.938 0v1.127h-7.468v-1.127h7.468zm-14.937 0v1.127h-7.469v-1.127h7.469zm-14.938 0v1.127H169.2v-1.127h7.468zm-14.937 0v1.127h-7.469v-1.127h7.469zm-14.938 0v1.127h-7.468v-1.127h7.468zm-14.937 0v1.127h-7.469v-1.127h7.469zm-14.938 0v1.127h-7.468v-1.127h7.468zm-14.937 0v1.127h-7.469v-1.127h7.469zm-14.938 0v1.127h-7.468v-1.127h7.468zm-14.937 0v1.127h-7.469v-1.127h7.469zm-14.938 0v1.127H49.7v-1.127h7.468zm-14.937 0v1.127h-7.469v-1.127h7.469zm252.312 0v1.127H288.7v-1.127h5.843z"/>
        <path fill="#D6DADB" d="M2.794 35.436L2.794 33.024 296.636 33.024 296.636 35.436zM21.918 117.693c-.592.275-1.287.209-1.817-.172-.53-.382-.813-1.019-.742-1.668.072-.649.488-1.209 1.088-1.465l35.745-15.92c.627-.28 1.358-.18 1.887.257l24.615 20.291 36.945-77.79c.687-1.448 2.78-1.352 3.332.152l43.278 117.852 26.908-57.045c.138-.293.352-.543.62-.725l46.03-31.263c.535-.363 1.223-.414 1.805-.132.581.28.97.851 1.017 1.496.047.645-.253 1.266-.788 1.629l-45.623 30.986-28.541 60.507c-.685 1.452-2.781 1.359-3.335-.148L121.06 46.668l-36.092 75.995c-.24.503-.697.868-1.24.99-.545.12-1.114-.016-1.544-.37L56.64 102.23l-34.723 15.464.001-.001z"/>
        <ellipse cx="241.06" cy="70.731" fill="#FFF" opacity=".6" rx="8.11" ry="8.4"/>
        <ellipse cx="166.085" cy="163.655" fill="#FFF" opacity=".6" rx="8.11" ry="8.4"/>
        <path fill="#FF444F" d="M166.085 154.049c5.155 0 9.317 4.31 9.317 9.606s-4.162 9.606-9.317 9.606-9.316-4.31-9.316-9.606 4.161-9.606 9.316-9.606zm0 2.412c-3.803 0-6.904 3.211-6.904 7.194s3.1 7.194 6.904 7.194 6.905-3.211 6.905-7.194-3.101-7.194-6.905-7.194zm74.975-95.337c5.155 0 9.316 4.31 9.316 9.607 0 5.296-4.161 9.606-9.316 9.606-5.155 0-9.317-4.31-9.317-9.606 0-5.297 4.162-9.607 9.317-9.607zm0 2.412c-3.804 0-6.905 3.212-6.905 7.195 0 3.982 3.101 7.194 6.905 7.194 3.803 0 6.904-3.212 6.904-7.194 0-3.983-3.1-7.195-6.904-7.195z"/>
        <path fill="#333" d="M27.196 19.86c-.051 1.012-.503 1.961-1.256 2.639-.822.664-1.86 1.001-2.915.948-.787.016-1.562-.192-2.235-.599-.654-.409-1.174-1-1.495-1.702-.365-.805-.552-1.68-.546-2.565v-.985c-.018-.908.164-1.81.535-2.639.324-.723.856-1.334 1.528-1.754.694-.42 1.492-.634 2.303-.617 1.03-.05 2.041.29 2.833.951.748.7 1.195 1.664 1.248 2.688h-1.839c-.023-.61-.26-1.194-.669-1.647-.439-.364-1.002-.543-1.57-.502-.725-.039-1.421.29-1.853.874-.482.765-.713 1.662-.662 2.565v.936c-.058.913.157 1.822.617 2.613.4.597 1.088.94 1.809.903.585.043 1.167-.13 1.633-.486.42-.44.666-1.016.695-1.621h1.84-.001zm3.364 3.442h-1.772V12.15h1.772V23.302zm1.6-4c-.011-.72.146-1.433.46-2.081.282-.59.731-1.086 1.292-1.424.58-.337 1.243-.508 1.914-.494.97-.038 1.91.333 2.594 1.022.687.737 1.07 1.706 1.076 2.714l.008.416c.012.717-.141 1.427-.449 2.074-.28.588-.727 1.08-1.285 1.416-.586.342-1.255.516-1.933.502-1.01.042-1.988-.364-2.672-1.108-.7-.82-1.059-1.875-1.005-2.951v-.086zm1.775.15c-.04.671.135 1.337.5 1.902.321.45.849.707 1.402.684.554.023 1.082-.24 1.398-.695.374-.614.55-1.328.5-2.044.036-.667-.143-1.328-.511-1.885-.326-.439-.84-.699-1.387-.7-.547-.003-1.063.253-1.393.689-.383.613-.561 1.331-.51 2.052v-.004l.001.001zm11.496 1.716c.012-.294-.139-.57-.392-.72-.404-.215-.841-.363-1.293-.436-.522-.099-1.03-.26-1.514-.48-.783-.282-1.31-1.018-1.327-1.85-.003-.672.317-1.304.86-1.699.63-.472 1.403-.712 2.19-.68.821-.04 1.63.206 2.291.695.565.43.889 1.103.871 1.81h-1.775c.007-.325-.131-.636-.378-.847-.282-.234-.643-.354-1.009-.335-.338-.017-.672.076-.953.264-.236.163-.374.434-.366.721-.008.257.124.499.344.632.434.222.9.374 1.382.454.57.107 1.123.29 1.645.542.354.174.658.435.882.758.2.324.3.699.288 1.078.01.684-.322 1.327-.886 1.714-.679.465-1.491.696-2.313.658-.596.01-1.186-.11-1.731-.35-.473-.205-.881-.536-1.181-.955-.275-.384-.422-.844-.422-1.316h1.719c.004.377.18.73.478.963.338.238.746.356 1.159.335.374.026.746-.065 1.065-.26.233-.154.371-.417.366-.696zm6.765 2.279c-1.018.041-2.007-.341-2.732-1.056-.718-.756-1.096-1.772-1.046-2.814v-.219c-.013-.726.144-1.445.456-2.1.282-.592.727-1.092 1.282-1.442.551-.343 1.189-.521 1.838-.513.943-.056 1.86.32 2.493 1.022.635.83.947 1.86.879 2.9v.706h-5.158c.02.575.251 1.124.65 1.542.383.377.904.582 1.443.565.782.015 1.522-.351 1.985-.981l.956.91c-.317.47-.754.848-1.267 1.093-.555.265-1.164.397-1.779.387zm-.209-6.728c-.45-.017-.883.169-1.181.506-.327.405-.526.898-.572 1.416h3.379v-.13c-.001-.487-.169-.96-.475-1.338-.3-.311-.72-.477-1.151-.454zm8.196 2.799h-3.83v-1.42h3.83v1.42zm3.484 2.316h4.821v1.468H61.82V12.73h1.847v9.104zm5.737-2.532c-.011-.72.146-1.433.46-2.081.282-.59.732-1.086 1.293-1.424.58-.337 1.24-.507 1.91-.494.97-.04 1.913.332 2.597 1.022.687.737 1.07 1.706 1.076 2.714l.008.416c.012.717-.141 1.427-.449 2.074-.28.588-.727 1.08-1.285 1.416-.586.342-1.255.516-1.933.502-1.01.042-1.988-.364-2.672-1.108-.7-.82-1.059-1.875-1.005-2.951v-.086zm1.775.15c-.04.671.135 1.337.5 1.902.322.45.849.707 1.402.684.554.023 1.082-.24 1.398-.695.374-.614.55-1.328.501-2.044.035-.667-.146-1.328-.516-1.885-.326-.438-.84-.697-1.386-.699-.546-.002-1.061.253-1.391.688-.382.613-.56 1.331-.508 2.052v-.004.001zm14.008 1.419l1.256-5.427h1.727l-2.153 7.858h-1.458l-1.693-5.393-1.667 5.393h-1.457l-2.164-7.854h1.73l1.278 5.364 1.622-5.364h1.335l1.644 5.423z"/>
        <path fill="#999" d="M256.096 54.175c-.039.758-.378 1.47-.942 1.978-.616.497-1.393.75-2.183.71-.59.013-1.172-.142-1.678-.447-.49-.307-.88-.751-1.121-1.278-.274-.603-.414-1.26-.411-1.922v-.743c-.013-.68.123-1.353.4-1.974.243-.544.642-1.004 1.147-1.32.521-.314 1.121-.474 1.73-.46.772-.037 1.53.218 2.123.713.56.527.895 1.249.935 2.015h-1.38c-.017-.457-.194-.894-.5-1.234-.33-.274-.751-.41-1.178-.38-.545-.028-1.067.22-1.39.659-.36.575-.533 1.248-.493 1.925v.703c-.044.684.116 1.365.46 1.958.3.448.815.706 1.356.677.44.032.876-.1 1.226-.368.314-.33.5-.759.523-1.212h1.376zm2.526 2.58h-1.33v-8.363h1.33v8.363zm1.196-3c-.007-.54.112-1.075.348-1.561.212-.443.55-.814.971-1.067.434-.253.93-.381 1.432-.371.726-.028 1.431.25 1.943.765.517.553.806 1.28.811 2.037l.004.312c.01.538-.105 1.072-.336 1.558-.21.44-.545.81-.964 1.06-.439.256-.94.385-1.447.375-.759.032-1.493-.271-2.007-.83-.523-.615-.791-1.405-.751-2.211l-.004-.067zm1.334.112c-.03.503.1 1.003.374 1.427.242.337.638.53 1.054.513.416.016.81-.18 1.047-.52.28-.46.41-.995.373-1.532.028-.5-.107-.997-.385-1.416-.245-.327-.63-.52-1.039-.522-.409-.002-.795.19-1.042.515-.288.459-.423.998-.385 1.538l.003-.003zm8.623 1.286c.009-.22-.104-.428-.295-.54-.304-.161-.632-.272-.972-.326-.39-.074-.77-.194-1.133-.357-.59-.211-.986-.764-.998-1.39-.002-.504.239-.979.647-1.275.473-.355 1.054-.535 1.645-.51.615-.03 1.22.154 1.715.52.424.323.667.827.654 1.358h-1.33c.004-.242-.1-.474-.284-.632-.21-.178-.48-.27-.755-.257-.255-.011-.507.06-.718.205-.178.12-.283.324-.277.539-.004.193.096.373.262.472.326.167.677.282 1.039.342.426.081.84.219 1.23.409.265.129.492.323.661.564.15.242.226.523.217.807.01.514-.24.998-.665 1.29-.51.348-1.119.52-1.735.49-.446.008-.888-.08-1.296-.26-.355-.154-.661-.402-.886-.717-.207-.288-.318-.634-.318-.989h1.29c0 .283.132.55.355.725.253.18.56.268.87.253.282.018.561-.052.8-.2.175-.115.28-.312.277-.521zm5.075 1.71c-.764.032-1.507-.255-2.052-.792-.538-.566-.821-1.328-.784-2.108V53.8c-.01-.545.106-1.084.34-1.576.425-.907 1.342-1.48 2.343-1.468.707-.042 1.395.24 1.869.765.475.623.709 1.395.658 2.175v.531h-3.869c.016.43.189.84.486 1.152.287.285.68.44 1.084.428.586.01 1.14-.264 1.488-.736l.717.68c-.238.352-.566.635-.95.818-.414.2-.87.302-1.33.297v-.003zm-.16-5.048c-.338-.012-.663.129-.886.383-.246.304-.395.674-.43 1.063h2.538v-.1c-.002-.366-.128-.72-.359-1.004-.224-.234-.54-.36-.863-.342zM156.431 182.032h3.622v1.1h-5.008v-7.928h1.386v6.828zm4.306-1.9c-.009-.54.11-1.074.344-1.56.213-.443.55-.814.972-1.067.434-.253.929-.381 1.431-.372.727-.028 1.432.25 1.944.766.516.553.805 1.28.81 2.036l.004.313c.01.538-.105 1.071-.336 1.557-.21.44-.545.81-.964 1.06-.439.256-.94.385-1.447.375-.758.033-1.493-.27-2.007-.829-.524-.616-.792-1.408-.751-2.215v-.064zm1.33.112c-.03.503.1 1.003.374 1.427.242.338.638.53 1.054.513.416.016.81-.18 1.047-.52.28-.46.413-.995.377-1.532.028-.5-.107-.997-.385-1.416-.245-.329-.63-.523-1.04-.525-.41-.001-.798.19-1.045.518-.287.46-.42.999-.381 1.539v-.004h-.001zm10.503 1.063l.946-4.066h1.296l-1.614 5.891h-1.095l-1.271-4.044-1.248 4.044h-1.095l-1.622-5.891h1.3l.957 4.025 1.215-4.025h1.001l1.23 4.066z"/>
        <path fill="#333" d="M8.789 123.059c.45.001.892.111 1.29.319.365.193.665.49.859.855.2.378.292.804.265 1.23l-1.035-.004c.06-.406-.06-.818-.329-1.13-.293-.28-.69-.428-1.095-.408-.444-.024-.883.097-1.252.345-.329.226-.542.585-.583.982-.072.54.263.949 1.005 1.226l.815.29.411.175c.906.285 1.498 1.156 1.428 2.104-.032.42-.191.822-.456 1.152-.284.342-.653.603-1.069.758-.463.18-.958.265-1.454.25-.475.002-.945-.106-1.371-.317-.392-.188-.72-.486-.946-.858-.218-.374-.317-.806-.284-1.238l1.031.007c-.052.413.09.828.385 1.123.34.295.78.449 1.23.427.461.026.92-.094 1.308-.342.33-.214.549-.562.598-.951v-.004c.08-.58-.223-1.004-.908-1.271l-.95-.342-.317-.138c-1.066-.483-1.565-1.162-1.495-2.037.032-.424.19-.83.456-1.163.28-.347.644-.616 1.058-.78.445-.185.924-.273 1.405-.26zm9.453 2.029c.535-.018 1.054.183 1.438.557.351.386.509.91.43 1.424l-.482 2.921-.026.417c-.007.2.015.4.067.594l-.011.093h-1.01c-.025-.102-.037-.207-.037-.312l.015-.308c-.456.464-1.08.726-1.73.728-.472.012-.93-.164-1.271-.49-.326-.314-.491-.759-.449-1.209.02-.592.327-1.137.823-1.46.606-.376 1.312-.559 2.025-.524l1.036.003.067-.468c.051-.295-.024-.598-.206-.836-.201-.217-.49-.333-.785-.316-.317-.013-.63.073-.897.245-.247.153-.42.4-.478.684l-.998.004c.033-.34.176-.662.408-.915.25-.276.562-.488.911-.62.368-.148.762-.22 1.16-.212zm-4.209-1.312l-.25 1.427h1.076l-.135.78h-1.073l-.62 3.662c-.01.086-.011.173-.004.26-.004.121.044.238.134.32.089.082.21.121.33.107.163-.004.326-.023.486-.055l-.079.821c-.236.066-.48.1-.725.1-.35.014-.684-.15-.886-.434-.209-.339-.29-.74-.228-1.134l.598-3.647h-1.046l.138-.78h1.047l.254-1.427h.983zm13.589 0l-.25 1.427h1.076l-.134.78h-1.077l-.62 3.662c-.01.086-.012.173-.004.26-.004.121.044.238.134.32.089.082.21.121.33.107.162-.004.323-.023.482-.055l-.075.821c-.236.066-.48.1-.725.1-.35.014-.684-.15-.886-.434-.21-.338-.293-.74-.232-1.134l.602-3.647h-1.046l.138-.78h1.046l.25-1.427h.991zm-3.304 1.308c.16.006.319.034.471.082l-.108.936-.464-.048c-.618-.008-1.191.319-1.498.855l-.73 4.185h-.993l1.027-5.891.957-.004-.15.684c.329-.5.888-.8 1.488-.799zm-7.564 3.442c-.313.169-.522.48-.561.833-.042.246.028.498.19.687.185.193.443.297.71.286h.001c.315.01.626-.068.9-.223.29-.163.54-.388.733-.658l.213-1.215-.748-.004c-.497-.029-.992.072-1.438.294z"/>
    </g>
</svg>
