<svg xmlns="http://www.w3.org/2000/svg" width="299" height="197"><g fill="none"><path fill="#FFF" d="M0 0h299v197H0z"/><path fill="#D6DADB" d="M1.987 1.98v193.04h295.026V1.98H1.987zM299 0v197H0V0h299z"/><path fill="#F2F3F4" d="M4.887 56.446v-1.207h289.656v1.207H4.887zm0 40.534v-1.207h289.656v1.207H4.887zm0 40.534v-1.207h289.656v1.207H4.887zm0 40.496v-1.207h289.656v1.207H4.887zm34.38-142.416h1.206v159.67h-1.206V35.594zm36.664 0h1.207v159.67h-1.207V35.594zm36.628 0h1.207v159.67h-1.207V35.594zm36.665 0h1.207v159.67h-1.207V35.594zm36.627 0h1.207v159.67h-1.207V35.594zm36.628 0h1.207v159.67h-1.207V35.594zM4.887 117.228v-1.207h289.656v1.207H4.887z"/><path fill="#333" d="M259.144 35.594h1.207v159.67h-1.207V35.594zM4.887 76.731v-1.206h289.656v1.206H4.887zm0 81.03v-1.206h289.656v1.207H4.887v-.001z"/><path fill="#D6DADB" d="M2.794 35.606V33.19h293.842v2.415zM81.26 98.438l-40.596 19.814a1.809 1.809 0 0 1-2.6-1.753 1.81 1.81 0 0 1 1.012-1.501l41.486-20.249a1.813 1.813 0 0 1 1.736.08l38.373 23.362 27.773-27.4a1.81 1.81 0 0 1 2.444-.09l35.648 30.304 35.474-26.087a1.81 1.81 0 0 1 1.546-.29l36.665 9.938a1.81 1.81 0 1 1-.947 3.495l-35.823-9.709-35.924 26.418a1.81 1.81 0 0 1-2.245-.079l-35.476-30.157-27.598 27.227a1.81 1.81 0 0 1-2.213.258L81.26 98.438z"/><path fill="#4BB4B3" d="M187.987 147.445h-34.945l-5.382-8.181-5.382 8.181h-34.946a4.734 4.734 0 0 0-4.71 4.782v24.694a4.753 4.753 0 0 0 4.71 4.782h80.692a4.734 4.734 0 0 0 4.71-4.782v-24.694a4.758 4.758 0 0 0-4.747-4.782z"/><ellipse cx="259.747" cy="107.696" fill="#FFF" opacity=".6" rx="8.11" ry="8.443"/><path fill="#FF444F" d="M259.747 117.346c-5.157 0-9.317-4.331-9.317-9.65 0-5.32 4.16-9.65 9.317-9.65s9.318 4.33 9.318 9.65c0 5.319-4.16 9.65-9.318 9.65zm0-2.414c3.802 0 6.903-3.23 6.903-7.236 0-4.007-3.101-7.236-6.903-7.236-3.801 0-6.903 3.229-6.903 7.236s3.102 7.236 6.903 7.236z"/><ellipse cx="39.87" cy="116.625" fill="#FFF" opacity=".6" rx="8.11" ry="8.443"/><path fill="#FF444F" d="M39.87 126.275c-5.157 0-9.317-4.332-9.317-9.65 0-5.32 4.16-9.65 9.317-9.65s9.317 4.33 9.317 9.65c0 5.318-4.16 9.65-9.317 9.65zm0-2.414c3.802 0 6.903-3.23 6.903-7.236 0-4.007-3.101-7.236-6.903-7.236-3.802 0-6.903 3.229-6.903 7.236 0 4.006 3.101 7.236 6.903 7.236z"/><path fill="#333" d="M32.133 137.994a1.61 1.61 0 0 0-.523-1.196 4.202 4.202 0 0 0-1.869-.784 5.964 5.964 0 0 1-2.541-1.159 2.444 2.444 0 0 1-.897-1.905c-.01-.787.35-1.534.972-2.017a3.714 3.714 0 0 1 2.541-.822 3.745 3.745 0 0 1 2.691.934c.624.546.979 1.338.972 2.167v.037h-1.383a1.862 1.862 0 0 0-.598-1.457c-.48-.4-1.096-.6-1.72-.56a2.2 2.2 0 0 0-1.569.485 1.494 1.494 0 0 0-.56 1.233c-.006.451.22.874.597 1.12a5.729 5.729 0 0 0 1.944.785c.91.182 1.76.593 2.467 1.196.549.496.862 1.202.86 1.943a2.445 2.445 0 0 1-1.01 2.017c-.776.54-1.71.802-2.653.747a4.638 4.638 0 0 1-2.729-.86 2.608 2.608 0 0 1-1.158-2.24v-.038h1.308a1.782 1.782 0 0 0 .71 1.532 2.838 2.838 0 0 0 1.794.523 2.684 2.684 0 0 0 1.644-.449c.45-.245.724-.72.71-1.232zm4.971-6.912v1.868h1.458v1.046h-1.458v4.67c-.03.27.05.54.224.747a.787.787 0 0 0 .598.224.727.727 0 0 0 .262-.037c.089-.02.176-.045.262-.075l.187.972c-.142.09-.292.165-.449.224a3.26 3.26 0 0 1-.598.074 1.832 1.832 0 0 1-1.345-.523 2.236 2.236 0 0 1-.486-1.606v-4.67h-1.271v-1.046h1.196v-1.868h1.42zm7.812 9.527a19.611 19.611 0 0 0-.112-.635 2.476 2.476 0 0 1-.038-.523 3.46 3.46 0 0 1-1.009.934 2.45 2.45 0 0 1-1.346.373 2.199 2.199 0 0 1-2.429-2.316 1.956 1.956 0 0 1 .897-1.719 4.122 4.122 0 0 1 2.392-.635h1.495v-.747a1.494 1.494 0 0 0-.411-1.083 1.619 1.619 0 0 0-1.159-.411 1.635 1.635 0 0 0-1.084.336c-.25.201-.4.501-.41.822h-1.309v-.037a1.797 1.797 0 0 1 .785-1.532 3.332 3.332 0 0 1 2.13-.71 3.13 3.13 0 0 1 2.093.672c.539.482.828 1.184.785 1.906v3.698c-.01.517.053 1.033.187 1.532h-1.457v.075zm-2.28-1.009c.475.01.943-.12 1.345-.374a1.76 1.76 0 0 0 .785-.896v-1.233h-1.57a2.139 2.139 0 0 0-1.345.41c-.31.227-.49.589-.486.972-.004.301.102.594.299.822.28.21.623.315.972.299zm9.12-5.454l-.71-.038a1.537 1.537 0 0 0-.935.262 1.717 1.717 0 0 0-.598.747v5.492H48.13v-7.696h1.233l.15 1.12c.19-.365.458-.683.785-.933a1.779 1.779 0 0 1 1.084-.337.818.818 0 0 1 .299.038c.074 0 .186.037.224.037l-.15 1.308h.001zm3.288-3.064v1.868h1.458v1.046h-1.458v4.67c-.03.27.05.54.225.747a.787.787 0 0 0 .598.224.721.721 0 0 0 .261-.037c.089-.02.176-.045.262-.075l.187.972c-.142.09-.292.165-.449.224a3.26 3.26 0 0 1-.598.074 1.832 1.832 0 0 1-1.345-.523 2.236 2.236 0 0 1-.486-1.606v-4.67h-1.196v-1.046h1.196v-1.868h1.345zm217.971-6.388h-4.672v3.698h5.42v1.084h-6.802v-10.348h6.727v1.083h-5.307v3.362h4.672v1.121h-.038zm3.29-2.914l.111 1.158a2.53 2.53 0 0 1 2.243-1.27 2.476 2.476 0 0 1 1.906.747c.498.636.738 1.436.673 2.242v4.856h-1.383v-4.856a2.19 2.19 0 0 0-.411-1.457 1.507 1.507 0 0 0-1.196-.411c-.37-.004-.734.1-1.047.299a2.152 2.152 0 0 0-.747.784v5.604h-1.383v-7.696h1.234zm6.652 3.997a5.146 5.146 0 0 1 .785-2.988 2.768 2.768 0 0 1 3.401-.86c.346.17.652.412.897.71v-4.221h1.383v11.095h-1.121l-.15-.934c-.231.34-.538.621-.897.822a2.77 2.77 0 0 1-1.27.262 2.579 2.579 0 0 1-2.168-1.009 4.264 4.264 0 0 1-.785-2.69v-.187h-.075zm1.383.15a3.082 3.082 0 0 0 .486 1.868c.333.469.882.736 1.457.71.37.003.734-.1 1.047-.3.299-.187.534-.46.673-.784v-3.586c-.176-.3-.42-.556-.71-.747a1.885 1.885 0 0 0-1.01-.3 1.514 1.514 0 0 0-1.457.823 4.532 4.532 0 0 0-.486 2.166v.15z"/><path fill="#999" d="M19.314 172.14h3.737l-.187.933h-4.858l1.681-8.63h1.122l-1.495 7.696v.001zm4.933-2.354a4.439 4.439 0 0 1 1.084-2.391 2.713 2.713 0 0 1 2.093-.897 1.891 1.891 0 0 1 1.757.934c.403.714.536 1.55.373 2.354v.112a4.309 4.309 0 0 1-1.083 2.39 2.77 2.77 0 0 1-2.093.897 1.891 1.891 0 0 1-1.757-.934 3.415 3.415 0 0 1-.374-2.353v-.112zm1.122.15a3.16 3.16 0 0 0 .112 1.718.998.998 0 0 0 1.046.635c.497-.006.96-.258 1.233-.673a3.797 3.797 0 0 0 .673-1.68v-.15a2.983 2.983 0 0 0-.112-1.681.998.998 0 0 0-1.046-.636c-.497.006-.96.258-1.234.673a3.8 3.8 0 0 0-.672 1.681v.113zm6.951.784l-.037.672h.037l.262-.71 1.98-4.072h.898l.373 4.072v.785h.038l.299-.785 1.72-4.072h1.12l-2.99 6.426h-.897l-.336-3.923-.037-1.046h-.038l-.448 1.084-1.869 3.922h-.897l-.449-6.425h1.122l.15 4.072h-.001zm16.445-5.38h-2.541l-1.533 7.696h-1.12l1.532-7.696h-2.505l.187-.934h6.167l-.187.934zm2.43 7.733v-.485c0-.113.037-.262.037-.374a3.284 3.284 0 0 1-.897.71 2.095 2.095 0 0 1-1.01.299 1.549 1.549 0 0 1-1.27-.523 1.742 1.742 0 0 1-.224-1.42 2.104 2.104 0 0 1 .934-1.457 3.499 3.499 0 0 1 1.944-.486h1.084l.112-.635c.091-.301.05-.627-.112-.896a1.049 1.049 0 0 0-.823-.3 1.52 1.52 0 0 0-.897.3c-.236.16-.408.398-.486.672h-1.083v-.037c.105-.531.414-1 .86-1.308a3.041 3.041 0 0 1 1.83-.56 1.998 1.998 0 0 1 1.496.56c.386.425.514 1.024.336 1.57l-.598 3.1-.112.672c-.038.21-.038.426 0 .636h-1.121v-.038zm-1.495-.859c.34-.003.675-.093.971-.262.305-.152.564-.385.748-.672l.224-1.195h-1.121a1.572 1.572 0 0 0-1.047.373 1.624 1.624 0 0 0-.56.822.89.89 0 0 0 .075.71c.112.187.373.224.71.224zm7.998-4.52l-.636-.038c-.254 0-.502.078-.71.224a1.57 1.57 0 0 0-.56.635l-.897 4.558h-1.122l1.271-6.425h1.01l-.075.859c.19-.292.446-.535.747-.71.27-.165.58-.255.897-.262a.75.75 0 0 1 .262.038c.06.024.123.037.187.037l-.374 1.084zm.374 2.166a5.562 5.562 0 0 1 1.046-2.503 2.288 2.288 0 0 1 1.831-.822 1.76 1.76 0 0 1 1.608.897l.261-.784h.972l-1.233 6.313a3.486 3.486 0 0 1-1.047 2.017 3.096 3.096 0 0 1-2.055.673c-.306 0-.609-.05-.898-.15a2.376 2.376 0 0 1-.822-.336l.449-.896c.192.136.407.237.635.299.255.073.52.111.785.112.432.019.852-.144 1.159-.449.327-.34.548-.769.635-1.233l.075-.448a2.192 2.192 0 0 1-1.607.635 1.63 1.63 0 0 1-1.533-.934 3.29 3.29 0 0 1-.261-2.279v-.112zm1.084.112a2.628 2.628 0 0 0 .074 1.644c.193.418.625.671 1.084.635.266.001.526-.077.748-.224.256-.177.473-.406.635-.672l.598-2.989a1.6 1.6 0 0 0-.486-.635 1.302 1.302 0 0 0-.785-.224c-.47 0-.906.24-1.158.635a4.242 4.242 0 0 0-.673 1.718l-.037.112zm7.437 3.213a2.04 2.04 0 0 1-1.794-.896 3.115 3.115 0 0 1-.374-2.317l.038-.261a4.108 4.108 0 0 1 1.121-2.316 2.681 2.681 0 0 1 1.906-.897c.661-.06 1.303.24 1.682.785.36.635.467 1.382.299 2.092l-.112.747h-3.812a2.611 2.611 0 0 0 .187 1.569 1.12 1.12 0 0 0 1.046.56c.64-.005 1.26-.23 1.757-.635l.336.747a3.379 3.379 0 0 1-2.28.822zm.748-5.716c-.37.012-.713.191-.935.486-.31.358-.54.778-.673 1.233v.037h2.617l.037-.15c.094-.39.04-.803-.15-1.157a.94.94 0 0 0-.896-.449zm5.755-2.353l-.299 1.532h1.084l-.187.859H72.61l-.784 3.885c-.075.299-.075.523.037.635.104.115.258.17.411.15.113.002.227-.01.337-.038a.701.701 0 0 0 .298-.074v.784c-.146.097-.312.16-.485.187-.21.043-.422.068-.636.075a1.084 1.084 0 0 1-.934-.449 1.701 1.701 0 0 1-.15-1.345l.785-3.885h-.934l.187-.86h.934l.3-1.53h1.12v.074zm-49.073-96.46h-1.121l.747-3.81h-3.775l-.747 3.81h-1.121l1.681-8.63h1.122l-.748 3.886h3.775l.785-3.886h1.121l-1.719 8.63zm3.027 0h-1.12l1.233-6.425h1.12l-1.233 6.425zm1.57-8.07H27.5l.224-1.195h1.121l-.224 1.196-.001-.001zm.523 4.857a5.564 5.564 0 0 1 1.047-2.503 2.288 2.288 0 0 1 1.831-.822 1.761 1.761 0 0 1 1.607.897l.262-.784h.972l-1.234 6.313a3.482 3.482 0 0 1-1.046 2.018 3.307 3.307 0 0 1-2.13.672c-.306 0-.609-.05-.898-.15a2.376 2.376 0 0 1-.822-.336l.449-.896c.192.136.407.237.635.299.255.073.52.111.785.112.432.019.852-.144 1.159-.449.327-.34.548-.769.635-1.232l.075-.449c-.216.209-.47.373-.748.486-.258.114-.54.165-.822.15a1.63 1.63 0 0 1-1.532-.935 3.278 3.278 0 0 1-.262-2.279l.037-.112zm1.084.112a2.628 2.628 0 0 0 .075 1.644c.193.418.625.671 1.084.635a1.34 1.34 0 0 0 .747-.224c.257-.177.474-.406.636-.672l.598-2.989a1.6 1.6 0 0 0-.486-.635 1.302 1.302 0 0 0-.785-.224c-.47 0-.906.24-1.159.635a4.24 4.24 0 0 0-.672 1.718l-.038.112zm7.139-2.54c.24-.277.533-.506.86-.672a2.33 2.33 0 0 1 1.009-.225 1.459 1.459 0 0 1 1.308.636 2.46 2.46 0 0 1 .187 1.868l-.785 4.034h-1.121l.784-4.034c.123-.395.096-.82-.074-1.196a.99.99 0 0 0-.86-.374 1.564 1.564 0 0 0-.785.225c-.278.16-.52.376-.71.635l-.934 4.707h-1.122l1.832-9.265h1.121l-.71 3.661zm14.128-2.092h-2.542l-1.532 7.696h-1.122l1.533-7.696h-2.504l.187-.934h6.166l-.186.934zm2.429 7.733v-.485c0-.113.037-.262.037-.374a3.284 3.284 0 0 1-.897.71 2.091 2.091 0 0 1-1.009.299 1.549 1.549 0 0 1-1.27-.523 1.741 1.741 0 0 1-.225-1.42 2.105 2.105 0 0 1 .935-1.457 3.495 3.495 0 0 1 1.943-.486h1.084l.112-.635c.091-.301.05-.627-.112-.896a1.046 1.046 0 0 0-.822-.3 1.52 1.52 0 0 0-.897.3c-.236.16-.408.398-.486.672h-1.084v-.037c.106-.531.414-1 .86-1.308a3.042 3.042 0 0 1 1.831-.56 2 2 0 0 1 1.495.56c.386.425.515 1.024.336 1.57l-.598 3.1-.112.672c-.037.21-.037.426 0 .636h-1.121v-.038zm-1.495-.859c.34-.003.675-.093.972-.262a1.89 1.89 0 0 0 .747-.672l.224-1.195h-1.12a1.572 1.572 0 0 0-1.047.373 1.624 1.624 0 0 0-.56.822.886.886 0 0 0 .074.71c.112.187.374.224.71.224zm8.036-4.52l-.636-.038c-.254 0-.502.078-.71.224a1.57 1.57 0 0 0-.56.635l-.898 4.558h-1.12l1.27-6.425h1.01l-.076.859c.191-.292.447-.535.748-.71.27-.165.58-.255.897-.262a.744.744 0 0 1 .261.038c.06.024.123.037.187.037l-.373 1.084zm.336 2.166a5.564 5.564 0 0 1 1.047-2.503 2.29 2.29 0 0 1 1.83-.822 1.76 1.76 0 0 1 1.608.897l.262-.784h.971l-1.233 6.313a3.482 3.482 0 0 1-1.046 2.018 3.097 3.097 0 0 1-2.056.672c-.305 0-.608-.051-.897-.15a2.376 2.376 0 0 1-.822-.336l.448-.896c.193.136.408.237.636.299.255.073.519.111.784.112.432.019.852-.144 1.159-.449.327-.34.548-.769.635-1.232l.075-.449a2.192 2.192 0 0 1-1.607.635 1.63 1.63 0 0 1-1.532-.934 3.278 3.278 0 0 1-.262-2.279v-.112zm1.084.112a2.628 2.628 0 0 0 .075 1.644c.192.418.625.671 1.083.635.266.001.526-.077.748-.224.257-.177.473-.406.635-.672l.598-2.989a1.613 1.613 0 0 0-.485-.635 1.302 1.302 0 0 0-.785-.224c-.47 0-.906.24-1.159.635a4.242 4.242 0 0 0-.673 1.718l-.037.112zm7.475 3.213a2.04 2.04 0 0 1-1.794-.896 3.115 3.115 0 0 1-.374-2.317l.037-.261a4.11 4.11 0 0 1 1.122-2.316 2.681 2.681 0 0 1 1.906-.897c.66-.06 1.303.24 1.682.785.36.634.466 1.382.299 2.092l-.112.747h-3.813a2.611 2.611 0 0 0 .187 1.569c.213.371.62.589 1.047.56.64-.005 1.26-.23 1.756-.635l.337.747a3.062 3.062 0 0 1-.897.56c-.44.177-.91.266-1.383.262zm.71-5.716a1.222 1.222 0 0 0-.934.486c-.311.358-.54.778-.673 1.233v.037h2.616l.037-.15c.094-.39.041-.803-.149-1.157a.942.942 0 0 0-.897-.449zm5.793-2.353l-.299 1.532h1.084l-.187.859h-1.084l-.785 3.885c-.074.299-.074.523.038.635a.47.47 0 0 0 .41.15c.114.002.227-.01.337-.038a.696.696 0 0 0 .3-.074v.784c-.147.097-.313.16-.487.187-.21.043-.422.068-.635.075-.367.018-.72-.15-.934-.449a1.701 1.701 0 0 1-.15-1.345l.785-3.885h-.934l.186-.86h.935l.299-1.53h1.121v.074z"/><path fill="#FFF" d="M139.699 168.254h.074l2.168-10.498h2.953l-3.513 15.28h-2.841l-2.766-10.087h-.075l-2.765 10.087h-2.803l-3.551-15.28h2.953l2.167 10.46h.075l2.84-10.497h2.243l2.84 10.535h.001zm9.83-9.265H146.5v-2.316h3.027v2.316h.002zm0 14.084H146.5v-11.357h3.027v11.357h.002zm5.27-11.357l.149 1.644a3.664 3.664 0 0 1 1.382-1.345 3.45 3.45 0 0 1 1.832-.486c1-.046 1.971.35 2.653 1.084a5.055 5.055 0 0 1 .972 3.4v7.098h-3.065v-7.099a2.404 2.404 0 0 0-.448-1.643 1.738 1.738 0 0 0-1.383-.486 2.124 2.124 0 0 0-1.084.262c-.319.165-.59.41-.785.71v8.256h-3.027v-11.357h2.803v-.038h.001zm12.482 6.09h-3.027v-10.012h3.027v10.012zm0 5.267h-3.027v-2.69h3.027v2.69z"/><path fill="#333" d="M19.538 19.194h-4.223v2.95h4.97v1.607h-6.989V13.403h6.99v1.606h-4.934v2.616h4.223v1.569h-.037zm3.7-3.139l.075 1.084c.232-.382.552-.702.934-.934.372-.224.8-.34 1.234-.336a2.233 2.233 0 0 1 1.794.747 3.57 3.57 0 0 1 .635 2.316v4.82h-2.056v-4.82a1.566 1.566 0 0 0-.299-1.083 1.246 1.246 0 0 0-.934-.337 1.672 1.672 0 0 0-.747.15 1.382 1.382 0 0 0-.561.486v5.603h-2.056v-7.696h1.981zm5.943 3.923a5.02 5.02 0 0 1 .785-2.951 2.509 2.509 0 0 1 2.205-1.121c.354-.011.705.08 1.009.262.312.173.58.416.785.71v-4.222h2.055V23.75h-1.756l-.187-.934a2.58 2.58 0 0 1-.86.822 2.256 2.256 0 0 1-1.121.262 2.51 2.51 0 0 1-2.168-1.046 4.452 4.452 0 0 1-.785-2.727v-.15h.038v.001zm2.018.15c-.025.555.09 1.107.336 1.606.225.383.64.612 1.084.598.273 0 .542-.064.785-.187.226-.114.41-.297.523-.523v-3.325a1.536 1.536 0 0 0-.523-.56 1.316 1.316 0 0 0-.747-.187 1.144 1.144 0 0 0-1.084.672 4.03 4.03 0 0 0-.337 1.793v.113h-.037zm10.502 1.494a.769.769 0 0 0-.336-.598 4.451 4.451 0 0 0-1.196-.448 4.63 4.63 0 0 1-2.018-.822 1.83 1.83 0 0 1-.673-1.494 2.056 2.056 0 0 1 .822-1.682 3.39 3.39 0 0 1 2.205-.71 3.636 3.636 0 0 1 2.318.673c.552.41.86 1.07.822 1.756v.037h-2.018a1.041 1.041 0 0 0-.3-.747 1.271 1.271 0 0 0-.822-.224 1.055 1.055 0 0 0-.785.262.781.781 0 0 0 0 1.232c.366.22.773.36 1.197.411.753.104 1.47.386 2.093.822.455.375.704.943.672 1.532a2.108 2.108 0 0 1-.86 1.718 3.712 3.712 0 0 1-2.317.673 3.482 3.482 0 0 1-2.392-.785 2.277 2.277 0 0 1-.86-1.756v-.037h1.87c-.023.35.131.686.41.897.301.19.654.282 1.01.261.303.022.605-.057.86-.224.192-.2.3-.469.298-.747zm7.064 2.13v-10.35h3.439a4.715 4.715 0 0 1 2.803.71 2.464 2.464 0 0 1 1.009 2.13c.014.452-.117.897-.374 1.27a2.281 2.281 0 0 1-1.084.859c.553.1 1.047.408 1.383.859.304.452.46.987.449 1.532.06.86-.303 1.696-.972 2.241a4.232 4.232 0 0 1-2.728.785h-3.925v-.038.002zm2.056-6.015h1.495c.449.03.895-.089 1.27-.337.308-.24.476-.618.45-1.008a1.205 1.205 0 0 0-.45-1.046 2.235 2.235 0 0 0-1.345-.337h-1.42v2.728zm0 1.457v2.988h1.906c.444.044.888-.09 1.233-.373.298-.263.45-.652.411-1.046a1.38 1.38 0 0 0-1.532-1.57h-2.018v.001zM61.21 23.9a3.383 3.383 0 0 1-2.616-1.084 3.76 3.76 0 0 1-.972-2.727v-.261a4.197 4.197 0 0 1 .934-2.84 2.975 2.975 0 0 1 2.505-1.083 3.046 3.046 0 0 1 2.392.934c.597.708.904 1.615.86 2.54V20.5H59.79v.037c.021.454.192.887.486 1.233.307.331.745.51 1.196.486a3.25 3.25 0 0 0 1.121-.15c.347-.093.675-.245.972-.448l.56 1.27c-.36.3-.78.517-1.233.636a3.667 3.667 0 0 1-1.682.336zm-.187-6.389c-.355-.01-.692.16-.897.449-.247.337-.39.74-.41 1.158l.037.037h2.504v-.187a1.731 1.731 0 0 0-.3-1.046 1.11 1.11 0 0 0-.934-.41v-.001zm6.877-3.324v1.867h1.271v1.457h-1.27v3.923a.918.918 0 0 0 .186.635.71.71 0 0 0 .486.187h.262a.952.952 0 0 0 .261-.075l.187 1.495a4.584 4.584 0 0 1-.598.149c-.21.032-.423.045-.635.037a2.178 2.178 0 0 1-1.645-.597 2.489 2.489 0 0 1-.56-1.868v-3.886h-1.122v-1.457h1.122v-1.867H67.9zm9.195 6.799h.037l1.009-4.932h1.944l-1.944 7.696h-1.72l-1.42-4.595h-.037l-1.42 4.595h-1.72l-1.943-7.696h1.944l1.009 4.932h.037l1.42-4.932h1.383l1.42 4.932h.001zM84.42 23.9a3.383 3.383 0 0 1-2.616-1.084 3.76 3.76 0 0 1-.972-2.727v-.261a4.197 4.197 0 0 1 .934-2.84 2.975 2.975 0 0 1 2.505-1.083 3.048 3.048 0 0 1 2.391.934c.598.707.905 1.615.86 2.54V20.5H83v.037c.021.454.192.887.486 1.233.307.331.745.51 1.196.486.38.016.758-.035 1.12-.15a3.18 3.18 0 0 0 .973-.373l.56 1.27a3.49 3.49 0 0 1-1.233.635c-.54.19-1.11.278-1.682.262zm-.15-6.389c-.355-.01-.692.16-.897.449-.247.337-.39.74-.41 1.158l.037.037h2.504v-.187a1.731 1.731 0 0 0-.3-1.046 1.108 1.108 0 0 0-.933-.41l-.001-.001zm7.775 6.389a3.382 3.382 0 0 1-2.617-1.084 3.76 3.76 0 0 1-.972-2.727v-.261a4.198 4.198 0 0 1 .935-2.84 2.976 2.976 0 0 1 2.504-1.083 3.046 3.046 0 0 1 2.392.934c.597.708.904 1.615.86 2.54V20.5h-4.56v.037c.021.454.192.887.486 1.233.307.331.745.51 1.196.486a3.25 3.25 0 0 0 1.121-.15c.347-.093.675-.245.972-.448l.56 1.27c-.36.3-.78.517-1.233.636a3.25 3.25 0 0 1-1.644.336zm-.187-6.389c-.355-.01-.692.16-.897.449-.248.337-.39.74-.412 1.158l.038.037h2.504v-.187a1.737 1.737 0 0 0-.299-1.046 1.11 1.11 0 0 0-.934-.41v-.001zm6.316-1.457l.075 1.084c.232-.382.552-.702.934-.934.372-.224.8-.34 1.234-.336.68-.038 1.34.237 1.793.747a3.57 3.57 0 0 1 .636 2.316v4.82h-2.056v-4.82a1.566 1.566 0 0 0-.299-1.083 1.246 1.246 0 0 0-.934-.337 1.673 1.673 0 0 0-.748.15c-.227.108-.42.276-.56.486v5.603h-2.056v-7.696h1.981z"/></g></svg>