<svg xmlns="http://www.w3.org/2000/svg" width="299" height="197"><g fill="none"><path fill="#FFF" d="M.993.99h297v195h-297z"/><path fill="#D6DADB" d="M1.987 1.98v193.04h295.026V1.98H1.987zM299 0v197H0V0h299z"/><path fill="#F2F3F4" d="M39.73 34.59l-.001 19.746h35.7V34.59h1.215v19.746h35.662V34.59h1.216l-.001 19.746h35.701V34.59h1.215v19.746h35.662V34.59h1.216l-.001 19.746h35.662V34.59h1.215v19.746h35.701V34.59h1.216l-.001 19.746h34.426v1.215h-34.426v19.175h34.426v1.216l-34.426-.001v19.138h34.426v1.216l-34.426-.001v39.529h34.426v1.215h-34.426v19.139h34.426v1.216l-34.426-.001v19.138h34.426v1.215h-34.426v17.343h-1.215v-17.343h-35.701v17.343h-1.215v-17.343h-35.662v17.343H186.1l-.001-17.343h-35.662v17.343h-1.215v-17.343h-35.701v17.343h-1.215v-17.343H76.644v17.343H75.43v-17.343h-35.7v17.343h-1.215v-17.343H3.9v-1.215h34.614v-19.138H3.9v-1.214l34.614-.001v-19.139H3.9v-1.215h34.614V96.294H3.9V95.08h34.614V75.941H3.9v-1.215h34.614V55.551H3.9v-1.215h34.614V34.59h1.215zm220.162 141.94v-19.138h-35.701v19.138h35.701zM75.429 157.392h-35.7v19.138h35.7v-19.138zm36.877 0H76.644v19.138h35.662v-19.138zm36.916 0h-35.701v19.138h35.701v-19.138zm36.877 0h-35.662v19.138h35.662v-19.138zm36.877 0h-35.662v19.138h35.662v-19.138zm36.916-1.215v-19.139h-35.701v19.139h35.701zm-110.67-19.139h-35.701v19.139h35.701v-19.139zm73.754 0h-35.662v19.139h35.662v-19.139zm-36.877 0h-35.662v19.139h35.662v-19.139zm-73.793 0H76.644v19.139h35.662v-19.139zm-36.877 0h-35.7v19.139h35.7v-19.139zm184.463-1.215V96.294h-35.701v39.529h35.701zm-36.916-39.529h-35.662v39.529h35.662V96.294zm-36.877 0h-35.662v39.529h35.662V96.294zm-36.877 0h-35.701v39.529h35.701V96.294zm-36.916 0H76.644v39.529h35.662V96.294zm-36.877 0h-35.7v39.529h35.7V96.294zm184.463-1.215V75.941h-35.701v19.138h35.701zm-36.916-19.138h-35.662v19.138h35.662V75.941zm-36.877 0h-35.662v19.138h35.662V75.941zm-36.877 0h-35.701v19.138h35.701V75.941zm-36.916 0H76.644v19.138h35.662V75.941zm-36.877 0h-35.7v19.138h35.7V75.941zm184.463-1.215V55.551h-35.701v19.175h35.701zm-36.916-19.175h-35.662v19.175h35.662V55.551zm-36.877 0h-35.662v19.175h35.662V55.551zm-36.877 0h-35.701v19.175h35.701V55.551zm-36.916 0H76.644v19.175h35.662V55.551zm-36.877 0h-35.7v19.175h35.7V55.551z"/><path fill="#D6DADB" d="M1.793 34.6v-2.422H297.64V34.6z"/><path fill="#4BB4B3" d="M188.25 147.021h-35.184l-5.42-8.224-5.418 8.224h-35.184c-2.634 0-4.741 2.14-4.741 4.807v24.822c0 2.666 2.145 4.806 4.741 4.806h81.243c2.635 0 4.742-2.14 4.742-4.806v-24.822c0-2.666-2.145-4.807-4.78-4.807h.001z"/><g transform="translate(5.96 91.055)"><path fill="#333" d="M.26 25.176v-1.47h286.435v1.47z"/><path fill="#D6DADB" d="M178.51 1.123a1.806 1.806 0 0 1 2.82.367l.073.135 41.74 86.43 27.932-24.592a1.807 1.807 0 0 1 2.434.043l.114.119a1.807 1.807 0 0 1-.043 2.434l-.119.114-29.716 26.164a1.806 1.806 0 0 1-2.75-.44l-.069-.13-41.679-86.303-42.424 41.737a1.804 1.804 0 0 1-2.471.057l-.12-.117-31.487-34.014-33.067 36.821c-.583.65-1.54.784-2.274.341l-.135-.09-33.24-24.3a1.807 1.807 0 0 1 1.995-3.007l.137.091L68.082 46.32l33.3-37.078a1.805 1.805 0 0 1 2.55-.137l.118.116 31.566 34.1 42.895-42.198z"/><ellipse cx="35.095" cy="24.441" fill="#FFF" opacity=".6" rx="8.014" ry="8.41"/><path fill="#FF444F" d="M35.095 34.051c-5.105 0-9.218-4.316-9.218-9.61s4.113-9.61 9.218-9.61c5.105 0 9.217 4.316 9.217 9.61s-4.112 9.61-9.217 9.61zm0-2.4c3.747 0 6.81-3.214 6.81-7.21s-3.063-7.21-6.81-7.21c-3.747 0-6.81 3.214-6.81 7.21s3.063 7.21 6.81 7.21z"/><ellipse cx="252.268" cy="64.223" fill="#FFF" opacity=".6" rx="8.014" ry="8.41"/><path fill="#FF444F" d="M252.268 73.834c-5.105 0-9.217-4.316-9.217-9.61s4.112-9.61 9.217-9.61 9.218 4.316 9.218 9.61-4.113 9.61-9.218 9.61zm0-2.4c3.747 0 6.81-3.214 6.81-7.21s-3.063-7.21-6.81-7.21c-3.746 0-6.81 3.214-6.81 7.21s3.064 7.21 6.81 7.21z"/></g><path fill="#333" d="M31.332 93.453c0-.489-.188-.864-.526-1.202-.34-.3-.979-.6-1.882-.789-1.091-.263-1.957-.638-2.559-1.164a2.454 2.454 0 0 1-.903-1.915c0-.826.339-1.502.978-2.028.64-.563 1.506-.826 2.56-.826 1.128 0 2.031.3 2.709.939.677.638.978 1.352.978 2.178v.037h-1.392c0-.6-.188-1.089-.602-1.464-.414-.376-.979-.563-1.731-.563-.678 0-1.242.15-1.58.488a1.5 1.5 0 0 0-.565 1.239c0 .45.188.826.602 1.127.414.3 1.053.563 1.957.788 1.09.263 1.919.676 2.483 1.202.565.526.866 1.202.866 1.953 0 .826-.339 1.502-1.016 2.027-.678.526-1.58.751-2.672.751a4.681 4.681 0 0 1-2.747-.863c-.79-.564-1.167-1.315-1.167-2.253v-.038h1.317c0 .676.226 1.164.715 1.54.49.375 1.092.525 1.807.525.715 0 1.241-.15 1.655-.45.49-.338.715-.751.715-1.24v.001zm5.005-6.985v1.877h1.468v1.052h-1.468v4.694c0 .375.075.6.226.751.15.15.339.225.602.225.075 0 .15 0 .263-.037.113-.038.189-.038.264-.075l.188.976c-.143.09-.294.166-.452.225-.198.043-.4.069-.602.075a1.847 1.847 0 0 1-1.354-.525c-.339-.338-.49-.902-.49-1.615v-4.732h-1.279v-1.051h1.204V86.43h1.43v.038zm7.865 9.576c-.038-.226-.075-.451-.113-.639-.038-.188-.038-.338-.038-.525a3.499 3.499 0 0 1-1.016.938 2.463 2.463 0 0 1-1.354.376c-.79 0-1.393-.188-1.807-.639a2.288 2.288 0 0 1-.64-1.69c0-.75.302-1.314.904-1.727.602-.413 1.392-.638 2.408-.638h1.505v-.751a1.501 1.501 0 0 0-.414-1.09 1.632 1.632 0 0 0-1.166-.412c-.452 0-.828.112-1.091.338-.264.225-.414.525-.414.826h-1.317v-.038c-.038-.563.225-1.089.79-1.54a3.356 3.356 0 0 1 2.145-.713c.865 0 1.58.225 2.107.676.527.45.79 1.09.79 1.915v3.718c-.01.52.054 1.038.188 1.54h-1.467v.075zm-2.296-1.014c.49 0 .941-.113 1.355-.376.414-.263.677-.563.79-.901v-1.24h-1.58c-.565 0-1.016.151-1.355.414a1.262 1.262 0 0 0-.489 1.014c0 .338.113.6.301.826.226.15.565.263.978.263zm9.182-5.483l-.715-.037c-.376 0-.677.075-.94.262a1.732 1.732 0 0 0-.603.751v5.52h-1.392v-7.735h1.242l.15 1.126c.226-.413.49-.713.79-.938.302-.226.678-.338 1.092-.338a.825.825 0 0 1 .3.037c.076 0 .19.038.227.038l-.15 1.314h-.001zm3.312-3.08v1.878h1.467v1.052H54.4v4.694c0 .375.075.6.225.751.15.15.34.225.602.225.076 0 .151 0 .264-.037.113-.038.188-.038.263-.075l.188.976c-.112.075-.263.15-.451.225-.198.043-.4.069-.602.075a1.845 1.845 0 0 1-1.355-.525c-.339-.338-.49-.902-.49-1.615v-4.732h-1.203v-1.051h1.204V86.43H54.4v.038-.001zm201.32 87.704h-4.703v3.718h5.456v1.089h-6.849v-10.402h6.774v1.089h-5.344v3.38h4.704v1.126h-.038zm3.35-2.891l.112 1.164a2.545 2.545 0 0 1 2.258-1.277c.828 0 1.468.263 1.92.751.451.488.677 1.24.677 2.253v4.882h-1.393v-4.844c0-.676-.15-1.164-.413-1.465-.264-.3-.678-.413-1.205-.413-.414 0-.752.113-1.053.3a2.177 2.177 0 0 0-.753.79v5.632h-1.392v-7.736h1.242v-.037zm6.66 4.018c0-1.24.264-2.253.79-3.004.527-.751 1.28-1.127 2.22-1.127.452 0 .828.075 1.205.263.338.15.64.413.903.713V167.9h1.392v11.153h-1.129l-.188-.976a2.667 2.667 0 0 1-.903.826c-.4.188-.839.278-1.28.263-.85.04-1.664-.34-2.182-1.014-.527-.676-.79-1.578-.79-2.704v-.15h-.038zm1.392.15c0 .789.15 1.427.49 1.878.338.45.79.713 1.467.713.414 0 .753-.113 1.054-.3.3-.188.527-.451.677-.789v-3.643a2.279 2.279 0 0 0-.715-.75 1.889 1.889 0 0 0-1.016-.301c-.677 0-1.166.263-1.467.826-.301.563-.49 1.277-.49 2.178v.188z"/><path fill="#999" d="M249.888 124.865h-2.559l-1.543 7.736h-1.129l1.543-7.736h-2.521l.188-.938h6.209l-.188.938zm2.446 7.774v-.489c0-.112.037-.262.037-.375-.263.3-.564.526-.903.713a2.108 2.108 0 0 1-1.016.3c-.564 0-1.016-.187-1.28-.525-.263-.338-.338-.826-.225-1.427.113-.638.452-1.164.94-1.464.528-.338 1.167-.489 1.958-.489h1.09l.114-.638c.075-.413.037-.713-.113-.901-.15-.188-.452-.3-.828-.3-.339 0-.64.112-.903.3-.238.16-.412.4-.49.676h-1.09v-.038c.075-.488.376-.939.865-1.314.527-.376 1.129-.563 1.844-.563.64 0 1.129.187 1.505.563.376.375.49.901.339 1.577l-.602 3.117-.113.676a1.8 1.8 0 0 0 0 .638h-1.13v-.037h.001zm-1.505-.864c.3 0 .64-.075.978-.263.339-.188.602-.413.753-.676l.225-1.202h-1.129a1.583 1.583 0 0 0-1.053.376c-.301.263-.49.526-.565.826-.075.3-.037.526.076.714.113.187.376.225.715.225zm8.09-4.544l-.64-.037c-.256 0-.505.078-.715.225a1.58 1.58 0 0 0-.564.638l-.903 4.582h-1.13l1.28-6.46h1.016l-.075.864c.192-.293.45-.537.753-.713.263-.15.564-.263.903-.263.075 0 .15 0 .263.038.06.024.124.037.188.037l-.376 1.09v-.001zm.339 2.178c.226-1.089.564-1.953 1.053-2.516.49-.563 1.092-.826 1.844-.826.339 0 .678.075.941.225.263.15.49.376.677.676l.264-.788h.978l-1.242 6.346c-.188.901-.526 1.577-1.053 2.028-.527.45-1.242.676-2.07.676-.307 0-.612-.052-.903-.15a2.39 2.39 0 0 1-.828-.338l.452-.902c.15.113.376.226.64.3.263.076.526.113.79.113.489 0 .865-.15 1.166-.45.33-.342.552-.773.64-1.24l.075-.45a2.212 2.212 0 0 1-1.618.638c-.677 0-1.204-.3-1.543-.938a3.3 3.3 0 0 1-.263-2.291v-.113zm1.129.113c-.15.676-.113 1.24.075 1.652.188.413.564.639 1.091.639.264 0 .527-.076.753-.226.226-.15.451-.375.64-.676l.602-3.004a1.625 1.625 0 0 0-.49-.638 1.314 1.314 0 0 0-.79-.226c-.489 0-.865.226-1.166.639a4.26 4.26 0 0 0-.678 1.727l-.037.113zm7.488 3.23c-.79 0-1.392-.301-1.806-.902-.414-.6-.527-1.39-.377-2.328l.038-.263c.15-.939.527-1.727 1.129-2.328.602-.601 1.242-.901 1.92-.901.79 0 1.354.262 1.692.788.34.526.452 1.24.302 2.103l-.113.751h-3.876c-.076.638-.038 1.164.188 1.577.226.376.564.564 1.054.564a2.823 2.823 0 0 0 1.768-.639l.339.751c-.226.225-.565.413-.903.563-.414.188-.866.263-1.355.263v.001zm.715-5.746c-.339 0-.64.15-.94.488a3.3 3.3 0 0 0-.678 1.24v.037h2.634l.038-.15c.075-.489.037-.864-.15-1.165-.189-.3-.452-.45-.904-.45zm5.833-2.366l-.301 1.54h1.09l-.187.863h-1.092l-.79 3.906c-.075.3-.075.526.038.638.075.113.226.15.414.15.075 0 .188 0 .338-.037a.705.705 0 0 0 .302-.075v.788c-.113.075-.264.113-.49.188-.225.038-.414.075-.64.075-.413 0-.714-.15-.94-.45-.226-.3-.264-.751-.15-1.352l.79-3.906h-.941l.188-.863h.94l.302-1.54h1.129v.075z"/><path fill="#FFF" d="M139.632 167.938h.075l2.183-10.553h2.972l-3.537 15.36h-2.86l-2.784-10.14h-.076l-2.784 10.14h-2.823l-3.574-15.36h2.972l2.183 10.515h.075l2.86-10.552h2.258l2.86 10.59zm9.896-9.313h-3.048v-2.329h3.048v2.329zm0 14.157h-3.048v-11.416h3.048v11.416zm5.306-11.416l.15 1.652c.377-.6.829-1.051 1.393-1.352.565-.338 1.167-.488 1.844-.488 1.129 0 2.032.376 2.672 1.09.64.713.978 1.877.978 3.416v7.135h-3.086v-7.135c0-.788-.15-1.314-.451-1.652-.301-.338-.753-.488-1.392-.488-.414 0-.753.075-1.092.263-.338.188-.602.413-.79.713v8.3h-3.048v-11.417h2.822v-.037zm12.569 6.12h-3.048v-10.063h3.048v10.064-.001zm0 5.296h-3.048v-2.704h3.048v2.704z"/><path fill="#333" d="M23.23 18.455h-4.19v4.314h-2.183V12.212h6.897v1.762H19.04V16.7h4.19v1.755zm5.966 4.314a2.31 2.31 0 0 1-.21-.703c-.51.565-1.172.848-1.987.848-.771 0-1.41-.222-1.917-.667a2.14 2.14 0 0 1-.76-1.682c0-.832.309-1.47.927-1.915.619-.444 1.512-.669 2.681-.674h.968v-.45c0-.362-.093-.652-.28-.87-.187-.217-.481-.326-.884-.326-.354 0-.632.085-.833.254-.201.17-.302.401-.302.696h-2.103c0-.455.148-.897.422-1.261.282-.387.68-.69 1.193-.91.515-.22 1.092-.33 1.732-.33.97 0 1.74.243 2.31.728.57.486.855 1.169.855 2.049v3.4c.005.745.11 1.308.313 1.69v.123h-2.125zm-1.739-1.458c.31 0 .597-.068.859-.206.246-.122.448-.316.582-.555v-1.348h-.786c-1.052 0-1.612.362-1.68 1.087l-.008.123c0 .261.092.477.277.646.184.169.436.253.756.253zm7.385 1.458h-2.11V11.632h2.11v11.137zm3.95 0h-2.11V11.632h2.11v11.137z"/></g></svg>