<svg xmlns="http://www.w3.org/2000/svg" width="299" height="197" viewBox="0 0 299 197">
    <g fill="none">
        <path fill="#FFF" d="M0 0L299 0 299 197 0 197z"/>
        <path fill="#D6DADB" d="M1.987 1.98v193.04h295.026V1.98H1.987zM299 0v197H0V0h299z"/>
        <path fill="#F2F3F4" d="M4.887 55.446v-1.207h289.656v1.207H4.887zm0 40.534v-1.207h289.656v1.207H4.887zm0 40.534v-1.207h289.656v1.207H4.887zm0 40.496v-1.207h289.656v1.207H4.887zm34.38-142.416h1.206v159.67h-1.206V34.594zm36.664 0h1.207v159.67h-1.207V34.594zm36.628 0h1.207v159.67h-1.207V34.594zm36.665 0h1.207v159.67h-1.207V34.594zm36.627 0h1.207v159.67h-1.207V34.594zm36.628 0h1.207v159.67h-1.207V34.594zM4.887 116.228v-1.207h289.656v1.207H4.887z"/>
        <path fill="#333" d="M259.144 34.594h1.207v159.67h-1.207V34.594zM4.887 75.731v-1.206h289.656v1.206H4.887zm0 81.03v-1.206h289.656v1.207H4.887v-.001z"/>
        <path fill="#D6DADB" d="M2.794 34.606L2.794 32.19 296.636 32.19 296.636 34.605zM76.347 96.569l-35.569 20.622c-.865.501-1.973.207-2.474-.659-.502-.865-.207-1.973.658-2.474l36.665-21.257c.658-.382 1.484-.311 2.068.176l32.442 27.072 38.676-26.172c.68-.46 1.583-.405 2.202.133l35.113 30.513 35.473-50.437c.372-.53.998-.82 1.642-.762.645.058 1.21.455 1.481 1.042.273.586.211 1.274-.161 1.803l-36.627 52.078c-.295.42-.753.694-1.262.756-.509.062-1.02-.095-1.407-.431L149.69 97.655l-38.652 26.156c-.668.452-1.556.408-2.175-.11L76.347 96.57v-.001z"/>
        <path fill="#4BB4B3" d="M187.987 146.445h-34.945l-5.382-8.181-5.382 8.181h-34.946c-1.26.006-2.465.514-3.35 1.412-.883.897-1.373 2.11-1.36 3.37v24.694c-.016 2.62 2.09 4.758 4.71 4.782h80.692c1.26-.006 2.465-.514 3.35-1.412.883-.897 1.373-2.11 1.36-3.37v-24.694c.006-1.264-.49-2.479-1.381-3.376-.89-.897-2.102-1.403-3.366-1.406z"/>
        <ellipse cx="223.082" cy="75.128" fill="#FFF" opacity=".6" rx="8.11" ry="8.443"/>
        <path fill="#FF444F" d="M223.082 84.778c-5.157 0-9.317-4.331-9.317-9.65s4.16-9.65 9.317-9.65 9.318 4.331 9.318 9.65-4.16 9.65-9.318 9.65zm0-2.414c3.802 0 6.904-3.23 6.904-7.236 0-4.007-3.102-7.236-6.904-7.236-3.801 0-6.903 3.229-6.903 7.236s3.102 7.236 6.903 7.236z"/>
        <ellipse cx="39.87" cy="115.625" fill="#FFF" opacity=".6" rx="8.11" ry="8.443"/>
        <path fill="#FF444F" d="M39.87 125.275c-5.157 0-9.317-4.332-9.317-9.65 0-5.32 4.16-9.65 9.317-9.65s9.317 4.33 9.317 9.65c0 5.318-4.16 9.65-9.317 9.65zm0-2.414c3.802 0 6.903-3.23 6.903-7.236 0-4.007-3.101-7.236-6.903-7.236-3.802 0-6.903 3.229-6.903 7.236 0 4.006 3.101 7.236 6.903 7.236z"/>
        <path fill="#FFF" d="M139.699 167.254h.074l2.168-10.498h2.953l-3.513 15.28h-2.841l-2.766-10.087h-.075l-2.765 10.087h-2.803l-3.551-15.28h2.953l2.167 10.46h.075l2.84-10.497h2.243l2.84 10.535h.001zm9.83-9.265H146.5v-2.316h3.027v2.316h.002zm0 14.084H146.5v-11.357h3.027v11.357h.002zm5.27-11.357l.149 1.644c.332-.564.81-1.028 1.382-1.345.553-.33 1.188-.498 1.832-.486 1-.046 1.971.35 2.653 1.084.709.985 1.04 2.191.935 3.4v7.098h-3.028v-7.099c.056-.584-.103-1.168-.448-1.643-.367-.358-.873-.536-1.383-.486-.378-.011-.753.08-1.084.262-.319.165-.59.41-.785.71v8.256h-3.027v-11.357h2.803v-.038h.001zm12.482 6.09h-3.027v-10.012h3.027v10.012zm0 5.267h-3.027v-2.69h3.027v2.69z"/>
        <path fill="#333" d="M32.133 136.994c.002-.455-.188-.89-.523-1.196-.55-.41-1.191-.679-1.869-.784-.927-.18-1.798-.577-2.541-1.159-.571-.467-.901-1.167-.897-1.905-.01-.787.35-1.534.972-2.017.716-.58 1.621-.872 2.541-.822.985-.055 1.952.28 2.691.934.624.546.979 1.338.972 2.167v.037h-1.383c.026-.55-.193-1.084-.598-1.457-.48-.4-1.096-.6-1.72-.56-.566-.047-1.128.127-1.569.485-.373.298-.581.756-.56 1.233-.006.451.22.874.597 1.12.594.379 1.253.645 1.944.785.91.182 1.76.593 2.467 1.196.549.496.862 1.202.86 1.943.012.797-.365 1.55-1.01 2.017-.776.54-1.71.802-2.653.747-.978.008-1.933-.293-2.729-.86-.745-.498-1.183-1.344-1.158-2.24v-.038h1.308c-.036.597.231 1.173.71 1.532.522.372 1.154.556 1.794.523.582.033 1.16-.125 1.644-.449.45-.245.724-.72.71-1.232zm4.971-6.912v1.868h1.458v1.046h-1.458v4.67c-.03.27.05.54.224.747.159.156.376.237.598.224.089.004.178-.009.262-.037.089-.02.176-.045.262-.075l.187.972c-.142.09-.292.165-.449.224-.197.043-.397.068-.598.074-.501.017-.987-.172-1.345-.523-.364-.452-.539-1.028-.486-1.606v-4.67h-1.271v-1.046h1.196v-1.868h1.42zm7.812 9.527c-.034-.212-.071-.424-.112-.635-.031-.172-.044-.348-.038-.523-.27.376-.614.693-1.009.934-.403.252-.87.382-1.346.373-.643.07-1.284-.148-1.752-.595-.468-.446-.715-1.076-.677-1.721-.026-.691.315-1.345.897-1.719.714-.452 1.548-.673 2.392-.635h1.495v-.747c.014-.402-.134-.792-.411-1.083-.317-.284-.734-.432-1.159-.411-.39-.021-.774.098-1.084.336-.25.201-.4.501-.41.822h-1.309v-.037c-.016-.611.28-1.188.785-1.532.606-.476 1.36-.727 2.13-.71.756-.036 1.5.202 2.093.672.539.482.828 1.184.785 1.906v3.698c-.01.517.053 1.033.187 1.532h-1.457v.075zm-2.28-1.009c.475.01.943-.12 1.345-.374.358-.198.635-.515.785-.896v-1.233h-1.57c-.482-.019-.956.126-1.345.41-.31.227-.49.589-.486.972-.004.301.102.594.299.822.28.21.623.315.972.299zm9.12-5.454l-.71-.038c-.332-.016-.66.076-.935.262-.266.187-.473.446-.598.747v5.492H48.13v-7.696h1.233l.15 1.12c.19-.365.458-.683.785-.933.315-.228.696-.346 1.084-.337.101-.006.203.007.299.038.074 0 .186.037.224.037l-.15 1.308h.001zm3.288-3.064v1.868h1.458v1.046h-1.458v4.67c-.03.27.05.54.225.747.159.156.376.237.598.224.089.004.177-.009.261-.037.089-.02.176-.045.262-.075l.187.972c-.142.09-.292.165-.449.224-.197.043-.397.068-.598.074-.501.017-.987-.172-1.345-.523-.364-.452-.539-1.028-.486-1.606v-4.67h-1.196v-1.046h1.196v-1.868h1.345zm217.971-15.205h-4.672v3.699h5.42v1.083h-6.802v-10.348h6.69v1.083h-5.308v3.363h4.672v1.12zm3.29-2.914l.111 1.159c.46-.801 1.32-1.288 2.243-1.27.713-.038 1.408.234 1.906.746.498.637.738 1.437.673 2.242v4.857h-1.383v-4.82c.04-.52-.105-1.036-.411-1.457-.32-.305-.757-.455-1.196-.41-.37-.004-.734.1-1.047.298-.312.194-.569.464-.747.785v5.604h-1.383V112h1.233v-.038l.001.001zm6.652 3.998c-.05-1.053.223-2.097.785-2.989.785-1.06 2.207-1.42 3.401-.86.346.17.652.413.897.71v-4.22h1.383v11.095h-1.121l-.15-.934c-.231.34-.538.62-.897.822-.397.186-.832.276-1.27.261-.844.04-1.654-.338-2.168-1.009-.557-.783-.834-1.73-.785-2.69v-.186h-.075zm1.383.15c-.042.658.128 1.313.486 1.867.333.469.882.736 1.457.71.37.004.734-.1 1.047-.299.299-.187.534-.46.673-.784v-3.587c-.176-.3-.42-.556-.71-.747-.301-.194-.652-.298-1.01-.299-.607-.044-1.18.28-1.457.822-.34.67-.506 1.416-.486 2.167v.15z"/>
        <path fill="#999" d="M19.314 171.14h3.737l-.187.933h-4.858l1.681-8.63h1.122l-1.495 7.696v.001zm4.933-2.354c.112-.888.49-1.722 1.084-2.391.532-.591 1.298-.92 2.093-.897.715-.047 1.396.315 1.757.934.403.714.536 1.55.373 2.354v.112c-.104.89-.482 1.725-1.083 2.39-.537.585-1.299.912-2.093.897-.715.047-1.396-.315-1.757-.934-.403-.714-.536-1.55-.374-2.353v-.112zm1.122.15c-.122.572-.084 1.167.112 1.718.163.426.593.687 1.046.635.497-.006.96-.258 1.233-.673.357-.498.587-1.074.673-1.68v-.15c.125-.56.086-1.143-.112-1.681-.162-.426-.593-.688-1.046-.636-.497.006-.96.258-1.234.673-.356.498-.587 1.075-.672 1.681v.113zm6.951.784l-.037.672h.037l.262-.71 1.98-4.072h.898l.373 4.072v.785h.038l.299-.785 1.72-4.072h1.12l-2.99 6.426h-.897l-.336-3.923-.037-1.046h-.038l-.448 1.084-1.869 3.922h-.897l-.449-6.425h1.122l.15 4.072h-.001zm16.445-5.38h-2.541l-1.533 7.696h-1.12l1.532-7.696h-2.505l.187-.934h6.167l-.187.934zm2.43 7.733v-.485c0-.113.037-.262.037-.374-.255.287-.559.528-.897.71-.306.184-.653.287-1.01.299-.482.033-.951-.16-1.27-.523-.276-.419-.357-.937-.224-1.42.088-.597.428-1.128.934-1.457.587-.348 1.262-.517 1.944-.486h1.084l.112-.635c.091-.301.05-.627-.112-.896-.217-.215-.518-.325-.823-.3-.323.002-.637.107-.897.3-.236.16-.408.398-.486.672h-1.083v-.037c.105-.531.414-1 .86-1.308.534-.379 1.176-.575 1.83-.56.555-.03 1.097.174 1.496.56.386.425.514 1.024.336 1.57l-.598 3.1-.112.672c-.038.21-.038.426 0 .636h-1.121v-.038zm-1.495-.859c.34-.003.675-.093.971-.262.305-.152.564-.385.748-.672l.224-1.195h-1.121c-.383-.007-.755.125-1.047.373-.268.209-.464.496-.56.822-.075.237-.048.494.075.71.112.187.373.224.71.224zm7.998-4.52l-.636-.038c-.254 0-.502.078-.71.224-.241.156-.435.376-.56.635l-.897 4.558h-1.122l1.271-6.425h1.01l-.075.859c.19-.292.446-.535.747-.71.27-.165.58-.255.897-.262.089-.003.178.01.262.038.06.024.123.037.187.037l-.374 1.084zm.374 2.166c.137-.908.496-1.768 1.046-2.503.451-.541 1.127-.845 1.831-.822.662-.028 1.284.32 1.608.897l.261-.784h.972l-1.233 6.313c-.114.77-.482 1.48-1.047 2.017-.582.464-1.311.703-2.055.673-.306 0-.609-.05-.898-.15-.293-.06-.572-.173-.822-.336l.449-.896c.192.136.407.237.635.299.255.073.52.111.785.112.432.019.852-.144 1.159-.449.327-.34.548-.769.635-1.233l.075-.448c-.426.423-1.007.652-1.607.635-.652.023-1.255-.344-1.533-.934-.358-.704-.45-1.513-.261-2.279v-.112zm1.084.112c-.152.542-.126 1.118.074 1.644.193.418.625.671 1.084.635.266.001.526-.077.748-.224.256-.177.473-.406.635-.672l.598-2.989c-.106-.25-.273-.468-.486-.635-.23-.157-.506-.235-.785-.224-.47 0-.906.24-1.158.635-.348.516-.577 1.103-.673 1.718l-.037.112zm7.437 3.213c-.714.036-1.394-.304-1.794-.896-.422-.694-.556-1.525-.374-2.317l.038-.261c.116-.872.509-1.684 1.121-2.316.486-.547 1.175-.87 1.906-.897.661-.06 1.303.24 1.682.785.36.635.467 1.382.299 2.092l-.112.747h-3.812c-.101.53-.036 1.078.187 1.569.213.371.619.589 1.046.56.64-.005 1.26-.23 1.757-.635l.336.747c-.632.546-1.445.84-2.28.822zm.748-5.716c-.37.012-.713.191-.935.486-.31.358-.54.778-.673 1.233v.037h2.617l.037-.15c.094-.39.04-.803-.15-1.157-.188-.31-.536-.484-.896-.449zm5.755-2.353l-.299 1.532h1.084l-.187.859H72.61l-.784 3.885c-.075.299-.075.523.037.635.104.115.258.17.411.15.113.002.227-.01.337-.038.104-.002.205-.028.298-.074v.784c-.154.081-.317.144-.485.187-.21.043-.422.068-.636.075-.367.018-.719-.15-.934-.449-.234-.408-.288-.895-.15-1.345l.785-3.885h-.934l.187-.86h.934l.3-1.53h1.12v.074zm-49.073-96.46h-1.121l.747-3.81h-3.775l-.747 3.81h-1.121l1.681-8.63h1.122l-.748 3.886h3.775l.785-3.886h1.121l-1.719 8.63zm3.027 0h-1.12l1.233-6.425h1.12l-1.233 6.425zm1.57-8.07H27.5l.224-1.195h1.121l-.224 1.196-.001-.001zm.523 4.857c.137-.908.497-1.768 1.047-2.503.451-.541 1.127-.845 1.831-.822.662-.027 1.283.32 1.607.897l.262-.784h.972l-1.234 6.313c-.113.77-.481 1.481-1.046 2.018-.61.464-1.364.702-2.13.672-.306 0-.609-.05-.898-.15-.293-.06-.572-.173-.822-.336l.449-.896c.192.136.407.237.635.299.255.073.52.111.785.112.432.019.852-.144 1.159-.449.327-.34.548-.769.635-1.232l.075-.449c-.216.209-.47.373-.748.486-.258.114-.54.165-.822.15-.652.023-1.254-.345-1.532-.935-.359-.703-.452-1.513-.262-2.279l.037-.112zm1.084.112c-.152.542-.125 1.118.075 1.644.193.418.625.671 1.084.635.266.001.526-.077.747-.224.257-.177.474-.406.636-.672l.598-2.989c-.106-.25-.273-.468-.486-.635-.23-.157-.506-.235-.785-.224-.47 0-.906.24-1.159.635-.347.516-.577 1.103-.672 1.718l-.038.112zm7.139-2.54c.24-.277.533-.506.86-.672.315-.15.66-.226 1.009-.225.518-.036 1.016.206 1.308.636.307.573.374 1.245.187 1.868l-.785 4.034h-1.121l.784-4.034c.123-.395.096-.82-.074-1.196-.206-.261-.529-.402-.86-.374-.277.004-.548.082-.785.225-.278.16-.52.376-.71.635l-.934 4.707h-1.122l1.832-9.265h1.121l-.71 3.661zm14.128-2.092h-2.542l-1.532 7.696h-1.122l1.533-7.696h-2.504l.187-.934h6.166l-.186.934zm2.429 7.733v-.485c0-.113.037-.262.037-.374-.255.287-.559.528-.897.71-.305.184-.653.287-1.009.299-.482.033-.951-.16-1.27-.523-.276-.419-.358-.936-.225-1.42.088-.597.429-1.128.935-1.457.586-.348 1.262-.517 1.943-.486h1.084l.112-.635c.091-.301.05-.627-.112-.896-.217-.215-.517-.325-.822-.3-.323.002-.637.107-.897.3-.236.16-.408.398-.486.672h-1.084v-.037c.106-.531.414-1 .86-1.308.534-.379 1.176-.575 1.831-.56.554-.029 1.096.174 1.495.56.386.425.515 1.024.336 1.57l-.598 3.1-.112.672c-.037.21-.037.426 0 .636h-1.121v-.038zm-1.495-.859c.34-.003.675-.093.972-.262.305-.152.563-.385.747-.672l.224-1.195h-1.12c-.383-.007-.755.125-1.047.373-.268.209-.464.496-.56.822-.076.237-.049.494.074.71.112.187.374.224.71.224zm8.036-4.52l-.636-.038c-.254 0-.502.078-.71.224-.241.156-.435.376-.56.635l-.898 4.558h-1.12l1.27-6.425h1.01l-.076.859c.191-.292.447-.535.748-.71.27-.165.58-.255.897-.262.089-.003.177.01.261.038.06.024.123.037.187.037l-.373 1.084zm.336 2.166c.137-.908.497-1.768 1.047-2.503.451-.541 1.126-.844 1.83-.822.662-.028 1.284.32 1.608.897l.262-.784h.971l-1.233 6.313c-.113.77-.481 1.481-1.046 2.018-.582.464-1.312.702-2.056.672-.305 0-.608-.051-.897-.15-.293-.06-.572-.173-.822-.336l.448-.896c.193.136.408.237.636.299.255.073.519.111.784.112.432.019.852-.144 1.159-.449.327-.34.548-.769.635-1.232l.075-.449c-.426.423-1.007.652-1.607.635-.651.023-1.254-.344-1.532-.934-.359-.703-.452-1.513-.262-2.279v-.112zm1.084.112c-.152.542-.125 1.118.075 1.644.192.418.625.671 1.083.635.266.001.526-.077.748-.224.257-.177.473-.406.635-.672l.598-2.989c-.106-.25-.273-.467-.485-.635-.23-.157-.506-.235-.785-.224-.47 0-.906.24-1.159.635-.348.516-.577 1.103-.673 1.718l-.037.112zm7.475 3.213c-.714.036-1.394-.304-1.794-.896-.422-.694-.556-1.525-.374-2.317l.037-.261c.116-.872.51-1.684 1.122-2.316.486-.547 1.175-.87 1.906-.897.66-.06 1.303.24 1.682.785.36.634.466 1.382.299 2.092l-.112.747h-3.813c-.101.53-.036 1.078.187 1.569.213.371.62.589 1.047.56.64-.005 1.26-.23 1.756-.635l.337.747c-.264.237-.568.427-.897.56-.44.177-.91.266-1.383.262zm.71-5.716c-.369.013-.712.191-.934.486-.311.358-.54.778-.673 1.233v.037h2.616l.037-.15c.094-.39.041-.803-.149-1.157-.188-.31-.537-.484-.897-.449zm5.793-2.353l-.299 1.532h1.084l-.187.859h-1.084l-.785 3.885c-.074.299-.074.523.038.635.104.115.257.17.41.15.114.002.227-.01.337-.038.104-.002.207-.027.3-.074v.784c-.154.081-.318.144-.487.187-.21.043-.422.068-.635.075-.367.018-.72-.15-.934-.449-.234-.408-.288-.895-.15-1.345l.785-3.885h-.934l.186-.86h.935l.299-1.53h1.121v.074z"/>
        <path fill="#333" d="M18.63 21.332c-.377.473-.864.845-1.42 1.083-.765.337-1.594.503-2.43.486-1.142.035-2.249-.397-3.065-1.196-.798-.801-1.23-1.896-1.196-3.026v-2.167c-.048-1.136.37-2.243 1.159-3.063.773-.796 1.844-1.23 2.953-1.195 1.044-.073 2.076.262 2.878.934.674.624 1.042 1.51 1.009 2.428v.037h-1.944c-.017-.483-.202-.945-.523-1.307-.355-.352-.848-.53-1.346-.486-.6-.005-1.167.271-1.532.747-.395.554-.592 1.225-.56 1.905v2.167c-.039.687.174 1.364.597 1.906.39.485.985.761 1.608.747.392.018.784-.033 1.158-.15.248-.076.477-.204.673-.373v-1.943h-1.794v-1.42h3.85v3.886h-.075zm1.308-2.503c-.048-1.03.285-2.04.934-2.84.657-.747 1.624-1.147 2.617-1.083 1-.046 1.97.35 2.653 1.083.661.796 1.007 1.806.972 2.84v.15c.047 1.029-.285 2.039-.934 2.838-.667.733-1.627 1.13-2.617 1.084-1 .046-1.97-.35-2.653-1.084-.65-.8-.982-1.81-.935-2.839v-.15h-.037v.001zm2.018.15c-.036.584.094 1.166.374 1.68.243.424.708.671 1.196.635.476.027.925-.22 1.159-.635.262-.52.39-1.098.373-1.68v-.15c.027-.583-.102-1.164-.373-1.681-.228-.422-.682-.67-1.16-.636-.476-.026-.925.22-1.158.636-.275.516-.404 1.096-.373 1.68v.15h-.038v.001zm9.755 3.922c-.989.039-1.944-.358-2.616-1.084-.669-.732-1.019-1.7-.972-2.69v-.261c-.048-1.03.285-2.04.934-2.84.61-.745 1.544-1.149 2.505-1.083.896-.056 1.771.285 2.392.934.597.708.904 1.615.86 2.54v1.121H30.29v.038c.021.453.192.887.486 1.233.307.33.745.508 1.196.485.38.016.759-.034 1.12-.15.348-.093.676-.244.973-.447l.56 1.27c-.36.3-.78.516-1.233.635-.532.22-1.106.322-1.682.299h.001zm-.15-6.389c-.355-.009-.69.16-.896.449-.248.337-.39.74-.412 1.158l.038.037h2.504v-.187c.015-.372-.09-.738-.3-1.046-.226-.28-.574-.433-.933-.41l-.001-.001zm8.522 4.11c-.012-.241-.136-.462-.336-.598-.375-.206-.778-.357-1.196-.448-.729-.11-1.421-.391-2.019-.822-.447-.364-.696-.918-.672-1.494-.012-.66.294-1.286.822-1.682.629-.488 1.41-.74 2.205-.71.826-.046 1.644.192 2.317.673.552.41.861 1.07.823 1.756v.037h-1.981c.004-.28-.104-.548-.3-.747-.236-.209-.544-.316-.859-.299-.286-.023-.57.071-.785.262-.19.148-.302.375-.302.616 0 .242.111.47.302.617.365.22.773.36 1.196.41.757.115 1.474.41 2.093.86.455.374.705.943.673 1.532.005.667-.316 1.294-.86 1.68-.676.476-1.491.713-2.317.673-.867.046-1.72-.233-2.392-.784-.536-.426-.852-1.071-.86-1.756v-.038h1.87c-.024.35.131.686.41.897.3.191.654.283 1.01.261.303.022.605-.057.859-.224.187-.174.295-.417.299-.672zm15.286-2.092c.035 1.164-.395 2.293-1.196 3.138-.813.831-1.94 1.28-3.102 1.233-1.15.046-2.266-.403-3.064-1.233-.8-.845-1.231-1.974-1.196-3.138v-1.868c-.048-1.159.369-2.288 1.158-3.138.798-.83 1.914-1.28 3.065-1.233 1.162-.046 2.289.402 3.102 1.233.8.845 1.231 1.974 1.196 3.138v1.868h.037zm-2.055-1.905c.037-.71-.174-1.41-.598-1.98-.385-.517-1-.81-1.645-.785-.635-.034-1.243.263-1.607.785-.39.585-.586 1.278-.56 1.98v1.867c-.037.721.174 1.433.598 2.018.369.515.973.81 1.607.784.644.025 1.259-.268 1.644-.784.408-.592.617-1.299.598-2.018v-1.867h-.037zm8.148 5.043c-.42.786-1.24 1.275-2.13 1.27-.71.035-1.397-.253-1.87-.784-.532-.707-.784-1.585-.71-2.466v-4.633h2.056v4.67c-.053.422.054.848.299 1.196.19.26.502.4.822.373.294.012.587-.04.86-.15.227-.108.42-.276.56-.485v-5.604h2.056v7.696h-1.757l-.186-1.083zm5.905-8.48v1.867h1.27v1.457h-1.27v3.923c-.019.228.048.454.187.635.132.122.306.188.486.187h.261c.09-.012.179-.038.262-.075l.187 1.495c-.195.067-.395.117-.598.149-.206.064-.421.09-.636.075-.608.04-1.204-.177-1.644-.598-.416-.53-.617-1.197-.56-1.868v-3.923h-1.085v-1.457h1.122v-1.867h2.018zm6.69 7.434c-.012-.241-.136-.462-.336-.598-.375-.206-.778-.357-1.196-.448-.729-.11-1.421-.391-2.019-.822-.447-.364-.696-.918-.672-1.494-.012-.66.294-1.286.822-1.682.629-.488 1.41-.74 2.205-.71.826-.046 1.644.192 2.317.673.552.41.861 1.07.822 1.756v.037h-1.98c.004-.28-.104-.548-.3-.747-.236-.21-.545-.317-.86-.299-.286-.023-.57.072-.784.262-.19.148-.302.375-.302.616 0 .242.111.47.302.617.365.22.773.36 1.196.41.759.107 1.478.403 2.093.86.455.374.705.943.673 1.532.008.676-.33 1.31-.897 1.68-.676.476-1.491.713-2.317.673-.867.046-1.72-.233-2.392-.784-.536-.426-.852-1.071-.86-1.756v-.038h1.869c-.023.35.131.686.41.897.3.191.654.283 1.01.261.303.022.605-.057.86-.224.223-.148.351-.404.336-.672zm5.494-7.397h-2.056v-1.57h2.056v1.57zm0 9.526h-2.056v-7.696h2.056v7.696zm1.346-3.773c-.052-1.041.222-2.073.784-2.951.487-.736 1.325-1.161 2.206-1.121.354-.011.705.08 1.009.262.312.173.58.416.785.71v-4.222h2.055V22.75H85.98l-.15-.934c-.219.337-.513.619-.86.822-.344.183-.73.273-1.12.262-.854.043-1.671-.35-2.169-1.046-.552-.8-.827-1.757-.784-2.727v-.15.001zm2.055.15c-.024.555.092 1.107.337 1.606.224.383.64.612 1.083.598.273 0 .542-.064.785-.187.226-.114.41-.297.524-.523v-3.325c-.113-.236-.296-.431-.524-.56-.225-.136-.485-.2-.747-.187-.464-.017-.893.249-1.084.672-.247.564-.362 1.178-.336 1.793v.113h-.038zm9.755 3.773c-.989.039-1.944-.358-2.616-1.084-.669-.732-1.019-1.7-.972-2.69v-.261c-.048-1.03.285-2.04.934-2.84.61-.745 1.544-1.149 2.505-1.083.896-.056 1.771.285 2.392.934.597.708.904 1.615.86 2.54v1.121h-4.523v.038c.021.453.192.887.486 1.233.307.33.745.508 1.196.485.38.016.759-.034 1.12-.15.348-.093.676-.244.973-.447l.56 1.27c-.36.3-.78.516-1.233.635-.533.217-1.107.319-1.682.299zm-.187-6.389c-.355-.01-.692.16-.897.449-.231.346-.372.744-.411 1.158l.037.037h2.505v-.187c.015-.372-.09-.738-.3-1.046-.226-.28-.575-.433-.934-.41v-.001z"/>
    </g>
</svg>
