<svg xmlns="http://www.w3.org/2000/svg" width="299" height="197"><g fill="none"><path fill="#FFF" d="M0 0h299v197H0z"/><path fill="#D6DADB" d="M1.987 1.98v193.04h295.026V1.98H1.987zM299 0v197H0V0h299z"/><path fill="#F2F3F4" d="M40.473 35.419v19.542h35.459V35.419h1.206l-.001 19.542h35.422V35.419h1.206v19.542h35.459V35.419h1.206v19.542h35.421l.001-19.542h1.206v19.542h35.42l.001-19.542h1.206v19.542l70.858.001v1.206h-70.858v39.124h70.858v1.206l-70.858-.001v18.941h70.858v1.206l-70.858-.001v18.977l70.858.001v1.206h-70.858v39.085l70.858.001v1.206l-70.858-.001v17.165h-1.206l-.001-17.165h-35.42v17.165h-1.206l-.001-17.165H150.43v17.165h-1.206v-17.165h-35.459v17.165h-1.206v-17.165H77.137l.001 17.165h-1.206v-17.165H40.473v17.165h-1.206l-.001-17.165-34.379.001v-1.206l34.379-.001v-39.085H4.887v-1.206l34.379-.001v-18.977l-34.379.001v-1.206h34.379V96.497l-34.379.001v-1.206h34.379V56.168H4.887v-1.206l34.379-.001.001-19.542h1.206zm182.005 101.408h-35.42v39.085h35.42v-39.085zm-36.627 0H150.43v39.085h35.421v-39.085zm-36.627 0h-35.459v39.085h35.459v-39.085zm-36.665 0H77.137v39.085h35.422v-39.085zm-36.627 0H40.473v39.085h35.459v-39.085zm146.546-20.184h-35.42v18.977h35.42v-18.977zm-36.627 0H150.43v18.977h35.421v-18.977zm-36.627 0h-35.459v18.977h35.459v-18.977zm-36.665 0H77.137v18.977h35.422v-18.977zm-36.627 0H40.473v18.977h35.459v-18.977zm0-20.146H40.473v18.941h35.459V96.497zm36.627 0H77.137v18.941h35.422V96.497zm36.665 0h-35.459v18.941h35.459V96.497zm36.627 0H150.43v18.941h35.421V96.497zm36.627 0h-35.42v18.941h35.42V96.497zm0-40.329h-35.42v39.124h35.42V56.168zm-36.627 0H150.43v39.124h35.421V56.168zm-36.627 0h-35.459v39.124h35.459V56.168zm-36.665 0H77.137v39.124h35.422V56.168zm-36.627 0H40.473v39.124h35.459V56.168z"/><path fill="#333" d="M241.663 35.42v158.863h-1.206V35.42h1.206zm52.88 121.129v1.128H288.7v-1.128h5.843zm-282.187 0v1.128H4.887v-1.128h7.469zm268.875 0v1.128h-7.469v-1.128h7.469zm-14.938 0v1.128h-7.468v-1.128h7.468zm-14.937 0v1.128h-7.469v-1.128h7.469zm-14.938 0v1.128h-7.468v-1.128h7.468zm-14.937 0v1.128h-7.469v-1.128h7.469zm-14.938 0v1.128h-7.468v-1.128h7.468zm-14.937 0v1.128h-7.469v-1.128h7.469zm-14.938 0v1.128H169.2v-1.128h7.468zm-14.937 0v1.128h-7.469v-1.128h7.469zm-14.938 0v1.128h-7.468v-1.128h7.468zm-14.937 0v1.128h-7.469v-1.128h7.469zm-14.938 0v1.128h-7.468v-1.128h7.468zm-14.937 0v1.128h-7.469v-1.128h7.469zm-14.938 0v1.128h-7.468v-1.128h7.468zm-14.937 0v1.128h-7.469v-1.128h7.469zm-14.938 0v1.128H49.7v-1.128h7.468zm-14.937 0v1.128h-7.469v-1.128h7.469zm-14.938 0v1.128h-7.468v-1.128h7.468zm0-80.515v1.127h-7.468v-1.127h7.468zm-14.937 0v1.127H4.887v-1.127h7.469zm268.875 0v1.127h-7.469v-1.127h7.469zm-14.938 0v1.127h-7.468v-1.127h7.468zm-14.937 0v1.127h-7.469v-1.127h7.469zm-14.938 0v1.127h-7.468v-1.127h7.468zm-14.937 0v1.127h-7.469v-1.127h7.469zm-14.938 0v1.127h-7.468v-1.127h7.468zm-14.937 0v1.127h-7.469v-1.127h7.469zm-14.938 0v1.127H169.2v-1.127h7.468zm-14.937 0v1.127h-7.469v-1.127h7.469zm-14.938 0v1.127h-7.468v-1.127h7.468zm-14.937 0v1.127h-7.469v-1.127h7.469zm-14.938 0v1.127h-7.468v-1.127h7.468zm-14.937 0v1.127h-7.469v-1.127h7.469zm-14.938 0v1.127h-7.468v-1.127h7.468zm-14.937 0v1.127h-7.469v-1.127h7.469zm-14.938 0v1.127H49.7v-1.127h7.468zm-14.937 0v1.127h-7.469v-1.127h7.469zm252.312 0v1.127H288.7v-1.127h5.843z"/><path fill="#D6DADB" d="M2.794 35.436v-2.412h293.842v2.412zm17.307 82.084a1.809 1.809 0 01.346-3.132l35.745-15.92a1.806 1.806 0 011.887.257l24.958 20.574 42.309-49.255c.879-1.148 2.683-.852 3.148.517l29.886 81.844 16.384-44.226c.11-.297.296-.56.539-.762l27.355-22.788a1.808 1.808 0 012.164-.113l36.927 24.744a1.81 1.81 0 11-2.014 3.005l-35.802-23.99-25.944 21.613-17.985 48.549c-.592 1.596-2.86 1.566-3.409-.046L126.16 74.93l-41.39 48.056a1.806 1.806 0 01-2.587.296L56.64 102.23l-34.723 15.464a1.81 1.81 0 01-1.816-.173z"/><ellipse cx="158.61" cy="157.336" fill="#FFF" opacity=".6" rx="8.11" ry="8.4"/><ellipse cx="126.841" cy="71.155" fill="#FFF" opacity=".6" rx="8.11" ry="8.4"/><path fill="#FF444F" d="M158.61 147.73c5.155 0 9.317 4.31 9.317 9.606s-4.162 9.607-9.317 9.607-9.316-4.31-9.316-9.607c0-5.296 4.161-9.606 9.316-9.606zm0 2.412c-3.803 0-6.904 3.212-6.904 7.194 0 3.983 3.1 7.195 6.904 7.195s6.905-3.212 6.905-7.195c0-3.982-3.101-7.194-6.905-7.194zm-31.768-88.593c5.155 0 9.316 4.31 9.316 9.606s-4.161 9.606-9.316 9.606c-5.155 0-9.317-4.31-9.317-9.606s4.162-9.606 9.317-9.606zm0 2.412c-3.804 0-6.905 3.211-6.905 7.194s3.101 7.194 6.905 7.194c3.803 0 6.904-3.211 6.904-7.194s-3.1-7.194-6.904-7.194z"/><path fill="#333" d="M27.525 23.302h-1.839v-4.698h-4.754v4.698H19.09V12.73h1.846v4.4h4.754v-4.4h1.839l-.004 10.57v.002zm3.898 0h-1.775v-7.854h1.775v7.854zm-1.883-9.895a.934.934 0 01.261-.676.98.98 0 01.74-.268.997.997 0 01.744.268c.176.18.27.425.262.676a.904.904 0 01-.262.666c-.202.185-.473.28-.748.26a.988.988 0 01-.74-.26.91.91 0 01-.261-.67l.004.004zm3.502 5.91a4.578 4.578 0 01.867-2.921 2.782 2.782 0 012.295-1.093 2.61 2.61 0 012.126.937l.079-.792h1.6v7.616a3.158 3.158 0 01-.969 2.438 3.699 3.699 0 01-2.608.892 4.224 4.224 0 01-1.697-.36 3.007 3.007 0 01-1.26-.94l.837-1.06a2.538 2.538 0 002.019.967 1.967 1.967 0 001.39-.476c.363-.372.55-.88.512-1.398V22.6c-.523.57-1.27.881-2.044.848a2.775 2.775 0 01-2.265-1.097 4.723 4.723 0 01-.882-3.033v-.001zm1.767.149c-.037.657.133 1.31.486 1.866.302.44.81.695 1.346.676a1.71 1.71 0 001.592-.914v-3.457a1.684 1.684 0 00-1.577-.892 1.571 1.571 0 00-1.36.691 3.528 3.528 0 00-.487 2.034v-.004zm8.769-3.16a2.785 2.785 0 012.197-1.003c1.685 0 2.538.955 2.56 2.866v5.133h-1.771v-5.066a1.542 1.542 0 00-.355-1.153 1.455 1.455 0 00-1.04-.334 1.709 1.709 0 00-1.591.94v5.613h-1.776V12.15h1.776v4.156zm9.994 3.212h-3.835v-1.42h3.835v1.42zm3.48 2.316h4.824v1.468h-6.671V12.73h1.846v9.103l.001.001zm5.736-2.532c-.01-.72.149-1.433.464-2.081.28-.59.729-1.085 1.29-1.424a3.656 3.656 0 011.913-.494c.97-.038 1.91.333 2.594 1.022a4.014 4.014 0 011.076 2.714l.008.416a4.644 4.644 0 01-.449 2.074 3.309 3.309 0 01-1.286 1.416 3.683 3.683 0 01-1.928.502 3.439 3.439 0 01-2.676-1.108 4.226 4.226 0 01-1.002-2.951l-.004-.086zm1.776.15c-.04.672.137 1.338.504 1.902.321.45.848.707 1.402.684a1.622 1.622 0 001.398-.695 3.47 3.47 0 00.5-2.044 3.112 3.112 0 00-.515-1.885 1.736 1.736 0 00-2.777-.011 3.418 3.418 0 00-.512 2.052v-.004.001zm14.008 1.419l1.256-5.427h1.73l-2.153 7.858h-1.457l-1.697-5.393-1.663 5.393h-1.462l-2.16-7.854h1.73l1.279 5.364 1.618-5.364h1.338l1.64 5.423h.001z"/><path fill="#999" d="M150.6 180.315h3.619v1.1h-5.005v-7.928h1.383l.004 6.828h-.001zm4.303-1.9a3.454 3.454 0 01.347-1.56c.211-.443.548-.814.968-1.067a2.74 2.74 0 011.436-.372 2.597 2.597 0 011.943.766 3.01 3.01 0 01.807 2.036l.008.313a3.477 3.477 0 01-.337 1.557c-.21.44-.545.81-.964 1.06-.439.256-.94.386-1.45.375a2.58 2.58 0 01-2.003-.829 3.17 3.17 0 01-.755-2.215v-.064zm1.33.112c-.03.504.103 1.003.378 1.427.241.338.638.53 1.054.513.415.016.81-.18 1.046-.52.28-.46.41-.995.374-1.532.028-.5-.107-.997-.385-1.416a1.305 1.305 0 00-2.082-.007 2.56 2.56 0 00-.385 1.539v-.004zm10.506 1.063l.942-4.066h1.297l-1.614 5.891h-1.095l-1.271-4.044-1.249 4.044h-1.095l-1.618-5.891h1.297l.957 4.025 1.218-4.025h1.002l1.23 4.066h-.001zM124.001 51.32h-1.379v-3.523h-3.566v3.524h-1.382v-7.929h1.382v3.301h3.566v-3.3h1.383L124 51.32h.001zm2.923 0h-1.33v-5.89h1.33v5.89zm-1.413-7.422a.7.7 0 01.194-.506.735.735 0 01.561-.2.749.749 0 01.557.2.7.7 0 01.194.506.678.678 0 01-.194.498.751.751 0 01-.56.2.742.742 0 01-.558-.2.681.681 0 01-.194-.498zm2.631 4.434a3.435 3.435 0 01.647-2.193 2.089 2.089 0 011.72-.817 1.956 1.956 0 011.595.702l.06-.595h1.2v5.713a2.37 2.37 0 01-.726 1.83 2.774 2.774 0 01-1.958.668c-.437 0-.87-.091-1.27-.267a2.268 2.268 0 01-.946-.707l.628-.795c.364.462.923.73 1.513.725.382.02.757-.107 1.047-.357.27-.28.41-.661.381-1.048v-.398c-.39.427-.952.66-1.532.636a2.085 2.085 0 01-1.7-.818 3.54 3.54 0 01-.659-2.279zm1.323.112c-.028.492.099.98.363 1.397.226.331.607.524 1.009.51.499.023.965-.244 1.196-.684v-2.595a1.264 1.264 0 00-1.181-.669 1.176 1.176 0 00-1.024.52c-.272.46-.399.992-.363 1.525v-.004zm6.578-2.372a2.086 2.086 0 011.645-.75c1.263 0 1.903.716 1.92 2.148v3.85h-1.33v-3.798a1.157 1.157 0 00-.261-.866 1.087 1.087 0 00-.785-.253 1.283 1.283 0 00-1.192.706v4.212h-1.33v-8.363h1.33l.003 3.114z"/><path fill="#333" d="M12.526 125.059c.45.001.892.111 1.29.319.366.193.665.49.86.855.2.378.292.804.265 1.23l-1.035-.004c.06-.407-.06-.82-.33-1.13a1.48 1.48 0 00-1.094-.408 2.045 2.045 0 00-1.252.345c-.33.226-.543.585-.584.982-.072.54.263.949 1.006 1.226l.815.29.41.175a2.048 2.048 0 011.428 2.104c-.032.42-.19.822-.455 1.152a2.54 2.54 0 01-1.07.758c-.462.18-.957.264-1.453.25a3.049 3.049 0 01-1.372-.317 2.24 2.24 0 01-.946-.858 2.136 2.136 0 01-.284-1.238l1.032.007c-.053.413.09.828.385 1.123.339.295.78.449 1.23.427.46.026.919-.094 1.308-.342.33-.214.548-.562.598-.951v-.004c.08-.58-.223-1.004-.909-1.271l-.949-.342-.318-.138c-1.066-.483-1.564-1.162-1.495-2.037.032-.424.191-.83.456-1.163.28-.347.644-.616 1.058-.78a3.42 3.42 0 011.405-.26zm9.453 2.029a1.968 1.968 0 011.439.557c.35.386.508.91.43 1.424l-.483 2.921-.026.417c-.007.2.016.4.067.594l-.01.093h-1.01a1.312 1.312 0 01-.037-.312l.015-.308a2.437 2.437 0 01-1.73.728 1.778 1.778 0 01-1.272-.49 1.49 1.49 0 01-.448-1.209 1.811 1.811 0 01.822-1.46 3.519 3.519 0 012.026-.524l1.035.003.067-.468a1.075 1.075 0 00-.205-.836.994.994 0 00-.785-.316 1.54 1.54 0 00-.897.245c-.247.153-.42.4-.478.684l-.998.004c.032-.34.175-.662.407-.915.25-.276.563-.488.912-.62.368-.148.762-.22 1.159-.212zm-4.209-1.312l-.25 1.427h1.076l-.134.78h-1.073l-.62 3.662c-.01.086-.012.173-.004.26a.416.416 0 00.463.427c.163-.004.326-.023.486-.055l-.078.821c-.236.066-.48.1-.725.1-.35.014-.684-.15-.886-.434-.21-.34-.29-.741-.228-1.134l.598-3.647h-1.047l.139-.78h1.046l.254-1.427h.983zm13.59 0l-.25 1.427h1.076l-.135.78h-1.076l-.62 3.662c-.01.086-.012.173-.004.26a.416.416 0 00.463.427c.162-.004.323-.023.482-.055l-.075.821c-.236.066-.48.1-.725.1-.35.014-.683-.15-.885-.434a1.666 1.666 0 01-.232-1.134l.602-3.647h-1.047l.138-.78h1.047l.25-1.427h.991zm-3.304 1.308c.16.006.318.034.47.082l-.108.936-.463-.048a1.7 1.7 0 00-1.499.855l-.729 4.185h-.994l1.028-5.891.957-.004-.15.684c.328-.5.888-.8 1.488-.799zm-7.565 3.442c-.313.17-.522.48-.56.833a.84.84 0 00.19.687.93.93 0 00.71.286c.315.01.627-.068.9-.223.29-.163.54-.388.733-.658l.213-1.215-.747-.004a2.845 2.845 0 00-1.439.294zm245.381-16.946v8.363h-1.203l-.067-.61c-.388.475-.978.74-1.592.718a2.025 2.025 0 01-1.682-.832 3.616 3.616 0 01-.646-2.268l-.001.001a3.486 3.486 0 01.636-2.183 2.037 2.037 0 011.704-.825c.58-.02 1.139.22 1.521.654v-3.018h1.33zm-12.217.435v1.111h-3.79v2.19h3.274l.004 1.089h-3.274v2.438h3.827v1.1h-5.21v-7.928h5.169zm4.04 1.929c1.234 0 1.862.703 1.884 2.108v3.891h-1.33v-3.817a1.206 1.206 0 00-.247-.829 1.028 1.028 0 00-.796-.271 1.282 1.282 0 00-1.196.725v4.192h-1.33v-5.891h1.251l.038.68c.42-.518 1.06-.81 1.726-.788zm5.666 1.086a1.139 1.139 0 00-.998.505c-.266.466-.388 1-.351 1.535-.028.491.093.98.348 1.401.218.329.594.52.99.502.51.023.982-.264 1.196-.725v-2.512a1.237 1.237 0 00-1.185-.706z"/></g></svg>