<svg xmlns="http://www.w3.org/2000/svg" width="299" height="197" viewBox="0 0 299 197">
    <g fill="none">
        <path fill="#FFF" d="M0 0L299 0 299 197 0 197z"/>
        <path fill="#D6DADB" d="M1.987 1.98v193.04h295.026V1.98H1.987zM299 0v197H0V0h299z"/>
        <path fill="#F2F3F4" d="M4.887 56.168v-1.206h289.656v1.206H4.887zm0 40.33v-1.206h289.656v1.205H4.887v.001zm0 40.329v-1.206h289.656v1.206H4.887zm0 40.292v-1.206h289.656v1.206H4.887zm34.38-141.7h1.206v158.864h-1.206V35.419zm36.665 0h1.206v158.864h-1.206V35.419zm36.627 0h1.206v158.864h-1.206V35.419zm36.665 0h1.206v158.864h-1.206V35.419zm36.628 0h1.206v158.864h-1.206V35.419zm36.627 0h1.206v158.864h-1.206V35.419zM4.887 116.643v-1.205h289.656v1.205H4.887z"/>
        <path fill="#333" d="M241.663 35.42v158.863h-1.206V35.42h1.206zm52.88 120.386v1.128H288.7v-1.128h5.843zm-282.187 0v1.128H4.887v-1.128h7.469zm268.875 0v1.128h-7.469v-1.128h7.469zm-14.938 0v1.128h-7.468v-1.128h7.468zm-14.937 0v1.128h-7.469v-1.128h7.469zm-14.938 0v1.128h-7.468v-1.128h7.468zm-14.937 0v1.128h-7.469v-1.128h7.469zm-14.938 0v1.128h-7.468v-1.128h7.468zm-14.937 0v1.128h-7.469v-1.128h7.469zm-14.938 0v1.128H169.2v-1.128h7.468zm-14.937 0v1.128h-7.469v-1.128h7.469zm-14.938 0v1.128h-7.468v-1.128h7.468zm-14.937 0v1.128h-7.469v-1.128h7.469zm-14.938 0v1.128h-7.468v-1.128h7.468zm-14.937 0v1.128h-7.469v-1.128h7.469zm-14.938 0v1.128h-7.468v-1.128h7.468zm-14.937 0v1.128h-7.469v-1.128h7.469zm-14.938 0v1.128H49.7v-1.128h7.468zm-14.937 0v1.128h-7.469v-1.128h7.469zm-14.938 0v1.128h-7.468v-1.128h7.468zm0-80.772v1.127h-7.468v-1.127h7.468zm-14.937 0v1.127H4.887v-1.127h7.469zm268.875 0v1.127h-7.469v-1.127h7.469zm-14.938 0v1.127h-7.468v-1.127h7.468zm-14.937 0v1.127h-7.469v-1.127h7.469zm-14.938 0v1.127h-7.468v-1.127h7.468zm-14.937 0v1.127h-7.469v-1.127h7.469zm-14.938 0v1.127h-7.468v-1.127h7.468zm-14.937 0v1.127h-7.469v-1.127h7.469zm-14.938 0v1.127H169.2v-1.127h7.468zm-14.937 0v1.127h-7.469v-1.127h7.469zm-14.938 0v1.127h-7.468v-1.127h7.468zm-14.937 0v1.127h-7.469v-1.127h7.469zm-14.938 0v1.127h-7.468v-1.127h7.468zm-14.937 0v1.127h-7.469v-1.127h7.469zm-14.938 0v1.127h-7.468v-1.127h7.468zm-14.937 0v1.127h-7.469v-1.127h7.469zm-14.938 0v1.127H49.7v-1.127h7.468zm-14.937 0v1.127h-7.469v-1.127h7.469zm252.312 0v1.127H288.7v-1.127h5.843z"/>
        <path fill="#D6DADB" d="M2.794 35.436L2.794 33.024 296.636 33.024 296.636 35.436zM20.101 117.52c-.53-.38-.813-1.018-.742-1.667.072-.649.488-1.209 1.088-1.465l35.745-15.92c.627-.28 1.358-.18 1.887.257l24.958 20.574 42.309-51.255c.905-1.182 2.772-.825 3.177.608l29.834 101.657 16.355-61.963c.096-.364.302-.688.59-.929l27.356-22.788c.42-.35.974-.49 1.51-.385.535.106.993.448 1.248.931l37.375 70.913c.315.573.296 1.271-.05 1.826-.344.556-.962.881-1.615.853-.653-.03-1.24-.408-1.535-.992l-36.334-68.937-25.195 20.99-17.897 67.807c-.47 1.78-2.99 1.803-3.49.03L126.022 73.111 84.77 122.987c-.299.39-.743.642-1.23.697-.489.056-.978-.089-1.357-.401L56.64 102.23l-34.723 15.464c-.591.274-1.286.208-1.816-.173z"/>
        <ellipse cx="240.835" cy="156.221" fill="#FFF" opacity=".6" rx="8.11" ry="8.4"/>
        <ellipse cx="126.841" cy="69.155" fill="#FFF" opacity=".6" rx="8.11" ry="8.4"/>
        <path fill="#FF444F" d="M240.835 146.615c5.155 0 9.317 4.31 9.317 9.606s-4.162 9.607-9.317 9.607-9.316-4.31-9.316-9.607c0-5.296 4.161-9.606 9.316-9.606zm0 2.412c-3.803 0-6.904 3.212-6.904 7.194 0 3.983 3.1 7.194 6.904 7.194s6.905-3.211 6.905-7.194-3.101-7.194-6.905-7.194zM126.842 59.549c5.155 0 9.316 4.31 9.316 9.606s-4.161 9.606-9.316 9.606c-5.155 0-9.317-4.31-9.317-9.606s4.162-9.606 9.317-9.606zm0 2.412c-3.804 0-6.905 3.211-6.905 7.194s3.101 7.194 6.905 7.194c3.803 0 6.904-3.211 6.904-7.194s-3.1-7.194-6.904-7.194z"/>
        <path fill="#999" d="M252.358 173.119c-.039.758-.378 1.47-.942 1.977-.616.496-1.392.75-2.182.71-.59.013-1.173-.142-1.679-.446-.49-.307-.88-.752-1.12-1.279-.274-.603-.415-1.258-.412-1.921v-.744c-.013-.68.123-1.353.4-1.974.243-.544.642-1.004 1.147-1.32.521-.314 1.121-.474 1.73-.46.772-.037 1.53.218 2.124.714.56.527.895 1.248.934 2.014h-1.38c-.017-.457-.194-.894-.5-1.234-.329-.273-.75-.409-1.177-.379-.544-.028-1.067.219-1.39.658-.36.575-.533 1.248-.494 1.925v.703c-.044.684.116 1.366.46 1.959.3.448.816.705 1.357.676.44.031.875-.1 1.225-.368.314-.328.5-.758.524-1.211h1.375zm2.527 2.58h-1.33v-8.364h1.33V175.699zm1.196-3c-.008-.54.11-1.076.347-1.562.213-.443.55-.813.972-1.066.434-.253.929-.381 1.431-.372.727-.028 1.432.25 1.944.766.517.553.806 1.28.811 2.037l.004.312c.01.538-.106 1.071-.337 1.557-.21.44-.545.81-.964 1.06-.438.255-.939.385-1.446.375-.758.033-1.493-.27-2.007-.829-.524-.615-.793-1.408-.752-2.215l-.003-.063zm1.334.111c-.031.503.1 1.003.374 1.427.241.338.638.53 1.054.513.415.016.81-.18 1.046-.52.28-.46.41-.995.374-1.531.027-.501-.108-.998-.385-1.417-.245-.328-.63-.521-1.04-.523-.409-.001-.795.19-1.042.516-.288.46-.423.998-.385 1.539l.004-.004zm8.622 1.286c.009-.22-.105-.427-.295-.539-.304-.162-.632-.272-.972-.327-.39-.074-.77-.194-1.132-.357-.59-.211-.986-.764-.998-1.39-.002-.504.239-.979.647-1.275.473-.355 1.054-.535 1.644-.51.615-.03 1.221.155 1.716.521.423.322.666.827.654 1.357h-1.33c.004-.243-.1-.474-.285-.632-.21-.177-.48-.269-.755-.256-.255-.011-.507.06-.718.204-.178.12-.282.324-.276.539-.004.193.095.373.261.472.327.167.678.282 1.04.342.426.082.84.22 1.23.409.264.13.492.324.66.565.15.242.226.522.217.806.01.514-.24.998-.665 1.29-.51.347-1.118.52-1.734.49-.446.008-.889-.08-1.297-.26-.355-.154-.661-.402-.886-.717-.206-.288-.317-.634-.317-.988h1.289c.001.282.132.55.355.724.254.18.56.269.87.253.282.018.562-.052.8-.2.175-.115.279-.31.277-.52v-.001zm5.076 1.71c-.764.032-1.507-.255-2.052-.792-.538-.566-.821-1.327-.785-2.107v-.164c-.01-.545.106-1.084.34-1.576.425-.907 1.342-1.48 2.343-1.468.707-.042 1.395.24 1.87.766.475.622.708 1.394.657 2.174v.532h-3.868c.016.43.188.84.486 1.152.287.285.679.44 1.084.427.586.01 1.14-.264 1.487-.736l.718.684c-.238.352-.566.635-.95.818-.415.198-.87.297-1.33.29zm-.16-5.048c-.338-.012-.664.128-.887.383-.246.304-.395.674-.43 1.063h2.538v-.1c-.001-.366-.128-.72-.358-1.004-.224-.235-.54-.36-.864-.342h.001zM124.001 49.32h-1.379v-3.523h-3.566v3.524h-1.382v-7.929h1.382v3.301h3.566v-3.3h1.383L124 49.32h.001zm2.923 0h-1.33v-5.89h1.33v5.89zm-1.413-7.422c-.006-.188.064-.37.194-.506.15-.143.354-.215.561-.2.205-.013.407.06.557.2.13.136.2.318.194.506.006.186-.064.366-.194.498-.151.141-.354.213-.56.2-.206.014-.408-.059-.558-.2-.13-.133-.2-.313-.194-.498zm2.631 4.434c-.041-.783.187-1.557.647-2.193.408-.533 1.049-.837 1.72-.817.612-.029 1.203.231 1.595.702l.06-.595h1.2v5.713c.035.686-.23 1.354-.726 1.83-.542.467-1.244.706-1.958.668-.437 0-.87-.091-1.27-.267-.372-.148-.699-.392-.946-.707l.628-.795c.364.462.923.73 1.513.725.382.02.757-.107 1.047-.357.27-.28.41-.661.381-1.048v-.398c-.39.427-.952.66-1.532.636-.665.014-1.296-.29-1.7-.818-.475-.661-.708-1.466-.659-2.279zm1.323.112c-.028.492.099.98.363 1.397.226.331.607.524 1.009.51.499.023.965-.244 1.196-.684v-2.595c-.23-.433-.69-.694-1.181-.669-.409-.016-.796.18-1.024.52-.272.46-.399.992-.363 1.525v-.004zm6.578-2.372c.406-.487 1.011-.763 1.645-.75 1.263 0 1.903.716 1.92 2.148v3.85h-1.33v-3.798c.034-.312-.06-.625-.261-.866-.218-.184-.5-.275-.785-.253-.501-.018-.967.258-1.192.706v4.212h-1.33v-8.363h1.33l.003 3.114z"/>
        <path fill="#333" d="M12.526 123.059c.45.001.892.111 1.29.319.366.193.665.49.86.855.2.378.292.804.265 1.23l-1.035-.004c.06-.407-.06-.82-.33-1.13-.293-.28-.689-.428-1.094-.408-.444-.024-.883.097-1.252.345-.33.226-.543.585-.584.982-.072.54.263.949 1.006 1.226l.815.29.41.175c.906.285 1.498 1.156 1.428 2.104-.032.42-.19.822-.455 1.152-.284.342-.653.603-1.07.758-.462.18-.957.264-1.453.25-.476.003-.946-.106-1.372-.317-.392-.188-.72-.486-.946-.858-.218-.374-.317-.806-.284-1.238l1.032.007c-.053.413.09.828.385 1.123.339.295.78.449 1.23.427.46.026.919-.094 1.308-.342.33-.214.548-.562.598-.951v-.004c.08-.58-.223-1.004-.909-1.271l-.949-.342-.318-.138c-1.066-.483-1.564-1.162-1.495-2.037.032-.424.191-.83.456-1.163.28-.347.644-.616 1.058-.78.445-.185.924-.273 1.405-.26zm9.453 2.029c.535-.018 1.055.183 1.439.557.35.386.508.91.43 1.424l-.483 2.921-.026.417c-.007.2.016.4.067.594l-.01.093h-1.01c-.025-.102-.037-.207-.037-.312l.015-.308c-.456.464-1.08.726-1.73.728-.472.012-.93-.164-1.272-.49-.325-.314-.49-.759-.448-1.209.019-.592.326-1.137.822-1.46.607-.376 1.313-.559 2.026-.524l1.035.003.067-.468c.051-.295-.023-.598-.205-.836-.201-.217-.49-.333-.785-.316-.317-.013-.63.073-.897.245-.247.153-.42.4-.478.684l-.998.004c.032-.34.175-.662.407-.915.25-.276.563-.488.912-.62.368-.148.762-.22 1.159-.212zm-4.209-1.312l-.25 1.427h1.076l-.134.78h-1.073l-.62 3.662c-.01.086-.012.173-.004.26-.004.121.044.238.133.32.09.082.21.121.33.107.163-.004.326-.023.486-.055l-.078.821c-.236.066-.48.1-.725.1-.35.014-.684-.15-.886-.434-.21-.34-.29-.741-.228-1.134l.598-3.647h-1.047l.139-.78h1.046l.254-1.427h.983zm13.59 0l-.25 1.427h1.076l-.135.78h-1.076l-.62 3.662c-.01.086-.012.173-.004.26-.004.121.044.238.133.32.09.082.21.121.33.107.162-.004.323-.023.482-.055l-.075.821c-.236.066-.48.1-.725.1-.35.014-.683-.15-.885-.434-.21-.338-.293-.74-.232-1.134l.602-3.647h-1.047l.138-.78h1.047l.25-1.427h.991zm-3.304 1.308c.16.006.318.034.47.082l-.108.936-.463-.048c-.618-.009-1.192.319-1.499.855l-.729 4.185h-.994l1.028-5.891.957-.004-.15.684c.328-.5.888-.8 1.488-.799zm-7.565 3.442c-.313.17-.522.48-.56.833-.042.246.028.498.19.687.185.193.443.297.71.286.315.01.627-.068.9-.223.29-.163.54-.388.733-.658l.213-1.215-.747-.004c-.497-.03-.993.072-1.439.294zM27.525 23.302h-1.839v-4.698h-4.754v4.698H19.09V12.73h1.846v4.4h4.754v-4.4h1.839l-.004 10.57v.002zm3.898 0h-1.775v-7.854h1.775v7.854zm-1.883-9.895c-.008-.251.087-.495.261-.676.199-.189.467-.286.74-.268.274-.017.544.08.744.268.176.18.27.425.262.676.008.249-.087.49-.262.666-.202.185-.473.28-.748.26-.272.019-.54-.075-.74-.26-.175-.178-.27-.42-.261-.67l.004.004zm3.502 5.91c-.053-1.044.253-2.075.867-2.921.544-.713 1.399-1.12 2.295-1.093.816-.038 1.603.309 2.126.937l.079-.792h1.6v7.616c.046.915-.308 1.804-.969 2.438-.722.622-1.656.942-2.608.892-.584-.001-1.162-.124-1.697-.36-.496-.196-.93-.52-1.26-.94l.837-1.06c.487.618 1.233.975 2.019.967.507.027 1.006-.144 1.39-.476.363-.372.55-.88.512-1.398V22.6c-.523.57-1.27.881-2.044.848-.887.017-1.729-.39-2.265-1.097-.633-.88-.945-1.95-.882-3.033v-.001zm1.767.149c-.037.657.133 1.31.486 1.866.302.44.81.695 1.346.676.663.03 1.284-.326 1.592-.914v-3.457c-.307-.579-.923-.927-1.577-.892-.542-.02-1.056.241-1.36.691-.364.613-.534 1.322-.487 2.034v-.004zm8.769-3.16c.542-.651 1.35-1.02 2.197-1.003 1.685 0 2.538.955 2.56 2.866v5.133h-1.771v-5.066c.043-.417-.085-.833-.355-1.153-.29-.242-.663-.362-1.04-.334-.669-.025-1.29.342-1.591.94v5.613h-1.776V12.15h1.776v4.156zm9.994 3.212h-3.835v-1.42h3.835v1.42zm9.743.342c-.05 1.012-.502 1.961-1.255 2.639-.822.664-1.86 1.001-2.916.948-.787.016-1.562-.192-2.235-.599-.654-.409-1.174-1-1.495-1.702-.365-.806-.55-1.68-.545-2.565v-.985c-.019-.908.164-1.81.534-2.639.325-.723.857-1.334 1.529-1.754.693-.42 1.492-.633 2.302-.617 1.03-.05 2.041.29 2.833.951.748.7 1.195 1.664 1.248 2.688h-1.839c-.023-.61-.26-1.194-.669-1.647-.439-.364-1.002-.543-1.57-.502-.725-.039-1.421.29-1.853.874-.482.765-.713 1.662-.662 2.565v.936c-.058.913.157 1.822.617 2.613.4.597 1.088.94 1.809.903.585.043 1.167-.13 1.633-.486.42-.44.666-1.016.695-1.621h1.84-.001zm3.364 3.442h-1.768V12.15h1.772l-.004 11.15v.002zm1.6-4c-.011-.72.146-1.433.46-2.081.282-.59.732-1.086 1.293-1.424.58-.337 1.242-.508 1.913-.494.97-.038 1.91.333 2.594 1.022.687.737 1.07 1.706 1.076 2.714l.008.416c.012.717-.141 1.427-.449 2.074-.28.588-.727 1.08-1.285 1.416-.585.342-1.252.515-1.929.502-1.012.043-1.99-.363-2.676-1.108-.7-.819-1.062-1.875-1.009-2.951l.004-.086zm1.775.15c-.04.67.137 1.337.505 1.902.32.45.848.707 1.401.684.554.023 1.082-.24 1.398-.695.373-.614.546-1.328.497-2.044.036-.667-.143-1.328-.512-1.885-.326-.439-.84-.699-1.387-.7-.547-.003-1.063.253-1.393.689-.382.613-.56 1.331-.509 2.052v-.004.001zm11.497 1.716c.012-.294-.14-.57-.393-.72-.404-.215-.841-.363-1.293-.436-.522-.099-1.03-.26-1.514-.48-.783-.282-1.31-1.018-1.327-1.85-.003-.672.317-1.304.86-1.699.63-.472 1.403-.712 2.19-.68.821-.04 1.63.206 2.291.695.565.43.889 1.103.871 1.81h-1.771c.006-.325-.134-.636-.382-.847-.282-.234-.643-.354-1.009-.335-.336-.016-.669.077-.949.264-.238.162-.377.433-.37.721-.008.257.124.499.344.632.434.222.9.374 1.383.454.57.107 1.123.29 1.644.542.354.174.658.435.882.758.2.324.3.699.288 1.078.01.684-.322 1.327-.886 1.714-.679.465-1.491.696-2.313.658-.595.01-1.186-.11-1.73-.35-.473-.205-.882-.535-1.182-.955-.275-.384-.422-.844-.422-1.316h1.72c.004.377.18.73.478.963.338.238.745.356 1.158.335.374.026.746-.065 1.065-.26.233-.154.372-.416.367-.696zm6.764 2.279c-1.016.04-2.004-.342-2.728-1.056-.72-.755-1.1-1.772-1.05-2.814v-.219c-.013-.726.144-1.445.456-2.1.282-.592.727-1.092 1.282-1.442.551-.343 1.19-.521 1.839-.513.943-.056 1.86.32 2.493 1.022.634.83.946 1.86.878 2.9v.706h-5.158c.02.575.252 1.124.65 1.542.384.378.905.582 1.443.565.782.015 1.522-.351 1.985-.981l.957.91c-.318.47-.755.848-1.267 1.093-.555.265-1.165.397-1.78.387zm-.209-6.728c-.45-.017-.882.169-1.18.506-.327.405-.526.898-.573 1.416h3.379v-.13c-.001-.487-.169-.96-.475-1.338-.3-.311-.719-.477-1.15-.454h-.001z"/>
    </g>
</svg>
