<svg xmlns="http://www.w3.org/2000/svg" width="299" height="197"><g fill="none"><path fill="#FFF" d="M299 0v197H0V0z"/><path fill="#D6DADB" d="M297.013 1.98H1.987v193.04h295.026V1.98zM299 197H0V0h299v197z"/><g transform="translate(0 10.092)"><path fill="#F2F3F4" d="M2.94 45.856v-1.223h293.571v1.223H2.94zm0 40.897v-1.224h293.571v1.224H2.94zm0 40.893v-1.223h293.571v1.223H2.94zm0 40.858v-1.224h293.571v1.224H2.94zM37.786 24.816h1.223v161.093h-1.223V24.816zm37.161 0h1.224v161.093h-1.224V24.816zm37.123 0h1.223v161.093h-1.223V24.816zm37.16 0h1.223v161.093h-1.223V24.816zm37.122 0h1.224v161.093h-1.224V24.816zm37.123 0h1.223v161.093h-1.223V24.816zM2.94 107.18v-1.223h293.57v1.223H2.94z"/><path fill="#333" d="M248.493 30.104v28.829l48.018.001v1.144l-48.018-.001v79.264l48.018.001v1.144l-48.018-.001v25.688h-1.01v-25.688l-244.543.001v-1.144l244.543-.001V60.077L2.94 60.078v-1.144l244.543-.001V30.104h1.01z"/><path fill="#D6DADB" d="M.82 21.279v-2.447h297.812v2.447zm239.809 123.497a1.507 1.507 0 0 1 1.786-.871l.135.043 9.369 3.925a1.508 1.508 0 1 1-1.053 2.814l-.139-.045-9.343-3.915a1.506 1.506 0 0 1-.755-1.95zm1.393.576c-.008.006-.01.01-.017.009l-.015-.006 9.29 3.893c.005.002.01 0 .011-.004l.022.001-9.291-3.893zm-20.044-8.388a1.508 1.508 0 0 1 1.818-.863l.146.051 9.343 3.915a1.508 1.508 0 1 1-1.053 2.814l-.139-.045-9.327-3.906a1.508 1.508 0 0 1-.788-1.966zm1.384.572l-.002.014 9.287 3.892c.004.002.008 0 .01-.004l.022.001-9.317-3.903zm-20.01-8.373a1.51 1.51 0 0 1 1.802-.87l.135.046 9.317 3.903a1.507 1.507 0 0 1 .358 2.614 1.51 1.51 0 0 1-1.357.232l-.147-.057-9.335-3.91a1.509 1.509 0 0 1-.772-1.958zm1.395.575l-.015.01 9.326 3.907.01-.008-.007-.007-9.314-3.902zm-101.038-1.564a1.508 1.508 0 0 1 1.734-.95l.17.048 4.345 1.608 4.793-.294c.45-.045.89.114 1.206.423l.1.11.091.118a1.51 1.51 0 0 1-1.041 2.345l-5.442.338a.753.753 0 0 1-.207-.016l-.1-.03-4.826-1.789a1.507 1.507 0 0 1-.823-1.911zm31.206-.831a1.51 1.51 0 0 1 .356 2.996l-10.224.633-.12.004c-.397 0-.777-.156-1.058-.43l-.1-.11-.09-.119a1.508 1.508 0 0 1-.095-1.539c.23-.447.665-.747 1.136-.806l10.195-.629zm-29.793 1.346c-.006.007-.007.01-.015.01l4.624 1.713 5.17-.318c.01-.007.009-.01.007-.012l-5.016.306a.756.756 0 0 1-.207-.016l-.1-.03-4.463-1.653zm50.016-2.593a1.51 1.51 0 0 1 1.54 1.415 1.51 1.51 0 0 1-1.24 1.575l-.144.02-10.09.623a1.507 1.507 0 0 1-.322-2.993l.144-.017 10.112-.623zm-20.066 2.743l-10.147.621-.007.004v.009l10.148-.622.007-.008v-.004zm40.172-3.982a1.51 1.51 0 0 1 .356 2.996l-10.195.63a1.508 1.508 0 0 1-1.492-2.191c.23-.447.665-.747 1.136-.806l10.195-.629zm-20.072 2.739l-10.046.62c-.004 0-.007.003-.007.008v.008l10.054-.62c.004 0 .007-.004.007-.008a.008.008 0 0 0-.008-.008zm38.84-3.897a.758.758 0 0 1 .228.02l.109.037 1.66.695a1.508 1.508 0 1 1-1.045 2.82l-.138-.046-1.155-.485-8.16.503a1.509 1.509 0 0 1-1.497-1.138l-.027-.136-.015-.141a1.509 1.509 0 0 1 1.238-1.574l.145-.021 8.658-.534zm-18.61 2.654l-10.148.621-.007.004v.009l10.148-.622.007-.004v-.008zm-90.65-5.2a1.508 1.508 0 0 1 1.756-.946l.16.047 9.502 3.52a1.51 1.51 0 0 1 .83 1.916 1.51 1.51 0 0 1-1.767.938l-.14-.038-9.495-3.517a1.509 1.509 0 0 1-.846-1.92zm109.179 4.053l-8.455.521c-.004 0-.008.005-.007.009l8.285-.503a.754.754 0 0 1 .227.02l.109.037 1.297.544.015-.01-1.471-.618zm-107.763-3.538l-.014.01 9.436 3.494c.003-.005.004-.01.011-.008l-9.433-3.496zm-19.939-8.192a1.505 1.505 0 0 1 1.371-.28l.123.04 9.45 3.5a1.508 1.508 0 0 1 .472 2.602 1.509 1.509 0 0 1-1.348.286l-.149-.051-9.456-3.503a1.506 1.506 0 0 1-.463-2.594zm.957 1.161l-.008.001-.003.008.007.006 9.51 3.523.01-.01-.01-.006-9.506-3.522zM46.87 107.12a1.51 1.51 0 0 1 1.742-.948l.136.038 9.534 3.531a1.508 1.508 0 0 1 .824 1.912 1.51 1.51 0 0 1-1.762.94l-.142-.038-9.503-3.52a1.51 1.51 0 0 1-.83-1.915zm1.413.516c-.006.007-.007.01-.014.01l9.42 3.49h.007c.005-.007.004-.01.012-.008l-9.425-3.492zm136.46-4.87a1.512 1.512 0 0 1 1.33-.455l.146.03 8.378 1.895.975-.12a1.507 1.507 0 0 1 .493 2.966l-.143.029-1.346.167a.707.707 0 0 1-.172 0l-.086-.013-8.764-1.983a1.507 1.507 0 0 1-.81-2.516zm30.84-1.132a1.51 1.51 0 1 1 .531 2.969l-.142.022-10.025 1.243-.102.005-.072.001a1.508 1.508 0 0 1-1.414-1.05l-.036-.133-.024-.14a1.509 1.509 0 0 1 1.134-1.645l.144-.031 10.006-1.24zm-21.188 4.095l-8.552-1.936-.008.003-.002.008.01.005 8.678 1.963 1.197-.147c.002 0 .004-.002.005-.003 0-.007 0-.01.003-.013l-1.072.132a.716.716 0 0 1-.173.002l-.086-.014zM37.551 94.639a1.51 1.51 0 0 1 1.872 2.26l-.088.106-.012.012.079.073c.313.32.465.757.425 1.193l-.024.163-.037.145c-.149.48-.526.853-.979.992l-4.791 1.161 5.276 1.955c.437.14.782.467.946.884l.048.142.032.135a1.51 1.51 0 0 1-1.893 1.73l-9.585-3.549-.08-.028-.078.013a1.51 1.51 0 0 1-1.529-.88l-.05-.13-.04-.135c-.18-.74.22-1.488.94-1.766l.139-.047.849-.206 8.58-4.223zm178.26 8.482l-.01-.002-10.006 1.24c-.004 0-.007.004-.006.009l.008.007 10.013-1.243c.004-.005.003-.009.001-.01zm-184.425-1.744l-.024.006 7.455 2.762c.006-.004.007-.007.006-.01l-.002-.003-7.435-2.755zm204.247-2.229a1.51 1.51 0 1 1 .531 2.969l-.142.022-10.041 1.244a1.506 1.506 0 0 1-1.586-1.037l-.037-.136-.024-.14c-.096-.766.4-1.47 1.15-1.653l.143-.028 10.006-1.24zm-70.59-.838c.342-.362.838-.53 1.324-.457l.126.025 9.83 2.224c.54.104.98.495 1.148 1.018.169.523.04 1.097-.338 1.497a1.505 1.505 0 0 1-1.312.46l-.14-.03-9.828-2.224a1.503 1.503 0 0 1-1.031-.75l-.065-.131-.052-.139a1.507 1.507 0 0 1 .338-1.493zm70.817 2.325l-.01-.002-10.021 1.242c-.004 0-.007.005-.007.009l.003.005.005.001 10.027-1.242c.006-.007.005-.01.003-.013zm-69.717-1.299l-.008.002-.001.008.006.006 9.898 2.238.006-.006c-.001-.006-.002-.007-.01-.01l-9.89-2.238zm89.538-2.673a1.508 1.508 0 0 1 .532 2.969l-.142.02-10.045 1.246a1.51 1.51 0 0 1-1.642-1.316 1.509 1.509 0 0 1 1.148-1.65l.144-.03 10.005-1.24zm-217.46-.678l-8.66 4.26-.155.055-.9.218-.005.004v.01l-.005.003.168-.04a.75.75 0 0 1 .49.046.738.738 0 0 1 .176-.16l.09-.05 1.195-.589a.751.751 0 0 1 .473-.063l.118.033.273.1 6.852-1.66v-.012h-.014l-2.148.521c-.836.203-1.276-.911-.599-1.35l.09-.052L38.222 96c.004-.002.006-.006.004-.01l-.005-.004zm217.689 2.162l-10.03 1.242-.005.003-.003.013 10.035-1.243.003-.015zm-110.572-4.295c.342-.362.838-.53 1.324-.457l.126.025 9.83 2.224c.54.104.98.495 1.148 1.018.169.523.04 1.097-.338 1.497a1.505 1.505 0 0 1-1.312.46l-.14-.03-9.828-2.224a1.503 1.503 0 0 1-1.031-.75l-.065-.131-.052-.139a1.507 1.507 0 0 1 .338-1.493zm-97.583.454l9.787-2.372a1.509 1.509 0 0 1 .878 2.887l-9.93 2.408a1.508 1.508 0 0 1-1.242-.205l-.13-.099-.108-.101a1.51 1.51 0 0 1 .606-2.48l.14-.038zm98.683.572l-.008.002-.001.008.006.006 9.898 2.238.006-.006c-.001-.006-.002-.007-.01-.01l-9.89-2.238zm-88.474-1.5h-.014l-9.861 2.392-.002.007.005.006 9.872-2.393c.003-.007.002-.01 0-.012zm67.339-3.273a1.509 1.509 0 0 1 1.617-1.169l.14.02 9.852 2.23a1.508 1.508 0 0 1 .81 2.515c-.342.364-.84.532-1.311.46l-.14-.03-9.875-2.234a1.509 1.509 0 0 1-1.13-1.513l.012-.139.025-.14zm-69.648-4.376a1.507 1.507 0 0 1 2.215 1.445 1.506 1.506 0 0 1-.733 1.183l-.127.065-9.05 4.454a1.506 1.506 0 0 1-1.524-.08 1.507 1.507 0 0 1 .051-2.552l.128-.067 9.04-4.448zm71.119 4.7l-.006.012 9.858 2.233.007-.005c0-.007-.001-.008-.01-.01l-9.85-2.23zm-49.538-3.272a1.508 1.508 0 0 1 1.76 1.123 1.512 1.512 0 0 1-.942 1.767l-.138.046-9.78 2.371c-.44.128-.904.05-1.27-.2l-.12-.089-.11-.102a1.506 1.506 0 0 1-.363-1.5c.148-.481.526-.853.978-.993l9.985-2.423zm-20.865-.105l-.013.002-9.096 4.476v.014h.009l9.098-4.478.002-.014zm11.337 3.96l.004.013 9.82-2.382.004-.003c0-.009-.001-.011.005-.014l-9.833 2.386zm37.89-5.365a1.509 1.509 0 0 1 1.617-1.169l.14.02 9.896 2.24a1.507 1.507 0 0 1-.541 2.958l-.145-.022-9.874-2.235a1.509 1.509 0 0 1-1.13-1.513l.012-.139.025-.14zm1.47.324l-.005.012 9.818 2.224.01-.012-9.822-2.224zM96.87 82.397a1.508 1.508 0 0 1 1.76 1.123 1.512 1.512 0 0 1-.942 1.767l-.138.046-9.807 2.379a1.51 1.51 0 0 1-1.226-.216l-.128-.098-.107-.101a1.508 1.508 0 0 1 .601-2.474l.14-.04 9.847-2.386zm.305 1.47l-9.812 2.378-.002.008.005.006 9.8-2.376.004-.003c0-.009-.001-.011.005-.014zm-23.344-7.085a1.51 1.51 0 0 1 1.964.713 1.51 1.51 0 0 1-.535 1.93l-.125.075-9.055 4.455-.023.013a1.507 1.507 0 0 1-1.84-.46l-.08-.116-.069-.125a1.51 1.51 0 0 1 .546-1.939l.127-.073 9.09-4.473zm-8.413 5.812c-.004.002-.006.007-.004.01l.005.004 9.026-4.44a.004.004 0 0 0 .004-.004c-.001-.007-.004-.01.002-.014l-9.033 4.444zm120.456-8.536l5.546-2.342a1.509 1.509 0 0 1 1.333 2.708l-6.24 2.638a.74.74 0 0 1-.274.059l-.094-.004-3.808-.388a1.51 1.51 0 0 1 .135-3.014l.142.012 3.26.331zm-23.36-2.38l10.04 1.023a1.508 1.508 0 1 1-.151 3.011l-.144-.01-10.04-1.023a1.505 1.505 0 0 1-1.24-.878 1.505 1.505 0 0 1 1.4-2.132l.136.01zm29.553 1.394l-5.787 2.443a.74.74 0 0 1-.274.059l-.094-.004-3.484-.354-.004.007.003.007 3.68.375 5.963-2.52.003-.008-.006-.005zM91.945 67.865a1.508 1.508 0 0 1 1.442 2.64l-.126.073-9.063 4.461a1.508 1.508 0 0 1-1.868-.441l-.08-.118-.07-.127a1.509 1.509 0 0 1 .558-1.95l.128-.07 9.079-4.468zm80.481 6.332l-10.074-1.028-.007.003-.001.008 10.078 1.031.007-.003.001-.008-.004-.003zm-79.834-4.979l-9.064 4.461c-.004.002-.005.007-.003.01l.004.005.007-.002 9.048-4.452.001-.016.007-.006zm49.824.412l10.04 1.023a1.508 1.508 0 0 1-.152 3.011l-.144-.01-10.077-1.028-.104-.014a1.504 1.504 0 0 1-.954-.603l-.08-.122-.067-.131a1.508 1.508 0 0 1 1.404-2.135l.134.01zm-.166 1.49l-.007.004-.001.004 10.08 1.035.008-.003.001-.008-10.08-1.031zm-19.932-3.538l10.038 1.023a1.508 1.508 0 1 1-.151 3.011l-.144-.01-10.062-1.025a1.508 1.508 0 0 1 .161-3.005l.158.006zm87.757-3.75c.761-.3 1.623.062 1.942.816.3.71.015 1.523-.655 1.903l-.13.066-9.289 3.925a1.51 1.51 0 0 1-2.115-1.573c.065-.493.37-.92.794-1.138l.13-.06 9.323-3.938zm-87.896 5.243l-.005.013.003.002 10.05 1.025c.006-.005.006-.008.005-.011l-.004-.003-10.05-1.026zm-19.96-3.54l10.04 1.022a1.508 1.508 0 0 1-.152 3.011l-.144-.01-10.08-1.028a1.509 1.509 0 0 1 .166-3.001l.17.005zm108.423-.314l-9.325 3.941-.001.008.005.005.022-.008 9.288-3.924c.003-.015-.002-.017.01-.022zm-108.55 1.808c-.003.008-.003.012-.01.013l10.044 1.025.007-.003-.003-.011-10.037-1.024zm126.593-11.06c.761-.3 1.623.062 1.942.816.3.71.015 1.523-.655 1.903l-.13.066-9.276 3.918a1.51 1.51 0 0 1-2.139-1.57c.069-.498.381-.926.805-1.137l9.453-3.995zm.567 1.39l-9.335 3.943-.005.006.004.008h.003l9.322-3.936.002-.016.009-.006zm18.042-9.253c.761-.3 1.623.061 1.942.815.3.71.015 1.523-.655 1.903l-.13.066-9.32 3.939a1.509 1.509 0 1 1-1.288-2.719l.13-.066 9.32-3.938zm.567 1.388l-9.288 3.925c-.004.002-.005.006-.004.01l.01.005 9.271-3.918.003-.017.008-.005z"/><ellipse cx="247.621" cy="46.665" fill="#FFF" opacity=".6" rx="8.219" ry="8.518"/><ellipse cx="247.621" cy="98.931" fill="#FFF" opacity=".6" rx="8.219" ry="8.518"/><ellipse cx="248.631" cy="152.201" fill="#FFF" opacity=".6" rx="8.219" ry="8.518"/><ellipse cx="35.026" cy="100.824" fill="#FFF" opacity=".916" rx="8.11" ry="8.432"/><path fill="#FF444F" d="M248.632 142.46c5.225 0 9.442 4.37 9.442 9.741 0 5.371-4.217 9.742-9.442 9.742-5.225 0-9.443-4.371-9.443-9.742 0-5.37 4.218-9.741 9.443-9.741zm0 2.447c-3.854 0-6.996 3.256-6.996 7.294 0 4.039 3.142 7.295 6.996 7.295 3.853 0 6.996-3.256 6.996-7.295 0-4.038-3.143-7.294-6.996-7.294zM35.026 91.185c5.156 0 9.317 4.326 9.317 9.64 0 5.312-4.16 9.638-9.317 9.638-5.156 0-9.316-4.326-9.316-9.639s4.16-9.639 9.316-9.639zm212.595-1.996c5.226 0 9.443 4.371 9.443 9.742 0 5.37-4.217 9.742-9.443 9.742-5.225 0-9.442-4.371-9.442-9.742 0-5.37 4.217-9.742 9.442-9.742zm-212.595 4.41c-3.801 0-6.902 3.225-6.902 7.225 0 4 3.1 7.225 6.902 7.225 3.801 0 6.903-3.224 6.903-7.225 0-4-3.102-7.225-6.903-7.225zm212.595-1.963c-3.853 0-6.996 3.257-6.996 7.295s3.143 7.295 6.996 7.295c3.854 0 6.997-3.257 6.997-7.295s-3.143-7.295-6.997-7.295zm0-54.712c5.226 0 9.443 4.371 9.443 9.742 0 5.37-4.217 9.741-9.443 9.741-5.225 0-9.442-4.37-9.442-9.741 0-5.37 4.217-9.742 9.442-9.742zm0 2.447c-3.853 0-6.996 3.256-6.996 7.295 0 4.038 3.143 7.295 6.996 7.295 3.854 0 6.997-3.257 6.997-7.295 0-4.039-3.143-7.295-6.997-7.295z"/><path fill="#333" d="M20.897 7.53v3.982h-1.872V.794h4.121a4.183 4.183 0 0 1 2.867.935 3.136 3.136 0 0 1 1.06 2.473 3.03 3.03 0 0 1-1.038 2.453 4.386 4.386 0 0 1-2.911.874l-2.227.001zm0-1.495h2.25a2.225 2.225 0 0 0 1.523-.467c.366-.351.558-.845.525-1.35a1.85 1.85 0 0 0-.533-1.388 2.064 2.064 0 0 0-1.464-.535h-2.301v3.74zm12.488 4.697a2.794 2.794 0 0 1-2.249.927 2.492 2.492 0 0 1-1.971-.758 3.213 3.213 0 0 1-.67-2.194v-5.16h1.798v5.139c0 1.01.422 1.516 1.265 1.516.725.08 1.425-.29 1.767-.935v-5.72h1.798v7.965H33.43l-.044-.78h-.001zm5.822-9.121v1.936h1.415v1.326h-1.415v4.445a.977.977 0 0 0 .182.66.844.844 0 0 0 .647.202c.212 0 .423-.026.629-.074v1.384c-.385.11-.783.167-1.184.17-1.38 0-2.07-.758-2.07-2.276V4.872h-1.319V3.547h1.317V1.612l1.798-.001zm12.364 7.14a1.295 1.295 0 0 0-.5-1.09 6.011 6.011 0 0 0-1.802-.772 8.734 8.734 0 0 1-2.07-.869 2.75 2.75 0 0 1-1.473-2.4 2.607 2.607 0 0 1 1.061-2.135 4.31 4.31 0 0 1 2.756-.839 4.68 4.68 0 0 1 2.005.412 3.29 3.29 0 0 1 1.384 1.175 3 3 0 0 1 .503 1.689H51.57a1.672 1.672 0 0 0-.528-1.314 2.194 2.194 0 0 0-1.513-.474 2.293 2.293 0 0 0-1.424.39 1.293 1.293 0 0 0-.507 1.09c.003.398.209.768.547.982a6.311 6.311 0 0 0 1.805.766 8.313 8.313 0 0 1 2.02.846c.457.266.841.64 1.118 1.09.244.44.366.937.354 1.44a2.546 2.546 0 0 1-1.031 2.13 4.49 4.49 0 0 1-2.801.792 5.291 5.291 0 0 1-2.149-.431 3.609 3.609 0 0 1-1.525-1.19 2.95 2.95 0 0 1-.543-1.766h1.872c-.03.54.194 1.063.606 1.414a2.67 2.67 0 0 0 1.739.5 2.31 2.31 0 0 0 1.468-.393c.322-.25.505-.637.492-1.043h.001zm10.35-1.14a4.72 4.72 0 0 1-.843 2.948 2.937 2.937 0 0 1-4.373.24v3.776h-1.798V3.547h1.658l.073.81a2.646 2.646 0 0 1 2.154-.957 2.736 2.736 0 0 1 2.297 1.086c.602.885.894 1.945.831 3.014v.11l.001.001zm-1.79-.155a3.304 3.304 0 0 0-.477-1.892 1.555 1.555 0 0 0-1.365-.7 1.656 1.656 0 0 0-1.584.906v3.534c.296.602.926.967 1.598.928a1.55 1.55 0 0 0 1.343-.689 3.629 3.629 0 0 0 .485-2.087zm7.502-2.275a4.383 4.383 0 0 0-.733-.058 1.65 1.65 0 0 0-1.664.942v5.447h-1.799V3.547h1.718l.043.89A2.029 2.029 0 0 1 67.004 3.4c.217-.007.433.028.637.103l-.008 1.678zm4.66 6.478a3.728 3.728 0 0 1-2.77-1.07 3.875 3.875 0 0 1-1.061-2.853v-.221a4.754 4.754 0 0 1 .462-2.13c.285-.6.735-1.107 1.299-1.462a3.445 3.445 0 0 1 1.863-.523 3.15 3.15 0 0 1 2.528 1.037c.642.841.959 1.884.89 2.938v.722h-5.229c.022.583.257 1.138.662 1.56.387.383.915.591 1.461.575a2.44 2.44 0 0 0 2.013-.995l.97.92c-.322.477-.765.86-1.285 1.109a4.037 4.037 0 0 1-1.802.393h-.001zm-.214-6.825a1.517 1.517 0 0 0-1.195.517c-.331.41-.534.91-.58 1.435h3.425v-.132c0-.494-.17-.973-.481-1.358a1.507 1.507 0 0 0-1.169-.46v-.002zm9.604 6.678a2.75 2.75 0 0 1-.208-.743 3.034 3.034 0 0 1-4.07.206 2.186 2.186 0 0 1-.761-1.693 2.26 2.26 0 0 1 .95-1.955 4.624 4.624 0 0 1 2.72-.68h1.102v-.523a1.389 1.389 0 0 0-.348-.99 1.38 1.38 0 0 0-1.057-.372 1.595 1.595 0 0 0-1.007.306.943.943 0 0 0-.392.776h-1.798c.003-.447.157-.879.437-1.227.311-.395.72-.703 1.187-.893a4.193 4.193 0 0 1 1.677-.324 3.37 3.37 0 0 1 2.24.704c.57.496.886 1.222.859 1.976v3.592a4.05 4.05 0 0 0 .303 1.716v.124h-1.834zm-1.976-1.288c.35 0 .696-.088 1.003-.258.298-.157.544-.398.707-.692v-1.5h-.97a2.664 2.664 0 0 0-1.502.346 1.118 1.118 0 0 0-.503.979c-.014.31.112.611.343.82.258.214.587.323.922.306v-.001zM84.76 7.47a4.716 4.716 0 0 1 .86-2.955 2.754 2.754 0 0 1 2.3-1.116 2.62 2.62 0 0 1 2.056.884V.204h1.798v11.308h-1.628l-.088-.824a2.657 2.657 0 0 1-2.154.971c-.897.02-1.747-.4-2.275-1.126a4.89 4.89 0 0 1-.869-3.062V7.47zm1.798.155a3.302 3.302 0 0 0 .47 1.895c.295.444.801.702 1.336.68a1.696 1.696 0 0 0 1.612-.978V5.82c-.29-.613-.92-.99-1.598-.956a1.535 1.535 0 0 0-1.347.688 3.672 3.672 0 0 0-.474 2.073h.001z"/><path fill="#999" d="M259.352 98.709v-1.516h34.85v1.516h-34.85zM49.795 53.224H48.75l.65-3.716h-3.945l-.65 3.716h-1.043l1.404-8.039h1.044l-.606 3.457h3.94l.605-3.457H51.2l-1.404 8.039h-.001zm2.813 0h-1l1.044-5.974h1l-1.044 5.974zm.827-8.154a.553.553 0 0 1 .593.579.588.588 0 0 1-.593.603.54.54 0 0 1-.589-.57.623.623 0 0 1 .167-.43.589.589 0 0 1 .422-.182zm1.11 5.156c.07-.594.25-1.17.53-1.698.221-.434.555-.801.965-1.065a2.248 2.248 0 0 1 1.246-.329 1.85 1.85 0 0 1 1.576.784l.2-.668h.92l-1 5.847a2.9 2.9 0 0 1-.93 1.83 2.636 2.636 0 0 1-1.904.655 2.71 2.71 0 0 1-1.168-.287 2.216 2.216 0 0 1-.88-.757l.573-.613a1.808 1.808 0 0 0 2.65.426c.348-.312.58-.733.656-1.193l.11-.53a2.277 2.277 0 0 1-1.713.707 1.771 1.771 0 0 1-.974-.302 1.839 1.839 0 0 1-.64-.822 3.347 3.347 0 0 1-.251-1.201 6.034 6.034 0 0 1 .033-.784h.001zm.971.569c-.036.426.06.852.274 1.223.196.29.528.462.88.455a1.82 1.82 0 0 0 1.548-.877l.472-2.744A1.263 1.263 0 0 0 57.486 48a1.56 1.56 0 0 0-1.34.663 3.45 3.45 0 0 0-.619 1.85l-.011.28v.002zm6.853-2.817a2.332 2.332 0 0 1 1.814-.833c.488-.028.958.189 1.252.577.292.475.4 1.04.302 1.588l-.655 3.914h-1.004l.66-3.93c.022-.168.024-.336.006-.503a.824.824 0 0 0-.916-.79 1.851 1.851 0 0 0-1.587.96l-.744 4.263h-1.004l1.482-8.481h1.004l-.61 3.235zm7.19 5.246l1.405-8.039 2.369.005a2.702 2.702 0 0 1 1.853.553c.421.395.622.97.539 1.54a2.094 2.094 0 0 1-1.46 1.739c.352.13.642.386.813.718.18.345.257.734.22 1.121a2.345 2.345 0 0 1-.877 1.726c-.59.445-1.317.67-2.055.637h-2.807zm1.698-3.76l-.505 2.894 1.648.005c.456.015.904-.127 1.266-.402.34-.267.554-.66.594-1.089a1.29 1.29 0 0 0-.228-1.015 1.24 1.24 0 0 0-.96-.387l-1.815-.005v-.001zm.15-.85l1.505.006c.425.013.843-.113 1.19-.36.32-.234.527-.593.568-.988a1.003 1.003 0 0 0-.23-.884 1.483 1.483 0 0 0-1.001-.325l-1.587-.005-.445 2.556zm8.59 4.61a1.288 1.288 0 0 1-.039-.315l.016-.314c-.46.47-1.092.737-1.752.74a1.8 1.8 0 0 1-1.291-.5 1.51 1.51 0 0 1-.452-1.223c.019-.6.33-1.154.836-1.483a3.577 3.577 0 0 1 2.05-.532l1.048.005.066-.475a1.085 1.085 0 0 0-.208-.847 1.004 1.004 0 0 0-.79-.323 1.555 1.555 0 0 0-.913.252 1.07 1.07 0 0 0-.485.692l-1.01.005c.032-.346.176-.672.41-.93.255-.28.573-.496.927-.629.372-.148.77-.22 1.171-.213a1.997 1.997 0 0 1 1.46.566c.356.391.517.922.438 1.444l-.488 2.96-.029.424a2.08 2.08 0 0 0 .067.603l-.01.093h-1.022zm-1.576-.773c.32.008.635-.071.913-.23.293-.165.545-.392.74-.664l.218-1.232-.761-.005a2.885 2.885 0 0 0-1.455.298c-.317.17-.53.486-.57.844a.852.852 0 0 0 .197.7.942.942 0 0 0 .718.29v-.001zm7.691-4.29l-.472-.05a1.719 1.719 0 0 0-1.52.867l-.737 4.246h-1.005l1.043-5.974.97-.005-.149.695c.331-.506.897-.81 1.503-.81.162.005.323.033.478.081l-.111.95zm3.784 0l-.472-.05a1.719 1.719 0 0 0-1.52.867l-.737 4.246H86.16l1.044-5.974.97-.005-.149.695a1.8 1.8 0 0 1 1.504-.81c.162.006.322.033.477.081l-.111.95h.001zm1.137 5.063h-.998l1.043-5.974h1l-1.045 5.974zm.828-8.154a.548.548 0 0 1 .594.579.589.589 0 0 1-.594.603.54.54 0 0 1-.589-.57.622.622 0 0 1 .166-.43.587.587 0 0 1 .423-.182zm3.412 8.265a2.17 2.17 0 0 1-1.754-.824 2.823 2.823 0 0 1-.532-2.048l.027-.237a3.96 3.96 0 0 1 .53-1.623c.255-.453.62-.833 1.063-1.107.408-.246.878-.37 1.354-.356.55-.014 1.08.21 1.454.613.372.45.576 1.016.576 1.6.012.24.005.48-.021.718l-.06.458h-3.924c-.08.478.016.968.269 1.381.238.375.655.599 1.1.59A2.14 2.14 0 0 0 97 51.706l.576.486c-.249.358-.583.65-.973.847-.412.208-.869.31-1.33.296zm.638-5.362a1.472 1.472 0 0 0-1.085.42 2.99 2.99 0 0 0-.735 1.297l2.92.006.02-.088a1.62 1.62 0 0 0-.224-1.156 1.056 1.056 0 0 0-.896-.479zm6.392.188l-.471-.05a1.719 1.719 0 0 0-1.52.867l-.738 4.246H98.57l1.043-5.974.971-.005-.15.695c.332-.506.897-.81 1.504-.81.162.005.323.033.478.081l-.112.95h-.001zm163.767-1.066a1.054 1.054 0 0 0-.239-.828 2.381 2.381 0 0 0-.996-.621 4.094 4.094 0 0 1-1.118-.606 1.95 1.95 0 0 1-.743-1.75 2.25 2.25 0 0 1 .656-1.499c.43-.41.987-.664 1.58-.72l.216-1.209h.81l-.222 1.225c.51.082.958.384 1.223.826.286.527.397 1.131.32 1.725h-.993a2.052 2.052 0 0 0-.243-1.245.981.981 0 0 0-.84-.45 1.415 1.415 0 0 0-1.508 1.325c-.04.29.034.583.208.818.277.298.628.52 1.018.643.415.15.804.362 1.153.63.25.2.447.46.575.753.124.308.173.641.142.972a2.21 2.21 0 0 1-.707 1.524 2.862 2.862 0 0 1-1.685.69l-.19 1.054h-.803l.194-1.065a1.961 1.961 0 0 1-1.376-.779 2.524 2.524 0 0 1-.405-1.673h1.004c-.06.403.034.815.263 1.153.236.297.6.462.98.443.423.022.84-.104 1.18-.356.31-.237.509-.592.546-.98zm4.422 2.22a1.826 1.826 0 0 1-1.531-.721 3.18 3.18 0 0 1-.466-2.013c.007-.272.027-.541.06-.806l.2-1.342c.09-.932.442-1.82 1.016-2.562a2.433 2.433 0 0 1 1.976-.817 1.851 1.851 0 0 1 1.539.704c.374.59.539 1.286.469 1.98a9.17 9.17 0 0 1-.067.811l-.194 1.298a5.266 5.266 0 0 1-1.037 2.655c-.494.56-1.22.86-1.965.812v.001zm2.225-4.948c.045-.344.07-.69.072-1.038-.018-.935-.382-1.415-1.093-1.44a1.463 1.463 0 0 0-1.257.57c-.38.56-.61 1.206-.668 1.88l-.239 1.602a8.27 8.27 0 0 0-.072 1.043c.018.975.381 1.476 1.088 1.502.47.032.927-.17 1.218-.54a3.817 3.817 0 0 0 .685-1.823l.266-1.756zM265.892 153.2h-3.285l-.621 3.55h-1.044l1.404-8.04h4.861l-.156.873h-3.818l-.477 2.75h3.291l-.155.867zm4.856 2.959a2.321 2.321 0 0 1-1.793.701c-.501.02-.979-.21-1.273-.613a2.335 2.335 0 0 1-.308-1.612l.643-3.86h1.004l-.65 3.877a2.588 2.588 0 0 0-.01.474c.005.23.09.45.239.623a.813.813 0 0 0 .588.244 1.806 1.806 0 0 0 1.665-.867l.754-4.35h1.004l-1.042 5.974h-.95l.129-.591zm3.406.59h-.998l1.474-8.48h1.006l-1.482 8.48zm2.73 0h-.999l1.476-8.48h1.005l-1.482 8.48zm-10.659 10.108a4.724 4.724 0 0 1-.495 1.64c-.214.44-.542.815-.948 1.09-.373.24-.81.36-1.254.344a2.004 2.004 0 0 1-1.598-.7l-.538 2.882h-1.004l1.442-8.271.91-.005-.11.668c.447-.51 1.1-.794 1.78-.774a1.678 1.678 0 0 1 1.348.635c.35.494.53 1.086.512 1.69a6.01 6.01 0 0 1-.029.684l-.016.117zm-.988-.117l.028-.463a2.094 2.094 0 0 0-.309-1.234 1.085 1.085 0 0 0-.89-.45c-.61 0-1.177.31-1.504.823l-.505 2.864c.187.504.676.834 1.216.818.492.014.963-.201 1.272-.583.397-.513.637-1.13.692-1.775zm5.465 3.076a1.337 1.337 0 0 1-.038-.315l.017-.314a2.468 2.468 0 0 1-1.754.74 1.797 1.797 0 0 1-1.29-.5 1.51 1.51 0 0 1-.452-1.223c.018-.6.33-1.154.835-1.483a3.568 3.568 0 0 1 2.05-.533l1.05.005.065-.474a1.085 1.085 0 0 0-.208-.847 1.004 1.004 0 0 0-.79-.323 1.554 1.554 0 0 0-.913.251c-.25.155-.425.405-.485.693l-1.01.005c.032-.346.175-.672.41-.93.255-.28.573-.496.927-.629.372-.148.77-.22 1.17-.213a1.997 1.997 0 0 1 1.46.566c.357.391.518.922.438 1.444l-.488 2.96-.028.424c-.008.203.015.406.066.602l-.01.094h-1.022zm-1.576-.773c.32.008.636-.071.913-.23.293-.164.545-.392.74-.665l.218-1.23-.76-.006a2.885 2.885 0 0 0-1.455.298c-.318.17-.53.486-.57.844-.043.25.03.507.196.7.187.196.45.3.72.289h-.002zm6.11-.734l2.136-4.467h1.11l-3.563 6.968a2.153 2.153 0 0 1-1.909 1.435 3.255 3.255 0 0 1-.604-.1l.09-.828.26.029c.29.021.58-.054.824-.213.265-.198.476-.46.613-.76l.36-.684-1.037-5.847h1.049l.672 4.467h-.001zm6.453-4.577c.464-.005.917.138 1.293.408.369.279.646.66.796 1.096.175.489.235 1.012.175 1.527l-.01.121a4.007 4.007 0 0 1-.522 1.576c-.26.45-.63.828-1.077 1.096-.437.26-.94.39-1.449.37a2.177 2.177 0 0 1-1.29-.409 2.276 2.276 0 0 1-.79-1.081 3.463 3.463 0 0 1-.177-1.508 4.063 4.063 0 0 1 .505-1.667c.257-.468.63-.863 1.085-1.146.438-.27.947-.403 1.461-.383zm-2.041 3.202a3.37 3.37 0 0 0 0 .724c.015.378.152.742.39 1.037.226.258.553.405.897.402a1.6 1.6 0 0 0 .921-.245c.302-.197.547-.47.71-.792.196-.366.322-.764.372-1.176.028-.284.034-.57.016-.855a1.83 1.83 0 0 0-.404-1.056 1.202 1.202 0 0 0-.9-.408 1.64 1.64 0 0 0-1.32.607 2.994 2.994 0 0 0-.671 1.635l-.011.127zm8.86 2.292a2.323 2.323 0 0 1-1.791.7c-.5.02-.977-.21-1.273-.613a2.336 2.336 0 0 1-.31-1.612l.645-3.86h1.004l-.65 3.877a2.6 2.6 0 0 0-.01.475c.005.229.09.449.238.623a.818.818 0 0 0 .59.243 1.806 1.806 0 0 0 1.664-.866l.754-4.351h1.004l-1.043 5.974h-.95l.129-.59h-.001zm4.973-6.83l-.256 1.447h1.093l-.138.789h-1.087l-.628 3.715a1.313 1.313 0 0 0-.006.266.42.42 0 0 0 .472.43c.164-.004.328-.023.489-.055l-.078.834a2.783 2.783 0 0 1-.732.098 1.051 1.051 0 0 1-.9-.438 1.694 1.694 0 0 1-.232-1.152l.61-3.698h-1.06l.138-.79h1.061l.255-1.447h.999v.001zM260.96 90.281l-.55 3.147h-1.043l1.404-8.039 2.697.005a2.645 2.645 0 0 1 1.926.66c.459.46.674 1.11.582 1.754a2.496 2.496 0 0 1-.924 1.816c-.624.466-1.392.7-2.171.663l-1.92-.006h-.001zm.15-.867l1.798.006c.5.02.991-.13 1.393-.425.366-.29.597-.718.637-1.182a1.329 1.329 0 0 0-.283-1.101 1.426 1.426 0 0 0-1.081-.445l-1.915-.005-.55 3.152h.001zm8.784 4.014a1.281 1.281 0 0 1-.04-.314l.018-.315a2.468 2.468 0 0 1-1.754.74 1.797 1.797 0 0 1-1.29-.5 1.51 1.51 0 0 1-.452-1.223c.018-.6.33-1.154.835-1.483a3.577 3.577 0 0 1 2.05-.532l1.05.005.066-.475a1.085 1.085 0 0 0-.208-.847 1.006 1.006 0 0 0-.791-.323 1.555 1.555 0 0 0-.913.252 1.07 1.07 0 0 0-.485.692l-1.01.005c.031-.346.175-.672.41-.93.255-.28.573-.496.927-.629.372-.148.77-.22 1.17-.213a1.997 1.997 0 0 1 1.46.566c.357.391.518.922.438 1.444l-.488 2.96-.028.425c-.008.202.015.405.066.602l-.01.093h-1.021zm-1.576-.773c.32.008.635-.071.912-.229.293-.165.546-.392.742-.665l.216-1.232-.76-.005a2.891 2.891 0 0 0-1.454.298c-.318.17-.532.486-.572.844-.042.25.03.507.197.7.187.196.45.302.72.29l-.001-.001zm6.11-.734l2.135-4.467h1.11l-3.563 6.968a2.153 2.153 0 0 1-1.909 1.435 3.255 3.255 0 0 1-.604-.1l.089-.827.26.028c.291.022.581-.053.825-.213.265-.198.476-.459.613-.76l.36-.684-1.037-5.847h1.049l.671 4.467h.001zm6.452-4.577c.464-.005.917.138 1.293.408.369.279.646.66.796 1.096.175.49.235 1.012.175 1.528l-.01.12a4.007 4.007 0 0 1-.522 1.576c-.26.45-.63.828-1.077 1.096-.436.26-.94.39-1.448.37a2.172 2.172 0 0 1-1.29-.408 2.268 2.268 0 0 1-.79-1.082 3.479 3.479 0 0 1-.178-1.508 4.063 4.063 0 0 1 .505-1.667c.257-.468.63-.863 1.085-1.146a2.61 2.61 0 0 1 1.461-.383zm-2.041 3.202a3.37 3.37 0 0 0 0 .724c.015.379.152.742.39 1.037.226.258.553.405.897.402.325.014.646-.072.92-.245.303-.198.548-.47.711-.792.196-.365.322-.764.372-1.176.029-.284.035-.57.017-.855a1.826 1.826 0 0 0-.405-1.055 1.203 1.203 0 0 0-.9-.409c-.51-.014-.999.21-1.32.608a2.991 2.991 0 0 0-.671 1.634l-.011.127zm8.86 2.292a2.323 2.323 0 0 1-1.791.7c-.5.021-.978-.208-1.273-.612a2.333 2.333 0 0 1-.31-1.613l.645-3.86h1.004l-.65 3.877a2.6 2.6 0 0 0-.01.475c.005.229.089.45.238.623a.818.818 0 0 0 .589.243 1.806 1.806 0 0 0 1.665-.866l.754-4.351h1.004l-1.043 5.974h-.95l.129-.59h-.001zm4.973-6.83l-.256 1.447h1.094l-.14.789h-1.086l-.628 3.716a1.305 1.305 0 0 0-.006.265.42.42 0 0 0 .472.43c.164-.004.328-.023.489-.055l-.078.834c-.238.066-.485.1-.732.099a1.05 1.05 0 0 1-.9-.439 1.692 1.692 0 0 1-.233-1.151l.61-3.7h-1.06l.14-.79h1.06l.254-1.446h1v.001zm-14.254 24.507h-5.142l.121-.78 2.98-2.88.544-.536a3.163 3.163 0 0 0 1.038-1.723 1.273 1.273 0 0 0-.239-.991 1.125 1.125 0 0 0-.876-.405 1.663 1.663 0 0 0-1.215.422c-.339.321-.55.754-.594 1.217l-.993.006c.039-.468.196-.92.457-1.312a2.55 2.55 0 0 1 1.015-.878 2.927 2.927 0 0 1 1.368-.29 2.247 2.247 0 0 1 1.596.606c.397.396.585.955.507 1.51a3.847 3.847 0 0 1-1.226 2.23l-.51.513-2.597 2.458h3.9l-.134.833zM44.961 152.868h3.718l-.155.866h-4.76l1.403-8.039h1.049l-1.255 7.173zm7.97-5.218c.463-.005.916.138 1.292.408.369.279.646.66.796 1.096.175.49.235 1.012.175 1.528l-.011.12a4.007 4.007 0 0 1-.522 1.576c-.259.45-.63.828-1.076 1.096-.437.26-.94.39-1.449.37a2.172 2.172 0 0 1-1.29-.408 2.268 2.268 0 0 1-.79-1.082 3.476 3.476 0 0 1-.178-1.507 4.054 4.054 0 0 1 .506-1.668c.256-.468.63-.862 1.083-1.146.439-.27.948-.402 1.463-.383h.001zm-2.043 3.203a3.36 3.36 0 0 0 0 .723c.015.379.153.742.392 1.038.225.257.552.404.895.402.325.013.647-.073.922-.246.302-.197.547-.47.71-.792.196-.365.322-.764.372-1.176.028-.284.034-.57.016-.855a1.834 1.834 0 0 0-.404-1.055 1.202 1.202 0 0 0-.9-.408 1.64 1.64 0 0 0-1.32.607 2.993 2.993 0 0 0-.672 1.634l-.011.128zm10.437 1.467l1.915-4.56h1.037l-2.736 5.974h-.815l-.622-4.516-2.163 4.516h-.815l-.65-5.974h.96l.367 4.45 2.131-4.45h.81l.581 4.56zm5.893 1.414l1.405-8.039 2.368.005a2.706 2.706 0 0 1 1.854.553c.42.396.622.97.538 1.54a2.094 2.094 0 0 1-1.46 1.739 1.5 1.5 0 0 1 .814.719c.18.344.257.733.219 1.12a2.345 2.345 0 0 1-.877 1.726c-.59.445-1.315.67-2.053.637h-2.808zm1.697-3.759l-.505 2.893 1.649.005c.456.016.903-.127 1.266-.402.339-.266.553-.66.593-1.089a1.29 1.29 0 0 0-.228-1.015 1.24 1.24 0 0 0-.96-.387l-1.815-.005zm.151-.851l1.504.006c.425.013.843-.113 1.19-.359.321-.235.528-.594.569-.989a1 1 0 0 0-.23-.883 1.482 1.482 0 0 0-1.003-.326l-1.586-.005-.444 2.556zm8.59 4.61a1.281 1.281 0 0 1-.04-.314l.017-.315a2.474 2.474 0 0 1-1.753.74 1.797 1.797 0 0 1-1.29-.5 1.51 1.51 0 0 1-.452-1.223c.018-.6.33-1.153.834-1.482a3.568 3.568 0 0 1 2.05-.533l1.05.005.066-.475a1.085 1.085 0 0 0-.208-.847 1.006 1.006 0 0 0-.791-.323 1.55 1.55 0 0 0-.912.252 1.07 1.07 0 0 0-.485.692l-1.01.005c.032-.346.175-.672.41-.93a2.39 2.39 0 0 1 .926-.629c.373-.148.771-.22 1.172-.213a1.993 1.993 0 0 1 1.459.566c.357.391.518.922.438 1.445l-.488 2.959-.028.425c-.008.203.015.406.067.602l-.01.093h-1.023.001zm-1.577-.773c.32.008.636-.071.914-.229a2.3 2.3 0 0 0 .74-.665l.216-1.231-.76-.006a2.891 2.891 0 0 0-1.454.298c-.318.172-.53.487-.57.844-.042.25.03.508.196.7a.942.942 0 0 0 .718.29v-.001zm7.692-4.29l-.472-.05a1.718 1.718 0 0 0-1.52.868l-.738 4.245h-1.005l1.044-5.974.97-.005-.15.695a1.8 1.8 0 0 1 1.504-.81c.162.006.323.033.478.082l-.111.95v-.001zm3.783 0l-.471-.05a1.718 1.718 0 0 0-1.52.868l-.738 4.245H83.82l1.043-5.974.971-.005-.15.695a1.797 1.797 0 0 1 1.505-.81 1.8 1.8 0 0 1 .477.082l-.112.95v-.001zm1.138 5.063h-1l1.044-5.974h1l-1.044 5.974zm.827-8.154a.553.553 0 0 1 .593.579.588.588 0 0 1-.593.603.54.54 0 0 1-.589-.57.623.623 0 0 1 .167-.43.589.589 0 0 1 .422-.182zm3.412 8.265a2.172 2.172 0 0 1-1.753-.823 2.822 2.822 0 0 1-.533-2.049l.028-.237a3.96 3.96 0 0 1 .53-1.623c.255-.453.62-.833 1.063-1.107.408-.246.877-.37 1.353-.357.55-.015 1.08.209 1.455.613.372.452.576 1.018.576 1.602.011.239.004.479-.022.717l-.06.459h-3.923c-.08.477.015.967.268 1.38.238.375.656.599 1.101.59a2.14 2.14 0 0 0 1.643-.793l.578.485c-.25.358-.584.65-.974.847-.412.208-.869.31-1.33.296zm.639-5.361a1.472 1.472 0 0 0-1.085.419c-.352.363-.605.81-.735 1.297l2.919.006.021-.088a1.63 1.63 0 0 0-.224-1.156 1.057 1.057 0 0 0-.896-.478zm6.392.188l-.472-.05a1.719 1.719 0 0 0-1.52.867l-.737 4.245h-1.006l1.044-5.974.97-.005-.149.695c.331-.505.897-.81 1.503-.81.162.006.323.033.478.082l-.111.95z"/><path fill="#333" d="M246.735 170.382v8.48h-1.22l-.067-.618a1.99 1.99 0 0 1-1.616.728c-.673.015-1.31-.3-1.706-.844a3.671 3.671 0 0 1-.651-2.298c-.04-.79.187-1.57.643-2.216a2.066 2.066 0 0 1 1.726-.836 1.965 1.965 0 0 1 1.542.662v-3.058h1.349zm-12.38.441v1.126h-3.84v2.22h3.32v1.105h-3.319v2.472h3.879v1.116h-5.283v-8.039h5.243zm4.089 1.955c1.251 0 1.887.712 1.91 2.136v3.948h-1.349v-3.87a1.225 1.225 0 0 0-.246-.842 1.043 1.043 0 0 0-.809-.274 1.3 1.3 0 0 0-1.214.734v4.252h-1.348v-5.975h1.271l.038.691a2.165 2.165 0 0 1 1.747-.8zm5.744 1.098a1.153 1.153 0 0 0-1.01.516 2.76 2.76 0 0 0-.355 1.555c-.028.498.094.993.352 1.421.22.334.601.527 1.002.51.515.023.993-.267 1.21-.733v-2.55a1.255 1.255 0 0 0-1.199-.719zM8.574 119.452a3.495 3.495 0 0 1 1.504.31c.422.19.782.496 1.038.88.25.375.381.816.377 1.267h-1.399c.02-.37-.124-.731-.396-.985a1.644 1.644 0 0 0-1.135-.356 1.716 1.716 0 0 0-1.068.291.974.974 0 0 0-.38.818c.002.3.157.577.41.737.419.26.876.454 1.354.574.53.144 1.04.358 1.515.635.343.2.631.48.839.818.183.33.274.702.265 1.079a1.91 1.91 0 0 1-.773 1.598 3.37 3.37 0 0 1-2.101.593 3.969 3.969 0 0 1-1.612-.322 2.707 2.707 0 0 1-1.143-.892 2.22 2.22 0 0 1-.408-1.325h1.404c-.023.405.145.797.454 1.06.378.274.84.407 1.306.376.39.028.778-.077 1.1-.296a.95.95 0 0 0 .37-.78l-.001-.001a.968.968 0 0 0-.373-.817 4.515 4.515 0 0 0-1.352-.58 6.584 6.584 0 0 1-1.554-.651 2.063 2.063 0 0 1-1.104-1.8 1.956 1.956 0 0 1 .796-1.602 3.24 3.24 0 0 1 2.067-.629zm11.897 2.592c.428.373.665.918.644 1.483v2.694c-.019.44.059.879.227 1.286v.095h-1.376a2.05 2.05 0 0 1-.155-.558 2.276 2.276 0 0 1-3.052.155 1.638 1.638 0 0 1-.572-1.27c-.029-.578.24-1.13.714-1.466a3.464 3.464 0 0 1 2.038-.511h.827v-.392a1.043 1.043 0 0 0-.26-.743 1.038 1.038 0 0 0-.794-.278c-.27-.012-.537.07-.755.229a.707.707 0 0 0-.294.583h-1.348c.002-.334.117-.658.327-.92.234-.297.54-.528.89-.671a3.136 3.136 0 0 1 1.258-.242 2.528 2.528 0 0 1 1.681.526zm-6.182-1.868v1.451h1.061v.995h-1.06v3.334a.73.73 0 0 0 .136.495c.133.115.309.17.485.15.158 0 .317-.018.471-.054v1.037a3.338 3.338 0 0 1-.888.128c-1.035 0-1.553-.569-1.553-1.707v-3.384h-.987v-.994h.987v-1.451h1.348zm13.922 0v1.451h1.06v.995h-1.06v3.334a.73.73 0 0 0 .136.495c.134.115.31.17.485.15.16 0 .318-.018.473-.054v1.037c-.29.083-.588.126-.889.128-1.035 0-1.552-.569-1.552-1.707v-3.384h-.988v-.994h.988v-1.451h1.347zm-3.013 1.342c.163-.006.325.02.478.076l-.005 1.259-.182-.025a3.228 3.228 0 0 0-.368-.019 1.238 1.238 0 0 0-1.248.707v4.086h-1.349v-5.975h1.287l.033.669c.273-.49.794-.788 1.354-.778zm-7.285 3.539a.841.841 0 0 0-.377.733c-.01.234.084.46.258.617.193.16.44.241.69.229.264 0 .522-.067.752-.194.224-.118.408-.298.53-.519v-1.126h-.727a1.995 1.995 0 0 0-1.126.26z"/></g></g></svg>