<svg xmlns="http://www.w3.org/2000/svg" width="299" height="197" viewBox="0 0 299 197">
    <g fill="none">
        <path fill="#FFF" d="M299 0L299 197 0 197 0 0z"/>
        <path fill="#D6DADB" d="M297.013 1.98H1.987v193.04h295.026V1.98zM299 197H0V0h299v197z"/>
        <g transform="translate(0 10.092)">
            <path fill="#F2F3F4" d="M2.94 45.856v-1.223h293.571v1.223H2.94zm0 40.897v-1.224h293.571v1.224H2.94zm0 40.893v-1.223h293.571v1.223H2.94zm0 40.858v-1.224h293.571v1.224H2.94zM37.786 24.816h1.223v161.093h-1.223V24.816zm37.161 0h1.224v161.093h-1.224V24.816zm37.123 0h1.223v161.093h-1.223V24.816zm37.16 0h1.223v161.093h-1.223V24.816zm37.122 0h1.224v161.093h-1.224V24.816zm37.123 0h1.223v161.093h-1.223V24.816zM2.94 107.18v-1.223h293.57v1.223H2.94z"/>
            <path fill="#333" d="M248.493 30.104v28.829l48.018.001v1.144l-48.018-.001v79.264l48.018.001v1.144l-48.018-.001v25.688h-1.01v-25.688l-244.543.001v-1.144l244.543-.001V60.077L2.94 60.078v-1.144l244.543-.001V30.104h1.01z"/>
            <path fill="#D6DADB" d="M.82 21.279L.82 18.832 298.632 18.832 298.632 21.279zM240.629 144.776c.295-.703 1.064-1.069 1.786-.871l.135.043 9.369 3.925c.735.342 1.069 1.203.755 1.951-.295.704-1.064 1.07-1.808.863l-.139-.045-9.343-3.915c-.735-.341-1.07-1.203-.755-1.95zm1.393.576c-.008.006-.01.01-.017.009l-.015-.006 9.29 3.893c.005.002.01 0 .011-.004l.022.001-9.291-3.893zm-20.044-8.388c.3-.715 1.089-1.08 1.818-.863l.146.051 9.343 3.915c.735.342 1.069 1.203.755 1.951-.295.704-1.064 1.07-1.808.863l-.139-.045-9.327-3.906c-.756-.33-1.107-1.205-.788-1.966zm1.384.572l-.002.014 9.287 3.892c.004.002.008 0 .01-.004l.022.001-9.317-3.903zm-20.01-8.373c.298-.71 1.076-1.075 1.802-.87l.135.046 9.317 3.903c.511.198.875.658.949 1.201.074.544-.152 1.084-.591 1.413-.395.295-.907.377-1.357.232l-.147-.057-9.335-3.91c-.745-.336-1.088-1.204-.772-1.958zm1.395.575l-.015.01 9.326 3.907.01-.008-.007-.007-9.314-3.902zm-101.038-1.564c.263-.71 1.007-1.109 1.734-.95l.17.048 4.345 1.608 4.793-.294c.45-.045.89.114 1.206.423l.1.11.091.118c.311.457.348 1.048.095 1.54-.23.446-.665.746-1.136.805l-5.442.338c-.07.004-.14-.001-.207-.016l-.1-.03-4.826-1.789c-.74-.315-1.103-1.156-.823-1.911zm31.206-.831c.55-.055 1.086.195 1.397.651.311.457.348 1.048.095 1.54-.23.446-.665.746-1.136.805l-10.224.633-.12.004c-.397 0-.777-.156-1.058-.43l-.1-.11-.09-.119c-.311-.457-.348-1.047-.095-1.539.23-.447.665-.747 1.136-.806l10.195-.629zm-29.793 1.346c-.006.007-.007.01-.015.01l4.624 1.713 5.17-.318c.01-.007.009-.01.007-.012l-5.016.306c-.07.004-.139-.001-.207-.016l-.1-.03-4.463-1.653zm50.016-2.593c.81-.018 1.49.607 1.54 1.415.046.761-.48 1.43-1.24 1.575l-.144.02-10.09.623c-.825.043-1.531-.587-1.582-1.412-.049-.777.5-1.454 1.26-1.581l.144-.017 10.112-.623zm-20.066 2.743l-10.147.621-.007.004v.009l10.148-.622.007-.008v-.004zm40.172-3.982c.55-.055 1.086.195 1.397.651.311.457.348 1.048.095 1.54-.23.446-.665.746-1.136.805l-10.195.63c-.55.055-1.086-.195-1.397-.652-.311-.457-.348-1.047-.095-1.539.23-.447.665-.747 1.136-.806l10.195-.629zm-20.072 2.739l-10.046.62c-.004 0-.007.003-.007.008v.008l10.054-.62c.004 0 .007-.004.007-.008 0-.005-.004-.008-.008-.008zm38.84-3.897c.077-.005.154.002.228.02l.109.037 1.66.695c.745.336 1.087 1.204.772 1.958-.297.71-1.075 1.075-1.817.862l-.138-.046-1.155-.485-8.16.503c-.715.016-1.328-.468-1.497-1.138l-.027-.136-.015-.141c-.047-.761.48-1.429 1.238-1.574l.145-.021 8.658-.534zm-18.61 2.654l-10.148.621-.007.004v.009l10.148-.622.007-.004v-.008zm-90.65-5.2c.266-.719 1.024-1.117 1.756-.946l.16.047 9.502 3.52c.745.314 1.111 1.158.83 1.916-.265.713-1.014 1.11-1.767.938l-.14-.038-9.495-3.517c-.754-.307-1.128-1.157-.846-1.92zm109.179 4.053l-8.455.521c-.004 0-.008.005-.007.009l8.285-.503c.076-.005.153.002.227.02l.109.037 1.297.544.015-.01-1.471-.618zm-107.763-3.538l-.014.01 9.436 3.494c.003-.005.004-.01.011-.008l-9.433-3.496zm-19.939-8.192c.386-.315.899-.417 1.371-.28l.123.04 9.45 3.5c.522.175.907.62 1.005 1.162.099.541-.106 1.093-.533 1.44-.384.312-.894.413-1.348.286l-.149-.051-9.456-3.503c-.518-.178-.898-.622-.994-1.16-.096-.54.107-1.088.531-1.434zm.957 1.161l-.008.001-.003.008.007.006 9.51 3.523.01-.01-.01-.006-9.506-3.522zM46.87 107.12c.264-.713 1.014-1.11 1.742-.948l.136.038 9.534 3.531c.741.315 1.104 1.157.824 1.912-.263.71-1.008 1.108-1.762.94l-.142-.038-9.503-3.52c-.745-.313-1.11-1.158-.83-1.915zm1.413.516c-.006.007-.007.01-.014.01l9.42 3.49h.007c.005-.007.004-.01.012-.008l-9.425-3.492zm136.46-4.87c.344-.363.842-.531 1.33-.455l.146.03 8.378 1.895.975-.12c.813-.079 1.541.505 1.641 1.316.095.763-.4 1.466-1.148 1.65l-.143.029-1.346.167c-.057.007-.115.007-.172 0l-.086-.013-8.764-1.983c-.54-.105-.98-.495-1.148-1.018-.17-.524-.04-1.098.338-1.498zm30.84-1.132c.541-.08 1.083.14 1.417.573.333.434.405 1.015.188 1.517-.197.457-.605.784-1.074.879l-.142.022-10.025 1.243-.102.005-.072.001c-.652-.009-1.22-.438-1.414-1.05l-.036-.133-.024-.14c-.093-.753.387-1.45 1.134-1.645l.144-.031 10.006-1.24zm-21.188 4.095l-8.552-1.936-.008.003-.002.008.01.005 8.678 1.963 1.197-.147c.002 0 .004-.002.005-.003 0-.007 0-.01.003-.013l-1.072.132c-.058.008-.116.008-.173.002l-.086-.014zM37.551 94.639c.748-.368 1.652-.06 2.02.687.26.527.183 1.133-.148 1.573l-.088.106-.012.012.079.073c.313.32.465.757.425 1.193l-.024.163-.037.145c-.149.48-.526.853-.979.992l-4.791 1.161 5.276 1.955c.437.14.782.467.946.884l.048.142.032.135c.102.546-.105 1.104-.538 1.453-.39.313-.907.41-1.355.277l-9.585-3.549-.08-.028-.078.013c-.65.067-1.265-.294-1.529-.88l-.05-.13-.04-.135c-.18-.74.22-1.488.94-1.766l.139-.047.849-.206 8.58-4.223zm178.26 8.482l-.01-.002-10.006 1.24c-.004 0-.007.004-.006.009l.008.007 10.013-1.243c.004-.005.003-.009.001-.01zm-184.425-1.744l-.024.006 7.455 2.762c.006-.004.007-.007.006-.01l-.002-.003-7.435-2.755zm204.247-2.229c.541-.08 1.083.14 1.417.573.333.434.405 1.015.188 1.517-.197.457-.605.784-1.074.879l-.142.022-10.041 1.244c-.72.073-1.373-.373-1.586-1.037l-.037-.136-.024-.14c-.096-.766.4-1.47 1.15-1.653l.143-.028 10.006-1.24zm-70.59-.838c.342-.362.838-.53 1.324-.457l.126.025 9.83 2.224c.54.104.98.495 1.148 1.018.169.523.04 1.097-.338 1.497-.343.364-.841.532-1.312.46l-.14-.03-9.828-2.224c-.446-.088-.82-.365-1.031-.75l-.065-.131-.052-.139c-.167-.522-.038-1.094.338-1.493zm70.817 2.325l-.01-.002-10.021 1.242c-.004 0-.007.005-.007.009l.003.005.005.001 10.027-1.242c.006-.007.005-.01.003-.013zm-69.717-1.299l-.008.002-.001.008.006.006 9.898 2.238.006-.006c-.001-.006-.002-.007-.01-.01l-9.89-2.238zm89.538-2.673c.542-.082 1.086.137 1.42.571.335.435.407 1.017.188 1.52-.198.457-.608.784-1.076.878l-.142.02-10.045 1.246c-.813.078-1.541-.505-1.642-1.316-.094-.763.4-1.467 1.148-1.65l.144-.03 10.005-1.24zm-217.46-.678l-8.66 4.26-.155.055-.9.218-.005.004v.01l-.005.003.168-.04c.166-.04.338-.024.49.046.046-.059.105-.113.176-.16l.09-.05 1.195-.589c.147-.072.314-.094.473-.063l.118.033.273.1 6.852-1.66v-.012h-.014l-2.148.521c-.836.203-1.276-.911-.599-1.35l.09-.052L38.222 96c.004-.002.006-.006.004-.01l-.005-.004zm217.689 2.162l-10.03 1.242-.005.003-.003.013 10.035-1.243.003-.015zm-110.572-4.295c.342-.362.838-.53 1.324-.457l.126.025 9.83 2.224c.54.104.98.495 1.148 1.018.169.523.04 1.097-.338 1.497-.343.364-.841.532-1.312.46l-.14-.03-9.828-2.224c-.446-.088-.82-.365-1.031-.75l-.065-.131-.052-.139c-.167-.522-.038-1.094.338-1.493zm-97.583.454l9.787-2.372c.532-.153 1.105-.001 1.493.394.388.396.527.972.364 1.5-.149.482-.526.854-.979.993l-9.93 2.408c-.435.117-.885.037-1.242-.205l-.13-.099-.108-.101c-.38-.393-.517-.96-.36-1.484.144-.476.512-.847.966-.996l.14-.038zm98.683.572l-.008.002-.001.008.006.006 9.898 2.238.006-.006c-.001-.006-.002-.007-.01-.01l-9.89-2.238zm-88.474-1.5h-.014l-9.861 2.392-.002.007.005.006 9.872-2.393c.003-.007.002-.01 0-.012zm67.339-3.273c.169-.748.868-1.242 1.617-1.169l.14.02 9.852 2.23c.54.104.98.495 1.15 1.018.168.523.038 1.097-.34 1.497-.342.364-.84.532-1.311.46l-.14-.03-9.875-2.234c-.696-.18-1.155-.819-1.13-1.513l.012-.139.025-.14zm-69.648-4.376c.486-.26 1.074-.234 1.535.067.461.3.722.829.68 1.378-.038.499-.321.943-.733 1.183l-.127.065-9.05 4.454c-.485.252-1.068.221-1.524-.08-.457-.3-.715-.824-.674-1.37.036-.495.314-.937.725-1.182l.128-.067 9.04-4.448zm71.119 4.7l-.006.012 9.858 2.233.007-.005c0-.007-.001-.008-.01-.01l-9.85-2.23zm-49.538-3.272c.793-.158 1.569.338 1.76 1.123.178.74-.221 1.488-.942 1.767l-.138.046-9.78 2.371c-.44.128-.904.05-1.27-.2l-.12-.089-.11-.102c-.387-.395-.527-.971-.363-1.5.148-.481.526-.853.978-.993l9.985-2.423zm-20.865-.105l-.013.002-9.096 4.476v.014h.009l9.098-4.478.002-.014zm11.337 3.96l.004.013 9.82-2.382.004-.003c0-.009-.001-.011.005-.014l-9.833 2.386zm37.89-5.365c.169-.748.868-1.242 1.617-1.169l.14.02 9.896 2.24c.792.2 1.28.997 1.099 1.794-.17.75-.874 1.245-1.64 1.164l-.145-.022-9.874-2.235c-.696-.18-1.155-.819-1.13-1.513l.012-.139.025-.14zm1.47.324l-.005.012 9.818 2.224.01-.012-9.822-2.224zM96.87 82.397c.793-.158 1.569.338 1.76 1.123.178.74-.221 1.488-.942 1.767l-.138.046-9.807 2.379c-.425.109-.871.026-1.226-.216l-.128-.098-.107-.101c-.377-.392-.514-.956-.359-1.476.141-.474.504-.845.96-.998l.14-.04 9.847-2.386zm.305 1.47l-9.812 2.378-.002.008.005.006 9.8-2.376.004-.003c0-.009-.001-.011.005-.014zm-23.344-7.085c.74-.327 1.606-.012 1.964.713.336.683.109 1.502-.535 1.93l-.125.075-9.055 4.455-.023.013c-.656.305-1.421.099-1.84-.46l-.08-.116-.069-.125c-.34-.693-.102-1.522.546-1.939l.127-.073 9.09-4.473zm-8.413 5.812c-.004.002-.006.007-.004.01l.005.004 9.026-4.44c.002 0 .004-.002.004-.004-.001-.007-.004-.01.002-.014l-9.033 4.444zm120.456-8.536l5.546-2.342c.5-.237 1.09-.18 1.537.147.447.328.678.874.602 1.423-.069.499-.382.927-.806 1.138l-6.24 2.638c-.087.037-.18.057-.274.059l-.094-.004-3.808-.388c-.552-.035-1.04-.369-1.273-.87-.233-.501-.173-1.09.157-1.534.299-.403.777-.629 1.251-.61l.142.012 3.26.331zm-23.36-2.38l10.04 1.023c.542.048 1.016.383 1.242.878.225.496.166 1.074-.155 1.513-.291.4-.758.628-1.238.62l-.144-.01-10.04-1.023c-.541-.047-1.016-.383-1.24-.878-.226-.495-.167-1.073.154-1.513.291-.399.758-.628 1.246-.619l.136.01zm29.553 1.394l-5.787 2.443c-.087.037-.18.057-.274.059l-.094-.004-3.484-.354-.004.007.003.007 3.68.375 5.963-2.52.003-.008-.006-.005zM91.945 67.865c.743-.346 1.627-.034 1.989.702.34.692.101 1.522-.547 1.938l-.126.073-9.063 4.461c-.659.325-1.44.124-1.868-.441l-.08-.118-.07-.127c-.347-.703-.096-1.546.558-1.95l.128-.07 9.079-4.468zm80.481 6.332l-10.074-1.028-.007.003-.001.008 10.078 1.031.007-.003.001-.008-.004-.003zm-79.834-4.979l-9.064 4.461c-.004.002-.005.007-.003.01l.004.005.007-.002 9.048-4.452.001-.016.007-.006zm49.824.412l10.04 1.023c.541.048 1.015.383 1.24.878.226.496.167 1.074-.154 1.513-.291.4-.758.628-1.238.62l-.144-.01-10.077-1.028-.104-.014c-.386-.07-.727-.287-.954-.603l-.08-.122-.067-.131c-.227-.496-.168-1.076.154-1.517.292-.4.76-.628 1.25-.618l.134.01zm-.166 1.49l-.007.004-.001.004 10.08 1.035.008-.003.001-.008-10.08-1.031zm-19.932-3.538l10.038 1.023c.542.048 1.016.383 1.242.878.225.496.166 1.074-.155 1.513-.291.4-.758.628-1.238.62l-.144-.01-10.062-1.025c-.816-.098-1.403-.832-1.32-1.65.078-.77.723-1.347 1.481-1.355l.158.006zm87.757-3.75c.761-.3 1.623.062 1.942.816.3.71.015 1.523-.655 1.903l-.13.066-9.289 3.925c-.499.225-1.08.162-1.52-.164-.439-.327-.667-.866-.595-1.409.065-.493.37-.92.794-1.138l.13-.06 9.323-3.938zm-87.896 5.243l-.005.013.003.002 10.05 1.025c.006-.005.006-.008.005-.011l-.004-.003-10.05-1.026zm-19.96-3.54l10.04 1.022c.541.048 1.015.383 1.24.878.226.496.167 1.074-.154 1.513-.291.4-.758.628-1.238.62l-.144-.01-10.08-1.028c-.801-.114-1.37-.84-1.288-1.647.078-.758.706-1.331 1.454-1.354l.17.005zm108.423-.314l-9.325 3.941-.001.008.005.005.022-.008 9.288-3.924c.003-.015-.002-.017.01-.022zm-108.55 1.808c-.003.008-.003.012-.01.013l10.044 1.025.007-.003-.003-.011-10.037-1.024zm126.593-11.06c.761-.3 1.623.062 1.942.816.3.71.015 1.523-.655 1.903l-.13.066-9.276 3.918c-.5.237-1.091.18-1.538-.147-.446-.328-.677-.874-.601-1.423.069-.498.381-.926.805-1.137l9.453-3.995zm.567 1.39l-9.335 3.943-.005.006.004.008h.003l9.322-3.936.002-.016.009-.006zm18.042-9.253c.761-.3 1.623.061 1.942.815.3.71.015 1.523-.655 1.903l-.13.066-9.32 3.939c-.762.3-1.625-.062-1.943-.816-.3-.71-.016-1.523.655-1.903l.13-.066 9.32-3.938zm.567 1.388l-9.288 3.925c-.004.002-.005.006-.004.01l.01.005 9.271-3.918.003-.017.008-.005z"/>
            <ellipse cx="247.621" cy="46.665" fill="#FFF" opacity=".6" rx="8.219" ry="8.518"/>
            <ellipse cx="247.621" cy="98.931" fill="#FFF" opacity=".6" rx="8.219" ry="8.518"/>
            <ellipse cx="248.631" cy="152.201" fill="#FFF" opacity=".6" rx="8.219" ry="8.518"/>
            <ellipse cx="35.026" cy="100.824" fill="#FFF" opacity=".916" rx="8.11" ry="8.432"/>
            <path fill="#FF444F" d="M248.632 142.46c5.225 0 9.442 4.37 9.442 9.741 0 5.371-4.217 9.742-9.442 9.742-5.225 0-9.443-4.371-9.443-9.742 0-5.37 4.218-9.741 9.443-9.741zm0 2.447c-3.854 0-6.996 3.256-6.996 7.294 0 4.039 3.142 7.295 6.996 7.295 3.853 0 6.996-3.256 6.996-7.295 0-4.038-3.143-7.294-6.996-7.294zM35.026 91.185c5.156 0 9.317 4.326 9.317 9.64 0 5.312-4.16 9.638-9.317 9.638-5.156 0-9.316-4.326-9.316-9.639s4.16-9.639 9.316-9.639zm212.595-1.996c5.226 0 9.443 4.371 9.443 9.742 0 5.37-4.217 9.742-9.443 9.742-5.225 0-9.442-4.371-9.442-9.742 0-5.37 4.217-9.742 9.442-9.742zm-212.595 4.41c-3.801 0-6.902 3.225-6.902 7.225 0 4 3.1 7.225 6.902 7.225 3.801 0 6.903-3.224 6.903-7.225 0-4-3.102-7.225-6.903-7.225zm212.595-1.963c-3.853 0-6.996 3.257-6.996 7.295s3.143 7.295 6.996 7.295c3.854 0 6.997-3.257 6.997-7.295s-3.143-7.295-6.997-7.295zm0-54.712c5.226 0 9.443 4.371 9.443 9.742 0 5.37-4.217 9.741-9.443 9.741-5.225 0-9.442-4.37-9.442-9.741 0-5.37 4.217-9.742 9.442-9.742zm0 2.447c-3.853 0-6.996 3.256-6.996 7.295 0 4.038 3.143 7.295 6.996 7.295 3.854 0 6.997-3.257 6.997-7.295 0-4.039-3.143-7.295-6.997-7.295z"/>
            <path fill="#333" d="M20.897 7.53v3.982h-1.872V.794h4.121c1.039-.056 2.06.278 2.867.935.707.623 1.096 1.531 1.06 2.473.051.934-.332 1.84-1.038 2.453-.835.629-1.868.939-2.911.874l-2.227.001zm0-1.495h2.25c.548.038 1.09-.129 1.523-.467.366-.351.558-.845.525-1.35.024-.517-.169-1.02-.533-1.388-.4-.363-.925-.555-1.464-.535h-2.301v3.74zm12.488 4.697c-.569.636-1.397.978-2.249.927-.737.052-1.459-.226-1.971-.758-.486-.624-.724-1.405-.67-2.194v-5.16h1.798v5.139c0 1.01.422 1.516 1.265 1.516.725.08 1.425-.29 1.767-.935v-5.72h1.798v7.965H33.43l-.044-.78h-.001zm5.822-9.121v1.936h1.415v1.326h-1.415v4.445c-.021.235.044.47.182.66.178.155.413.228.647.202.212 0 .423-.026.629-.074v1.384c-.385.11-.783.167-1.184.17-1.38 0-2.07-.758-2.07-2.276V4.872h-1.319V3.547h1.317V1.612l1.798-.001zm12.364 7.14c.022-.423-.165-.83-.5-1.09-.554-.354-1.163-.615-1.802-.772-.725-.2-1.42-.491-2.07-.869-.894-.469-1.46-1.39-1.473-2.4-.012-.841.384-1.636 1.061-2.135.795-.587 1.768-.884 2.756-.839.69-.012 1.375.128 2.005.412.562.254 1.042.661 1.384 1.175.333.5.508 1.088.503 1.689H51.57c.027-.495-.166-.976-.528-1.314-.427-.341-.967-.51-1.513-.474-.505-.03-1.005.106-1.424.39-.338.258-.527.665-.507 1.09.003.398.209.768.547.982.558.348 1.167.606 1.805.766.708.192 1.387.476 2.02.846.457.266.841.64 1.118 1.09.244.44.366.937.354 1.44.027.836-.358 1.633-1.031 2.13-.82.568-1.805.846-2.801.792-.739.008-1.47-.139-2.149-.431-.607-.25-1.134-.662-1.525-1.19-.365-.515-.556-1.134-.543-1.766h1.872c-.03.54.194 1.063.606 1.414.504.364 1.119.541 1.739.5.52.038 1.037-.1 1.468-.393.322-.25.505-.637.492-1.043h.001zm10.35-1.14c.055 1.05-.242 2.086-.843 2.948-.522.653-1.298 1.052-2.133 1.098-.835.046-1.65-.266-2.24-.858v3.776h-1.798V3.547h1.658l.073.81c.528-.639 1.326-.993 2.154-.957.898-.037 1.756.369 2.297 1.086.602.885.894 1.945.831 3.014v.11l.001.001zm-1.79-.155c.035-.664-.131-1.324-.477-1.892-.3-.457-.819-.723-1.365-.7-.662-.042-1.285.314-1.584.906v3.534c.296.602.926.967 1.598.928.537.018 1.045-.242 1.343-.689.368-.631.537-1.358.485-2.087zm7.502-2.275c-.242-.04-.487-.059-.733-.058-.699-.072-1.366.306-1.664.942v5.447h-1.799V3.547h1.718l.043.89c.365-.652 1.059-1.05 1.806-1.037.217-.007.433.028.637.103l-.008 1.678zm4.66 6.478c-1.032.042-2.035-.345-2.77-1.07-.728-.766-1.111-1.797-1.061-2.853v-.221c-.013-.736.145-1.465.462-2.13.285-.6.735-1.107 1.299-1.462.558-.349 1.205-.53 1.863-.523.957-.057 1.887.325 2.528 1.037.642.841.959 1.884.89 2.938v.722h-5.229c.022.583.257 1.138.662 1.56.387.383.915.591 1.461.575.793.015 1.544-.356 2.013-.995l.97.92c-.322.477-.765.86-1.285 1.109-.562.268-1.179.403-1.802.393h-.001zm-.214-6.825c-.456-.016-.895.174-1.195.517-.331.41-.534.91-.58 1.435h3.425v-.132c0-.494-.17-.973-.481-1.358-.304-.316-.73-.484-1.169-.46v-.002zm9.604 6.678c-.104-.237-.174-.487-.208-.743-1.102 1.105-2.862 1.194-4.07.206-.493-.423-.771-1.044-.761-1.693-.038-.771.32-1.508.95-1.955.814-.503 1.765-.74 2.72-.68h1.102v-.523c.018-.363-.107-.718-.348-.99-.284-.268-.668-.403-1.057-.372-.36-.015-.716.093-1.007.306-.25.18-.395.469-.392.776h-1.798c.003-.447.157-.879.437-1.227.311-.395.72-.703 1.187-.893.53-.222 1.102-.332 1.677-.324.807-.041 1.602.208 2.24.704.57.496.886 1.222.859 1.976v3.592c-.025.587.079 1.173.303 1.716v.124h-1.834zm-1.976-1.288c.35 0 .696-.088 1.003-.258.298-.157.544-.398.707-.692v-1.5h-.97c-.524-.035-1.046.085-1.502.346-.328.216-.519.587-.503.979-.014.31.112.611.343.82.258.214.587.323.922.306v-.001zM84.76 7.47c-.052-1.053.251-2.094.86-2.955.537-.727 1.397-1.144 2.3-1.116.783-.028 1.537.297 2.056.884V.204h1.798v11.308h-1.628l-.088-.824c-.527.643-1.324 1.002-2.154.971-.897.02-1.747-.4-2.275-1.126-.623-.895-.929-1.973-.869-3.062V7.47zm1.798.155c-.038.665.126 1.325.47 1.895.295.444.801.702 1.336.68.686.03 1.322-.356 1.612-.978V5.82c-.29-.613-.92-.99-1.598-.956-.539-.023-1.05.238-1.347.688-.359.63-.524 1.35-.474 2.073h.001z"/>
            <path fill="#999" d="M259.352 98.709v-1.516h34.85v1.516h-34.85zM49.795 53.224H48.75l.65-3.716h-3.945l-.65 3.716h-1.043l1.404-8.039h1.044l-.606 3.457h3.94l.605-3.457H51.2l-1.404 8.039h-.001zm2.813 0h-1l1.044-5.974h1l-1.044 5.974zm.827-8.154c.158-.012.314.044.428.155.113.111.174.265.165.424.004.16-.056.314-.168.428-.112.113-.265.177-.425.175-.157.015-.313-.04-.426-.149-.114-.11-.173-.264-.163-.421-.001-.16.058-.313.167-.43.11-.115.262-.181.422-.182zm1.11 5.156c.07-.594.25-1.17.53-1.698.221-.434.555-.801.965-1.065.374-.229.807-.343 1.246-.329.624-.021 1.217.273 1.576.784l.2-.668h.92l-1 5.847c-.077.703-.407 1.354-.93 1.83-.523.462-1.208.697-1.904.655-.406-.007-.805-.105-1.168-.287-.355-.17-.66-.431-.88-.757l.573-.613c.278.43.725.72 1.23.802.505.081 1.021-.056 1.42-.376.348-.312.58-.733.656-1.193l.11-.53c-.445.468-1.068.725-1.713.707-.347-.003-.686-.108-.974-.302-.288-.206-.51-.492-.64-.822-.157-.381-.242-.789-.251-1.201-.006-.262.005-.524.033-.784h.001zm.971.569c-.036.426.06.852.274 1.223.196.29.528.462.88.455.633-.003 1.22-.335 1.548-.877l.472-2.744c-.176-.513-.661-.856-1.204-.852-.53-.021-1.035.228-1.34.663-.38.544-.595 1.187-.619 1.85l-.011.28v.002zm6.853-2.817c.45-.536 1.115-.841 1.814-.833.488-.028.958.189 1.252.577.292.475.4 1.04.302 1.588l-.655 3.914h-1.004l.66-3.93c.022-.168.024-.336.006-.503-.009-.23-.112-.444-.286-.594-.174-.15-.402-.22-.63-.196-.663.013-1.268.379-1.587.96l-.744 4.263h-1.004l1.482-8.481h1.004l-.61 3.235zm7.19 5.246l1.405-8.039 2.369.005c.665-.05 1.325.146 1.853.553.421.395.622.97.539 1.54-.103.816-.674 1.497-1.46 1.739.352.13.642.386.813.718.18.345.257.734.22 1.121-.03.675-.35 1.304-.877 1.726-.59.445-1.317.67-2.055.637h-2.807zm1.698-3.76l-.505 2.894 1.648.005c.456.015.904-.127 1.266-.402.34-.267.554-.66.594-1.089.07-.355-.013-.724-.228-1.015-.248-.263-.599-.404-.96-.387l-1.815-.005v-.001zm.15-.85l1.505.006c.425.013.843-.113 1.19-.36.32-.234.527-.593.568-.988.07-.315-.016-.643-.23-.884-.283-.227-.639-.343-1.001-.325l-1.587-.005-.445 2.556zm8.59 4.61c-.026-.103-.039-.209-.039-.315l.016-.314c-.46.47-1.092.737-1.752.74-.48.012-.945-.168-1.291-.5-.328-.318-.494-.768-.452-1.223.019-.6.33-1.154.836-1.483.614-.38 1.329-.566 2.05-.532l1.048.005.066-.475c.052-.299-.023-.606-.208-.847-.202-.22-.492-.338-.79-.323-.323-.013-.642.075-.913.252-.25.154-.425.405-.485.692l-1.01.005c.032-.346.176-.672.41-.93.255-.28.573-.496.927-.629.372-.148.77-.22 1.171-.213.543-.018 1.07.186 1.46.566.356.391.517.922.438 1.444l-.488 2.96-.029.424c-.007.203.015.406.067.603l-.01.093h-1.022zm-1.576-.773c.32.008.635-.071.913-.23.293-.165.545-.392.74-.664l.218-1.232-.761-.005c-.503-.03-1.004.074-1.455.298-.317.17-.53.486-.57.844-.042.251.03.508.197.7.187.195.448.301.718.29v-.001zm7.691-4.29l-.472-.05c-.627-.01-1.21.323-1.52.867l-.737 4.246h-1.005l1.043-5.974.97-.005-.149.695c.331-.506.897-.81 1.503-.81.162.005.323.033.478.081l-.111.95zm3.784 0l-.472-.05c-.627-.01-1.21.323-1.52.867l-.737 4.246H86.16l1.044-5.974.97-.005-.149.695c.333-.506.898-.81 1.504-.81.162.006.322.033.477.081l-.111.95h.001zm1.137 5.063h-.998l1.043-5.974h1l-1.045 5.974zm.828-8.154c.158-.013.315.044.428.155.114.11.175.265.166.424.004.16-.057.314-.169.428-.112.114-.265.177-.425.175-.157.015-.313-.04-.426-.149-.114-.11-.173-.264-.163-.421-.002-.16.058-.313.166-.43.11-.116.263-.181.423-.182zm3.412 8.265c-.682.016-1.331-.289-1.754-.824-.436-.588-.627-1.322-.532-2.048l.027-.237c.057-.573.237-1.127.53-1.623.255-.453.62-.833 1.063-1.107.408-.246.878-.37 1.354-.356.55-.014 1.08.21 1.454.613.372.45.576 1.016.576 1.6.012.24.005.48-.021.718l-.06.458h-3.924c-.08.478.016.968.269 1.381.238.375.655.599 1.1.59.64-.006 1.243-.297 1.645-.794l.576.486c-.249.358-.583.65-.973.847-.412.208-.869.31-1.33.296zm.638-5.362c-.404-.015-.796.137-1.085.42-.35.363-.604.81-.735 1.297l2.92.006.02-.088c.073-.4-.007-.812-.224-1.156-.197-.302-.535-.483-.896-.479zm6.392.188l-.471-.05c-.627-.01-1.21.323-1.52.867l-.738 4.246H98.57l1.043-5.974.971-.005-.15.695c.332-.506.897-.81 1.504-.81.162.005.323.033.478.081l-.112.95h-.001zm163.767-1.066c.042-.297-.045-.599-.239-.828-.275-.287-.617-.5-.996-.621-.402-.143-.78-.347-1.118-.606-.534-.415-.816-1.077-.743-1.75.023-.564.257-1.1.656-1.499.43-.41.987-.664 1.58-.72l.216-1.209h.81l-.222 1.225c.51.082.958.384 1.223.826.286.527.397 1.131.32 1.725h-.993c.053-.43-.033-.866-.243-1.245-.183-.285-.501-.455-.84-.45-.376-.025-.746.1-1.03.35-.282.248-.455.599-.478.975-.04.29.034.583.208.818.277.298.628.52 1.018.643.415.15.804.362 1.153.63.25.2.447.46.575.753.124.308.173.641.142.972-.026.581-.28 1.13-.707 1.524-.472.407-1.063.65-1.685.69l-.19 1.054h-.803l.194-1.065c-.548-.055-1.047-.338-1.376-.779-.327-.493-.47-1.085-.405-1.673h1.004c-.06.403.034.815.263 1.153.236.297.6.462.98.443.423.022.84-.104 1.18-.356.31-.237.509-.592.546-.98zm4.422 2.22c-.598.025-1.17-.245-1.531-.721-.375-.6-.539-1.309-.466-2.013.007-.272.027-.541.06-.806l.2-1.342c.09-.932.442-1.82 1.016-2.562.497-.563 1.227-.864 1.976-.817.597-.027 1.17.235 1.539.704.374.59.539 1.286.469 1.98-.01.271-.033.542-.067.811l-.194 1.298c-.095.964-.454 1.882-1.037 2.655-.494.56-1.22.86-1.965.812v.001zm2.225-4.948c.045-.344.07-.69.072-1.038-.018-.935-.382-1.415-1.093-1.44-.488-.032-.96.182-1.257.57-.38.56-.61 1.206-.668 1.88l-.239 1.602c-.046.346-.07.694-.072 1.043.018.975.381 1.476 1.088 1.502.47.032.927-.17 1.218-.54.382-.538.618-1.166.685-1.823l.266-1.756zM265.892 153.2h-3.285l-.621 3.55h-1.044l1.404-8.04h4.861l-.156.873h-3.818l-.477 2.75h3.291l-.155.867zm4.856 2.959c-.468.482-1.122.738-1.793.701-.501.02-.979-.21-1.273-.613-.294-.482-.404-1.055-.308-1.612l.643-3.86h1.004l-.65 3.877c-.018.157-.021.316-.01.474.005.23.09.45.239.623.155.158.367.246.588.244.673.045 1.316-.29 1.665-.867l.754-4.35h1.004l-1.042 5.974h-.95l.129-.591zm3.406.59h-.998l1.474-8.48h1.006l-1.482 8.48zm2.73 0h-.999l1.476-8.48h1.005l-1.482 8.48zm-10.659 10.108c-.064.572-.231 1.128-.495 1.64-.214.44-.542.815-.948 1.09-.373.24-.81.36-1.254.344-.612.023-1.2-.235-1.598-.7l-.538 2.882h-1.004l1.442-8.271.91-.005-.11.668c.447-.51 1.1-.794 1.78-.774.524-.01 1.022.224 1.348.635.35.494.53 1.086.512 1.69.003.228-.006.457-.029.684l-.016.117zm-.988-.117l.028-.463c.027-.433-.08-.865-.309-1.234-.206-.286-.538-.453-.89-.45-.61 0-1.177.31-1.504.823l-.505 2.864c.187.504.676.834 1.216.818.492.014.963-.201 1.272-.583.397-.513.637-1.13.692-1.775zm5.465 3.076c-.025-.103-.038-.209-.038-.315l.017-.314c-.462.471-1.094.738-1.754.74-.48.012-.944-.168-1.29-.5-.328-.318-.494-.768-.452-1.223.018-.6.33-1.154.835-1.483.614-.381 1.328-.567 2.05-.533l1.05.005.065-.474c.052-.299-.023-.606-.208-.847-.202-.22-.492-.338-.79-.323-.323-.013-.642.074-.913.251-.25.155-.425.405-.485.693l-1.01.005c.032-.346.175-.672.41-.93.255-.28.573-.496.927-.629.372-.148.77-.22 1.17-.213.543-.018 1.07.186 1.46.566.357.391.518.922.438 1.444l-.488 2.96-.028.424c-.008.203.015.406.066.602l-.01.094h-1.022zm-1.576-.773c.32.008.636-.071.913-.23.293-.164.545-.392.74-.665l.218-1.23-.76-.006c-.503-.03-1.004.074-1.455.298-.318.17-.53.486-.57.844-.043.25.03.507.196.7.187.196.45.3.72.289h-.002zm6.11-.734l2.136-4.467h1.11l-3.563 6.968c-.289.82-1.041 1.386-1.909 1.435-.204-.014-.406-.048-.604-.1l.09-.828.26.029c.29.021.58-.054.824-.213.265-.198.476-.46.613-.76l.36-.684-1.037-5.847h1.049l.672 4.467h-.001zm6.453-4.577c.464-.005.917.138 1.293.408.369.279.646.66.796 1.096.175.489.235 1.012.175 1.527l-.01.121c-.062.556-.24 1.093-.522 1.576-.26.45-.63.828-1.077 1.096-.437.26-.94.39-1.449.37-.463.004-.914-.139-1.29-.409-.366-.273-.641-.65-.79-1.081-.17-.483-.23-.998-.177-1.508.046-.586.218-1.154.505-1.667.257-.468.63-.863 1.085-1.146.438-.27.947-.403 1.461-.383zm-2.041 3.202c-.026.24-.026.483 0 .724.015.378.152.742.39 1.037.226.258.553.405.897.402.325.014.646-.072.921-.245.302-.197.547-.47.71-.792.196-.366.322-.764.372-1.176.028-.284.034-.57.016-.855-.02-.386-.161-.755-.404-1.056-.228-.259-.555-.407-.9-.408-.51-.014-.999.21-1.32.607-.383.465-.617 1.035-.671 1.635l-.011.127zm8.86 2.292c-.468.481-1.12.736-1.791.7-.5.02-.977-.21-1.273-.613-.295-.482-.405-1.055-.31-1.612l.645-3.86h1.004l-.65 3.877c-.018.158-.021.317-.01.475.005.229.09.449.238.623.156.158.369.245.59.243.673.045 1.315-.29 1.664-.866l.754-4.351h1.004l-1.043 5.974h-.95l.129-.59h-.001zm4.973-6.83l-.256 1.447h1.093l-.138.789h-1.087l-.628 3.715c-.011.088-.013.177-.006.266-.004.123.046.241.137.324.09.082.213.121.335.106.164-.004.328-.023.489-.055l-.078.834c-.238.065-.485.098-.732.098-.355.016-.693-.15-.9-.438-.212-.344-.295-.753-.232-1.152l.61-3.698h-1.06l.138-.79h1.061l.255-1.447h.999v.001zM260.96 90.281l-.55 3.147h-1.043l1.404-8.039 2.697.005c.704-.046 1.398.192 1.926.66.459.46.674 1.11.582 1.754-.036.71-.372 1.37-.924 1.816-.624.466-1.392.7-2.171.663l-1.92-.006h-.001zm.15-.867l1.798.006c.5.02.991-.13 1.393-.425.366-.29.597-.718.637-1.182.075-.39-.028-.795-.283-1.101-.28-.296-.674-.458-1.081-.445l-1.915-.005-.55 3.152h.001zm8.784 4.014c-.026-.103-.04-.208-.04-.314l.018-.315c-.462.471-1.094.738-1.754.74-.48.012-.944-.168-1.29-.5-.328-.318-.494-.768-.452-1.223.018-.6.33-1.154.835-1.483.614-.38 1.329-.566 2.05-.532l1.05.005.066-.475c.052-.299-.023-.606-.208-.847-.203-.22-.492-.338-.791-.323-.323-.013-.642.075-.913.252-.25.154-.425.405-.485.692l-1.01.005c.031-.346.175-.672.41-.93.255-.28.573-.496.927-.629.372-.148.77-.22 1.17-.213.543-.018 1.07.186 1.46.566.357.391.518.922.438 1.444l-.488 2.96-.028.425c-.008.202.015.405.066.602l-.01.093h-1.021zm-1.576-.773c.32.008.635-.071.912-.229.293-.165.546-.392.742-.665l.216-1.232-.76-.005c-.502-.029-1.004.074-1.454.298-.318.17-.532.486-.572.844-.042.25.03.507.197.7.187.196.45.302.72.29l-.001-.001zm6.11-.734l2.135-4.467h1.11l-3.563 6.968c-.289.82-1.041 1.386-1.909 1.435-.204-.014-.406-.048-.604-.1l.089-.827.26.028c.291.022.581-.053.825-.213.265-.198.476-.459.613-.76l.36-.684-1.037-5.847h1.049l.671 4.467h.001zm6.452-4.577c.464-.005.917.138 1.293.408.369.279.646.66.796 1.096.175.49.235 1.012.175 1.528l-.01.12c-.062.556-.24 1.093-.522 1.576-.26.45-.63.828-1.077 1.096-.436.26-.94.39-1.448.37-.462.005-.914-.138-1.29-.408-.366-.273-.642-.65-.79-1.082-.17-.483-.23-.998-.178-1.508.046-.586.218-1.154.505-1.667.257-.468.63-.863 1.085-1.146.439-.269.947-.402 1.461-.383zm-2.041 3.202c-.026.24-.026.483 0 .724.015.379.152.742.39 1.037.226.258.553.405.897.402.325.014.646-.072.92-.245.303-.198.548-.47.711-.792.196-.365.322-.764.372-1.176.029-.284.035-.57.017-.855-.02-.386-.162-.755-.405-1.055-.228-.259-.555-.408-.9-.409-.51-.014-.999.21-1.32.608-.383.465-.617 1.034-.671 1.634l-.011.127zm8.86 2.292c-.468.481-1.12.736-1.791.7-.5.021-.978-.208-1.273-.612-.295-.482-.406-1.056-.31-1.613l.645-3.86h1.004l-.65 3.877c-.018.158-.021.317-.01.475.005.229.089.45.238.623.155.157.368.245.589.243.673.045 1.316-.289 1.665-.866l.754-4.351h1.004l-1.043 5.974h-.95l.129-.59h-.001zm4.973-6.83l-.256 1.447h1.094l-.14.789h-1.086l-.628 3.716c-.011.088-.013.177-.006.265-.004.123.046.241.137.324.09.082.213.121.335.106.164-.004.328-.023.489-.055l-.078.834c-.238.066-.485.1-.732.099-.355.015-.694-.15-.9-.439-.213-.344-.295-.752-.233-1.151l.61-3.7h-1.06l.14-.79h1.06l.254-1.446h1v.001zm-14.254 24.507h-5.142l.121-.78 2.98-2.88.544-.536c.524-.446.889-1.051 1.038-1.723.062-.35-.025-.708-.239-.991-.216-.26-.538-.408-.876-.405-.445-.028-.883.124-1.215.422-.339.321-.55.754-.594 1.217l-.993.006c.039-.468.196-.92.457-1.312.254-.378.604-.681 1.015-.878.426-.206.895-.305 1.368-.29.591-.016 1.164.202 1.596.606.397.396.585.955.507 1.51-.144.861-.576 1.647-1.226 2.23l-.51.513-2.597 2.458h3.9l-.134.833zM44.961 152.868h3.718l-.155.866h-4.76l1.403-8.039h1.049l-1.255 7.173zm7.97-5.218c.463-.005.916.138 1.292.408.369.279.646.66.796 1.096.175.49.235 1.012.175 1.528l-.011.12c-.062.556-.24 1.093-.522 1.576-.259.45-.63.828-1.076 1.096-.437.26-.94.39-1.449.37-.462.005-.914-.138-1.29-.408-.366-.273-.642-.65-.79-1.082-.17-.483-.23-.998-.178-1.507.046-.586.218-1.155.506-1.668.256-.468.63-.862 1.083-1.146.439-.27.948-.402 1.463-.383h.001zm-2.043 3.203c-.026.24-.026.483 0 .723.015.379.153.742.392 1.038.225.257.552.404.895.402.325.013.647-.073.922-.246.302-.197.547-.47.71-.792.196-.365.322-.764.372-1.176.028-.284.034-.57.016-.855-.02-.385-.162-.755-.404-1.055-.228-.259-.555-.407-.9-.408-.51-.014-.999.21-1.32.607-.383.465-.618 1.034-.672 1.634l-.011.128zm10.437 1.467l1.915-4.56h1.037l-2.736 5.974h-.815l-.622-4.516-2.163 4.516h-.815l-.65-5.974h.96l.367 4.45 2.131-4.45h.81l.581 4.56zm5.893 1.414l1.405-8.039 2.368.005c.665-.05 1.325.146 1.854.553.42.396.622.97.538 1.54-.103.816-.674 1.497-1.46 1.739.352.13.642.386.814.719.18.344.257.733.219 1.12-.03.675-.35 1.304-.877 1.726-.59.445-1.315.67-2.053.637h-2.808zm1.697-3.759l-.505 2.893 1.649.005c.456.016.903-.127 1.266-.402.339-.266.553-.66.593-1.089.07-.355-.013-.724-.228-1.015-.248-.263-.599-.404-.96-.387l-1.815-.005zm.151-.851l1.504.006c.425.013.843-.113 1.19-.359.321-.235.528-.594.569-.989.07-.314-.016-.643-.23-.883-.283-.228-.64-.344-1.003-.326l-1.586-.005-.444 2.556zm8.59 4.61c-.026-.103-.04-.208-.04-.314l.017-.315c-.462.47-1.093.737-1.753.74-.48.012-.944-.168-1.29-.5-.328-.318-.494-.768-.452-1.223.018-.6.33-1.153.834-1.482.614-.381 1.328-.567 2.05-.533l1.05.005.066-.475c.052-.299-.023-.606-.208-.847-.203-.22-.492-.338-.791-.323-.323-.013-.642.075-.912.252-.25.154-.425.405-.485.692l-1.01.005c.032-.346.175-.672.41-.93.255-.28.572-.496.926-.629.373-.148.771-.22 1.172-.213.543-.018 1.07.186 1.459.566.357.391.518.922.438 1.445l-.488 2.959-.028.425c-.008.203.015.406.067.602l-.01.093h-1.023.001zm-1.577-.773c.32.008.636-.071.914-.229.292-.165.545-.392.74-.665l.216-1.231-.76-.006c-.502-.029-1.004.074-1.454.298-.318.172-.53.487-.57.844-.042.25.03.508.196.7.187.195.448.301.718.29v-.001zm7.692-4.29l-.472-.05c-.627-.01-1.21.323-1.52.868l-.738 4.245h-1.005l1.044-5.974.97-.005-.15.695c.333-.506.898-.81 1.504-.81.162.006.323.033.478.082l-.111.95v-.001zm3.783 0l-.471-.05c-.627-.01-1.21.323-1.52.868l-.738 4.245H83.82l1.043-5.974.971-.005-.15.695c.333-.507.899-.811 1.505-.81.162.006.322.033.477.082l-.112.95v-.001zm1.138 5.063h-1l1.044-5.974h1l-1.044 5.974zm.827-8.154c.158-.012.314.044.428.155.113.111.174.265.165.424.004.16-.056.314-.168.428-.112.113-.265.177-.425.175-.157.015-.313-.04-.426-.149-.114-.11-.173-.264-.163-.421-.001-.16.058-.313.167-.43.11-.115.262-.181.422-.182zm3.412 8.265c-.681.016-1.33-.289-1.753-.823-.437-.588-.628-1.323-.533-2.049l.028-.237c.057-.573.237-1.127.53-1.623.255-.453.62-.833 1.063-1.107.408-.246.877-.37 1.353-.357.55-.015 1.08.209 1.455.613.372.452.576 1.018.576 1.602.011.239.004.479-.022.717l-.06.459h-3.923c-.08.477.015.967.268 1.38.238.375.656.599 1.101.59.639-.006 1.241-.297 1.643-.793l.578.485c-.25.358-.584.65-.974.847-.412.208-.869.31-1.33.296zm.639-5.361c-.404-.015-.796.136-1.085.419-.352.363-.605.81-.735 1.297l2.919.006.021-.088c.072-.4-.008-.812-.224-1.156-.198-.302-.535-.482-.896-.478zm6.392.188l-.472-.05c-.627-.01-1.21.323-1.52.867l-.737 4.245h-1.006l1.044-5.974.97-.005-.149.695c.331-.505.897-.81 1.503-.81.162.006.323.033.478.082l-.111.95z"/>
            <path fill="#333" d="M246.735 170.382v8.48h-1.22l-.067-.618c-.395.482-.993.752-1.616.728-.673.015-1.31-.3-1.706-.844-.467-.672-.696-1.48-.651-2.298-.04-.79.187-1.57.643-2.216.403-.545 1.048-.857 1.726-.836.587-.021 1.153.222 1.542.662v-3.058h1.349zm-12.38.441v1.126h-3.84v2.22h3.32v1.105h-3.319v2.472h3.879v1.116h-5.283v-8.039h5.243zm4.089 1.955c1.251 0 1.887.712 1.91 2.136v3.948h-1.349v-3.87c.025-.301-.063-.601-.246-.842-.218-.203-.513-.302-.809-.274-.514-.017-.99.27-1.214.734v4.252h-1.348v-5.975h1.271l.038.691c.425-.525 1.072-.82 1.747-.8zm5.744 1.098c-.404-.017-.787.179-1.01.516-.269.472-.392 1.013-.355 1.555-.028.498.094.993.352 1.421.22.334.601.527 1.002.51.515.023.993-.267 1.21-.733v-2.55c-.217-.46-.69-.745-1.199-.719zM8.574 119.452c.518-.01 1.032.097 1.504.31.422.19.782.496 1.038.88.25.375.381.816.377 1.267h-1.399c.02-.37-.124-.731-.396-.985-.32-.256-.725-.383-1.135-.356-.378-.024-.754.079-1.068.291-.253.194-.395.5-.38.818.002.3.157.577.41.737.419.26.876.454 1.354.574.53.144 1.04.358 1.515.635.343.2.631.48.839.818.183.33.274.702.265 1.079.02.627-.268 1.225-.773 1.598-.615.425-1.354.634-2.101.593-.554.006-1.103-.103-1.612-.322-.455-.188-.85-.496-1.143-.892-.274-.387-.417-.851-.408-1.325h1.404c-.023.405.145.797.454 1.06.378.274.84.407 1.306.376.39.028.778-.077 1.1-.296.241-.186.379-.476.37-.78l-.001-.001c.017-.317-.122-.622-.373-.817-.416-.266-.873-.462-1.352-.58-.544-.15-1.066-.368-1.554-.651-.67-.352-1.095-1.043-1.104-1.8-.009-.631.288-1.228.796-1.602.597-.44 1.326-.662 2.067-.629zm11.897 2.592c.428.373.665.918.644 1.483v2.694c-.019.44.059.879.227 1.286v.095h-1.376c-.078-.178-.13-.366-.155-.558-.826.828-2.146.896-3.052.155-.37-.317-.58-.783-.572-1.27-.029-.578.24-1.13.714-1.466.61-.377 1.322-.556 2.038-.511h.827v-.392c.014-.272-.08-.539-.26-.743-.213-.2-.502-.302-.794-.278-.27-.012-.537.07-.755.229-.187.135-.297.352-.294.583h-1.348c.002-.334.117-.658.327-.92.234-.297.54-.528.89-.671.398-.166.826-.249 1.258-.242.605-.032 1.202.155 1.681.526zm-6.182-1.868v1.451h1.061v.995h-1.06v3.334c-.016.176.032.352.136.495.133.115.309.17.485.15.158 0 .317-.018.471-.054v1.037c-.289.082-.588.126-.888.128-1.035 0-1.553-.569-1.553-1.707v-3.384h-.987v-.994h.987v-1.451h1.348zm13.922 0v1.451h1.06v.995h-1.06v3.334c-.016.176.032.352.136.495.134.115.31.17.485.15.16 0 .318-.018.473-.054v1.037c-.29.083-.588.126-.889.128-1.035 0-1.552-.569-1.552-1.707v-3.384h-.988v-.994h.988v-1.451h1.347zm-3.013 1.342c.163-.006.325.02.478.076l-.005 1.259-.182-.025c-.122-.013-.245-.02-.368-.019-.524-.054-1.025.23-1.248.707v4.086h-1.349v-5.975h1.287l.033.669c.273-.49.794-.788 1.354-.778zm-7.285 3.539c-.245.162-.388.44-.377.733-.01.234.084.46.258.617.193.16.44.241.69.229.264 0 .522-.067.752-.194.224-.118.408-.298.53-.519v-1.126h-.727c-.393-.026-.785.064-1.126.26z"/>
        </g>
    </g>
</svg>
