<svg xmlns="http://www.w3.org/2000/svg" width="299" height="197" viewBox="0 0 299 197">
    <g fill="none">
        <path fill="#FFF" d="M0 0L299 0 299 197 0 197z"/>
        <path fill="#D6DADB" d="M1.987 1.98v193.04h295.026V1.98H1.987zM299 0v197H0V0h299z"/>
        <path fill="#F2F3F4" d="M8 56.36v-1.153h283v1.152H8v.001zm0 39.6v-1.15h283v1.152H8v-.002zm0 39.602v-1.152h283v1.152H8zm0 39.566v-1.152h283v1.152H8zM41.603 36h1.152v156h-1.152V36zm35.823 0h1.152v156h-1.152V36zm36.939 0v78.592h70.454V36h1.152l-.001 78.592h34.635V36h1.152l-.001 78.592H291v1.152h-69.244l.001 76.256h-1.152v-76.256H185.97l.001 76.256h-1.152v-76.256h-70.454V192h-1.152v-76.256H8v-1.152h105.213V36h1.152z"/>
        <path fill="#2A3052" d="M256.924 36L258.076 36 258.076 192 256.924 192z"/>
        <path fill="#2A3052" d="M8 156.152L8 155 291 155 291 156.152z"/>
        <path fill="#333" d="M1 156.212V155h3.598v1.212H1zm7.196 0V155h3.598v1.212H8.196zm7.196 0V155h3.598v1.212h-3.598zm7.197 0V155h3.598v1.212h-3.598zm7.196 0V155h3.598v1.212h-3.598zm7.196 0V155h3.598v1.212h-3.598zm7.197 0V155h3.598v1.212h-3.598zm7.196 0V155h3.598v1.212h-3.598zm7.196 0V155h3.598v1.212H58.57zm7.196 0V155h3.599v1.212h-3.599zm7.197 0V155h3.598v1.212h-3.598zm7.196 0V155h3.598v1.212h-3.598zm7.196 0V155h3.599v1.212h-3.599zm7.197 0V155h3.598v1.212h-3.598zm7.196 0V155h3.598v1.212h-3.598zm7.196 0V155h3.599v1.212h-3.599zm7.197 0V155h3.598v1.212h-3.598zm7.196 0V155h3.598v1.212h-3.598zm7.196 0V155h3.599v1.212h-3.599zm7.197 0V155h3.598v1.212h-3.598zm7.196 0V155h3.598v1.212h-3.598zm7.196 0V155h3.598v1.212h-3.598zm7.197 0V155h3.598v1.212h-3.598zm7.196 0V155h3.598v1.212h-3.598zm7.196 0V155h3.598v1.212h-3.598zm7.197 0V155h3.598v1.212h-3.598zm7.196 0V155h3.598v1.212h-3.598zm7.196 0V155h3.598v1.212H195.3zm7.197 0V155h3.598v1.212h-3.598zm7.196 0V155h3.598v1.212h-3.598zm7.196 0V155h3.598v1.212h-3.598zm7.196 0V155h3.599v1.212h-3.599zm7.197 0V155h3.598v1.212h-3.598zm7.196 0V155h3.598v1.212h-3.598zm7.196 0V155h3.599v1.212h-3.599zm7.197 0V155h3.598v1.212h-3.598zm7.196 0V155h3.598v1.212h-3.598zm7.196 0V155h3.599v1.212h-3.599zm7.197 0V155h3.598v1.212h-3.598zm7.196 0V155h3.598v1.212h-3.598zm7.196 0V155h2.556v1.212h-2.556z"/>
        <path fill="#D6DADB" d="M3 35.652L3 33.348 296 33.348 296 35.652zM119.4 106.624l-37.426 9.073c-.567.138-1.165-.02-1.59-.419L39.819 77.261c-.45-.422-.642-1.053-.501-1.654.14-.601.591-1.082 1.182-1.261.59-.18 1.232-.03 1.683.393l39.885 37.379 37.795-9.163c.754-.182 1.537.16 1.915.837l27.121 48.542 34.324-28.776c.336-.282.767-.425 1.205-.401l35.286 1.945 35.396-21.298c.818-.492 1.88-.228 2.372.59s.228 1.88-.59 2.372l-35.852 21.572c-.297.178-.64.264-.986.245l-35.134-1.938-35.4 29.68c-.395.33-.917.468-1.423.375-.507-.093-.946-.408-1.197-.857l-27.499-49.22-.001.001z"/>
        <path fill="#4BB4B3" d="M257.332 150.893H219.83L214.498 143l-5.332 7.897h-37.498c-2.578 0-4.668 2.068-4.668 4.62v23.863c0 2.552 2.09 4.62 4.668 4.62h85.664c2.578 0 4.668-2.068 4.668-4.62v-23.867c0-2.552-2.09-4.62-4.668-4.62z"/>
        <circle cx="257.196" cy="106.684" r="7.836" fill="#FFF" opacity=".6"/>
        <circle cx="41.116" cy="75.644" r="7.836" fill="#FFF" opacity=".6"/>
        <circle cx="148.06" cy="154.228" r="7.836" fill="#FFF" opacity=".6"/>
        <path fill="#FF444F" d="M149.076 186.688V192h-1.152v-5.312h1.152zm0-11.592v5.796h-1.152v-5.796h1.152zm0-11.591v5.796h-1.152v-5.796h1.152zm0-23.183v4.61c4.536.533 8.054 4.39 8.054 9.068 0 5.042-4.088 9.13-9.13 9.13-5.042 0-9.13-4.088-9.13-9.13 0-5.017 4.047-9.089 9.054-9.13v-4.548h1.152zM148 147.13c-3.794 0-6.87 3.076-6.87 6.87s3.076 6.87 6.87 6.87 6.87-3.076 6.87-6.87-3.076-6.87-6.87-6.87zm1.076 4.784v5.795h-1.152v-5.795h1.152zm0-23.184v5.797h-1.152v-5.797h1.152zm0-11.59v5.795h-1.152v-5.795h1.152zM257 97.87c5.042 0 9.13 4.088 9.13 9.13 0 5.042-4.088 9.13-9.13 9.13-5.042 0-9.13-4.088-9.13-9.13 0-5.042 4.088-9.13 9.13-9.13zm0 2.26c-3.794 0-6.87 3.076-6.87 6.87s3.076 6.87 6.87 6.87 6.87-3.076 6.87-6.87-3.076-6.87-6.87-6.87zm-107.924 5.418v5.796h-1.152v-5.796h1.152zm0-11.591v5.795h-1.152v-5.795h1.152zm0-11.592v5.796h-1.152v-5.796h1.152zM41 66.87c5.042 0 9.13 4.088 9.13 9.13 0 5.042-4.088 9.13-9.13 9.13-3.262 0-6.276-1.74-7.907-4.565-.63-1.09-1.016-2.278-1.16-3.488l-3.419-.001v-1.152h3.356c.013-1.55.42-3.099 1.223-4.489C34.724 68.61 37.738 66.87 41 66.87zm0 2.26c-3.77 0-6.83 3.035-6.87 6.795l.141-.001v1.152h-.057C34.73 80.36 37.572 82.87 41 82.87c3.794 0 6.87-3.076 6.87-6.87s-3.076-6.87-6.87-6.87zm27.813 6.794v1.152h-5.757v-1.152h5.757zm23.029 0v1.152h-5.757v-1.152h5.757zm11.514 0v1.152h-5.757v-1.152h5.757zm11.514 0v1.152h-5.757v-1.152h5.757zm-103.87 0v1.152H8v-1.152h3zm138.076-5.15v5.15h.336v1.152h-5.757v-1.152h4.269v-5.15h1.152zM57.3 75.924v1.152h-5.758v-1.152H57.3zm115.14 0v1.152h-5.757v-1.152h5.757zm11.514 0v1.152h-5.757v-1.152h5.757zm11.514 0v1.152h-5.757v-1.152h5.757zm11.514 0v1.152h-5.757v-1.152h5.757zm11.514 0v1.152h-5.757v-1.152h5.757zm11.515 0v1.152h-5.757v-1.152h5.757zm11.514 0v1.152h-5.757v-1.152h5.757zm11.514 0v1.152h-5.757v-1.152h5.757zm11.514 0v1.152h-5.757v-1.152h5.757zm11.514 0v1.152h-5.757v-1.152h5.757zm8.933 0v1.152h-3.176v-1.152H285zm6 0v1.152h-3v-1.152h3zm-210.673 0v1.152H74.57v-1.152h5.757zm46.057 0v1.152h-5.757v-1.152h5.757zm-103.627 0v1.152H17v-1.152h5.757zm115.141 0v1.152h-5.757v-1.152h5.757zm-92.113 0v1.152h-5.757v-1.152h5.757zm115.141 0v1.152h-5.757v-1.152h5.757zm-11.85-16.741v5.795h-1.152v-5.795h1.152zm0-11.592v5.796h-1.152v-5.796h1.152zm0-11.591v5.796h-1.152V36h1.152z"/>
        <path fill="#333" d="M23.974 19.778v4.029H22V13.719h3.71c.94-.057 1.869.222 2.623.785.644.538.997 1.36.951 2.211.01.48-.13.95-.398 1.342-.299.403-.702.716-1.166.907.507.126.951.44 1.248.88.268.46.401.988.384 1.523v.737c.002.298.038.595.108.885.052.264.186.504.384.682v.143h-2.031c-.206-.193-.334-.456-.359-.737-.05-.328-.074-.66-.072-.991v-.719c.026-.428-.117-.848-.398-1.172-.301-.292-.711-.443-1.13-.417h-1.88zm0-1.562h1.7c.443.033.882-.098 1.238-.37.288-.271.438-.664.41-1.064.02-.41-.128-.809-.41-1.106-.329-.294-.762-.441-1.202-.41h-1.736v2.95zM34.2 23.95c-.949.04-1.867-.34-2.512-1.036-.644-.726-.983-1.673-.947-2.643v-.276c-.04-.995.278-1.97.897-2.75.586-.715 1.473-1.114 2.397-1.076.863-.05 1.704.286 2.293.918.574.692.867 1.575.818 2.473v1.106h-4.363v.04c.02.45.192.88.484 1.217.302.312.72.479 1.148.457.364.009.727-.037 1.077-.137.328-.107.645-.25.943-.427l.535 1.253c-.35.277-.747.488-1.17.623-.515.174-1.056.261-1.6.258zm-.169-6.218c-.34-.012-.664.148-.86.427-.234.334-.374.725-.406 1.132l.021.033h2.415v-.18c.018-.367-.085-.73-.294-1.033-.216-.258-.54-.399-.876-.38v.001zm8.203 4.01c-.004-.23-.12-.443-.312-.571-.356-.22-.753-.368-1.166-.435-.703-.111-1.371-.384-1.952-.796-.437-.351-.68-.889-.657-1.449.001-.644.295-1.25.793-1.64.602-.475 1.355-.716 2.12-.678.797-.041 1.583.197 2.222.674.53.4.828 1.037.796 1.7v.036h-1.905c.012-.273-.087-.54-.276-.737-.224-.202-.52-.305-.822-.284-.272-.013-.539.072-.753.24-.176.15-.276.37-.273.6-.003.225.104.437.287.568.358.209.753.343 1.162.395.717.109 1.4.384 1.992.803.434.356.677.904.653 1.474.01.657-.305 1.277-.843 1.655-.65.454-1.433.678-2.225.638-.836.047-1.659-.223-2.304-.756-.524-.418-.823-1.058-.807-1.728v-.04h1.794c-.015.336.128.66.384.87.281.19.614.285.951.268.293.022.585-.055.832-.217.194-.134.31-.354.31-.59h-.001zm6.412 2.208c-.949.039-1.866-.34-2.512-1.036-.641-.728-.979-1.674-.943-2.643v-.276c-.04-.994.277-1.97.893-2.75.593-.658 1.428-1.046 2.313-1.075.886-.03 1.745.3 2.381.917.57.687.86 1.572.814 2.473v1.106h-4.37v.04c.02.45.19.88.48 1.217.304.324.73.497 1.167.475.363.01.726-.037 1.076-.136.33-.108.648-.251.947-.428l.532 1.253c-.35.278-.745.489-1.167.623-.52.17-1.064.25-1.61.24h-.001zm-.18-6.218c-.34-.012-.664.149-.86.427-.229.336-.363.727-.391 1.132l.021.033h2.411v-.18c.018-.367-.084-.73-.29-1.033-.218-.262-.55-.404-.89-.38l-.001.001zm6.6-3.259v1.843h1.227v1.423h-1.227v3.808c-.02.223.042.446.175.626.125.137.303.213.488.207.089.006.178.006.266 0 .087-.015.174-.036.258-.063l.173 1.474c-.19.064-.385.116-.582.155-.202.035-.408.051-.613.048-.58.04-1.15-.168-1.568-.571-.416-.52-.614-1.18-.553-1.843v-3.848h-1.076V16.31h1.076v-1.843l1.956.007v-.001zm13.499 5.898v.044c.063.96-.29 1.9-.97 2.58-.757.67-1.75 1.013-2.759.951-1.08.039-2.124-.386-2.87-1.168-.753-.818-1.152-1.9-1.109-3.012v-2.001c-.044-1.106.341-2.187 1.076-3.015.718-.785 1.743-1.216 2.806-1.18 1.039-.062 2.061.283 2.85.962.7.684 1.064 1.64.997 2.617v.04H66.67c.038-.55-.127-1.093-.463-1.529-.384-.38-.915-.573-1.453-.527-.564-.014-1.095.265-1.403.737-.364.558-.545 1.215-.517 1.88v2.013c-.029.675.163 1.34.546 1.89.342.426.837.691 1.373.735.538.043 1.07-.139 1.468-.502.326-.432.484-.971.445-1.515h1.899zm5.54 3.435c-.074-.175-.136-.355-.187-.538-.05-.191-.086-.386-.111-.582-.197.358-.47.668-.797.906-.345.247-.76.376-1.184.369-.647.044-1.285-.174-1.769-.605-.428-.44-.652-1.038-.62-1.65-.029-.673.28-1.315.825-1.711.72-.448 1.564-.66 2.411-.605h1.102v-.608c.02-.304-.08-.604-.277-.837-.446-.37-1.085-.394-1.557-.059-.178.173-.273.416-.258.664H69.78v-.044c-.026-.646.275-1.26.8-1.637.642-.485 1.433-.73 2.236-.693.767-.032 1.52.21 2.124.686.556.478.86 1.198.818 1.942v3.1c-.005.328.017.656.065.98.051.316.134.624.247.922h-1.966.001zm-1.794-1.349c.327.005.648-.087.925-.265.24-.14.43-.353.546-.609v-1.046H72.68c-.348-.025-.69.092-.95.324-.212.204-.329.487-.324.781-.01.228.08.448.244.601.184.153.417.23.653.214h.008zm7 1.349h-1.97V13h1.97v10.807-.001zm3.689 0h-1.97V13H83v10.807-.001zM35.065 59.692c.007-.444-.184-.868-.522-1.156-.548-.398-1.182-.664-1.85-.776-.915-.18-1.777-.565-2.52-1.128-.577-.445-.91-1.136-.9-1.864-.008-.773.353-1.504.971-1.969.72-.555 1.612-.836 2.52-.794.966-.05 1.914.276 2.646.909.622.521.972 1.296.95 2.104v.043h-1.313c.019-.54-.195-1.06-.587-1.431-.472-.392-1.076-.589-1.688-.548-.563-.037-1.12.126-1.574.462-.357.294-.558.737-.543 1.199 0 .44.222.85.59 1.095.587.375 1.239.637 1.922.773.896.177 1.733.577 2.434 1.163.544.484.85 1.178.839 1.904.016.78-.36 1.515-1.005 1.96-.77.522-1.688.782-2.617.742-.958.014-1.897-.274-2.682-.823-.74-.476-1.172-1.31-1.133-2.19v-.044h1.31c-.032.583.24 1.14.72 1.475.524.351 1.145.529 1.775.508.58.03 1.155-.122 1.645-.433.394-.263.625-.71.612-1.18v-.001zm4.924-6.757v1.79h1.44v1.013h-1.44v4.559c-.028.266.05.532.22.74.156.148.365.226.58.215.088-.001.176-.01.262-.028.086-.016.17-.038.252-.068l.184.93c-.135.1-.288.17-.45.208-.195.054-.396.081-.598.082-.494.024-.975-.158-1.328-.504-.364-.44-.541-1.006-.493-1.575v-4.545h-1.2v-1.013h1.2v-1.79l1.371-.014zm7.747 9.294c-.041-.198-.077-.397-.108-.597-.025-.174-.04-.35-.043-.526-.266.37-.607.678-1.001.905-.401.236-.859.36-1.325.358-.656.045-1.303-.171-1.8-.601-.424-.441-.645-1.039-.612-1.65-.025-.674.306-1.311.871-1.679.71-.438 1.536-.648 2.369-.604h1.494v-.741c.02-.39-.128-.769-.407-1.042-.314-.274-.725-.413-1.141-.386-.388-.018-.77.1-1.08.336-.259.188-.413.487-.417.806h-1.307v-.04c-.004-.596.286-1.155.774-1.496.6-.468 1.35-.708 2.113-.676.742-.037 1.474.191 2.063.644.536.47.823 1.16.777 1.868v3.604c0 .258.014.516.043.773.029.25.08.497.155.737l-1.418.007zm-2.275-1.005c.475.006.94-.126 1.342-.38.35-.196.625-.502.782-.87v-1.212h-1.541c-.477-.026-.947.12-1.325.411-.31.23-.495.59-.5.974-.016.295.098.582.313.787.261.21.593.315.929.29zm9.046-5.279l-.72-.043c-.323-.01-.642.078-.914.254-.256.18-.455.429-.576.716v5.368h-1.372v-7.5h1.224l.137 1.074c.187-.359.458-.668.788-.902.317-.219.695-.333 1.08-.326.098 0 .196.008.292.025.078.008.155.025.23.05l-.17 1.285.001-.001zm3.25-3.01v1.79h1.44v1.013h-1.44v4.559c-.026.266.053.532.22.74.156.147.366.225.58.215.088-.001.176-.01.262-.028.087-.016.173-.038.256-.068l.18.93c-.134.1-.287.17-.45.208-.193.054-.393.081-.594.082-.494.025-.975-.158-1.328-.504-.367-.439-.546-1.005-.497-1.575v-4.545h-1.18v-1.013H56.4v-1.79l1.357-.014zm211.037 34.25h-4.644v3.6h5.353v1.073h-6.724V81.769h6.648v1.074h-5.277V86.1h4.644v1.085zm3.286-2.817l.098 1.116c.232-.38.556-.698.943-.923.392-.225.84-.339 1.292-.33.702-.042 1.389.219 1.886.716.496.619.735 1.404.67 2.194v4.724h-1.375v-4.71c.048-.5-.092-1-.393-1.402-.325-.299-.76-.449-1.201-.413-.369-.007-.732.091-1.047.283-.304.19-.552.457-.72.773v5.46h-1.375v-7.49h1.223l-.001.002zm6.566 3.883c-.05-1.027.22-2.044.774-2.91.483-.715 1.298-1.133 2.16-1.11.406-.008.808.074 1.177.24.343.168.642.413.871.716v-4.133H285V91.85h-1.12l-.162-.92c-.229.336-.54.61-.903.795-.389.187-.817.28-1.25.272-.838.037-1.643-.334-2.159-.995-.549-.757-.823-1.679-.778-2.613l.018-.14v.002zm1.368.146c-.03.64.133 1.272.468 1.818.33.462.874.72 1.44.68.364.012.723-.084 1.033-.275.288-.198.522-.465.68-.777V86.35c-.165-.297-.399-.55-.683-.737-.304-.19-.657-.284-1.015-.272-.6-.033-1.166.28-1.458.805-.34.648-.502 1.374-.472 2.105l.007.146z"/>
        <path fill="#999" d="M90.845 173.268l-.72 3.608H89l1.69-8.319h2.882c.66-.053 1.312.17 1.801.617.412.486.548 1.144.36 1.75-.08.425-.27.824-.554 1.156-.298.325-.668.575-1.081.73.35.13.63.397.771.738.14.388.162.807.065 1.206l-.159.784c-.055.233-.076.471-.065.71.01.178.075.349.184.49l-.032.141h-1.157c-.124-.162-.18-.365-.155-.567.014-.262.049-.523.105-.78l.158-.763c.112-.371.065-.772-.13-1.107-.206-.273-.538-.42-.878-.39l-1.96-.004zm.18-.887h1.64c.464.023.924-.11 1.303-.376.342-.274.57-.661.642-1.089.12-.373.068-.778-.14-1.11-.29-.272-.687-.402-1.082-.355h-1.75l-.613 2.93zm7.681 4.615c-.71.044-1.392-.283-1.801-.865-.422-.661-.562-1.463-.39-2.228l.04-.255c.113-.84.5-1.62 1.103-2.225.494-.527 1.18-.832 1.902-.848.65-.06 1.283.23 1.654.76.35.609.457 1.327.302 2.011l-.115.71h-3.776c-.101.505-.04 1.029.177 1.496.202.375.611.595 1.04.561.328.002.653-.055.96-.17.283-.1.546-.25.777-.44l.321.734c-.266.234-.572.418-.904.543-.413.152-.85.226-1.29.216zm.72-5.537c-.368.02-.71.196-.943.482-.311.337-.535.745-.652 1.189v.035h2.583l.021-.149c.084-.379.037-.775-.133-1.124-.187-.296-.523-.463-.872-.433h-.004zm6.42 3.774c.05-.218-.007-.448-.154-.617-.266-.214-.582-.355-.919-.412-.548-.1-1.065-.33-1.506-.67-.324-.284-.463-.724-.36-1.142.084-.524.378-.992.818-1.299.486-.355 1.077-.537 1.679-.518.562-.036 1.114.166 1.52.557.35.356.494.862.382 1.345v.035h-1.08c.058-.274-.018-.559-.205-.767-.189-.21-.465-.32-.747-.297-.305-.013-.604.081-.847.266-.201.16-.338.385-.385.635-.056.206-.004.426.137.586.269.192.58.32.908.376.564.094 1.095.328 1.545.68.32.292.457.733.36 1.154-.08.547-.388 1.035-.846 1.344-.515.344-1.125.517-1.744.497-.61.037-1.207-.183-1.646-.607-.37-.363-.524-.893-.408-1.398v-.032h1.081c-.073.317.027.65.263.873.24.188.54.286.847.277.316.01.627-.077.89-.249.22-.138.372-.362.418-.617h-.001zm4.652 1.763c-.71.044-1.392-.283-1.801-.865-.422-.661-.562-1.463-.39-2.228l.04-.255c.113-.84.5-1.62 1.103-2.225.494-.527 1.18-.832 1.902-.848.65-.06 1.283.23 1.654.76.35.609.457 1.327.302 2.011l-.115.71h-3.776c-.103.505-.04 1.03.177 1.496.202.375.611.595 1.041.561.327.002.652-.055.958-.17.284-.1.547-.25.779-.44l.317.734c-.264.235-.57.42-.901.543-.413.152-.85.225-1.29.216zm.72-5.537c-.368.02-.71.196-.943.482-.311.337-.535.745-.652 1.189v.035h2.583l.021-.149c.084-.379.037-.775-.133-1.124-.187-.296-.523-.463-.872-.433h-.004zm5.73-2.263l-.307 1.493h1.08l-.165.834h-1.08l-.772 3.756c-.065.309-.058.518.029.625.103.116.255.177.41.163.11 0 .218-.01.325-.025.122-.018.223-.035.299-.053v.77c-.149.083-.31.14-.48.17-.201.043-.406.066-.612.067-.362.02-.711-.137-.936-.422-.235-.39-.289-.862-.148-1.295l.753-3.756h-.919l.17-.834h.918l.306-1.493H116.948zm10.782.24h-2.522l-1.51 7.45h-1.12l1.51-7.45h-2.497l.18-.886h6.125l-.166.887v-.001zm.692 7.44h-1.12l1.253-6.187h1.12l-1.253 6.187zm1.578-7.773h-1.12l.234-1.146h1.117l-.23 1.146H130zm2.277 2.32c.481-.55 1.18-.86 1.91-.848.32-.01.633.088.89.277.256.213.427.51.479.837.23-.333.53-.613.882-.82.343-.197.732-.299 1.128-.294.507-.023.985.23 1.243.66.292.607.347 1.297.155 1.94l-.75 3.7h-1.127l.756-3.71c.143-.432.143-.898 0-1.33-.18-.257-.485-.393-.796-.355-.344.011-.67.16-.9.412-.285.283-.497.631-.617 1.014v.029l-.796 3.93h-1.127l.756-3.71c.133-.427.124-.885-.025-1.306-.174-.26-.48-.397-.79-.355-.278-.004-.551.071-.788.217-.241.158-.445.366-.598.61l-.926 4.558h-1.12l1.25-6.186h1.001l-.09.73zm10.045 5.573c-.71.044-1.393-.283-1.802-.865-.421-.661-.561-1.463-.389-2.228l.04-.255c.113-.84.5-1.62 1.102-2.225.495-.527 1.18-.833 1.903-.848.65-.06 1.283.23 1.653.76.35.609.458 1.326.303 2.011l-.115.71h-3.776c-.103.505-.041 1.03.176 1.496.203.375.612.595 1.042.561.327.002.652-.055.958-.17.284-.1.547-.25.778-.44l.32.734c-.266.234-.572.418-.903.543-.413.152-.85.225-1.29.216zm.72-5.537c-.369.02-.711.196-.944.482-.311.337-.535.745-.652 1.189v.035h2.584l.021-.149c.084-.379.037-.775-.133-1.124-.187-.296-.523-.463-.872-.433h-.004zm123.105-31.65h-2.295l-1.383 6.818h-1.027l1.383-6.818h-2.287l.165-.809h5.6l-.156.809zm2.202 6.818v-.422c0-.11 0-.22.036-.337-.238.248-.513.457-.815.62-.282.16-.6.245-.926.249-.437.035-.866-.135-1.16-.461-.26-.358-.339-.818-.212-1.242.089-.536.403-1.007.864-1.295.541-.308 1.158-.457 1.78-.432h.987l.112-.564c.082-.272.038-.566-.119-.802-.193-.202-.468-.302-.746-.273-.29-.004-.572.086-.807.255-.217.139-.372.356-.432.607h-.97v-.032c.096-.474.384-.89.797-1.15.483-.337 1.061-.51 1.65-.496.503-.026.995.156 1.355.503.347.38.467.91.317 1.398l-.555 2.732c-.041.196-.073.393-.094.592-.018.183-.018.367 0 .55h-1.062zm-1.362-.756c.31-.006.612-.09.879-.244.27-.142.506-.34.692-.582l.212-1.043h-1.027c-.343-.003-.677.11-.947.32-.254.172-.433.434-.501.733-.094.204-.062.445.083.617.144.173.376.25.598.2h.01l.001-.001zm7.295-4.001l-.562-.032c-.23-.002-.457.066-.648.195-.21.145-.386.335-.512.557l-.821 4.037h-1.027l1.15-5.676h.925l-.065.76c.178-.258.407-.476.674-.64.31-.19.678-.263 1.038-.209.062.01.124.024.184.043l-.336.965zm.307 1.923c.118-.802.446-1.56.95-2.2.419-.486 1.034-.758 1.676-.741.294-.004.584.067.843.205.25.137.459.338.602.582l.223-.68h.876l-1.135 5.597c-.106.685-.446 1.312-.962 1.774-.533.415-1.196.626-1.87.596-.273-.004-.544-.044-.807-.117-.26-.061-.51-.163-.739-.302l.422-.802c.176.117.37.202.576.252.235.067.477.1.721.1.4.015.79-.128 1.08-.398.302-.298.5-.681.566-1.096l.08-.39c-.394.371-.915.576-1.456.571-.588.018-1.135-.3-1.409-.82-.328-.618-.413-1.337-.237-2.014v-.117zm1.005.11c-.132.478-.104.985.08 1.447.178.365.563.584.968.55.245.002.485-.072.685-.213.225-.163.416-.367.562-.603l.537-2.643c-.087-.218-.235-.408-.425-.546-.206-.14-.451-.212-.7-.203-.434-.004-.84.213-1.08.575-.316.457-.528.978-.62 1.526l-.007.11zm6.773 2.834c-.646.036-1.265-.263-1.64-.791-.387-.606-.516-1.341-.36-2.043l.04-.231c.1-.77.455-1.487 1.01-2.04.452-.483 1.079-.765 1.74-.78.596-.052 1.174.219 1.516.71.323.555.422 1.212.277 1.837l-.104.649h-3.47c-.094.463-.037.945.163 1.373.19.343.563.543.954.51.578.004 1.14-.193 1.59-.556l.295.67c-.243.218-.526.388-.833.5-.377.138-.777.203-1.178.192zm.667-5.07c-.338.018-.652.178-.865.44-.289.307-.495.68-.598 1.086v.032h2.385l.018-.135c.08-.347.036-.71-.122-1.029-.175-.276-.493-.429-.818-.393v-.001zm5.245-2.075l-.284 1.366H289l-.155.763h-.998l-.695 3.444c-.068.187-.06.394.025.575.095.107.235.162.378.15.1-.003.198-.012.296-.026.115-.018.205-.028.274-.046v.71c-.138.074-.286.125-.44.152-.185.04-.373.06-.562.06-.332.017-.653-.127-.861-.386-.214-.357-.262-.79-.133-1.185l.698-3.445h-.843l.155-.762h.84l.284-1.366 1.016-.004z"/>
        <path fill="#FFF" d="M205.899 171.306h.05l2.122-10.24h2.908L207.521 176h-2.766l-2.737-9.859h-.06L199.235 176h-2.755L193 161.067h2.916l2.143 10.228h.061l2.787-10.24h2.183l2.809 10.25v.001zm9.654-9.061h-2.98V160h2.98v2.245zm0 13.755h-2.98v-11.098h2.98V176zm5.174-11.098l.132 1.591c.338-.544.805-.998 1.358-1.321.542-.316 1.159-.48 1.786-.474.985-.055 1.942.332 2.612 1.056.703.953 1.037 2.13.94 3.31V176h-2.99v-6.939c.056-.567-.105-1.134-.451-1.587-.366-.34-.857-.51-1.354-.47-.372-.007-.74.076-1.072.244-.313.16-.583.395-.786.682V176h-2.98v-11.098h2.805zM233 170.853h-2.98v-9.786H233v9.786zm0 5.147h-2.98v-2.625H233V176z"/>
    </g>
</svg>
