<svg xmlns="http://www.w3.org/2000/svg" width="299" height="197"><g fill="none"><path fill="#FFF" d="M0 0h299v197H0z"/><path fill="#D6DADB" d="M1.987 1.98v193.04h295.026V1.98H1.987zM299 0v197H0V0h299z"/><path fill="#F2F3F4" d="M8 56.36v-1.153h283v1.152H8v.001zm0 39.6v-1.15h283v1.152H8v-.002zm0 39.602v-1.152h283v1.152H8zm0 39.566v-1.152h283v1.152H8zM41.603 36h1.152v156h-1.152V36zm35.823 0h1.152v156h-1.152V36zm36.939 0v78.592h70.454V36h1.152l-.001 78.592h34.635V36h1.152l-.001 78.592H291v1.152h-69.244l.001 76.256h-1.152v-76.256H185.97l.001 76.256h-1.152v-76.256h-70.454V192h-1.152v-76.256H8v-1.152h105.213V36h1.152z"/><path fill="#2A3052" d="M256.924 36h1.152v156h-1.152z"/><path fill="#2A3052" d="M8 156.152V155h283v1.152z"/><path fill="#333" d="M1 156.212V155h3.598v1.212H1zm7.196 0V155h3.598v1.212H8.196zm7.196 0V155h3.598v1.212h-3.598zm7.197 0V155h3.598v1.212h-3.598zm7.196 0V155h3.598v1.212h-3.598zm7.196 0V155h3.598v1.212h-3.598zm7.197 0V155h3.598v1.212h-3.598zm7.196 0V155h3.598v1.212h-3.598zm7.196 0V155h3.598v1.212H58.57zm7.196 0V155h3.599v1.212h-3.599zm7.197 0V155h3.598v1.212h-3.598zm7.196 0V155h3.598v1.212h-3.598zm7.196 0V155h3.599v1.212h-3.599zm7.197 0V155h3.598v1.212h-3.598zm7.196 0V155h3.598v1.212h-3.598zm7.196 0V155h3.599v1.212h-3.599zm7.197 0V155h3.598v1.212h-3.598zm7.196 0V155h3.598v1.212h-3.598zm7.196 0V155h3.599v1.212h-3.599zm7.197 0V155h3.598v1.212h-3.598zm7.196 0V155h3.598v1.212h-3.598zm7.196 0V155h3.598v1.212h-3.598zm7.197 0V155h3.598v1.212h-3.598zm7.196 0V155h3.598v1.212h-3.598zm7.196 0V155h3.598v1.212h-3.598zm7.197 0V155h3.598v1.212h-3.598zm7.196 0V155h3.598v1.212h-3.598zm7.196 0V155h3.598v1.212H195.3zm7.197 0V155h3.598v1.212h-3.598zm7.196 0V155h3.598v1.212h-3.598zm7.196 0V155h3.598v1.212h-3.598zm7.196 0V155h3.599v1.212h-3.599zm7.197 0V155h3.598v1.212h-3.598zm7.196 0V155h3.598v1.212h-3.598zm7.196 0V155h3.599v1.212h-3.599zm7.197 0V155h3.598v1.212h-3.598zm7.196 0V155h3.598v1.212h-3.598zm7.196 0V155h3.599v1.212h-3.599zm7.197 0V155h3.598v1.212h-3.598zm7.196 0V155h3.598v1.212h-3.598zm7.196 0V155h2.556v1.212h-2.556z"/><path fill="#D6DADB" d="M3 35.652v-2.304h293v2.304zm116.4 70.972l-37.426 9.073a1.727 1.727 0 0 1-1.59-.419L39.819 77.261a1.728 1.728 0 1 1 2.364-2.522l39.885 37.379 37.795-9.163a1.729 1.729 0 0 1 1.915.837l27.121 48.542 34.324-28.776a1.727 1.727 0 0 1 1.205-.401l35.286 1.945 35.396-21.298a1.728 1.728 0 1 1 1.782 2.962l-35.852 21.572c-.297.178-.64.264-.986.245l-35.134-1.938-35.4 29.68a1.733 1.733 0 0 1-2.62-.482l-27.499-49.22-.001.001z"/><path fill="#4BB4B3" d="M257.332 150.893H219.83L214.498 143l-5.332 7.897h-37.498c-2.578 0-4.668 2.068-4.668 4.62v23.863c0 2.552 2.09 4.62 4.668 4.62h85.664c2.578 0 4.668-2.068 4.668-4.62v-23.867c0-2.552-2.09-4.62-4.668-4.62z"/><circle cx="257.196" cy="106.684" r="7.836" fill="#FFF" opacity=".6"/><circle cx="41.116" cy="75.644" r="7.836" fill="#FFF" opacity=".6"/><circle cx="148.06" cy="154.228" r="7.836" fill="#FFF" opacity=".6"/><path fill="#FF444F" d="M149.076 186.688V192h-1.152v-5.312h1.152zm0-11.592v5.796h-1.152v-5.796h1.152zm0-11.591v5.796h-1.152v-5.796h1.152zm0-23.183v4.61a9.13 9.13 0 1 1-1.152-.062v-4.548h1.152zM148 147.13a6.87 6.87 0 1 0 0 13.74 6.87 6.87 0 0 0 0-13.74zm1.076 4.784v5.795h-1.152v-5.795h1.152zm0-23.184v5.797h-1.152v-5.797h1.152zm0-11.59v5.795h-1.152v-5.795h1.152zM257 97.87a9.13 9.13 0 1 1 0 18.26 9.13 9.13 0 0 1 0-18.26zm0 2.26a6.87 6.87 0 1 0 0 13.74 6.87 6.87 0 0 0 0-13.74zm-107.924 5.418v5.796h-1.152v-5.796h1.152zm0-11.591v5.795h-1.152v-5.795h1.152zm0-11.592v5.796h-1.152v-5.796h1.152zM41 66.87a9.13 9.13 0 1 1-9.067 10.207l-3.419-.001v-1.152h3.356A9.13 9.13 0 0 1 41 66.87zm0 2.26a6.87 6.87 0 0 0-6.87 6.795l.141-.001v1.152h-.057A6.87 6.87 0 1 0 41 69.13zm27.813 6.794v1.152h-5.757v-1.152h5.757zm23.029 0v1.152h-5.757v-1.152h5.757zm11.514 0v1.152h-5.757v-1.152h5.757zm11.514 0v1.152h-5.757v-1.152h5.757zm-103.87 0v1.152H8v-1.152h3zm138.076-5.15v5.15h.336v1.152h-5.757v-1.152h4.269v-5.15h1.152zM57.3 75.924v1.152h-5.758v-1.152H57.3zm115.14 0v1.152h-5.757v-1.152h5.757zm11.514 0v1.152h-5.757v-1.152h5.757zm11.514 0v1.152h-5.757v-1.152h5.757zm11.514 0v1.152h-5.757v-1.152h5.757zm11.514 0v1.152h-5.757v-1.152h5.757zm11.515 0v1.152h-5.757v-1.152h5.757zm11.514 0v1.152h-5.757v-1.152h5.757zm11.514 0v1.152h-5.757v-1.152h5.757zm11.514 0v1.152h-5.757v-1.152h5.757zm11.514 0v1.152h-5.757v-1.152h5.757zm8.933 0v1.152h-3.176v-1.152H285zm6 0v1.152h-3v-1.152h3zm-210.673 0v1.152H74.57v-1.152h5.757zm46.057 0v1.152h-5.757v-1.152h5.757zm-103.627 0v1.152H17v-1.152h5.757zm115.141 0v1.152h-5.757v-1.152h5.757zm-92.113 0v1.152h-5.757v-1.152h5.757zm115.141 0v1.152h-5.757v-1.152h5.757zm-11.85-16.741v5.795h-1.152v-5.795h1.152zm0-11.592v5.796h-1.152v-5.796h1.152zm0-11.591v5.796h-1.152V36h1.152z"/><path fill="#333" d="M23.974 19.778v4.029H22V13.719h3.71a3.982 3.982 0 0 1 2.623.785c.644.538.997 1.36.951 2.211.01.48-.13.95-.398 1.342a2.758 2.758 0 0 1-1.166.907c.507.126.951.44 1.248.88.268.46.401.988.384 1.523v.737c.002.298.038.595.108.885.052.264.186.504.384.682v.143h-2.031a1.15 1.15 0 0 1-.359-.737 6.329 6.329 0 0 1-.072-.991v-.719a1.636 1.636 0 0 0-.398-1.172 1.49 1.49 0 0 0-1.13-.417h-1.88zm0-1.562h1.7c.443.033.882-.098 1.238-.37.288-.271.438-.664.41-1.064.02-.41-.128-.809-.41-1.106a1.63 1.63 0 0 0-1.202-.41h-1.736v2.95zM34.2 23.95a3.24 3.24 0 0 1-2.512-1.036 3.772 3.772 0 0 1-.947-2.643v-.276c-.04-.995.278-1.97.897-2.75a2.943 2.943 0 0 1 2.397-1.076 2.905 2.905 0 0 1 2.293.918 3.57 3.57 0 0 1 .818 2.473v1.106h-4.363v.04c.02.45.192.88.484 1.217.302.312.72.479 1.148.457.364.009.727-.037 1.077-.137.328-.107.645-.25.943-.427l.535 1.253c-.35.277-.747.488-1.17.623a4.915 4.915 0 0 1-1.6.258zm-.169-6.218a1.007 1.007 0 0 0-.86.427 2.285 2.285 0 0 0-.406 1.132l.021.033h2.415v-.18a1.675 1.675 0 0 0-.294-1.033 1.063 1.063 0 0 0-.876-.38v.001zm8.203 4.01a.7.7 0 0 0-.312-.571 3.193 3.193 0 0 0-1.166-.435 4.622 4.622 0 0 1-1.952-.796 1.765 1.765 0 0 1-.657-1.449c.001-.644.295-1.25.793-1.64a3.169 3.169 0 0 1 2.12-.678 3.42 3.42 0 0 1 2.222.674c.53.4.828 1.037.796 1.7v.036h-1.905a1.001 1.001 0 0 0-.276-.737 1.111 1.111 0 0 0-.822-.284 1.131 1.131 0 0 0-.753.24.776.776 0 0 0-.273.6.687.687 0 0 0 .287.568c.358.209.753.343 1.162.395.717.109 1.4.384 1.992.803.434.356.677.904.653 1.474a1.985 1.985 0 0 1-.843 1.655 3.57 3.57 0 0 1-2.225.638 3.324 3.324 0 0 1-2.304-.756 2.146 2.146 0 0 1-.807-1.728v-.04h1.794c-.015.336.128.66.384.87.281.19.614.285.951.268.293.022.585-.055.832-.217a.717.717 0 0 0 .31-.59h-.001zm6.412 2.208a3.245 3.245 0 0 1-2.512-1.036 3.787 3.787 0 0 1-.943-2.643v-.276c-.04-.994.277-1.97.893-2.75a3.257 3.257 0 0 1 2.313-1.075c.886-.03 1.745.3 2.381.917.57.687.86 1.572.814 2.473v1.106h-4.37v.04c.02.45.19.88.48 1.217.304.324.73.497 1.167.475.363.01.726-.037 1.076-.136.33-.108.648-.251.947-.428l.532 1.253c-.35.278-.745.489-1.167.623a4.89 4.89 0 0 1-1.61.24h-.001zm-.18-6.218a1.01 1.01 0 0 0-.86.427 2.29 2.29 0 0 0-.391 1.132l.021.033h2.411v-.18a1.69 1.69 0 0 0-.29-1.033 1.062 1.062 0 0 0-.89-.38l-.001.001zm6.6-3.259v1.843h1.227v1.423h-1.227v3.808a.916.916 0 0 0 .175.626.633.633 0 0 0 .488.207c.089.006.178.006.266 0 .087-.015.174-.036.258-.063l.173 1.474c-.19.064-.385.116-.582.155a3.313 3.313 0 0 1-.613.048c-.58.04-1.15-.168-1.568-.571a2.572 2.572 0 0 1-.553-1.843v-3.848h-1.076V16.31h1.076v-1.843l1.956.007v-.001zm13.499 5.898v.044c.063.96-.29 1.9-.97 2.58a3.812 3.812 0 0 1-2.759.951 3.777 3.777 0 0 1-2.87-1.168 4.206 4.206 0 0 1-1.109-3.012v-2.001a4.285 4.285 0 0 1 1.076-3.015 3.635 3.635 0 0 1 2.806-1.18 4.003 4.003 0 0 1 2.85.962c.7.684 1.064 1.64.997 2.617v.04H66.67a2.25 2.25 0 0 0-.463-1.529 1.843 1.843 0 0 0-1.453-.527 1.627 1.627 0 0 0-1.403.737 3.195 3.195 0 0 0-.517 1.88v2.013c-.029.675.163 1.34.546 1.89a1.949 1.949 0 0 0 2.841.233c.326-.432.484-.971.445-1.515h1.899zm5.54 3.435a4.445 4.445 0 0 1-.187-.538 4.595 4.595 0 0 1-.111-.582c-.197.358-.47.668-.797.906-.345.247-.76.376-1.184.369a2.414 2.414 0 0 1-1.769-.605 2.2 2.2 0 0 1-.62-1.65 2.007 2.007 0 0 1 .825-1.711 4.067 4.067 0 0 1 2.411-.605h1.102v-.608c.02-.304-.08-.604-.277-.837a1.28 1.28 0 0 0-1.557-.059.856.856 0 0 0-.258.664H69.78v-.044a1.92 1.92 0 0 1 .8-1.637 3.446 3.446 0 0 1 2.236-.693c.767-.032 1.52.21 2.124.686.556.478.86 1.198.818 1.942v3.1a6.06 6.06 0 0 0 .065.98c.051.316.134.624.247.922h-1.966.001zm-1.794-1.349c.327.005.648-.087.925-.265.24-.14.43-.353.546-.609v-1.046H72.68a1.287 1.287 0 0 0-.95.324 1.058 1.058 0 0 0-.324.781c-.01.228.08.448.244.601.184.153.417.23.653.214h.008zm7 1.349h-1.97V13h1.97v10.807-.001zm3.689 0h-1.97V13H83v10.807-.001zM35.065 59.692a1.487 1.487 0 0 0-.522-1.156 4.384 4.384 0 0 0-1.85-.776 6.13 6.13 0 0 1-2.52-1.128 2.314 2.314 0 0 1-.9-1.864 2.434 2.434 0 0 1 .971-1.969 3.835 3.835 0 0 1 2.52-.794 3.75 3.75 0 0 1 2.646.909c.622.521.972 1.296.95 2.104v.043h-1.313a1.878 1.878 0 0 0-.587-1.431 2.392 2.392 0 0 0-1.688-.548 2.381 2.381 0 0 0-1.574.462 1.491 1.491 0 0 0-.543 1.199c0 .44.222.85.59 1.095a5.602 5.602 0 0 0 1.922.773 5.438 5.438 0 0 1 2.434 1.163c.544.484.85 1.178.839 1.904.016.78-.36 1.515-1.005 1.96a4.332 4.332 0 0 1-2.617.742 4.565 4.565 0 0 1-2.682-.823 2.474 2.474 0 0 1-1.133-2.19v-.044h1.31c-.032.583.24 1.14.72 1.475a3.01 3.01 0 0 0 1.775.508 2.8 2.8 0 0 0 1.645-.433c.394-.263.625-.71.612-1.18v-.001zm4.924-6.757v1.79h1.44v1.013h-1.44v4.559c-.028.266.05.532.22.74a.784.784 0 0 0 .58.215c.088-.001.176-.01.262-.028.086-.016.17-.038.252-.068l.184.93c-.135.1-.288.17-.45.208a2.282 2.282 0 0 1-.598.082 1.773 1.773 0 0 1-1.328-.504 2.184 2.184 0 0 1-.493-1.575v-4.545h-1.2v-1.013h1.2v-1.79l1.371-.014zm7.747 9.294a12.035 12.035 0 0 1-.108-.597 4.207 4.207 0 0 1-.043-.526c-.266.37-.607.678-1.001.905-.401.236-.859.36-1.325.358a2.49 2.49 0 0 1-1.8-.601 2.209 2.209 0 0 1-.612-1.65 1.919 1.919 0 0 1 .871-1.679 4.098 4.098 0 0 1 2.369-.604h1.494v-.741a1.36 1.36 0 0 0-.407-1.042 1.581 1.581 0 0 0-1.141-.386c-.388-.018-.77.1-1.08.336a1.011 1.011 0 0 0-.417.806h-1.307v-.04a1.81 1.81 0 0 1 .774-1.496c.6-.468 1.35-.708 2.113-.676a3.13 3.13 0 0 1 2.063.644c.536.47.823 1.16.777 1.868v3.604c0 .258.014.516.043.773.029.25.08.497.155.737l-1.418.007zm-2.275-1.005c.475.006.94-.126 1.342-.38.35-.196.625-.502.782-.87v-1.212h-1.541a1.994 1.994 0 0 0-1.325.411c-.31.23-.495.59-.5.974-.016.295.098.582.313.787.261.21.593.315.929.29zm9.046-5.279l-.72-.043a1.592 1.592 0 0 0-.914.254c-.256.18-.455.429-.576.716v5.368h-1.372v-7.5h1.224l.137 1.074c.187-.359.458-.668.788-.902a1.842 1.842 0 0 1 1.08-.326c.098 0 .196.008.292.025.078.008.155.025.23.05l-.17 1.285.001-.001zm3.25-3.01v1.79h1.44v1.013h-1.44v4.559c-.026.266.053.532.22.74a.793.793 0 0 0 .58.215c.088-.001.176-.01.262-.028a1.61 1.61 0 0 0 .256-.068l.18.93c-.134.1-.287.17-.45.208a2.246 2.246 0 0 1-.594.082 1.769 1.769 0 0 1-1.328-.504 2.166 2.166 0 0 1-.497-1.575v-4.545h-1.18v-1.013H56.4v-1.79l1.357-.014zm211.037 34.25h-4.644v3.6h5.353v1.073h-6.724V81.769h6.648v1.074h-5.277V86.1h4.644v1.085zm3.286-2.817l.098 1.116c.232-.38.556-.698.943-.923.392-.225.84-.339 1.292-.33a2.46 2.46 0 0 1 1.886.716c.496.619.735 1.404.67 2.194v4.724h-1.375v-4.71c.048-.5-.092-1-.393-1.402A1.583 1.583 0 0 0 274 85.34a1.94 1.94 0 0 0-1.047.283c-.304.19-.552.457-.72.773v5.46h-1.375v-7.49h1.223l-.001.002zm6.566 3.883a4.952 4.952 0 0 1 .774-2.91 2.525 2.525 0 0 1 2.16-1.11c.406-.008.808.074 1.177.24.343.168.642.413.871.716v-4.133H285V91.85h-1.12l-.162-.92c-.229.336-.54.61-.903.795-.389.187-.817.28-1.25.272a2.595 2.595 0 0 1-2.159-.995 4.114 4.114 0 0 1-.778-2.613l.018-.14v.002zm1.368.146c-.03.64.133 1.272.468 1.818.33.462.874.72 1.44.68.364.012.723-.084 1.033-.275.288-.198.522-.465.68-.777V86.35a2.107 2.107 0 0 0-.683-.737 1.8 1.8 0 0 0-1.015-.272 1.57 1.57 0 0 0-1.458.805 4.162 4.162 0 0 0-.472 2.105l.007.146z"/><path fill="#999" d="M90.845 173.268l-.72 3.608H89l1.69-8.319h2.882c.66-.053 1.312.17 1.801.617.412.486.548 1.144.36 1.75-.08.425-.27.824-.554 1.156a2.802 2.802 0 0 1-1.081.73c.35.13.63.397.771.738.14.388.162.807.065 1.206l-.159.784a2.57 2.57 0 0 0-.065.71c.01.178.075.349.184.49l-.032.141h-1.157a.775.775 0 0 1-.155-.567 4.89 4.89 0 0 1 .105-.78l.158-.763a1.398 1.398 0 0 0-.13-1.107.99.99 0 0 0-.878-.39l-1.96-.004zm.18-.887h1.64c.464.023.924-.11 1.303-.376.342-.274.57-.661.642-1.089.12-.373.068-.778-.14-1.11a1.35 1.35 0 0 0-1.082-.355h-1.75l-.613 2.93zm7.681 4.615a2.046 2.046 0 0 1-1.801-.865 2.941 2.941 0 0 1-.39-2.228l.04-.255c.113-.84.5-1.62 1.103-2.225a2.688 2.688 0 0 1 1.902-.848c.65-.06 1.283.23 1.654.76.35.609.457 1.327.302 2.011l-.115.71h-3.776a2.422 2.422 0 0 0 .177 1.496c.202.375.611.595 1.04.561.328.002.653-.055.96-.17.283-.1.546-.25.777-.44l.321.734a2.933 2.933 0 0 1-.904.543c-.413.152-.85.226-1.29.216zm.72-5.537a1.31 1.31 0 0 0-.943.482 2.808 2.808 0 0 0-.652 1.189v.035h2.583l.021-.149a1.718 1.718 0 0 0-.133-1.124.936.936 0 0 0-.872-.433h-.004zm6.42 3.774a.702.702 0 0 0-.154-.617 1.995 1.995 0 0 0-.919-.412 3.496 3.496 0 0 1-1.506-.67 1.152 1.152 0 0 1-.36-1.142c.084-.524.378-.992.818-1.299a2.702 2.702 0 0 1 1.679-.518 2.007 2.007 0 0 1 1.52.557c.35.356.494.862.382 1.345v.035h-1.08a.876.876 0 0 0-.205-.767.906.906 0 0 0-.747-.297 1.305 1.305 0 0 0-.847.266c-.201.16-.338.385-.385.635a.635.635 0 0 0 .137.586c.269.192.58.32.908.376a3.42 3.42 0 0 1 1.545.68c.32.292.457.733.36 1.154a1.966 1.966 0 0 1-.846 1.344 2.967 2.967 0 0 1-1.744.497 2.179 2.179 0 0 1-1.646-.607 1.491 1.491 0 0 1-.408-1.398v-.032h1.081a.919.919 0 0 0 .263.873c.24.188.54.286.847.277.316.01.627-.077.89-.249a.922.922 0 0 0 .418-.617h-.001zm4.652 1.763a2.046 2.046 0 0 1-1.801-.865 2.941 2.941 0 0 1-.39-2.228l.04-.255c.113-.84.5-1.62 1.103-2.225a2.688 2.688 0 0 1 1.902-.848c.65-.06 1.283.23 1.654.76.35.609.457 1.327.302 2.011l-.115.71h-3.776c-.103.505-.04 1.03.177 1.496.202.375.611.595 1.041.561.327.002.652-.055.958-.17.284-.1.547-.25.779-.44l.317.734a2.85 2.85 0 0 1-.901.543c-.413.152-.85.225-1.29.216zm.72-5.537a1.31 1.31 0 0 0-.943.482 2.808 2.808 0 0 0-.652 1.189v.035h2.583l.021-.149a1.718 1.718 0 0 0-.133-1.124.936.936 0 0 0-.872-.433h-.004zm5.73-2.263l-.307 1.493h1.08l-.165.834h-1.08l-.772 3.756c-.065.309-.058.518.029.625a.49.49 0 0 0 .41.163c.11 0 .218-.01.325-.025.122-.018.223-.035.299-.053v.77c-.149.083-.31.14-.48.17a2.995 2.995 0 0 1-.612.067 1.114 1.114 0 0 1-.936-.422 1.567 1.567 0 0 1-.148-1.295l.753-3.756h-.919l.17-.834h.918l.306-1.493h1.129zm10.782.24h-2.522l-1.51 7.45h-1.12l1.51-7.45h-2.497l.18-.886h6.125l-.166.887v-.001zm.692 7.44h-1.12l1.253-6.187h1.12l-1.253 6.187zm1.578-7.773h-1.12l.234-1.146h1.117l-.23 1.146H130zm2.277 2.32c.481-.55 1.18-.86 1.91-.848.32-.01.633.088.89.277.256.213.427.51.479.837.23-.333.53-.613.882-.82a2.208 2.208 0 0 1 1.128-.294c.507-.023.985.23 1.243.66.292.607.347 1.297.155 1.94l-.75 3.7h-1.127l.756-3.71a2.115 2.115 0 0 0 0-1.33.845.845 0 0 0-.796-.355c-.344.011-.67.16-.9.412a2.47 2.47 0 0 0-.617 1.014v.029l-.796 3.93h-1.127l.756-3.71a2.07 2.07 0 0 0-.025-1.306.817.817 0 0 0-.79-.355 1.461 1.461 0 0 0-.788.217 2 2 0 0 0-.598.61l-.926 4.558h-1.12l1.25-6.186h1.001l-.09.73zm10.045 5.573a2.048 2.048 0 0 1-1.802-.865 2.945 2.945 0 0 1-.389-2.228l.04-.255c.113-.84.5-1.62 1.102-2.225a2.687 2.687 0 0 1 1.903-.848c.65-.06 1.283.23 1.653.76.35.609.458 1.326.303 2.011l-.115.71h-3.776a2.407 2.407 0 0 0 .176 1.496c.203.375.612.595 1.042.561.327.002.652-.055.958-.17.284-.1.547-.25.778-.44l.32.734a2.94 2.94 0 0 1-.903.543c-.413.152-.85.225-1.29.216zm.72-5.537a1.31 1.31 0 0 0-.944.482 2.808 2.808 0 0 0-.652 1.189v.035h2.584l.021-.149a1.718 1.718 0 0 0-.133-1.124.936.936 0 0 0-.872-.433h-.004zm123.105-31.65h-2.295l-1.383 6.818h-1.027l1.383-6.818h-2.287l.165-.809h5.6l-.156.809zm2.202 6.818v-.422c0-.11 0-.22.036-.337a3.305 3.305 0 0 1-.815.62c-.282.16-.6.245-.926.249a1.41 1.41 0 0 1-1.16-.461 1.422 1.422 0 0 1-.212-1.242 1.89 1.89 0 0 1 .864-1.295 3.327 3.327 0 0 1 1.78-.432h.987l.112-.564a.952.952 0 0 0-.119-.802.9.9 0 0 0-.746-.273 1.35 1.35 0 0 0-.807.255.996.996 0 0 0-.432.607h-.97v-.032c.096-.474.384-.89.797-1.15a2.767 2.767 0 0 1 1.65-.496c.503-.026.995.156 1.355.503.347.38.467.91.317 1.398l-.555 2.732a5.926 5.926 0 0 0-.094.592 2.808 2.808 0 0 0 0 .55h-1.062zm-1.362-.756c.31-.006.612-.09.879-.244.27-.142.506-.34.692-.582l.212-1.043h-1.027a1.521 1.521 0 0 0-.947.32 1.209 1.209 0 0 0-.501.733.581.581 0 0 0 .083.617c.144.173.376.25.598.2h.01l.001-.001zm7.295-4.001l-.562-.032a1.142 1.142 0 0 0-.648.195c-.21.145-.386.335-.512.557l-.821 4.037h-1.027l1.15-5.676h.925l-.065.76c.178-.258.407-.476.674-.64.31-.19.678-.263 1.038-.209.062.01.124.024.184.043l-.336.965zm.307 1.923c.118-.802.446-1.56.95-2.2a2.138 2.138 0 0 1 1.676-.741c.294-.004.584.067.843.205.25.137.459.338.602.582l.223-.68h.876l-1.135 5.597a2.996 2.996 0 0 1-.962 1.774 2.838 2.838 0 0 1-1.87.596 3.192 3.192 0 0 1-.807-.117 2.547 2.547 0 0 1-.739-.302l.422-.802c.176.117.37.202.576.252.235.067.477.1.721.1.4.015.79-.128 1.08-.398.302-.298.5-.681.566-1.096l.08-.39a2.095 2.095 0 0 1-1.456.571 1.539 1.539 0 0 1-1.409-.82 2.797 2.797 0 0 1-.237-2.014v-.117zm1.005.11c-.132.478-.104.985.08 1.447a.986.986 0 0 0 .968.55c.245.002.485-.072.685-.213.225-.163.416-.367.562-.603l.537-2.643a1.248 1.248 0 0 0-.425-.546 1.17 1.17 0 0 0-.7-.203 1.282 1.282 0 0 0-1.08.575 3.786 3.786 0 0 0-.62 1.526l-.007.11zm6.773 2.834a1.883 1.883 0 0 1-1.64-.791 2.705 2.705 0 0 1-.36-2.043l.04-.231c.1-.77.455-1.487 1.01-2.04a2.46 2.46 0 0 1 1.74-.78 1.67 1.67 0 0 1 1.516.71 2.52 2.52 0 0 1 .277 1.837l-.104.649h-3.47c-.094.463-.037.945.163 1.373.19.343.563.543.954.51a2.506 2.506 0 0 0 1.59-.556l.295.67a2.564 2.564 0 0 1-.833.5 3.175 3.175 0 0 1-1.178.192zm.667-5.07a1.197 1.197 0 0 0-.865.44c-.289.307-.495.68-.598 1.086v.032h2.385l.018-.135c.08-.347.036-.71-.122-1.029a.858.858 0 0 0-.818-.393v-.001zm5.245-2.075l-.284 1.366H289l-.155.763h-.998l-.695 3.444a.75.75 0 0 0 .025.575.454.454 0 0 0 .378.15c.1-.003.198-.012.296-.026.115-.018.205-.028.274-.046v.71a1.464 1.464 0 0 1-.44.152c-.185.04-.373.06-.562.06a1.038 1.038 0 0 1-.861-.386 1.438 1.438 0 0 1-.133-1.185l.698-3.445h-.843l.155-.762h.84l.284-1.366 1.016-.004z"/><path fill="#FFF" d="M205.899 171.306h.05l2.122-10.24h2.908L207.521 176h-2.766l-2.737-9.859h-.06L199.235 176h-2.755L193 161.067h2.916l2.143 10.228h.061l2.787-10.24h2.183l2.809 10.25v.001zm9.654-9.061h-2.98V160h2.98v2.245zm0 13.755h-2.98v-11.098h2.98V176zm5.174-11.098l.132 1.591a3.938 3.938 0 0 1 1.358-1.321 3.48 3.48 0 0 1 1.786-.474 3.306 3.306 0 0 1 2.612 1.056 4.902 4.902 0 0 1 .94 3.31V176h-2.99v-6.939a2.25 2.25 0 0 0-.451-1.587 1.779 1.779 0 0 0-1.354-.47 2.278 2.278 0 0 0-1.072.244 2.18 2.18 0 0 0-.786.682V176h-2.98v-11.098h2.805zM233 170.853h-2.98v-9.786H233v9.786zm0 5.147h-2.98v-2.625H233V176z"/></g></svg>