<svg xmlns="http://www.w3.org/2000/svg" width="299" height="197" viewBox="0 0 299 197">
    <g fill="none">
        <path fill="#FFF" d="M0 0L299 0 299 197 0 197z"/>
        <path fill="#D6DADB" d="M1.987 1.98v193.04h295.026V1.98H1.987zM299 0v197H0V0h299z"/>
        <path fill="#F2F3F4" d="M9.765 57.597V56.43h279.823v1.167H9.765zm0 39.175v-1.167h279.823v1.167H9.765zm0 39.175v-1.167h279.823v1.167H9.765zm0 39.14v-1.168h279.823v1.168H9.765zM42.977 37.444h1.168v154.318h-1.168V37.444zm35.42 0h1.168v154.318h-1.167V37.444h-.001zm36.553 0v77.73h69.634v-77.73h1.168v77.73h34.217v-77.73h1.168v77.73h68.451v1.168h-68.451v75.42h-1.168v-75.42h-34.217v75.42h-1.168v-75.42H114.95v75.42h-1.168v-75.42H9.765v-1.168h104.017v-77.73h1.168z"/>
        <path fill="#2A3052" d="M255.39 37.444h1.167v154.318h-1.167V37.444zM9.765 77.202v-1.167h279.823v1.167H9.765z"/>
        <path fill="#D6DADB" d="M2 37.456L2 35.12 297 35.12 297 37.456zM44.17 155.022c-.705.662-1.813.627-2.476-.077-.662-.705-.627-1.814.078-2.476l40.078-37.65c.431-.405 1.037-.565 1.612-.425l36.942 8.976 27.153-48.706c.254-.456.7-.775 1.213-.87.514-.094 1.043.046 1.443.382l34.96 29.378 34.693-1.918c.351-.02.7.068 1.001.25l35.42 21.361c.828.5 1.095 1.576.596 2.404-.5.828-1.576 1.095-2.404.596l-34.959-21.084-34.846 1.926c-.445.024-.882-.121-1.223-.408l-33.868-28.46-26.768 48.018c-.383.688-1.178 1.036-1.943.85l-37.315-9.067-39.387 37z"/>
        <circle cx="255.383" cy="123.41" r="7.836" fill="#FFF" opacity=".6"/>
        <circle cx="42.97" cy="153.895" r="7.836" fill="#FFF" opacity=".6"/>
        <circle cx="148.582" cy="76.644" r="7.836" fill="#FFF" opacity=".6"/>
        <path fill="#FF444F" d="M150.37 190.147v1.615h-1.167v-1.615h1.167zm0-11.746v5.873h-1.167v-5.873h1.167zm0-11.747v5.873h-1.167v-5.873h1.167zm-107.4-21.74c4.96 0 8.981 4.02 8.981 8.981 0 4.96-4.02 8.981-8.981 8.981-4.406 0-8.071-3.173-8.835-7.358l-.877-.001v-1.167H34c-.007-.15-.011-.302-.011-.455 0-4.96 4.02-8.981 8.981-8.981zm107.4 9.994v5.873h-1.167v-5.873h1.167zm-107.4-7.705c-3.696 0-6.692 2.996-6.692 6.692 0 .153.005.305.015.456l2.838-.001v1.167h-2.655c.725 2.912 3.358 5.07 6.494 5.07 3.136 0 5.769-2.158 6.494-5.07h-4.459v-1.167h4.642c.01-.15.015-.302.015-.455 0-3.696-2.996-6.692-6.692-6.692zm231.09 7.147v1.167h-5.873v-1.167h5.873zm-11.746 0v1.167h-5.874v-1.167h5.874zm-11.747 0v1.167h-5.873v-1.167h5.873zm-11.746 0v1.167h-5.874v-1.167h5.874zm-11.747 0v1.167h-5.873v-1.167h5.873zm-11.746 0v1.167h-5.873v-1.167h5.873zm-11.747 0v1.167h-5.873v-1.167h5.873zm-11.746 0v1.167h-5.873v-1.167h5.873zm-176.196 0v1.167H9.765v-1.167h5.874zm11.746 0v1.167h-5.873v-1.167h5.873zm35.239 0v1.167h-5.873v-1.167h5.873zm117.465 0v1.167h-5.874v-1.167h5.874zm-93.972 0v1.167h-5.873v-1.167h5.873zm11.747 0v1.167H91.99v-1.167h5.874zm11.746 0v1.167h-5.873v-1.167h5.873zm11.746 0v1.167h-5.873v-1.167h5.873zm11.747 0v1.167h-5.873v-1.167h5.873zm11.746 0v1.167h-5.873v-1.167h5.873zm11.747 0v1.167h-5.874v-1.167h5.874zm11.746 0v1.167h-5.873v-1.167h5.873zm117.464 0v1.167h-5.873v-1.167h5.873zm-211.435 0v1.167h-5.874v-1.167h5.874zm75.999-11.189v5.874h-1.167v-5.874h1.167zm0-11.746v5.873h-1.167v-5.873h1.167zm105.013-16.986c4.96 0 8.981 4.02 8.981 8.981 0 4.96-4.02 8.981-8.981 8.981v-.001c-4.96 0-8.98-4.02-8.98-8.98 0-4.96 4.02-8.981 8.98-8.981zm0 2.289c-3.696 0-6.692 2.996-6.692 6.692s2.996 6.692 6.692 6.692 6.692-2.996 6.692-6.692-2.996-6.692-6.692-6.692zm-105.013 2.951v5.873h-1.167v-5.873h1.167zm0-11.747v5.873h-1.167v-5.873h1.167zm0-11.746v5.873h-1.167v-5.873h1.167zm-1.789-28.513c4.96 0 8.98 4.02 8.98 8.98 0 4.347-3.088 7.973-7.19 8.803l-.001 4.856h-1.167v-4.7c-.205.015-.413.022-.622.022-4.96 0-8.98-4.02-8.98-8.98 0-4.96 4.02-8.981 8.98-8.981zm0 2.288c-3.696 0-6.692 2.996-6.692 6.693 0 3.696 2.996 6.692 6.692 6.692s6.693-2.996 6.693-6.692c0-3.697-2.997-6.693-6.693-6.693zm1.789 2.732v5.873h-1.167v-5.873h1.167zm0-11.747v5.874h-1.167v-5.874h1.167zm0-11.746v5.873h-1.167V49.19h1.167zm0-11.746v5.873h-1.167v-5.873h1.167z"/>
        <path fill="#4BB4B3" d="M258.65 150.92h-37.126l-5.28-7.898-5.28 7.9h-37.142c-1.226 0-2.402.487-3.269 1.354-.866.867-1.353 2.043-1.353 3.269v23.875c0 1.226.487 2.402 1.353 3.269.867.867 2.043 1.354 3.269 1.354h84.829c1.226 0 2.402-.487 3.269-1.354.866-.867 1.353-2.043 1.353-3.269v-23.879c0-2.553-2.07-4.622-4.622-4.622l-.001.001z"/>
        <path fill="#333" d="M20.733 18.4v3.887h-1.955v-9.731h3.673c.929-.055 1.848.212 2.602.757.638.52.988 1.312.943 2.133.01.463-.129.916-.395 1.294-.3.39-.699.693-1.156.875.503.122.943.425 1.238.85.265.443.397.952.38 1.468v.711c.002.288.038.575.107.854.05.255.185.486.38.658v.138h-2.012c-.203-.184-.33-.437-.356-.71-.049-.317-.072-.637-.07-.957v-.694c.025-.415-.12-.823-.4-1.13-.3-.283-.704-.429-1.116-.402h-1.863V18.4zm0-1.507h1.686c.438.033.873-.093 1.226-.355.285-.263.435-.641.406-1.028.02-.396-.128-.783-.406-1.066-.33-.285-.76-.427-1.194-.395h-1.718v2.844zm10.134 5.533c-.935.04-1.843-.324-2.49-1-.635-.694-.972-1.61-.938-2.549v-.266c-.039-.963.278-1.907.889-2.653.59-.694 1.466-1.077 2.375-1.038.85-.051 1.68.272 2.272.885.567.662.858 1.516.81 2.386v1.067h-4.323v.039c.02.435.189.85.48 1.173.3.302.713.462 1.138.441.36.009.72-.036 1.067-.131.325-.104.639-.242.935-.413l.53 1.209c-.348.268-.74.471-1.16.6-.511.168-1.047.253-1.585.25zm-.167-5.998c-.336-.014-.656.14-.854.412-.232.32-.371.698-.402 1.092l.022.032h2.393v-.175c.017-.355-.085-.706-.292-.995-.217-.25-.537-.385-.867-.366zm8.128 3.868c-.005-.224-.121-.43-.31-.551-.355-.213-.747-.355-1.155-.42-.695-.106-1.356-.369-1.935-.768-.43-.333-.672-.854-.65-1.397.002-.62.292-1.206.786-1.582.6-.46 1.345-.691 2.1-.654.787-.04 1.563.189 2.202.65.521.38.818.995.79 1.64v.035h-1.889c.012-.265-.088-.522-.274-.711-.224-.196-.517-.294-.814-.274-.268-.013-.533.068-.747.231-.173.142-.273.356-.27.58-.002.218.105.423.285.547.355.202.746.33 1.152.38.708.105 1.383.37 1.973.776.43.343.67.872.647 1.422.008.639-.306 1.238-.835 1.596-.649.44-1.423.655-2.205.616-.825.046-1.638-.214-2.283-.73-.517-.397-.814-1.016-.8-1.667v-.039h1.778c-.015.325.127.637.38.84.28.184.61.274.943.259.29.02.58-.054.825-.21.19-.127.305-.34.306-.569zm6.353 2.13c-.935.04-1.841-.325-2.489-1-.633-.695-.968-1.61-.935-2.549v-.266c-.038-.963.277-1.906.886-2.653 1.243-1.323 3.322-1.391 4.65-.153.565.663.853 1.517.807 2.386v1.067h-4.33v.039c.02.434.188.848.476 1.173.301.313.722.48 1.156.459.36.009.72-.036 1.066-.132.327-.104.642-.242.94-.412l.525 1.209c-.346.267-.738.47-1.155.6-.516.164-1.056.242-1.597.232zm-.177-5.998c-.335-.013-.655.141-.854.412-.226.322-.36.7-.387 1.092l.017.032h2.393v-.175c.017-.354-.084-.704-.288-.995-.22-.254-.546-.39-.881-.366zm6.538-3.144v1.778h1.216v1.373h-1.216v3.673c-.02.216.043.431.174.604.125.133.301.206.484.2.088.005.176.005.263 0 .087-.015.172-.035.256-.061l.17 1.422c-.188.062-.38.112-.575.15-.2.034-.404.049-.608.045-.572.04-1.134-.16-1.554-.55-.41-.497-.607-1.136-.548-1.778v-3.712h-1.066v-1.373h1.066v-1.778l1.938.007zm7.982 5.472v3.531h-1.952v-9.731h3.872c.955-.055 1.897.25 2.639.853.642.57.995 1.396.963 2.254.034.856-.32 1.681-.963 2.247-.744.6-1.685.901-2.639.846h-1.92zm0-1.504h1.92c.456.034.905-.127 1.234-.444.286-.306.438-.713.423-1.13.02-.428-.128-.847-.412-1.167-.33-.325-.784-.49-1.245-.451h-1.92v3.192zm11.222 3.993c-.203.36-.494.663-.846.879-.977.527-2.184.354-2.973-.427-.482-.656-.71-1.465-.643-2.276v-4.366h1.944v4.391c-.033.397.06.794.267 1.134.19.24.484.373.79.356.274.008.546-.043.8-.15.218-.099.407-.252.55-.444v-5.287h1.953v7.232H70.92l-.174-1.042zm5.632-7.96v1.777h1.22v1.373h-1.22v3.673c-.02.216.043.431.174.604.125.122.295.188.47.181.087.006.175.006.262 0 .088-.014.175-.034.26-.06l.167 1.422c-.189.062-.381.113-.576.15-.2.034-.404.05-.608.046-.572.038-1.134-.161-1.554-.551-.409-.498-.604-1.137-.544-1.778v-3.694h-1.066v-1.373h1.066v-1.778l1.949.007v.001zM33.396 173.856c.007-.44-.182-.86-.516-1.148-.542-.395-1.167-.66-1.828-.772-.904-.18-1.754-.563-2.488-1.12-.562-.443-.885-1.123-.875-1.838-.008-.767.348-1.493.96-1.956.71-.55 1.592-.83 2.489-.79.956-.048 1.894.276 2.617.904.612.52.957 1.287.938 2.09v.043h-1.315c.02-.535-.191-1.053-.58-1.422-.465-.39-1.062-.585-1.667-.544-.555-.037-1.105.126-1.55.459-.354.292-.554.731-.541 1.19.001.438.22.846.583 1.089.58.373 1.223.633 1.899.768.886.177 1.714.575 2.407 1.155.536.482.836 1.172.825 1.892.016.774-.356 1.506-.992 1.948-.759.52-1.666.778-2.585.736-.947.013-1.874-.273-2.649-.817-.733-.475-1.158-1.304-1.116-2.176v-.043h1.29c-.032.578.237 1.132.711 1.465.517.348 1.13.525 1.753.505.574.03 1.142-.12 1.625-.43.393-.265.622-.714.605-1.188zm4.86-6.713v1.778h1.422v1.006h-1.422v4.52c-.026.262.052.525.217.732.154.145.36.222.572.213.087-.002.174-.011.26-.028.086-.016.17-.038.252-.068l.178.928c-.133.097-.284.166-.444.203-.191.053-.389.08-.587.081-.49.024-.966-.157-1.316-.5-.36-.437-.534-.998-.487-1.562v-4.505h-1.18v-1.006h1.18v-1.778l1.355-.014zm7.652 9.234c-.043-.228-.082-.427-.104-.594-.028-.173-.043-.348-.046-.523-.261.366-.597.673-.985.9-.397.234-.85.357-1.312.356-.648.045-1.288-.17-1.777-.598-.421-.438-.642-1.032-.608-1.639-.023-.669.304-1.3.864-1.667.7-.436 1.517-.646 2.34-.601h1.471v-.736c.02-.386-.125-.762-.398-1.035-.31-.27-.716-.407-1.127-.38-.383-.018-.76.099-1.067.33-.255.187-.406.484-.409.8h-1.283v-.039c-.003-.591.284-1.146.768-1.486.593-.467 1.333-.705 2.087-.672.733-.036 1.454.191 2.034.64.53.466.815 1.151.771 1.856v3.58c0 .257.013.513.04.768.027.249.078.494.152.733l-1.411.007zm-2.248-1c.47.007.93-.124 1.327-.376.345-.195.616-.499.771-.864v-1.205H44.24c-.472-.025-.938.12-1.312.408-.305.23-.486.589-.49.971-.016.292.097.577.309.779.256.209.583.312.913.288v-.001zm8.94-5.244l-.712-.042c-.32-.01-.635.078-.903.252-.251.18-.447.426-.565.711v5.334h-1.36v-7.453h1.213l.131 1.067c.186-.356.452-.663.779-.896.313-.217.686-.33 1.067-.324.096 0 .193.008.288.025.077.008.153.025.227.05l-.167 1.276h.002zm3.21-2.99v1.778h1.422v1.006H55.81v4.52c-.027.263.05.526.217.732.153.146.36.223.572.213.082.003.164-.002.245-.014.086-.015.171-.038.253-.068l.181.928c-.133.096-.284.165-.444.203-.192.054-.39.081-.59.082-.488.024-.964-.158-1.312-.502-.36-.437-.535-.996-.488-1.56v-4.52H53.29v-1.006h1.184v-1.778l1.337-.014h-.001zm214.802-25.621h-4.587v3.577h5.287v1.066h-6.642v-10.012h6.574v1.067h-5.22v3.235h4.588v1.067zm3.242-2.798l.1 1.105c.23-.376.549-.69.928-.917.389-.22.83-.332 1.276-.324.695-.043 1.374.217 1.863.712.49.614.726 1.392.662 2.176v4.693h-1.355v-4.676c.047-.498-.09-.995-.388-1.397-.32-.297-.752-.445-1.187-.409-.365-.006-.723.092-1.035.281-.3.191-.544.457-.71.772v5.422h-1.356v-7.438h1.202zm6.486 3.857c-.047-1.02.221-2.031.768-2.894.472-.712 1.28-1.128 2.133-1.099.4-.007.795.074 1.159.239.34.166.636.41.864.71v-4.088h1.355v10.723h-1.11l-.156-.91c-.228.333-.536.604-.896.786-.382.189-.804.283-1.23.274-.83.038-1.628-.332-2.134-.992-.545-.751-.817-1.665-.771-2.592l.018-.157zm1.354.146c-.032.635.13 1.264.462 1.806.324.458.863.714 1.423.676.359.012.713-.084 1.017-.274.285-.198.517-.463.675-.771v-3.474c-.165-.295-.398-.546-.679-.733-.301-.186-.65-.28-1.003-.27-.589-.026-1.14.286-1.422.804-.337.643-.498 1.364-.466 2.09l-.007.146z"/>
        <path fill="#999" d="M90.58 61.284l-.712 3.616H88.76l1.664-8.338h2.845c.652-.05 1.296.174 1.777.618.407.487.54 1.146.356 1.753-.078.428-.267.828-.548 1.16-.293.325-.658.577-1.066.735.346.129.622.397.76.74.137.387.16.806.065 1.205l-.157.786c-.054.233-.075.472-.064.711.01.178.072.35.178.494l-.029.14H93.4c-.123-.161-.178-.364-.154-.566.013-.264.048-.527.103-.786l.157-.764c.11-.37.063-.77-.128-1.106-.201-.275-.532-.425-.871-.395l-1.927-.003zm.177-.89h1.618c.459.023.912-.108 1.287-.373.336-.277.56-.666.633-1.095.117-.373.066-.778-.139-1.11-.284-.272-.675-.402-1.066-.355h-1.757l-.576 2.934v-.001zm7.577 4.626c-.703.04-1.377-.288-1.778-.867-.414-.666-.55-1.468-.38-2.233l.04-.252c.108-.842.49-1.626 1.087-2.23.484-.526 1.162-.833 1.877-.85.642-.06 1.266.23 1.632.761.346.612.452 1.33.3 2.016l-.115.711h-3.73c-.102.507-.04 1.034.175 1.504.2.374.604.594 1.027.559.625 0 1.23-.217 1.714-.612l.313.736c-.26.238-.563.423-.892.548-.406.15-.837.221-1.27.21v-.001zm.711-5.546c-.364.021-.703.196-.931.48-.309.338-.53.747-.644 1.19v.036h2.55l.02-.149c.083-.378.037-.774-.13-1.123-.18-.298-.514-.469-.861-.441l-.004.007zm6.336 3.78c.05-.22-.009-.45-.156-.62-.26-.213-.571-.355-.903-.412-.542-.1-1.052-.329-1.486-.668-.321-.288-.458-.73-.356-1.149.084-.524.375-.992.807-1.301.477-.354 1.06-.536 1.653-.516.558-.038 1.106.166 1.504.559.346.356.488.863.377 1.347v.036h-1.066c.048-.263-.026-.533-.2-.736-.185-.221-.465-.34-.753-.32-.303-.014-.6.08-.84.266-.2.158-.334.385-.376.637-.055.206-.004.426.135.587.265.193.572.32.896.373.557.097 1.081.332 1.525.683.314.297.45.737.356 1.159-.079.546-.382 1.034-.836 1.347-.508.34-1.11.513-1.72.494-.604.042-1.197-.18-1.626-.608-.364-.366-.515-.893-.401-1.397v-.035h1.066c-.076.317.023.65.26.874.236.19.533.289.835.278.311.01.618-.076.879-.246.226-.14.38-.37.426-.633v.001zm4.587 1.766c-.703.042-1.378-.287-1.778-.867-.415-.665-.552-1.468-.38-2.233l.039-.252c.109-.842.49-1.626 1.088-2.23.484-.527 1.162-.834 1.877-.85.642-.06 1.266.23 1.632.761.345.612.452 1.33.299 2.016l-.117.711h-3.734c-.102.507-.041 1.034.174 1.504.201.374.605.594 1.028.559.625 0 1.23-.217 1.714-.612l.313.736c-.26.238-.563.423-.893.548-.403.149-.832.22-1.262.21v-.001zm.711-5.546c-.364.021-.703.196-.931.48-.31.337-.531.746-.644 1.19v.036h2.546l.025-.149c.082-.379.036-.774-.132-1.123-.18-.297-.511-.467-.857-.441l-.007.007zm5.657-2.269l-.302 1.497h1.066l-.167.832h-1.066l-.75 3.77c-.074.204-.064.429.028.625.101.116.252.176.405.16.207 0 .414-.026.615-.078v.775c-.147.081-.307.14-.473.17-.199.04-.401.062-.604.064-.359.02-.704-.139-.924-.423-.232-.39-.285-.862-.146-1.294l.75-3.769h-.907l.167-.832h.907l.302-1.497h1.099zm10.642.239h-2.49L123 64.91h-1.088l1.49-7.466h-2.464l.178-.89h6.044l-.181.89h-.001zm.682 7.456h-1.105l1.237-6.198h1.106L127.66 64.9zm1.558-7.787h-1.106l.228-1.152h1.105l-.227 1.152zm2.243 2.325c.47-.552 1.163-.864 1.888-.85.673-.041 1.263.445 1.351 1.113.226-.334.523-.614.872-.817.336-.199.721-.301 1.112-.296.499-.026.97.228 1.224.658.29.607.346 1.3.156 1.945l-.74 3.709h-1.112l.746-3.72c.137-.434.137-.9 0-1.333-.176-.255-.478-.391-.786-.355-.34.012-.66.162-.888.416-.282.285-.49.633-.608 1.016v.029l-.786 3.936h-1.113l.747-3.72c.131-.426.122-.883-.025-1.304-.166-.265-.469-.41-.779-.373-.275-.004-.546.073-.779.22-.239.158-.44.367-.59.612l-.917 4.565h-1.106l1.237-6.197h.985l-.089.746zm9.913 5.582c-.703.042-1.378-.287-1.778-.867-.415-.665-.552-1.468-.38-2.233l.04-.252c.108-.842.49-1.626 1.087-2.23.484-.527 1.162-.834 1.877-.85.642-.06 1.266.23 1.632.761.346.612.452 1.33.3 2.016l-.118.711H140.3c-.102.507-.04 1.034.175 1.504.2.374.604.594 1.027.559.625 0 1.23-.217 1.714-.612l.313.736c-.26.238-.563.423-.893.548-.403.149-.832.22-1.262.21v-.001zm.711-5.546c-.364.021-.703.196-.931.48-.31.337-.531.746-.644 1.19l.018.036h2.546l.025-.149c.082-.379.036-.774-.132-1.123-.183-.303-.523-.474-.875-.441l-.007.007zM265.431 84.96h-2.265l-1.365 6.834h-1.013l1.365-6.834h-2.258l.164-.814h5.536l-.164.814zm2.173 6.834v-.427c0-.11.02-.22.039-.334-.235.247-.507.456-.807.619-.277.16-.59.247-.91.252-.435.035-.862-.137-1.15-.466-.256-.361-.333-.82-.209-1.244.086-.536.398-1.009.857-1.298.532-.308 1.141-.459 1.756-.434h.971l.11-.562c.083-.273.041-.568-.113-.807-.19-.2-.462-.3-.736-.273-.287-.003-.568.087-.8.256-.214.141-.367.358-.427.608h-.96v-.032c.095-.476.38-.892.79-1.152.475-.337 1.046-.51 1.628-.495.496-.027.98.155 1.337.502.345.387.463.926.312 1.422l-.547 2.734c-.043.196-.075.394-.096.594-.018.185-.018.37 0 .555l-1.045-.018zm-1.344-.758c.305-.007.604-.092.867-.248.27-.14.503-.34.683-.584l.21-1.045h-1.003c-.339-.001-.668.112-.935.32-.25.176-.426.438-.494.736-.068.206-.038.431.081.612.156.16.377.237.598.21h-.007v-.001zm7.2-4.01l-.555-.036c-.229-.002-.453.068-.64.2-.207.144-.38.334-.505.554l-.81 4.05h-1.014l1.138-5.69h.906l-.064.765c.177-.257.403-.476.665-.643.24-.147.516-.225.797-.224h.227c.062.01.122.023.182.042l-.327.982zm.305 1.927c.118-.804.441-1.563.939-2.205.41-.486 1.018-.76 1.653-.743.291-.004.579.066.836.203.246.137.45.339.59.583l.22-.683h.865l-1.12 5.611c-.098.686-.435 1.315-.95 1.778-.523.415-1.178.627-1.845.597-.27-.005-.537-.043-.797-.114-.25-.065-.49-.168-.71-.305l.412-.804c.173.118.366.204.569.256.231.064.47.096.71.096.395.017.78-.125 1.067-.395.297-.3.492-.685.559-1.102l.081-.387c-.388.37-.904.575-1.44.572-.584.016-1.124-.305-1.39-.825-.326-.62-.41-1.341-.234-2.02l-.015-.113zm.996.107c-.134.479-.106.988.078 1.45.17.367.554.588.957.551.242.002.478-.073.675-.213.221-.164.408-.37.551-.604l.53-2.65c-.086-.217-.232-.405-.42-.543-.2-.143-.44-.215-.686-.207-.43 0-.831.217-1.066.576-.314.46-.521.984-.608 1.533l-.011.107zm6.68 2.844c-.642.035-1.256-.267-1.62-.796-.384-.609-.512-1.345-.356-2.048l.035-.232c.102-.771.451-1.489.996-2.044.445-.481 1.065-.762 1.72-.779.591-.05 1.163.221 1.498.711.316.56.414 1.216.274 1.842l-.107.65h-3.424c-.093.466-.037.949.16 1.38.186.34.555.54.942.509.296.004.59-.047.868-.153.258-.094.498-.23.71-.405l.289.672c-.238.218-.516.388-.818.501-.373.138-.769.204-1.166.192h-.001zm.655-5.084c-.334.02-.644.18-.853.44-.283.31-.486.685-.59 1.092l.017.032h2.336l.022-.139c.074-.347.031-.71-.121-1.03-.172-.277-.487-.43-.811-.395zm5.18-2.08L287 86.108h.981l-.152.768h-.982l-.69 3.45c-.066.19-.056.397.029.579.09.099.221.152.355.146.098-.002.195-.01.292-.022.114 0 .203-.032.27-.05v.712c-.135.075-.282.127-.434.153-.182.042-.368.063-.554.064-.33.017-.646-.13-.846-.392-.213-.358-.262-.79-.136-1.187l.69-3.449h-.818l.15-.768h.828l.281-1.369 1.013-.003h-.001z"/>
        <path fill="#FFF" d="M208.471 171.05h.06l2.109-10.136h2.894l-3.445 14.784h-2.752l-2.713-9.76h-.06l-2.713 9.76h-2.752l-3.463-14.784h2.904l2.134 10.126h.06l2.774-10.137h2.183l2.78 10.148v-.001zm9.604-8.97h-2.966v-2.222h2.966v2.222zm0 13.618h-2.966V164.71h2.966v10.988zm5.17-10.987l.131 1.575c.336-.54.799-.988 1.348-1.308.546-.316 1.168-.478 1.799-.47.979-.054 1.93.33 2.599 1.046.7.943 1.032 2.108.935 3.278v6.866h-2.976v-6.87c.056-.562-.104-1.123-.448-1.571-.365-.337-.853-.506-1.348-.466-.37-.007-.735.076-1.066.242-.31.16-.577.391-.779.675v7.99h-2.965V164.71h2.77v.001zm12.195 5.892h-2.951v-9.69h2.965l-.014 9.69zm0 5.095h-2.951v-2.6h2.965l-.014 2.6z"/>
    </g>
</svg>
