<svg width="16" height="16" fill="none" xmlns="http://www.w3.org/2000/svg"><path d="M0 6.222A6.222 6.222 0 016.222 0h3.556A6.222 6.222 0 0116 6.222v3.556A6.222 6.222 0 019.778 16H6.222A6.222 6.222 0 010 9.778V6.222z" fill="#FF444F"/><path d="M10.037 3.315L9.521 6.24h-1.79c-1.671 0-3.264 1.353-3.56 3.024l-.124.711c-.294 1.671.821 3.025 2.492 3.025h1.493c1.218 0 2.378-.986 2.592-2.204L12 3l-1.963.316zm-1.27 7.206c-.066.376-.405.683-.781.683h-.908c-.75 0-1.253-.61-1.121-1.362l.078-.444c.133-.75.85-1.362 1.6-1.362h1.57l-.439 2.485z" fill="#fff"/></svg>