<svg width="16" height="16" fill="none" xmlns="http://www.w3.org/2000/svg"><g clip-path="url(#prefix__clip0_6702_12001)"><path d="M8 0a8 8 0 110 16A8 8 0 018 0zm0 1a7 7 0 100 14A7 7 0 008 1zm2.854 4.146a.5.5 0 01.057.638l-.057.07-1.131 1.13a2 2 0 11-.707-.707l1.13-1.13a.5.5 0 01.708 0zM8 7a1 1 0 100 2 1 1 0 000-2zm0-5a6 6 0 016 6 .5.5 0 01-1 0A5 5 0 003 8a.5.5 0 01-1 0 6 6 0 016-6z" fill="#333"/></g><defs><clipPath id="prefix__clip0_6702_12001"><path fill="#fff" d="M0 0h16v16H0z"/></clipPath></defs></svg>