<svg width="16" height="16" fill="none" xmlns="http://www.w3.org/2000/svg"><g clip-path="url(#prefix__clip0_6702_11983)"><path d="M8 0a8 8 0 110 16A8 8 0 018 0zm1.5 10h-3A1.5 1.5 0 005 11.5v2.826c.91.432 1.927.674 3 .674a6.972 6.972 0 003-.674V11.5A1.5 1.5 0 009.5 10zM8 1a7 7 0 00-4 12.745V11.5A2.5 2.5 0 016.5 9h3a2.5 2.5 0 012.5 2.5l.001 2.244A7 7 0 008 1zm0 1a3 3 0 110 6 3 3 0 010-6zm0 1a2 2 0 100 4 2 2 0 000-4z" fill="#333"/></g><defs><clipPath id="prefix__clip0_6702_11983"><path fill="#fff" d="M0 0h16v16H0z"/></clipPath></defs></svg>