<svg width="133" height="32" fill="none" xmlns="http://www.w3.org/2000/svg"><path d="M6 0a6 6 0 00-6 6v.174l29.914-4.721A5.977 5.977 0 0026 0H6zM30.532 2.068L25.044 32H26a6 6 0 006-6V6c0-1.504-.554-2.88-1.468-3.932z" fill="#2A3052"/><path fill-rule="evenodd" clip-rule="evenodd" d="M25.044 32H6a6 6 0 01-6-6V6.174l29.914-4.721c.22.19.427.395.617.615L25.044 32z" fill="#384177"/><path d="M11.052 20.97c-.532 0-1.064-.019-1.596-.056a10.576 10.576 0 01-1.638-.224v-9.408a12.92 12.92 0 011.47-.182 17.08 17.08 0 011.484-.07c.616 0 1.18.047 1.694.14.522.084.97.233 1.344.448.373.215.662.5.868.854.214.345.322.775.322 1.288 0 .775-.374 1.386-1.12 1.834.616.233 1.036.55 1.26.952.224.401.336.854.336 1.358 0 1.017-.374 1.783-1.12 2.296-.738.513-1.839.77-3.304.77zm-1.106-4.354v2.506c.158.019.331.033.518.042.186.01.392.014.616.014.653 0 1.18-.093 1.582-.28.401-.187.602-.532.602-1.036 0-.448-.168-.765-.504-.952-.336-.196-.817-.294-1.442-.294H9.946zm0-1.666h1.064c.672 0 1.152-.084 1.442-.252.289-.177.434-.457.434-.84 0-.392-.15-.667-.448-.826-.299-.159-.738-.238-1.316-.238-.187 0-.388.005-.602.014-.215 0-.406.01-.574.028v2.114zM19.758 20.97c-.532 0-1.064-.019-1.596-.056a10.575 10.575 0 01-1.638-.224v-9.408a12.92 12.92 0 011.47-.182 17.08 17.08 0 011.484-.07c.616 0 1.18.047 1.694.14.523.084.97.233 1.344.448.373.215.663.5.868.854.215.345.322.775.322 1.288 0 .775-.373 1.386-1.12 1.834.616.233 1.036.55 1.26.952.224.401.336.854.336 1.358 0 1.017-.373 1.783-1.12 2.296-.737.513-1.839.77-3.304.77zm-1.106-4.354v2.506c.159.019.331.033.518.042.187.01.392.014.616.014.653 0 1.18-.093 1.582-.28.401-.187.602-.532.602-1.036 0-.448-.168-.765-.504-.952-.336-.196-.817-.294-1.442-.294h-1.372zm0-1.666h1.064c.672 0 1.153-.084 1.442-.252.29-.177.434-.457.434-.84 0-.392-.15-.667-.448-.826-.299-.159-.737-.238-1.316-.238-.187 0-.387.005-.602.014-.215 0-.406.01-.574.028v2.114z" fill="#fff"/><path d="M44.086 22.289c-.84 0-1.7-.035-2.583-.105-.882-.07-1.68-.182-2.394-.336l3.36-14.07a19.967 19.967 0 012.5-.315 38.377 38.377 0 012.414-.084c.84 0 1.561.09 2.163.273.616.168 1.113.399 1.491.693.392.294.68.644.861 1.05.196.392.294.812.294 1.26 0 .308-.035.63-.105.966a2.968 2.968 0 01-.378 1.008c-.182.322-.44.63-.777.924-.322.294-.749.56-1.28.798.63.28 1.091.665 1.385 1.155.294.476.441 1.008.441 1.596 0 .672-.133 1.323-.399 1.953-.266.616-.693 1.169-1.28 1.659-.589.476-1.352.86-2.29 1.155-.938.28-2.079.42-3.423.42zm-.294-6.552l-.903 3.78c.224.042.504.077.84.105.35.014.672.02.966.02.42 0 .833-.027 1.24-.083.42-.07.79-.19 1.112-.357.336-.168.61-.4.82-.693.21-.294.314-.672.314-1.134 0-.196-.042-.392-.126-.588a1.303 1.303 0 00-.357-.525 1.921 1.921 0 00-.672-.378 2.805 2.805 0 00-.966-.147h-2.268zm.61-2.457h2.057c.84 0 1.463-.182 1.87-.546.42-.364.63-.798.63-1.302 0-.266-.064-.49-.19-.672a1.22 1.22 0 00-.462-.462 2.008 2.008 0 00-.672-.231 3.571 3.571 0 00-.777-.084c-.294 0-.609.014-.945.042a6.695 6.695 0 00-.756.063l-.756 3.192zM54.885 22.1h-3.108l2.625-11.046h3.129L54.885 22.1zm1.512-12.39c-.434 0-.826-.126-1.176-.378-.35-.266-.525-.665-.525-1.197 0-.294.056-.567.168-.82.126-.265.287-.49.483-.671.196-.196.42-.35.672-.462.266-.112.546-.168.84-.168.434 0 .826.133 1.176.399.35.252.525.644.525 1.176 0 .294-.063.574-.19.84a2.215 2.215 0 01-.461.672 2.344 2.344 0 01-.693.44 1.994 1.994 0 01-.82.169zM59.215 11.558l.777-.231c.294-.098.616-.182.966-.252a9.337 9.337 0 011.197-.19 12.28 12.28 0 011.512-.083c1.652 0 2.786.476 3.402 1.428.616.952.72 2.254.315 3.906L65.956 22.1h-3.13l1.387-5.838c.084-.364.147-.714.189-1.05.056-.35.056-.651 0-.903a1.011 1.011 0 00-.4-.63c-.195-.168-.503-.252-.923-.252-.406 0-.82.042-1.24.126L59.804 22.1h-3.13l2.542-10.542zM77.892 17.333a7.022 7.022 0 00-.168 2.415c.084.798.245 1.512.483 2.142l-2.793.399a14.492 14.492 0 01-.231-.483 6.817 6.817 0 01-.21-.525 5.603 5.603 0 01-1.302.798 3.913 3.913 0 01-1.596.315c-.7 0-1.302-.12-1.806-.357a3.676 3.676 0 01-1.218-.987 4.177 4.177 0 01-.672-1.45 7.338 7.338 0 01-.21-1.784c0-.966.168-1.876.504-2.73a7.061 7.061 0 011.428-2.226 6.702 6.702 0 012.163-1.512 6.591 6.591 0 012.688-.546c.126 0 .343.007.651.02.322.015.686.05 1.092.106.406.042.833.119 1.281.23.448.113.875.267 1.281.463l-1.365 5.712zm-2.184-3.864a8.24 8.24 0 00-.504-.063 5.431 5.431 0 00-.525-.021c-.476 0-.924.119-1.344.357a3.804 3.804 0 00-1.071.945 4.486 4.486 0 00-.735 1.323 4.948 4.948 0 00-.252 1.575c0 .672.112 1.204.336 1.596.224.392.637.588 1.239.588a1.9 1.9 0 00.861-.19c.266-.125.546-.335.84-.63.028-.35.07-.713.126-1.091.07-.392.14-.75.21-1.071l.819-3.318zM87.277 13.742c-.28-.07-.56-.133-.84-.19-.266-.07-.665-.104-1.197-.104-.196 0-.413.02-.651.063a4.129 4.129 0 00-.588.105L81.964 22.1h-3.13l2.52-10.458a22.819 22.819 0 012.017-.546c.756-.182 1.603-.273 2.54-.273.35 0 .736.035 1.156.105.434.056.812.154 1.134.294l-.924 2.52z" fill="#414652"/><path d="M98.528 11.054a52.8 52.8 0 01-1.197 2.982 38.636 38.636 0 01-1.239 2.646 42.123 42.123 0 01-2.814 4.62c-.378.546-.77 1.099-1.176 1.659a9.386 9.386 0 01-1.365 1.512 6.312 6.312 0 01-1.659 1.092c-.602.28-1.302.42-2.1.42-.49 0-.91-.05-1.26-.147a4.598 4.598 0 01-.987-.357l.945-2.457c.28.112.532.196.756.252.224.07.497.105.82.105.49 0 .951-.161 1.385-.483a3.619 3.619 0 001.113-1.26c-.364-1.4-.7-2.968-1.008-4.704-.294-1.736-.497-3.696-.609-5.88h3.213c.014.546.042 1.148.084 1.806.042.658.091 1.323.147 1.995.056.658.12 1.302.19 1.932.07.63.146 1.197.23 1.7a19.02 19.02 0 001.764-3.36 41.41 41.41 0 001.45-4.073h3.317zM105.909 22.289c-.798 0-1.596-.028-2.394-.084a15.876 15.876 0 01-2.457-.336V7.757a19.356 19.356 0 012.205-.273 25.58 25.58 0 012.226-.105c.924 0 1.771.07 2.541.21.784.126 1.456.35 2.016.672.56.322.994.749 1.302 1.28.322.519.483 1.163.483 1.933 0 1.162-.56 2.079-1.68 2.75.924.35 1.554.827 1.89 1.429.336.602.504 1.28.504 2.037 0 1.526-.56 2.674-1.68 3.444-1.106.77-2.758 1.155-4.956 1.155zm-1.659-6.531v3.759c.238.028.497.049.777.063.28.014.588.02.924.02.98 0 1.771-.14 2.373-.42.602-.28.903-.797.903-1.553 0-.672-.252-1.148-.756-1.428-.504-.294-1.225-.441-2.163-.441h-2.058zm0-2.5h1.596c1.008 0 1.729-.125 2.163-.377.434-.266.651-.686.651-1.26 0-.588-.224-1.001-.672-1.24-.448-.237-1.106-.356-1.974-.356-.28 0-.581.007-.903.02-.322 0-.609.015-.861.043v3.17zM124.239 16.556c0 .868-.126 1.666-.378 2.394a5.303 5.303 0 01-1.092 1.848 4.96 4.96 0 01-1.722 1.176c-.658.28-1.4.42-2.226.42-.812 0-1.554-.14-2.226-.42a5.007 5.007 0 01-1.701-1.176 5.57 5.57 0 01-1.113-1.848 6.928 6.928 0 01-.399-2.394c0-.868.133-1.66.399-2.373a5.607 5.607 0 011.134-1.827 5.234 5.234 0 011.722-1.176c.672-.28 1.4-.42 2.184-.42.798 0 1.526.14 2.184.42a4.96 4.96 0 011.722 1.176 5.337 5.337 0 011.113 1.827c.266.714.399 1.505.399 2.373zm-3.192 0c0-.966-.196-1.722-.588-2.268-.378-.56-.924-.84-1.638-.84-.714 0-1.267.28-1.659.84-.392.546-.588 1.302-.588 2.268 0 .966.196 1.736.588 2.31.392.56.945.84 1.659.84.714 0 1.26-.28 1.638-.84.392-.574.588-1.344.588-2.31zM125.508 8.303l3.129-.504v3.255h3.759v2.604h-3.759v3.885c0 .658.112 1.183.336 1.575.238.392.707.588 1.407.588.336 0 .679-.028 1.029-.084.364-.07.693-.161.987-.273l.441 2.436a8.903 8.903 0 01-1.26.399c-.462.112-1.029.168-1.701.168-.854 0-1.561-.112-2.121-.336-.56-.238-1.008-.56-1.344-.966a3.787 3.787 0 01-.714-1.512 9.338 9.338 0 01-.189-1.953V8.303z" fill="#414652"/></svg>