<svg width="148" height="32" fill="none" xmlns="http://www.w3.org/2000/svg"><path d="M0 6a6 6 0 016-6h20a6 6 0 016 6v20a6 6 0 01-6 6H6a6 6 0 01-6-6V6z" fill="#FF444F"/><path d="M6 0a6 6 0 00-6 6v.174l29.914-4.721A5.976 5.976 0 0026 0H6zM30.532 2.068L25.044 32H26a6 6 0 006-6V6c0-1.504-.553-2.88-1.468-3.932z" fill="#E12E3A"/><path d="M9.94 19.066c.102.01.219.019.35.028h.49c1.091 0 1.899-.275 2.421-.826.532-.55.798-1.311.798-2.282 0-1.017-.252-1.787-.756-2.31-.504-.523-1.302-.784-2.394-.784-.15 0-.303.005-.462.014-.159 0-.308.01-.448.028v6.132zm6.313-3.08c0 .84-.13 1.573-.392 2.198a4.037 4.037 0 01-1.12 1.554c-.476.41-1.06.719-1.75.924-.69.205-1.465.308-2.324.308-.392 0-.85-.019-1.372-.056a10.52 10.52 0 01-1.54-.196v-9.45a12.018 12.018 0 011.568-.182c.55-.037 1.022-.056 1.414-.056.83 0 1.582.093 2.254.28.681.187 1.265.48 1.75.882a3.92 3.92 0 011.12 1.54c.261.625.392 1.377.392 2.254zM24.245 11.142v1.862H21.32v7.84h-2.184v-7.84H16.21v-1.862h8.036z" fill="#fff"/><path fill-rule="evenodd" clip-rule="evenodd" d="M48.327 8.846l-.788 4.467h-2.734c-2.551 0-4.983 2.067-5.433 4.618l-.19 1.086c-.45 2.55 1.252 4.617 3.803 4.617h2.28c1.86 0 3.631-1.505 3.958-3.364l2.1-11.905-2.996.481zm-1.94 11.003c-.101.574-.618 1.042-1.192 1.042h-1.386c-1.146 0-1.913-.93-1.712-2.08l.12-.677c.203-1.146 1.297-2.079 2.443-2.079h2.396l-.67 3.794z" fill="#414652"/><path d="M69.384 23.635h2.838l1.794-10.178h-2.838l-1.794 10.178zM69.478 14.784v-.003l.214-1.207a9.6 9.6 0 00-6.104.408l-1.703 9.656h2.84l1.382-7.842c.426-.085 1.813-.218 3.158.2l.213-1.212z" fill="#414652"/><path fill-rule="evenodd" clip-rule="evenodd" d="M58.182 13.312h-2.207c-2.153 0-4.205 1.744-4.584 3.897l-.446 2.53c-.38 2.153 1.056 3.897 3.209 3.897h4.699l.482-2.736h-4.416c-.717 0-1.197-.58-1.07-1.3l.015-.085h7.12l.407-2.306c.38-2.153-1.056-3.897-3.209-3.897zm.36 3.679l-.016.147h-4.234l.023-.13c.128-.717.782-1.348 1.5-1.348h1.654c.711 0 1.191.62 1.074 1.331z" fill="#414652"/><path d="M78.949 20.17c1.288-2.318 2.709-5.36 3.3-6.713h2.843c-.967 2.572-3.184 6.947-5.332 10.178h-2.84c-.986-3.075-1.623-7.36-1.744-10.178h2.84c.051.92.463 4.33.933 6.713zM99.583 9.448v2.793h-4.389v11.76h-3.276v-11.76h-4.389V9.448h12.054z" fill="#414652"/><path d="M105.629 15.727c-.28-.07-.609-.14-.987-.21a5.608 5.608 0 00-1.218-.126c-.196 0-.434.021-.714.063a3.544 3.544 0 00-.609.105v8.442h-3.129V13.543c.56-.196 1.218-.378 1.974-.546.77-.182 1.624-.273 2.562-.273.168 0 .371.014.609.042a6.2 6.2 0 01.714.084c.238.028.476.07.714.126.238.042.441.098.609.168l-.525 2.583zM110.798 21.817c.308 0 .602-.007.882-.02.28-.015.504-.036.672-.064V19.36a5.777 5.777 0 00-.567-.084 6.314 6.314 0 00-.693-.042c-.294 0-.574.021-.84.063a1.98 1.98 0 00-.672.19c-.196.097-.35.23-.462.398a1.112 1.112 0 00-.168.63c0 .49.161.833.483 1.03.336.181.791.272 1.365.272zm-.252-9.156c.924 0 1.694.105 2.31.315.616.21 1.106.511 1.47.903.378.392.644.868.798 1.428.154.56.231 1.183.231 1.87v6.51c-.448.097-1.071.21-1.869.335-.798.14-1.764.21-2.898.21a9.338 9.338 0 01-1.953-.189 4.337 4.337 0 01-1.491-.609 2.914 2.914 0 01-.966-1.134c-.224-.462-.336-1.029-.336-1.7 0-.645.126-1.19.378-1.639a3.077 3.077 0 011.05-1.07 4.526 4.526 0 011.491-.568 7.917 7.917 0 011.743-.189c.406 0 .763.021 1.071.063.322.028.581.07.777.126v-.294c0-.532-.161-.959-.483-1.28-.322-.323-.882-.484-1.68-.484-.532 0-1.057.042-1.575.126-.518.07-.966.175-1.344.315l-.399-2.52c.182-.056.406-.112.672-.168.28-.07.581-.126.903-.168.322-.056.658-.098 1.008-.126a9.52 9.52 0 011.092-.063zM119.801 18.394c0 .966.217 1.743.651 2.331.434.588 1.078.882 1.932.882.28 0 .539-.007.777-.02.238-.029.434-.057.588-.085v-5.69a2.71 2.71 0 00-.777-.316 3.576 3.576 0 00-.945-.126c-1.484 0-2.226 1.008-2.226 3.024zm7.077 5.25c-.28.084-.602.168-.966.252-.364.07-.749.133-1.155.19-.392.055-.798.097-1.218.125-.406.042-.798.063-1.176.063-.91 0-1.722-.133-2.436-.399a4.964 4.964 0 01-1.806-1.134 5.211 5.211 0 01-1.134-1.806c-.252-.714-.378-1.512-.378-2.394 0-.896.112-1.7.336-2.415.224-.728.546-1.344.966-1.848.42-.504.931-.889 1.533-1.155.616-.266 1.316-.399 2.1-.399.434 0 .819.042 1.155.126.35.084.7.203 1.05.357V8.21l3.129-.504v15.94zM128.233 18.562c0-.98.147-1.834.441-2.562.308-.742.707-1.358 1.197-1.848.49-.49 1.05-.86 1.68-1.113a5.374 5.374 0 011.974-.378c1.568 0 2.807.483 3.717 1.45.91.951 1.365 2.358 1.365 4.22 0 .182-.007.385-.021.61-.014.21-.028.398-.042.566h-7.098a2.08 2.08 0 00.903 1.533c.532.378 1.246.567 2.142.567.574 0 1.134-.049 1.68-.147.56-.112 1.015-.245 1.365-.399l.42 2.541a4.321 4.321 0 01-.672.252c-.28.084-.595.154-.945.21-.336.07-.7.126-1.092.168-.392.042-.784.063-1.176.063-.994 0-1.862-.147-2.604-.44-.728-.295-1.337-.694-1.827-1.198a5.082 5.082 0 01-1.071-1.827 7.402 7.402 0 01-.336-2.268zm7.35-1.197a2.934 2.934 0 00-.147-.777 1.732 1.732 0 00-.357-.672 1.76 1.76 0 00-.609-.483c-.238-.126-.539-.189-.903-.189-.35 0-.651.063-.903.19a1.754 1.754 0 00-.63.461 2.246 2.246 0 00-.399.693 4.84 4.84 0 00-.189.777h4.137zM146.629 15.727c-.28-.07-.609-.14-.987-.21a5.608 5.608 0 00-1.218-.126c-.196 0-.434.021-.714.063a3.544 3.544 0 00-.609.105v8.442h-3.129V13.543c.56-.196 1.218-.378 1.974-.546.77-.182 1.624-.273 2.562-.273.168 0 .371.014.609.042a6.2 6.2 0 01.714.084c.238.028.476.07.714.126.238.042.441.098.609.168l-.525 2.583z" fill="#414652"/></svg>