<svg width="121" height="32" fill="none" xmlns="http://www.w3.org/2000/svg"><path d="M0 6a6 6 0 016-6h20a6 6 0 016 6v20a6 6 0 01-6 6H6a6 6 0 01-6-6V6z" fill="#FF444F"/><path d="M6 0a6 6 0 00-6 6v.174l29.914-4.721A5.976 5.976 0 0026 0H6zM30.532 2.068L25.044 32H26a6 6 0 006-6V6c0-1.504-.553-2.88-1.468-3.932z" fill="#E12E3A"/><path d="M9.613 19.049c.103.01.22.018.35.028h.49c1.092 0 1.9-.276 2.422-.826.532-.55.798-1.312.798-2.282 0-1.018-.252-1.787-.756-2.31-.504-.523-1.302-.784-2.394-.784-.15 0-.303.005-.462.014-.158 0-.308.01-.448.028v6.132zm6.314-3.08c0 .84-.13 1.572-.392 2.198a4.039 4.039 0 01-1.12 1.554c-.476.41-1.06.718-1.75.924-.69.205-1.465.308-2.324.308-.392 0-.85-.019-1.372-.056a10.521 10.521 0 01-1.54-.196v-9.45a12.019 12.019 0 011.568-.182 21.39 21.39 0 011.414-.056c.83 0 1.582.093 2.254.28.682.187 1.265.48 1.75.882a3.92 3.92 0 011.12 1.54c.262.625.392 1.377.392 2.254zM20.285 20.953c-.532 0-1.064-.019-1.596-.056a10.589 10.589 0 01-1.637-.224v-9.408c.448-.084.938-.145 1.47-.182.532-.047 1.026-.07 1.484-.07.616 0 1.18.046 1.694.14.522.084.97.233 1.344.448.373.214.662.5.867.854.215.345.322.774.322 1.288 0 .774-.373 1.386-1.12 1.834.617.233 1.037.55 1.26.952.224.401.336.854.336 1.358 0 1.017-.373 1.782-1.12 2.296-.737.513-1.838.77-3.303.77zm-1.105-4.354v2.506c.158.018.33.032.518.042.186.01.392.014.616.014.653 0 1.18-.094 1.581-.28.402-.187.602-.532.602-1.036 0-.448-.168-.765-.503-.952-.337-.196-.817-.294-1.442-.294H19.18zm0-1.666h1.064c.672 0 1.152-.084 1.442-.252.289-.177.433-.457.433-.84 0-.392-.149-.667-.447-.826-.3-.159-.738-.238-1.317-.238-.186 0-.387.005-.602.014-.214 0-.405.01-.573.028v2.114z" fill="#fff"/><path fill-rule="evenodd" clip-rule="evenodd" d="M48.327 8.517l-.788 4.467h-2.734c-2.551 0-4.983 2.067-5.433 4.618l-.19 1.085c-.45 2.551 1.252 4.618 3.803 4.618h2.28c1.86 0 3.631-1.505 3.958-3.364l2.1-11.906-2.996.482zm-1.94 11.003c-.101.574-.618 1.041-1.192 1.041h-1.386c-1.146 0-1.913-.93-1.712-2.08l.12-.676c.203-1.147 1.297-2.08 2.443-2.08h2.396l-.67 3.795z" fill="#414652"/><path d="M69.384 23.306h2.838l1.794-10.179h-2.838l-1.794 10.179zM69.478 14.454v-.002l.214-1.207a9.6 9.6 0 00-6.104.408l-1.703 9.655h2.84l1.382-7.841c.426-.085 1.813-.218 3.158.2.07-.405.142-.809.213-1.213z" fill="#414652"/><path fill-rule="evenodd" clip-rule="evenodd" d="M58.182 12.983h-2.207c-2.153 0-4.205 1.744-4.584 3.896l-.446 2.53c-.38 2.153 1.056 3.897 3.209 3.897h4.699l.482-2.735h-4.416c-.717 0-1.197-.581-1.07-1.3l.015-.086h7.12l.407-2.305c.38-2.153-1.056-3.897-3.209-3.897zm.36 3.678l-.016.147h-4.234l.023-.13c.128-.717.782-1.348 1.5-1.348h1.654c.711 0 1.191.62 1.074 1.332z" fill="#414652"/><path d="M78.949 19.84c1.288-2.317 2.709-5.36 3.3-6.713h2.843c-.967 2.572-3.184 6.948-5.332 10.179h-2.84c-.986-3.075-1.623-7.36-1.744-10.179h2.84c.051.92.463 4.33.933 6.714zM93.64 23.86c-.798 0-1.596-.027-2.394-.083a15.876 15.876 0 01-2.457-.336V9.329a19.356 19.356 0 012.205-.273c.798-.07 1.54-.105 2.226-.105.924 0 1.771.07 2.541.21.784.126 1.456.35 2.016.672.56.322.994.749 1.302 1.28.322.519.483 1.163.483 1.933 0 1.162-.56 2.079-1.68 2.75.924.35 1.554.827 1.89 1.429.336.602.504 1.28.504 2.037 0 1.526-.56 2.674-1.68 3.444-1.106.77-2.758 1.155-4.956 1.155zm-1.66-6.53v3.759c.239.028.498.049.778.063.28.014.588.02.924.02.98 0 1.771-.14 2.373-.42.602-.28.903-.797.903-1.553 0-.672-.252-1.148-.756-1.428-.504-.294-1.225-.441-2.163-.441h-2.058zm0-2.5h1.597c1.008 0 1.729-.125 2.163-.377.434-.266.651-.686.651-1.26 0-.588-.224-1.001-.672-1.24-.448-.237-1.106-.356-1.974-.356-.28 0-.581.007-.903.02-.322 0-.609.015-.861.043v3.17zM111.97 18.128c0 .868-.126 1.666-.378 2.394a5.303 5.303 0 01-1.092 1.848 4.96 4.96 0 01-1.722 1.176c-.658.28-1.4.42-2.226.42-.812 0-1.554-.14-2.226-.42a5.007 5.007 0 01-1.701-1.176 5.57 5.57 0 01-1.113-1.848 6.928 6.928 0 01-.399-2.394c0-.868.133-1.66.399-2.373a5.607 5.607 0 011.134-1.827 5.234 5.234 0 011.722-1.176c.672-.28 1.4-.42 2.184-.42.798 0 1.526.14 2.184.42a4.96 4.96 0 011.722 1.176 5.337 5.337 0 011.113 1.827c.266.714.399 1.505.399 2.373zm-3.192 0c0-.966-.196-1.722-.588-2.268-.378-.56-.924-.84-1.638-.84-.714 0-1.267.28-1.659.84-.392.546-.588 1.302-.588 2.268 0 .966.196 1.736.588 2.31.392.56.945.84 1.659.84.714 0 1.26-.28 1.638-.84.392-.574.588-1.344.588-2.31zM113.239 9.875l3.129-.504v3.255h3.759v2.604h-3.759v3.885c0 .658.112 1.183.336 1.575.238.392.707.588 1.407.588.336 0 .679-.028 1.029-.084.364-.07.693-.161.987-.273l.441 2.436a8.903 8.903 0 01-1.26.399c-.462.112-1.029.168-1.701.168-.854 0-1.561-.112-2.121-.336-.56-.238-1.008-.56-1.344-.966a3.787 3.787 0 01-.714-1.512 9.338 9.338 0 01-.189-1.953V9.875z" fill="#414652"/></svg>