<svg width="16" height="14" fill="none" xmlns="http://www.w3.org/2000/svg"><path d="M1.5 5a.5.5 0 00-.5.5v7a.5.5 0 00.5.5h13a.5.5 0 00.5-.5v-7a.5.5 0 00-.5-.5h-13zM15 0a1 1 0 011 1v1a1 1 0 01-1 1h-2v1h1.5A1.5 1.5 0 0116 5.5v7a1.5 1.5 0 01-1.5 1.5h-13A1.5 1.5 0 010 12.5v-7A1.5 1.5 0 011.5 4H2V2h5v2h5V3h-2a1 1 0 01-1-1V1a1 1 0 011-1h5zm0 10H1v1h14v-1zm-1.5-2h-3a.5.5 0 000 1h3a.5.5 0 000-1zm-5 0a.5.5 0 100 1 .5.5 0 000-1zm-2 0a.5.5 0 100 1 .5.5 0 000-1zm-2 0a.5.5 0 100 1 .5.5 0 000-1zm-2 0a.5.5 0 100 1 .5.5 0 000-1zm11-2h-3a.5.5 0 000 1h3a.5.5 0 000-1zm-5 0a.5.5 0 100 1 .5.5 0 000-1zm-2 0a.5.5 0 100 1 .5.5 0 000-1zm-2 0a.5.5 0 100 1 .5.5 0 000-1zm-2 0a.5.5 0 100 1 .5.5 0 000-1zM6 3H3v1h3V3zm9-2h-5v1h5V1z" fill="#333"/></svg>