<svg width="16" height="16" fill="none" xmlns="http://www.w3.org/2000/svg"><g clip-path="url(#prefix__clip0_6702_11997)"><path d="M8 0a8 8 0 110 16A8 8 0 018 0zm0 1a7 7 0 100 14A7 7 0 008 1zm-.194 10.213c.307 0 .53.074.669.222.139.148.208.341.208.582v.18c0 .24-.07.434-.208.581-.14.148-.362.222-.67.222-.306 0-.53-.074-.668-.222-.14-.147-.209-.341-.209-.581v-.18c0-.24.07-.434.209-.582.139-.148.362-.222.669-.222zM8.108 3c.892 0 1.597.235 2.115.706.518.471.777 1.108.777 1.912 0 .443-.08.828-.237 1.156a2.767 2.767 0 01-.612.838c-.25.231-.532.416-.849.554a4.152 4.152 0 01-.95.291v1.496H7.246V7.68c.786-.036 1.402-.221 1.849-.554.446-.332.669-.789.669-1.37v-.195c0-.47-.154-.847-.46-1.128-.308-.282-.72-.423-1.238-.423-.557 0-1 .152-1.331.457-.331.305-.554.693-.67 1.164L5 5.244c.086-.296.213-.58.381-.852a2.87 2.87 0 01.633-.72c.255-.208.554-.372.9-.492.345-.12.743-.18 1.194-.18z" fill="#333"/></g><defs><clipPath id="prefix__clip0_6702_11997"><path fill="#fff" d="M0 0h16v16H0z"/></clipPath></defs></svg>