<svg data-name="Layer 1" xmlns="http://www.w3.org/2000/svg" width="16" height="16"><path class="prefix__cls-1" fill="#333" d="M8 0a8 8 0 108 8 8 8 0 00-8-8zm0 15a7 7 0 01-5.09-2.21l1.59-1.58.61.61a3.46 3.46 0 002.36 1 3.37 3.37 0 002.38-1 3.2 3.2 0 000-4.7l-1-1a.49.49 0 00-.7.7l1 1a2.22 2.22 0 010 3.3 2.51 2.51 0 01-1.66.72 2.44 2.44 0 01-1.67-.76l-1-1a.48.48 0 00-.7 0L2.28 12A6.92 6.92 0 011 8a7 7 0 0112.09-4.79L11.5 4.79l-.61-.61a3.54 3.54 0 00-2.43-1.06 3.15 3.15 0 00-2.41.93 3.43 3.43 0 00.13 4.84.51.51 0 00.36.11.49.49 0 00.35-.15.5.5 0 000-.71 2.42 2.42 0 01-.13-3.42 2.2 2.2 0 011.67-.65 2.64 2.64 0 011.75.78l1 1a.48.48 0 00.7 0L13.72 4A6.92 6.92 0 0115 8a7 7 0 01-7 7z"/></svg>