<svg width="14" height="16" fill="none" xmlns="http://www.w3.org/2000/svg"><path d="M6.79.046a.5.5 0 01.42 0l6.5 3A.5.5 0 0114 3.5c0 6.865-2.278 11.07-6.853 12.478a.5.5 0 01-.294 0C2.278 14.57 0 10.365 0 3.5a.5.5 0 01.29-.454l6.5-3zM7 1.05L1.002 3.818l.008.469c.16 5.863 2.128 9.376 5.89 10.655l.1.032.1-.032c3.846-1.307 5.817-4.95 5.897-11.05l.001-.074L7 1.05zm3.354 4.596a.5.5 0 01.057.638l-.057.07-4 4a.5.5 0 01-.638.057l-.07-.057-2-2a.5.5 0 01.638-.765l.07.057L6 9.293l3.646-3.647a.5.5 0 01.708 0z" fill="#333"/></svg>