<svg width="115" height="25" fill="none" xmlns="http://www.w3.org/2000/svg"><path d="M4.5.926a4.5 4.5 0 00-4.5 4.5v.13l22.436-3.54A4.482 4.482 0 0019.5.925h-15zM22.899 2.477l-4.116 22.448h.717a4.5 4.5 0 004.5-4.5v-15c0-1.127-.416-2.159-1.101-2.948z" fill="#2A3052"/><path fill-rule="evenodd" clip-rule="evenodd" d="M18.783 24.925H4.5a4.5 4.5 0 01-4.5-4.5V5.557l22.436-3.54c.165.142.32.296.463.46l-4.116 22.45z" fill="#384177"/><path d="M8.82 15.325c.232 0 .42-.018.568-.052.154-.043.276-.095.367-.158a.56.56 0 00.19-.242.842.842 0 00.052-.304c0-.238-.112-.434-.336-.588-.224-.161-.609-.332-1.155-.514a10.082 10.082 0 01-.714-.284 2.859 2.859 0 01-.64-.41 2.047 2.047 0 01-.463-.598 1.908 1.908 0 01-.178-.861c0-.336.063-.637.189-.903.126-.273.304-.504.535-.693.231-.189.511-.332.84-.43.33-.105.7-.158 1.113-.158.49 0 .914.053 1.27.158.358.105.652.22.883.346l-.473 1.291a4.078 4.078 0 00-.682-.273 2.77 2.77 0 00-.893-.125c-.392 0-.675.056-.85.168-.168.104-.252.269-.252.493 0 .133.031.245.094.336.063.091.15.175.263.252.119.07.252.136.399.2.154.055.322.115.504.178.378.14.707.28.987.42.28.133.51.29.693.473a1.7 1.7 0 01.42.64c.09.245.136.543.136.893 0 .678-.238 1.207-.714 1.585-.476.371-1.193.556-2.152.556-.322 0-.613-.02-.872-.063a5.282 5.282 0 01-.693-.136 4.348 4.348 0 01-.514-.178 4.218 4.218 0 01-.357-.179l.462-1.302c.217.119.483.228.798.325.322.091.714.137 1.176.137zM17.615 9.298v1.396H15.42v5.88h-1.638v-5.88h-2.194V9.299h6.027z" fill="#fff"/><path d="M32.987 17.052c.346 0 .63-.026.85-.078.231-.063.415-.142.552-.237a.839.839 0 00.283-.362c.053-.136.079-.289.079-.457 0-.357-.168-.65-.504-.882-.336-.241-.913-.498-1.733-.771a15.124 15.124 0 01-1.07-.426 4.287 4.287 0 01-.961-.614 3.07 3.07 0 01-.693-.898c-.179-.357-.268-.787-.268-1.291 0-.504.095-.956.284-1.355a2.89 2.89 0 01.803-1.04 3.575 3.575 0 011.26-.645 5.48 5.48 0 011.67-.236c.734 0 1.37.079 1.905.236.535.158.976.33 1.323.52l-.709 1.937a6.118 6.118 0 00-1.023-.41c-.368-.125-.814-.188-1.34-.188-.587 0-1.013.084-1.275.252-.252.157-.378.404-.378.74 0 .2.047.367.142.504.094.136.226.262.394.378.178.105.377.205.598.3.231.083.483.172.756.267.567.21 1.06.42 1.48.63.42.2.767.436 1.04.709.284.273.494.593.63.96.136.368.205.814.205 1.34 0 1.018-.357 1.81-1.071 2.377-.714.557-1.79.835-3.229.835-.483 0-.919-.031-1.307-.094a7.923 7.923 0 01-1.04-.205 6.523 6.523 0 01-.771-.268 6.359 6.359 0 01-.536-.268l.693-1.953a6.56 6.56 0 001.197.489c.483.136 1.071.204 1.764.204zM42.784 14.532c0-.756-.1-1.291-.3-1.606-.188-.315-.519-.473-.992-.473-.146 0-.299.01-.456.032a6.1 6.1 0 00-.457.047v6.395h-2.347v-8.001c.2-.053.43-.105.693-.158.273-.063.557-.115.85-.157.305-.053.615-.09.93-.11.315-.032.625-.048.93-.048.598 0 1.08.079 1.448.236.378.147.688.326.93.536.336-.242.719-.43 1.15-.567a4.13 4.13 0 011.212-.205c.661 0 1.202.095 1.622.284.43.178.772.435 1.024.771s.425.735.52 1.197c.094.462.142.977.142 1.544v4.678h-2.347v-4.395c0-.756-.1-1.291-.3-1.606-.189-.315-.52-.473-.992-.473-.126 0-.304.032-.535.095-.22.063-.404.142-.551.236.073.242.12.499.141.772.021.262.032.546.032.85v4.52h-2.347v-4.394zM54.192 17.289c.23 0 .451-.006.661-.016a4.6 4.6 0 00.504-.047v-1.78a4.331 4.331 0 00-.425-.063 4.737 4.737 0 00-.52-.032c-.22 0-.43.016-.63.048a1.485 1.485 0 00-.504.141.878.878 0 00-.346.3.834.834 0 00-.126.472c0 .368.12.625.362.772.252.136.593.205 1.024.205zm-.19-6.867c.694 0 1.271.078 1.733.236.462.157.83.383 1.103.677.283.294.483.651.598 1.071.116.42.174.887.174 1.402v4.882c-.336.074-.804.158-1.402.252-.599.105-1.323.158-2.174.158a7.003 7.003 0 01-1.464-.142 3.253 3.253 0 01-1.119-.457 2.185 2.185 0 01-.724-.85c-.168-.347-.252-.772-.252-1.276 0-.483.094-.892.283-1.228.2-.336.462-.604.788-.804.325-.2.698-.34 1.118-.425.42-.094.856-.142 1.307-.142.305 0 .573.016.804.048.241.02.435.052.582.094v-.22c0-.4-.12-.72-.362-.961-.241-.242-.661-.362-1.26-.362-.399 0-.793.031-1.181.094a4.753 4.753 0 00-1.008.236l-.3-1.89c.137-.042.305-.084.505-.126.21-.052.435-.094.677-.126.241-.042.493-.073.756-.094a7.14 7.14 0 01.819-.047zM63.937 12.721c-.21-.052-.457-.105-.74-.157a4.206 4.206 0 00-.914-.095 3.7 3.7 0 00-.535.047c-.2.021-.352.048-.457.08v6.33h-2.347v-7.843c.42-.147.914-.283 1.48-.41a8.362 8.362 0 011.922-.204c.126 0 .278.01.457.031.178.01.357.032.535.063.179.021.357.053.536.095.178.031.33.073.457.126l-.394 1.937zM64.722 8.579L67.07 8.2v2.441h2.82v1.953h-2.82v2.914c0 .493.084.887.252 1.181.179.294.53.441 1.055.441.252 0 .51-.02.772-.063.273-.052.52-.12.74-.205l.331 1.827a6.677 6.677 0 01-.945.3c-.346.084-.772.126-1.276.126-.64 0-1.17-.084-1.59-.252a2.598 2.598 0 01-1.008-.725 2.84 2.84 0 01-.536-1.134 7.004 7.004 0 01-.142-1.465V8.58zM79.265 8.012v2.095h-3.292v8.82h-2.457v-8.82h-3.291V8.012h9.04z" fill="#414652"/><path d="M83.8 12.721c-.21-.052-.457-.105-.74-.157a4.206 4.206 0 00-.914-.095 3.7 3.7 0 00-.535.047c-.2.021-.352.048-.457.08v6.33h-2.347v-7.843c.42-.147.913-.283 1.48-.41a8.362 8.362 0 011.922-.204c.126 0 .278.01.457.031.178.01.357.032.535.063.179.021.357.053.536.095.178.031.33.073.457.126L83.8 12.72zM87.676 17.289c.231 0 .451-.006.662-.016a4.6 4.6 0 00.504-.047v-1.78a4.334 4.334 0 00-.426-.063 4.735 4.735 0 00-.52-.032c-.22 0-.43.016-.63.048a1.485 1.485 0 00-.504.141.878.878 0 00-.346.3.834.834 0 00-.126.472c0 .368.12.625.362.772.252.136.594.205 1.024.205zm-.189-6.867c.693 0 1.27.078 1.733.236.462.157.829.383 1.102.677.284.294.483.651.599 1.071.115.42.173.887.173 1.402v4.882c-.336.074-.803.158-1.402.252-.598.105-1.323.158-2.173.158a7.004 7.004 0 01-1.465-.142 3.253 3.253 0 01-1.118-.457 2.185 2.185 0 01-.725-.85c-.168-.347-.252-.772-.252-1.276 0-.483.094-.892.284-1.228.199-.336.462-.604.787-.804.326-.2.698-.34 1.118-.425.42-.094.856-.142 1.308-.142.304 0 .572.016.803.048.241.02.436.052.582.094v-.22c0-.4-.12-.72-.362-.961-.241-.242-.661-.362-1.26-.362-.399 0-.792.031-1.181.094a4.753 4.753 0 00-1.008.236l-.3-1.89c.137-.042.305-.084.505-.126a5.99 5.99 0 01.677-.126c.241-.042.493-.073.756-.094a7.14 7.14 0 01.819-.047zM94.429 14.721c0 .725.162 1.308.488 1.749.325.44.808.661 1.449.661.21 0 .404-.005.583-.016.178-.02.325-.042.44-.063v-4.268a2.033 2.033 0 00-.582-.236 2.681 2.681 0 00-.709-.095c-1.113 0-1.67.756-1.67 2.268zm5.307 3.938c-.21.063-.451.126-.724.189-.273.052-.562.1-.866.142-.294.042-.599.073-.914.094a8.577 8.577 0 01-.882.047c-.682 0-1.291-.1-1.827-.299a3.722 3.722 0 01-1.355-.85 3.908 3.908 0 01-.85-1.355 5.368 5.368 0 01-.283-1.795c0-.672.084-1.276.252-1.812.168-.546.41-1.008.724-1.386a3.116 3.116 0 011.15-.866c.462-.2.987-.3 1.575-.3.325 0 .614.032.866.095.263.063.525.153.788.268V7.083l2.346-.378v11.954zM100.752 14.847c0-.735.111-1.375.331-1.921.231-.557.53-1.019.898-1.386a3.711 3.711 0 011.26-.835 4.028 4.028 0 011.48-.283c1.176 0 2.106.362 2.788 1.086.683.714 1.024 1.77 1.024 3.166 0 .137-.005.289-.016.457-.01.157-.021.3-.031.425h-5.324c.053.483.278.866.677 1.15.399.283.935.425 1.607.425.43 0 .85-.037 1.26-.11.42-.084.761-.184 1.024-.3l.315 1.906a3.24 3.24 0 01-.504.19c-.21.062-.447.115-.709.157a8.428 8.428 0 01-1.701.173c-.746 0-1.397-.11-1.953-.33a3.93 3.93 0 01-1.37-.898 3.82 3.82 0 01-.804-1.37 5.552 5.552 0 01-.252-1.702zm5.513-.897a2.22 2.22 0 00-.11-.583 1.306 1.306 0 00-.268-.504 1.325 1.325 0 00-.457-.362c-.178-.095-.404-.142-.677-.142-.263 0-.488.047-.677.142-.189.084-.347.2-.473.346-.126.147-.226.32-.299.52-.063.189-.11.383-.142.583h3.103zM114.549 12.721c-.21-.052-.457-.105-.74-.157a4.21 4.21 0 00-.914-.095c-.147 0-.325.016-.535.047-.2.021-.352.048-.457.08v6.33h-2.347v-7.843c.42-.147.914-.283 1.481-.41a8.357 8.357 0 011.921-.204c.126 0 .279.01.457.031.179.01.357.032.536.063.178.021.357.053.535.095.179.031.331.073.457.126l-.394 1.937z" fill="#414652"/></svg>