<svg xmlns="http://www.w3.org/2000/svg" width="16" height="16"><path fill="#333" d="M8 0a8 8 0 110 16A8 8 0 018 0zM4.028 8.752c-.518.073-.753.256-.712.814a.703.703 0 01-.227.635.43.43 0 00-.113.227c-.122.63.431.997.577 1.522.009.033.055.055.083.082.116.107.223.225.356.322a.55.55 0 01.214.46c0 .272-.01.76-.003 1.072.36.228.741.429 1.142.593l.158-.227a.22.22 0 01.059-.066c.453-.44.905-.88 1.362-1.316.045-.044.128-.04.178-.078.203-.15.417-.28.413-.593a.662.662 0 01.15-.364c.147-.196.254-.787.113-.976-.106-.142-.28-.325-.421-.324a.8.8 0 01-.603-.294 29.824 29.824 0 00-.712-.666.386.386 0 00-.247-.121.511.511 0 01-.507-.23c-.33-.423-.742-.545-1.26-.472zm7.577 5.25l.12-.075A6.993 6.993 0 0015 8c0-1.27-.338-2.46-.929-3.487-.111.001-.249-.01-.26-.008-.503.049-.754-.446-1.206-.446-.032 0-.064-.06-.096-.093-.12-.123-.233-.258-.356-.363-.26-.233-.603-.27-.918-.347a.238.238 0 00-.169.06c-.338.261-.356.68-.457 1.049-.016.056.046.156.1.209.099.083.204.159.314.225-.069.051-.128.1-.177.144a1.656 1.656 0 00-.584 1.043.799.799 0 01-.057.226l-.052.104a.303.303 0 00.033.374l.017.056a.288.288 0 00.19.192.28.28 0 00.26-.052.808.808 0 01.588-.321c.223-.013.44.07.597.23.23.226.395.571.803.517.026 0 .06.034.087.06l.67.63c-.111.066-.23.116-.355.15-.207.016-.415 0-.621 0a3.665 3.665 0 00-.452.083l-.055.086c-.157-.182-.308-.364-.47-.531-.233-.245-.44-.253-.662 0a.528.528 0 01-.452.182c-.149 0-.355-.038-.439.045-.262.288-.712.448-.685.957 0 .061-.077.143-.137.181a.534.534 0 00-.201.513c.014.147.014.295 0 .442a.592.592 0 00.205.545.763.763 0 01.133.308c.023.067.01.15.044.207.23.387.858.475 1.157.138a.56.56 0 01.665-.14c.243.08.393.328.356.586a1.99 1.99 0 000 .545c.02.147.076.286.164.404.188.232.187.714.082.994-.009.02-.048.21-.07.306zM4.9 1.723A6.999 6.999 0 001 8c0 .703.104 1.381.296 2.021.147.022.341.024.41.036.153 0 .251-.029.231-.223-.02-.195-.008-.402-.033-.6a.485.485 0 01.178-.48c.177-.135.341-.273.523-.393a.926.926 0 01.382-.182c.406-.042.585-.216.62-.633a.533.533 0 01.102-.238c.205-.283.426-.556.627-.842.357-.5.8-.93 1.31-1.272.458-.308.71-.762 1.092-1.091a2.11 2.11 0 01-.596-.217.666.666 0 00-.534-.181c-.166.021-.34 0-.502.032a2.056 2.056 0 00-.406.182c-.136.082-.28.15-.43.202-.16.038-.338 0-.502.033-.32.062-.5-.118-.681-.364l1.106-1.229c.356-.39.666-.41 1.041-.045.086.1.162.21.226.325l.075-.105.31-.184a.651.651 0 00-.305-.57.53.53 0 00-.196-.07.957.957 0 01-.434-.182zM8 1c-.6 0-1.18.075-1.736.217a.89.89 0 01.37.304c.025.035.105.035.162.04.534.038.769.285.797.833.021.225.03.45.027.676-.02.355.231.511.463.644a.271.271 0 00.439-.162c.062-.182.26-.464.393-.462.498 0 .86-.23 1.212-.529.016-.013.051 0 .067-.013.22-.198.484-.352.472-.727a.601.601 0 01.075-.263A6.946 6.946 0 008 1z"/></svg>