<svg id="Layer_1" data-name="Layer 1" xmlns="http://www.w3.org/2000/svg" viewBox="0 0 128 128"><defs><style>.cls-1{fill:#2a3052;fill-rule:evenodd;}.cls-2{fill:#fff;}.cls-3{fill:none;}</style></defs><title>logo_smart_trader</title><g id="DMT5-mobile"><g id="DMT5-mobile-v2"><g id="Group-13"><g id="Group-9"><g id="Group-3"><g id="Group-7"><path id="Fill-1" class="cls-1" d="M32.12,13H95.88A19.12,19.12,0,0,1,115,32.12V95.88A19.12,19.12,0,0,1,95.88,115H32.12A19.12,19.12,0,0,1,13,95.88V32.12A19.12,19.12,0,0,1,32.12,13"/></g></g></g></g></g></g><path class="cls-2" d="M75.36,56.41l-14-6.34,2.32,11.67,7.52,3.45a11,11,0,0,1-7.4,20.66,9.72,9.72,0,0,1-1.65-.56L55,82l-11,5.4,14.32,6.51A20.61,20.61,0,0,0,75.36,56.41Z"/><path class="cls-2" d="M56.86,63.07a11,11,0,0,1,7.4-20.67,10.69,10.69,0,0,1,1.65.56l7.22,3.28,11-5.4L69.82,34.33a21.05,21.05,0,0,0-3.3-1.13A20.63,20.63,0,0,0,52.75,71.85l14,6.34L64.37,66.44Z"/><rect class="cls-3" y="0.1" width="128" height="128"/></svg>