<svg xmlns="http://www.w3.org/2000/svg" width="299" height="197"><g fill="none"><path fill="#FFF" d="M0 0h299v197H0z"/><path fill="#D6DADB" d="M1.987 1.98v193.04h295.026V1.98H1.987zM299 0v197H0V0h299z"/><path fill="#F2F3F4" d="M4.58 54.993v-1.212h290.408v1.212H4.58zm0 20.08V73.86h290.408v1.212H4.58v.001zm0 60.274v-1.212h290.408v1.212H4.58zm0 20.078v-1.212h290.408v1.212H4.58zm0 20.08v-1.213h290.408v1.212H4.58v.001zM39.059 34.307h1.212V192.59h-1.212V34.307zm36.75 0h1.212V192.59H75.81V34.307h-.001zm36.75 0h1.213V192.59h-1.212V34.307h-.001zm36.713 0h1.212V192.59h-1.212V34.307zm36.751 0h1.212V192.59h-1.212V34.307zm36.75 0h1.213V192.59h-1.213V34.307zm36.751 0h1.212V192.59h-1.212V34.307zM4.58 115.268v-1.212h290.408v1.212H4.58z"/><path fill="#333" d="M4.58 95.189v-1.212h1.816v1.212H4.58zm5.45 0v-1.212h3.636v1.212H10.03zm7.272 0v-1.212h3.636v1.212h-3.636zm7.272 0v-1.212h3.636v1.212h-3.636zm7.272 0v-1.212h3.636v1.212h-3.636zm7.272 0v-1.212h3.636v1.212h-3.636zm7.272 0v-1.212h3.636v1.212H46.39zm7.272 0v-1.212h3.636v1.212h-3.636zm7.272 0v-1.212h3.636v1.212h-3.636zm7.272 0v-1.212h3.636v1.212h-3.636zm7.272 0v-1.212h3.636v1.212h-3.636zm7.272 0v-1.212h3.636v1.212H82.75zm7.273 0v-1.212h3.636v1.212h-3.636zm7.272 0v-1.212h3.636v1.212h-3.636zm7.272 0v-1.212h3.636v1.212h-3.636zm7.272 0v-1.212h3.636v1.212h-3.636zm7.272 0v-1.212h3.636v1.212h-3.636zm7.272 0v-1.212h3.636v1.212h-3.636zm7.272 0v-1.212h3.636v1.212h-3.636zm7.272 0v-1.212h3.636v1.212h-3.636zm7.272 0v-1.212h3.636v1.212h-3.636zm7.272 0v-1.212h3.636v1.212h-3.636zm7.272 0v-1.212h3.636v1.212h-3.636zm7.272 0v-1.212h3.636v1.212h-3.636zm7.272 0v-1.212h3.636v1.212h-3.636zm7.272 0v-1.212h3.636v1.212h-3.636zm7.272 0v-1.212h3.637v1.212h-3.637zm7.273 0v-1.212h3.636v1.212h-3.636zm7.272 0v-1.212h3.636v1.212h-3.636zm7.272 0v-1.212h3.636v1.212h-3.636zm7.272 0v-1.212h3.636v1.212h-3.636zm7.272 0v-1.212h3.636v1.212h-3.636zm7.272 0v-1.212h3.636v1.212h-3.636zm7.272 0v-1.212h3.636v1.212h-3.636zm7.272 0v-1.212h3.636v1.212h-3.636zm7.272 0v-1.212h3.636v1.212h-3.636zm7.272 0v-1.212h3.636v1.212h-3.636zm7.272 0v-1.212h3.636v1.212h-3.636zm7.272 0v-1.212h3.636v1.212h-3.636zm7.272 0v-1.212h3.636v1.212h-3.636zm6.842 0v-1.212h1.778v1.212h-1.778z"/><path fill="#D6DADB" d="M2 30v-2h296v2zm38.818 52.594l36.587 30.55 28.655 14.177 42.237-24.408a1.799 1.799 0 0 1 1.738-.035l41.246 21.693 30.817-31.251a1.801 1.801 0 0 1 3.057.765 1.8 1.8 0 0 1-.494 1.761l-31.755 32.202a1.8 1.8 0 0 1-2.118.33l-41.55-21.853-42.212 24.394c-.521.3-1.159.321-1.698.054l-29.71-14.699a1.81 1.81 0 0 1-.356-.231l-36.75-30.687a1.8 1.8 0 1 1 2.306-2.762zm229.645 42.486v1.212h-22.899v-1.212h22.899z"/><path fill="#999" d="M255.777 116.442l.682-6.592h5.98v1.44h-4.58l-.378 3.372c.257-.186.537-.339.832-.455.34-.125.698-.189 1.06-.19a3.215 3.215 0 0 1 2.612 1.061 4.358 4.358 0 0 1 .946 2.955 4.213 4.213 0 0 1-.946 2.88 3.557 3.557 0 0 1-2.801 1.098 3.78 3.78 0 0 1-2.536-.833 2.88 2.88 0 0 1-.984-2.463h1.476a2.005 2.005 0 0 0 .568 1.516c.402.366.933.557 1.476.53a1.892 1.892 0 0 0 1.59-.72c.357-.618.49-1.34.378-2.045a3.002 3.002 0 0 0-.568-1.895 1.892 1.892 0 0 0-1.59-.72 2.533 2.533 0 0 0-1.362.304c-.305.21-.532.517-.643.871l-1.212-.114zm6.018 20.572h1.628v1.288h-1.628v2.765h-1.627v-2.803h-5.375v-.91l5.261-8.296h1.703v7.956h.038zm-5.26 0h3.784v-5.645.417l-3.785 5.228h.001zm.832 17.73h1.4a1.889 1.889 0 0 0 1.514-.53c.328-.435.49-.973.455-1.516a2.202 2.202 0 0 0-.492-1.553 1.967 1.967 0 0 0-1.514-.53 2.083 2.083 0 0 0-1.514.567 1.969 1.969 0 0 0-.568 1.478h-1.4a2.918 2.918 0 0 1 .984-2.311 3.78 3.78 0 0 1 2.687-.947 3.783 3.783 0 0 1 2.65.871 3.22 3.22 0 0 1 .983 2.539 2.88 2.88 0 0 1-1.779 2.614c.622.17 1.16.56 1.514 1.098a3.564 3.564 0 0 1-.643 4.281 4.01 4.01 0 0 1-2.725.947 4.125 4.125 0 0 1-2.725-.871 2.844 2.844 0 0 1-1.022-2.387h1.552c-.037.563.17 1.115.567 1.516a2.194 2.194 0 0 0 1.59.568 2.229 2.229 0 0 0 1.627-.568 2.159 2.159 0 0 0 .644-1.895 1.857 1.857 0 0 0-2.157-2.159h-1.628v-1.212zm5.715 26.33h-7.759v-1.137l3.785-4.357a11.046 11.046 0 0 0 1.438-1.856c.241-.429.371-.91.379-1.402a2.236 2.236 0 0 0-.53-1.515 1.74 1.74 0 0 0-1.4-.606c-.67-.05-1.33.183-1.817.644a2.537 2.537 0 0 0-.606 1.78h-1.438a3.375 3.375 0 0 1 1.022-2.614 4.047 4.047 0 0 1 2.952-1.06c.95-.046 1.88.296 2.574.947.632.63.975 1.494.946 2.386a3.79 3.79 0 0 1-.568 1.97 12.645 12.645 0 0 1-1.627 2.122l-3.142 3.41h5.753v1.287h.038v.001zm0-110.586a16.848 16.848 0 0 0-2.914 4.584 20.531 20.531 0 0 0-1.098 4.85v1.288h-1.703v-1.288a17.609 17.609 0 0 1 1.4-5.153 19.625 19.625 0 0 1 2.726-4.357h-6.51V69.2h8.1v1.288h-.001zm-.454-17.616a2.653 2.653 0 0 1-.53 1.629 3.102 3.102 0 0 1-1.438 1.06 3.775 3.775 0 0 1 1.665 1.137c.404.505.618 1.135.606 1.78a3.07 3.07 0 0 1-1.098 2.54 4.991 4.991 0 0 1-5.64 0 3.11 3.11 0 0 1-1.059-2.54 2.803 2.803 0 0 1 .606-1.78 3.52 3.52 0 0 1 1.627-1.136 3.036 3.036 0 0 1-1.4-1.061 2.727 2.727 0 0 1-.492-1.63c-.05-.914.31-1.803.984-2.424a3.778 3.778 0 0 1 2.573-.871 3.78 3.78 0 0 1 2.574.871 3.031 3.031 0 0 1 1.022 2.425zm-1.287 5.569a2.158 2.158 0 0 0-.643-1.63 2.271 2.271 0 0 0-1.628-.643 2.2 2.2 0 0 0-2.27 2.273 2.08 2.08 0 0 0 .643 1.591 2.647 2.647 0 0 0 3.293 0c.423-.417.644-.998.605-1.591zm-.19-5.531a2.045 2.045 0 0 0-.567-1.478 2.004 2.004 0 0 0-2.8 0 2.082 2.082 0 0 0-.53 1.478c-.031.544.16 1.077.53 1.477a2.08 2.08 0 0 0 2.8 0c.384-.394.589-.928.568-1.477h-.001z"/><path fill="#4BB4B3" d="M188.65 147.07h-35.047l-5.526-8.07-5.299 8.07h-35.047a4.73 4.73 0 0 0-4.731 4.735v24.511c0 1.255.497 2.46 1.384 3.348a4.739 4.739 0 0 0 3.347 1.388h80.92a4.73 4.73 0 0 0 4.844-4.736v-24.473a4.732 4.732 0 0 0-4.845-4.774v.001z"/><ellipse cx="223.38" cy="94.583" fill="#FFF" opacity=".6" rx="8.137" ry="8.373"/><path fill="#FF444F" d="M274.853 85.756v18.79h-28.575v-6.157l-5.034-3.238 5.034-3.202v-6.193h28.575zm-51.473-.758c5.17 0 9.349 4.3 9.349 9.585 0 5.195-4.035 9.435-9.083 9.58l-.267.004-.266-.004c-5.048-.145-9.083-4.385-9.083-9.58 0-5.286 4.178-9.585 9.35-9.585zm-.001 2.425c-3.816 0-6.925 3.198-6.925 7.16s3.109 7.16 6.925 7.16h.001c3.816 0 6.925-3.198 6.925-7.16s-3.109-7.16-6.926-7.16z"/><path fill="#FFF" d="M259.979 88.9a5.67 5.67 0 0 1 1.249 0c.389.092.769.218 1.135.379l-.416 1.743-.984-.265h-.984a2.157 2.157 0 0 0-1.741.833 3.336 3.336 0 0 0-.606 2.273 2.773 2.773 0 0 1 1.022-.644c.448-.163.923-.24 1.4-.227a3.028 3.028 0 0 1 2.498 1.136c.63.839.951 1.87.909 2.917a4.128 4.128 0 0 1-1.136 2.993 3.782 3.782 0 0 1-2.914 1.175 4.01 4.01 0 0 1-3.104-1.288 5.041 5.041 0 0 1-1.173-3.562v-2.348a5.116 5.116 0 0 1 1.363-3.789 4.615 4.615 0 0 1 3.482-1.326zm-.568 5.948c-.39-.007-.778.07-1.136.227a1.741 1.741 0 0 0-.719.569v.795a3.8 3.8 0 0 0 .53 2.198c.291.473.808.76 1.363.757a1.363 1.363 0 0 0 1.173-.682c.343-.488.528-1.07.53-1.667.03-.578-.13-1.15-.454-1.629a1.438 1.438 0 0 0-1.287-.606v.038z"/><path fill="#333" d="M217.298 19.003h4.38V20h-5.605v-9.242h1.225v8.245zm9.826.997c-.068-.135-.123-.377-.165-.724-.546.567-1.198.851-1.955.851-.677 0-1.233-.192-1.666-.575a1.858 1.858 0 0 1-.651-1.456c0-.715.272-1.27.816-1.667.543-.395 1.308-.593 2.294-.593h1.143v-.54c0-.41-.123-.737-.368-.98-.246-.244-.607-.365-1.086-.365-.419 0-.77.105-1.053.317-.284.212-.426.468-.426.768h-1.18c0-.343.121-.674.365-.993.243-.32.573-.573.99-.759.417-.186.875-.28 1.374-.28.791 0 1.411.199 1.86.594.449.396.681.94.698 1.635v3.161c0 .63.08 1.132.241 1.504V20h-1.231zm-1.949-.895c.368 0 .718-.095 1.048-.286.33-.19.569-.438.717-.742v-1.41h-.92c-1.44 0-2.159.422-2.159 1.264 0 .368.123.656.368.863.246.207.561.311.946.311zm8.78-.927c0-.317-.12-.564-.36-.74-.239-.175-.655-.326-1.25-.453s-1.066-.28-1.416-.457c-.349-.178-.607-.39-.774-.635a1.521 1.521 0 0 1-.25-.876c0-.563.237-1.039.713-1.428.476-.39 1.085-.584 1.825-.584.779 0 1.41.2 1.895.603.485.402.727.916.727 1.542h-1.18c0-.321-.137-.598-.41-.831-.273-.233-.617-.35-1.032-.35-.427 0-.761.094-1.003.28a.882.882 0 0 0-.361.73c0 .284.112.497.336.641.224.144.63.282 1.216.413.586.13 1.06.287 1.425.47.364.181.633.4.809.656.176.256.263.569.263.937a1.76 1.76 0 0 1-.736 1.476c-.49.37-1.128.555-1.91.555-.55 0-1.037-.097-1.46-.292a2.374 2.374 0 0 1-.994-.816 1.957 1.957 0 0 1-.359-1.133h1.175c.02.394.179.706.473.937.294.23.682.345 1.164.345.445 0 .801-.09 1.07-.27.269-.18.403-.42.403-.72h.001zm4.296-6.71v1.664h1.283v.908h-1.283v4.259c0 .275.058.481.172.619.114.137.309.206.584.206.135 0 .321-.025.558-.076V20a3.38 3.38 0 0 1-.9.127c-.526 0-.921-.159-1.188-.476-.267-.318-.4-.768-.4-1.352v-4.26h-1.25v-.907h1.25v-1.663h1.174v-.001zM244.307 20v-9.242h2.609c.804 0 1.515.178 2.133.533a3.604 3.604 0 0 1 1.431 1.517c.337.656.507 1.41.511 2.26v.59c0 .872-.168 1.636-.504 2.292a3.552 3.552 0 0 1-1.441 1.51c-.625.352-1.351.532-2.18.54h-2.559zm1.219-8.24v7.243h1.282c.94 0 1.67-.292 2.193-.876.523-.584.784-1.415.784-2.494v-.54c0-1.05-.246-1.865-.74-2.447-.492-.582-1.192-.877-2.097-.885h-1.422v-.001zm8.398 8.24h-1.174v-6.868h1.174V20zm-1.27-8.69c0-.19.058-.351.175-.482.116-.132.289-.197.517-.197.229 0 .402.065.52.197a.69.69 0 0 1 .178.482c0 .19-.059.35-.177.476-.119.127-.292.19-.52.19-.23 0-.402-.063-.518-.19a.677.677 0 0 1-.175-.476zm2.87 5.199c0-1.07.247-1.922.742-2.555.495-.633 1.151-.95 1.968-.95.838 0 1.492.297 1.961.89l.057-.762h1.073v6.703c0 .889-.263 1.589-.79 2.101s-1.235.768-2.123.768c-.495 0-.98-.106-1.454-.317-.474-.212-.836-.502-1.085-.87l.609-.704c.504.622 1.12.933 1.847.933.571 0 1.017-.161 1.336-.483.32-.321.48-.774.48-1.358v-.59c-.47.541-1.111.812-1.924.812-.804 0-1.454-.324-1.952-.971-.497-.648-.746-1.53-.746-2.647h.001zm1.18.133c0 .775.159 1.383.476 1.825.318.442.762.663 1.333.663.74 0 1.285-.336 1.632-1.009v-3.136c-.36-.656-.9-.984-1.62-.984-.57 0-1.017.223-1.338.667-.322.444-.483 1.102-.483 1.974zM264.372 20h-1.174v-6.868h1.174V20zm-1.27-8.69c0-.19.059-.351.175-.482.116-.132.289-.197.517-.197.229 0 .402.065.52.197.12.132.183.304.179.482 0 .19-.06.35-.178.476-.119.127-.292.19-.52.19-.23 0-.402-.063-.518-.19a.677.677 0 0 1-.174-.476h-.001zm4.742.159v1.663h1.282v.908h-1.282v4.259c0 .275.057.481.172.619.114.137.309.206.584.206.135 0 .321-.025.558-.076V20c-.309.085-.61.127-.901.127-.525 0-.92-.159-1.187-.476-.267-.318-.4-.768-.4-1.352v-4.26h-1.25v-.907h1.25v-1.663h1.174zm2.615 7.915c0-.203.06-.372.181-.508.121-.135.302-.203.543-.203.241 0 .424.068.55.203a.72.72 0 0 1 .186.508.684.684 0 0 1-.187.489c-.125.131-.308.197-.549.197-.241 0-.422-.066-.543-.197a.694.694 0 0 1-.18-.489h-.001zm.007-5.605a.74.74 0 0 1 .18-.508c.121-.135.302-.203.543-.203.242 0 .425.068.55.203a.72.72 0 0 1 .187.508.68.68 0 0 1-.187.49c-.125.13-.308.196-.55.196-.24 0-.422-.066-.542-.197a.695.695 0 0 1-.181-.489zm6.817 1.587l.47-4.608h4.735v1.085h-3.738l-.28 2.52a2.99 2.99 0 0 1 1.543-.4c.842 0 1.51.279 2.006.835.495.557.742 1.309.742 2.257 0 .952-.257 1.702-.771 2.25s-1.233.822-2.155.822c-.817 0-1.483-.226-2-.68-.516-.452-.81-1.078-.882-1.878h1.111c.072.529.26.928.565 1.196.305.27.707.403 1.206.403.546 0 .974-.186 1.285-.558.311-.373.467-.887.467-1.543 0-.617-.168-1.114-.505-1.488-.336-.375-.784-.562-1.342-.562-.512 0-.914.112-1.206.337l-.311.253-.94-.24v-.001z"/><path fill="#FFF" d="M141.492 166.514l1.627-8.6h2.482L142.92 170h-2.507l-1.967-8.085-1.967 8.085h-2.507l-2.681-12.086h2.481l1.636 8.583 1.992-8.583h2.108l1.984 8.6zM149.32 170h-2.407v-8.981h2.407V170zm-2.549-11.306c0-.36.12-.655.362-.888.24-.232.568-.348.983-.348.41 0 .736.116.98.348.243.233.365.529.365.888 0 .366-.123.664-.37.897-.246.232-.57.348-.975.348-.404 0-.729-.116-.975-.348a1.18 1.18 0 0 1-.37-.897zm6.732 2.325l.075 1.037c.642-.802 1.503-1.203 2.582-1.203.951 0 1.66.279 2.125.838.465.559.702 1.394.714 2.507V170h-2.4v-5.744c0-.51-.11-.879-.331-1.108-.222-.23-.59-.345-1.104-.345-.676 0-1.182.288-1.52.864V170h-2.398v-8.981h2.257zm9.754 5.27h-1.992l-.283-8.375h2.557l-.282 8.376v-.001zm-.996 1.312c.404 0 .729.12.975.357.246.238.37.542.37.913 0 .365-.124.667-.37.905s-.571.357-.975.357c-.399 0-.721-.12-.967-.357a1.205 1.205 0 0 1-.37-.905c0-.365.123-.668.37-.909.246-.24.568-.36.967-.36v-.001z"/><path fill="#333" d="M24.712 14.91c0 1.05-.186 1.97-.557 2.76-.37.792-.902 1.402-1.593 1.832-.69.43-1.483.644-2.376.644-.884 0-1.673-.212-2.366-.637-.694-.425-1.23-1.031-1.612-1.82-.38-.788-.573-1.695-.578-2.72v-.528c0-1.05.19-1.974.568-2.772.378-.799.913-1.411 1.604-1.839.69-.427 1.48-.64 2.369-.64.889 0 1.678.213 2.37.64.69.428 1.225 1.04 1.603 1.839.379.798.568 1.72.568 2.765v.476zm-2.227-.484c0-1.118-.2-1.968-.6-2.549-.4-.58-.972-.871-1.714-.871-.737 0-1.306.287-1.707.86-.4.574-.603 1.415-.608 2.524v.52c0 1.089.2 1.933.601 2.534.4.6.977.9 1.729.9.737 0 1.303-.289 1.699-.867.395-.579.595-1.422.6-2.53v-.521zm6.65 2.989l1.473-5.34h2.212L30.146 20h-2.021l-2.673-7.925h2.212l1.472 5.34h-.001zm8.167 2.731c-1.162 0-2.108-.356-2.838-1.069s-1.095-1.662-1.095-2.849v-.205c0-.796.154-1.508.462-2.135a3.388 3.388 0 0 1 1.307-1.45c.564-.34 1.207-.51 1.93-.51 1.084 0 1.937.343 2.56 1.026.622.684.934 1.653.934 2.908v.864h-5.047c.068.518.275.933.619 1.245.344.313.78.469 1.307.469.816 0 1.453-.295 1.912-.886l1.04 1.164c-.317.45-.747.8-1.289 1.051a4.237 4.237 0 0 1-1.802.377zm-.241-6.503c-.42 0-.76.141-1.022.424-.261.284-.429.689-.502 1.216h2.944v-.168c-.01-.469-.136-.832-.38-1.088-.245-.256-.591-.384-1.04-.384zm9.155.417a5.711 5.711 0 0 0-.762-.059c-.8 0-1.326.271-1.575.813V20h-2.116v-7.925h2l.058.945c.425-.728 1.013-1.091 1.765-1.091.234 0 .454.031.66.095l-.03 2.036z"/></g></svg>