<svg width="64" height="64" xmlns="http://www.w3.org/2000/svg"><g fill="none" fill-rule="evenodd"><path d="M0 0h64v64H0z"/><path d="M62.735 53.137h-2.1V19.453c0-2.812-2.288-5.1-5.101-5.1H46.24a.656.656 0 100 1.313h9.293a3.792 3.792 0 013.788 3.787v33.684H4.678V19.453c0-2.088 1.7-3.787 3.788-3.787h9.293a.656.656 0 100-1.313H8.466a5.106 5.106 0 00-5.102 5.1v33.684h-2.1a.656.656 0 00-.656.656v2.757c0 .251.144.48.37.59l4.548 2.206c.09.043.187.065.287.065h52.373c.1 0 .197-.023.287-.065l4.548-2.205c.226-.11.37-.34.37-.591v-2.757a.655.655 0 00-.656-.656zm-.656 3.002l-4.043 1.96H5.964l-4.043-1.96V54.45H62.08v1.689z" fill="#2A3052" fill-rule="nonzero"/><path d="M17.546 19.167a.656.656 0 100-1.312H7.054a.656.656 0 00-.656.656v32.526c0 .363.294.657.656.657h49.892a.656.656 0 00.657-.657V18.511a.656.656 0 00-.657-.656H46.455a.656.656 0 100 1.312h9.835v31.214H7.71V19.167h9.836zM24.558 56.93h14.884a.656.656 0 100-1.312H24.558a.656.656 0 100 1.313z" fill="#2A3052" fill-rule="nonzero"/><path d="M45 22a4 4 0 014 4v18a4 4 0 01-4 4H19a4 4 0 01-4-4V26a4 4 0 014-4h26zm0 1.5H19a2.5 2.5 0 00-2.495 2.336L16.5 26v18a2.5 2.5 0 002.336 2.495L19 46.5h26a2.5 2.5 0 002.495-2.336L47.5 44V26a2.5 2.5 0 00-2.336-2.495L45 23.5zM19.57 20.902a.656.656 0 00.655-.657v-3.102c0-6.493 5.283-11.775 11.775-11.775s11.775 5.282 11.775 11.775v3.102a.656.656 0 101.312 0v-3.102c0-7.217-5.87-13.088-13.087-13.088-7.216 0-13.087 5.871-13.087 13.088v3.102c0 .363.293.657.656.657z" fill="#2A3052" fill-rule="nonzero"/><path d="M40.595 20.902a.656.656 0 00.657-.657v-3.378c0-5.102-4.15-9.252-9.252-9.252s-9.252 4.15-9.252 9.252v3.378a.656.656 0 101.313 0v-3.378c0-4.377 3.561-7.938 7.938-7.938s7.938 3.561 7.938 7.938v3.378a.658.658 0 00.658.657z" fill="#2A3052" fill-rule="nonzero"/><path d="M29.04 35.59v4.396a2.963 2.963 0 002.96 2.96 2.964 2.964 0 002.961-2.96V35.59a4.979 4.979 0 002.052-4.044 5.018 5.018 0 00-5.012-5.013 5.018 5.018 0 00-5.013 5.013c0 1.616.76 3.102 2.052 4.044zM32 27.846c2.04 0 3.7 1.66 3.7 3.7a3.68 3.68 0 01-1.743 3.14.656.656 0 00-.31.556v4.744A1.65 1.65 0 0132 41.633a1.65 1.65 0 01-1.648-1.647v-4.744a.654.654 0 00-.309-.557 3.676 3.676 0 01-1.743-3.14c0-2.04 1.66-3.7 3.7-3.7z" fill="#E98024" fill-rule="nonzero"/></g></svg>