<svg xmlns="http://www.w3.org/2000/svg" width="16" height="16" viewBox="0 0 16 16">
    <g fill="none">
        <path fill="#FF444F" d="M15.5 7.988V10h-5.334L12 11.835c.374.373.584.88.584 1.408 0 .528-.21 1.034-.584 1.407l-.006.007L8 10.663l2.248-2.248c.121-.124.225-.264.31-.415l4.942-.012zM4.006.343l4.242 4.243c.78.781.78 2.047 0 2.828l-4.242 4.243L4 11.65c-.374-.373-.584-.88-.584-1.407 0-.528.21-1.034.584-1.407L5.834 7 .5 7.012V5h5.334L4 3.165c-.374-.373-.584-.88-.584-1.407 0-.529.21-1.035.584-1.408l.006-.007zm7.987 3c.382.38.592.887.592 1.416 0 .47-.166.922-.466 1.279L12 6.167l-1.2 1.2c.11-.594-.053-1.204-.44-1.66l-.112-.121L10 5.337l1.993-1.994z"/>
        <path fill="#85ACB0" d="M9.5 13v3h-2v-3h2zm0-13v3h-2V0h2z"/>
    </g>
</svg>
