<svg xmlns="http://www.w3.org/2000/svg" width="16" height="16" viewBox="0 0 16 16">
    <g fill="none">
        <path fill="#FF444F" d="M3.507 2.343l4.241 4.243c.78.781.78 2.047 0 2.828l-4.242 4.243-.006-.007c-.374-.373-.584-.88-.584-1.407 0-.528.21-1.034.584-1.407L5.334 9 0 9.012V7h5.334L3.5 5.165c-.374-.373-.584-.88-.584-1.407 0-.529.21-1.035.584-1.408l.007-.007zm8.986 0l.007.007c.374.373.584.88.584 1.407 0 .528-.21 1.034-.584 1.407L10.666 7 16 6.988V9h-5.334l1.835 1.835c.374.373.584.88.584 1.408 0 .528-.21 1.034-.584 1.407l-.007.007L9 10.163l.748-.749c.78-.781.78-2.047 0-2.828L9 5.837l3.493-3.494z"/>
        <path fill="#85ACB0" d="M9 12v4H7v-4h2zM9 0v4H7V0h2z"/>
    </g>
</svg>
