<svg width="680" height="99" xmlns="http://www.w3.org/2000/svg"><g fill="none" fill-rule="evenodd"><path fill="#E5E5E5" d="M0 55h680v2H0z"/><path stroke="#DEDEDE" stroke-width="2" fill="#F2F2F2" d="M614 41h7v13h-7zM558 41h7v13h-7z"/><path fill="#2A3052" d="M547 0h85v43h-85z"/><path d="M567.296 28.216c.84 0 1.551-.108 2.133-.324a3.216 3.216 0 001.413-.99c.36-.444.621-1.002.783-1.674.162-.672.243-1.464.243-2.376v-7.416h-1.512v7.776c0 1.2-.222 2.109-.666 2.727-.444.618-1.224.927-2.34.927-1.116 0-1.896-.309-2.34-.927-.444-.618-.666-1.527-.666-2.727v-7.776h-1.512v7.416c0 .912.075 1.704.225 2.376.15.672.399 1.23.747 1.674.348.444.807.774 1.377.99.57.216 1.275.324 2.115.324zm11.358 0c.672 0 1.275-.09 1.809-.27.534-.18.987-.432 1.359-.756s.657-.72.855-1.188c.198-.468.297-.99.297-1.566 0-.936-.276-1.686-.828-2.25-.552-.564-1.446-.984-2.682-1.26l-1.026-.234c-.792-.18-1.383-.423-1.773-.729-.39-.306-.585-.759-.585-1.359 0-.684.231-1.197.693-1.539.462-.342 1.095-.513 1.899-.513.732 0 1.344.138 1.836.414.492.276.912.654 1.26 1.134l1.134-.828a4.695 4.695 0 00-1.719-1.53c-.678-.348-1.491-.522-2.439-.522-.612 0-1.173.075-1.683.225-.51.15-.948.369-1.314.657a2.963 2.963 0 00-.855 1.08c-.204.432-.306.924-.306 1.476 0 .972.303 1.725.909 2.259.606.534 1.485.933 2.637 1.197l1.026.234c.828.192 1.422.45 1.782.774.36.324.54.786.54 1.386 0 .72-.237 1.296-.711 1.728-.474.432-1.161.648-2.061.648-.732 0-1.368-.153-1.908-.459-.54-.306-1.032-.753-1.476-1.341l-1.116.936a5.54 5.54 0 001.836 1.611c.72.39 1.59.585 2.61.585zM589.796 28c.78 0 1.488-.132 2.124-.396a4.298 4.298 0 001.629-1.179c.45-.522.795-1.176 1.035-1.962.24-.786.36-1.701.36-2.745s-.12-1.959-.36-2.745-.585-1.44-1.035-1.962a4.298 4.298 0 00-1.629-1.179c-.636-.264-1.344-.396-2.124-.396h-4.212V28h4.212zm0-1.332h-2.7v-9.9h2.7c.516 0 .99.087 1.422.261.432.174.804.429 1.116.765.312.336.555.747.729 1.233.174.486.261 1.041.261 1.665v2.052c0 .624-.087 1.179-.261 1.665a3.538 3.538 0 01-.729 1.233 3.067 3.067 0 01-1.116.765 3.772 3.772 0 01-1.422.261zM609.83 28v-1.332h-6.606l3.384-3.042c.396-.36.765-.72 1.107-1.08.342-.36.633-.729.873-1.107s.429-.777.567-1.197c.138-.42.207-.876.207-1.368 0-.54-.087-1.032-.261-1.476a3.323 3.323 0 00-.747-1.152 3.332 3.332 0 00-1.206-.756c-.48-.18-1.026-.27-1.638-.27-.612 0-1.143.084-1.593.252-.45.168-.834.39-1.152.666a3.839 3.839 0 00-.792.945c-.21.354-.375.717-.495 1.089l1.35.522c.084-.3.195-.579.333-.837s.312-.483.522-.675a2.28 2.28 0 01.747-.45 2.865 2.865 0 011.008-.162c.78 0 1.362.216 1.746.648.384.432.576.996.576 1.692v.216c0 .612-.198 1.221-.594 1.827a9.1 9.1 0 01-1.476 1.719l-4.104 3.78V28h8.244zm6.516.216c.66 0 1.251-.102 1.773-.306a3.825 3.825 0 001.332-.855c.366-.366.645-.804.837-1.314.192-.51.288-1.071.288-1.683 0-.612-.093-1.158-.279-1.638a3.396 3.396 0 00-.783-1.215 3.518 3.518 0 00-1.188-.765 4.034 4.034 0 00-1.494-.27c-.66 0-1.179.126-1.557.378a3.951 3.951 0 00-1.017 1.008h-.126l.36-4.788H620v-1.332h-6.732l-.45 6.912 1.278.18a4.43 4.43 0 01.891-.747c.33-.21.783-.315 1.359-.315.864 0 1.518.228 1.962.684.444.456.666 1.098.666 1.926v.18c0 .828-.222 1.47-.666 1.926-.444.456-1.098.684-1.962.684-.384 0-.714-.039-.99-.117a2.462 2.462 0 01-.729-.333 2.947 2.947 0 01-.576-.522 5.567 5.567 0 01-.495-.684l-1.134.864c.192.276.405.54.639.792.234.252.507.48.819.684.312.204.669.366 1.071.486.402.12.867.18 1.395.18z" fill="#FFF" fill-rule="nonzero"/><path d="M557.968 96.156c.763 0 1.413-.184 1.95-.553.538-.368.95-.873 1.235-1.514l-.87-.546c-.182.494-.468.89-.858 1.19-.39.299-.876.448-1.456.448-.79 0-1.4-.264-1.833-.793-.434-.529-.65-1.261-.65-2.197v-1.352c0-.468.056-.89.169-1.267.112-.378.275-.703.487-.976.212-.273.472-.483.78-.63a2.393 2.393 0 011.046-.221c.564 0 1.032.14 1.405.422.372.282.65.657.832 1.125l.884-.533c-.286-.633-.687-1.122-1.203-1.469s-1.155-.52-1.917-.52c-1.153 0-2.05.41-2.691 1.228-.642.82-.962 1.992-.962 3.517s.32 2.68.962 3.464c.64.785 1.538 1.177 2.69 1.177zm7.306 0c.451 0 .86-.082 1.229-.247.368-.165.687-.4.956-.709.268-.307.476-.675.624-1.104.147-.43.22-.913.22-1.45 0-.529-.073-1.01-.22-1.443a3.266 3.266 0 00-.624-1.111 2.74 2.74 0 00-.956-.709 2.977 2.977 0 00-1.229-.247c-.45 0-.862.082-1.235.247-.372.165-.69.4-.955.709-.264.307-.47.678-.617 1.111a4.462 4.462 0 00-.221 1.443c0 .537.073 1.02.22 1.45.148.429.354.797.618 1.105.264.307.583.543.956.708.372.165.784.247 1.235.247zm0-.923c-.563 0-1.022-.173-1.378-.52-.355-.347-.533-.875-.533-1.586v-.962c0-.71.178-1.24.533-1.586.356-.347.815-.52 1.378-.52.564 0 1.023.173 1.378.52.356.347.533.875.533 1.586v.962c0 .71-.177 1.24-.532 1.586-.356.347-.815.52-1.378.52zm5.785.767v-4.654a1.127 1.127 0 01.494-.962c.148-.104.317-.182.507-.234.191-.052.39-.078.598-.078.494 0 .858.152 1.092.455.234.303.351.754.351 1.352V96h1.04v-4.654c0-.217.044-.405.13-.565.087-.16.204-.293.351-.397a1.61 1.61 0 01.501-.234c.186-.052.383-.078.591-.078.512 0 .884.152 1.118.455.234.303.351.754.351 1.352V96h1.04v-4.303c0-.815-.192-1.445-.578-1.892-.386-.446-.92-.669-1.606-.669-.572 0-1.024.136-1.358.41a2.077 2.077 0 00-.683.955h-.026c-.182-.485-.459-.834-.832-1.047a2.426 2.426 0 00-1.222-.318 2.1 2.1 0 00-.676.097c-.19.065-.357.154-.5.267a1.667 1.667 0 00-.364.397c-.1.151-.189.314-.267.487h-.052v-1.092h-1.04V96h1.04zm11.35 0v-4.654a1.127 1.127 0 01.493-.962c.148-.104.317-.182.507-.234.191-.052.39-.078.598-.078.494 0 .858.152 1.092.455.234.303.351.754.351 1.352V96h1.04v-4.654c0-.217.044-.405.13-.565.087-.16.204-.293.351-.397a1.61 1.61 0 01.501-.234c.186-.052.383-.078.591-.078.512 0 .884.152 1.118.455.234.303.351.754.351 1.352V96h1.04v-4.303c0-.815-.192-1.445-.578-1.892-.386-.446-.92-.669-1.606-.669-.572 0-1.024.136-1.358.41a2.077 2.077 0 00-.683.955h-.026c-.182-.485-.459-.834-.832-1.047a2.426 2.426 0 00-1.222-.318 2.1 2.1 0 00-.676.097c-.19.065-.357.154-.5.267a1.667 1.667 0 00-.364.397c-.1.151-.189.314-.267.487h-.052v-1.092h-1.04V96h1.04zm10.829-8.281c.225 0 .387-.054.487-.163a.6.6 0 00.15-.422v-.169a.6.6 0 00-.15-.423c-.1-.108-.262-.162-.488-.162-.225 0-.387.054-.487.162a.6.6 0 00-.15.423v.169a.6.6 0 00.15.422c.1.109.262.163.487.163zm.52 8.281v-6.708h-1.04V96h1.04zm4.224.156c.772 0 1.378-.186 1.82-.559.442-.373.663-.884.663-1.534 0-.511-.156-.925-.468-1.241-.311-.317-.84-.531-1.585-.644l-.52-.078c-.416-.07-.735-.178-.956-.325-.221-.147-.331-.386-.331-.715 0-.32.11-.574.331-.76.221-.187.548-.28.981-.28.434 0 .793.085 1.08.254.286.169.502.357.65.565l.688-.624a3.074 3.074 0 00-.968-.793c-.368-.19-.825-.286-1.371-.286-.338 0-.655.041-.95.124a2.185 2.185 0 00-.76.37c-.212.165-.38.37-.5.618a1.939 1.939 0 00-.182.864c0 .312.054.58.162.806.108.225.26.414.455.566.195.151.423.273.683.364.26.09.546.158.858.201l.533.078c.442.07.747.197.916.384.169.186.254.409.254.669 0 .347-.124.615-.371.806-.247.19-.591.286-1.033.286a2.27 2.27 0 01-1.118-.266 2.917 2.917 0 01-.871-.761l-.741.598c.303.399.665.717 1.085.956.42.238.943.357 1.567.357zm6.331 0c.772 0 1.378-.186 1.82-.559.442-.373.663-.884.663-1.534 0-.511-.156-.925-.468-1.241-.311-.317-.84-.531-1.585-.644l-.52-.078c-.416-.07-.735-.178-.956-.325-.221-.147-.332-.386-.332-.715 0-.32.111-.574.332-.76.221-.187.548-.28.981-.28.434 0 .793.085 1.08.254.286.169.502.357.65.565l.689-.624a3.074 3.074 0 00-.969-.793c-.368-.19-.825-.286-1.371-.286-.338 0-.655.041-.95.124a2.185 2.185 0 00-.76.37c-.212.165-.38.37-.5.618a1.939 1.939 0 00-.182.864c0 .312.054.58.162.806.108.225.26.414.455.566.195.151.423.273.683.364.26.09.546.158.858.201l.533.078c.442.07.747.197.916.384.169.186.254.409.254.669 0 .347-.124.615-.371.806-.247.19-.591.286-1.033.286a2.27 2.27 0 01-1.118-.266 2.917 2.917 0 01-.871-.761l-.741.598c.303.399.665.717 1.085.956.42.238.943.357 1.567.357zm4.836-8.437c.226 0 .388-.054.488-.162a.6.6 0 00.15-.423v-.169a.6.6 0 00-.15-.423c-.1-.108-.262-.162-.487-.162-.226 0-.388.054-.488.162a.6.6 0 00-.15.423v.169a.6.6 0 00.15.422c.1.109.262.163.488.163zm.52 8.281v-6.708h-1.04V96h1.04zm4.745.156c.451 0 .86-.082 1.229-.247.368-.165.687-.4.956-.709.268-.307.476-.675.624-1.104.147-.43.22-.913.22-1.45 0-.529-.073-1.01-.22-1.443a3.266 3.266 0 00-.624-1.111 2.74 2.74 0 00-.956-.709 2.977 2.977 0 00-1.229-.247c-.45 0-.862.082-1.235.247-.372.165-.69.4-.955.709-.264.307-.47.678-.618 1.111a4.462 4.462 0 00-.22 1.443c0 .537.073 1.02.22 1.45.148.429.354.797.618 1.105.264.307.583.543.955.708.373.165.785.247 1.235.247zm0-.923c-.563 0-1.022-.173-1.378-.52-.355-.347-.533-.875-.533-1.586v-.962c0-.71.178-1.24.533-1.586.356-.347.815-.52 1.378-.52.564 0 1.023.173 1.378.52.356.347.533.875.533 1.586v.962c0 .71-.177 1.24-.533 1.586-.355.347-.814.52-1.378.52zM620.2 96v-4.654c0-.217.046-.405.137-.565.091-.16.214-.293.37-.397.156-.104.332-.182.527-.234.195-.052.396-.078.605-.078 1.014 0 1.52.602 1.52 1.807V96h1.04v-4.303c0-.815-.201-1.445-.604-1.892-.403-.446-.951-.669-1.645-.669-.502 0-.903.113-1.202.338-.299.225-.53.529-.696.91h-.052v-1.092h-1.04V96h1.04z" fill="#2A3052" fill-rule="nonzero"/><path d="M589.5 33a2.5 2.5 0 01.5 4.95V83h-1V37.95a2.5 2.5 0 01.5-4.95z" fill="#E98024"/><path d="M534.792 21.312V18.48h-11.184v2.832h11.184zm0 5.568v-2.832h-11.184v2.832h11.184z" fill="#E98024" fill-rule="nonzero"/><path stroke="#DEDEDE" stroke-width="2" fill="#F2F2F2" d="M484 41h7v13h-7zM404 41h7v13h-7z"/><path stroke="#DEDEDE" stroke-width="2" fill="#F2F2F2" d="M384 1h127v41H384z"/><path d="M399.048 28.216c.84 0 1.551-.108 2.133-.324a3.216 3.216 0 001.413-.99c.36-.444.621-1.002.783-1.674.162-.672.243-1.464.243-2.376v-7.416h-1.512v7.776c0 1.2-.222 2.109-.666 2.727-.444.618-1.224.927-2.34.927-1.116 0-1.896-.309-2.34-.927-.444-.618-.666-1.527-.666-2.727v-7.776h-1.512v7.416c0 .912.075 1.704.225 2.376.15.672.399 1.23.747 1.674.348.444.807.774 1.377.99.57.216 1.275.324 2.115.324zm11.358 0c.672 0 1.275-.09 1.809-.27.534-.18.987-.432 1.359-.756s.657-.72.855-1.188c.198-.468.297-.99.297-1.566 0-.936-.276-1.686-.828-2.25-.552-.564-1.446-.984-2.682-1.26l-1.026-.234c-.792-.18-1.383-.423-1.773-.729-.39-.306-.585-.759-.585-1.359 0-.684.231-1.197.693-1.539.462-.342 1.095-.513 1.899-.513.732 0 1.344.138 1.836.414.492.276.912.654 1.26 1.134l1.134-.828a4.695 4.695 0 00-1.719-1.53c-.678-.348-1.491-.522-2.439-.522-.612 0-1.173.075-1.683.225-.51.15-.948.369-1.314.657a2.963 2.963 0 00-.855 1.08c-.204.432-.306.924-.306 1.476 0 .972.303 1.725.909 2.259.606.534 1.485.933 2.637 1.197l1.026.234c.828.192 1.422.45 1.782.774.36.324.54.786.54 1.386 0 .72-.237 1.296-.711 1.728-.474.432-1.161.648-2.061.648-.732 0-1.368-.153-1.908-.459-.54-.306-1.032-.753-1.476-1.341l-1.116.936a5.54 5.54 0 001.836 1.611c.72.39 1.59.585 2.61.585zM421.548 28c.78 0 1.488-.132 2.124-.396a4.298 4.298 0 001.629-1.179c.45-.522.795-1.176 1.035-1.962.24-.786.36-1.701.36-2.745s-.12-1.959-.36-2.745-.585-1.44-1.035-1.962a4.298 4.298 0 00-1.629-1.179c-.636-.264-1.344-.396-2.124-.396h-4.212V28h4.212zm0-1.332h-2.7v-9.9h2.7c.516 0 .99.087 1.422.261.432.174.804.429 1.116.765.312.336.555.747.729 1.233.174.486.261 1.041.261 1.665v2.052c0 .624-.087 1.179-.261 1.665a3.538 3.538 0 01-.729 1.233 3.067 3.067 0 01-1.116.765 3.772 3.772 0 01-1.422.261zm15.75 1.548c.66 0 1.251-.102 1.773-.306a3.825 3.825 0 001.332-.855c.366-.366.645-.804.837-1.314.192-.51.288-1.071.288-1.683 0-.612-.093-1.158-.279-1.638a3.396 3.396 0 00-.783-1.215 3.518 3.518 0 00-1.188-.765 4.034 4.034 0 00-1.494-.27c-.66 0-1.179.126-1.557.378a3.951 3.951 0 00-1.017 1.008h-.126l.36-4.788h5.508v-1.332h-6.732l-.45 6.912 1.278.18a4.43 4.43 0 01.891-.747c.33-.21.783-.315 1.359-.315.864 0 1.518.228 1.962.684.444.456.666 1.098.666 1.926v.18c0 .828-.222 1.47-.666 1.926-.444.456-1.098.684-1.962.684-.384 0-.714-.039-.99-.117a2.462 2.462 0 01-.729-.333 2.947 2.947 0 01-.576-.522 5.567 5.567 0 01-.495-.684l-1.134.864c.192.276.405.54.639.792.234.252.507.48.819.684.312.204.669.366 1.071.486.402.12.867.18 1.395.18zm10.89 0c1.5 0 2.595-.57 3.285-1.71.69-1.14 1.035-2.736 1.035-4.788s-.345-3.648-1.035-4.788c-.69-1.14-1.785-1.71-3.285-1.71-1.5 0-2.595.57-3.285 1.71-.69 1.14-1.035 2.736-1.035 4.788s.345 3.648 1.035 4.788c.69 1.14 1.785 1.71 3.285 1.71zm0-1.314c-.492 0-.912-.102-1.26-.306a2.34 2.34 0 01-.846-.864 4.3 4.3 0 01-.477-1.314 8.46 8.46 0 01-.153-1.674v-2.052c0-.612.051-1.17.153-1.674a4.3 4.3 0 01.477-1.314 2.34 2.34 0 01.846-.864c.348-.204.768-.306 1.26-.306s.912.102 1.26.306c.348.204.63.492.846.864a4.3 4.3 0 01.477 1.314 8.46 8.46 0 01.153 1.674v2.052a8.46 8.46 0 01-.153 1.674 4.3 4.3 0 01-.477 1.314 2.34 2.34 0 01-.846.864c-.348.204-.768.306-1.26.306zm10.8 1.314c1.5 0 2.595-.57 3.285-1.71.69-1.14 1.035-2.736 1.035-4.788s-.345-3.648-1.035-4.788c-.69-1.14-1.785-1.71-3.285-1.71-1.5 0-2.595.57-3.285 1.71-.69 1.14-1.035 2.736-1.035 4.788s.345 3.648 1.035 4.788c.69 1.14 1.785 1.71 3.285 1.71zm0-1.314c-.492 0-.912-.102-1.26-.306a2.34 2.34 0 01-.846-.864 4.3 4.3 0 01-.477-1.314 8.46 8.46 0 01-.153-1.674v-2.052c0-.612.051-1.17.153-1.674a4.3 4.3 0 01.477-1.314 2.34 2.34 0 01.846-.864c.348-.204.768-.306 1.26-.306s.912.102 1.26.306c.348.204.63.492.846.864a4.3 4.3 0 01.477 1.314 8.46 8.46 0 01.153 1.674v2.052a8.46 8.46 0 01-.153 1.674 4.3 4.3 0 01-.477 1.314 2.34 2.34 0 01-.846.864c-.348.204-.768.306-1.26.306zm7.308 3.492a4.802 4.802 0 001.206-1.557c.288-.594.432-1.137.432-1.629v-.252c0-.312-.087-.567-.261-.765-.174-.198-.453-.297-.837-.297-.384 0-.663.099-.837.297-.174.198-.261.453-.261.765v.252c0 .24.057.444.171.612.114.168.291.282.531.342-.096.42-.255.801-.477 1.143a7.96 7.96 0 01-.873 1.089h1.206zm8.388-2.178c1.5 0 2.595-.57 3.285-1.71.69-1.14 1.035-2.736 1.035-4.788s-.345-3.648-1.035-4.788c-.69-1.14-1.785-1.71-3.285-1.71-1.5 0-2.595.57-3.285 1.71-.69 1.14-1.035 2.736-1.035 4.788s.345 3.648 1.035 4.788c.69 1.14 1.785 1.71 3.285 1.71zm0-1.314c-.492 0-.912-.102-1.26-.306a2.34 2.34 0 01-.846-.864 4.3 4.3 0 01-.477-1.314 8.46 8.46 0 01-.153-1.674v-2.052c0-.612.051-1.17.153-1.674a4.3 4.3 0 01.477-1.314 2.34 2.34 0 01.846-.864c.348-.204.768-.306 1.26-.306s.912.102 1.26.306c.348.204.63.492.846.864a4.3 4.3 0 01.477 1.314 8.46 8.46 0 01.153 1.674v2.052a8.46 8.46 0 01-.153 1.674 4.3 4.3 0 01-.477 1.314 2.34 2.34 0 01-.846.864c-.348.204-.768.306-1.26.306zm10.8 1.314c1.5 0 2.595-.57 3.285-1.71.69-1.14 1.035-2.736 1.035-4.788s-.345-3.648-1.035-4.788c-.69-1.14-1.785-1.71-3.285-1.71-1.5 0-2.595.57-3.285 1.71-.69 1.14-1.035 2.736-1.035 4.788s.345 3.648 1.035 4.788c.69 1.14 1.785 1.71 3.285 1.71zm0-1.314c-.492 0-.912-.102-1.26-.306a2.34 2.34 0 01-.846-.864 4.3 4.3 0 01-.477-1.314 8.46 8.46 0 01-.153-1.674v-2.052c0-.612.051-1.17.153-1.674a4.3 4.3 0 01.477-1.314 2.34 2.34 0 01.846-.864c.348-.204.768-.306 1.26-.306s.912.102 1.26.306c.348.204.63.492.846.864a4.3 4.3 0 01.477 1.314 8.46 8.46 0 01.153 1.674v2.052a8.46 8.46 0 01-.153 1.674 4.3 4.3 0 01-.477 1.314 2.34 2.34 0 01-.846.864c-.348.204-.768.306-1.26.306zm10.8 1.314c1.5 0 2.595-.57 3.285-1.71.69-1.14 1.035-2.736 1.035-4.788s-.345-3.648-1.035-4.788c-.69-1.14-1.785-1.71-3.285-1.71-1.5 0-2.595.57-3.285 1.71-.69 1.14-1.035 2.736-1.035 4.788s.345 3.648 1.035 4.788c.69 1.14 1.785 1.71 3.285 1.71zm0-1.314c-.492 0-.912-.102-1.26-.306a2.34 2.34 0 01-.846-.864 4.3 4.3 0 01-.477-1.314 8.46 8.46 0 01-.153-1.674v-2.052c0-.612.051-1.17.153-1.674a4.3 4.3 0 01.477-1.314 2.34 2.34 0 01.846-.864c.348-.204.768-.306 1.26-.306s.912.102 1.26.306c.348.204.63.492.846.864a4.3 4.3 0 01.477 1.314 8.46 8.46 0 01.153 1.674v2.052a8.46 8.46 0 01-.153 1.674 4.3 4.3 0 01-.477 1.314 2.34 2.34 0 01-.846.864c-.348.204-.768.306-1.26.306z" fill="#2A3052" fill-rule="nonzero"/><g><path d="M421.637 96.156c.485 0 .92-.065 1.306-.195a2.87 2.87 0 00.982-.546 2.32 2.32 0 00.617-.858c.143-.338.215-.715.215-1.131 0-.676-.2-1.218-.599-1.625-.398-.407-1.044-.71-1.937-.91l-.74-.169c-.573-.13-1-.305-1.281-.526-.282-.221-.423-.549-.423-.982 0-.494.167-.864.501-1.111.334-.247.79-.371 1.371-.371.53 0 .971.1 1.326.299.356.2.66.472.91.819l.82-.598a3.391 3.391 0 00-1.242-1.105c-.49-.251-1.077-.377-1.762-.377-.442 0-.847.054-1.215.163a2.788 2.788 0 00-.949.474 2.14 2.14 0 00-.617.78 2.468 2.468 0 00-.222 1.066c0 .702.22 1.246.657 1.632.438.385 1.072.673 1.904.864l.741.169c.598.139 1.027.325 1.287.559.26.234.39.568.39 1.001 0 .52-.17.936-.513 1.248-.342.312-.839.468-1.489.468-.528 0-.988-.11-1.378-.331-.39-.221-.745-.544-1.066-.969l-.806.676a4 4 0 001.326 1.164c.52.281 1.149.422 1.885.422zm5.94 2.444v-3.692h.052c.4.832 1.053 1.248 1.963 1.248.417 0 .794-.082 1.132-.247.338-.165.626-.399.864-.702.238-.303.42-.672.546-1.105.126-.433.189-.919.189-1.456 0-.537-.063-1.023-.189-1.456a3.217 3.217 0 00-.546-1.105 2.457 2.457 0 00-.864-.702 2.548 2.548 0 00-1.131-.247c-.468 0-.87.102-1.203.306-.334.203-.587.517-.76.942h-.052v-1.092h-1.04V98.6h1.04zm1.73-3.38c-.235 0-.458-.03-.67-.091a1.68 1.68 0 01-.553-.267 1.303 1.303 0 01-.37-.429 1.2 1.2 0 01-.137-.578v-2.496c0-.182.046-.353.137-.514.091-.16.214-.296.37-.409a1.87 1.87 0 01.553-.267c.212-.065.435-.097.67-.097.589 0 1.052.184 1.39.552.338.369.507.852.507 1.45v1.144c0 .598-.169 1.081-.507 1.45-.338.368-.801.552-1.39.552zm7.305.936c.451 0 .86-.082 1.229-.247.368-.165.687-.4.955-.709.27-.307.477-.675.624-1.104.148-.43.221-.913.221-1.45 0-.529-.073-1.01-.22-1.443a3.266 3.266 0 00-.625-1.111 2.74 2.74 0 00-.955-.709 2.977 2.977 0 00-1.229-.247c-.45 0-.862.082-1.235.247-.372.165-.69.4-.955.709-.264.307-.47.678-.618 1.111a4.462 4.462 0 00-.22 1.443c0 .537.073 1.02.22 1.45.148.429.354.797.618 1.105.264.307.583.543.955.708.373.165.785.247 1.235.247zm0-.923c-.563 0-1.022-.173-1.378-.52-.355-.347-.533-.875-.533-1.586v-.962c0-.71.178-1.24.533-1.586.356-.347.815-.52 1.378-.52.564 0 1.023.173 1.378.52.356.347.533.875.533 1.586v.962c0 .71-.177 1.24-.533 1.586-.355.347-.814.52-1.378.52zm7.527.767v-.91h-1.365v-4.888h1.47v-.91h-1.47v-1.859h-.936v1.248c0 .225-.04.383-.123.474-.082.091-.236.137-.462.137h-.624v.91h1.105v4.693c0 .33.094.596.28.8.186.203.461.305.825.305h1.3zm5.89 2.6v-3.692h.051c.4.832 1.053 1.248 1.963 1.248.416 0 .793-.082 1.131-.247.338-.165.627-.399.865-.702.238-.303.42-.672.546-1.105.126-.433.188-.919.188-1.456 0-.537-.062-1.023-.188-1.456a3.217 3.217 0 00-.546-1.105 2.457 2.457 0 00-.864-.702 2.548 2.548 0 00-1.132-.247c-.468 0-.868.102-1.202.306-.334.203-.587.517-.76.942h-.052v-1.092h-1.04V98.6h1.04zm1.728-3.38c-.234 0-.457-.03-.669-.091a1.68 1.68 0 01-.553-.267 1.303 1.303 0 01-.37-.429 1.2 1.2 0 01-.137-.578v-2.496c0-.182.046-.353.137-.514.091-.16.214-.296.37-.409a1.87 1.87 0 01.553-.267c.212-.065.435-.097.67-.097.589 0 1.052.184 1.39.552.338.369.507.852.507 1.45v1.144c0 .598-.169 1.081-.507 1.45-.338.368-.801.552-1.39.552zm5.811.78v-4.55c0-.32.159-.587.475-.8.316-.212.756-.318 1.32-.318h.61v-1.04h-.403c-.546 0-.975.126-1.287.377-.312.251-.528.537-.65.858h-.065v-1.235h-1.04V96h1.04zm4.251-8.281c.226 0 .388-.054.488-.163a.6.6 0 00.15-.422v-.169a.6.6 0 00-.15-.423c-.1-.108-.262-.162-.488-.162-.225 0-.387.054-.487.162a.6.6 0 00-.15.423v.169a.6.6 0 00.15.422c.1.109.262.163.487.163zm.52 8.281v-6.708h-1.04V96h1.04zm4.706.156c.642 0 1.177-.143 1.606-.429.429-.286.752-.672.968-1.157l-.754-.507c-.372.78-.979 1.17-1.82 1.17-.615 0-1.08-.188-1.397-.566-.316-.376-.475-.86-.475-1.449v-1.144c0-.295.04-.565.117-.812a1.75 1.75 0 01.351-.637c.156-.178.351-.317.585-.416.234-.1.507-.15.82-.15.415 0 .762.095 1.04.286.277.19.476.46.597.806l.871-.442c-.199-.468-.5-.847-.903-1.138-.403-.29-.938-.435-1.606-.435-.468 0-.888.082-1.26.247a2.576 2.576 0 00-.943.702c-.256.303-.45.672-.585 1.105a4.907 4.907 0 00-.202 1.456c0 .537.068 1.023.202 1.456.134.433.33.802.585 1.105.256.303.57.537.942.702.373.165.793.247 1.261.247zm6.565 0c.633 0 1.18-.14 1.638-.422.46-.282.798-.653 1.014-1.112l-.74-.533a1.961 1.961 0 01-.735.858 2.04 2.04 0 01-1.112.299c-.312 0-.591-.052-.838-.156a1.782 1.782 0 01-1.014-1.073 2.295 2.295 0 01-.137-.799v-.312h4.823v-.494a4.09 4.09 0 00-.201-1.313 3.044 3.044 0 00-.579-1.033 2.678 2.678 0 00-.91-.683 2.843 2.843 0 00-1.209-.247c-.459 0-.873.082-1.241.247-.368.165-.685.4-.949.709a3.242 3.242 0 00-.611 1.111 4.586 4.586 0 00-.215 1.443c0 .537.072 1.02.215 1.45.143.428.347.797.611 1.104.264.308.58.544.949.709a3.01 3.01 0 001.241.247zm1.781-4.03h-3.705v-.091c0-.295.048-.566.143-.813.096-.246.228-.461.397-.643a1.75 1.75 0 01.604-.422c.234-.1.494-.15.78-.15.538 0 .969.18 1.294.54.325.36.487.838.487 1.436v.143z" fill="#2A3052" fill-rule="nonzero"/><path d="M447.5 33a2.5 2.5 0 01.5 4.95V83h-1V37.95a2.5 2.5 0 01.5-4.95z" fill="#E98024"/></g><path fill="#E98024" fill-rule="nonzero" d="M363.128 30l2.328-4.104h.096L367.976 30h4.032l-4.2-6.288 4.176-6.312h-3.744l-2.28 3.96h-.096l-2.352-3.96h-4.032l4.104 6.192L359.432 30z"/><g><path stroke="#DEDEDE" stroke-width="2" fill="#F2F2F2" d="M331 41h7v13h-7zM303 41h7v13h-7z"/><path stroke="#DEDEDE" stroke-width="2" fill="#F2F2F2" d="M293 1h55v41h-55z"/><path d="M311.846 28v-1.332h-3.24V15.436h-2.358l-3.33 3.114.882.954 3.168-2.952h.126v10.116h-3.51V28h8.262zm9.54 0v-1.26h-1.368V14.68h-1.44v11.826c0 .432.129.789.387 1.071.258.282.639.423 1.143.423h1.278zm5.598.216c.624 0 1.191-.114 1.701-.342.51-.228.951-.555 1.323-.981.372-.426.66-.936.864-1.53.204-.594.306-1.263.306-2.007 0-.732-.102-1.398-.306-1.998a4.522 4.522 0 00-.864-1.539 3.793 3.793 0 00-1.323-.981 4.122 4.122 0 00-1.701-.342c-.624 0-1.194.114-1.71.342a3.687 3.687 0 00-1.323.981 4.607 4.607 0 00-.855 1.539 6.178 6.178 0 00-.306 1.998c0 .744.102 1.413.306 2.007.204.594.489 1.104.855 1.53.366.426.807.753 1.323.981a4.185 4.185 0 001.71.342zm0-1.278c-.78 0-1.416-.24-1.908-.72s-.738-1.212-.738-2.196V22.69c0-.984.246-1.716.738-2.196.492-.48 1.128-.72 1.908-.72s1.416.24 1.908.72.738 1.212.738 2.196v1.332c0 .984-.246 1.716-.738 2.196-.492.48-1.128.72-1.908.72zM337.406 28v-1.26h-1.89v-6.768h2.034v-1.26h-2.034v-2.574h-1.296v1.728c0 .312-.057.531-.171.657-.114.126-.327.189-.639.189h-.864v1.26h1.53v6.498c0 .456.129.825.387 1.107.258.282.639.423 1.143.423h1.8z" fill="#2A3052" fill-rule="nonzero"/></g><g><path d="M302.8 96l3.055-9.074h-1.13l-1.508 4.576-1.027 3.406h-.065l-1.001-3.406-1.495-4.576h-1.17L301.475 96h1.326zm6.955.156c.451 0 .86-.082 1.229-.247.368-.165.687-.4.956-.709.268-.307.476-.675.623-1.104.148-.43.221-.913.221-1.45 0-.529-.073-1.01-.22-1.443a3.266 3.266 0 00-.625-1.111 2.74 2.74 0 00-.955-.709 2.977 2.977 0 00-1.229-.247c-.45 0-.862.082-1.235.247-.372.165-.69.4-.955.709-.264.307-.47.678-.618 1.111a4.462 4.462 0 00-.22 1.443c0 .537.073 1.02.22 1.45.148.429.354.797.618 1.105.264.307.583.543.955.708.373.165.785.247 1.235.247zm0-.923c-.563 0-1.022-.173-1.378-.52-.355-.347-.533-.875-.533-1.586v-.962c0-.71.178-1.24.533-1.586.356-.347.815-.52 1.378-.52.564 0 1.023.173 1.378.52.356.347.533.875.533 1.586v.962c0 .71-.177 1.24-.533 1.586-.355.347-.814.52-1.378.52zm6.773.767v-.91h-.988v-8.71h-1.04v8.541c0 .312.094.57.28.773.186.204.461.306.825.306h.923zm3.705.156c.278 0 .52-.035.728-.104.208-.07.386-.163.533-.28.148-.116.271-.25.371-.402.1-.152.184-.306.254-.462h.052V96h1.04v-6.708h-1.04v4.641c0 .225-.046.418-.137.579-.091.16-.212.292-.364.396a1.674 1.674 0 01-.52.234 2.336 2.336 0 01-.604.078c-1.023 0-1.534-.602-1.534-1.807v-4.121h-1.04v4.303c0 .815.203 1.445.61 1.892.408.446.958.669 1.652.669zM326.46 96v-4.654a1.127 1.127 0 01.495-.962c.147-.104.316-.182.507-.234.19-.052.39-.078.598-.078.494 0 .858.152 1.092.455.234.303.35.754.35 1.352V96h1.04v-4.654c0-.217.044-.405.13-.565.087-.16.204-.293.351-.397a1.61 1.61 0 01.501-.234c.186-.052.383-.078.591-.078.512 0 .884.152 1.118.455.234.303.351.754.351 1.352V96h1.04v-4.303c0-.815-.192-1.445-.578-1.892-.386-.446-.92-.669-1.605-.669-.572 0-1.025.136-1.359.41a2.077 2.077 0 00-.682.955h-.026c-.183-.485-.46-.834-.833-1.047a2.426 2.426 0 00-1.222-.318 2.1 2.1 0 00-.676.097c-.19.065-.357.154-.5.267a1.667 1.667 0 00-.364.397c-.1.151-.188.314-.266.487h-.052v-1.092h-1.04V96h1.04zm12.831.156c.633 0 1.18-.14 1.638-.422.46-.282.798-.653 1.014-1.112l-.74-.533a1.961 1.961 0 01-.735.858 2.04 2.04 0 01-1.112.299c-.312 0-.591-.052-.838-.156a1.782 1.782 0 01-1.014-1.073 2.295 2.295 0 01-.137-.799v-.312h4.823v-.494a4.09 4.09 0 00-.201-1.313 3.044 3.044 0 00-.579-1.033 2.678 2.678 0 00-.91-.683 2.843 2.843 0 00-1.209-.247c-.459 0-.873.082-1.241.247-.368.165-.685.4-.949.709a3.242 3.242 0 00-.611 1.111 4.586 4.586 0 00-.215 1.443c0 .537.072 1.02.215 1.45.143.428.347.797.611 1.104.264.308.58.544.949.709a3.01 3.01 0 001.241.247zm1.781-4.03h-3.705v-.091c0-.295.048-.566.143-.813.096-.246.228-.461.397-.643a1.75 1.75 0 01.605-.422c.233-.1.493-.15.78-.15.537 0 .968.18 1.293.54.325.36.487.838.487 1.436v.143z" fill="#2A3052" fill-rule="nonzero"/><path d="M320.5 33a2.5 2.5 0 01.5 4.95V83h-1V37.95a2.5 2.5 0 01.5-4.95z" fill="#E98024"/></g><path fill="#E98024" fill-rule="nonzero" d="M272.128 30l2.328-4.104h.096L276.976 30h4.032l-4.2-6.288 4.176-6.312h-3.744l-2.28 3.96h-.096l-2.352-3.96h-4.032l4.104 6.192L268.432 30z"/><g><path stroke="#DEDEDE" stroke-width="2" fill="#F2F2F2" d="M220 41h7v13h-7zM79 41h7v13h-7z"/><path stroke="#DEDEDE" stroke-width="2" fill="#F2F2F2" d="M49 1h208v41H49z"/><path d="M64.12 30.466a8.387 8.387 0 01-1.341-1.512 11.02 11.02 0 01-1.035-1.836 10.981 10.981 0 01-.666-1.98 8.664 8.664 0 01-.234-1.962v-1.548c0-.624.078-1.272.234-1.944.156-.672.375-1.332.657-1.98.282-.648.624-1.26 1.026-1.836a9.106 9.106 0 011.359-1.548h-1.368a7.921 7.921 0 00-1.278 1.44 10.26 10.26 0 00-1.035 1.881 12.203 12.203 0 00-.945 4.743c0 .876.087 1.719.261 2.529.174.81.408 1.563.702 2.259s.639 1.326 1.035 1.89a7.252 7.252 0 001.26 1.404h1.368zm5.958-2.25c.84 0 1.551-.108 2.133-.324a3.216 3.216 0 001.413-.99c.36-.444.621-1.002.783-1.674.162-.672.243-1.464.243-2.376v-7.416h-1.512v7.776c0 1.2-.222 2.109-.666 2.727-.444.618-1.224.927-2.34.927-1.116 0-1.896-.309-2.34-.927-.444-.618-.666-1.527-.666-2.727v-7.776h-1.512v7.416c0 .912.075 1.704.225 2.376.15.672.399 1.23.747 1.674.348.444.807.774 1.377.99.57.216 1.275.324 2.115.324zm11.358 0c.672 0 1.275-.09 1.809-.27.534-.18.987-.432 1.359-.756s.657-.72.855-1.188c.198-.468.297-.99.297-1.566 0-.936-.276-1.686-.828-2.25-.552-.564-1.446-.984-2.682-1.26l-1.026-.234c-.792-.18-1.383-.423-1.773-.729-.39-.306-.585-.759-.585-1.359 0-.684.231-1.197.693-1.539.462-.342 1.095-.513 1.899-.513.732 0 1.344.138 1.836.414.492.276.912.654 1.26 1.134l1.134-.828a4.695 4.695 0 00-1.719-1.53c-.678-.348-1.491-.522-2.439-.522-.612 0-1.173.075-1.683.225-.51.15-.948.369-1.314.657a2.963 2.963 0 00-.855 1.08c-.204.432-.306.924-.306 1.476 0 .972.303 1.725.909 2.259.606.534 1.485.933 2.637 1.197l1.026.234c.828.192 1.422.45 1.782.774.36.324.54.786.54 1.386 0 .72-.237 1.296-.711 1.728-.474.432-1.161.648-2.061.648-.732 0-1.368-.153-1.908-.459-.54-.306-1.032-.753-1.476-1.341l-1.116.936a5.54 5.54 0 001.836 1.611c.72.39 1.59.585 2.61.585zM92.578 28c.78 0 1.488-.132 2.124-.396a4.298 4.298 0 001.629-1.179c.45-.522.795-1.176 1.035-1.962.24-.786.36-1.701.36-2.745s-.12-1.959-.36-2.745-.585-1.44-1.035-1.962a4.298 4.298 0 00-1.629-1.179c-.636-.264-1.344-.396-2.124-.396h-4.212V28h4.212zm0-1.332h-2.7v-9.9h2.7c.516 0 .99.087 1.422.261.432.174.804.429 1.116.765.312.336.555.747.729 1.233.174.486.261 1.041.261 1.665v2.052c0 .624-.087 1.179-.261 1.665a3.538 3.538 0 01-.729 1.233 3.067 3.067 0 01-1.116.765 3.772 3.772 0 01-1.422.261zm15.75 1.548c.66 0 1.251-.102 1.773-.306a3.825 3.825 0 001.332-.855c.366-.366.645-.804.837-1.314.192-.51.288-1.071.288-1.683 0-.612-.093-1.158-.279-1.638a3.396 3.396 0 00-.783-1.215 3.518 3.518 0 00-1.188-.765 4.034 4.034 0 00-1.494-.27c-.66 0-1.179.126-1.557.378a3.951 3.951 0 00-1.017 1.008h-.126l.36-4.788h5.508v-1.332h-6.732l-.45 6.912 1.278.18a4.43 4.43 0 01.891-.747c.33-.21.783-.315 1.359-.315.864 0 1.518.228 1.962.684.444.456.666 1.098.666 1.926v.18c0 .828-.222 1.47-.666 1.926-.444.456-1.098.684-1.962.684-.384 0-.714-.039-.99-.117a2.462 2.462 0 01-.729-.333 2.947 2.947 0 01-.576-.522 5.567 5.567 0 01-.495-.684l-1.134.864c.192.276.405.54.639.792.234.252.507.48.819.684.312.204.669.366 1.071.486.402.12.867.18 1.395.18zm15.138-8.136c.42 0 .711-.084.873-.252a.85.85 0 00.243-.612v-.396a.85.85 0 00-.243-.612c-.162-.168-.453-.252-.873-.252s-.711.084-.873.252a.85.85 0 00-.243.612v.396c0 .24.081.444.243.612.162.168.453.252.873.252zm4.194 3.042v-1.224h-8.388v1.224h8.388zm-4.194 3.942c.42 0 .711-.084.873-.252a.85.85 0 00.243-.612v-.396a.85.85 0 00-.243-.612c-.162-.168-.453-.252-.873-.252s-.711.084-.873.252a.85.85 0 00-.243.612v.396c0 .24.081.444.243.612.162.168.453.252.873.252zm15.696 1.152c.84 0 1.551-.108 2.133-.324a3.216 3.216 0 001.413-.99c.36-.444.621-1.002.783-1.674.162-.672.243-1.464.243-2.376v-7.416h-1.512v7.776c0 1.2-.222 2.109-.666 2.727-.444.618-1.224.927-2.34.927-1.116 0-1.896-.309-2.34-.927-.444-.618-.666-1.527-.666-2.727v-7.776h-1.512v7.416c0 .912.075 1.704.225 2.376.15.672.399 1.23.747 1.674.348.444.807.774 1.377.99.57.216 1.275.324 2.115.324zm11.358 0c.672 0 1.275-.09 1.809-.27.534-.18.987-.432 1.359-.756s.657-.72.855-1.188c.198-.468.297-.99.297-1.566 0-.936-.276-1.686-.828-2.25-.552-.564-1.446-.984-2.682-1.26l-1.026-.234c-.792-.18-1.383-.423-1.773-.729-.39-.306-.585-.759-.585-1.359 0-.684.231-1.197.693-1.539.462-.342 1.095-.513 1.899-.513.732 0 1.344.138 1.836.414.492.276.912.654 1.26 1.134l1.134-.828a4.695 4.695 0 00-1.719-1.53c-.678-.348-1.491-.522-2.439-.522-.612 0-1.173.075-1.683.225-.51.15-.948.369-1.314.657a2.963 2.963 0 00-.855 1.08c-.204.432-.306.924-.306 1.476 0 .972.303 1.725.909 2.259.606.534 1.485.933 2.637 1.197l1.026.234c.828.192 1.422.45 1.782.774.36.324.54.786.54 1.386 0 .72-.237 1.296-.711 1.728-.474.432-1.161.648-2.061.648-.732 0-1.368-.153-1.908-.459-.54-.306-1.032-.753-1.476-1.341l-1.116.936a5.54 5.54 0 001.836 1.611c.72.39 1.59.585 2.61.585zM161.662 28c.78 0 1.488-.132 2.124-.396a4.298 4.298 0 001.629-1.179c.45-.522.795-1.176 1.035-1.962.24-.786.36-1.701.36-2.745s-.12-1.959-.36-2.745-.585-1.44-1.035-1.962a4.298 4.298 0 00-1.629-1.179c-.636-.264-1.344-.396-2.124-.396h-4.212V28h4.212zm0-1.332h-2.7v-9.9h2.7c.516 0 .99.087 1.422.261.432.174.804.429 1.116.765.312.336.555.747.729 1.233.174.486.261 1.041.261 1.665v2.052c0 .624-.087 1.179-.261 1.665a3.538 3.538 0 01-.729 1.233 3.067 3.067 0 01-1.116.765 3.772 3.772 0 01-1.422.261zM181.948 28v-1.332h-3.24V15.436h-2.358l-3.33 3.114.882.954 3.168-2.952h.126v10.116h-3.51V28h8.262zm6.354.216c1.5 0 2.595-.57 3.285-1.71.69-1.14 1.035-2.736 1.035-4.788s-.345-3.648-1.035-4.788c-.69-1.14-1.785-1.71-3.285-1.71-1.5 0-2.595.57-3.285 1.71-.69 1.14-1.035 2.736-1.035 4.788s.345 3.648 1.035 4.788c.69 1.14 1.785 1.71 3.285 1.71zm0-1.314c-.492 0-.912-.102-1.26-.306a2.34 2.34 0 01-.846-.864 4.3 4.3 0 01-.477-1.314 8.46 8.46 0 01-.153-1.674v-2.052c0-.612.051-1.17.153-1.674a4.3 4.3 0 01.477-1.314 2.34 2.34 0 01.846-.864c.348-.204.768-.306 1.26-.306s.912.102 1.26.306c.348.204.63.492.846.864a4.3 4.3 0 01.477 1.314 8.46 8.46 0 01.153 1.674v2.052a8.46 8.46 0 01-.153 1.674 4.3 4.3 0 01-.477 1.314 2.34 2.34 0 01-.846.864c-.348.204-.768.306-1.26.306zm10.8 1.314c1.5 0 2.595-.57 3.285-1.71.69-1.14 1.035-2.736 1.035-4.788s-.345-3.648-1.035-4.788c-.69-1.14-1.785-1.71-3.285-1.71-1.5 0-2.595.57-3.285 1.71-.69 1.14-1.035 2.736-1.035 4.788s.345 3.648 1.035 4.788c.69 1.14 1.785 1.71 3.285 1.71zm0-1.314c-.492 0-.912-.102-1.26-.306a2.34 2.34 0 01-.846-.864 4.3 4.3 0 01-.477-1.314 8.46 8.46 0 01-.153-1.674v-2.052c0-.612.051-1.17.153-1.674a4.3 4.3 0 01.477-1.314 2.34 2.34 0 01.846-.864c.348-.204.768-.306 1.26-.306s.912.102 1.26.306c.348.204.63.492.846.864a4.3 4.3 0 01.477 1.314 8.46 8.46 0 01.153 1.674v2.052a8.46 8.46 0 01-.153 1.674 4.3 4.3 0 01-.477 1.314 2.34 2.34 0 01-.846.864c-.348.204-.768.306-1.26.306zm7.308 3.492a4.802 4.802 0 001.206-1.557c.288-.594.432-1.137.432-1.629v-.252c0-.312-.087-.567-.261-.765-.174-.198-.453-.297-.837-.297-.384 0-.663.099-.837.297-.174.198-.261.453-.261.765v.252c0 .24.057.444.171.612.114.168.291.282.531.342-.096.42-.255.801-.477 1.143a7.96 7.96 0 01-.873 1.089h1.206zm8.388-2.178c1.5 0 2.595-.57 3.285-1.71.69-1.14 1.035-2.736 1.035-4.788s-.345-3.648-1.035-4.788c-.69-1.14-1.785-1.71-3.285-1.71-1.5 0-2.595.57-3.285 1.71-.69 1.14-1.035 2.736-1.035 4.788s.345 3.648 1.035 4.788c.69 1.14 1.785 1.71 3.285 1.71zm0-1.314c-.492 0-.912-.102-1.26-.306a2.34 2.34 0 01-.846-.864 4.3 4.3 0 01-.477-1.314 8.46 8.46 0 01-.153-1.674v-2.052c0-.612.051-1.17.153-1.674a4.3 4.3 0 01.477-1.314 2.34 2.34 0 01.846-.864c.348-.204.768-.306 1.26-.306s.912.102 1.26.306c.348.204.63.492.846.864a4.3 4.3 0 01.477 1.314 8.46 8.46 0 01.153 1.674v2.052a8.46 8.46 0 01-.153 1.674 4.3 4.3 0 01-.477 1.314 2.34 2.34 0 01-.846.864c-.348.204-.768.306-1.26.306zm10.8 1.314c1.5 0 2.595-.57 3.285-1.71.69-1.14 1.035-2.736 1.035-4.788s-.345-3.648-1.035-4.788c-.69-1.14-1.785-1.71-3.285-1.71-1.5 0-2.595.57-3.285 1.71-.69 1.14-1.035 2.736-1.035 4.788s.345 3.648 1.035 4.788c.69 1.14 1.785 1.71 3.285 1.71zm0-1.314c-.492 0-.912-.102-1.26-.306a2.34 2.34 0 01-.846-.864 4.3 4.3 0 01-.477-1.314 8.46 8.46 0 01-.153-1.674v-2.052c0-.612.051-1.17.153-1.674a4.3 4.3 0 01.477-1.314 2.34 2.34 0 01.846-.864c.348-.204.768-.306 1.26-.306s.912.102 1.26.306c.348.204.63.492.846.864a4.3 4.3 0 01.477 1.314 8.46 8.46 0 01.153 1.674v2.052a8.46 8.46 0 01-.153 1.674 4.3 4.3 0 01-.477 1.314 2.34 2.34 0 01-.846.864c-.348.204-.768.306-1.26.306zm10.8 1.314c1.5 0 2.595-.57 3.285-1.71.69-1.14 1.035-2.736 1.035-4.788s-.345-3.648-1.035-4.788c-.69-1.14-1.785-1.71-3.285-1.71-1.5 0-2.595.57-3.285 1.71-.69 1.14-1.035 2.736-1.035 4.788s.345 3.648 1.035 4.788c.69 1.14 1.785 1.71 3.285 1.71zm0-1.314c-.492 0-.912-.102-1.26-.306a2.34 2.34 0 01-.846-.864 4.3 4.3 0 01-.477-1.314 8.46 8.46 0 01-.153-1.674v-2.052c0-.612.051-1.17.153-1.674a4.3 4.3 0 01.477-1.314 2.34 2.34 0 01.846-.864c.348-.204.768-.306 1.26-.306s.912.102 1.26.306c.348.204.63.492.846.864a4.3 4.3 0 01.477 1.314 8.46 8.46 0 01.153 1.674v2.052a8.46 8.46 0 01-.153 1.674 4.3 4.3 0 01-.477 1.314 2.34 2.34 0 01-.846.864c-.348.204-.768.306-1.26.306zm6.678 3.564c.444-.372.864-.84 1.26-1.404s.741-1.194 1.035-1.89c.294-.696.528-1.449.702-2.259.174-.81.261-1.653.261-2.529a12.203 12.203 0 00-.945-4.743 10.26 10.26 0 00-1.035-1.881 7.921 7.921 0 00-1.278-1.44h-1.368c.504.456.957.972 1.359 1.548.402.576.744 1.188 1.026 1.836.282.648.501 1.308.657 1.98.156.672.234 1.32.234 1.944v1.548c0 .636-.078 1.29-.234 1.962a10.981 10.981 0 01-.666 1.98 11.02 11.02 0 01-1.035 1.836 8.387 8.387 0 01-1.341 1.512h1.368z" fill="#2A3052" fill-rule="nonzero"/></g><g><path d="M45.236 97.781a6.057 6.057 0 01-.968-1.092 7.96 7.96 0 01-.748-1.326 7.93 7.93 0 01-.481-1.43 6.257 6.257 0 01-.169-1.417v-1.118c0-.45.056-.919.169-1.404.113-.485.27-.962.474-1.43.204-.468.451-.91.741-1.326.29-.416.618-.789.982-1.118h-.988c-.33.286-.637.633-.923 1.04a7.41 7.41 0 00-.748 1.359 8.813 8.813 0 00-.683 3.425c.001.633.064 1.241.19 1.826.125.586.294 1.13.506 1.632.213.503.462.958.748 1.365.286.407.59.745.91 1.014h.988zm4.342-1.625c.763 0 1.413-.184 1.95-.553.537-.368.949-.873 1.235-1.514l-.871-.546c-.182.494-.468.89-.858 1.19-.39.299-.875.448-1.456.448-.789 0-1.4-.264-1.833-.793-.433-.529-.65-1.261-.65-2.197v-1.352c0-.468.056-.89.169-1.267.113-.378.275-.703.487-.976.213-.273.473-.483.78-.63a2.393 2.393 0 011.047-.221c.563 0 1.031.14 1.404.422s.65.657.832 1.125l.884-.533c-.286-.633-.687-1.122-1.203-1.469-.515-.347-1.154-.52-1.917-.52-1.153 0-2.05.41-2.691 1.228-.641.82-.962 1.992-.962 3.517s.32 2.68.962 3.464c.641.785 1.538 1.177 2.691 1.177zm7.306 0c.45 0 .86-.082 1.229-.247.368-.165.686-.4.955-.709.269-.307.477-.675.624-1.104.147-.43.221-.913.221-1.45 0-.529-.074-1.01-.221-1.443a3.266 3.266 0 00-.624-1.111 2.74 2.74 0 00-.956-.709 2.977 2.977 0 00-1.228-.247c-.45 0-.862.082-1.235.247-.373.165-.691.4-.955.709-.265.307-.47.678-.618 1.111a4.462 4.462 0 00-.221 1.443c0 .537.074 1.02.221 1.45.147.429.353.797.618 1.105.264.307.582.543.955.708.373.165.784.247 1.235.247zm0-.923c-.563 0-1.023-.173-1.378-.52-.355-.347-.533-.875-.533-1.586v-.962c0-.71.178-1.24.533-1.586.355-.347.815-.52 1.378-.52s1.023.173 1.378.52c.355.347.533.875.533 1.586v.962c0 .71-.178 1.24-.533 1.586-.355.347-.815.52-1.378.52zm5.785.767v-4.654a1.127 1.127 0 01.494-.962c.147-.104.316-.182.507-.234.19-.052.39-.078.598-.078.494 0 .858.152 1.092.455.234.303.351.754.351 1.352V96h1.04v-4.654c0-.217.043-.405.13-.565.087-.16.204-.293.351-.397a1.61 1.61 0 01.5-.234c.187-.052.384-.078.592-.078.511 0 .884.152 1.118.455.234.303.351.754.351 1.352V96h1.04v-4.303c0-.815-.193-1.445-.578-1.892-.386-.446-.921-.669-1.606-.669-.572 0-1.025.136-1.358.41a2.077 2.077 0 00-.683.955h-.026c-.182-.485-.46-.834-.832-1.047a2.426 2.426 0 00-1.222-.318 2.1 2.1 0 00-.676.097c-.19.065-.358.154-.5.267a1.667 1.667 0 00-.365.397c-.1.151-.188.314-.266.487h-.052v-1.092h-1.04V96h1.04zm11.349 0v-4.654a1.127 1.127 0 01.494-.962c.147-.104.316-.182.507-.234.19-.052.39-.078.598-.078.494 0 .858.152 1.092.455.234.303.351.754.351 1.352V96h1.04v-4.654c0-.217.043-.405.13-.565.087-.16.204-.293.351-.397a1.61 1.61 0 01.5-.234c.187-.052.384-.078.592-.078.511 0 .884.152 1.118.455.234.303.351.754.351 1.352V96h1.04v-4.303c0-.815-.193-1.445-.579-1.892-.385-.446-.92-.669-1.605-.669-.572 0-1.025.136-1.359.41a2.077 2.077 0 00-.682.955h-.026c-.182-.485-.46-.834-.832-1.047a2.426 2.426 0 00-1.222-.318 2.1 2.1 0 00-.676.097c-.19.065-.358.154-.5.267a1.667 1.667 0 00-.365.397c-.1.151-.188.314-.266.487h-.052v-1.092h-1.04V96h1.04zm10.829-8.281c.225 0 .388-.054.488-.163a.6.6 0 00.149-.422v-.169a.6.6 0 00-.15-.423c-.1-.108-.262-.162-.487-.162-.225 0-.388.054-.487.162a.6.6 0 00-.15.423v.169a.6.6 0 00.15.422c.1.109.262.163.487.163zm.52 8.281v-6.708h-1.04V96h1.04zm4.225.156c.771 0 1.378-.186 1.82-.559.442-.373.663-.884.663-1.534 0-.511-.156-.925-.468-1.241-.312-.317-.84-.531-1.586-.644l-.52-.078c-.416-.07-.734-.178-.956-.325-.22-.147-.331-.386-.331-.715 0-.32.11-.574.331-.76.222-.187.549-.28.982-.28.433 0 .793.085 1.079.254.286.169.503.357.65.565l.689-.624a3.074 3.074 0 00-.968-.793c-.369-.19-.826-.286-1.372-.286-.338 0-.654.041-.949.124a2.185 2.185 0 00-.76.37c-.213.165-.38.37-.501.618a1.939 1.939 0 00-.182.864c0 .312.054.58.163.806.108.225.26.414.455.566.195.151.422.273.682.364.26.09.546.158.858.201l.533.078c.442.07.748.197.917.384.169.186.253.409.253.669 0 .347-.123.615-.37.806-.247.19-.592.286-1.034.286a2.27 2.27 0 01-1.118-.266 2.917 2.917 0 01-.871-.761l-.741.598c.303.399.665.717 1.086.956.42.238.942.357 1.566.357zm6.331 0c.771 0 1.378-.186 1.82-.559.442-.373.663-.884.663-1.534 0-.511-.156-.925-.468-1.241-.312-.317-.84-.531-1.586-.644l-.52-.078c-.416-.07-.734-.178-.955-.325-.221-.147-.332-.386-.332-.715 0-.32.11-.574.332-.76.22-.187.548-.28.981-.28.433 0 .793.085 1.079.254.286.169.503.357.65.565l.689-.624a3.074 3.074 0 00-.968-.793c-.369-.19-.826-.286-1.372-.286-.338 0-.654.041-.949.124a2.185 2.185 0 00-.76.37c-.213.165-.38.37-.501.618a1.939 1.939 0 00-.182.864c0 .312.054.58.163.806.108.225.26.414.455.566.194.151.422.273.682.364.26.09.546.158.858.201l.533.078c.442.07.748.197.916.384.17.186.254.409.254.669 0 .347-.123.615-.37.806-.247.19-.592.286-1.034.286a2.27 2.27 0 01-1.118-.266 2.917 2.917 0 01-.871-.761l-.741.598c.303.399.665.717 1.085.956.42.238.943.357 1.567.357zm4.836-8.437c.225 0 .388-.054.488-.162a.6.6 0 00.149-.423v-.169a.6.6 0 00-.15-.423c-.1-.108-.262-.162-.487-.162-.225 0-.388.054-.487.162a.6.6 0 00-.15.423v.169a.6.6 0 00.15.422c.1.109.262.163.487.163zm.52 8.281v-6.708h-1.04V96h1.04zm4.745.156c.45 0 .86-.082 1.229-.247.368-.165.686-.4.955-.709.269-.307.477-.675.624-1.104.147-.43.221-.913.221-1.45 0-.529-.074-1.01-.221-1.443a3.266 3.266 0 00-.624-1.111 2.74 2.74 0 00-.955-.709 2.977 2.977 0 00-1.229-.247c-.45 0-.862.082-1.235.247-.373.165-.691.4-.955.709-.265.307-.47.678-.618 1.111a4.462 4.462 0 00-.221 1.443c0 .537.074 1.02.221 1.45.147.429.353.797.618 1.105.264.307.582.543.955.708.373.165.784.247 1.235.247zm0-.923c-.563 0-1.023-.173-1.378-.52-.355-.347-.533-.875-.533-1.586v-.962c0-.71.178-1.24.533-1.586.355-.347.815-.52 1.378-.52s1.023.173 1.378.52c.355.347.533.875.533 1.586v.962c0 .71-.178 1.24-.533 1.586-.355.347-.815.52-1.378.52zm5.785.767v-4.654c0-.217.046-.405.137-.565.09-.16.214-.293.37-.397.156-.104.332-.182.527-.234.195-.052.396-.078.604-.078 1.014 0 1.521.602 1.521 1.807V96h1.04v-4.303c0-.815-.201-1.445-.604-1.892-.403-.446-.952-.669-1.645-.669-.503 0-.903.113-1.202.338-.3.225-.531.529-.696.91h-.052v-1.092h-1.04V96h1.04zm10.452 0v-4.55c0-.32.158-.587.475-.8.316-.212.756-.318 1.319-.318h.611v-1.04h-.403c-.546 0-.975.126-1.287.377-.312.251-.529.537-.65.858h-.065v-1.235h-1.04V96h1.04zm5.447.156c.468 0 .871-.104 1.209-.312.338-.208.58-.52.728-.936h.065c.043.312.15.572.319.78.169.208.448.312.838.312h.585v-.91h-.767v-3.692c0-.71-.225-1.265-.676-1.664-.45-.399-1.083-.598-1.898-.598-.607 0-1.11.128-1.508.384-.399.255-.689.565-.871.929l.624.585a2.25 2.25 0 01.683-.728c.273-.182.613-.273 1.02-.273.537 0 .936.126 1.196.377.26.251.39.615.39 1.092v.663h-1.326c-.98 0-1.7.169-2.164.507-.464.338-.696.823-.696 1.456 0 .624.197 1.118.592 1.482.394.364.946.546 1.657.546zm.169-.884c-.407 0-.73-.091-.968-.273-.239-.182-.358-.438-.358-.767v-.273c0-.33.137-.58.41-.754.273-.173.708-.26 1.306-.26h1.378v1.105a.932.932 0 01-.13.481 1.289 1.289 0 01-.364.39c-.156.113-.342.2-.559.26-.217.06-.455.091-.715.091zm7.839.728v-.91h-1.365v-4.888h1.469v-.91h-1.469v-1.859h-.936v1.248c0 .225-.041.383-.123.474-.083.091-.237.137-.462.137h-.624v.91h1.105v4.693c0 .33.093.596.28.8.186.203.461.305.825.305h1.3zm4.303.156c.633 0 1.179-.14 1.638-.422.46-.282.797-.653 1.014-1.112l-.741-.533a1.961 1.961 0 01-.735.858 2.04 2.04 0 01-1.111.299c-.312 0-.591-.052-.838-.156a1.782 1.782 0 01-1.015-1.073 2.295 2.295 0 01-.136-.799v-.312h4.823v-.494a4.09 4.09 0 00-.202-1.313 3.044 3.044 0 00-.578-1.033 2.678 2.678 0 00-.91-.683 2.843 2.843 0 00-1.209-.247c-.46 0-.873.082-1.242.247-.368.165-.684.4-.949.709a3.242 3.242 0 00-.61 1.111 4.586 4.586 0 00-.215 1.443c0 .537.072 1.02.215 1.45.142.428.346.797.61 1.104.265.308.581.544.95.709a3.01 3.01 0 001.241.247zm1.781-4.03h-3.705v-.091c0-.295.048-.566.143-.813.095-.246.228-.461.397-.643a1.75 1.75 0 01.604-.422c.234-.1.494-.15.78-.15.537 0 .969.18 1.294.54.325.36.487.838.487 1.436v.143zm11.765-1.846c.303 0 .514-.06.63-.182a.613.613 0 00.176-.442v-.286a.613.613 0 00-.176-.442c-.117-.121-.327-.182-.63-.182s-.513.06-.63.182a.613.613 0 00-.176.442v.286c0 .173.059.32.176.442.117.121.327.182.63.182zm3.029 2.197v-.884h-6.058v.884h6.058zm-3.029 2.847c.303 0 .514-.06.63-.182a.613.613 0 00.176-.442v-.286a.613.613 0 00-.176-.442c-.117-.121-.327-.182-.63-.182s-.513.06-.63.182a.613.613 0 00-.176.442v.286c0 .173.059.32.176.442.117.121.327.182.63.182zm11.44.676l.91-2.678h3.666l.91 2.678h1.144l-3.172-9.074h-1.391L163.9 96h1.105zm4.303-3.64h-3.133l1.534-4.42h.065l1.534 4.42zm6.006 3.796c.901 0 1.556-.416 1.963-1.248h.052V96h1.04v-9.62h-1.04v4.004h-.052c-.173-.425-.427-.739-.76-.942-.334-.204-.735-.306-1.203-.306-.416 0-.793.082-1.131.247a2.457 2.457 0 00-.864.702c-.239.303-.42.672-.546 1.105a5.223 5.223 0 00-.189 1.456c0 .537.063 1.023.189 1.456.125.433.307.802.546 1.105.238.303.526.537.864.702.338.165.715.247 1.131.247zm.286-.936c-.59 0-1.053-.184-1.391-.553-.338-.368-.507-.851-.507-1.449v-1.144c0-.598.169-1.081.507-1.45.338-.368.802-.552 1.391-.552.234 0 .457.032.67.097.212.065.396.154.552.267.156.113.28.25.37.41.091.16.137.331.137.513v2.496a1.2 1.2 0 01-.137.578 1.303 1.303 0 01-.37.43 1.68 1.68 0 01-.553.266c-.212.06-.435.091-.669.091zm5.499-7.501c.225 0 .388-.054.488-.163a.6.6 0 00.149-.422v-.169a.6.6 0 00-.15-.423c-.1-.108-.262-.162-.487-.162-.225 0-.388.054-.487.162a.6.6 0 00-.15.423v.169a.6.6 0 00.15.422c.1.109.262.163.487.163zm-.936 10.881c.503 0 .871-.143 1.105-.429.234-.286.351-.663.351-1.131v-7.748h-1.04v8.398h-1.092v.91h.676zm5.863-2.444c.277 0 .52-.035.728-.104.208-.07.386-.163.533-.28.147-.116.27-.25.37-.402.1-.152.185-.306.254-.462h.052V96h1.04v-6.708h-1.04v4.641c0 .225-.046.418-.136.579-.091.16-.213.292-.364.396a1.674 1.674 0 01-.52.234 2.336 2.336 0 01-.605.078c-1.023 0-1.534-.602-1.534-1.807v-4.121h-1.04v4.303c0 .815.204 1.445.611 1.892.407.446.958.669 1.651.669zm7.202 0c.771 0 1.378-.186 1.82-.559.442-.373.663-.884.663-1.534 0-.511-.156-.925-.468-1.241-.312-.317-.84-.531-1.586-.644l-.52-.078c-.416-.07-.734-.178-.956-.325-.22-.147-.331-.386-.331-.715 0-.32.11-.574.332-.76.22-.187.548-.28.981-.28.433 0 .793.085 1.079.254.286.169.503.357.65.565l.689-.624a3.074 3.074 0 00-.968-.793c-.369-.19-.826-.286-1.372-.286-.338 0-.654.041-.949.124a2.185 2.185 0 00-.76.37c-.213.165-.38.37-.501.618a1.939 1.939 0 00-.182.864c0 .312.054.58.163.806.108.225.26.414.454.566.195.151.423.273.683.364.26.09.546.158.858.201l.533.078c.442.07.748.197.917.384.168.186.253.409.253.669 0 .347-.124.615-.37.806-.248.19-.592.286-1.034.286a2.27 2.27 0 01-1.118-.266 2.917 2.917 0 01-.871-.761l-.741.598c.303.399.665.717 1.085.956.42.238.943.357 1.567.357zm7.098-.156v-.91h-1.365v-4.888h1.469v-.91h-1.469v-1.859h-.936v1.248c0 .225-.041.383-.124.474-.082.091-.236.137-.461.137h-.624v.91h1.105v4.693c0 .33.093.596.28.8.186.203.461.305.825.305h1.3zm4.303.156c.633 0 1.179-.14 1.638-.422.46-.282.797-.653 1.014-1.112l-.741-.533a1.961 1.961 0 01-.734.858 2.04 2.04 0 01-1.112.299c-.312 0-.591-.052-.838-.156a1.782 1.782 0 01-1.014-1.073 2.295 2.295 0 01-.137-.799v-.312h4.823v-.494a4.09 4.09 0 00-.201-1.313 3.044 3.044 0 00-.579-1.033 2.678 2.678 0 00-.91-.683 2.843 2.843 0 00-1.209-.247c-.46 0-.873.082-1.242.247-.368.165-.684.4-.948.709a3.242 3.242 0 00-.612 1.111 4.586 4.586 0 00-.214 1.443c0 .537.072 1.02.214 1.45.143.428.347.797.612 1.104.264.308.58.544.948.709a3.01 3.01 0 001.242.247zm1.781-4.03h-3.705v-.091c0-.295.048-.566.143-.813.095-.246.227-.461.396-.643a1.75 1.75 0 01.605-.422c.234-.1.494-.15.78-.15.537 0 .969.18 1.294.54.325.36.487.838.487 1.436v.143zm5.109 4.03c.901 0 1.556-.416 1.963-1.248h.052V96h1.04v-9.62h-1.04v4.004h-.052c-.173-.425-.427-.739-.76-.942-.334-.204-.735-.306-1.203-.306-.416 0-.793.082-1.131.247a2.457 2.457 0 00-.864.702c-.239.303-.42.672-.547 1.105a5.223 5.223 0 00-.188 1.456c0 .537.063 1.023.189 1.456.125.433.307.802.546 1.105.238.303.526.537.864.702.338.165.715.247 1.131.247zm.286-.936c-.59 0-1.053-.184-1.391-.553-.338-.368-.507-.851-.507-1.449v-1.144c0-.598.169-1.081.507-1.45.338-.368.802-.552 1.391-.552.234 0 .457.032.67.097.212.065.396.154.552.267.156.113.28.25.37.41.091.16.137.331.137.513v2.496a1.2 1.2 0 01-.136.578 1.303 1.303 0 01-.371.43 1.68 1.68 0 01-.552.266c-.213.06-.436.091-.67.091zm10.738.78l2.366-6.708h-1.001l-1.196 3.328-.728 2.288h-.065l-.728-2.288-1.17-3.328h-1.04L221.334 96h1.209zm6.24.156c.45 0 .86-.082 1.229-.247.368-.165.686-.4.955-.709.269-.307.477-.675.624-1.104.147-.43.221-.913.221-1.45 0-.529-.074-1.01-.221-1.443a3.266 3.266 0 00-.624-1.111 2.74 2.74 0 00-.956-.709 2.977 2.977 0 00-1.228-.247c-.45 0-.862.082-1.235.247-.373.165-.691.4-.956.709-.264.307-.47.678-.617 1.111a4.462 4.462 0 00-.221 1.443c0 .537.074 1.02.221 1.45.147.429.353.797.618 1.105.264.307.582.543.955.708.373.165.784.247 1.235.247zm0-.923c-.563 0-1.023-.173-1.378-.52-.355-.347-.533-.875-.533-1.586v-.962c0-.71.178-1.24.533-1.586.355-.347.815-.52 1.378-.52s1.023.173 1.378.52c.355.347.533.875.533 1.586v.962c0 .71-.178 1.24-.533 1.586-.355.347-.815.52-1.378.52zm6.773.767v-.91h-.988v-8.71h-1.04v8.541c0 .312.093.57.28.773.186.204.461.306.825.306h.923zm3.705.156c.277 0 .52-.035.728-.104.208-.07.386-.163.533-.28.147-.116.27-.25.37-.402.1-.152.185-.306.254-.462h.052V96h1.04v-6.708h-1.04v4.641c0 .225-.046.418-.137.579-.09.16-.212.292-.364.396a1.674 1.674 0 01-.52.234 2.336 2.336 0 01-.604.078c-1.023 0-1.534-.602-1.534-1.807v-4.121h-1.04v4.303c0 .815.204 1.445.611 1.892.407.446.958.669 1.651.669zm6.227-.156v-4.654a1.127 1.127 0 01.494-.962c.147-.104.316-.182.507-.234.19-.052.39-.078.598-.078.494 0 .858.152 1.092.455.234.303.351.754.351 1.352V96h1.04v-4.654c0-.217.043-.405.13-.565.087-.16.204-.293.351-.397a1.61 1.61 0 01.5-.234c.187-.052.384-.078.592-.078.511 0 .884.152 1.118.455.234.303.351.754.351 1.352V96h1.04v-4.303c0-.815-.193-1.445-.578-1.892-.386-.446-.921-.669-1.606-.669-.572 0-1.025.136-1.358.41a2.077 2.077 0 00-.683.955h-.026c-.182-.485-.46-.834-.832-1.047a2.426 2.426 0 00-1.222-.318 2.1 2.1 0 00-.676.097c-.19.065-.357.154-.5.267a1.667 1.667 0 00-.364.397c-.1.151-.189.314-.267.487h-.052v-1.092h-1.04V96h1.04zm12.831.156c.633 0 1.179-.14 1.638-.422.46-.282.797-.653 1.014-1.112l-.741-.533a1.961 1.961 0 01-.734.858 2.04 2.04 0 01-1.112.299c-.312 0-.591-.052-.838-.156a1.782 1.782 0 01-1.014-1.073 2.295 2.295 0 01-.137-.799v-.312h4.823v-.494a4.09 4.09 0 00-.201-1.313 3.044 3.044 0 00-.579-1.033 2.678 2.678 0 00-.91-.683 2.843 2.843 0 00-1.209-.247c-.46 0-.873.082-1.242.247-.368.165-.684.4-.948.709a3.242 3.242 0 00-.611 1.111 4.586 4.586 0 00-.215 1.443c0 .537.072 1.02.215 1.45.143.428.346.797.61 1.104.265.308.581.544.95.709a3.01 3.01 0 001.241.247zm1.781-4.03h-3.705v-.091c0-.295.048-.566.143-.813.095-.246.227-.461.397-.643a1.75 1.75 0 01.604-.422c.234-.1.494-.15.78-.15.537 0 .968.18 1.293.54.325.36.488.838.488 1.436v.143zm2.652 5.655c.32-.269.624-.607.91-1.014a7.33 7.33 0 00.747-1.365 9.092 9.092 0 00.507-1.632 8.675 8.675 0 00.189-1.826 8.813 8.813 0 00-.683-3.426 7.41 7.41 0 00-.747-1.358 5.721 5.721 0 00-.923-1.04h-.988c.364.33.691.702.981 1.118.29.416.538.858.741 1.326.204.468.362.945.475 1.43.113.485.169.953.169 1.404v1.118c0 .46-.056.932-.169 1.417a7.93 7.93 0 01-.481 1.43 7.96 7.96 0 01-.748 1.326c-.29.416-.613.78-.968 1.092h.988z" fill="#2A3052" fill-rule="nonzero"/><path d="M153.5 33a2.5 2.5 0 01.5 4.95V83h-1V37.95a2.5 2.5 0 01.5-4.95z" fill="#E98024"/></g></g></svg>