<svg id="Layer_1" data-name="Layer 1" xmlns="http://www.w3.org/2000/svg" viewBox="0 0 834 840.14"><defs><linearGradient id="linear-gradient" x1="286.19" y1="635.02" x2="275.15" y2="704.65" gradientUnits="userSpaceOnUse"><stop offset="0" stop-color="#ff6444"/><stop offset="1" stop-color="#ff444f"/></linearGradient><clipPath id="clip-path"><path d="M607.16 53.39c-1.14-.63-2.22-1.22-3.23-1.74l-3-1.72 1.76.91.33.18h.09l4.53 2.46a6.32 6.32 0 01.59.31c.52.32 1 .64 1.56.94v.06l-2.62-1.45m-15.94-8.3L586.94 43c.92.43 1.81.85 2.65 1.26.52.25.75.35 1 .45 1.57.78 3.2 1.57 4.78 2.4-1.35-.67-2.75-1.33-4.14-2m-8.68-4.19l-3.06-1.49-2.05-.85c-2.11-1-4.25-1.89-6.41-2.85l-1.62-.73c1.79.73 3.67 1.59 4.45 1.94l-.84-.38 2.2 1 .69.28 1.84.83-.19-.1c1.44.63 2.79 1.24 4.09 1.87l.43.17 4.86 2.39c-1.44-.68-2.89-1.38-4.4-2.08m237.23 284q-.76-3.27-1.59-6.54l1.82 6.15a1.56 1.56 0 010 .31 1.68 1.68 0 01-.16.44l-.09-.36m-4.36-15.57l-2.22-7.92c-1.39-4.43-3.17-9.37-5.07-14.43l-1.44-4.33-4.23-10.67c4.8 11 6.48 16.24 10.76 29.4l3.2 10.79-1-2.87M652.85 82.06q-8.22-5.86-16.66-11.37l-.55-.38q8.8 5.72 17.3 11.81l-.09-.06m-21-14.17l-.55-.38c-.36-.25-.36-.25-.41-.25l-.07-.1c1.15.76 2.13 1.37 3.17 2l1.67 1.16-3.81-2.42m2.15 1.25h-.07l.13.07a.13.13 0 01-.06 0m-1.28-.69q10.24 6.51 20.16 13.6c-6.46-4.54-13.89-9.38-20.16-13.6M832.6 397.1l.06.47-.06-.44m.71 9.56v.31a1.72 1.72 0 010-.31m0-.53c0-.5-.07-1-.11-1.5v-.27c0 .79.11 1.57.16 2.28v-.53m-.28-3.74a5.65 5.65 0 010-.59c0-.66-.08-1.34-.12-2 .07 1 .13 2 .23 3l-.07-.42m-.25-3.7c0 .37 0 .74.09 1.08 0-.37-.06-.71-.09-1.08M829.62 373l-.47-4.32.88 6.07c.2 1.25.32 2.54.47 3.81v.31c-.27-2-.54-3.91-.88-5.84m-9.76-47.73a1 1 0 00.14-.75c.34 1.67.75 3.42 1.14 5.22l-1.28-4.47M109.1 107.75c-3.21 2.77-6.31 5.57-9.33 8.38 3.14-3 5.91-5.51 9.33-8.38M231 97.38c.41-.58.83-1.15 1.23-1.74.64-1 1.2-2 1.84-3l-2.69-.35-4.23 1.71-2.08 4.37c1.27 0 2.54-.08 3.81-.1l2.16-.93m-7-5.58l.31-.22 1-1.68c-.69.33-1.38.83-2.12 1.17a5.09 5.09 0 01-1.41.41 20.07 20.07 0 00-3.71 1.58c-.61.31-1.26.6-1.88.88.19.41 0 1 .49 1.22a3.8 3.8 0 001.42-.13 17.54 17.54 0 005.94-3.23m75.46-60.72l4-.86v-2l-4-.14c-1 0-2 .07-3 .08l-3.1 2.3-2 1.84 4.48.14 3.57-1.38m322.96 31.29c-1.44-.9-2.92-1.69-4.38-2.53l-.78-.24c.91.55 1.81 1.08 2.67 1.61 1.92 1.14 3.79 2.3 5.67 3.47l.4.1c-.58-.45-1.26-.79-1.84-1.21h.09c-1.17-.81-1.17-.81-1.83-1.22m-19.9-11.54c-1.48-.81-3-1.59-4.55-2.39.79.44 1.63.85 2.42 1.29l-2.57-1.34-.28-.17c.57.32 1.12.61 1.68.93l-.55-.27c-3.52-1.85-7.22-3.7-9.19-4.69l.18.1c-2.81-1.4-5.49-2.66-7.64-3.66L601 49.93l1.73.91-.14-.07m5 2.69c-.43-.2-.82-.44-1.25-.66l-.62-.34-2.58-1.39 4.57 2.46-.12-.07M477.1 7.79c-.92-.22-3.3-.69-3.63-.69l.57.14h-.3c-3.79-.79-5.4-1.06-5.4-1.06a27.94 27.94 0 013.49.82l-1-.2-2.37-.5-.6-.14c-.41-.06-.84-.15-1.28-.23a12.64 12.64 0 001.24.27h-.08L467 6h-.46c4 .77 5.31 1.1 6.34 1.35-2.62-.46-5.08-1.55-7.79-1.38.18.07 3 .74 5.24 1.13h.25c.43.08.84.19 1.27.23l-.43-.16a32.44 32.44 0 013.28.63l-1.28-.09 2.55.6c.92.18 1.82.43 2.76.56h.92c1.23.13 2.33 1 3.64.64-.71-.24-1.49-.39-2.22-.62a17.2 17.2 0 001.8.34c-1.62-.58-3.37-.75-5-1.27h.13l-.85-.22m.33 1.07l-.56-.15.58.17m27.83 6.78l-1.11-.39c-2.49-.7-5-1.25-7.44-2l-1.32-.12c-2.7-.82-5.48-1.47-8.22-2.21-.43-.1-4.34-1-5.7-1.25l.84.31a19.14 19.14 0 01-2.07-.4c-.93-.24-1.88-.5-2.79-.71-3-.26-5.83-1.32-8.77-1.78h-.18c1 .29 2 .51 3 .76.36.09.73.17 1.09.27a49.24 49.24 0 015.14 1.41c-.39 0-.39 0-3.44-.79-.36-.1-.7-.2-1.07-.28s-.78-.19-1.15-.28l-1.09-.29a14.27 14.27 0 00-2.57-.54c.89.32 1.83.54 2.74.83h-.58l-1.81-.46c-.82-.23-1.64-.5-2.49-.7a9.27 9.27 0 001.59.52h-1.16l.08.19c4.64 1.31 9.43 2.21 14 3.81C478.88 11 477 10.05 475 10c2.68.74 5.29 1.74 8.06 2.23-.2-.17-.2-.17-2.94-1 1.81 0 3.33 1.2 5.14 1.25h.62S483.09 11.35 482 11l-1.73-.51h.19c1.54.4 1.54.4 4.29 1.23l.87.05-1.19-.45 1 .24c.95.27 1.91.61 2.86.83l.88.3a3.8 3.8 0 01-.63-.06h-.39l-.9-.13.39.24c-.16.05-.16.05-.66 0 .12.28.12.28 1.13.62s1.66.58 2.42.81l.17-.12h.34a4.69 4.69 0 001.45.21c-.2-.22-.2-.22-1.29-.72h.07c1.19.2 1.22.21 3.59 1.4v.07a8.16 8.16 0 00-1.64-.19c.32.55 4.29 1.71 5.06 1.75.95 0 2.79.65 8.38 2.55v-.11c-.06 0-7.39-3.09-8.28-3.52l.22-.1c-1.69-.6-3.52-1.2-5.34-1.79l.41.05c-.48-.3-.59-.39-6.77-2.17.51.05 1 .07 1.51.1 8.22 2.4 8.22 2.4 14.54 4.53h.51a17 17 0 00-2-.93 33.7 33.7 0 014.54 1.37l.62.07a13.84 13.84 0 00-2.36-.89 9.74 9.74 0 011.14 0l-.18-.13m323.5 351.62A429.61 429.61 0 00819.7 324c-.83-1-3.37-2.1-7.74-3.18a223.07 223.07 0 00-25-4.1c0 .05.86 6.5.42 8l-.12.67-.18.48h-.26a2.44 2.44 0 00-1.37.51h-.37l-.25.17-.23.31-.56.53-.57-.66-.48-.79c-.6-.55-.69-.56-.8-.57a8.62 8.62 0 01-2.75-1.14h-.69l.06.8c1.72 1.5 1.72 1.5 2.77 1.86a2.76 2.76 0 01.91 1.67l.18.86c.29.61.69 1.39 1 2s.36 1.41.45 2l.18.67.11.86c.63 3.51 2.6 6.5 3.82 9.81 1.6 3.66 1.68 3.78 2.71 5.13.43.12.62.14.84.19l.78-.14c.31-1.06-.06-2.18.22-3.25l.63 1.12c8.05 19.68 8.05 19.68 8.45 22.58.08.61.12.85.14 1.08.12 8.13 5.19 14.69 7 22.28.94 4.23-.67 8.68 1.28 12.79a48.35 48.35 0 013.6 9.86l.25 1.1 4.47 29.29c-.18 4.78-.38 9.1-.67 13.38a18.66 18.66 0 001.38 6.44 5.78 5.78 0 001.61 0c.9-1.89.9-4.07 1.87-5.94a3.3 3.3 0 012.21-.08h.13l.14.75c.26-.71.59-1.66.85-2.36.47-2.57 1.16-5.42 3.58-6.79.16-.78.32-1.84.46-2.61.31-1.9 2.13-8.8 2.17-8.82l.87.74c.08-5.23.21-8.2.21-8.23l.39.35c0-2.12 0-4.24.05-6.36-.2-13.93-1.06-27-2.47-40l.06.8c-.28-2.14-.53-4.27-.87-6.43-.33-2.79-.65-5.2-1-7.63-.15-.76-.27-1.52-.43-2.27.28 3.17.28 3.17 1.26 12.43l-.45-.61-.18-.11c-.12-.45-.32-1.06-.44-1.49l-.23-.25c0 1.4-.1 2.77 0 4.16a15.78 15.78 0 01-1.39-7.22v-.78c.23-.5.23-.5.29-.49a4 4 0 00.72 1.38c.19-.92.25-1.16-.3-3.16l-.13-.1-.42.12c-.56-.8-.64-1.92-1.7-2.41-.26-.4-.37-.42-.44-.46-.35-2.4-.7-4.81-1.07-7.19-2.23-8.9-6.6-17.23-6.79-26.62.64.2 2 .66 5.1 13.13 2 8.13 3.87 11.84 4.57 13.22l.26.29.11.07.12-.73c0-.41.06-.38.06-.36a14.64 14.64 0 01.62 2.48v.28M819.7 324a432.38 432.38 0 00-78-156.73l10.45 13.89c13.23 18.37 13.23 18.37 35.06 57.46 10.3 20.31 10.3 20.31 25.94 62.8l6.85 23.06-.28-.5M657.42 124l3.19.26-.79-.28h-.49a7.45 7.45 0 01-1.2-.8l-.77-.94-.29-.08h-.82l-.22.27v.24l.67.9.25.15.49.35m-74.68-72.59c-1.6-1-3.18-2-4.81-3l-.16-.07v.11l-.77-.08.57.34 4 2.53 1.23.12m77.85 72.82c21.3 1.72 36.82 3.61 44.82 5.58 3 .76 4.87 1.51 5.6 2.23L708.9 130c-32.56-30.55-32.56-30.55-50.7-44L634 69.13h-.13c-1.24-.79-5.53-3.51-8.39-5.27 1.76 1.1 1.92 1.2 4 2.54l1.65 1.14.25.25c3.31 2.94 8 4.09 10.47 8.07l.18.22c-2.93-1.87-5.86-3.68-8.72-5.64h.6L630.2 68a15.62 15.62 0 00-1.79-1c-1.11-.72-2.25-1.39-3.37-2.06h-.32a14.91 14.91 0 00-2-1.09 4.21 4.21 0 01-.6-.06 18.65 18.65 0 002.2 1.57c.44.17 1 .42 1.38.61 2.37 1.53 4.63 3 6.88 4.55a44.32 44.32 0 004.53 3.13c.68.39 1.19.69 3.4 2.11.43.27.61.44.8.54 1.69 1.48 3.61 2.66 5.39 4-.46-.18-1-.44-1.45-.64-.87-.6-1.26-.87-1.63-1.14s-.9-.6-1.31-.85l-.61.34c1.53 1.44 2.84 3.07 4.36 4.5v.36c2.88 2.14 6 4 8.67 6.27l-.1-.09a5.79 5.79 0 01-2.21-.68h-.31a35.65 35.65 0 01-7.29-4.15c2.16 2.88 2.68 3.13 5.11 4.38a17 17 0 001.71 1.4c.53.36.66.37.78.39 1.13.12 2.55 1 4.26 2.51-.12.39-.65.33-1.16.25l.64.61c-3.24-.55-9.79-5.89-12.25-7.9a3.57 3.57 0 00-1.51-.49l-3.4-2.73c-5.63-4.54-12.36-7.3-18.2-11.54 2.41.91 10.7 5 10.78 5a21.56 21.56 0 002.62.49c1.4.58 2.65 1.4 4.11 1.87l.56.08h.26a6 6 0 01-.19-1.47C631.17 69.59 618 64 615.5 62.9a21.38 21.38 0 00-2.7-1.37 7.11 7.11 0 00-2.8-1.07c-.37.22-.41.22-.47.2-1.5-.75-3-1.47-4.51-2.27l-.87-.1a26.44 26.44 0 012.57 1.71h-.62a19.44 19.44 0 01-3.41-2.14c-.4-.27-.58-.4-.78-.52a24.94 24.94 0 01-4.28-2.34l-.91-.08.62.6a37.27 37.27 0 01-4.46-1.45 15.08 15.08 0 01-1.74-.93h.71c-.57-.4-1.35-.93-1.91-1.34a30.93 30.93 0 00-8-3.13l3.24 2a9.59 9.59 0 01-2.83-1.26 12.93 12.93 0 01-1.23-.89 14.86 14.86 0 00-1.37-.88c-.74-.08-1.5-.14-2.28-.23a30.94 30.94 0 014 2.5c.62.41 1 .63 1.38.84l.75.42-.29.06a28.29 28.29 0 00-4.8-2.84 6.19 6.19 0 00-1.17-.21l-2.67-1.61-.69-.19.16.13.51.5-.65.32c.81.71 1.77 1.28 2.62 2l-.09.34a8.46 8.46 0 01-2.85-1.5 3.43 3.43 0 00-1.69-.56l-.39.61c1 1.3 3 2.28 5.71 2.93.88.51 1.63 1 2.42 1.51h-.79a22.39 22.39 0 00-3.63-1l-.94-.09c3.6 2.36 3.67 2.43 4.57 3.27-3.23-1.28-6.24-3.06-9.39-4.49 0 .5.58.94 1.24 1.35.48.3 4.76 2.82 5.65 4.28-1 .26-1 .26-3.93-1.9l.48.67-.54.47c.41.35 1 .82 1.42 1.18 1 .66 2.23.89 3.24 1.64l1.19.9.53.52c-1.95-.47-7.1-3.63-7.32-3.76.23.72 1.17 1.43 2.13 2.14h-1.52c.12.36.12.36 2.25 1.89a5.71 5.71 0 01-1.38.45c.19.36.46.85.65 1.23l-.28.14a9.15 9.15 0 001.13 1.42h-.51l.34.64a2.82 2.82 0 001.22.33 2.29 2.29 0 01.17-1.35h.77l-.11-.71a3.51 3.51 0 00.94-1.06c2.23.19 2.68.5 3.82 1.59-.43-.06-1-.07-1.43-.09l.53.48-.71.16c.62 1.45 4.14 4.72 4.54 5.08l-.8.1c0 .07 5.74 9.46 6.9 10.55l-.82-.69c-.34 1.64-.34 1.64-.18 2.08a4.1 4.1 0 00-1.08 1c.36.39.82 1 1.17 1.34l.73.22a5.76 5.76 0 011.67-.09 22.88 22.88 0 001.57 1.76 7.91 7.91 0 00-.37 1.43l-.73.16c.29 1.18.18 1.33-.42 2a14.33 14.33 0 001.15 2l-.55.59-1.83-.86c-.71-.07-1.1-.1-1.52-.12l1.1 1.49c.48.38 1 .9 1.51 1.28l-.2.77-.74.26H590c-.62.69-.62.69-.87 2h-.73l-.16.71c.86.94 2.58 2.91-.12 2.88a3.52 3.52 0 00-.51 1.38c1.84 1.8 1.84 1.8 2 2.39l-.49.57c.74 1.75 2.42 2.6 3.44 4.07 0 .55-.28.53-.49.51l.19.69c.5.82.94 1.44 1.39 2.06.63 0 1.31.07 1.94.12 2.06-.41 2.77 1.79 2.8 1.81l-.37.67c.4.66.82 1.35 1.28 2l-.62.43c.83 2 .83 2 4.55 2.41a14.43 14.43 0 011.35 2.26l-.3.69q6.64.33 13 .69a21.32 21.32 0 00-.49-2.43l.63-.35.69.25a3.29 3.29 0 00-.86-2.32c2.86.38 5.85 4.9 5.89 5 7.41.65 14.28 1.06 20.75 1.5l.13-.69.7-.13a20.05 20.05 0 00-1.84-5c-.39-.46-.71-.8-1-1.13-1.3-1.39-1.56-1.71-4.15-1.47-1.93-2.12-4.84-3.17-6.47-5.61-2.16-2.49-4.31-4.94-6.49-7.36 0-2.59-2.69-3.8-3.16-6.15l.77-.09c.14-.75.23-1.19-.85-2.76a2.57 2.57 0 011.33-.35 8.87 8.87 0 00-1.65-2.64l.07-.71.73-.08c-.46-4.42-5.21-4.51-7.3-7.28l.23-.69a29 29 0 00-2.91-3.14 2.39 2.39 0 011.47-.13l.43.06h.18c.83.5 2.14 1.33 3.89 2.51l-.24-.72c1-.05 1-.05 4.54 2.37l3.31 2.88-1.4-.12c4.73 4.17 5.23 4.6 5.39 6.18a9.74 9.74 0 01-1.49-.43l-.55.51c5.74 9.62 5.74 9.62 11.43 15.19.71.75 1 1.06 1.3 1.37 0 .05 9.53 7.25 14 8.92h.3a8.54 8.54 0 00.08-1.6c1-.23 2 .57 3.06.35-.1-.41-.21-.93-.3-1.35a11.66 11.66 0 014 0l-.14-.74a1.85 1.85 0 01.61-.07 38.16 38.16 0 003.28 2.44l2.32.24 1.12 1 .38.65a10.69 10.69 0 01-2.14 0c0 1.15 0 1.15 2 5-1.93-.19-3.14-1.85-4.87-2.44l-.5.61a6.84 6.84 0 01-2.19-.43l-.47.53.11.71a6.35 6.35 0 01-1.43-.56l-.62.42a28.88 28.88 0 001.57 2.75l.18.39m-43.29-2.84q-6.32-.39-13-.71v.12c.11.67.11.67.23.84.27.4.73.61 1 1l.48.74c2.38.1 2.38.1 2.48.12l.62.5a18.72 18.72 0 002 1.53l1.16-.45c1 .31 1.77 1 2.87.85 0 0 1.16-.22.84-1.11l.1-.48c.9.06.9.06 1.15-.14l.27-.78c0-.42-.36-.72-.36-1.15l.06-.87m26.56 1.64c-6.42-.5-13.29-.91-20.49-1.33 1.1 1.44 2.94 2.09 4 3.53l.36.48.07 1.09a14.63 14.63 0 003 2.9c2.55 1.42 2.55 1.42 3.33 2.35l.69 1 .69 1a14.91 14.91 0 004.93 4.22 3.61 3.61 0 011.63 1.54c.51.81.54 1.76 1 2.56l.32.52c.52.74 1.16 1.38 1.68 2.1l5.09.32c-2.1-3.61-2.1-3.61-1.76-4.54.16-.09.16-.09.7 0l.76.08c.72.18 1.2 1 2.07.81.25-.49-.33-1 .07-1.48.18-.19.39-.17 1.2-.1-.61-1-1.34-2-2.06-3.07l2.67.17a20.75 20.75 0 00-1.81-2.52l-1.29-.08c-1.24.38-1.8-.84-2.74-1.15-.19-.58-.36-1.13-.54-1.7-1-2.67-3.24-4.56-4.18-7.23l.26-.27-.14-.92.41-.25M819.7 324a432.38 432.38 0 00-78-156.73c-9-10.68-21.11-25-30.71-35.14-.73-.72-2.57-1.47-5.6-2.23-8-2-23.52-3.86-44.82-5.58l-3.19-.26a5.89 5.89 0 00.78.29h.2l1 .71a3.87 3.87 0 00-2.19 1c1.61 2.57 3.22 2.84 5.27 3.17a3.62 3.62 0 00-.07-2.45c3.76.51 8.86 6.42 8.89 6.48-.7 1.49-.7 1.49.68 3.44.25.89-.1.87-.47.82-.6-.2-.6-.2-4.81-3.7l-.6-.05c-.47-.6-1.08-1.41-1.56-2l-1.19-.1c3.92 9.57 5.57 13.54 10 17.76l.41 1c-5.43-1.32-5.43-1.32-6-1.27.41 2.58 2.94 3.54 4.22 5.44l-.5.23c-2.41-1.55-4.64-3.32-7-4.92-.53.25-.53.25-3 5-.81 0-1.86-.08-2.64 0-2.89 3.32-6-1.91-7-3.64l-1.5-.09c-.06.37-.14.82-.23 1.2-.4-.06-.94-.1-1.33-.13a16 16 0 00-2.06-.27l-1.27.13c.35.72.86 1.68 1.26 2.38-.11.82-.62.79-1.15.76-2.09-.43-2.2-.56-3.92-3l-.88-.12c-.53 0-1.05-.06-1.57-.09-.36-.63-.75-1.24-1.1-1.86l-.81-1.07c.76-1 1.77-.92 2.77-.87 1.7.49 3.16 1.54 4.81 2.07l.81-1c-1.36-2.92-4.42-8.24-4.44-8.26a3 3 0 00-2-.88c-.72.23-1.64.58-2.35.86.08.34.23.83.32 1.15-.25.86-.37.84-.5.84-.7-.38-2.2-1.16-2.2-4l-1.2-1.85c-5.55.74-4.21-7-8.55-8.23-.07.23-.07.23.61 3.7-.61.36-1.47.82-2.13 1.14a8.45 8.45 0 001.4 2 7.37 7.37 0 00.46.72c0 .36-.09.84-.1 1.19l-1 .82c.4 1.39.4 1.39 7.55 9.59.21.36.39.71.58 1.06.29.7.69 1.67 1 2.37 1.08 1.47 2.48 2.66 3.61 4.07.6 1 1 1.72 1.36 2.44l-1.23-.08a20.31 20.31 0 01-2.74.37l-1-.05a16.2 16.2 0 00-4.95-.44l-.1 1.26a6.6 6.6 0 00-2 1.56c.36 2.22.36 2.22-.74 3.33l-1.09-.82c-.47-.06-.8-.07-1.1-.09l-.81-.05c-.36.05-.82.09-1.21.11a3.27 3.27 0 00.52 2l2.26 1.17c.55 1.19 1.14 2.4 1.71 3.59-2.33-.15-2.75.61-5.15 4.92h-1c-.75 0-1.71 0-2.45-.11a35.84 35.84 0 002.27 6.76 10.26 10.26 0 00-4.93.6c.33 1.16.79 2.31 1.24 3.47l-3.53-.15c-.74-.39-.74-.39-3.5-.76-1.16-.66-1.28-1.06-1.44-1.42a4.32 4.32 0 00-2.34-1.12 7.55 7.55 0 00.63 3.59l1.16.5c.3.82.71 1.89 1 2.71l.91 1.17c.19.49.37 1 .53 1.46-6.54.45-9.6-2.53-9.64-2.55-4.94 1.9-4.94 1.9-5.34 2.52a12.67 12.67 0 01.34 1.23c1.1.86 1.41.88 1.75.88a6.35 6.35 0 005.44 2.52h1.42c2.52 1.79 4.88 3.74 7.3 5.6a57.86 57.86 0 012.4 6.55c4.64 5.41 12.44 14.5 7.64 19.63 0 .36 0 .87.06 1.23C618 231 618 231 616.8 231.2h-1.08c-3.38-1.53-7.29-1.86-10.35-4.26-4.08-.33-7.27-.45-10.51-.56-4.39-.64-4.39-.64-5.19-1.13-1.19-.61-1.36-.61-1.57-.63l-1 .71c.09.37.22.88.29 1.26a11.57 11.57 0 01-5.79.88l-.29 1.22c3.37 4 2.07 10 5.78 13.82.56 2.69 1.1 5.2 1.55 7.71v1.21c-3.85 3.87-1.86 7.06.07 10.15l.81 1a7.55 7.55 0 01.59 2c.07.44.16.88.25 1.32-.94 1.68-1 2.17.1 6.11a9.71 9.71 0 003.52.57c3.35-.73 6.34 1.66 9.69 1.05.58.58.58.58 4.86 2.74 1.34 1.61 2 3.71 3.8 5 .15-.45.34-1 .47-1.47l-1.18-.39a163.19 163.19 0 0127-13.38c-.33-1.41-.65-2.89-1-4.33-3.48-5.39-3.48-5.39-2.43-11.23.13-.75.29-1.78.4-2.53.8 0 1.79 0 2.57-.05a7.42 7.42 0 001.1-2.24 6.52 6.52 0 012.34-.68l.3-1.16c2.73-.23 6.07-.55 6.07-.55a6.42 6.42 0 00-.36-3.9l-.34-1.27c-2-5-2-7.49-2-7.52 2-1.22 2-1.22 6.15-.31h.58c4.26 2.22 4.26 2.22 5.08 2.39 1.43.08 1.87.09 2.35.13l1.22-.16c.13-3.72.13-3.72.54-5a8.76 8.76 0 012-.11c.84.08 2.83.26 3.92-3.74 6.84 1.92 8.3 9.58 13.74 13 1.84 1.13 1.84 1.13 3.07 3.25 8.9 6.28 25.38 18 27.22 27.93-3.7.7-3.7.7-4.11 2.68-3.41.86-6.67-.35-10-.54.17.46.47 1.1.63 1.6 3.34 1.93 5.23 5.67 9 7.06l5.21.31c-.46-1.66-.92-3.33-1.36-5 1.33-.92 2-2.57 3.44-3.32-.22-1.74-.46-3.49-.75-5.23a5 5 0 012-1.25 4.45 4.45 0 00.12-2.29 16.87 16.87 0 01-.83-2.26 23.36 23.36 0 01-2.68 0 2.51 2.51 0 01-1.33-1.68c-.09-.36-.18-.82-.25-1.17a4.42 4.42 0 013.08-.55 8.79 8.79 0 014.08 3.12c.19-2.71-1.61-4.71-2.41-7.08-5.95-1.89-10.34-8.14-10.4-8.21-3.46-.24-5.33-3.52-8.46-4.42-1.24-3.82-5-5.63-7.05-8.75a3 3 0 00-1-.2c-2.48-4.51-2.48-4.51-5.38-4.44a19.41 19.41 0 01-1.48-3.24l.37-1.18c.4-1.05.32-1.26.27-1.45-2.15-3.92-2.15-3.92-2.13-4.34 4.11-.67 20.07 15.65 20.22 15.83 1.79 2 1.91 2 4.47 2.45.26.45.65 1 .92 1.48 2.8 3.5 7.69 4.36 10.37 8.1 4.09 5.87 5.19 13.16 8.89 19.22a12.81 12.81 0 012.42.43 20.07 20.07 0 012.53 5.66c-.66-.05-1.28-.1-1.94-.13l-.32-1.25c-.34-.13-.83-.28-1.18-.39-.14 2.16 1.79 4.31 4.79 7.33.24-.45.56-1.06.84-1.51 3.66 1.8 3.46 6 5.55 8.75a5.5 5.5 0 002.27.62h1.22c.45-3.09.45-3.09.29-3.6s-.31-1.08-.45-1.52a5.48 5.48 0 01-.71-2.39l1-.71a13.59 13.59 0 011.72 1.67c.92 0 1.13.07 1.38.08.51-1.7.51-1.7-.71-5.2.35 0 .85.1 1.22.14l.39-1.15c-2-2.83-2.08-2.87-3.58-3.3a17.39 17.39 0 011.27 3.94c-.91-.17-3-.54-10.36-11.8-.42-1.27-.56-1.7-.73-2.12.06-.37.09-.88.13-1.25l1 .71c1.87 1.87 1.87 1.87 3.06 2.14.75 0 1 .06 1.21.07l.7.05c.12-1.44.12-1.44-1.43-3.09v-1.34c3.22-1.91 5 1.79 7.56 2.3 1.65 2.76 1.65 2.76 2.11 3.15a6.92 6.92 0 011.31 2.34l-.87.88c1.07 3.67 4.77 5.84 5.48 9.71a12.65 12.65 0 01.82 2.48c.14.55.25.93.38 1.3a29.06 29.06 0 002.11 3.6l.47.71.45.35.45.7.65.71.44.51a6.5 6.5 0 01.78 2.84v.65l.09.86a21 21 0 001.38 3.9l.53.69.49.53a6.23 6.23 0 00.2-2.35l-.21-1.68c-.24-.82-.59-1.91-.89-2.69-.11-.38-.23-.86-.33-1.22 0-.74.17-.74.36-.71l.38.16.52.57.4.65.5.58c.5.63 1.16 1.47 1.65 2.12l.56.86.44.69.45.37h.26a3.21 3.21 0 011.8.83 8.14 8.14 0 001.08.26l.19-.32.2-.45-.27-.66-.12-.69c-.89-2.22-.89-2.22-.88-3.51v-.66l.21-.62a3.62 3.62 0 012.18.87 19.09 19.09 0 001.38 1.92c.49.63 1.11 1.42 1.62 2l.42.69.43.53.34.22.49.37c1.32.15 2.59.31 3.83.43-.2-.7-.51-1.65-.76-2.35l-.23-.84a20.55 20.55 0 01-.8-2.64l.75.19.19-.12.42.06c.47.25.47.25 2.29 2.37a6.94 6.94 0 00.89.25l.19-.31-.1-.62.1-.49.3.21a9 9 0 001 1.74l.26.65a22.65 22.65 0 011.12 4.39 25.57 25.57 0 002 7.43l.27.69a7.21 7.21 0 011.1 3.93l-.14.46.05.68a18.32 18.32 0 01.51 2.4v.67c-.15 4-.15 4-.42 4.44l-.14.48-.11.65.11.69c11.05 2 19.51 3.39 25.15 4.8 4.37 1.08 6.91 2.14 7.74 3.18m13.65 83.13l-.66-8.42v-.08c0-.49 0-1-.09-1.51v-.17c-.69-7.72-1.58-14.15-1.58-14.19l-.11-.17c.32 2.73.41 3.38.49 4.64 1.41 12.93 2.27 26 2.5 39.27l.13.23v-2.85c-.07-2.3-.19-4.6-.18-6.9 0 .61 0 1.19.09 1.79 0 0-.18-5.19-.58-11.66m-3.3-32.37l-.9-6.1c-2.59-13.27-5.93-31-9.17-44.16l-.28-.5a429.61 429.61 0 019.06 43.28c.42 2.35.67 4.75 1.15 7.07l.14.44m-270.74-254l-.11-.24-1.24.57c-.45.31-.41.93-.84 1.28l-.72.2-.07.08.08.9c-.14.56-.66 1-.67 1.57a4 4 0 00.49 1.3l1.14.51.67-.46c.06-.11.06-.11.11-.64l.11-.56v-.55l.24-.17c.75 0 1.47.09 1.55-.18l-.17-.42-.27-.53.15-1v-.25c-.12-.51-.27-1-.41-1.44m55.61 45.5a19.68 19.68 0 00-1.16-2.28c-2.08-1.22-3.35-3.43-5.36-4.7l-.71.39c.41.56.41.56 0 2.53-.86.45-.86.45-4.75-6l-2.66-.14a32.35 32.35 0 00-1.69-4c-1.13-1.38-3-1.78-4.26-3l-1-.3c-.78-1.54-2.81-1.86-3.41-3.52-.43-1-3.51-4.18-5.26-4.26-3-.12-5.67-1.08-4.15-3.45-.26-.76-.26-.76-.24-1a5.42 5.42 0 001.57-.14 20.4 20.4 0 00-.63-1.27c-.66-1.13.79-2.05.31-3.17-.71-1.35-1.4-2.68-2.12-4-2.8-.1-5.6-.21-8.44-.57-.07-.85-.07-.85.37-1.2.06-1-.91-1.51-.91-2.42a15.71 15.71 0 00.93-2c-.93-.79-1-.84-1.68-1h-2.26c-.3.15-.81.38-3.68-.07l-.23.2a16.09 16.09 0 011 3.77c.42 1.23 1.22 2.27 1.71 3.46-1.66.14-3-.94-4.57-1.16-2.42-.28.3 3.3.39 3.48.87 1.12 2.53.52 3.44 1.58v.73a11.17 11.17 0 01.58 1.27c.11 1 1.46 1.61 1 2.83-2.46.62-2.46.62-1.13 2.91a13.94 13.94 0 002 0c.18-.21.4-.53 3.27 1.75l1.84.06a3.58 3.58 0 01-.48-2s4 3.69 3.63 5.33c-2.28.17-1.11 1.36.2 2.72l4.62.18v-1c3.08 1.59 3.79 5.56 7 7 .47 2.17.47 2.17.93 2.7 1.31 1.48 1.47 2 .91 2.69l-2.81-.16c-.92-.22-1.7-.91-2.71-.91h-1.37c-.12.19-.12.19-.29 1.09l-.12 1.13c-.53-.09-1.06-.09-1.62-.14l.19 1.09c1.84 1 5.48-.07 5.64 2.91a5.62 5.62 0 00-1 .06c-.63.74-.63.74-.54 1.67-.32.28-.42.38-1.26.31h-.64c.94 4.54 3 3.25 3.79 2.7.37-.22 7.63 1 7.66 1 .39.13 1.4 1.59.52 2.27-1.4 1.05-3.16-.11-4.55.85a6.14 6.14 0 01-.15 1.13 11.81 11.81 0 00-2.66.43c.9 2.23.9 2.23 1 3.37a4 4 0 01-2.4 1.61c1.64.92 1.64.92 4 .14l.85-.8-.12-.82a10.47 10.47 0 012.46.89l2.9.14c-.9-2.45-.84-2.56-.62-3 7.43 1.32 7.34.25 7.22-1.2l.21-.28c1.79.21 2.89 1.83 4.63 2.15h.58c1.19-.47 2.46.36 3.64-.2.56-.26.49-.88.42-1.73.81-.37 1.81.22 2.57-.56-.34-1.72-2-2.54-2.82-3.92l-.29-.75c-.24-.55-.24-.55-.12-1a9.57 9.57 0 011.62-.13s-.25-1.22-.56-2.21c.61 0 1.23.07 1.83.08m-53.63-17.47h-.46.44m13.47 1.38c-.35-1.51-1.86-2-2.65-3.08-.42-.64-.52-1.53-1.14-2.11a3.54 3.54 0 00-1.24-.81c-.35-.17-.76.07-1.1-.11s-.69-.61-1.13-.74h-.46a5.81 5.81 0 00-2 .7v1l-.76.48c-1.1-.67-2-1.71-3.21-2.18a5.73 5.73 0 00-2.17.18c.77 1.72 1.09 3.58 2 5.25h-.62l-.68.48c-.38.1-.76-.11-1.14 0l-.39.23c-.36.26-.87.63-1.38.31-1.07-.67-1.07-.67-1.94-.49 1 2.51 1.86 5 2.77 7.59a14.84 14.84 0 003.34.12c.41 1.12.82 2.24 1.21 3.38-.8.06-1.61 0-2.39.17-.94 1.6.74 2.93.44 4.48-.86.45-1.24.66-.36 2.2a5.6 5.6 0 002.65 1.77c.9.27 1.45-.66 2.3-.68a4.76 4.76 0 012.38.77c.9-.06 1.7-1.26 1.77-1.42s0-.06-.21-1.26c-.16-.53.51-.55.66-.93l8.42.29c-.21-.5-.38-1-.58-1.55-.42-.89-1.47-1.37-1.61-2.45 1-.72 1-.72.87-1.42a33.73 33.73 0 00-2.57-6.48c-.29-.7-.58-1.4-.87-2.14 1.8.11 2-.84 1.84-1.61m194.31 505c.24-.4.5-.81.71-1.22 8.91-15.56 8.77-16.33 8.45-18.41-1.17 2.27-1.17 2.27-10.37 15.95-3.15.22-2.34 3.89-4.32 5.11-2.79-.73-2.79-.73-10.55 10.4-3.36 4.88-4.43 11.21-9.36 15.11l-.27-.3c-3.21 3.63-6 7.55-9.11 11.27-.31.38-.57.76-.84 1.14-1.29 1.84-2.35 3.86-3.7 5.68-.55.74-1.1 1.48-1.7 2.23-1.51 2.15-3.24 4.15-4.7 6.38l.24.33h1.4c-1 1.65-1 1.65-1 2l.34.21v.45c7.33-1.82 37.91-45.76 38.21-46.21.49-.79 1-1.56 1.5-2.39s.89-1.65 1.37-2.43c.25-.42.45-.82.7-1.23 1-1.38 2.12-2.65 3-4.08m57.79-171.44c.2-1.91.4-3.81-1.22-5.15-.31.75-.69 1.73-1 2.47-.8.22-1.89.51-2.67.75-.21-.06-.45-.1-2.84.19a74.2 74.2 0 01-1.54-1.89c-.18-8.66-.18-8.66-.69-10.61 0-18.6-12.1-34.77-10.72-53.65-.07-1-.07-2-.13-3.83 0-.5-7-56.1-29.5-86.88-.24 0-.41 0-1.8.46-.44.59-1.08 1.39-1.54 2l-.64-.07c-11.56-5.05-21.12-14.43-34.33-16 1.12 5.61 2.69 11.13 3.33 16.83-.74.15-1.66.37-2.37.51-.52 0-1.06-.07-3-.13-2.4-2.25-3.81-5.58-7.21-6.78a74.62 74.62 0 01-8.84-.95c-.77-1.45-1-3.73-2.1-5-5.2-6.13-13.69-6.13-19.86-10.56-6.86-4.93-2.13-14.63-8.13-19.89-.09-.79-.15-1.85-.2-2.65a7.8 7.8 0 003.23-3.45 26.45 26.45 0 00-6.88-3.84c-5.53 1.43-5.53 1.43-15.2 1.94a11.09 11.09 0 01-3.78 2.91c-5.62-4.94-5.62-4.94-16.1-3.09-.4.69-.89 1.64-1.27 2.34-3.51-.17-7.07-.31-11.1 1.48a13.54 13.54 0 01-1.17 4.73c-3.13.72-6.52-.19-9.51 1.52a16.88 16.88 0 01-2.44-.31l-2.66-.57h-1.83c-5.88.09-7.17-1-9.48-3.07l-2.51-1.44c-2.18 3.86-.39 8.22-1.6 12.2a27.38 27.38 0 01-7.64-.12c.53 3.72 1 7.5 1.49 11.28-3-.1-6-.2-9 1.15 0 6.19-.67 12.41-.33 18.63.14 1.63.3 3.28.42 4.92-2.47-.09-5-.17-7.42 1.05-.41 8.41-6.52 10.65-10.14 11.2-2.37.37-13.09 26.79-13.15 27l-2.37-.17-2.36.47c-.69.43-1.59 1-2.34 1.45 1 14.53-.94 15.28-6.63 17.45-.28.71-.62 1.67-.86 2.39a8.41 8.41 0 001.45 5.39c10.21 1.94 10.21 1.94 11.21 3.9-2.74 5.5-2.74 5.5-2.76 24 0 1 0 2-.06 3 .06 2.25.06 2.25-5.28 7.62.24 3.55 1.61 6.86 2.19 10.34 0 1-.06 2-.06 5.33 0 .11 10.33 17.92 20.27 23.17-.48 4.26-1.73 15.64 13.88 16.74 10.5 20.55 11.16 21.78 20.82 20.47a19.82 19.82 0 002.19-4.88c3.19-1.3 6.58.21 9.78-.61l1.51.05c2.16 0 2.16 0 7.5.14 2 3 2 3 15.47 3 4.13-8.36 7.62-7.58 15.31-5.89a4.83 4.83 0 001.49-.14c.09-.06 6.5-6.74 12-2.21.86 11.35.86 11.35 5.47 13.4 6 .29 11.86.59 17.57.92-.48 2.9-.93 5.83-1.51 9.1-2.27 5.78-2.27 5.78-8.36 26.54a6.76 6.76 0 00-3.56 2.76 8.18 8.18 0 003.61 3.12c1.56 3.86 0 8.69 3.67 11.9-1.26 12 5.3 24.16-1 36-.3.86-.62 1.73-1.53 4.68a9.68 9.68 0 00.84 5l-18.16 30c-11.35 7.8-9 33.58-8.89 33.78-3.88 7.29-4.14 10.67-4.31 12.11-2.22 3.89-4.48 7.73-7.12 12.13-.12.24-13.22 33.93-15 39.13-.3.33-.57.68-1.4 1.55-4.18 2.14-4.18 2.14-5.2 5.3.38 0 .79.05-.13 1.58-.51.59-1.19 1.36-1.7 2 .12.74.26 1.77.4 2.51a36 36 0 007.07 0 42.44 42.44 0 015-1.59 20.16 20.16 0 008-.61c20.22-19.11 45.64-31.62 65.74-50.91l46.09-56.5c.68-1.25 1.31-2.5 3-5.61.64-1.35 1.42-3.18 1.91-4.59 2.47-5 4.94-10 7.27-15.67 1-9.24 6.56-17 8.38-26 .17-.45.34-.9.72-1.87 7.51-17.35 20.33-31.67 27.77-49 15-34.91 15-34.91 18.09-57.72M431.11 585.85c0-.13-.57-14.21-7.53-17.27l-6.65-.08c-10.49-3.17-10.49-3.17-11.43-9.38-6.61-4.23-6.61-4.23-11.27-2.85-2.82 0-5.64 0-9.24-.11-9-3.62-9-3.62-11.6-2.54v2.44c-1.89 1.15-2.94 1.76-7.44-.57-.08-.62-.12-1.42-.16-2 1-.63 2.38-1.52 3.4-2.18a36.89 36.89 0 00-16.37-7.71 8.26 8.26 0 01-3.16-.81c-3.47-1.77-4-1.93-8.11-1.32.08 2.19.16 4.39.2 6.59h-5.86a33.54 33.54 0 01.11-3.82c.74-.9 1.76-2.17 2.49-3.12.54-.4 1.21-.92 1.73-1.3-.33-.57-.8-1.33-1.16-1.89 0 0-3.83-1.17-7.9-2.78h-1.56a17.6 17.6 0 00-3.1.36c.29 4.69.41 6.86-5.5 5.95a29.9 29.9 0 010-3.53l-.12-2.09a9.86 9.86 0 006-1.14c1.6-8 .2-11.22-.33-12.44h-4.11a57 57 0 00-.95-8.86c-.66-2.57-2.24-4.76-3.13-7.23-7.32-1.77-8-3.76-8.63-5.68-10.61-4.19-10.61-4.19-11.29-4.59-3.59-1.77-7 .57-10.59.39h-2.49c-17-3.32-17-10.2-17-13.13-6.71-3.55-6.71-3.55-8.9-4.92 0-.5 0-1-1.91-1.7-3.35-2.18-3.35-2.52-3.24-6.71a16 16 0 00-2.43.25c-2 .64-4 1.53-6 2-1.66-1.56-1.66-1.56-2-5.85.63-.2 1.49-.43 2.09-.62.13-.58.25-1.35.34-1.94-3.12-1.68-3.12-1.68-5.63-2.2l-3 2.58c-.25 0-.47 0-1.74-.54a14 14 0 00-3.87-.79c-1.82 2.08-2.18 5-3.87 7.17h-2.26c-3-5-3.13-5-7.83-5.92a58.62 58.62 0 01-7.46-.25 26.9 26.9 0 00-4-1.12 5 5 0 00-1.83-4.36c-3.18-.92-5.69-3.25-8.91-4-.52.35-1.21.81-1.69 1.17 0 .26 0 .26-7.6 8.35 1.61 8.37 1.61 8.37 1.73 10.57-.45.43-1.06 1-1.48 1.38-2.11-3.53-8.22-15.65 1.76-23.91l-.61-1.49c-1 0-1.88 0-3.45.22-3.69 1.22-3.68 1.61-3.3 6.21l-7.07.14c-8.35 5.8-8.35 5.8-12.85 5.83.14 2.84.29 5.67.17 8.85-1.55 1.68-1.55 1.68-5.47 2.92 0 5.94-8.37 9.3-5.15 16.28.56.08 1.36.23 1.93.31.37 5.93 7.77 12.43 1.29 17.76-.75 10.84-.75 10.84-4.41 11.49.33 1.49.81 3.49 1.21 5-.93.73-2.12 1.74-3 2.53 0 .89-.11 2.07-.15 2.93-4.07 1.47-4.18 3.38-3.42 8.47a11.63 11.63 0 00-4.47.72c1.17 4.05.87 8.35 2.29 12.31 1.93.65 3.91-.09 5.85.19.16.9.35 1.81.47 2.9-.29.57-.66 1.28-.92 1.82a8.24 8.24 0 00-3.36 2c.65 4.17-2.47 8.61.74 12.65a16.23 16.23 0 00.4 1.78c2.55 12.11 17.17 14.76 20.53 26.23.25 1 .51 2 .89 3.17 3 4 3.86 9.26 7.69 12.75 7.39 6.75 7.12 23.11 21.14 21.26 13-1.72 13.77 16.21 25.84 16 1.22 4.25 2.45 8.46 3.83 13a13.81 13.81 0 001 3.89l-.06.59a24.13 24.13 0 00.9 2.29c.29.51.64 1.22.92 1.75a7.85 7.85 0 01.13 2.12 14.92 14.92 0 001.07 4l-.08.37a7.81 7.81 0 001.2 2.32c.2.57.53 1.36.76 1.94l.21.66a7.66 7.66 0 01.24 3 15.47 15.47 0 002.08 3.61c.14.37.26.77.4 1.14s.27.75.41 1.27c.59 4-.36 8.16 1.23 12 1.28 3.62 1.28 3.62 2.83 16.17.1.22.26.44 1 1.69 8.24 13.54 11 18.13 9.14 24.63a19.88 19.88 0 001.68 2.8c.24.55.6 1.28.84 1.84 1.13 1.43 1.13 1.43.86 8.82 4.89 4.72 5.6 12.09 10.61 16.72 3.51 3 2.54 9 7.35 11.16l2.12-.05-4.88-7.76h2.68c.55.83 1.11 1.68 1.7 2.64-.07.58-.19 1.39-.29 2 1.05 1.46 2.13 2.91 3.16 4.52 0 .3 0 .3 5.3 8.53-1.14-.67-2.61-1.57-3.7-2.31l-.59-.76c-.42-.49-1-1.12-1.42-1.58.12.12.21.26-.62.41a10.83 10.83 0 002.45 2.45 18.39 18.39 0 015.86 5.22c-1.88-.64-3.41-2-5.3-2.58a4.49 4.49 0 011.37 2.39 19.54 19.54 0 01.26 1.94c4 2.48 8.78 3.45 11.92 7.18a7.33 7.33 0 00-3.26 1.87c.13.11.26.24 1.71 1.46.94.71 2.25 1.63 3.24 2.28a15.43 15.43 0 011.26 1.89c2.36 1.27 4.35 3.12 6.62 4.47l-.27.67 1.42.61a5.09 5.09 0 011.92.44 6 6 0 003.14 2.16l.5.46 14.78 7.88a9.65 9.65 0 001.16.86 52.94 52.94 0 005.87 1.54 8.72 8.72 0 012.06.52c1.1 0 2.25 0 4.13-.2.28-.36.68-.84.94-1.19a11.65 11.65 0 00-5.77-1.65c-.43-.42-.86-.84-2.91-1.34 0 0-2.94-2.12-6.36-5a18.39 18.39 0 00-1.55-1.36c-1.45-1.45-3.14-2.6-4.57-4a10.81 10.81 0 00-1.43-1.27c-.61-.69-1.24-1.38-1.88-2.11-.36-.48-.82-1.1-1.22-1.57A4.39 4.39 0 00312 820a19.27 19.27 0 01-2.38-3.27c.49-.34 1.13-.83 1.59-1.18-.48-1.25-1.14-3-1.59-4.25.36-.47.73-1.17 1.06-1.67-.33-.47-.7-1-2.45-1.59l-2-.39c-6.27-4.24-6.27-4.24-7-5.19a5.85 5.85 0 01-.6-2.11c.39-.46.89-1.11 1.26-1.59h4.05a18.69 18.69 0 01-2.55-5.66c-.23-1.95-1.07-3.77-.87-5.79l2.11.21c.09-.6.2-1.37.3-2-.15-.27-.32-.55-1.66-1.69H300.94l-.27.11-1.77 1c-1.27-.88-1.27-.88-3.86-4.55-.47-.88-.91-1.77-1.38-2.65h1.59a28.48 28.48 0 014 1.92c1.64 0 3.23 0 4.86-.06-.3-.51-.69-1.21-1-1.74-.11-.29-.26-.59-.82-2.08.21-2.27.21-2.27-2.14-5.38-.32-.69-.58-1.38-.91-2.1a39.52 39.52 0 004.74-.25c.59 0 1.16 0 3-.17.53-.23 1.31-.54 1.89-.78 1.4 0 2.82 0 4.75.07.57.09 1.32.25 1.93.35.05-3.52 2.73-5.85 4-8.86l.39-1.83c-.32-1-.6-1.93-.87-2.92a9.56 9.56 0 01-1.93-.23c-.16-.63-.39-1.27-.81-2.77-2.18-2.75-6-3.56-7.92-6.69h4.08c13.53 3.13 16.7 3.89 17.77-1 3.49-16.76 6.64-18.54 7.85-19.21a7.79 7.79 0 01.39 3.83c.62.11 1.39.29 2 .41 1.9-2.5 4.52-9.13 4.52-9.17.41-3.62 5.28-3.67 5.81-7.19.77-5.11-4.85-9.11-2.55-14.49 0-.05 7.66-9.11 11.27-11.62 1.92 0 3.83 0 6.47-.12a30.39 30.39 0 004.42-4.15c4.82 0 9.62.06 14.47-.38a8.22 8.22 0 011.38-3.6c2.2-1 4.82-5.48 5.36-7.81a28.37 28.37 0 003.49-2.3c.43-4.78.48-5.06 2.31-8.53 1.32-.8 1.32-.8 3.31-11.24a7.35 7.35 0 01.77-2.86 18.48 18.48 0 002.24-8 20.83 20.83 0 00-.2-3.1c-.1-.58-.24-1.35-.37-1.94a18.27 18.27 0 00-.23-4c.06-2.57.07-5.16 1.66-8.06 1.28-.38 1.28-.38 9.19-10.53 2.89-.27 3.36-.74 5.33-2.88l9.45-13.07c2.5-4.73 2.5-4.73 2.66-7.32M224.47 407.3l.35-.19c-.73-.74-2.13-.3-2.64-1.46-.66-1.46.23-2.89.07-4.3-5.07 1.27-5.23 1.34-8 1.41h-2.64c-1.38-.28-2.48-1.32-3.9-1.43h-1.31c-1.17.43-1.54 1.87-2.78 2.27l-4.45.15c-1.9 0-2.46-2.18-4.09-2.55-2-.45-3.12-2.75-5.36-2.84l-9-.36c-1.46 0-1.46 0-4.88.82-.07 3-.16 6-.18 9 2.45 3.18 4.08 4.93 4.91 5.15h2.72c2.25.1 2.25.1 4.11-2.4.86-1.16 4.09-1.57 4.09-1.57 1.53 0 2.87.8 4.33.77s2.87-.8 4.36-.77a35 35 0 0010-1.32 2.55 2.55 0 012.65 0 36.71 36.71 0 006.61 1.06h2.69c.9 0 1.58-.91 2.34-1.36m-68 4.37l.26-.46c-.3-.94.39-2.1-.51-3-.6-.57-1.41-.25-2.09-.55s-1.3-1.1-2.09-1.46l-.67-.14c-2.34 0-4.63.11-6.89.18.43.86.71 1.82 1.17 2.7l.63.76c.46.45.6.41 1.88.11s3.22 1.47 3.24 1.49c.41.38.41.8.4 1.82a2.14 2.14 0 00.18 1.25c.77-.19 1.56.41 2.36-.07.5-.3.5-.3 2.13-2.67m-6.82-17.1c6-.14 12.19-.29 18.43-.41-1.1-2.12-5.5-8.47-9.29-9.07-.79 0-1.61.05-2.6.05-2.61 0-5.18 1.25-7.78 0-1.82-.83-2.2-2.89-3.57-4.14-1.95-1.83-4.48-2.75-6.63-4.27-2.5-1.67-2.5-1.67-2.85-2.84-.24-.9-.47-1.68-2-1.73-1.71.13-3.4.29-5.13.39-1.09.07-1.09.07-2.37 1.21-1 1-2-.14-3-.23l-4.85.15c-4.15-.12-4.15-.12-4.75.46-4.95 5 2.09 13.25 7.94 9.34 1.47-1 2.25-2.74 3.95-3.43a14.33 14.33 0 014.15.16c.05 0 4.66 1.81 5.06 4.79.11.67.18 1.25.75 1.56 3.95 2.23 4.55 2.09 5.83 1.85 1.63-.28 2 .36 2.69 1.7.36.7 2.28 4.22 6 4.44m357.9-314.74c-.59-1.08-1.2-2.15-1.79-3.22-.57-.52-.94-1.22-1.69-1.59a8.47 8.47 0 00-3.5-.88 19.44 19.44 0 00-2.49-5l-3.61-.1c-1.31 0-1.31 0-4.22 2.9-1.7-.18-3.33-.84-5.07-.9-3-.1-3.78.66-4.29 1.16a2.06 2.06 0 01-1.6.61l-3.09-.06c-.2-.53-.42-1.05-.66-1.57s-.45-1-.64-1.5c-.48-.68-1.27-1-1.84-1.56l-1.42.35c.21.51.42 1 .65 1.49-1.45-.46-1.45-.46-6-.53-.52 0-4.52.86-1.24 4.22 1.61 0 3-1.23 4.67-.62l3.39 2c.57.55.44 1.33.76 2a19.65 19.65 0 00-8.31-.19c.45.72 1 1.67 1.47 2.39a3.48 3.48 0 011.35-.33l3.33.07.6.42c.38 1.06.77 2.15 1.14 3.25l1.44 1.68h1.72c1.64-.09 3.29-.35 5-.29h1.83c2.36-.15 3.63 2 5.64 2.64.05 0 6.45 1.43 6.3-1.85-.09-1.32-.09-1.32 1-2.37.65-.61 1.7.5 2.15-.41.86-1.65.86-1.65 1.68-2 1.23-.49 1.23-.49 7.42-.25M320.34 187.17l.53-.62c-.12-.67-.3-1.62-.42-2.31-2.71-.08-2.71-.08-3.59-.58 0 0-3.28-1.91-4.05-3.19-.41-.69-.64-1.11-1.29-1.33-1.53-.55-3.19-.18-4.75-.55a17.19 17.19 0 01-2.22-1.14c2.18-4.17 2.18-4.17 4.71-5.2.43-.19 2.22-2.37 1.26-3.84a3.84 3.84 0 01-.53-1 9.1 9.1 0 01-1.71-.14 8.36 8.36 0 00-3.18 1.26c-.92.92-.49 2.23-.94 3.27-1 2.47-1 2.47-2.25 3.46-.12.06-12.42 11.19-12.83 11.77a8.46 8.46 0 00-1.54 3.32c-.23.92.17 1.83 0 2.75q8.78-.06 17.73-.06c1.52.14 2.16.34 3.61 2.26 2.59 3.33 3.9 4 5.59 4.77a3 3 0 011.53-.83c.61-.23 2-.72 1.93-6-.08-3.18-.08-3.18 2.36-6.05m-47.24-7.09l.16-.17c-.62-.27-1.08-.8-1.76-1a3.19 3.19 0 00-1.22-.1c-1.24.1-1.38.11-1.9-.13a4 4 0 01-2.3-2.08c-.43-1-.82-1.17-1.42-1.17a7.72 7.72 0 01-1.66.1l-2.57 1.13a8 8 0 011.95 1.11c.54.58.49 1.41.9 2l.43.45c.53.49 1.11.93 1.61 1.47s.76 1.06 1.21 1.51a2.15 2.15 0 001.14.67c.64.2 1.71.47 5.43-3.78M426.68 2.27c-1.28-.29-2.61-.27-3.89-.44a8.17 8.17 0 00-1.23-.1h-.08l.09.18a7.17 7.17 0 011.2.53 5.6 5.6 0 01-1.92-.23l-.44.44h-.19a3.63 3.63 0 00-.37.49l.35.56c-1.2-1.05-1.2-1.05-1.46-1.26a6.32 6.32 0 01-1.2-.65 9.63 9.63 0 00-1.85-.44h-.5l-.61.12.63.44a8.77 8.77 0 00-1.27.07l-.5-.37h.21l.62-.1a5.49 5.49 0 00-2.19-.14h-1.57a4.66 4.66 0 00-1.22.21h-.12l-.31.05H408l.15-.59A18.18 18.18 0 00411 1a10.93 10.93 0 002.48-.15l.61-.06-1-.18H412.2c-.84 0-1.72-.18-2.57-.25h.07-1l-.71-.06h-2.64l-.18-.06.25-.08h2.92c-.37 0-.88-.08-1.27-.08h-3.8L403 0h-.24a4.76 4.76 0 00-.69.2l-.62-.05a4 4 0 01-.88-.09H397.89l-.63.13h.19v.19l-.28.21V.47h-1.07l-.2.12.23.13h.64l.15.09v.29l-.08.07-.2.18-.29-.05h-.09l-.26.01H395.85l-.19-.08-.58-.23H395l-.1-.06V.85h-.52a6.54 6.54 0 00-1.4 0l-.2.22h.1L392.7 1l-.05.07-.14.17-.07.06-.25.2-.14.1h-.47v-.06h-.05l.05-.07h-.05V1h-.24l.14-.08h.06l-.06-.05H391c-.08 0-.17 0-.69.24l-.56.24-.21.09-.18.06h-.16l-1 .34-.24.08-.47-.11.6-.21.75-.18.25-.08.22-.06H389.52l.17-.11.08-.06h.16l.45-.15h.05l-.16-.36-.42.06-.6.06h-2.4l-.49.06H385.4l-.4.32h-.22l-.17.05h.24v.06l-.12.06h-.19l-.13.07-.21.09.05.06h.32l-.13.12-.08.14-.28.06h-.45l-.13-.1.09-.07v-.05h.05l-.19-.06h-.18v-.12l.08-.11h.12l.14-.05.2-.07h.07-1.06l-.31.05h-.16l-.75.11a10.52 10.52 0 00-1.17.28l-.14.06-.21.07-.21.07c-.66.19-1.37.41-2 .62l-.74-.05.05-.06.13-.07h-1.11l-1 .2c-.79.15-1.63.24-2.4.4-.39.1-.9.2-1.23.28l-.33.07h-.99l-.37.09-.36.07-.37.06H369l-.44.14-.37.06h-.38l-1.39.36-.34.11a11.2 11.2 0 00-1.23.33l.53.09-.12.1-.18.12h.24c.34 0 .83-.06 1.2-.12h.76c-.39.14-.86.34-1.25.49l-.2.13-.25.09-.23.13-1.72.73c-.39.14-.94.3-1.31.43l-.42.13-.9.25h-.14a3.19 3.19 0 00-1.43.18l-.71.15a8.08 8.08 0 01-1.22-.1 4 4 0 00-1.57.14l-.52.19c-.14 0-.3.1-.67.26l-.66.19-.3.06h-1l-.62.16c-.8.18-1.62.08-2.41.19l-.36.07h-.32l-.34.08-.42.14-.31.19-.37.15-.42.15-.34.08h-.89c-2.24.69-2.34.87-2.7 1.58l.57.24-.49.36h1.73l.05.31h.16l-.09.34h1.25l1-.23.39-.08c.34 0 .69 0 1.52-.11l.63-.08h.66c-.4.21-.79.45-1.38.78l-.59.25-.36.11a12.5 12.5 0 00-1.58.48h-.39l-.08-.1H346V13H345.31l-.55.07c-.34.09-.8.17-1.15.23h-.27l-.89-.22h-.31l-1.12.48h-1.12a2 2 0 00-1.47.87l-.08.17c.5.14.67.19 1.36.93l.05.11h-.63l-.47.17-.35.2-.14.2.28.19-.14.19-.1.19-.24.19v.11l.13.09.08.09.28.29.12.11v.19l.68.21h.39l.4-.15.23-.22.84-.81h.5a5.82 5.82 0 011.23.19l.09.1.15.06.07.1.28-.05.56-.28h1v.14a3.31 3.31 0 001.2.12l.4-.2.4-.06.36-.11.3-.06h.51l.41-.21.88-.28.47.42.11.09h1.54l.46.4v.19l.17.1h1.94l.5.4.09.16H355.85v.62l.52.22a2.7 2.7 0 01.59.09l.11.54a10.21 10.21 0 00-1.44 1.95v.22l.08.22.17.06h.39l.18.17.27.1.16.18-.15.68-.14.22.18.67.14.22-.05.33v.26L356.8 26l-.09 1 .15.18.3.72-.27.34c-.6.52-.67.59-.54 1.73-.29.46-.55.91-.86 1.37-1.05.7-1.05.7-1.36 1.32h1.48a2.36 2.36 0 01-1 1.1 4.14 4.14 0 00-1.22.37c-.49.68-.62 1.57-1.23 2.18h-1.2l-.66 1.16v.67a5.06 5.06 0 001.23.32 5.87 5.87 0 011.23.15l.62.15a21.91 21.91 0 003.46-.21c.33-.63.33-.63 3.47-1.06-.28 1.32-.69 3 1.81 3h.42a14.81 14.81 0 011.9 1.64v.6l-.42.61h-1.62l-.64-.13h-1.59c-1.38.08-2.22.12-2.83-1.06-4.93-.49-5.46-.16-5.48 1.37l.94 1c-1.23 1.37-3.67.89-4.54 2.88l.36.56c2.89.3 2.89.3 4 2l.72.16c2.41-1.67 2.41-1.67 5.12-1.62.26-.76.53-1.52.71-2.25a24.88 24.88 0 01-2.73-.2l-.14-.59a6 6 0 01-1.27-.15l.63-.63h1.86c1 .73 1 .73 3 1h2a2.77 2.77 0 011.17.43l.08.68-.19.43c-.83.35-1.32 1.2-2 1.69a1.6 1.6 0 000 .69c.85 1 .85 1 1 1.65-.24.65-.43 1.32-.62 2a15.08 15.08 0 01-2.64-.19c-1 .32-1.72 1.27-2.89 1.2h-.07a3.77 3.77 0 01-1.14-.15 3.14 3.14 0 00-1.3.06 9.18 9.18 0 01-1.92 3.45 8.41 8.41 0 01-1.24-.44c-4.16 2.11-4.16 2.11-4.3 2.55a5.7 5.7 0 00-.14 1 3.84 3.84 0 00.4 1.27c2.69.61 2.87 1.37 2.86 1.57 0 2-3.09 1.33-3.06 3.38l.33.66s.39 1.25.71 2.74c1.61.55 2.86-.85 4.39-.77a5.37 5.37 0 011.26.14l.31.57c-.15.37-.42.87-.6 1.21a4.86 4.86 0 00-1.15.12l-.62.2C349 77.2 349 77.2 349.51 78c2.49 0 4.07-2.69 6.67-2.23a18.5 18.5 0 01-1.18 3.58c-1 .9-2.42.87-3.4 1.67-.71.56 4.45 12.61 4.5 12.72 3.89 5.78 7.14 8.61 9.66 8.4a8.3 8.3 0 001.43-.11 4.2 4.2 0 012.19-.56h.63c.68.17 1.33.22 2 .4.08 3.79 4.24 3.25 6 5.32.94 1.06 8.21 1.13 8.06-2.21 0-.32 0-.62.09-1.43.36-4.19 7.33-8.29 2.89-12.12 0 0-2.8-2.66 1.61-3a10.42 10.42 0 001.43-.09 6.49 6.49 0 012.05-.11c1.56-2.64 1.56-2.64 4-4.36a15.11 15.11 0 01.53-4.47l.44-.46a4 4 0 00-1.67-3.57l.13-.65c1.37-.85 3.14-.19 4.47-1.22.9-.71.19-1.75.46-2.57h5.26a7 7 0 01-.07-2.83 9.9 9.9 0 012.93.34c-.07 2.1-.06 2.16.41 2.86 2.69-.27 4.62-2.25 7-3.27h1c1.17.07 1.17.07 3.1-.6l-.1-.68c.79-1.53 2.41-2.3 3.36-3.64 1-.37 1-.37 1.85-2.34a7.06 7.06 0 001.43-.53 1.88 1.88 0 01.1-1.07c1.68-1.42 1.68-1.42 1.2-3.29v-.12h.27l.7.09.2.08.21.11h.18l.46.29.21.07.46.4a3.67 3.67 0 002.06.29c1.91-.14 3.51 1.22 5.4 1.2 2.45 0 2.59-3.49 5.09-3.41 1.73.08 3.19-1.35 5-1 2.55.4 1.55-3.48 3.6-4.09l3.79.07c.73-.39.73-.39 1.76-2l-.31-.57-.82-.33-.86 1-.24.8h-1.34c-1.38-.26-2.14-1.83-3.68-1.81h-1.08c-4.4-.19-5.2-1.58-5.58-2.27-.2-.42-.36-.86-.54-1.26 5-.8 5-.8 5.9-1.63 2.16.82 2.51 3.9 5.14 4.16l.47-.45.18-1.13c1.2-.55 2.59.19 3.81-.48-1.62-2.25-4.27-3.13-6.3-4.88-1.74-1.53-4.41-1.92-5.44-4.39l.62-.24c2.74 1.58 2.74 1.58 2.94 1.58a5.69 5.69 0 001.13-.12l.66.1c-.53-1-.53-1-1.22-2.16a4.7 4.7 0 01-.55-1.1 2.74 2.74 0 00-4.31-.88 3.39 3.39 0 01-2-.49l1-.86c-.25-.24-.25-.24-2.34-1.05l.14-.37L447 29c.3.47.62.94.93 1.42a13.47 13.47 0 002.7-.12l.37-.56h.63a5.62 5.62 0 011.12.12c1.28.51 1.28.51 2 .2.55-3.38-4.5-1.93-6.44-3.36l.12-.6c2.65.57 3.44.23 3.79.08l.36-.7.62.23h.84a3 3 0 001.19-.23c-1.93-1.8-4.91-2-6.54-4.32.2-.18.2-.18 1.57-.23a23.48 23.48 0 00-1.71-1.62 6.82 6.82 0 01-1.91-1.11 2.64 2.64 0 00-.47-.4c-1.76-.9-4-.54-5.56-2l-.23-.24c.38-.44.38-.44 1.67-.65h1a4.08 4.08 0 012.39.81 3.58 3.58 0 01.44.55c.43.75.49.85 2.55 2.13l.34-.19c-1.19-1.1-2.41-2.15-3.67-3.29l-.16-.58-.34-.26c-1.07-.56-1.07-.56-3.1-.61-.19 0-.43 0-.83-.05h-.64a3.7 3.7 0 01-1-1.19l.58.19h.46l.62-.22c-.87-.54-3.86-1.43-4.88-.9l.19.7a3.92 3.92 0 01-2-1.53l-.07-.52c-1.21-.88-1.21-.88-2-1.54h1l-.6-.4V7.4c.11 0 .22 0-.05-.34-1.59-.79-1.63-.94-1.86-1.69l.64-.15-.59-.31-.09-.61-.71-.23-2.25-.07-.57-.48c.38.06.91.17 1.26.22l.53-.18-1.08-.64.43-.29c-.39-.13-.9-.25-1.31-.37M384.86.78c.4-.08.81-.14 1.23-.23L385 .64h-.27l1.18-.17.84-.16h-1.65l-1.66.12 1.45-.16h-.9l1-.09h-.87c-.6 0-1.22.09-1.86.11l1.14-.03h-1c-.58 0-1.15.08-1.71.08h.62L379 .45l-1.15.1h-.25l.75-.09c-1.46.1-3.33.19-4.75.26l-2.51.28h.68a29.18 29.18 0 01-4.25.6c.52-.1 1-.16 1.51-.26h-.47l2.77-.31h-1l.81-.06-1.3.06-4.2.43h-.42l.78-.16h-.26c-1.23.11-2.43.25-3.65.36h-.64l-2.21.34h-.36l-2.45.33h-.12l-.31.07-3.18.47a9 9 0 01-2.69.57h.43l-.34.26 3.37-.57 2-.29 1.28-.11-2.7.38-3.33.56-2.84.62c1.74 0 1.74 0 6-.74l.46.09c.4 0 .79-.05 1.18-.05l2.91-.47 2.45-.38c1.47-.23 2.93-.38 4.4-.57h.34-.73c-1.83.26-3.64.53-5.45.81l1.23.02.06.05h.22l-1.91.38h-1.09l-1.07.12-1.42.21c-1.06.1-2.14.28-3.19.39h-.64l-1 .12-2.28.51.23.09-.87.32-1.93.57.71.19-1.1.13h-.69c2.62-1.1 2.62-1.1 3-1.39h-.42l-.8-.1-2.76.59-1.6.5-2 .67-2.25 1-.52.42 1 .17c-1.06.29-2.19.38-3.26.72-.88.29-1.79.58-2.64.88l2.14-1.19-.38-.18-1.8.19-1.64.24-2.64.53-2.66.84-1.85.62.29.2c.51 0 1 0 1.52-.06l1.76-.18-3.32.75-2.16.89c1 .2 1 .2 6.81-1.32l-3.3 1.07-3.65 1L320 13l.06-.76.55-.75c-.53.05-1.06.09-1.57.15-5.66 2.24-5.66 2.24-8.13 2.64l-3.24 1-2.55 1.42-.18.63a29.48 29.48 0 003.4-.82 38.25 38.25 0 004.56-.18l.16.39a9.84 9.84 0 002.3-.37c.46 0 .91 0 1.05.16-1.81.8-1.81.8-2 1.07a5 5 0 001.88-.21h1.12c5.9-1.52 5.9-1.52 7.69-2.23l1.82-1-2.8.68 2.59-1.34 2-.3 3.29-1.24 2.09-1h1c2.5.11 4.51-1.46 6.84-2h1.49a3.77 3.77 0 002.48-1.11l-.13-.38h-.41l-2.36.38-1.93.44 1.79-.68c1.8-.35 3.58-.77 5.35-1.16h1l-1.1.49c.94.19.94.19 5.11-.68l1.21-.76 1.46-.08-1.14.52 1.25-.09 2.3-.37 1.91-.77.11-.27h2.23l2-.45 1.83-.24c2.64-.5 5.26-.88 7.88-1.39l1.07-.06 1.32-.28.83-.32a31.35 31.35 0 01-4.06.26l1.65-.31 1.46-.14h1c.34 0 .65 0 1.2-.06 1-.1 2-.17 3.1-.3a22.54 22.54 0 003.05-.39m-49.17 6.68l3.56-1c.3-.41.3-.41.64-.55l2.16-.55c.62-.15 1.31-.31 1.95-.44l1.06-.35c-.7.13-1.41.28-2.12.37 0 0 3.56-1 6.64-1.61a41.63 41.63 0 004.54-.84c-1.46.15-2.55.33-3.11.39h.4a19.64 19.64 0 01-2.91.41h-.71c-1.79.24-3.54.62-5.28 1h-.41l-.95.14-3.51.61-2.11.37c-1.14.21-2.25.45-3.38.68h.29c-1.2.26-2.37.54-3.56.81l-1.45.47 1.24-.16L330.5 7l1.22-.11a21.51 21.51 0 01-4.4 1h-.9l-2.25.45-1.49.59-3.15 1 .18.4 2.12-.28v.33l2.43-.64h.57A22.47 22.47 0 00327.4 9l2.86-.8-.56.4c3-.7 3-.7 3.1-.7v.17a25.11 25.11 0 002.89-.65m-26.51 6.78c1.54 0 4.69-1.47 5.74-1.95l-2.56.41-4.21 1.27 1 .27m-.64 7.74h.07l2.91-1.76-1-.67-1.34-.57-3.48.81-4.39.85-2.27.27-1.31-.46-2.25.2 2.05-1.54 3.5-1.54 2.88-1.36c-.6 0-1.24 0-1.84.08-1.35.2-3.22.46-10.46 4.31l-4.75 1.8-2 1.34-1.28 1.3 3-.33 3.07-.95c-.44.47-.87 1-1.3 1.44v.13a6.66 6.66 0 002.55-.11l3.29-.11 2.38-.53 2.2-.85-.64.91c5.75-.49 5.75-.49 7.38-1.48a8 8 0 013.08-1.22m-37.89 4.14l1.13-.04 1.9-1-3.05 1.1m10-1.68l4.09-1.75.88-.85 2.24-1.18-1.55.27-3.63 1-2.94 1.09-2.28 1.47 1.26-.06-.37.65 2.29-.64m14.06-6.25l3.6-1.17 2.28-.89 1.86-1c-.42.05-.87.06-1.29.07l.58-.42-2 .33-3.65 1.24-1.42.93-1.16.86h1.16m15.1-5.24l2.59-.85c-.48 0-.93 0-1.37.08h-1.24l-3.04.89c-.73.24-1.48.47-2.17.73l1.77-.18 1.63-.31 1.87-.31m3.49-1.67l2.4-.64 2.25-.88-.75-.09 2.38-.84-2.45.54-2.66.8-4.68 1.43.21.19 1.53-.21 1.77-.3zm14.37-4.58l1.95-.34 3.81-.81.71-.21h-.51l-3.53.68h.61l-3 .65m-23.15 6l2.79-.77 3.25-1 1.69-.58 3.19-.9 1-.4 1.46-.46-1.14.16 1.9-.53 1.75-.51-1.08.17-3 .52-2.77.67.79-.11-1 .34-3.49.9-.78.05-3 .86.83-.13-1.7.55 2-.45.2.06.6.09-3.35 1.19-.1.27m-4.56.69l1.84-.4 1.9-.72-1.28.16-3 .92h.57zm-11.16 5.42c.54-.2 3.41-1.34 3.61-1.83a18.4 18.4 0 00-2.67.75l2.12-1.13-1 .07c-6.64 3.06-6.85 3.06-7.18 3.06l-.1-.09v-.07l4-1.88-1 .06-3.31 1.21-3.34 1.39 1.93-1.1 5.17-2 1.16-.79-5 1.71c-2.1.83-4.14 1.89-6.21 2.83l-.51.68 1.95-.5 1.2-.25-1.93 1-4.41 2 2.11-.64 1.51-.15 1.42-.29 3-1.23c1.46-.61 2.87-1.18 4.36-1.76 1-.37 2.06-.64 3-1m-17.47 4.07c1.32-.51 1.28-.74 1.28-.75-.76.08-1.38.57-2.16.65L267.53 24a12.46 12.46 0 003.79-1.14m19.32-7.38l2.06-.48 4.39-1.51 1.9-.73a78.88 78.88 0 00-8.35 2.72m-20.36 46.6l3.72-2.55 1.11-2.61c-4.83.29-4.83.29-5.2.4a45.06 45.06 0 00-5 3l-.72 2.29 2.5.29 3.63-.78m2.37-31.79c5-2.11 5-2.11 5-2.73h-.14l-1.68.06-.14-.67c-2.76.26-2.76.26-3.36.54-4.46 2.16-4.46 2.16-6.2 2.66-2.16 1.08-4.26 2.19-6.32 3.32s-3.92 2.41-5.89 3.61l2.63-.52 3.41-1.38 3.6-1.94 1 .46 3.34-1.27 4.72-2.18M247 39.39l4.85-2.39 2.51-1.79 1.89-1.6.81-1c5-1.6 5-1.6 8.1-3.93l1.52-1-1.56.19-3.12 1.44h-.56l.24-.59-2.28.59-2.72 1.4-2.16 1.54c-5.53 2.56-5.53 2.56-6.09 2.52a18.59 18.59 0 011.81-1.42l-1.21.17-3.17 1.53-1.19 1.21-.9.91.3.58c-4.24 2.92-4.24 2.92-4 3.74a39.3 39.3 0 004.38-1.86l2.49-.27m.23-6.3l4.54-2 1.33-.85-.75-.5a22 22 0 00-3.09 1.2l-1.95 1.38c-.14.12-.66.44-3.09 1.95l3-1.14m-.16-1.59l3.21-1.34-1.1.21-2.49.93.38.2zm55.74-20.33c2.28-.57 2.28-.57 4.35-1.23l-1 .15-1.86.37-4.34 1 .64-.06.91-.08c.4 0 .77-.06 1.18-.1h.14M295.43 13l3.15-.79h-.5l-1.06.09-1.84.38-3.05.76-5.33 1.66-.19.14 1.73-.42 1.27-.16 2.71-.75 2.4-.75.71-.13m-4.76.68h.26l4.07-1.1 1.42-.44-.7.11-3.08.85-2 .58zM268.72 23l6.54-2.36 1.85-.83h-.65l-2.8 1 .69-.48 3-1.31c1-.36 2-.7 3-1l3.31-1.17-.74.08-2.46.72-1.44.35-2.41.8c-1.83.78-1.83.78-6.54 2.42l.14.18c-2.31.91-2.46.93-3.3 1-.37 0-.73.08-1.09.1l1.77-.84 4.3-1.66 1.12-.58-.65.07 1.56-.65.21-.16-2.67.69-4.89 1.56L263 22l-4 1.31-3.75 1.4h.75l-.36.38 1.42-.33 2.26-.63.17.31.88-.07a21 21 0 01-2.9.8l-1 .09-2.48.81-2.64 1.08-.94.56c.45-.06.9-.08 1.37-.13l4.13-1.24 4.52-1.53 1.65-.31c.45-.05.94-.08 1.41-.12s1-.07 1.51-.12l3.74-1.3m9.25-5.5l.32.13 3.1-1a6.21 6.21 0 01-1.35.24l.4-.13-2.47.77m-18.91 5.71l6.77-2.29-2.36.65-4.2 1.39-.21.25zm22.6-7.07l4.45-1.24.81-.39-3.65 1-.8.12c-.41-.1-12.81 3.64-12.93 3.69l-.59.07-2.8.81-3.75 1.28-1.62.67 3.56-1.12-2.18.82 2.31-.7 2.65-.89.86-.23 4-1.28 3-.86-3.84 1.28 1.66-.45 2.56-.68 6.31-1.92M221.4 50.47l2.68-1.47 1-1.5-.2-1.57 3.12-2.58 4.85-2.6 1.75-1.55 6.11-3.28 3.32-2 .91-1.1-1.3.1c-1.63.78-3.26 1.55-4.85 2.33l-3.14 1.68-3.83 2.26-2.41 1.07-.32-.11 1.36-1 3.25-1.71 2.46-1.44 3.6-2.15-.67-.07-3 1.51-2.2 1.24c-.39 0-.76.06-1.14.11l-2.38 1.14-1.53.38 2.84-1.33 3.47-1.57-.46-.07.53-.62-1.18.22-3.38 1.57-.13-.23 2.3-1 4-1.89.49-.38-1 .12-3.65 1.42-2.17.78-2.05.64-3.45 1.43-4 2-3.9 1.59-2.47 1.16.62-.08-1.95 1.15 2.3-.84 1.67-.43-1.93 1.27-2.59.91-2.16.74-2.84 1.3-1.36 1.27c.46 0 .89-.09 1.33-.15l2.13-.46a3.19 3.19 0 011.27 0c-1.08 1.15-1.08 1.15-3.69 2.47l-2.14.1-2.1.21-4.3 1.8-4.89 3.33h1.38l1.44-.14-4.48 3.19-1.19 1.32c.69-.07 1.37-.14 2.1-.19l2.32-.37 3.85-1.7 2.91-1 4.25-1.85 2.42-1.06-1.12 1.11 1.52-.4-1.06 2.21 1.59.06 2.2-.45 4-2.27 1.46-1.75 1.31-.23 2.46-.6M202 58l3.52-2.27-4.3 1.4-5.73 2.46.69.58 3.58-1.53L202 58zm32.26-24.47l3.31-1.08 3.81-1.7 3.6-1.91-.11-.17-3.38 1.13 1.27-.78 1.66-.87-.31-.13-2.18.6c-1.08.42-2.14.85-3.18 1.27l-5.68 2.35-8.72 3.76-12 5.3-1.86 1.27-7.17 3.91 5-2.33 1-.15 3.61-1.6c5.93-2.82 15.19-6.67 15.26-6.69l6.08-2.15m73.83 128.85l2.79-2.2-2.21-2.14 2.23-2.16 1.26-4.54-5.79-.78-.51-2.66h-6.43l-5.74 2.69-3.87 2.15-2.52-1 2-3.21 6.29-1.89 7.32-1.59 3.72-2.61-4.39-.25-3.79-2-5.27-1.48-2.55-3-3-3-.65-2.74 2.5-.51 1.45-2-2-4.63-2.35-5-2.31-8.86-.2-3.88-6.42 5.12c-.65 1.47-1.26 3-1.92 4.45l-5.25 1.73-4.22 3.14-4.16-.16.38-2.87-1.78-2.11-4.6 1 3.59-5c1.11-2.17 2.23-4.32 3.32-6.44l1.61-3.37-4.61-.16-2.23-2.4-1.21-3.45-3.31-3.58-3.14 1.76-4.6-.12-1.05-1.25-5.19.12-3.81 2.47-.48 3.51-4 4.71-1.45 3.17-1 4.32c-1 0-1.92.06-2.86.07l-2.43 4.22-3.29 2.4 1.4 1.87 2 3-2 5.61c-1.15 2.14-2.3 4.32-3.44 6.51l-5.29 4.65-5.87 3.69-6 .9.23 5.67c-1.25 2.46-2.43 5-3.64 7.46l-.41 4.3-2.53 3.54-4.54 4.51-6 .94-.27-6.24-1.15-5.31c.74-1.54 1.54-3 2.31-4.56l2.26-6.33 3.53-5.24-6-.8-4.56-.07-1.36-1.74-4.65-1.6-.23-2.95-2.53-3.1-2.37-3.29-7.46 2.18.94-3.16 3.07-7.22-1.27-1.8.5-2.76 7.86-8.67 8.19-6.46 7.66-5.63 5.13-2.08 5.27-2.9 1.72-2.92-2.89-1.09-2.36-1.87 4.12.81 3 1.28 2.6-.71 3.44-3.1 2.15 1.49 2.77-.71 2.49-2.43 2.35-1.07 3.86-3.2-2.23-.32-2.9-.25.64-1.72-1.51-1.82 2.25.09 2.49 1.22 1.51 1.08 3.9-1.28 4.79-2.94.4-2.21c.89 0 1.78-.07 2.69-.09l-.49 2-3.65 2.35-5.5 4.34c-1.7 1.78-3.41 3.61-5.1 5.45l-4 1.34-1.47 2.45 2.93.12c-.68.77-1.35 1.53.2 2.49l2.38-.76 3.67-2.91 3.92.06 1.87.36 1.27 1.15c1.1 0 2.22-.07 3.38-.11l2.87-3.11-2.68-.74 1.79-3.79-3.51-.3-.19-2.87-2-.72c.71-.71 1.41-1.43 2.13-2.14l1.93.51 2.61-1.59 1.36-1.71c1 0 2-.06 3-.1l3.54-2.49 5.18-2.49 2.92-2 .68-2.12 2.41-3.51 3.06-.57 3.55-2.6 1-2.47-1-1.24-.84-1.84c1.18 0 2.35-.08 3.53-.1l1.94-1.28 2.21.24.41 1.38 3.15-.24 3.44-.71.5-2.32 2.07-.51-.67 2.63 2.4.24-1.55 2.58 1.59.45-.72 2 1.35 1-1.1 2.53 1.86 1v2.61l-2.16 3.22-6.33 3.57-5.87 3.64-1.09 3.46-6.07.88-2.14-.83-3 .07-6.13 3c-.86 1-1.71 2.11-2.6 3.19l3.88.74 3.86-.32 2.31-1.81 2.4-1 1.94.57 3.48 1.3 1.36 4.43-.64 2.46.81 3.14 4.1-.08 1.91 4.23 6.51.13 3.36 1.89 1.74-2.61-4.13-5.25-1.58-2.26.08-2.48 3.11 2.22 5.58 3.91 3 2.29c.65-1.29 1.26-2.56 1.93-3.82l4-3.38-2.69-2 2-5.06-4-1.72-1.84-6.13 3-1.72 2.88-1.54 4.08 5.6.72 3.69 3.09.55 3.4-4.31 5.08-1.59 1.54-1.7h2.8l2.18-1.9 1.25-2.77h-5.44c.31-.48.58-1 .88-1.46l-1.8-2.31-2-.34L308 58h-2.55l.63-1.94.35-1.71c-1.39 0-2.79 0-4.19.07l-1.53-.13c.74-1 1.45-1.94 2.25-2.91h2.87L308.4 50l-3-.92 1.37-1.08 2.07-.35-.51-1.89-2.18-.76 2.65-1.76-1.8-1.16-3.34.19.9-1.37-2.38-.1-.69-.28 3.45-1.38-1.82-.81-4.37.92.43-2.27 1.25-1.27-1.81-.11 1.73-1.52-1.66-1c-1.3 0-2.62.06-3.9.11l-2.18 1.23-2.38.33-1.29-.36-2.73 1.54-2.07.2 2.61-2 3.67-1.8L292.2 30l2.52-2c-1 0-2.08 0-3.1.07l-3.91 1.57-2.3.2-3.12 1.09-3.79 2.14-2.31 2.33L273 37l-2.51 3-2 .35 1.68-2.56 4.52-3.38 3.29-2.19 5.15-2.26 5-1.86c-.91 0-1.81.05-2.7.1l-3.56.47-7.08 2.67-8 3.89-8.06 5 1.73.52 1.65.08-2 1.94-1.51-.38-3.33.83-1.62 2.43 2.73-.09 2.2-.69-.23 1.53 1.83 1.29-3.28.89-3 2.31-.39 1.6-8.07 4.72-5.12 3.41-5 2.79-.6-1 3.34-4 4.27-2.49 1.42-3.65-6.27 3 3.4-5.07-.3-.61 3.92-2.57 3.67-2.83-1-.25 3.38-2.29 1.86-2.42h-2.31l-2.84 1.49-1.38.19-5.09 2.48-2.55 2-2.79 1.6-1.86 2.64-.59 1.61-4.22 2.53-1.44-.55L224 56.1l2.39-.27 5.13-2.18c-1.41 1-2.76 2.06-4.11 3.11L219 60.12l-5.56 4.71.49-2.44 4.92-3.26c-.56 0-1.09 0-1.62.08l3.86-3c.49 0 1 0 1.52-.09l5.5-4.23.16-2.3-5.13 3-3.8 1.45-1.48 3.13-4.21 2-4 2.56-6.42.69-.1-1.81-1.28-.4 1.31-2.46-4.5 2.05-5.78 2.37-3.77 3-7.06 4.92 6.44-5.69.76-2-4.06 1.31-3.53-.58 2.43-1.65L188 60l2.45-2.75-1.72.34 1.36-2.5 3-2.11-.48-.29-1.08.29-3.53 1.9-1.58.63 6.84-4.11-7 3.78.15-.37 8.18-4.73.91-.66-6 3.18-4.08 2.16-1.45.67-3.4 1.75-4.51 2.54 6.51-3.7 2.35-1.21 2.29-1.16 3.21-1.72.37-.26-3.43 1.72-4.63 2.46-.61.33-.19.07c-12 7-27.56 17.33-39.19 25-18.35 13.13-18.35 13.13-51.5 43.14L85.56 130l1-1-2 2.08-3.18 3.39-.93 1.23-3.19 3.36-1.48 2-2.95 3.16-.71 1.13v.36L69 149.47l-3 3.83-3.65 4.5-3.25 4.28.37.33-3.81 5.13-2.82 4.74-2.37 3.59-.95 2.58-.18 1.74.05 1.21-1.76 2.83-1.08 3.47-.94 3-3.78 6.91c-1.14 1.86-2.31 3.74-3.44 5.62l1.27-3.43 1.94-4.52 1.66-2.91.7-2.66v-1l3-4.58-.85.19.89-2.17.24-1v-.71l-1 .72-2 3.61-.82 2.11-1.34 3-1.65 4.88-2.84 5.47-3.59 7-3.42 5.77-4.58 7.9c-1.61 3-3.17 6-4.73 9l-1.77 2.28-3 6-2.16 6.16-3.06 6.12-1.9 4.81-1.09 4.03-2.66 6.24-1.13 5.1-.28 4.05-2.41 8.89v3.51l-1.3 4.66L0 297c.63-.07 1.24-.16 1.85-.25l.29 3.55 1.33 2.8.3 4.65-1.07 5.81-.61 5.8L.9 329l.66 4.06 1 4.74-.15 3.49-2.22 3.4.36 3.82L2 352.23l2 4.07.93 4.55-.86 4 .17 3.24 2 2 1.65 4.17 1.16 3.55-.29 4.36 1.41-1.54.82-4.81-.36-5.38-1.76-2 .13-4.77-1.72-3.76v-11.67l-1.16-4.14.49-5.63-1.46-1.61.36-6.92-.68-5.76 1.58-7.67 1.73-.51 1.73 2.17.39 4.07-1.33 6.66.82 8.57 1.52 6.85 1.73 4.79 1.1 4.89-.34 5.71 2.45 3.37 1.49 5.3 1.05 5.7 2.88 7.79.85 6.93 1.8 3.2-2.14 2.76-.84 4.47 3.86 6.46 3.38 5.31 4.35 2.35 4.64 5 5.64 4.19 6.5 5.26 5.43 2.37 3.55-.55 1.09-3.07 4.07-.93 4.6 3.55 5.27 6.14 3 5.14 4.34-.17 1.7-.07 2.52 1.4 2.9 5.48 5.62 2.41.11-3.74 3.13 2.15c10 17.64 10 17.64 9.42 21.2l2.07 2.9 2.28-1.54 3.34 2.06c6.92 7.88 6.92 7.88 10 7.45l8.76 5.22 4.73 2.44-.8-5.81 2-3.74 8.07.53 1.14 3.63 2.6-.39 1.09-4.86-3.22-4.35c-2.8.09-5.61.15-8.35.2l-5.41-.22-7.87-.51-3.79-3.12-5.31-6.85-.06-5.59c-.1-2.46-.23-4.93-.3-7.42l1.34-9.4c0-2.11-.09-4.22-.1-6.35l-2.52-4.81-4.87-3.26-7.15 1-5-1.34-5.39 3.21-3.54-3.22 3.31-3.97v-3c0-1.23 0-2.47.06-3.73l1.34-4.27 2-6.79c.09-2.49.21-5 .33-7.5l3.22-3 .79-5.6L99 385l-7.68 1-4.76 1.26-2.29 5.28-2.27 7.87-2.43 7.2-3.9.91-5.49 2.48-5.56 1.39-2.4-5.16-4.34-3.5-1.31-5.9-2.57-7.64-.75-13.19.23-9.47 3-7.4 2.14-8.36-.91-8.48 5.1-8.36 3.33-.51 4-4.38 4.19-5.04 4.57.84 3.14 1.6 3.11-1.88 1.64 4.44 4.29-.17 3.43-.49-.17-3.47 2.17-5.67 5.44-.52 3.89-.83 6.93.74 2 4.85c.78 0 1.58-.05 2.37-.08l2-2.87 2.2-.77 2.78 4.12 2.48 5.16c-.28 2-.56 4-.82 6.06l1.43 3.48.37 3.9 2.12 2.82.9 4.25 2.83 2.06-.19 4.67 2.72 1 2-3.27 1.86-5.12-1-6-.59-9.21-2.53-8c.5-3.52 1-7 2.15-12.23.71-1.68 1.73-3.93 2.5-5.6l4.34-7.7 5.1-2.48 6.63-6 6.13-4.51 5.56-2.48 1.71-4.37 4.5-2.79-2-7.23-1.73-3.25 2-3.95-1.44-3.57 4.45-2.37 2.18 5.16 3.16-5.29 3.26-4.57 3.18-3 4.88-9.65c2.54 0 5.07-.08 7.64-.15l5.62-3.22 5.92-.73-.56-3.77 1.63-7.78 5.45-5.91c1.51 0 3 0 4.57-.09l2.32-3.39 6 .23 6.33-3.41 4.59-4.6c10.37-.36 10.37-.36 13.75 1.65-.64.47-1.47 1.06-2.09 1.55a64.34 64.34 0 00-8.31.47c-5.28 3.5-5.28 3.5-5.48 7.88l3 1.51 4.29-3.12 3-1.86 5.43-1.6 6.06-2.74 5.71-1.28 5.33-5.16 5-3.6 1.42-4.12-6 1.47-5.24 6.28-6.68.35-4.87-2.62-4.49-4.4-1-7.61 5.82-3.81 1.32-6-6.86-.51-8.21 2.36-9.73 5-10.41 8.3-7.69 4.84 3.79-4.47 5.19-4.79 3.19-2.34-5.64-1.57c2.59-.06 5.2-.11 7.85-.13l3.15-4.08 5.49-3.78 5.31-.33 3.56-4.59 4.89-1.73c2.3 0 4.63-.05 6.94-.07l12.76-.41 6.3 1.09 5.26-.34 6.06-3.68 5.81-5 8.65-.88 4.7-1.67" fill="none"/></clipPath><style>.cls-4{fill:none;stroke:#4d4d4d;stroke-miterlimit:10;stroke-width:.77px}.cls-7{fill:#0e0e0e}</style></defs><g clip-path="url(#clip-path)" opacity=".39"><path class="cls-4" d="M72.54 119.69q-329.49 309.74 0 619.48M79.26 113.46q-322.75 316 0 631.94M86 107.35q-316 322.08 0 644.16M92.71 101.37q-309.31 328.06 0 656.11M99.43 95.52q-302.58 333.92 0 667.82M106.16 89.8q-295.86 339.63 0 679.25M112.88 84.21q-289.14 345.23 0 690.44M119.6 78.75q-282.4 350.69 0 701.36M126.33 73.41q-275.68 356 0 712M133.05 68.2q-269 361.23 0 722.45M139.78 63.13q-262.24 366.3 0 732.6M146.5 58.18q-255.51 371.25 0 742.5M153.23 53.36q-248.79 376.06 0 752.14M160 48.67q-242.07 380.76 0 761.52M166.67 44.1q-235.35 385.34 0 770.65M173.4 39.67q-228.61 389.76 0 779.52M180.13 35.36q-221.89 394.06 0 788.14M186.85 31.18q-215.17 398.25 0 796.5M193.57 27.13q-208.45 402.3 0 804.59M200.29 23.21q-201.72 406.22 0 812.44M207 19.42q-195 410 0 820M213.74 15.76q-188.26 413.67 0 827.34M220.47 12.22q-181.54 417.21 0 834.42M227.19 8.81q-174.82 420.62 0 841.19M233.91 5.54q-168.1 423.89 0 847.78M240.64 2.39q-161.38 427 0 854.08M247.36-.63q-154.65 430.05 0 860.12M254.09-3.53q-147.93 433 0 865.92M260.81-6.29q-141.21 435.72 0 871.44M267.54-8.93q-134.49 438.36 0 876.71M274.26-11.43q-127.77 440.87 0 881.72M281-13.81q-121 443.24 0 886.48M287.71-16.06q-114.31 445.49 0 891M294.44-18.18q-107.59 447.62 0 895.22M301.16-20.17q-100.86 449.6 0 899.2M307.88-22q-94.12 451.47 0 902.94M314.6-23.77q-87.42 453.2 0 906.4M321.33-25.38q-80.68 454.81 0 909.62M328.06-26.86q-74 456.29 0 912.58M334.78-28.21a3131.31 3131.31 0 000 915.28M341.5-29.43a3494.76 3494.76 0 000 917.72M348.22-30.52a3946.41 3946.41 0 000 919.9M355-31.49a4525.1 4525.1 0 000 921.83M361.68-32.32a5294.18 5294.18 0 000 923.5M368.4-33a6370.72 6370.72 0 000 924.92M375.12-33.61a7978.69 7978.69 0 000 926.08M381.85-34.06q-20.18 463.49 0 927M388.57-34.38q-13.45 463.81 0 927.62M395.3-34.57q-6.74 464 0 928M402-34.64v928.13M408.74-34.57q6.72 464 0 928M415.46-34.38q13.46 463.81 0 927.62M422.19-34.06q20.18 463.49 0 927M428.91-33.61a7978.69 7978.69 0 010 926.08M435.64-33a6370.72 6370.72 0 010 924.92M442.36-32.32a5294.18 5294.18 0 010 923.5M449.09-31.49a4525.1 4525.1 0 010 921.83M455.81-30.52a3946.41 3946.41 0 010 919.9M462.54-29.43a3494.76 3494.76 0 010 917.72M469.26-28.21a3132 3132 0 010 915.28M476-26.86q74 456.29 0 912.58M482.71-25.38q80.69 454.81 0 909.62M489.43-23.77q87.41 453.2 0 906.4M496.15-22q94.14 451.47 0 902.94M502.88-20.17q100.86 449.6 0 899.2M509.61-18.18q107.58 447.62 0 895.22M516.33-16.06q114.3 445.49 0 891M523.05-13.81q121 443.24 0 886.48M529.77-11.43q127.77 440.85 0 881.72M536.5-8.93q134.49 438.36 0 876.71M543.23-6.29q141.19 435.72 0 871.44M550-3.53q147.93 433 0 865.91M556.67-.64q154.65 430.06 0 860.13M563.39 2.39q161.39 427 0 854.08M570.12 5.53q168.09 423.9 0 847.79M576.85 8.81q174.82 420.62 0 841.23M583.57 12.22q181.54 417.21 0 834.42M590.29 15.76q188.28 413.67 0 827.34M597 19.42q195 410 0 820M603.74 23.21q201.72 406.22 0 812.44M610.47 27.13q208.44 402.3 0 804.6M617.19 31.18q215.17 398.25 0 796.49M623.92 35.36q221.9 394.06 0 788.14M630.63 39.66q228.63 389.78 0 779.53M637.36 44.1q235.33 385.34 0 770.66M644.08 48.66q242.07 380.78 0 761.54M650.81 53.36q248.79 376.06 0 752.14M657.54 58.18q255.51 371.25 0 742.5M664.26 63.13q262.25 366.3 0 732.6M671 68.2q269 361.23 0 722.46M677.7 73.41q275.7 356 0 712M684.43 78.75q282.41 350.67 0 701.36M691.16 84.21q289.14 345.23 0 690.44M697.88 89.8q295.86 339.63 0 679.25M704.61 95.52q302.58 333.92 0 667.81M711.33 101.37q309.3 328.06 0 656.12M718.05 107.35q316 322.08 0 644.16M724.77 113.45q322.76 316 0 632M731.5 119.69q329.49 309.74 0 619.48"/></g><path d="M261.85 644.57v.06l21.26 27.64-34 27.64v.06h34.37a21.54 21.54 0 0021-16.69l2.79-12.28a21.54 21.54 0 00-21-26.38z" fill="url(#linear-gradient)"/><path fill="#cc2e3d" d="M283.08 672.33l-14.94 27.64h-19.08l34.02-27.64z"/><path class="cls-7" d="M334.59 644.57h21.6c17.42 0 27.34 11.95 24.59 27.54v.16C378 687.86 363.84 700 346.42 700h-21.6zM348.36 689A19.53 19.53 0 00368 672.43v-.16c1.73-9.81-3.78-16.7-13.76-16.7h-9.41L339 689zM396.83 644.57H439l-1.91 10.84H407l-2 11.24h19.2l-1.91 10.85h-19.16l-2.05 11.63h30.08L429.25 700h-42.19zM478.34 680.19c7.51-2.62 13.33-8.24 14.91-17.18v-.16c.92-5.22 0-9.58-2.51-12.66-3-3.64-8.11-5.62-15.16-5.62h-25.31L440.5 700h12.19l7.83-44.4h12.11c5.94 0 9.11 2.69 8.18 7.92v.15c-.83 4.67-4.79 7.84-10.73 7.84h-9.18L474.14 700h14.25zM507.72 644.57h12.19L510.14 700H498zM529.76 644.57h13.36l7.56 38.74 21.21-38.74h13.05l-32 55.4h-10.7z"/></svg>