<svg width="156" height="98" fill="none" xmlns="http://www.w3.org/2000/svg"><g opacity=".33" fill="#fff"><path fill-rule="evenodd" clip-rule="evenodd" d="M22.757.193 30.47 5.98a.964.964 0 0 1 0 1.543l-7.714 5.785a.963.963 0 0 1-1.543-.771V9.643h-3.683a8.63 8.63 0 0 0-7.763 4.8l-.227.453a.964.964 0 0 1-1.827-.432c0-5.849 4.758-10.607 10.607-10.607h2.893V.964a.964.964 0 0 1 1.543-.77Zm-1.543 22.95v-7.655h3.857v9.583A1.927 1.927 0 0 1 23.143 27H1.929A1.928 1.928 0 0 1 0 25.071V3.857A1.93 1.93 0 0 1 1.929 1.93h7.714v3.857H3.857v17.357h17.357Z"/><path d="M123.954 0c2.687 0 4.894 2.223 4.894 4.91v8.16H56.992V4.91c0-2.687 2.21-4.91 4.896-4.91h62.066ZM84.916 6.536a1.636 1.636 0 0 0-.156 0H65.155a1.633 1.633 0 1 0 0 3.267H84.76a1.636 1.636 0 0 0 .156-3.267Zm35.769.006a1.629 1.629 0 0 0-1.504 2.247 1.637 1.637 0 0 0 .881.882 1.626 1.626 0 0 0 2.129-.881 1.63 1.63 0 0 0 .124-.624 1.63 1.63 0 0 0-1.63-1.624Zm-6.536 0a1.627 1.627 0 1 0-.005 3.254 1.627 1.627 0 0 0 .005-3.254Zm-6.533 0a1.627 1.627 0 1 0 .624 3.13 1.633 1.633 0 0 0 1.006-1.506 1.631 1.631 0 0 0-1.63-1.624Zm21.228 9.793.004 44.091c0 2.686-2.207 4.91-4.894 4.91h-17.975V37.574c0-4.476-3.671-8.176-8.16-8.176H56.99V16.335h71.855Zm-17.956 6.53H81.484c-2.178 0-2.178 3.267 0 3.267h29.404c2.179 0 2.179-3.267 0-3.267Zm-35.94 0h-6.52c-2.179 0-2.179 3.267 0 3.267h6.52c2.178 0 2.178-3.267 0-3.267Zm42.477 9.8h-6.537c-2.178 0-2.178 3.27 0 3.27h6.537c2.178 0 2.178-3.27 0-3.27Zm-19.606 0c2.687 0 4.894 2.223 4.894 4.909v8.16H30.857v-8.16c0-2.686 2.21-4.91 4.896-4.91H97.82ZM58.702 39.2H39.02c-2.178 0-2.178 3.266 0 3.266h19.605c2.178.104 2.333-3.162.077-3.266Zm35.85.006a1.628 1.628 0 1 0 1.157 2.78 1.628 1.628 0 0 0-1.156-2.78Zm-6.535 0a1.628 1.628 0 1 0 .625 3.133 1.627 1.627 0 0 0 .526-2.658 1.628 1.628 0 0 0-1.151-.475Zm-6.53 0a1.628 1.628 0 1 0 .624 3.132 1.63 1.63 0 0 0-.624-3.132Zm36.014 3.26h-6.613c-2.178 0-2.178 3.27 0 3.27h6.533c2.179.104 2.337-3.166.08-3.27ZM102.713 49v44.09c0 2.687-2.207 4.91-4.894 4.91H35.753c-2.686 0-4.896-2.223-4.896-4.91V49h71.856Zm14.788 3.27h-6.613c-2.178 0-2.178 3.266 0 3.266h6.533c2.179.105 2.337-3.162.08-3.266ZM57.78 55.536a7.339 7.339 0 0 0-5.197 2.147c-2.855 2.856-2.83 7.503 0 10.367v.013l8.224 8.188c2.59 2.582 6.648 2.849 9.522.734a1.635 1.635 0 0 0-1.927-2.641 4.049 4.049 0 0 1-5.292-.408L54.9 65.76c-1.615-1.634-1.617-4.158 0-5.774 1.615-1.616 4.152-1.617 5.75 0l.023.025 2.255 2.172a1.634 1.634 0 1 0 2.268-2.35l-2.22-2.15c-1.423-1.44-3.312-2.148-5.196-2.147Zm10.332 9.79a7.314 7.314 0 0 0-4.871 1.4 1.634 1.634 0 1 0 1.942 2.626 4.032 4.032 0 0 1 5.28.411l8.21 8.186c1.615 1.633 1.617 4.148 0 5.764-1.615 1.616-4.152 1.63-5.75.012l-.023-.024-2.255-2.17a1.634 1.634 0 1 0-2.268 2.339l2.22 2.147c2.847 2.88 7.537 2.868 10.393.012 2.856-2.856 2.844-7.507.013-10.37a1.504 1.504 0 0 0-.013-.013l-8.211-8.188a7.365 7.365 0 0 0-4.667-2.135v.003Z"/><path fill-rule="evenodd" clip-rule="evenodd" d="M145.09 72.845a6.3 6.3 0 0 1 8.909 8.908l-5.728 5.728a6.301 6.301 0 0 1-2.92 1.656h-.049l-.261.054-.144.027-.311.044h-.153c-.068 0-.131.008-.191.015-.044.006-.087.01-.128.013l-.27.031h-.342a6.249 6.249 0 0 1-.67-.063 7.256 7.256 0 0 1-.545-.112l-.265-.072a3.457 3.457 0 0 1-.288-.095 7.394 7.394 0 0 0-.105-.038 2.998 2.998 0 0 1-.278-.11c-.063-.025-.126-.051-.189-.081a6.24 6.24 0 0 1-1.799-1.26 1.799 1.799 0 0 1-.522-1.386c.029-.434.214-.844.522-1.152a1.844 1.844 0 0 1 2.528 0 2.7 2.7 0 0 0 3.816 0l1.475-1.466.036-.04 4.221-4.217a2.701 2.701 0 0 0-3.82-3.82l-3.388 3.384a.45.45 0 0 1-.491.099 7.556 7.556 0 0 0-2.875-.563h-.166a.45.45 0 0 1-.328-.769l4.719-4.715Zm-.828 7.829a6.13 6.13 0 0 1 1.058.85c.364.365.555.87.522 1.386a1.802 1.802 0 0 1-.522 1.142 1.845 1.845 0 0 1-2.529 0 2.7 2.7 0 0 0-3.815 0l-5.746 5.741a2.701 2.701 0 0 0 3.82 3.82l3.397-3.401a.45.45 0 0 1 .491-.1 7.568 7.568 0 0 0 2.879.559h.18a.451.451 0 0 1 .319.77l-4.724 4.723A6.257 6.257 0 0 1 135.143 98a6.299 6.299 0 0 1-4.455-10.749l5.723-5.727a6.273 6.273 0 0 1 4.455-1.845c1.204 0 2.382.345 3.396.995Z"/></g></svg>