<svg width="40" height="24" fill="none" xmlns="http://www.w3.org/2000/svg"><g clip-path="url(#prefix__clip0_593_61645)"><rect width="40" height="24" rx="4" fill="#2775CA"/><g clip-path="url(#prefix__clip1_593_61645)"><path fill="#fff" d="M0 0h40v24H0z"/><g filter="url(#prefix__filter0_f_593_61645)"><circle cx="4" cy="12" r="12" fill="#2775CA"/></g><g filter="url(#prefix__filter1_f_593_61645)"><circle cx="40" cy="12" r="16" fill="#224CE1"/></g></g><path d="M15.541 10.306h.219a.1.1 0 01.101.1v1.957c0 .62.335 1.01.959 1.01.623 0 .958-.39.958-1.01v-1.956a.1.1 0 01.101-.101h.219a.1.1 0 01.101.1v1.963c0 .842-.462 1.379-1.38 1.379-.917 0-1.379-.542-1.379-1.374v-1.967a.1.1 0 01.101-.101zm3.302 2.666a.09.09 0 01.132-.01c.227.22.565.41.995.41.603 0 .796-.324.796-.582 0-.407-.41-.518-.857-.64-.542-.142-1.146-.293-1.146-.958 0-.558.497-.938 1.162-.938.477 0 .855.146 1.133.403.04.036.044.099.01.14l-.133.162a.089.089 0 01-.13.008 1.312 1.312 0 00-.911-.338c-.406 0-.695.219-.695.537 0 .34.39.44.821.557.553.148 1.182.32 1.182 1.03 0 .492-.336.994-1.247.994-.546 0-.958-.193-1.237-.472a.102.102 0 01-.009-.135l.134-.168zm2.86-2.566a.1.1 0 01.1-.1h1.055c1.05 0 1.735.735 1.735 1.693 0 .964-.685 1.688-1.735 1.688h-1.055a.1.1 0 01-.1-.1v-3.18zm1.156 2.906c.822 0 1.298-.589 1.298-1.313 0-.731-.462-1.318-1.298-1.318h-.735v2.631h.735zm5.943-.851c0-.71.467-1.284 1.212-1.284.745 0 1.212.573 1.212 1.284 0 .71-.467 1.289-1.212 1.289-.745 0-1.212-.58-1.212-1.289zm2.023 0c0-.497-.288-.944-.811-.944-.523 0-.816.447-.816.944 0 .502.293.948.816.948.523 0 .81-.446.81-.948h.001zm.766-1.892c0-.142.117-.254.254-.254.142 0 .258.112.258.254a.26.26 0 01-.258.259.26.26 0 01-.254-.259zm.167.67h.177a.1.1 0 01.101.1v2.248a.1.1 0 01-.1.1h-.178a.1.1 0 01-.101-.1v-2.248c0-.056.046-.1.101-.1zm2.47.846c0-.43-.219-.568-.547-.568a.948.948 0 00-.726.381v1.689a.1.1 0 01-.101.1h-.177a.1.1 0 01-.101-.1v-2.248a.1.1 0 01.1-.1h.178a.1.1 0 01.1.1v.254c.172-.203.508-.416.873-.416.512 0 .781.259.781.791v1.617a.1.1 0 01-.1.101h-.178a.101.101 0 01-.101-.101v-1.5h-.001zM25.554 12c0-1.04.766-1.749 1.725-1.749.568 0 .967.247 1.236.586a.09.09 0 01-.027.133l-.188.105a.101.101 0 01-.128-.024 1.155 1.155 0 00-.893-.424c-.726 0-1.289.569-1.289 1.374 0 .802.563 1.374 1.289 1.374.369 0 .693-.17.892-.423a.102.102 0 01.129-.026l.191.106a.09.09 0 01.026.134c-.28.342-.67.585-1.238.585-.96-.002-1.725-.71-1.725-1.75z" fill="#4D4E50"/><path d="M9.5 16a4 4 0 100-8 4 4 0 000 8z" fill="#2775CA"/><path d="M8.75 14.672c0 .094-.073.148-.164.12a3.002 3.002 0 010-5.717c.09-.028.164.025.164.12v.231c0 .063-.048.137-.108.157A2.505 2.505 0 007 11.932c0 1.077.685 1.997 1.642 2.348.06.022.108.094.108.157v.235z" fill="#fff"/><path d="M9.75 13.808c0 .069-.057.126-.126.126h-.25a.126.126 0 01-.125-.126v-.396c-.546-.073-.813-.38-.885-.795a.117.117 0 01.117-.135h.285c.06 0 .11.043.122.102.054.248.197.438.634.438.323 0 .553-.18.553-.45s-.136-.372-.61-.45c-.699-.095-1.03-.306-1.03-.856 0-.423.32-.752.816-.823v-.387c0-.07.056-.126.126-.126h.248c.07 0 .126.056.126.126v.398c.403.072.66.301.742.68a.116.116 0 01-.114.14h-.263a.127.127 0 01-.121-.092c-.07-.242-.243-.345-.543-.345-.33 0-.502.16-.502.384 0 .237.097.356.605.43.688.094 1.042.29 1.042.875 0 .444-.33.803-.845.886v.396h-.003z" fill="#fff"/><path d="M10.415 14.79c-.091.03-.165-.024-.165-.118v-.233c0-.069.042-.133.108-.156a2.505 2.505 0 001.643-2.349 2.506 2.506 0 00-1.642-2.348.18.18 0 01-.109-.157v-.232c0-.094.074-.15.165-.12a3.001 3.001 0 012.086 2.859 3.003 3.003 0 01-2.086 2.855z" fill="#fff"/></g><defs><clipPath id="prefix__clip0_593_61645"><rect width="40" height="24" rx="4" fill="#fff"/></clipPath><clipPath id="prefix__clip1_593_61645"><path fill="#fff" d="M0 0h40v24H0z"/></clipPath><filter id="prefix__filter0_f_593_61645" x="-40" y="-32" width="88" height="88" filterUnits="userSpaceOnUse" color-interpolation-filters="sRGB"><feFlood flood-opacity="0" result="BackgroundImageFix"/><feBlend in="SourceGraphic" in2="BackgroundImageFix" result="shape"/><feGaussianBlur stdDeviation="16" result="effect1_foregroundBlur_593_61645"/></filter><filter id="prefix__filter1_f_593_61645" x="-8" y="-36" width="96" height="96" filterUnits="userSpaceOnUse" color-interpolation-filters="sRGB"><feFlood flood-opacity="0" result="BackgroundImageFix"/><feBlend in="SourceGraphic" in2="BackgroundImageFix" result="shape"/><feGaussianBlur stdDeviation="16" result="effect1_foregroundBlur_593_61645"/></filter></defs></svg>