<svg width="64" height="40" fill="none" xmlns="http://www.w3.org/2000/svg"><rect x="22" y="14" width="40" height="24" rx="4" fill="#fff"/><rect x="22" y="14" width="40" height="24" rx="4" fill="url(#prefix__paint0_radial_22407_90155)"/><path d="M27.5 25.875l2.306 1.364v-5.192L27.5 25.875z" fill="#828CAD"/><path d="M29.806 22.047v5.192l2.308-1.364-2.308-3.828z" fill="#63688E"/><path d="M27.5 26.314l2.306 3.25v-1.889l-2.306-1.36z" fill="#8A93B3"/><path d="M29.806 27.675v1.89l2.308-3.25-2.308 1.36z" fill="#63688E"/><path opacity=".6" d="M29.806 24.828L27.5 25.875l2.306 1.364v-2.411z" fill="#63688E"/><path opacity=".6" d="M29.806 24.828v2.411l2.308-1.364-2.308-1.047z" fill="#474A75"/><path d="M39.375 23.438c.104 0 .188.083.188.187v1.815a1.063 1.063 0 011.75.81v1.125a.187.187 0 11-.376 0V26.25a.687.687 0 10-1.374 0v1.125a.187.187 0 11-.376 0v-3.75c0-.104.084-.188.188-.188zM53.75 25.188c-.262 0-.502.095-.688.252v-.065a.187.187 0 10-.374 0v2a.188.188 0 00.374 0V26.25a.687.687 0 111.376 0v1.125a.188.188 0 00.374 0V26.25a.687.687 0 111.376 0v1.125a.188.188 0 00.374 0V26.25a1.063 1.063 0 00-1.937-.603 1.061 1.061 0 00-.875-.46zM50.188 25.375a.187.187 0 10-.376 0V26.5a1.063 1.063 0 001.75.81v.065a.188.188 0 00.376 0v-2a.187.187 0 10-.376 0V26.5a.687.687 0 11-1.374 0v-1.125zM45.188 25.375v2a.188.188 0 00.374 0v-1.231l.002-.008a.901.901 0 01.123-.282.633.633 0 01.563-.291.187.187 0 100-.375c-.305 0-.528.105-.688.244v-.057a.187.187 0 10-.374 0zM37.813 24.625a.187.187 0 10-.376 0v.563H37a.187.187 0 100 .375h.438v1.812a.187.187 0 10.374 0v-1.813h.438a.187.187 0 100-.375h-.438v-.562z" fill="#63688E"/><path fill-rule="evenodd" clip-rule="evenodd" d="M35.063 25.203a1.188 1.188 0 10.767 1.878.188.188 0 00-.302-.223.812.812 0 01-1.444-.296h1.791a.187.187 0 00.188-.187 1.188 1.188 0 00-1-1.172zm.603.985h-1.582a.813.813 0 011.581 0zM42.758 25.36a1.188 1.188 0 011.804 1.015v.188h-1.978a.812.812 0 001.444.295.188.188 0 01.302.223 1.187 1.187 0 11-1.572-1.72zm-.174.828h1.582a.813.813 0 00-1.582 0zM48.313 25.203a1.188 1.188 0 10.767 1.878.188.188 0 00-.302-.223.812.812 0 01-1.444-.296h1.978v-.187a1.188 1.188 0 00-.999-1.172zm.603.985h-1.582a.813.813 0 011.581 0z" fill="#63688E"/><g clip-path="url(#prefix__clip0_22407_90155)"><path d="M2 6.5A4.5 4.5 0 016.5 2h15A4.5 4.5 0 0126 6.5v15a4.5 4.5 0 01-4.5 4.5h-15A4.5 4.5 0 012 21.5v-15z" fill="#414652"/><path d="M14.75 16.25c0-.825.675-1.5 1.5-1.5h3c.825 0 1.5.675 1.5 1.5v3c0 .825-.675 1.5-1.5 1.5h-3c-.825 0-1.5-.675-1.5-1.5v-3z" fill="#EF8933"/><path d="M7.25 16.25c0-.825.675-1.5 1.5-1.5h3c.825 0 1.5.675 1.5 1.5v3c0 .825-.675 1.5-1.5 1.5h-3c-.825 0-1.5-.675-1.5-1.5v-3z" fill="#4B6FA8"/><path d="M14.75 8.75c0-.825.675-1.5 1.5-1.5h3c.825 0 1.5.675 1.5 1.5v3c0 .825-.675 1.5-1.5 1.5h-3c-.825 0-1.5-.675-1.5-1.5v-3z" fill="#76C0E3"/><path d="M7.25 8.75c0-.825.675-1.5 1.5-1.5h3c.825 0 1.5.675 1.5 1.5v3c0 .825-.675 1.5-1.5 1.5h-3c-.825 0-1.5-.675-1.5-1.5v-3z" fill="#FF444F"/><path d="M6.5 2A4.5 4.5 0 002 6.5v.13l22.436-3.54A4.482 4.482 0 0021.5 2h-15zM24.899 3.55L20.783 26h.717a4.5 4.5 0 004.5-4.5v-15c0-1.128-.415-2.16-1.101-2.95z" fill="#303541"/></g><defs><radialGradient id="prefix__paint0_radial_22407_90155" cx="0" cy="0" r="1" gradientUnits="userSpaceOnUse" gradientTransform="matrix(39.99997 -24.00002 40.00004 66.66661 22 38)"><stop stop-color="#52567F" stop-opacity=".24"/><stop offset="1" stop-color="#828CAD" stop-opacity=".48"/></radialGradient><clipPath id="prefix__clip0_22407_90155"><path fill="#fff" transform="translate(2 2)" d="M0 0h24v24H0z"/></clipPath></defs></svg>