<svg width="64" height="40" fill="none" xmlns="http://www.w3.org/2000/svg"><rect x="22" y="14" width="40" height="24" rx="4" fill="#fff"/><rect x="22" y="14" width="40" height="24" rx="4" fill="url(#prefix__paint0_radial_22407_90123)"/><path d="M47.706 25.097a1.782 1.782 0 01.81.177l-.285.662a2.765 2.765 0 00-.232-.083.996.996 0 00-.293-.037.812.812 0 00-.657.29c-.161.194-.242.455-.242.782 0 .194.04.35.122.47.082.12.233.18.453.18a1.43 1.43 0 00.58-.12l.063.678c-.105.042-.22.08-.347.112a1.899 1.899 0 01-.452.048c-.231 0-.427-.034-.587-.102a1.049 1.049 0 01-.623-.685 1.706 1.706 0 01-.07-.49c0-.258.042-.502.123-.73a1.8 1.8 0 01.353-.6c.152-.17.337-.304.555-.403.218-.1.46-.149.729-.149zm-6.786-1.345l-.345 1.47a1.34 1.34 0 01.222-.079.959.959 0 01.24-.029c.18 0 .334.033.464.097.13.065.238.152.325.263.085.11.148.24.19.387a1.951 1.951 0 01-.081 1.223 1.931 1.931 0 01-.389.61c-.164.174-.357.31-.58.41-.224.101-.466.152-.726.152l-.177-.003a3.158 3.158 0 01-.63-.094 1.688 1.688 0 01-.344-.125l.966-4.145.865-.137zm9.19 1.345c.193 0 .363.031.51.092.147.06.268.146.364.256.094.11.166.24.214.391.049.15.073.316.073.499 0 .227-.035.456-.106.684-.07.227-.175.433-.313.616-.137.182-.31.331-.516.447a1.445 1.445 0 01-.718.174 1.33 1.33 0 01-.514-.091.95.95 0 01-.36-.257 1.112 1.112 0 01-.215-.39 1.6 1.6 0 01-.072-.499c0-.228.036-.457.108-.684.073-.229.18-.434.322-.616.14-.183.314-.332.519-.448.204-.115.44-.174.703-.174zm-4.842-.803l-.212.883h.927l-.168.696h-.921l-.246 1.049c-.022.087-.035.169-.039.245a.457.457 0 00.028.197.247.247 0 00.12.128c.058.03.14.046.248.046.09 0 .176-.009.26-.026.084-.017.169-.04.254-.071l.062.65a2.964 2.964 0 01-.363.108c-.13.03-.285.045-.464.045-.257 0-.456-.039-.598-.116a.671.671 0 01-.301-.32 1.03 1.03 0 01-.078-.464c.007-.175.033-.36.078-.553l.547-2.36.866-.137zm-1.59.883l-.704 3h-.826l.698-3h.832zm9.197 0l-.703 3h-.828l.699-3h.832zm1.78-.068c.435 0 .736.13.902.387.165.259.194.613.087 1.06l-.38 1.62h-.833l.369-1.585c.022-.1.04-.195.053-.288a.692.692 0 00-.003-.245.294.294 0 00-.103-.171c-.055-.044-.137-.066-.249-.066a1.65 1.65 0 00-.33.035l-.541 2.32h-.833l.677-2.862.209-.066a2.953 2.953 0 01.575-.12c.117-.013.25-.02.4-.02zm-13.824.712c-.052 0-.12.01-.203.029a.501.501 0 00-.227.12l-.368 1.562.059.011a.5.5 0 00.12.012h.1c.13 0 .253-.033.368-.097a.976.976 0 00.3-.26 1.319 1.319 0 00.27-.795.86.86 0 00-.089-.428c-.06-.102-.17-.154-.33-.154zm9.2-.005a.514.514 0 00-.323.108.922.922 0 00-.235.274c-.063.11-.11.23-.143.362a1.615 1.615 0 00-.047.373c0 .19.03.339.09.445.06.106.167.16.323.16a.51.51 0 00.324-.109.932.932 0 00.235-.274c.063-.11.11-.23.143-.362.031-.13.047-.255.047-.373 0-.19-.03-.338-.09-.445-.06-.106-.167-.16-.324-.16zM43.5 23.809c.115 0 .22.035.312.105.093.07.14.178.14.322a.593.593 0 01-.355.53.533.533 0 01-.533-.06c-.093-.07-.14-.177-.14-.322a.54.54 0 01.048-.225.601.601 0 01.307-.305.538.538 0 01.22-.045zm9.197 0c.115 0 .22.035.313.105.093.07.14.178.14.322a.593.593 0 01-.355.53.536.536 0 01-.534-.06c-.093-.07-.14-.177-.14-.322a.54.54 0 01.048-.225.595.595 0 01.307-.305.538.538 0 01.22-.045z" fill="#4D4D4D"/><circle cx="33" cy="26" r="4.5" fill="#F7931B"/><path fill-rule="evenodd" clip-rule="evenodd" d="M32.6 23.882l.199-.812.484.123-.195.796c.13.03.261.061.389.093l.192-.79.484.123-.198.812c.611.215 1.058.537.97 1.137-.063.438-.301.65-.618.725.435.231.655.585.445 1.199-.261.762-.882.826-1.707.666l-.2.82-.485-.123.198-.808a22.148 22.148 0 01-.386-.103l-.198.813-.484-.123.2-.822c-.324-.084-.649-.168-.974-.25l.24-.566s.356.096.352.09c.137.034.197-.058.221-.119l.544-2.223c.006-.105-.03-.238-.226-.288a5.926 5.926 0 00-.351-.089l.128-.528c.325.083.65.171.976.247zm.112 2.203l-.117-.028-.265 1.088.094.025c.394.107 1.258.34 1.396-.223.14-.576-.7-.769-1.108-.862zm.345-1.489l-.099-.023-.241.987.08.021c.33.09 1.047.285 1.172-.226.128-.525-.571-.682-.912-.759z" fill="#fff"/><g clip-path="url(#prefix__clip0_22407_90123)"><path d="M2 6.5A4.5 4.5 0 016.5 2h15A4.5 4.5 0 0126 6.5v15a4.5 4.5 0 01-4.5 4.5h-15A4.5 4.5 0 012 21.5v-15z" fill="#414652"/><path d="M14.75 16.25c0-.825.675-1.5 1.5-1.5h3c.825 0 1.5.675 1.5 1.5v3c0 .825-.675 1.5-1.5 1.5h-3c-.825 0-1.5-.675-1.5-1.5v-3z" fill="#EF8933"/><path d="M7.25 16.25c0-.825.675-1.5 1.5-1.5h3c.825 0 1.5.675 1.5 1.5v3c0 .825-.675 1.5-1.5 1.5h-3c-.825 0-1.5-.675-1.5-1.5v-3z" fill="#4B6FA8"/><path d="M14.75 8.75c0-.825.675-1.5 1.5-1.5h3c.825 0 1.5.675 1.5 1.5v3c0 .825-.675 1.5-1.5 1.5h-3c-.825 0-1.5-.675-1.5-1.5v-3z" fill="#76C0E3"/><path d="M7.25 8.75c0-.825.675-1.5 1.5-1.5h3c.825 0 1.5.675 1.5 1.5v3c0 .825-.675 1.5-1.5 1.5h-3c-.825 0-1.5-.675-1.5-1.5v-3z" fill="#FF444F"/><path d="M6.5 2A4.5 4.5 0 002 6.5v.13l22.436-3.54A4.482 4.482 0 0021.5 2h-15zM24.899 3.55L20.783 26h.717a4.5 4.5 0 004.5-4.5v-15c0-1.128-.415-2.16-1.101-2.95z" fill="#303541"/></g><defs><radialGradient id="prefix__paint0_radial_22407_90123" cx="0" cy="0" r="1" gradientUnits="userSpaceOnUse" gradientTransform="matrix(39.99997 -24.00002 40.00004 66.66661 22 38)"><stop stop-color="#F7931B" stop-opacity=".24"/><stop offset="1" stop-color="#F7C71B" stop-opacity=".477"/><stop offset="1" stop-color="#FF6444" stop-opacity=".48"/></radialGradient><clipPath id="prefix__clip0_22407_90123"><path fill="#fff" transform="translate(2 2)" d="M0 0h24v24H0z"/></clipPath></defs></svg>