<svg width="64" height="40" fill="none" xmlns="http://www.w3.org/2000/svg"><rect x="22" y="14" width="40" height="24" rx="4" fill="#212329"/><rect x="22" y="14" width="40" height="24" rx="4" fill="url(#prefix__paint0_radial_22407_90139)"/><path d="M30.119 23.587l-.261 1.479h-.905c-.845 0-1.65.684-1.799 1.528l-.063.36c-.148.844.415 1.528 1.26 1.528h.754c.616 0 1.202-.498 1.31-1.113l.695-3.941-.991.16zm-.643 3.642a.418.418 0 01-.394.345h-.459c-.38 0-.633-.308-.567-.688l.04-.224c.067-.38.43-.689.809-.689h.793l-.222 1.256zm7.613 1.253l.594-3.369h.94l-.595 3.37h-.94zm.102-3.33l-.142.802a2.394 2.394 0 00-1.045-.067l-.458 2.596h-.94l.564-3.196a3.178 3.178 0 012.02-.135zm-3.81-.087h-.73c-.713 0-1.393.578-1.518 1.29l-.148.838c-.125.712.35 1.29 1.062 1.29h1.556l.16-.906H32.3c-.238 0-.397-.192-.354-.43l.005-.029h2.357l.134-.763c.126-.712-.35-1.29-1.062-1.29zm.12 1.218l-.006.048h-1.402l.008-.043c.042-.237.259-.446.496-.446h.548c.235 0 .394.206.355.441zm8.787-1.17c-.32.851-1.054 2.3-1.765 3.37h-.94c-.327-1.019-.538-2.437-.578-3.37h.94c.017.304.154 1.434.31 2.222.426-.767.896-1.774 1.092-2.222h.94z" fill="#FF444F"/><path d="M44.92 27.815a1.818 1.818 0 00.154.628l-.526.078a1.408 1.408 0 01-.131-.343 1.79 1.79 0 01-.367.259 1.18 1.18 0 01-.581.13c-.19 0-.356-.03-.498-.088a.973.973 0 01-.359-.25 1.124 1.124 0 01-.224-.385 1.802 1.802 0 01-.095-.49c-.018-.289.013-.572.093-.848a1.959 1.959 0 011.079-1.26 2.335 2.335 0 011.292-.172l.27-1.516.622-.104-.68 3.79c-.016.1-.03.195-.041.286-.012.09-.015.185-.009.285zm-1.36.24a.855.855 0 00.457-.114c.122-.075.228-.163.317-.262a3.056 3.056 0 01.041-.486l.29-1.62a.786.786 0 00-.13-.016 3.113 3.113 0 00-.137-.004c-.246 0-.466.048-.659.143a1.442 1.442 0 00-.485.382c-.13.16-.227.345-.29.554-.063.21-.087.429-.073.658.006.1.023.194.05.285.027.09.067.172.119.243a.572.572 0 00.201.172.636.636 0 00.3.065zM47.02 28.566c-.22 0-.413-.031-.577-.094a1.228 1.228 0 01-.417-.259 1.127 1.127 0 01-.264-.385 1.442 1.442 0 01-.106-.467 2.766 2.766 0 01.082-.875c.074-.28.188-.529.343-.745.155-.216.35-.387.584-.515.234-.127.504-.191.811-.191.177 0 .33.023.461.068.13.045.238.107.323.185.084.077.15.167.194.269a.907.907 0 01.078.314c.012.203-.014.375-.079.515a.99.99 0 01-.27.353 1.242 1.242 0 01-.41.22 3.585 3.585 0 01-.498.123c-.173.03-.35.051-.528.062l-.507.03a.69.69 0 00.002.135c.006.1.024.194.053.282a.57.57 0 00.148.233c.068.067.161.12.278.16.117.038.268.057.454.057.082 0 .167-.007.255-.022.087-.015.17-.035.249-.058.078-.024.148-.048.21-.072a.452.452 0 00.128-.068l.083.512a2 2 0 01-.408.152 2.463 2.463 0 01-.672.081zm-.73-1.853c.25-.008.478-.025.684-.048.206-.024.382-.065.53-.123a.786.786 0 00.339-.237.553.553 0 00.072-.512.348.348 0 00-.085-.12.45.45 0 00-.158-.09.912.912 0 00-.66.062c-.128.064-.24.15-.338.255a1.424 1.424 0 00-.243.37c-.065.14-.112.288-.141.443zM52.42 25.041c.19 0 .353.03.488.088a.907.907 0 01.526.583c.042.132.068.271.077.418a2.27 2.27 0 01-.004.308 2.95 2.95 0 01-.041.32l-.31 1.724h-.602l.285-1.594.053-.334a1.62 1.62 0 00.02-.366 1.009 1.009 0 00-.044-.24.553.553 0 00-.11-.2.524.524 0 00-.199-.136.998.998 0 00-.705.03 1.89 1.89 0 00-.313.164l.033.178a2.024 2.024 0 01.016.473 4.509 4.509 0 01-.036.302l-.309 1.723h-.602l.284-1.594.05-.337c.019-.125.024-.25.016-.376a1.097 1.097 0 00-.04-.236.574.574 0 00-.1-.198.462.462 0 00-.173-.133.649.649 0 00-.269-.048c-.108 0-.212.006-.313.02-.1.012-.185.03-.253.051l-.511 2.851h-.603l.578-3.24c.191-.06.4-.109.63-.146.229-.036.434-.055.615-.055.182 0 .337.032.466.094a.865.865 0 01.313.25c.042-.03.099-.065.172-.104.073-.039.158-.075.253-.11.095-.034.199-.065.311-.09.113-.027.23-.04.351-.04zM55.197 28.566c-.355 0-.639-.104-.852-.314-.214-.21-.332-.498-.355-.865-.015-.25.004-.514.058-.79a2.33 2.33 0 01.294-.765c.14-.233.33-.425.567-.577.236-.15.53-.226.88-.226.354 0 .638.104.852.314.214.21.332.498.354.865.016.25-.004.514-.058.79a2.332 2.332 0 01-.293.765c-.141.233-.33.425-.567.577-.237.15-.53.226-.88.226zm.072-.511a.816.816 0 00.51-.169c.147-.112.268-.256.363-.43a2.07 2.07 0 00.207-.58c.044-.212.06-.418.047-.616-.014-.22-.072-.396-.175-.525-.103-.13-.271-.195-.504-.195a.817.817 0 00-.512.169 1.34 1.34 0 00-.362.43 2.072 2.072 0 00-.207.58 2.351 2.351 0 00-.047.616c.014.22.072.395.175.525s.271.195.505.195z" fill="#fff"/><g clip-path="url(#prefix__clip0_22407_90139)"><path d="M2 6.5A4.5 4.5 0 016.5 2h15A4.5 4.5 0 0126 6.5v15a4.5 4.5 0 01-4.5 4.5h-15A4.5 4.5 0 012 21.5v-15z" fill="#414652"/><path d="M14.75 16.25c0-.825.675-1.5 1.5-1.5h3c.825 0 1.5.675 1.5 1.5v3c0 .825-.675 1.5-1.5 1.5h-3c-.825 0-1.5-.675-1.5-1.5v-3z" fill="#EF8933"/><path d="M7.25 16.25c0-.825.675-1.5 1.5-1.5h3c.825 0 1.5.675 1.5 1.5v3c0 .825-.675 1.5-1.5 1.5h-3c-.825 0-1.5-.675-1.5-1.5v-3z" fill="#4B6FA8"/><path d="M14.75 8.75c0-.825.675-1.5 1.5-1.5h3c.825 0 1.5.675 1.5 1.5v3c0 .825-.675 1.5-1.5 1.5h-3c-.825 0-1.5-.675-1.5-1.5v-3z" fill="#76C0E3"/><path d="M7.25 8.75c0-.825.675-1.5 1.5-1.5h3c.825 0 1.5.675 1.5 1.5v3c0 .825-.675 1.5-1.5 1.5h-3c-.825 0-1.5-.675-1.5-1.5v-3z" fill="#FF444F"/><path d="M6.5 2A4.5 4.5 0 002 6.5v.13l22.436-3.54A4.482 4.482 0 0021.5 2h-15zM24.899 3.55L20.783 26h.717a4.5 4.5 0 004.5-4.5v-15c0-1.128-.415-2.16-1.101-2.95z" fill="#303541"/></g><defs><radialGradient id="prefix__paint0_radial_22407_90139" cx="0" cy="0" r="1" gradientUnits="userSpaceOnUse" gradientTransform="matrix(39.99997 -24.00002 40.00004 66.66661 22 38)"><stop stop-color="#FF6444" stop-opacity=".24"/><stop offset="1" stop-color="#FF444F" stop-opacity=".48"/></radialGradient><clipPath id="prefix__clip0_22407_90139"><path fill="#fff" transform="translate(2 2)" d="M0 0h24v24H0z"/></clipPath></defs></svg>