<svg width="64" height="40" fill="none" xmlns="http://www.w3.org/2000/svg"><rect x="22" y="14" width="40" height="24" rx="4" fill="#fff"/><rect x="22" y="14" width="40" height="24" rx="4" fill="url(#prefix__paint0_radial_22407_89979)"/><rect x="34" y="18" width="16" height="16" rx="8" fill="#283991"/><path d="M42.181 19.987l-.195-.6-.195.6h-.632l.511.371-.195.6.51-.37.512.37-.195-.6.51-.37h-.63zM42.181 31.324l-.195-.6-.195.6h-.632l.511.371-.195.6.51-.37.512.37-.195-.6.51-.371h-.63zM45.097 20.392l.195.6h.632l-.511.371.195.601-.51-.371-.512.371.195-.6-.51-.372h.631l.195-.6zM47.415 23.086l-.195-.6-.195.6h-.632l.511.372-.195.6.511-.371.51.371-.194-.6.51-.372h-.631zM47.27 27.777l.195.6h.632l-.51.372.194.6-.51-.37-.511.37.195-.6-.511-.371h.631l.195-.6zM37.024 23.086l-.195-.6-.195.6h-.632l.511.372-.195.6.51-.371.511.371-.195-.6.511-.372h-.631zM47.712 25.01l.195.6h.632l-.511.37.195.602-.511-.371-.511.37.195-.6-.51-.371h.63l.196-.6zM36.541 25.61l-.195-.6-.195.6h-.632l.512.37-.196.602.511-.371.511.37-.195-.6.51-.371h-.63zM36.76 27.777l.195.6h.632l-.511.372.195.6-.51-.37-.512.37.195-.6-.51-.371h.631l.195-.6zM45.384 30.561l-.195-.6-.195.6h-.632l.511.372-.195.6.51-.37.512.37-.196-.6.511-.372h-.631zM38.975 20.392l.195.6h.632l-.51.371.194.601-.51-.371-.511.371.195-.6-.511-.372h.631l.195-.6zM38.94 30.523l-.195-.6-.195.6h-.632l.511.371-.195.6.511-.37.51.37-.194-.6.51-.37h-.63z" fill="#F8D12E"/><g clip-path="url(#prefix__clip0_22407_89979)"><path d="M2 6.5A4.5 4.5 0 016.5 2h15A4.5 4.5 0 0126 6.5v15a4.5 4.5 0 01-4.5 4.5h-15A4.5 4.5 0 012 21.5v-15z" fill="#414652"/><path d="M14.75 16.25c0-.825.675-1.5 1.5-1.5h3c.825 0 1.5.675 1.5 1.5v3c0 .825-.675 1.5-1.5 1.5h-3c-.825 0-1.5-.675-1.5-1.5v-3z" fill="#EF8933"/><path d="M7.25 16.25c0-.825.675-1.5 1.5-1.5h3c.825 0 1.5.675 1.5 1.5v3c0 .825-.675 1.5-1.5 1.5h-3c-.825 0-1.5-.675-1.5-1.5v-3z" fill="#4B6FA8"/><path d="M14.75 8.75c0-.825.675-1.5 1.5-1.5h3c.825 0 1.5.675 1.5 1.5v3c0 .825-.675 1.5-1.5 1.5h-3c-.825 0-1.5-.675-1.5-1.5v-3z" fill="#76C0E3"/><path d="M7.25 8.75c0-.825.675-1.5 1.5-1.5h3c.825 0 1.5.675 1.5 1.5v3c0 .825-.675 1.5-1.5 1.5h-3c-.825 0-1.5-.675-1.5-1.5v-3z" fill="#FF444F"/><path d="M6.5 2A4.5 4.5 0 002 6.5v.13l22.436-3.54A4.482 4.482 0 0021.5 2h-15zM24.899 3.55L20.783 26h.717a4.5 4.5 0 004.5-4.5v-15c0-1.128-.415-2.16-1.101-2.95z" fill="#303541"/></g><defs><radialGradient id="prefix__paint0_radial_22407_89979" cx="0" cy="0" r="1" gradientUnits="userSpaceOnUse" gradientTransform="matrix(40.00001 -23.99995 444.20513 740.34354 22 38)"><stop stop-color="#283991" stop-opacity=".24"/><stop offset="1" stop-color="#F8D12E" stop-opacity=".48"/></radialGradient><clipPath id="prefix__clip0_22407_89979"><path fill="#fff" transform="translate(2 2)" d="M0 0h24v24H0z"/></clipPath></defs></svg>