<svg width="64" height="40" fill="none" xmlns="http://www.w3.org/2000/svg"><rect x="22" y="14" width="40" height="24" rx="4" fill="#fff"/><rect x="22" y="14" width="40" height="24" rx="4" fill="url(#prefix__paint0_radial_22407_89947)"/><rect x="34" y="18" width="16" height="16" rx="8" fill="#fff"/><path fill-rule="evenodd" clip-rule="evenodd" d="M41.662 18a7.96 7.96 0 00-4.149 1.452h9.232A7.961 7.961 0 0042.597 18H41.66zm-5.713 2.903A7.983 7.983 0 0035 22.354H49.26a7.988 7.988 0 00-.95-1.451H35.95zm-1.916 4.369c.044-.498.134-.983.265-1.451h15.393c.132.467.222.952.265 1.45H34.033zm.003 1.452c.047.498.14.983.274 1.451h15.37a7.91 7.91 0 00.273-1.451H34.036zm1.812 4.354a7.982 7.982 0 01-.962-1.451H49.103a8 8 0 01-.962 1.451H35.85zm5.809 2.894l.024.001.024.001a7.875 7.875 0 004.848-1.444h-9.117a7.875 7.875 0 004.22 1.442z" fill="#F44336"/><path d="M41.83 18.004a7.992 7.992 0 00-7.796 7.27h7.796v-7.27z" fill="#283991"/><path d="M35.6 22.52l.122.374h.395l-.32.232.122.374-.319-.232-.319.232.122-.375-.32-.23h.395l.122-.375zM35.6 23.842l.122.375h.395l-.32.23.122.375-.319-.231-.319.231.122-.374-.32-.232h.395l.122-.374zM36.925 20.536l.122.374h.395l-.32.232.122.374-.319-.231-.319.231.122-.374-.32-.232h.395l.122-.374zM36.925 21.858l.122.375h.395l-.32.231.122.375-.319-.232-.319.232.122-.375-.32-.231h.395l.122-.375zM36.925 23.18l.122.375h.395l-.32.232.122.374-.319-.232-.319.232.122-.374-.32-.232h.395l.122-.374zM34.594 24.161l-.122-.374.32-.232h-.395l-.009-.027a7.627 7.627 0 00-.118.406l.005-.005.32.232zM35.281 22.178l.32-.232.318.232-.122-.375.32-.231h-.395l-.122-.375-.122.375h-.145l-.08.123.15.108-.122.375zM36.925 19.963l.32.23-.122-.373.318-.232h-.227c-.194.145-.38.297-.56.459l-.048.147.32-.231zM37.931 19.533l.32-.232.318.232-.121-.375.319-.23h-.395l-.016-.051c-.134.068-.266.139-.396.214l.093.067-.122.375zM38.25 19.875l.122.374h.395l-.32.232.122.374-.319-.231-.319.231.122-.374-.32-.232h.396l.121-.374zM38.25 21.198l.122.374h.395l-.32.231.122.375-.319-.232-.319.232.122-.375-.32-.231h.396l.121-.374zM38.25 22.52l.122.374h.395l-.32.232.122.374-.319-.232-.319.232.122-.375-.32-.23h.396l.121-.375zM38.25 23.842l.122.375h.395l-.32.23.122.375-.319-.231-.319.231.122-.374-.32-.232h.396l.121-.374zM39.576 19.214l.121.374h.395l-.32.232.123.374-.32-.231-.319.23.122-.373-.319-.232h.395l.122-.374zM39.576 20.536l.121.374h.395l-.32.232.123.374-.32-.231-.319.231.122-.374-.319-.232h.395l.122-.374zM39.576 21.858l.121.375h.395l-.32.231.123.375-.32-.232-.319.232.122-.375-.319-.231h.395l.122-.375zM39.576 23.18l.121.375h.395l-.32.232.123.374-.32-.232-.319.232.122-.374-.319-.232h.395l.122-.374zM40.9 18.553l.123.374h.394l-.32.231.123.375-.32-.232-.319.232.122-.375-.319-.23h.395l.122-.375zM40.9 19.875l.123.374h.394l-.32.232.123.374-.32-.231-.319.231.122-.374-.319-.232h.395l.122-.374zM40.9 21.198l.123.374h.394l-.32.231.123.375-.32-.232-.319.232.122-.375-.319-.231h.395l.122-.374zM40.9 22.52l.123.374h.394l-.32.232.123.374-.32-.232-.319.232.122-.375-.319-.23h.395l.122-.375zM40.9 23.842l.123.375h.394l-.32.23.123.375-.32-.231-.319.231.122-.374-.319-.232h.395l.122-.374z" fill="#EFEFEF"/><g clip-path="url(#prefix__clip0_22407_89947)"><path d="M2 6.5A4.5 4.5 0 016.5 2h15A4.5 4.5 0 0126 6.5v15a4.5 4.5 0 01-4.5 4.5h-15A4.5 4.5 0 012 21.5v-15z" fill="#414652"/><path d="M14.75 16.25c0-.825.675-1.5 1.5-1.5h3c.825 0 1.5.675 1.5 1.5v3c0 .825-.675 1.5-1.5 1.5h-3c-.825 0-1.5-.675-1.5-1.5v-3z" fill="#EF8933"/><path d="M7.25 16.25c0-.825.675-1.5 1.5-1.5h3c.825 0 1.5.675 1.5 1.5v3c0 .825-.675 1.5-1.5 1.5h-3c-.825 0-1.5-.675-1.5-1.5v-3z" fill="#4B6FA8"/><path d="M14.75 8.75c0-.825.675-1.5 1.5-1.5h3c.825 0 1.5.675 1.5 1.5v3c0 .825-.675 1.5-1.5 1.5h-3c-.825 0-1.5-.675-1.5-1.5v-3z" fill="#76C0E3"/><path d="M7.25 8.75c0-.825.675-1.5 1.5-1.5h3c.825 0 1.5.675 1.5 1.5v3c0 .825-.675 1.5-1.5 1.5h-3c-.825 0-1.5-.675-1.5-1.5v-3z" fill="#FF444F"/><path d="M6.5 2A4.5 4.5 0 002 6.5v.13l22.436-3.54A4.482 4.482 0 0021.5 2h-15zM24.899 3.55L20.783 26h.717a4.5 4.5 0 004.5-4.5v-15c0-1.128-.415-2.16-1.101-2.95z" fill="#303541"/></g><defs><radialGradient id="prefix__paint0_radial_22407_89947" cx="0" cy="0" r="1" gradientUnits="userSpaceOnUse" gradientTransform="matrix(40.00001 -23.99995 444.20513 740.34354 22 38)"><stop stop-color="#F44336" stop-opacity=".24"/><stop offset="1" stop-color="#283991" stop-opacity=".48"/></radialGradient><clipPath id="prefix__clip0_22407_89947"><path fill="#fff" transform="translate(2 2)" d="M0 0h24v24H0z"/></clipPath></defs></svg>