<svg width="40" height="24" fill="none" xmlns="http://www.w3.org/2000/svg"><g clip-path="url(#prefix__clip0_22279_692)"><rect width="40" height="24" rx="4" fill="#F7931B"/><g clip-path="url(#prefix__clip1_22279_692)"><path fill="#fff" d="M0 0h40v24H0z"/><g filter="url(#prefix__filter0_f_22279_692)"><circle cx="4" cy="12" r="12" fill="#F7931B"/></g><g filter="url(#prefix__filter1_f_22279_692)"><circle cx="40" cy="12" r="16" fill="#F7C71B"/></g></g><path d="M25.706 11.097a1.78 1.78 0 01.81.177l-.285.662a2.776 2.776 0 00-.232-.083.996.996 0 00-.293-.037.812.812 0 00-.656.29c-.162.194-.243.455-.243.782 0 .194.04.35.123.47.082.12.233.18.452.18a1.431 1.431 0 00.581-.12l.062.678a2.95 2.95 0 01-.346.112 1.898 1.898 0 01-.453.048c-.231 0-.427-.034-.586-.102a1.049 1.049 0 01-.623-.685 1.706 1.706 0 01-.07-.49c0-.258.04-.502.123-.73.081-.228.199-.428.352-.6.152-.17.337-.304.555-.403.218-.1.46-.149.729-.149zm-6.785-1.345l-.346 1.47a1.34 1.34 0 01.223-.079.957.957 0 01.24-.029c.179 0 .334.033.463.097.131.065.239.152.325.263.085.11.149.24.19.387.04.149.06.308.06.48 0 .262-.046.51-.141.743a1.931 1.931 0 01-.389.61c-.164.174-.357.31-.58.41-.223.101-.466.152-.726.152l-.176-.003a3.153 3.153 0 01-.63-.094 1.691 1.691 0 01-.345-.125l.966-4.145.866-.137zm9.189 1.345c.193 0 .364.031.51.092a.96.96 0 01.364.256c.094.11.166.24.214.391.05.15.073.316.073.499 0 .227-.035.455-.106.684-.07.227-.175.433-.313.616-.137.182-.31.331-.516.447a1.444 1.444 0 01-.718.174 1.33 1.33 0 01-.514-.091.95.95 0 01-.36-.257 1.111 1.111 0 01-.215-.39 1.597 1.597 0 01-.072-.499c0-.228.036-.457.108-.684.073-.229.18-.434.322-.616.14-.182.315-.332.52-.448.203-.115.439-.174.703-.174zm-4.842-.803l-.212.883h.927l-.168.696h-.921l-.245 1.049c-.023.087-.036.169-.04.245a.457.457 0 00.028.197.247.247 0 00.12.128.54.54 0 00.248.046c.09 0 .177-.009.26-.026.084-.017.169-.04.254-.071l.062.65a2.974 2.974 0 01-.363.108c-.13.03-.285.045-.464.045-.256 0-.455-.039-.598-.116a.671.671 0 01-.301-.32 1.029 1.029 0 01-.078-.464c.008-.175.033-.36.078-.553l.548-2.36.865-.137zm-1.59.883l-.704 3h-.826l.698-3h.832zm9.198 0l-.704 3h-.827l.698-3h.833zm1.778-.068c.436 0 .737.13.903.387.165.259.194.613.087 1.06l-.38 1.62h-.833l.369-1.585c.022-.1.04-.195.053-.288a.694.694 0 00-.003-.245.293.293 0 00-.103-.171c-.054-.044-.137-.066-.249-.066-.108 0-.217.012-.329.035l-.542 2.32h-.832l.676-2.862.209-.066a2.947 2.947 0 01.575-.12c.118-.013.251-.02.4-.02zm-13.823.712c-.052 0-.12.01-.203.029a.5.5 0 00-.226.12l-.369 1.561.059.012a.502.502 0 00.12.012h.1c.13 0 .253-.033.369-.097a.974.974 0 00.299-.26 1.319 1.319 0 00.27-.795.86.86 0 00-.089-.428c-.06-.102-.17-.154-.33-.154zm9.2-.005a.514.514 0 00-.323.108.924.924 0 00-.234.274c-.064.11-.111.23-.144.362a1.615 1.615 0 00-.046.373c0 .19.03.339.089.445.06.106.167.16.323.16a.51.51 0 00.325-.109.933.933 0 00.234-.274c.063-.11.11-.23.143-.362.031-.13.047-.255.047-.373 0-.19-.03-.338-.09-.445-.06-.106-.167-.16-.323-.16zM21.5 9.809c.115 0 .22.035.312.105.093.07.14.178.14.322a.594.594 0 01-.355.53.534.534 0 01-.533-.06c-.093-.07-.14-.177-.14-.322a.54.54 0 01.048-.225.597.597 0 01.307-.305.539.539 0 01.22-.045zm9.197 0c.115 0 .22.035.313.105.093.07.14.178.14.322a.593.593 0 01-.355.53.536.536 0 01-.534-.06c-.093-.07-.14-.177-.14-.322a.591.591 0 01.355-.53.538.538 0 01.22-.045z" fill="#4D4D4D"/><circle cx="11" cy="12" r="4.5" fill="#F7931B"/><path fill-rule="evenodd" clip-rule="evenodd" d="M10.6 9.881l.2-.812.483.123-.194.796c.13.03.26.062.388.094l.193-.791.484.123-.198.812c.61.215 1.058.537.97 1.137-.064.438-.302.65-.618.725.434.231.655.585.445 1.2-.262.76-.883.825-1.708.665l-.2.82-.484-.123.197-.808a22.148 22.148 0 01-.386-.103l-.198.813-.484-.123.201-.822c-.325-.084-.65-.168-.975-.25l.24-.566s.357.096.352.09c.137.034.198-.058.222-.119l.543-2.223c.006-.105-.03-.238-.225-.288a5.92 5.92 0 00-.352-.089l.129-.528c.325.083.649.171.976.247zm.112 2.203l-.116-.027-.266 1.087.094.025c.395.107 1.259.34 1.396-.223.14-.576-.7-.769-1.108-.862zm.346-1.489a4.434 4.434 0 01-.1-.023l-.24.987.08.021c.33.09 1.046.285 1.172-.226.127-.525-.572-.682-.912-.759z" fill="#fff"/></g><defs><clipPath id="prefix__clip0_22279_692"><rect width="40" height="24" rx="4" fill="#fff"/></clipPath><clipPath id="prefix__clip1_22279_692"><path fill="#fff" d="M0 0h40v24H0z"/></clipPath><filter id="prefix__filter0_f_22279_692" x="-40" y="-32" width="88" height="88" filterUnits="userSpaceOnUse" color-interpolation-filters="sRGB"><feFlood flood-opacity="0" result="BackgroundImageFix"/><feBlend in="SourceGraphic" in2="BackgroundImageFix" result="shape"/><feGaussianBlur stdDeviation="16" result="effect1_foregroundBlur_22279_692"/></filter><filter id="prefix__filter1_f_22279_692" x="-8" y="-36" width="96" height="96" filterUnits="userSpaceOnUse" color-interpolation-filters="sRGB"><feFlood flood-opacity="0" result="BackgroundImageFix"/><feBlend in="SourceGraphic" in2="BackgroundImageFix" result="shape"/><feGaussianBlur stdDeviation="16" result="effect1_foregroundBlur_22279_692"/></filter></defs></svg>