<svg width="40" height="24" fill="none" xmlns="http://www.w3.org/2000/svg"><g clip-path="url(#prefix__clip0_593_61503)"><rect width="40" height="24" rx="4" fill="#52567F"/><g clip-path="url(#prefix__clip1_593_61503)"><path fill="#fff" d="M0 0h40v24H0z"/><g filter="url(#prefix__filter0_f_593_61503)"><circle cx="4" cy="12" r="12" fill="#52567F"/></g><g filter="url(#prefix__filter1_f_593_61503)"><circle cx="40" cy="12" r="16" fill="#828CAD"/></g></g><path d="M5.5 11.874l2.306 1.364V8.047L5.5 11.874z" fill="#828CAD"/><path d="M7.806 8.047v5.191l2.308-1.364-2.308-3.827z" fill="#63688E"/><path d="M5.5 12.313l2.306 3.25v-1.889L5.5 12.314z" fill="#8A93B3"/><path d="M7.806 13.674v1.89l2.308-3.25-2.308 1.36z" fill="#63688E"/><path opacity=".6" d="M7.806 10.827L5.5 11.874l2.306 1.364v-2.411z" fill="#63688E"/><path opacity=".6" d="M7.806 10.827v2.411l2.308-1.364-2.308-1.047z" fill="#474A75"/><path d="M17.375 9.438c.104 0 .188.083.188.187v1.815a1.063 1.063 0 011.75.81v1.125a.187.187 0 11-.375 0V12.25a.687.687 0 10-1.375 0v1.125a.187.187 0 11-.375 0v-3.75c0-.104.083-.188.187-.188zM31.75 11.188c-.262 0-.502.095-.688.252v-.065a.187.187 0 10-.375 0v2a.188.188 0 00.375 0V12.25a.687.687 0 111.375 0v1.125a.188.188 0 00.376 0V12.25a.687.687 0 111.374 0v1.125a.188.188 0 00.376 0V12.25a1.063 1.063 0 00-1.938-.603 1.061 1.061 0 00-.875-.46zM28.188 11.375a.187.187 0 10-.375 0V12.5a1.063 1.063 0 001.75.81v.065a.188.188 0 00.375 0v-2a.187.187 0 10-.375 0V12.5a.687.687 0 11-1.375 0v-1.125zM23.188 11.375v2a.188.188 0 00.375 0v-1.231l.001-.008a.901.901 0 01.123-.282.633.633 0 01.563-.292.187.187 0 100-.374c-.305 0-.528.105-.688.244v-.057a.187.187 0 10-.375 0zM15.813 10.625a.187.187 0 10-.376 0v.563H15a.187.187 0 100 .374h.438v1.813a.187.187 0 10.374 0v-1.813h.438a.187.187 0 100-.374h-.438v-.563z" fill="#63688E"/><path fill-rule="evenodd" clip-rule="evenodd" d="M13.063 11.203a1.188 1.188 0 10.767 1.878.188.188 0 00-.302-.223.812.812 0 01-1.444-.296h1.791a.187.187 0 00.188-.187 1.188 1.188 0 00-1-1.172zm.603.985h-1.582a.813.813 0 011.581 0zM20.758 11.36a1.188 1.188 0 011.805 1.015v.188h-1.979a.812.812 0 001.444.295.188.188 0 01.302.223 1.187 1.187 0 11-1.572-1.72zm-.174.828h1.582a.813.813 0 00-1.582 0zM26.313 11.203a1.188 1.188 0 10.767 1.878.188.188 0 00-.302-.223.812.812 0 01-1.444-.296h1.979v-.187a1.188 1.188 0 00-1-1.172zm.603.985h-1.582a.813.813 0 011.581 0z" fill="#63688E"/></g><defs><clipPath id="prefix__clip0_593_61503"><rect width="40" height="24" rx="4" fill="#fff"/></clipPath><clipPath id="prefix__clip1_593_61503"><path fill="#fff" d="M0 0h40v24H0z"/></clipPath><filter id="prefix__filter0_f_593_61503" x="-40" y="-32" width="88" height="88" filterUnits="userSpaceOnUse" color-interpolation-filters="sRGB"><feFlood flood-opacity="0" result="BackgroundImageFix"/><feBlend in="SourceGraphic" in2="BackgroundImageFix" result="shape"/><feGaussianBlur stdDeviation="16" result="effect1_foregroundBlur_593_61503"/></filter><filter id="prefix__filter1_f_593_61503" x="-8" y="-36" width="96" height="96" filterUnits="userSpaceOnUse" color-interpolation-filters="sRGB"><feFlood flood-opacity="0" result="BackgroundImageFix"/><feBlend in="SourceGraphic" in2="BackgroundImageFix" result="shape"/><feGaussianBlur stdDeviation="16" result="effect1_foregroundBlur_593_61503"/></filter></defs></svg>