<svg width="64" height="40" fill="none" xmlns="http://www.w3.org/2000/svg"><rect x="22" y="14" width="40" height="24" rx="4" fill="#fff"/><rect x="22" y="14" width="40" height="24" rx="4" fill="url(#prefix__paint0_radial_22407_90219)"/><path d="M33.019 22.5a3.52 3.52 0 100 7.04 3.52 3.52 0 000-7.04zm.057 3.635l-.367 1.236h1.959a.1.1 0 01.08.04.1.1 0 01.016.088l-.17.587a.134.134 0 01-.13.097h-2.99l.505-1.708-.56.17.124-.399.56-.17.71-2.4a.133.133 0 01.129-.097h.758a.1.1 0 01.097.127l-.596 2.03.559-.171-.12.406-.564.164z" fill="#A5A8A9"/><path d="M39.709 23.54a.268.268 0 11.053.533.268.268 0 01-.053-.533zM38.355 23.569h.22c.042 0 .067.019.06.068l-.57 4.482a.065.065 0 01-.076.066h-.218c-.045 0-.06-.023-.054-.066l.563-4.484c0-.009.003-.018.007-.026a.069.069 0 01.04-.036.07.07 0 01.028-.004zM39.5 24.861h.217c.047 0 .062.023.06.068l-.4 3.19a.068.068 0 01-.08.066h-.218c-.04 0-.066-.022-.061-.066l.407-3.192a.068.068 0 01.075-.066z" fill="#4D4D4E"/><path fill-rule="evenodd" clip-rule="evenodd" d="M49.282 24.809a1.24 1.24 0 00-1.232.942c-.061.254-.106.512-.136.771a6.863 6.863 0 00-.061.772.937.937 0 00.272.68c.177.171.42.256.727.256a1.24 1.24 0 00.783-.255c.22-.17.377-.41.443-.681.061-.254.106-.512.135-.772.035-.258.055-.517.06-.778a.895.895 0 00-.268-.68 1.006 1.006 0 00-.723-.255zm.615 1.403c-.02.163-.033.267-.037.31-.041.33-.078.566-.11.706a.895.895 0 01-.312.511.856.856 0 01-.551.19.646.646 0 01-.688-.68c.003-.137.013-.274.031-.41l.038-.309c.04-.316.077-.552.109-.705a.899.899 0 01.312-.51.86.86 0 01.552-.191.645.645 0 01.687.68 3.373 3.373 0 01-.03.409z" fill="#4D4D4E"/><path d="M51.304 24.861h.218c.042 0 .06.023.054.066l-.401 3.192a.07.07 0 01-.047.063.069.069 0 01-.028.003h-.218c-.04 0-.067-.02-.061-.066l.409-3.192a.07.07 0 01.074-.066zM54.275 25.05c-.15-.157-.36-.235-.633-.235a1.164 1.164 0 00-.49.103.994.994 0 00-.38.306c-.019.017-.028.013-.028-.014l.034-.283c.005-.04-.013-.066-.054-.066h-.217a.07.07 0 00-.069.04.068.068 0 00-.006.026l-.401 3.192c-.005.042.009.066.054.066h.218a.07.07 0 00.075-.066l.292-2.287a.931.931 0 01.3-.51.8.8 0 01.538-.197.601.601 0 01.461.185c.12.135.18.31.17.49.001.05 0 .098-.006.146l-.279 2.173a.052.052 0 00.01.047.064.064 0 00.052.02h.217a.069.069 0 00.075-.067l.279-2.227c.01-.086.013-.155.013-.198a.89.89 0 00-.225-.645zM51.677 23.57a.269.269 0 10-.249.477.269.269 0 00.25-.476zM45.648 25.07c.225-.176.504-.268.79-.261.264-.016.525.075.724.25a.894.894 0 01.269.682v.077l-.003.015a.039.039 0 01-.037.024h-.256a.051.051 0 01-.036-.015.052.052 0 01-.014-.037V25.8a.645.645 0 00-.688-.68.86.86 0 00-.55.19.895.895 0 00-.31.514c-.032.153-.068.39-.109.705l-.037.31a3.384 3.384 0 00-.03.409.644.644 0 00.686.68c.2.004.396-.064.551-.19.16-.13.27-.31.313-.51v-.014a.042.042 0 01.042-.031h.268a.03.03 0 01.03.038l-.018.072c-.064.27-.22.511-.442.68-.224.172-.5.263-.782.256-.308 0-.55-.085-.728-.255a.93.93 0 01-.272-.681c.006-.258.027-.516.06-.771a7.12 7.12 0 01.137-.772c.066-.27.222-.51.442-.68z" fill="#4D4D4E"/><path fill-rule="evenodd" clip-rule="evenodd" d="M44.24 25.066a1.006 1.006 0 00-.724-.256 1.24 1.24 0 00-1.232.943c-.06.254-.105.512-.135.771-.04.255-.06.513-.061.771a.937.937 0 00.271.681c.177.17.42.256.728.256a1.24 1.24 0 00.782-.255c.222-.17.378-.41.443-.682a2.57 2.57 0 00.018-.072.031.031 0 00-.006-.026.03.03 0 00-.024-.011h-.27a.042.042 0 00-.042.031v.013a.895.895 0 01-.313.51.856.856 0 01-.553.186.647.647 0 01-.687-.68c.002-.12.01-.24.025-.357l1.965-.61a.08.08 0 00.064-.078c.011-.103.019-.275.02-.453a.936.936 0 00-.268-.682zm-.077.918a.045.045 0 01-.032.042l-1.63.503v-.007c.041-.316.078-.551.11-.704a.9.9 0 01.312-.511.861.861 0 01.551-.191.672.672 0 01.5.194c.2.197.201.407.19.674z" fill="#4D4D4E"/><path d="M41.372 27.825c-.01 0-.02.002-.028.007-.14.065-.406.128-.547.01-.101-.099-.08-.274-.057-.47a1.78 1.78 0 00.003-.025l.239-1.918h.68a.085.085 0 00.055-.015.072.072 0 00.02-.051l.02-.152c.002-.041-.016-.065-.055-.065h-.681l.13-1.056c.005-.037-.005-.066-.055-.066h-.21a.067.067 0 00-.052.017.07.07 0 00-.023.05l-.096.744-.04.336-.288 2.338c-.036.307.028.553.277.668.22.08.463.077.681-.01a.08.08 0 00.05-.064l.028-.22a.053.053 0 00-.051-.058z" fill="#4D4D4E"/><g clip-path="url(#prefix__clip0_22407_90219)"><path d="M2 6.5A4.5 4.5 0 016.5 2h15A4.5 4.5 0 0126 6.5v15a4.5 4.5 0 01-4.5 4.5h-15A4.5 4.5 0 012 21.5v-15z" fill="#414652"/><path d="M14.75 16.25c0-.825.675-1.5 1.5-1.5h3c.825 0 1.5.675 1.5 1.5v3c0 .825-.675 1.5-1.5 1.5h-3c-.825 0-1.5-.675-1.5-1.5v-3z" fill="#EF8933"/><path d="M7.25 16.25c0-.825.675-1.5 1.5-1.5h3c.825 0 1.5.675 1.5 1.5v3c0 .825-.675 1.5-1.5 1.5h-3c-.825 0-1.5-.675-1.5-1.5v-3z" fill="#4B6FA8"/><path d="M14.75 8.75c0-.825.675-1.5 1.5-1.5h3c.825 0 1.5.675 1.5 1.5v3c0 .825-.675 1.5-1.5 1.5h-3c-.825 0-1.5-.675-1.5-1.5v-3z" fill="#76C0E3"/><path d="M7.25 8.75c0-.825.675-1.5 1.5-1.5h3c.825 0 1.5.675 1.5 1.5v3c0 .825-.675 1.5-1.5 1.5h-3c-.825 0-1.5-.675-1.5-1.5v-3z" fill="#FF444F"/><path d="M6.5 2A4.5 4.5 0 002 6.5v.13l22.436-3.54A4.482 4.482 0 0021.5 2h-15zM24.899 3.55L20.783 26h.717a4.5 4.5 0 004.5-4.5v-15c0-1.128-.415-2.16-1.101-2.95z" fill="#303541"/></g><defs><radialGradient id="prefix__paint0_radial_22407_90219" cx="0" cy="0" r="1" gradientUnits="userSpaceOnUse" gradientTransform="matrix(39.99997 -24.00002 40.00004 66.66661 22 38)"><stop stop-color="#A5A8A9" stop-opacity=".24"/><stop offset="1" stop-color="#C1CCCF" stop-opacity=".48"/></radialGradient><clipPath id="prefix__clip0_22407_90219"><path fill="#fff" transform="translate(2 2)" d="M0 0h24v24H0z"/></clipPath></defs></svg>