<svg width="64" height="40" fill="none" xmlns="http://www.w3.org/2000/svg"><rect x="22" y="14" width="40" height="24" rx="4" fill="#fff"/><rect x="22" y="14" width="40" height="24" rx="4" fill="url(#prefix__paint0_radial_22407_89963)"/><rect x="34" y="18" width="16" height="16" rx="8" fill="#fff"/><path fill-rule="evenodd" clip-rule="evenodd" d="M44.087 18.275a7.971 7.971 0 012.783 1.379l-2.783 2.783v-4.162zm-9.812 5.638a7.971 7.971 0 011.379-2.784l2.783 2.784h-4.162zm14.071-2.784a7.97 7.97 0 011.378 2.784h-4.162l2.784-2.784zm-14.07 6.958a7.972 7.972 0 001.377 2.783l2.784-2.783h-4.162zm2.853 4.259a7.97 7.97 0 002.784 1.378v-4.161l-2.784 2.783zm0-12.692a7.972 7.972 0 012.784-1.379v4.162l-2.784-2.784zm6.958 14.07a7.972 7.972 0 002.783-1.378l-2.783-2.783v4.161zm4.259-2.854l-2.784-2.783h4.162a7.97 7.97 0 01-1.378 2.783z" fill="#283991"/><path fill-rule="evenodd" clip-rule="evenodd" d="M49.932 24.956h-6.889v-6.888a8.092 8.092 0 00-2.087 0v6.888h-6.888a8.092 8.092 0 000 2.088h6.889v6.888a8.074 8.074 0 002.087 0v-6.889h6.888a8.074 8.074 0 000-2.087zm-5.845 3.131l3.57 3.57c.164-.164.32-.336.47-.514l-3.056-3.056h-.984zm-4.174 0v.984l-3.056 3.056a8.046 8.046 0 01-.514-.47l3.57-3.57zm.002-4.174l-3.57-3.57a8.02 8.02 0 00-.47.514l3.056 3.056h.984zm7.742-3.57l-3.57 3.57v-.984l3.056-3.056c.178.15.35.306.514.47z" fill="#F44336"/><g clip-path="url(#prefix__clip0_22407_89963)"><path d="M2 6.5A4.5 4.5 0 016.5 2h15A4.5 4.5 0 0126 6.5v15a4.5 4.5 0 01-4.5 4.5h-15A4.5 4.5 0 012 21.5v-15z" fill="#414652"/><path d="M14.75 16.25c0-.825.675-1.5 1.5-1.5h3c.825 0 1.5.675 1.5 1.5v3c0 .825-.675 1.5-1.5 1.5h-3c-.825 0-1.5-.675-1.5-1.5v-3z" fill="#EF8933"/><path d="M7.25 16.25c0-.825.675-1.5 1.5-1.5h3c.825 0 1.5.675 1.5 1.5v3c0 .825-.675 1.5-1.5 1.5h-3c-.825 0-1.5-.675-1.5-1.5v-3z" fill="#4B6FA8"/><path d="M14.75 8.75c0-.825.675-1.5 1.5-1.5h3c.825 0 1.5.675 1.5 1.5v3c0 .825-.675 1.5-1.5 1.5h-3c-.825 0-1.5-.675-1.5-1.5v-3z" fill="#76C0E3"/><path d="M7.25 8.75c0-.825.675-1.5 1.5-1.5h3c.825 0 1.5.675 1.5 1.5v3c0 .825-.675 1.5-1.5 1.5h-3c-.825 0-1.5-.675-1.5-1.5v-3z" fill="#FF444F"/><path d="M6.5 2A4.5 4.5 0 002 6.5v.13l22.436-3.54A4.482 4.482 0 0021.5 2h-15zM24.899 3.55L20.783 26h.717a4.5 4.5 0 004.5-4.5v-15c0-1.128-.415-2.16-1.101-2.95z" fill="#303541"/></g><defs><radialGradient id="prefix__paint0_radial_22407_89963" cx="0" cy="0" r="1" gradientUnits="userSpaceOnUse" gradientTransform="matrix(40.00001 -23.99995 444.20513 740.34354 22 38)"><stop stop-color="#283991" stop-opacity=".24"/><stop offset="0" stop-color="#283991" stop-opacity=".24"/><stop offset="1" stop-color="#F44336" stop-opacity=".48"/></radialGradient><clipPath id="prefix__clip0_22407_89963"><path fill="#fff" transform="translate(2 2)" d="M0 0h24v24H0z"/></clipPath></defs></svg>