<svg width="40" height="24" fill="none" xmlns="http://www.w3.org/2000/svg"><g clip-path="url(#prefix__clip0_22279_307)"><rect width="40" height="24" rx="4" fill="#A5A8A9"/><g clip-path="url(#prefix__clip1_22279_307)"><path fill="#fff" d="M0 0h40v24H0z"/><g filter="url(#prefix__filter0_f_22279_307)"><circle cx="4" cy="12" r="12" fill="#A5A8A9"/></g><g filter="url(#prefix__filter1_f_22279_307)"><circle cx="40" cy="12" r="16" fill="#C1CCCF"/></g></g><path d="M11.019 8.5a3.52 3.52 0 100 7.039 3.52 3.52 0 000-7.039zm.057 3.635l-.366 1.236h1.958a.1.1 0 01.096.128l-.17.587a.134.134 0 01-.13.097h-2.99l.505-1.708-.56.17.124-.399.56-.17.71-2.4a.134.134 0 01.129-.097h.758a.1.1 0 01.097.127l-.596 2.03.56-.171-.12.406-.565.164z" fill="#A5A8A9"/><path d="M17.708 9.54a.269.269 0 11.053.534.269.269 0 01-.053-.534zM16.354 9.569h.22c.042 0 .068.018.061.068l-.571 4.482a.067.067 0 01-.023.05.065.065 0 01-.052.016h-.218c-.045 0-.06-.023-.055-.066l.564-4.484a.07.07 0 01.047-.063.07.07 0 01.027-.003zM17.5 10.86h.216c.048 0 .062.024.06.068l-.4 3.191a.067.067 0 01-.025.05.067.067 0 01-.054.015h-.218c-.041 0-.067-.022-.062-.065l.407-3.193a.068.068 0 01.075-.065z" fill="#4D4D4E"/><path fill-rule="evenodd" clip-rule="evenodd" d="M27.281 10.808a1.24 1.24 0 00-1.232.943c-.06.254-.105.511-.135.77a6.842 6.842 0 00-.061.772.937.937 0 00.271.681c.177.17.42.256.728.256a1.24 1.24 0 00.782-.256c.221-.17.378-.41.443-.68.062-.255.107-.512.136-.772.034-.258.054-.518.06-.778a.897.897 0 00-.268-.681 1.006 1.006 0 00-.724-.255zm.616 1.404l-.038.31c-.04.33-.077.565-.109.706a.895.895 0 01-.312.51.856.856 0 01-.552.191.646.646 0 01-.687-.68c.002-.138.012-.274.03-.41.021-.162.034-.265.038-.31.041-.315.078-.551.11-.704a.9.9 0 01.312-.511.86.86 0 01.551-.19.645.645 0 01.687.68 3.393 3.393 0 01-.03.408z" fill="#4D4D4E"/><path d="M29.304 10.86h.217c.043 0 .06.024.055.066l-.401 3.193a.07.07 0 01-.048.062.07.07 0 01-.027.004h-.218c-.041 0-.068-.02-.062-.066l.41-3.193a.07.07 0 01.074-.065zM32.274 11.049c-.15-.157-.36-.234-.632-.234a1.164 1.164 0 00-.49.102.996.996 0 00-.381.307c-.018.017-.027.012-.027-.014l.034-.284c.005-.04-.013-.065-.055-.065h-.217a.069.069 0 00-.075.065l-.4 3.193c-.006.042.009.066.054.066h.218a.07.07 0 00.05-.018.07.07 0 00.025-.048l.292-2.288a.93.93 0 01.3-.51.8.8 0 01.538-.196.603.603 0 01.46.185c.12.134.181.31.171.49.001.049-.001.097-.007.145l-.278 2.174a.052.052 0 00.01.046.065.065 0 00.051.02h.217a.069.069 0 00.068-.04.07.07 0 00.007-.026l.28-2.228c.009-.085.013-.154.013-.197a.888.888 0 00-.226-.645zM29.677 9.57a.268.268 0 10-.249.475.268.268 0 00.249-.475zM23.648 11.069c.225-.175.504-.267.789-.26.265-.016.525.074.724.25a.894.894 0 01.27.681v.078a.04.04 0 01-.012.028.04.04 0 01-.029.011h-.255a.05.05 0 01-.047-.032.05.05 0 01-.003-.02V11.8a.644.644 0 00-.688-.681.858.858 0 00-.551.19.894.894 0 00-.31.515c-.031.153-.067.389-.108.705-.005.044-.02.174-.038.31a3.386 3.386 0 00-.03.408.647.647 0 00.687.681c.2.003.395-.064.55-.19.16-.13.271-.31.314-.511v-.013a.042.042 0 01.042-.032h.268a.03.03 0 01.03.024.031.031 0 010 .014l-.018.072c-.065.271-.22.512-.442.681-.224.172-.5.262-.782.256-.309 0-.551-.085-.728-.256a.93.93 0 01-.273-.68c.007-.259.027-.516.062-.772a7.12 7.12 0 01.136-.771c.066-.27.221-.51.442-.681z" fill="#4D4D4E"/><path fill-rule="evenodd" clip-rule="evenodd" d="M22.24 11.065a1.007 1.007 0 00-.724-.255 1.24 1.24 0 00-1.232.942c-.06.255-.106.512-.135.772-.04.255-.06.513-.062.77a.937.937 0 00.272.682c.177.17.42.255.728.255a1.24 1.24 0 00.782-.255c.221-.17.378-.41.443-.681l.018-.072a.03.03 0 00-.017-.034.03.03 0 00-.013-.004h-.27a.043.043 0 00-.043.032v.012a.895.895 0 01-.312.511.856.856 0 01-.553.186.646.646 0 01-.687-.681c.001-.12.01-.239.024-.357l1.966-.609a.08.08 0 00.063-.079c.012-.102.02-.275.021-.452a.936.936 0 00-.269-.683zm-.077.919a.046.046 0 01-.032.041l-1.63.504v-.007c.04-.316.077-.552.109-.705a.898.898 0 01.313-.51.86.86 0 01.551-.192.671.671 0 01.499.195c.2.196.202.406.19.674z" fill="#4D4D4E"/><path d="M19.372 13.825c-.01 0-.02.002-.028.006-.14.066-.406.129-.547.01-.102-.098-.08-.274-.057-.47l.003-.024.238-1.918h.681a.085.085 0 00.055-.016.073.073 0 00.02-.05l.02-.152c.002-.042-.016-.066-.055-.066h-.682l.13-1.055c.006-.038-.004-.066-.055-.066h-.21a.07.07 0 00-.052.017.068.068 0 00-.023.049l-.095.745-.041.336-.288 2.338c-.035.307.028.553.278.667.22.08.463.078.68-.01a.08.08 0 00.051-.063l.027-.22a.053.053 0 00-.05-.058z" fill="#4D4D4E"/></g><defs><clipPath id="prefix__clip0_22279_307"><rect width="40" height="24" rx="4" fill="#fff"/></clipPath><clipPath id="prefix__clip1_22279_307"><path fill="#fff" d="M0 0h40v24H0z"/></clipPath><filter id="prefix__filter0_f_22279_307" x="-40" y="-32" width="88" height="88" filterUnits="userSpaceOnUse" color-interpolation-filters="sRGB"><feFlood flood-opacity="0" result="BackgroundImageFix"/><feBlend in="SourceGraphic" in2="BackgroundImageFix" result="shape"/><feGaussianBlur stdDeviation="16" result="effect1_foregroundBlur_22279_307"/></filter><filter id="prefix__filter1_f_22279_307" x="-8" y="-36" width="96" height="96" filterUnits="userSpaceOnUse" color-interpolation-filters="sRGB"><feFlood flood-opacity="0" result="BackgroundImageFix"/><feBlend in="SourceGraphic" in2="BackgroundImageFix" result="shape"/><feGaussianBlur stdDeviation="16" result="effect1_foregroundBlur_22279_307"/></filter></defs></svg>