<svg width="64" height="40" fill="none" xmlns="http://www.w3.org/2000/svg"><rect x="22" y="14" width="40" height="24" rx="4" fill="#fff"/><rect x="22" y="14" width="40" height="24" rx="4" fill="url(#prefix__paint0_radial_22407_90267)"/><path d="M37.541 24.305h.219a.1.1 0 01.101.101v1.957c0 .62.335 1.01.959 1.01.623 0 .958-.39.958-1.01v-1.956c0-.056.046-.102.102-.102h.218a.1.1 0 01.101.101v1.963c0 .842-.462 1.379-1.38 1.379-.917 0-1.379-.542-1.379-1.374v-1.967a.1.1 0 01.102-.101zm3.302 2.667a.09.09 0 01.132-.01c.227.22.565.41.995.41.603 0 .796-.324.796-.582 0-.407-.41-.518-.857-.64-.542-.142-1.146-.293-1.146-.958 0-.558.497-.938 1.162-.938.477 0 .855.146 1.133.403.04.036.044.099.01.14l-.133.162a.089.089 0 01-.13.008 1.313 1.313 0 00-.911-.338c-.406 0-.695.219-.695.537 0 .34.39.44.822.557.552.148 1.18.32 1.18 1.03 0 .492-.334.994-1.246.994-.546 0-.958-.193-1.237-.472a.102.102 0 01-.008-.135l.133-.168zm2.86-2.566a.1.1 0 01.1-.1h1.055c1.05 0 1.735.735 1.735 1.693 0 .964-.685 1.688-1.735 1.688h-1.055a.1.1 0 01-.1-.1v-3.18zm1.156 2.906c.822 0 1.298-.589 1.298-1.313 0-.731-.462-1.318-1.298-1.318h-.735v2.631h.735zm5.943-.851c0-.71.467-1.284 1.212-1.284.745 0 1.212.573 1.212 1.284 0 .71-.467 1.289-1.212 1.289-.745 0-1.212-.58-1.212-1.289zm2.023 0c0-.497-.288-.944-.81-.944-.524 0-.817.447-.817.944 0 .502.293.948.816.948.523 0 .811-.446.811-.948zm.766-1.892c0-.142.117-.253.254-.253.142 0 .259.111.259.253a.26.26 0 01-.26.259.26.26 0 01-.253-.259zm.167.67h.177a.1.1 0 01.101.1v2.248a.1.1 0 01-.1.1h-.178a.1.1 0 01-.101-.1v-2.248c0-.056.046-.1.101-.1zm2.47.846c0-.43-.219-.568-.547-.568a.948.948 0 00-.726.381v1.689a.1.1 0 01-.101.1h-.177a.1.1 0 01-.101-.1v-2.248a.1.1 0 01.1-.1h.178a.1.1 0 01.1.1v.254c.173-.203.508-.416.873-.416.512 0 .781.259.781.791v1.617a.1.1 0 01-.1.101h-.178a.1.1 0 01-.1-.101v-1.5h-.002zM47.554 26c0-1.04.766-1.749 1.725-1.749.568 0 .967.247 1.235.586a.09.09 0 01-.025.133l-.19.105a.1.1 0 01-.127-.024 1.155 1.155 0 00-.893-.424c-.726 0-1.289.569-1.289 1.374 0 .802.563 1.375 1.289 1.375.369 0 .693-.171.892-.424a.102.102 0 01.129-.026l.191.106c.05.027.061.091.026.134-.28.342-.67.585-1.238.585-.96-.002-1.725-.71-1.725-1.75z" fill="#4D4E50"/><path d="M31.5 30a4 4 0 100-8 4 4 0 000 8z" fill="#2775CA"/><path d="M30.75 28.671c0 .094-.073.148-.165.12a3.001 3.001 0 010-5.717c.091-.028.165.025.165.12v.232c0 .063-.048.136-.108.156A2.505 2.505 0 0029 25.931c0 1.078.686 1.997 1.643 2.348.06.022.108.094.108.157v.235z" fill="#fff"/><path d="M31.75 27.807c0 .069-.057.126-.126.126h-.25a.126.126 0 01-.125-.126v-.395c-.546-.074-.813-.38-.885-.796a.117.117 0 01.116-.135h.286c.06 0 .11.043.122.102.053.248.196.438.634.438.323 0 .552-.18.552-.45s-.135-.372-.608-.45c-.7-.095-1.031-.306-1.031-.856 0-.423.32-.752.816-.823v-.387c0-.07.056-.126.125-.126h.25c.069 0 .125.056.125.126v.398c.403.072.659.301.742.68a.116.116 0 01-.115.14h-.263a.127.127 0 01-.12-.092c-.07-.242-.243-.345-.543-.345-.33 0-.502.16-.502.384 0 .237.097.356.605.43.688.094 1.042.29 1.042.875 0 .444-.33.803-.845.887v.395h-.003z" fill="#fff"/><path d="M32.415 28.79c-.091.029-.165-.025-.165-.12v-.232c0-.069.042-.133.108-.156A2.506 2.506 0 0034 25.933a2.506 2.506 0 00-1.641-2.348.18.18 0 01-.109-.157v-.232c0-.094.074-.15.165-.12a3.001 3.001 0 012.086 2.859 3.003 3.003 0 01-2.086 2.855z" fill="#fff"/><g clip-path="url(#prefix__clip0_22407_90267)"><path d="M2 6.5A4.5 4.5 0 016.5 2h15A4.5 4.5 0 0126 6.5v15a4.5 4.5 0 01-4.5 4.5h-15A4.5 4.5 0 012 21.5v-15z" fill="#414652"/><path d="M14.75 16.25c0-.825.675-1.5 1.5-1.5h3c.825 0 1.5.675 1.5 1.5v3c0 .825-.675 1.5-1.5 1.5h-3c-.825 0-1.5-.675-1.5-1.5v-3z" fill="#EF8933"/><path d="M7.25 16.25c0-.825.675-1.5 1.5-1.5h3c.825 0 1.5.675 1.5 1.5v3c0 .825-.675 1.5-1.5 1.5h-3c-.825 0-1.5-.675-1.5-1.5v-3z" fill="#4B6FA8"/><path d="M14.75 8.75c0-.825.675-1.5 1.5-1.5h3c.825 0 1.5.675 1.5 1.5v3c0 .825-.675 1.5-1.5 1.5h-3c-.825 0-1.5-.675-1.5-1.5v-3z" fill="#76C0E3"/><path d="M7.25 8.75c0-.825.675-1.5 1.5-1.5h3c.825 0 1.5.675 1.5 1.5v3c0 .825-.675 1.5-1.5 1.5h-3c-.825 0-1.5-.675-1.5-1.5v-3z" fill="#FF444F"/><path d="M6.5 2A4.5 4.5 0 002 6.5v.13l22.436-3.54A4.482 4.482 0 0021.5 2h-15zM24.899 3.55L20.783 26h.717a4.5 4.5 0 004.5-4.5v-15c0-1.128-.415-2.16-1.101-2.95z" fill="#303541"/></g><defs><radialGradient id="prefix__paint0_radial_22407_90267" cx="0" cy="0" r="1" gradientUnits="userSpaceOnUse" gradientTransform="matrix(39.99997 -24.00002 40.00004 66.66661 22 38)"><stop stop-color="#2775CA" stop-opacity=".24"/><stop offset="1" stop-color="#224CE1" stop-opacity=".48"/></radialGradient><clipPath id="prefix__clip0_22407_90267"><path fill="#fff" transform="translate(2 2)" d="M0 0h24v24H0z"/></clipPath></defs></svg>