<svg width="40" height="24" fill="none" xmlns="http://www.w3.org/2000/svg"><g clip-path="url(#prefix__clip0_3096_261822)"><rect width="40" height="24" rx="4" fill="#0083FF"/><g clip-path="url(#prefix__clip1_3096_261822)"><path fill="#fff" d="M0 0h40v24H0z"/><g filter="url(#prefix__filter0_f_3096_261822)"><circle cx="4" cy="12" r="12" fill="#0DB43D"/></g><g filter="url(#prefix__filter1_f_3096_261822)"><circle cx="40" cy="12" r="16" fill="#FFCD00"/></g></g><rect x="12" y="4" width="16" height="16" rx="8" fill="#283991"/><path d="M24.169 8.055l-.306.381.32.376-.496-.088-.178.448-.163-.448-.485.076.318-.372-.306-.373.482.086.178-.458.164.458.472-.086zM17.486 16.263l.54-.672-.834.15-.289-.806-.314.807-.85-.151.54.658-.562.657.856-.135.289.79.314-.79.873.157-.563-.665zM23.863 16.858l.306-.382-.472.086-.164-.457-.178.457-.483-.086.307.373-.318.372.485-.076.163.448.178-.448.495.089-.319-.377zM25.842 10.615l.306-.382-.472.086-.164-.457-.178.457-.483-.086.307.373-.318.373.485-.077.163.449.178-.448.495.088-.319-.376zM22.457 11.202l-.306.381.32.377-.495-.089-.178.448-.164-.448-.485.076.318-.372-.306-.373.482.086.178-.458.164.458.472-.086zM17.414 4.43c.13-.045.263-.086.397-.124v2.213l2.19-2.189v.185L17.413 7.1V4.43zM13.321 7.597h.858l-.499-.5.081-.102 1 1h-1.685c.078-.136.16-.268.245-.398zM20 11.262v.234l-1.742-1.742H20v.398h-1.11l1.11 1.11zM15.257 11.23V12h.397v-1.353L14.302 12h.184l.77-.77zM15.64 9.754h-3.318a7.875 7.875 0 00-.105.398h1.962L12.33 12h1.064l2.246-2.246zM20 7.995v-.398H18.89L20 6.486V5.422l-2.573 2.573H20zM15.257 6.519l-.532-.531c-.188.165-.369.34-.541.522l1.073 1.073.011.012.386.386V5.285a8.063 8.063 0 00-.397.273v.96zM18.582 12l-.77-.77V12h-.398V9.817L19.597 12h-1.015z" fill="#fff"/><path d="M18.656 10.152l-.398-.398H20v-1.76h-2.573l-.013.014v-.014h.013L20 5.422v-.907L17.414 7.1V4.43a7.969 7.969 0 00-1.76.855V7.98l.014.013h-.014v-.013l-.386-.386.002.002h-.013v-.014L14.184 6.51a8.103 8.103 0 00-.423.485l1 1h-1.685a7.937 7.937 0 00-.754 1.76h3.318l.014-.015v.014h-.014l-.383.384v.014h-.014L13.394 12h.908l1.352-1.353V12h1.76V9.817L19.597 12h.3c.035-.036.07-.071.103-.108v-.396l-1.344-1.344z" fill="#F44336"/></g><defs><clipPath id="prefix__clip0_3096_261822"><rect width="40" height="24" rx="4" fill="#fff"/></clipPath><clipPath id="prefix__clip1_3096_261822"><path fill="#fff" d="M0 0h40v24H0z"/></clipPath><filter id="prefix__filter0_f_3096_261822" x="-40" y="-32" width="88" height="88" filterUnits="userSpaceOnUse" color-interpolation-filters="sRGB"><feFlood flood-opacity="0" result="BackgroundImageFix"/><feBlend in="SourceGraphic" in2="BackgroundImageFix" result="shape"/><feGaussianBlur stdDeviation="16" result="effect1_foregroundBlur_3096_261822"/></filter><filter id="prefix__filter1_f_3096_261822" x="-8" y="-36" width="96" height="96" filterUnits="userSpaceOnUse" color-interpolation-filters="sRGB"><feFlood flood-opacity="0" result="BackgroundImageFix"/><feBlend in="SourceGraphic" in2="BackgroundImageFix" result="shape"/><feGaussianBlur stdDeviation="16" result="effect1_foregroundBlur_3096_261822"/></filter></defs></svg>