<svg xmlns="http://www.w3.org/2000/svg" width="40" height="24" fill="none"><path fill="#fff" d="M0 4a4 4 0 0 1 4-4h32a4 4 0 0 1 4 4v16a4 4 0 0 1-4 4H4a4 4 0 0 1-4-4z"/><path fill="url(#a)" d="M0 4a4 4 0 0 1 4-4h32a4 4 0 0 1 4 4v16a4 4 0 0 1-4 4H4a4 4 0 0 1-4-4z"/><path fill="#171C21" d="M17.975 12a4.5 4.5 0 1 1-9 0 4.5 4.5 0 0 1 9 0"/><path fill="#fff" d="M15.717 10.138h-.651l-1.029 1.018a.8.8 0 0 1-1.124 0l-1.029-1.018h-.65l1.353 1.34c.49.485 1.285.485 1.776 0zM11.225 13.865h.65l1.038-1.027a.8.8 0 0 1 1.124 0l1.037 1.027h.651l-1.362-1.349a1.264 1.264 0 0 0-1.775 0z"/><path fill="#23292F" d="M22.55 10.352h.563l-1.173 1.185c-.424.43-1.112.43-1.536 0l-1.172-1.185h.563l.89.9a.683.683 0 0 0 .966.008l.008-.007zm-2.762 3.296h-.563l1.18-1.193a1.08 1.08 0 0 1 1.536 0l1.179 1.193h-.563l-.898-.908a.683.683 0 0 0-.966-.007l-.007.007zM29.975 10.352q.217.004.405.085.192.076.336.21a.97.97 0 0 1 .309.7.9.9 0 0 1-.087.39 1 1 0 0 1-.23.318q-.145.134-.342.215a1.1 1.1 0 0 1-.415.076h-1.23v1.29h-.432v-3.284zm-.024 1.596a.66.66 0 0 0 .591-.367.55.55 0 0 0 0-.463.6.6 0 0 0-.344-.321.7.7 0 0 0-.247-.047h-1.23v1.198zM25.147 12.353c.217 0 .422.092.558.25l.893 1.034h.557l-1.222-1.434a.74.74 0 0 0-.561-.253h-.847v-1.195h1.23a.66.66 0 0 1 .452.176h.001a.56.56 0 0 1 .188.422.56.56 0 0 1-.124.351l.281.314.01-.01a.98.98 0 0 0 .265-.656.966.966 0 0 0-.309-.7 1.13 1.13 0 0 0-.741-.3h-1.47a.22.22 0 0 0-.154.063.19.19 0 0 0-.062.139v3.082h.432v-1.283z"/><defs><radialGradient id="a" cx="0" cy="0" r="1" gradientTransform="rotate(-30.964 43.324 12)scale(46.6476 77.746)" gradientUnits="userSpaceOnUse"><stop stop-color="#6C6A97" stop-opacity=".28"/><stop offset="1" stop-color="#323063" stop-opacity=".48"/></radialGradient></defs></svg>