<svg width="40" height="24" fill="none" xmlns="http://www.w3.org/2000/svg"><g clip-path="url(#prefix__clip0_22279_234)"><rect width="40" height="24" rx="4" fill="#FF6444"/><g clip-path="url(#prefix__clip1_22279_234)"><path fill="#0E0E0E" d="M0 0h40v24H0z"/><g filter="url(#prefix__filter0_f_22279_234)"><circle cx="4" cy="12" r="12" fill="#FF444F"/></g><g filter="url(#prefix__filter1_f_22279_234)"><circle cx="40" cy="12" r="16" fill="#FF444F"/></g></g><path d="M8.118 9.587l-.26 1.478h-.906c-.844 0-1.649.684-1.798 1.529l-.063.36c-.149.844.415 1.528 1.259 1.528h.755c.615 0 1.202-.498 1.31-1.114l.695-3.94-.992.159zm-.642 3.642a.418.418 0 01-.395.345h-.458c-.38 0-.634-.309-.567-.689l.04-.224c.067-.38.429-.688.808-.688h.793l-.221 1.256zm7.612 1.253l.594-3.37h.94l-.594 3.37h-.94zm.102-3.33l-.141.801a2.395 2.395 0 00-1.046-.066l-.457 2.596h-.94l.563-3.197a3.178 3.178 0 012.021-.135zm-3.809-.087h-.731c-.713 0-1.392.577-1.518 1.29l-.147.837c-.126.713.35 1.29 1.062 1.29h1.555l.16-.905H10.3c-.237 0-.396-.193-.354-.43l.005-.03h2.357l.135-.762c.125-.713-.35-1.29-1.063-1.29h.001zm.119 1.218l-.006.048h-1.401l.007-.043c.043-.237.26-.446.497-.446h.548c.235 0 .394.205.355.44zm8.787-1.17c-.32.85-1.054 2.3-1.765 3.369h-.94c-.326-1.018-.537-2.436-.577-3.37h.94c.017.305.153 1.434.309 2.223.426-.768.896-1.774 1.092-2.223h.941z" fill="#FF444F"/><path d="M22.919 13.814a1.818 1.818 0 00.155.629l-.527.078a1.41 1.41 0 01-.13-.344 1.79 1.79 0 01-.367.26 1.18 1.18 0 01-.582.129c-.19 0-.356-.03-.498-.088a.975.975 0 01-.358-.249 1.126 1.126 0 01-.225-.386 1.802 1.802 0 01-.095-.489c-.018-.29.013-.572.094-.849.08-.276.21-.522.388-.738.18-.216.41-.39.69-.522a2.334 2.334 0 011.293-.172l.27-1.516.621-.104-.68 3.791c-.016.1-.03.194-.04.285-.013.09-.015.186-.01.285zm-1.36.24a.855.855 0 00.457-.113c.123-.076.229-.163.318-.263a3.053 3.053 0 01.041-.486l.29-1.62a.784.784 0 00-.131-.016 3.11 3.11 0 00-.137-.003 1.47 1.47 0 00-.658.142 1.439 1.439 0 00-.486.383c-.13.16-.227.344-.29.554-.062.21-.086.428-.072.657.006.1.022.195.05.286.027.09.066.171.118.242a.573.573 0 00.202.172.636.636 0 00.299.065zM25.019 14.566c-.22 0-.412-.032-.576-.094a1.228 1.228 0 01-.418-.26 1.127 1.127 0 01-.263-.385 1.442 1.442 0 01-.107-.466 2.766 2.766 0 01.083-.875c.073-.28.187-.53.343-.745.155-.216.35-.388.584-.515a1.67 1.67 0 01.81-.192c.178 0 .331.023.462.068.13.046.237.107.322.185.085.078.15.168.195.27a.907.907 0 01.077.313c.013.204-.013.375-.078.516a.989.989 0 01-.27.353 1.242 1.242 0 01-.41.22 3.585 3.585 0 01-.499.123c-.173.03-.349.05-.527.062l-.507.029a.692.692 0 00.002.136c.006.1.024.193.053.282a.57.57 0 00.147.233c.069.067.162.12.279.159.116.039.268.058.454.058.082 0 .166-.007.254-.023.088-.015.17-.034.25-.058.078-.024.148-.047.209-.071a.454.454 0 00.128-.068l.084.512a2 2 0 01-.409.152 2.463 2.463 0 01-.672.08zm-.73-1.853c.25-.009.478-.025.684-.049.206-.024.383-.065.53-.123a.785.785 0 00.34-.236.553.553 0 00.071-.512.347.347 0 00-.085-.12.452.452 0 00-.158-.091.911.911 0 00-.66.062c-.128.064-.24.15-.337.255a1.428 1.428 0 00-.243.37c-.065.14-.112.288-.142.444zM30.42 11.041c.19 0 .352.03.488.087a.906.906 0 01.525.584c.043.131.069.27.078.418a2.27 2.27 0 01-.004.307 2.95 2.95 0 01-.042.321l-.309 1.724h-.602l.284-1.594c.015-.1.033-.21.054-.334.02-.123.027-.245.02-.366a1.012 1.012 0 00-.044-.24.553.553 0 00-.11-.2.524.524 0 00-.2-.137.999.999 0 00-.704.03c-.126.053-.23.108-.314.165.013.06.024.12.034.178a2.024 2.024 0 01.016.473 4.5 4.5 0 01-.037.301l-.308 1.724h-.603l.285-1.594.05-.337c.018-.126.023-.25.016-.376a1.091 1.091 0 00-.04-.237.572.572 0 00-.1-.197.462.462 0 00-.174-.133.65.65 0 00-.268-.049c-.108 0-.213.007-.313.02-.101.013-.185.03-.253.052l-.512 2.85h-.602l.578-3.24c.19-.06.4-.108.63-.145.228-.037.433-.055.615-.055.181 0 .336.031.466.094a.865.865 0 01.313.25c.041-.03.099-.066.172-.104.073-.04.157-.076.252-.11.095-.035.2-.065.312-.091.113-.026.23-.039.35-.039zM33.196 14.566c-.354 0-.638-.105-.852-.314-.214-.21-.332-.498-.354-.865-.016-.25.004-.514.058-.79a2.33 2.33 0 01.293-.765c.141-.234.33-.426.567-.577.237-.151.53-.227.88-.227.355 0 .639.105.852.314.214.21.332.498.355.865.015.25-.004.514-.058.79a2.332 2.332 0 01-.294.765c-.14.234-.33.426-.567.577-.237.151-.53.227-.88.227zm.072-.512a.816.816 0 00.511-.168c.147-.113.268-.256.363-.431.095-.175.164-.369.207-.58.043-.212.059-.417.046-.616-.013-.22-.072-.395-.174-.525-.103-.13-.272-.194-.505-.194a.817.817 0 00-.511.168 1.34 1.34 0 00-.362.431 2.07 2.07 0 00-.208.58 2.355 2.355 0 00-.046.616c.014.22.072.395.175.525s.271.194.504.194z" fill="#fff"/></g><defs><clipPath id="prefix__clip0_22279_234"><rect width="40" height="24" rx="4" fill="#fff"/></clipPath><clipPath id="prefix__clip1_22279_234"><path fill="#fff" d="M0 0h40v24H0z"/></clipPath><filter id="prefix__filter0_f_22279_234" x="-40" y="-32" width="88" height="88" filterUnits="userSpaceOnUse" color-interpolation-filters="sRGB"><feFlood flood-opacity="0" result="BackgroundImageFix"/><feBlend in="SourceGraphic" in2="BackgroundImageFix" result="shape"/><feGaussianBlur stdDeviation="16" result="effect1_foregroundBlur_22279_234"/></filter><filter id="prefix__filter1_f_22279_234" x="-8" y="-36" width="96" height="96" filterUnits="userSpaceOnUse" color-interpolation-filters="sRGB"><feFlood flood-opacity="0" result="BackgroundImageFix"/><feBlend in="SourceGraphic" in2="BackgroundImageFix" result="shape"/><feGaussianBlur stdDeviation="16" result="effect1_foregroundBlur_22279_234"/></filter></defs></svg>