<svg width="40" height="24" fill="none" xmlns="http://www.w3.org/2000/svg"><g clip-path="url(#prefix__clip0_3096_261847)"><rect width="40" height="24" rx="4" fill="#0083FF"/><g clip-path="url(#prefix__clip1_3096_261847)"><path fill="#fff" d="M0 0h40v24H0z"/><g filter="url(#prefix__filter0_f_3096_261847)"><circle cx="4" cy="12" r="12" fill="#283991"/></g><g filter="url(#prefix__filter1_f_3096_261847)"><circle cx="40" cy="12" r="16" fill="#F44336"/></g></g><rect x="12" y="4" width="16" height="16" rx="8" fill="#fff"/><path fill-rule="evenodd" clip-rule="evenodd" d="M22.087 4.276a7.971 7.971 0 012.784 1.378l-2.784 2.783V4.276zm-9.811 5.637a7.971 7.971 0 011.378-2.784l2.783 2.784h-4.161zm14.07-2.783a7.971 7.971 0 011.378 2.783h-4.161l2.783-2.783zm-14.07 6.957a7.97 7.97 0 001.378 2.784l2.783-2.784h-4.161zm2.853 4.26a7.971 7.971 0 002.784 1.377v-4.161l-2.784 2.783zm0-12.693a7.972 7.972 0 012.784-1.378v4.161l-2.784-2.783zm6.958 14.07a7.97 7.97 0 002.784-1.378l-2.784-2.783v4.161zm4.26-2.853l-2.784-2.784h4.161a7.971 7.971 0 01-1.378 2.784z" fill="#283991"/><path fill-rule="evenodd" clip-rule="evenodd" d="M27.932 10.957h-6.888v-6.89a8.08 8.08 0 00-2.088 0v6.89h-6.888a8.092 8.092 0 000 2.086h6.888v6.89a8.074 8.074 0 002.088 0v-6.89h6.888a8.074 8.074 0 000-2.086zm-5.845 3.13l3.57 3.57c.164-.164.32-.336.47-.514l-3.056-3.056h-.984zm-4.174 0v.984l-3.056 3.056a8.046 8.046 0 01-.514-.47l3.57-3.57zm.002-4.174l-3.57-3.57c-.164.164-.32.336-.47.514l3.056 3.056h.984zm7.742-3.57l-3.57 3.57V8.93l3.056-3.056c.178.15.35.306.514.47z" fill="#F44336"/></g><defs><clipPath id="prefix__clip0_3096_261847"><rect width="40" height="24" rx="4" fill="#fff"/></clipPath><clipPath id="prefix__clip1_3096_261847"><path fill="#fff" d="M0 0h40v24H0z"/></clipPath><filter id="prefix__filter0_f_3096_261847" x="-40" y="-32" width="88" height="88" filterUnits="userSpaceOnUse" color-interpolation-filters="sRGB"><feFlood flood-opacity="0" result="BackgroundImageFix"/><feBlend in="SourceGraphic" in2="BackgroundImageFix" result="shape"/><feGaussianBlur stdDeviation="16" result="effect1_foregroundBlur_3096_261847"/></filter><filter id="prefix__filter1_f_3096_261847" x="-8" y="-36" width="96" height="96" filterUnits="userSpaceOnUse" color-interpolation-filters="sRGB"><feFlood flood-opacity="0" result="BackgroundImageFix"/><feBlend in="SourceGraphic" in2="BackgroundImageFix" result="shape"/><feGaussianBlur stdDeviation="16" result="effect1_foregroundBlur_3096_261847"/></filter></defs></svg>