<svg width="64" height="40" fill="none" xmlns="http://www.w3.org/2000/svg"><rect x="22" y="14" width="40" height="24" rx="4" fill="#fff"/><rect x="22" y="14" width="40" height="24" rx="4" fill="url(#prefix__paint0_radial_22407_90075)"/><rect x="34" y="18" width="16" height="16" rx="8" fill="#283991"/><path d="M46.17 22.055l-.307.382.32.376-.495-.089-.178.448-.164-.448-.485.076.318-.372-.306-.373.482.086.178-.457.164.457.472-.086zM39.487 30.264l.54-.673-.834.151-.29-.807-.314.807-.85-.15.54.657-.561.657.855-.135.29.791.314-.79.872.156-.562-.664zM45.863 30.858l.306-.381-.472.085-.164-.457-.178.457-.482-.085.306.372-.318.373.485-.077.164.448.178-.447.494.088-.319-.376zM47.843 24.615l.305-.381-.472.085-.164-.457-.178.457-.482-.085.306.373-.318.372.485-.076.163.448.179-.448.494.088-.319-.376zM44.457 25.202l-.306.381.32.377-.495-.088-.178.447-.164-.448-.485.076.318-.372-.306-.373.482.086.178-.457.164.457.472-.086zM39.414 18.429c.13-.045.263-.086.397-.124v2.213L42 18.329v.185L39.414 21.1v-2.671zM35.321 21.596h.858l-.5-.5.082-.102 1 1h-1.685a8.1 8.1 0 01.245-.398zM42 25.262v.233l-1.742-1.742H42v.398h-1.11L42 25.26zM37.257 25.228V26h.397v-1.353L36.301 26h.185l.77-.77zM37.64 23.753h-3.318a8.005 8.005 0 00-.105.398h1.961l-1.848 1.848h1.064l2.246-2.246zM42 21.994v-.398h-1.112L42 20.485V19.42l-2.573 2.573H42zM37.257 20.518l-.532-.531c-.188.166-.37.34-.541.522l1.073 1.073.01.012.387.386v-2.696a8.017 8.017 0 00-.397.274v.96zM40.582 26l-.771-.771v.77h-.398v-2.183l2.184 2.183h-1.015z" fill="#fff"/><path d="M40.656 24.152l-.397-.398H42v-1.76h-2.572l-.014.014v-.014h.014L42 19.422v-.907L39.414 21.1V18.43a7.966 7.966 0 00-1.76.855v2.696l.014.013h-.014v-.013l-.386-.386.003.002h-.014v-.014l-1.073-1.073a8.047 8.047 0 00-.423.485l1 1h-1.684a7.94 7.94 0 00-.755 1.76h3.319l.014-.015v.014h-.014l-.384.384v.014h-.014L35.395 26h.907l1.353-1.353V26h1.76v-2.183L41.597 26h.3c.034-.036.069-.071.102-.108v-.396l-1.344-1.344z" fill="#F44336"/><g clip-path="url(#prefix__clip0_22407_90075)"><path d="M2 6.5A4.5 4.5 0 016.5 2h15A4.5 4.5 0 0126 6.5v15a4.5 4.5 0 01-4.5 4.5h-15A4.5 4.5 0 012 21.5v-15z" fill="#414652"/><path d="M14.75 16.25c0-.825.675-1.5 1.5-1.5h3c.825 0 1.5.675 1.5 1.5v3c0 .825-.675 1.5-1.5 1.5h-3c-.825 0-1.5-.675-1.5-1.5v-3z" fill="#EF8933"/><path d="M7.25 16.25c0-.825.675-1.5 1.5-1.5h3c.825 0 1.5.675 1.5 1.5v3c0 .825-.675 1.5-1.5 1.5h-3c-.825 0-1.5-.675-1.5-1.5v-3z" fill="#4B6FA8"/><path d="M14.75 8.75c0-.825.675-1.5 1.5-1.5h3c.825 0 1.5.675 1.5 1.5v3c0 .825-.675 1.5-1.5 1.5h-3c-.825 0-1.5-.675-1.5-1.5v-3z" fill="#76C0E3"/><path d="M7.25 8.75c0-.825.675-1.5 1.5-1.5h3c.825 0 1.5.675 1.5 1.5v3c0 .825-.675 1.5-1.5 1.5h-3c-.825 0-1.5-.675-1.5-1.5v-3z" fill="#FF444F"/><path d="M6.5 2A4.5 4.5 0 002 6.5v.13l22.436-3.54A4.482 4.482 0 0021.5 2h-15zM24.899 3.55L20.783 26h.717a4.5 4.5 0 004.5-4.5v-15c0-1.128-.415-2.16-1.101-2.95z" fill="#303541"/></g><defs><radialGradient id="prefix__paint0_radial_22407_90075" cx="0" cy="0" r="1" gradientUnits="userSpaceOnUse" gradientTransform="matrix(40.00001 -23.99995 444.20513 740.34354 22 38)"><stop stop-color="#0DB43D" stop-opacity=".24"/><stop offset="1" stop-color="#FFCD00" stop-opacity=".48"/></radialGradient><clipPath id="prefix__clip0_22407_90075"><path fill="#fff" transform="translate(2 2)" d="M0 0h24v24H0z"/></clipPath></defs></svg>