<svg width="40" height="24" fill="none" xmlns="http://www.w3.org/2000/svg"><g clip-path="url(#prefix__clip0_593_61640)"><rect width="40" height="24" rx="4" fill="#009393"/><g clip-path="url(#prefix__clip1_593_61640)"><path fill="#fff" d="M0 0h40v24H0z"/><g filter="url(#prefix__filter0_f_593_61640)"><circle cx="4" cy="12" r="12" fill="#009393"/></g><g filter="url(#prefix__filter1_f_593_61640)"><circle cx="40" cy="12" r="16" fill="#04D9D9"/></g></g><path fill-rule="evenodd" clip-rule="evenodd" d="M6.72 8.782h4.55c.108 0 .209.057.263.15l1.325 2.276a.297.297 0 01-.05.362L9.16 15.132a.306.306 0 01-.426 0L5.09 11.575a.297.297 0 01-.045-.37l1.417-2.28a.304.304 0 01.258-.143zm3.962 1.016v.638H9.386v.443c.91.047 1.594.242 1.599.475v.485c-.005.233-.688.427-1.599.475V13.4h-.86v-1.086c-.91-.048-1.593-.242-1.598-.475v-.485c.005-.233.688-.428 1.598-.475v-.443H7.23v-.638h3.452zM8.956 11.98c.972 0 1.783-.164 1.982-.384-.168-.186-.778-.332-1.552-.372v.463a8.314 8.314 0 01-.86 0v-.463c-.774.04-1.383.186-1.552.372.199.22 1.01.384 1.982.384z" fill="#009393"/><path d="M14.634 10.017l1.052-.117v1.008h.913v.876h-.92v1.359c0 .32.136.482.409.482.175 0 .321-.03.438-.088l.241.876a2.458 2.458 0 01-.76.161c-.423.02-.76-.08-1.007-.3-.244-.223-.366-.6-.366-1.131v-1.359h-.642v-.876h.642v-.891zM20.535 13.033h-2.651c.03.185.13.338.3.46.17.117.396.175.679.175.404 0 .715-.095.935-.284l.591.657c-.36.355-.876.533-1.548.533-.643 0-1.142-.173-1.497-.518-.351-.346-.526-.814-.526-1.403 0-.555.173-1.003.518-1.344.346-.345.811-.518 1.395-.518.638 0 1.125.195 1.46.584.342.39.456.942.344 1.658zm-2.651-.767h1.709a.497.497 0 00-.263-.424 1.118 1.118 0 00-.599-.153.94.94 0 00-.54.153.756.756 0 00-.307.424zM21.412 10.017l1.052-.117v1.008h.913v.876h-.92v1.359c0 .32.136.482.408.482.176 0 .322-.03.439-.088l.24.876a2.458 2.458 0 01-.759.161c-.424.02-.76-.08-1.008-.3-.243-.223-.365-.6-.365-1.131v-1.359h-.643v-.876h.643v-.891zM23.939 9.381h1.059v1.95c.258-.336.623-.504 1.095-.504.96 0 1.44.577 1.44 1.731v1.936H26.48v-1.928c0-.249-.064-.441-.19-.577a.632.632 0 00-.497-.205.784.784 0 00-.577.234c-.15.156-.226.372-.226.65v1.826h-1.052V9.38zM31.657 13.033h-2.651c.029.185.129.338.3.46.17.117.396.175.679.175.404 0 .715-.095.934-.284l.592.657c-.36.355-.877.533-1.548.533-.643 0-1.142-.173-1.498-.518-.35-.346-.526-.814-.526-1.403 0-.555.173-1.003.52-1.344.345-.345.81-.518 1.394-.518.638 0 1.125.195 1.46.584.341.39.456.942.344 1.658zm-2.651-.767h1.709a.497.497 0 00-.263-.424 1.119 1.119 0 00-.599-.153c-.21 0-.39.051-.54.153a.756.756 0 00-.307.424zM32.093 10.893h.979l.08.394c.229-.32.55-.482.964-.482.34 0 .636.11.884.33l-.438.832a.969.969 0 00-.577-.183.841.841 0 00-.6.226c-.16.147-.24.349-.24.607v1.877h-1.052v-3.6z" fill="#009393"/></g><defs><clipPath id="prefix__clip0_593_61640"><rect width="40" height="24" rx="4" fill="#fff"/></clipPath><clipPath id="prefix__clip1_593_61640"><path fill="#fff" d="M0 0h40v24H0z"/></clipPath><filter id="prefix__filter0_f_593_61640" x="-40" y="-32" width="88" height="88" filterUnits="userSpaceOnUse" color-interpolation-filters="sRGB"><feFlood flood-opacity="0" result="BackgroundImageFix"/><feBlend in="SourceGraphic" in2="BackgroundImageFix" result="shape"/><feGaussianBlur stdDeviation="16" result="effect1_foregroundBlur_593_61640"/></filter><filter id="prefix__filter1_f_593_61640" x="-8" y="-36" width="96" height="96" filterUnits="userSpaceOnUse" color-interpolation-filters="sRGB"><feFlood flood-opacity="0" result="BackgroundImageFix"/><feBlend in="SourceGraphic" in2="BackgroundImageFix" result="shape"/><feGaussianBlur stdDeviation="16" result="effect1_foregroundBlur_593_61640"/></filter></defs></svg>