<svg width="64" height="40" fill="none" xmlns="http://www.w3.org/2000/svg"><rect x="22" y="14" width="40" height="24" rx="4" fill="#fff"/><rect x="22" y="14" width="40" height="24" rx="4" fill="url(#prefix__paint0_radial_22407_90091)"/><path fill-rule="evenodd" clip-rule="evenodd" d="M28.72 22.781h4.55c.108 0 .209.058.263.15l1.325 2.276a.297.297 0 01-.05.363L31.16 29.13a.306.306 0 01-.426 0l-3.644-3.556a.297.297 0 01-.045-.37l1.417-2.28a.304.304 0 01.258-.144zm3.962 1.016v.639h-1.296v.443c.91.047 1.594.241 1.599.474v.486c-.005.233-.688.427-1.599.474V27.4h-.86v-1.087c-.91-.047-1.593-.241-1.598-.474v-.486c.005-.233.688-.427 1.598-.474v-.443H29.23v-.639h3.452zm-1.726 2.183c.971 0 1.783-.165 1.982-.384-.168-.186-.778-.333-1.552-.373v.464a8.314 8.314 0 01-.86 0v-.464c-.774.04-1.383.187-1.552.373.199.22 1.01.384 1.982.384z" fill="#009393"/><path d="M36.634 24.016l1.052-.117v1.008h.913v.877h-.92v1.358c0 .321.136.482.409.482.175 0 .321-.03.438-.087l.241.876a2.455 2.455 0 01-.76.16c-.423.02-.76-.08-1.007-.299-.244-.224-.366-.601-.366-1.132v-1.358h-.642v-.877h.642v-.89zM42.535 27.032h-2.651c.03.186.13.339.3.46.17.117.396.176.679.176.404 0 .715-.095.935-.285l.591.657c-.36.356-.876.534-1.548.534-.643 0-1.142-.173-1.497-.519-.351-.346-.526-.813-.526-1.402 0-.555.173-1.003.518-1.344.346-.346.811-.519 1.395-.519.638 0 1.125.195 1.46.585.342.39.456.942.344 1.657zm-2.651-.766h1.709a.497.497 0 00-.263-.424 1.117 1.117 0 00-.599-.153.94.94 0 00-.54.153.755.755 0 00-.307.424zM43.412 24.016l1.052-.117v1.008h.913v.877h-.92v1.358c0 .321.136.482.408.482.176 0 .322-.03.439-.087l.24.876a2.455 2.455 0 01-.759.16c-.424.02-.76-.08-1.008-.299-.243-.224-.365-.601-.365-1.132v-1.358h-.643v-.877h.643v-.89zM45.939 23.38h1.059v1.95c.258-.335.623-.503 1.096-.503.959 0 1.438.577 1.438 1.73v1.936h-1.051v-1.928c0-.248-.064-.44-.19-.577a.632.632 0 00-.497-.204.784.784 0 00-.577.233c-.15.156-.226.373-.226.65v1.826h-1.052v-5.112zM53.657 27.032h-2.651c.029.186.129.339.3.46.17.117.396.176.679.176.404 0 .715-.095.934-.285l.592.657c-.36.356-.877.534-1.548.534-.643 0-1.142-.173-1.498-.519-.35-.346-.526-.813-.526-1.402 0-.555.173-1.003.52-1.344.345-.346.81-.519 1.394-.519.638 0 1.125.195 1.46.585.341.39.456.942.344 1.657zm-2.651-.766h1.709a.497.497 0 00-.263-.424 1.118 1.118 0 00-.599-.153.94.94 0 00-.54.153.756.756 0 00-.307.424zM54.093 24.893h.979l.08.394c.229-.321.55-.482.964-.482.34 0 .636.11.884.329l-.438.832a.969.969 0 00-.577-.182.841.841 0 00-.6.226c-.16.146-.24.348-.24.606v1.877h-1.052v-3.6z" fill="#009393"/><g clip-path="url(#prefix__clip0_22407_90091)"><path d="M2 6.5A4.5 4.5 0 016.5 2h15A4.5 4.5 0 0126 6.5v15a4.5 4.5 0 01-4.5 4.5h-15A4.5 4.5 0 012 21.5v-15z" fill="#414652"/><path d="M14.75 16.25c0-.825.675-1.5 1.5-1.5h3c.825 0 1.5.675 1.5 1.5v3c0 .825-.675 1.5-1.5 1.5h-3c-.825 0-1.5-.675-1.5-1.5v-3z" fill="#EF8933"/><path d="M7.25 16.25c0-.825.675-1.5 1.5-1.5h3c.825 0 1.5.675 1.5 1.5v3c0 .825-.675 1.5-1.5 1.5h-3c-.825 0-1.5-.675-1.5-1.5v-3z" fill="#4B6FA8"/><path d="M14.75 8.75c0-.825.675-1.5 1.5-1.5h3c.825 0 1.5.675 1.5 1.5v3c0 .825-.675 1.5-1.5 1.5h-3c-.825 0-1.5-.675-1.5-1.5v-3z" fill="#76C0E3"/><path d="M7.25 8.75c0-.825.675-1.5 1.5-1.5h3c.825 0 1.5.675 1.5 1.5v3c0 .825-.675 1.5-1.5 1.5h-3c-.825 0-1.5-.675-1.5-1.5v-3z" fill="#FF444F"/><path d="M6.5 2A4.5 4.5 0 002 6.5v.13l22.436-3.54A4.482 4.482 0 0021.5 2h-15zM24.899 3.55L20.783 26h.717a4.5 4.5 0 004.5-4.5v-15c0-1.128-.415-2.16-1.101-2.95z" fill="#303541"/></g><defs><radialGradient id="prefix__paint0_radial_22407_90091" cx="0" cy="0" r="1" gradientUnits="userSpaceOnUse" gradientTransform="matrix(39.99997 -24.00002 40.00004 66.66661 22 38)"><stop stop-color="#009393" stop-opacity=".24"/><stop offset="1" stop-color="#009393" stop-opacity=".48"/></radialGradient><clipPath id="prefix__clip0_22407_90091"><path fill="#fff" transform="translate(2 2)" d="M0 0h24v24H0z"/></clipPath></defs></svg>