<svg width="24" height="25" fill="none" xmlns="http://www.w3.org/2000/svg"><g clip-path="url(#prefix__clip0_22279_944)"><path d="M0 5.426a4.5 4.5 0 014.5-4.5h15a4.5 4.5 0 014.5 4.5v15a4.5 4.5 0 01-4.5 4.5h-15a4.5 4.5 0 01-4.5-4.5v-15z" fill="#414652"/><path d="M12.75 15.176c0-.825.675-1.5 1.5-1.5h3c.825 0 1.5.675 1.5 1.5v3c0 .825-.675 1.5-1.5 1.5h-3c-.825 0-1.5-.675-1.5-1.5v-3z" fill="#EF8933"/><path d="M5.25 15.176c0-.825.675-1.5 1.5-1.5h3c.825 0 1.5.675 1.5 1.5v3c0 .825-.675 1.5-1.5 1.5h-3c-.825 0-1.5-.675-1.5-1.5v-3z" fill="#4B6FA8"/><path d="M12.75 7.676c0-.825.675-1.5 1.5-1.5h3c.825 0 1.5.675 1.5 1.5v3c0 .825-.675 1.5-1.5 1.5h-3c-.825 0-1.5-.675-1.5-1.5v-3z" fill="#76C0E3"/><path d="M5.25 7.676c0-.825.675-1.5 1.5-1.5h3c.825 0 1.5.675 1.5 1.5v3c0 .825-.675 1.5-1.5 1.5h-3c-.825 0-1.5-.675-1.5-1.5v-3z" fill="#FF444F"/><path d="M4.5.926a4.5 4.5 0 00-4.5 4.5v.13l22.436-3.54A4.482 4.482 0 0019.5.925h-15zM22.899 2.477l-4.116 22.449h.717a4.5 4.5 0 004.5-4.5v-15c0-1.128-.415-2.16-1.101-2.95z" fill="#303541"/></g><defs><clipPath id="prefix__clip0_22279_944"><path fill="#fff" transform="translate(0 .926)" d="M0 0h24v24H0z"/></clipPath></defs></svg>