<svg width="40" height="24" fill="none" xmlns="http://www.w3.org/2000/svg"><g clip-path="url(#prefix__clip0_3096_261872)"><rect width="40" height="24" rx="4" fill="#0083FF"/><g clip-path="url(#prefix__clip1_3096_261872)"><path fill="#fff" d="M0 0h40v24H0z"/><g filter="url(#prefix__filter0_f_3096_261872)"><circle cx="4" cy="12" r="12" fill="#F44336"/></g><g filter="url(#prefix__filter1_f_3096_261872)"><circle cx="40" cy="12" r="16" fill="#283991"/></g></g><rect x="12" y="4" width="16" height="16" rx="8" fill="#fff"/><path fill-rule="evenodd" clip-rule="evenodd" d="M19.662 4a7.96 7.96 0 00-4.149 1.452h9.232A7.96 7.96 0 0020.597 4H19.662zm-5.713 2.903A7.982 7.982 0 0013 8.354h14.259a7.983 7.983 0 00-.95-1.451H13.95zm-1.916 4.369c.044-.498.134-.983.265-1.451h15.393c.131.468.221.953.265 1.45H12.033zm.003 1.452c.046.498.14.983.274 1.451h15.37a7.91 7.91 0 00.273-1.451H12.036zm1.812 4.354a7.987 7.987 0 01-.962-1.451H27.103a7.989 7.989 0 01-.962 1.451H13.849zm5.808 2.894l.025.001.024.001a7.875 7.875 0 004.848-1.444h-9.117a7.874 7.874 0 004.22 1.442z" fill="#F44336"/><path d="M19.83 4.004a7.992 7.992 0 00-7.796 7.27h7.795v-7.27z" fill="#283991"/><path d="M13.6 8.52l.122.374h.394l-.32.232.123.374-.32-.231-.318.231.121-.374-.319-.232h.395l.122-.374zM13.6 9.842l.122.375h.394l-.32.231.123.374-.32-.231-.318.232.121-.375-.319-.231h.395l.122-.375zM14.925 6.536l.122.375h.394l-.319.231.122.374-.32-.23-.318.23.121-.374-.319-.231h.395l.122-.375zM14.925 7.859l.122.374h.394l-.319.231.122.375-.32-.231-.318.23.121-.374-.319-.231h.395l.122-.374zM14.925 9.181l.122.375h.394l-.319.23.122.375-.32-.231-.318.231.121-.374-.319-.231h.395l.122-.375zM12.594 10.161l-.122-.374.319-.232h-.395l-.008-.027a7.647 7.647 0 00-.119.406l.006-.004.319.231zM13.28 8.178l.32-.232.319.232-.122-.375.319-.231h-.395l-.121-.374-.122.374h-.146a7.76 7.76 0 00-.08.123l.15.108-.121.375zM14.925 5.963l.319.231-.122-.374.319-.232h-.228c-.193.145-.38.297-.56.459l-.048.147.32-.231zM15.93 5.533l.32-.232.319.232-.122-.375.32-.23h-.395l-.017-.051c-.134.068-.266.139-.395.214l.093.067-.122.375zM16.25 5.875l.122.374h.394l-.319.232.122.374-.319-.231-.32.231.123-.374-.32-.232h.395l.122-.374zM16.25 7.198l.122.374h.394l-.319.231.122.375-.319-.232-.32.232.123-.375-.32-.231h.395l.122-.374zM16.25 8.52l.122.374h.394l-.319.232.122.374-.319-.231-.32.231.123-.374-.32-.232h.395l.122-.374zM16.25 9.842l.122.375h.394l-.319.231.122.374-.319-.231-.32.232.123-.375-.32-.231h.395l.122-.375zM17.575 5.214l.122.374h.394l-.319.232.122.374-.319-.231-.32.231.123-.374-.32-.232h.395l.122-.374zM17.575 6.536l.122.375h.394l-.319.231.122.374-.319-.23-.32.23.123-.374-.32-.231h.395l.122-.375zM17.575 7.859l.122.374h.394l-.319.231.122.375-.319-.231-.32.23.123-.374-.32-.231h.395l.122-.374zM17.575 9.181l.122.375h.394l-.319.23.122.375-.319-.231-.32.231.123-.374-.32-.231h.395l.122-.375zM18.9 4.553l.122.374h.395l-.32.232.122.374-.319-.232-.319.232.122-.375-.32-.23h.395l.122-.375zM18.9 5.875l.122.374h.395l-.32.232.122.374-.319-.231-.319.231.122-.374-.32-.232h.395l.122-.374zM18.9 7.198l.122.374h.395l-.32.231.122.375-.319-.232-.319.232.122-.375-.32-.231h.395l.122-.374zM18.9 8.52l.122.374h.395l-.32.232.122.374-.319-.231-.319.231.122-.374-.32-.232h.395l.122-.374zM18.9 9.842l.122.375h.395l-.32.231.122.374-.319-.231-.319.232.122-.375-.32-.231h.395l.122-.375z" fill="#EFEFEF"/></g><defs><clipPath id="prefix__clip0_3096_261872"><rect width="40" height="24" rx="4" fill="#fff"/></clipPath><clipPath id="prefix__clip1_3096_261872"><path fill="#fff" d="M0 0h40v24H0z"/></clipPath><filter id="prefix__filter0_f_3096_261872" x="-40" y="-32" width="88" height="88" filterUnits="userSpaceOnUse" color-interpolation-filters="sRGB"><feFlood flood-opacity="0" result="BackgroundImageFix"/><feBlend in="SourceGraphic" in2="BackgroundImageFix" result="shape"/><feGaussianBlur stdDeviation="16" result="effect1_foregroundBlur_3096_261872"/></filter><filter id="prefix__filter1_f_3096_261872" x="-8" y="-36" width="96" height="96" filterUnits="userSpaceOnUse" color-interpolation-filters="sRGB"><feFlood flood-opacity="0" result="BackgroundImageFix"/><feBlend in="SourceGraphic" in2="BackgroundImageFix" result="shape"/><feGaussianBlur stdDeviation="16" result="effect1_foregroundBlur_3096_261872"/></filter></defs></svg>