<svg width="48" height="49" fill="none" xmlns="http://www.w3.org/2000/svg"><path d="M12 22.26a9.333 9.333 0 019.333-9.334h5.334A9.333 9.333 0 0136 22.259v5.333a9.333 9.333 0 01-9.333 9.334h-5.334A9.333 9.333 0 0112 27.592V22.26z" fill="#FF444F"/><path d="M27.056 17.898l-.774 4.389h-2.686c-2.507 0-4.895 2.03-5.338 4.536l-.188 1.067c-.44 2.506 1.232 4.537 3.738 4.537h2.24c1.827 0 3.567-1.479 3.889-3.305L30 17.425l-2.944.473zm-1.906 10.81c-.1.564-.607 1.023-1.171 1.023h-1.362c-1.126 0-1.88-.914-1.682-2.043l.117-.665c.2-1.126 1.275-2.043 2.401-2.043h2.354l-.657 3.728z" fill="#fff"/></svg>