<svg width="48" height="49" fill="none" xmlns="http://www.w3.org/2000/svg"><g clip-path="url(#prefix__clip0_22279_919)" fill="#FF444F"><path d="M12 14.926a2 2 0 012-2h7.077a2 2 0 012 2v7.077a2 2 0 01-2 2H14a2 2 0 01-2-2v-7.077z"/><path fill-rule="evenodd" clip-rule="evenodd" d="M34 13.926h-7.077a1 1 0 00-1 1v7.077a1 1 0 001 1H34a1 1 0 001-1v-7.077a1 1 0 00-1-1zm-7.077-1a2 2 0 00-2 2v7.077a2 2 0 002 2H34a2 2 0 002-2v-7.077a2 2 0 00-2-2h-7.077zM21.077 26.849H14a1 1 0 00-1 1v7.077a1 1 0 001 1h7.077a1 1 0 001-1v-7.077a1 1 0 00-1-1zm-7.077-1a2 2 0 00-2 2v7.077a2 2 0 002 2h7.077a2 2 0 002-2v-7.077a2 2 0 00-2-2H14zM34 26.849h-7.077a1 1 0 00-1 1v7.077a1 1 0 001 1H34a1 1 0 001-1v-7.077a1 1 0 00-1-1zm-7.077-1a2 2 0 00-2 2v7.077a2 2 0 002 2H34a2 2 0 002-2v-7.077a2 2 0 00-2-2h-7.077z"/></g><defs><clipPath id="prefix__clip0_22279_919"><path fill="#fff" transform="translate(12 12.926)" d="M0 0h24v24H0z"/></clipPath></defs></svg>