<svg xmlns="http://www.w3.org/2000/svg" width="130" height="100" fill="none"><defs/><g clip-path="url(#clip0)"><path fill="#2A3052" d="M111.3 47V6.7c0-2.5-1.9-4.4-4.4-4.4H6.7c-2.4 0-4.4 2-4.4 4.4v69.8c0 2.5 1.9 4.4 4.4 4.4h70.1l.8 2.3H6.7c-3.7 0-6.6-3-6.6-6.7V6.7C.1 3 3.1 0 6.7 0h100.1c3.7 0 6.6 3 6.6 6.7v41.1l-2.1-.8z"/><path fill="#2A3052" d="M103.8 100c-14.4 0-26.3-11.9-26.3-26.6 0-14.7 11.9-26.4 26.3-26.4s26.3 11.9 26.3 26.6c0 14.7-11.7 26.4-26.3 26.4zm0-50.8c-13.2 0-24 10.9-24 24.3s10.8 24.3 24 24.3 24-10.9 24-24.3-10.7-24.3-24-24.3zM26.8 10.5c-8.9 0-16.2 7.4-16.2 16.4 0 9 7.3 16.4 16.2 16.4 8.9 0 16.2-7.4 16.2-16.4 0-9-7.3-16.4-16.2-16.4zm0 2.3c7.7 0 14 6.4 14 14.1 0 2.9-.9 5.6-2.4 7.8-2.2-2.2-4.9-3.6-7.9-4.3 1.4-1.2 2.1-2.8 2.1-4.7 0-3.4-2.7-6.2-6.1-6.2-3.4 0-6.1 2.7-6.1 6.2 0 2.1 1 3.8 2.5 4.9-2.8.8-5.3 2.3-7.4 4.4-1.6-2.4-2.6-5.2-2.6-8.2-.1-7.7 6.2-14 13.9-14zm-.3 16.8c-2.1 0-3.9-1.8-3.9-3.9 0-2.1 1.7-3.9 3.9-3.9s3.9 1.8 3.9 3.9c-.2 2.3-1.9 3.9-3.9 3.9zm.3 11.4c-3.9 0-7.3-1.6-9.8-4.1 2.6-2.8 6.3-4.4 10.2-4.4 3.7 0 7.2 1.5 9.8 4.1-2.6 2.6-6.3 4.4-10.2 4.4zM94.5 16.6H50.9c-.6 0-1.2-.5-1.2-1.2 0-.6.5-1.2 1.2-1.2h43.7c.6 0 1.2.5 1.2 1.2-.1.7-.6 1.2-1.3 1.2zM94.5 43.1H50.9c-.6 0-1.2-.5-1.2-1.2 0-.6.5-1.2 1.2-1.2h43.7c.6 0 1.2.5 1.2 1.2-.1.7-.6 1.2-1.3 1.2zM94.5 29.8H50.9c-.6 0-1.2-.5-1.2-1.2s.5-1.2 1.2-1.2h43.7c.6 0 1.2.5 1.2 1.2s-.6 1.2-1.3 1.2z"/><path fill="#2A3052" d="M94.5 43.1H50.9c-.6 0-1.2-.5-1.2-1.2 0-.6.5-1.2 1.2-1.2h43.7c.6 0 1.2.5 1.2 1.2-.1.7-.6 1.2-1.3 1.2zM81.499 56.5h-65c-.6 0-1.2-.5-1.2-1.2s.5-1.2 1.2-1.2h67.1l-2.1 2.4zM76.1 69.9H16.6c-.6 0-1.2-.5-1.2-1.2s.5-1.2 1.2-1.2h60.1l-.6 2.4z"/><path fill="#E98024" d="M123.899 76.2h-22.7V53.7c0-.8.7-1.5 1.5-1.5s1.5.7 1.5 1.5v19.6h19.8c.8 0 1.5.7 1.5 1.5-.2.7-.8 1.4-1.6 1.4z"/></g><defs><clipPath id="clip0"><path fill="#fff" d="M0 0h130v100H0z"/></clipPath></defs></svg>