<svg xmlns="http://www.w3.org/2000/svg" width="130" height="100" fill="none"><defs/><path fill="#2A3052" d="M111.11 47.013V6.66c0-2.448-1.937-4.407-4.359-4.407H6.587c-2.422 0-4.359 1.959-4.359 4.407v69.736c0 2.448 1.937 4.407 4.36 4.407h70.036l.775 2.253H6.587C2.907 83.056 0 80.02 0 76.396V6.66C0 3.036 3.003 0 6.587 0h100.067c3.681 0 6.587 3.036 6.587 6.66v41.038l-2.131-.685z"/><path fill="#2A3052" d="M103.748 100c-14.434 0-26.252-11.95-26.252-26.543 0-14.594 11.721-26.543 26.252-26.543 14.53 0 26.252 11.851 26.252 26.543 0 14.691-11.818 26.542-26.252 26.542zm0-50.735c-13.174 0-24.024 10.871-24.024 24.29 0 13.418 10.753 24.29 24.024 24.29 13.174 0 24.024-10.872 24.024-24.29 0-13.419-10.85-24.29-24.024-24.29z"/><path fill="#E98024" d="M116.826 71.793L103.748 58.57 90.671 71.793a1.728 1.728 0 000 2.448 1.683 1.683 0 002.421 0l9.009-9.109v21.744c0 .98.775 1.665 1.647 1.665.969 0 1.647-.784 1.647-1.665V65.035l9.009 9.108c.291.294.775.49 1.162.49.388 0 .872-.196 1.163-.49.775-.587.775-1.665.097-2.35z"/><path fill="#2A3052" d="M26.64 10.578c-8.912 0-16.177 7.346-16.177 16.357 0 9.01 7.265 16.356 16.177 16.356 8.912 0 16.178-7.346 16.178-16.356 0-9.011-7.169-16.357-16.178-16.357zm0 2.253c7.653 0 13.95 6.366 13.95 14.104 0 2.938-.872 5.582-2.422 7.835a16.701 16.701 0 00-7.944-4.31c1.357-1.175 2.132-2.84 2.132-4.7 0-3.429-2.713-6.171-6.103-6.171-3.39 0-6.103 2.742-6.103 6.17 0 2.057.969 3.82 2.519 4.898-2.81.783-5.328 2.252-7.363 4.407a14.31 14.31 0 01-2.615-8.227c.097-7.738 6.296-14.006 13.95-14.006zm-.29 16.846c-2.132 0-3.875-1.763-3.875-3.918 0-2.154 1.743-3.917 3.875-3.917 2.13 0 3.874 1.763 3.874 3.917-.096 2.155-1.743 3.918-3.874 3.918zm.29 11.264c-3.875 0-7.265-1.568-9.784-4.114 2.616-2.84 6.297-4.407 10.172-4.407 3.68 0 7.168 1.469 9.784 4.113-2.519 2.742-6.103 4.407-10.172 4.407zM94.449 16.552H50.76c-.581 0-1.162-.49-1.162-1.175 0-.686.484-1.176 1.162-1.176H94.45c.58 0 1.162.49 1.162 1.175 0 .686-.581 1.176-1.162 1.176zM94.449 43.095H50.76c-.581 0-1.162-.49-1.162-1.175 0-.686.484-1.176 1.162-1.176H94.45c.58 0 1.162.49 1.162 1.175 0 .686-.581 1.176-1.162 1.176zM94.449 29.872H50.76c-.581 0-1.162-.49-1.162-1.175 0-.686.484-1.175 1.162-1.175H94.45c.58 0 1.162.49 1.162 1.175s-.581 1.175-1.162 1.175z"/><path fill="#2A3052" d="M94.449 43.095H50.76c-.581 0-1.162-.49-1.162-1.175 0-.686.484-1.176 1.162-1.176H94.45c.58 0 1.162.49 1.162 1.175 0 .686-.581 1.176-1.162 1.176zM81.37 56.513H16.467c-.581 0-1.162-.49-1.162-1.176 0-.587.484-1.175 1.162-1.175h67.034l-2.13 2.35zM76.042 69.833H16.467c-.581 0-1.162-.49-1.162-1.175 0-.686.484-1.078 1.162-1.078h60.06l-.485 2.253z"/></svg>