<svg xmlns="http://www.w3.org/2000/svg" width="140" height="120" fill="none"><defs/><path fill="#2A3052" d="M118.098 57V15.9c0-2.5-2-4.5-4.5-4.5h-103.4c-2.5 0-4.5 2-4.5 4.5v71.2c0 2.5 2 4.5 4.5 4.5h72.3l.8 2.3h-73.1c-3.8 0-6.8-3.1-6.8-6.8V15.9c0-3.8 3.1-6.8 6.8-6.8h103.3c3.8 0 6.8 3.1 6.8 6.8v41.9l-2.2-.8z"/><path fill="#2A3052" d="M110.498 111.6c-14.9 0-27.1-12.1-27.1-27.1 0-15 12.1-27.1 27.1-27.1 15 0 27.1 12.1 27.1 27.1 0 15-12.1 27.1-27.1 27.1zm0-51.8c-13.6 0-24.8 11.1-24.8 24.8 0 13.7 11.1 24.8 24.8 24.8 13.6 0 24.8-11.1 24.8-24.8 0-13.7-11.1-24.8-24.8-24.8zM30.9 19.8c-9.2 0-16.7 7.5-16.7 16.7s7.5 16.7 16.7 16.7 16.7-7.5 16.7-16.7-7.5-16.7-16.7-16.7zm0 2.3c7.9 0 14.4 6.5 14.4 14.4 0 3-.9 5.7-2.5 8a17.3 17.3 0 00-8.2-4.4c1.4-1.2 2.2-2.9 2.2-4.8 0-3.5-2.8-6.3-6.3-6.3s-6.3 2.8-6.3 6.3c0 2.1 1 3.9 2.6 5-2.9.8-5.5 2.3-7.6 4.5-1.7-2.4-2.7-5.3-2.7-8.4 0-7.8 6.5-14.3 14.4-14.3zm-.3 17.2c-2.2 0-4-1.8-4-4s1.8-4 4-4 4 1.8 4 4c-.1 2.3-1.9 4-4 4zm.3 11.6c-4 0-7.5-1.6-10.1-4.2 2.7-2.9 6.5-4.5 10.5-4.5 3.8 0 7.4 1.5 10.1 4.2-2.6 2.7-6.4 4.5-10.5 4.5zM100.802 26h-45c-.6 0-1.2-.5-1.2-1.2 0-.6.5-1.2 1.2-1.2h45.1c.6 0 1.2.5 1.2 1.2-.1.7-.6 1.2-1.3 1.2zM100.802 53h-45c-.6 0-1.2-.5-1.2-1.2 0-.6.5-1.2 1.2-1.2h45.1c.6 0 1.2.5 1.2 1.2-.1.7-.6 1.2-1.3 1.2zM100.802 39.5h-45c-.6 0-1.2-.5-1.2-1.2s.5-1.2 1.2-1.2h45.1c.6 0 1.2.5 1.2 1.2s-.6 1.2-1.3 1.2z"/><path fill="#2A3052" d="M100.802 53h-45c-.6 0-1.2-.5-1.2-1.2 0-.6.5-1.2 1.2-1.2h45.1c.6 0 1.2.5 1.2 1.2-.1.7-.6 1.2-1.3 1.2zM87.4 66.7h-67c-.6 0-1.2-.5-1.2-1.2s.5-1.2 1.2-1.2h69.2l-2.2 2.4zM81.8 80.4H20.4c-.6 0-1.2-.5-1.2-1.2s.5-1.2 1.2-1.2h62l-.6 2.4z"/><path fill="#E98024" d="M108 96.7c0-1.6 1.1-2.7 2.5-2.7 1.6 0 2.5 1.1 2.5 2.7 0 1.5-1 2.7-2.5 2.7-1.5-.1-2.5-1.2-2.5-2.7zm1.1-6.2l-.6-20.7h4.1l-.6 20.7h-2.9z"/></svg>