<svg width="64" height="71" fill="none" xmlns="http://www.w3.org/2000/svg"><path d="M37.17 50.58H15.131a2.749 2.749 0 01-2.744-2.745v-30.64a2.748 2.748 0 012.744-2.743h15.32a.86.86 0 01.86.86v7.742h7.743a.86.86 0 01.86.86v23.92a2.749 2.749 0 01-2.744 2.747zM15.131 16.173c-.564 0-1.023.46-1.023 1.024v30.64c0 .563.459 1.024 1.023 1.024H37.17c.564 0 1.024-.46 1.024-1.025v-23.06h-7.742a.86.86 0 01-.86-.861v-7.742h-14.46z" fill="#2A3052"/><path d="M39.054 24.774a.864.864 0 01-.61-.251l-8.601-8.602a.86.86 0 011.216-1.216l8.602 8.602a.86.86 0 01-.607 1.467zm12.303 30.968H28.47c-1.28 0-2.32-1.04-2.32-2.32a.86.86 0 011.72 0c0 .331.27.6.6.6h22.886c.33 0 .6-.269.6-.6V21.933a.6.6 0 00-.6-.6h-8.009a.86.86 0 010-1.721h8.009c1.28 0 2.32 1.04 2.32 2.32v31.49a2.322 2.322 0 01-2.32 2.319z" fill="#2A3052"/><path fill-rule="evenodd" clip-rule="evenodd" d="M22.376 30.649h-.734v-3.6a.55.55 0 00-.546-.554.55.55 0 00-.547.554v3.6h-.734a.55.55 0 00-.546.554v8.005a.55.55 0 00.546.554h.734v5.277a.55.55 0 00.547.554.55.55 0 00.546-.554v-5.277h.734a.55.55 0 00.547-.554v-8.005a.55.55 0 00-.547-.554zm-1.271 1.108h-.743v6.897h1.468v-6.897h-.725zm8.534-2.146h-.734a.55.55 0 00-.547.554v6.041a.55.55 0 00.547.554h.734v7.471a.55.55 0 00.547.554.55.55 0 00.546-.554v-7.47h.734a.55.55 0 00.546-.555v-6.041a.55.55 0 00-.546-.554h-.734V27.25a.55.55 0 00-.546-.555.55.55 0 00-.547.555v2.36zm.535 1.108h-.723v4.933h1.468V30.72h-.745zm-3.987 4.106h.734a.55.55 0 01.547.554v5.83a.55.55 0 01-.547.555h-.734v2.361a.55.55 0 01-.546.554.55.55 0 01-.547-.554v-2.361h-.734a.55.55 0 01-.546-.554v-5.831a.55.55 0 01.546-.554h.734V29.2a.55.55 0 01.547-.554.55.55 0 01.546.554v5.624zm.188 5.83h-1.468v-4.722h1.468v4.723zm19.84-7.603h.734a.55.55 0 01.547.554v6.041a.55.55 0 01-.547.554h-.733v7.471a.55.55 0 01-.547.554.55.55 0 01-.546-.554v-7.47h-.735a.55.55 0 01-.546-.555v-6.041a.55.55 0 01.546-.554h.735V30.69a.55.55 0 01.546-.554.55.55 0 01.547.554v2.362zm-4.544 5.214h.734a.55.55 0 01.546.554v5.83a.55.55 0 01-.546.555h-.734v2.361a.55.55 0 01-.547.554.55.55 0 01-.546-.554v-2.361h-.734a.55.55 0 01-.546-.554V38.82a.55.55 0 01.546-.554h.734v-5.624a.55.55 0 01.546-.554.55.55 0 01.547.554v5.624zm3.998.827h.734V34.16h-1.468v4.933h.734zm-5.279.28h1.468v4.724H40.39v-4.723z" fill="#2A3052"/><path d="M21.763 0a.955.955 0 00-.946.963v3.52a12.123 12.123 0 00-17.36.286A12.621 12.621 0 000 13.489c0 .531.424.963.946.963a.955.955 0 00.946-.964C1.894 7.635 6.555 2.891 12.303 2.892c2.92.001 5.705 1.25 7.676 3.443l-4.192 1.423a.969.969 0 00-.6 1.22.944.944 0 001.198.61l5.677-1.927a.962.962 0 00.648-.917V.964A.955.955 0 0021.763 0zm20.474 70.194a.955.955 0 00.946-.964v-3.52a12.123 12.123 0 0017.36-.285A12.622 12.622 0 0064 56.705a.955.955 0 00-.946-.963.955.955 0 00-.947.963c0 5.853-4.662 10.597-10.41 10.596-2.92 0-5.705-1.25-7.676-3.442l4.192-1.423a.969.969 0 00.6-1.22.944.944 0 00-1.198-.61l-5.677 1.926a.962.962 0 00-.648.918v5.78c0 .532.424.963.947.963z" fill="#2A3052"/></svg>