<svg width="140" height="140" fill="none" xmlns="http://www.w3.org/2000/svg"><path d="M1 1h138v138H1V1z" fill="#F8F8F9"/><path fill="#F8F8F9" d="M26 26h88v88H26z"/><path d="M78.044 70.265c12.223 0 22.132-9.91 22.132-22.133C100.176 35.91 90.267 26 78.044 26 65.82 26 55.91 35.909 55.91 48.132c0 12.224 9.91 22.133 22.133 22.133z" fill="#2A3052"/><path d="M94.865 48.132c0 .56-.027 1.116-.082 1.66a16.61 16.61 0 0 1-1.58 5.625 16.763 16.763 0 0 1-3.41 4.739 16.83 16.83 0 0 1-4.818 3.302 16.52 16.52 0 0 1-2.39.872 16.565 16.565 0 0 1-3.271.576 16.685 16.685 0 0 1-2.54 0 16.565 16.565 0 0 1-3.271-.576 16.52 16.52 0 0 1-2.391-.872 16.83 16.83 0 0 1-4.818-3.301 16.763 16.763 0 0 1-2.134-2.539 16.627 16.627 0 0 1-1.277-2.2v-.002a16.545 16.545 0 0 1-1.138-3.117 16.492 16.492 0 0 1-.44-2.506 16.549 16.549 0 0 1 0-3.321 16.632 16.632 0 0 1 1.578-5.624v-.001c.37-.769.797-1.503 1.277-2.2a16.724 16.724 0 0 1 2.133-2.537 16.845 16.845 0 0 1 4.82-3.302 16.52 16.52 0 0 1 2.39-.871 16.565 16.565 0 0 1 3.27-.576c.42-.033.843-.048 1.27-.048.429 0 .851.015 1.27.048a16.51 16.51 0 0 1 3.272.576c.825.23 1.622.522 2.39.871a16.845 16.845 0 0 1 4.82 3.302 16.928 16.928 0 0 1 3.41 4.738 16.64 16.64 0 0 1 1.578 5.624c.055.547.082 1.1.082 1.66z" fill="#F8F8F9"/><path d="M48.132 104.165c12.224 0 22.133-9.909 22.133-22.132s-9.91-22.132-22.133-22.132C35.91 59.9 26 69.81 26 82.033s9.909 22.132 22.132 22.132z" fill="#2A3052"/><path d="M64.954 82.033c0 .56-.028 1.114-.083 1.66a16.632 16.632 0 0 1-2.855 7.826 16.733 16.733 0 0 1-2.133 2.537 16.861 16.861 0 0 1-4.818 3.303 16.8 16.8 0 0 1-13.864 0 16.834 16.834 0 0 1-4.82-3.303 16.94 16.94 0 0 1-3.408-4.737v-.002a16.632 16.632 0 0 1-1.578-5.624 16.574 16.574 0 0 1 0-3.32 16.632 16.632 0 0 1 1.578-5.624v-.002a16.919 16.919 0 0 1 8.228-8.04 16.707 16.707 0 0 1 6.932-1.495c.427 0 .85.015 1.27.048a16.8 16.8 0 0 1 5.663 1.447 16.944 16.944 0 0 1 8.228 8.042 16.632 16.632 0 0 1 1.577 5.624c.055.546.083 1.1.083 1.66z" fill="#F8F8F9"/><path d="M91.868 114C104.09 114 114 104.091 114 91.868c0-12.224-9.909-22.133-22.132-22.133-12.224 0-22.133 9.91-22.133 22.133 0 12.223 9.91 22.132 22.133 22.132z" fill="#2A3052"/><path d="M108.687 91.868c0 .56-.027 1.113-.082 1.66a16.612 16.612 0 0 1-1.578 5.624v.001l-1.275 2.2a16.942 16.942 0 0 1-2.133 2.537 16.78 16.78 0 0 1-13.022 4.749 16.524 16.524 0 0 1-3.272-.576 16.815 16.815 0 0 1-7.209-4.173 16.666 16.666 0 0 1-2.132-2.537 16.712 16.712 0 0 1-2.938-9.485c0-.56.028-1.116.083-1.66a16.42 16.42 0 0 1 .44-2.507 16.769 16.769 0 0 1 2.415-5.32 16.763 16.763 0 0 1 2.134-2.538 16.955 16.955 0 0 1 4.816-3.302 16.824 16.824 0 0 1 2.391-.87 16.59 16.59 0 0 1 3.272-.577 16.705 16.705 0 0 1 2.54 0c1.125.085 2.22.279 3.272.576.825.23 1.622.523 2.39.871a16.859 16.859 0 0 1 4.818 3.302 16.888 16.888 0 0 1 3.41 4.739v.002a16.55 16.55 0 0 1 1.138 3.117c.208.813.357 1.65.44 2.506.055.545.082 1.1.082 1.66z" fill="#F8F8F9"/><path d="M83.04 44.766v-.02a4.663 4.663 0 0 0-3.357-4.47v-.598a1.289 1.289 0 1 0-2.578 0v.412h-.779v-.412a1.289 1.289 0 1 0-2.578 0v.412h-.453a1.289 1.289 0 1 0 0 2.578h.453v10.929h-.453a1.289 1.289 0 1 0 0 2.578h.453v.413a1.289 1.289 0 1 0 2.578 0v-.413h.779v.413a1.289 1.289 0 1 0 2.578 0v-.598a4.663 4.663 0 0 0 3.357-4.47v-.02a4.643 4.643 0 0 0-1.445-3.367 4.642 4.642 0 0 0 1.445-3.367zM80.462 51.5v.02a2.08 2.08 0 0 1-2.078 2.078h-2.058v-4.175h2.058a2.08 2.08 0 0 1 2.078 2.078zm-4.136-4.655v-4.176h2.058a2.08 2.08 0 0 1 2.078 2.078v.02a2.08 2.08 0 0 1-2.078 2.078h-2.058zm20.746 49.82h-5.534v-3.862l1.56-.382a1.29 1.29 0 0 0-.609-2.506l-.951.233V84.7a1.289 1.289 0 1 0-2.578 0v6.094c-1.165.299-1.59.422-1.618.43a1.289 1.289 0 0 0 .723 2.475c.005-.001.256-.074.895-.242v4.496c0 .712.577 1.29 1.289 1.29h6.823a1.289 1.289 0 1 0 0-2.578zM53.333 82.02l-5.102-1.263a.406.406 0 0 0-.196 0l-5.103 1.263a.407.407 0 0 1-.443-.611l5.298-8.465a.407.407 0 0 1 .691 0l5.298 8.465c.195.31-.087.7-.443.611z" fill="#2A3052"/><path d="m43.435 83.79 4.538-2.026a.39.39 0 0 1 .319 0l4.538 2.026a.39.39 0 0 1 .133.616l-4.538 5.106a.39.39 0 0 1-.584 0l-4.538-5.106a.39.39 0 0 1 .133-.616z" fill="#2A3052"/><path d="M138 2v136H2V2h136zm2-2H0v140h140V0z" fill="#CDCCCC"/></svg>