<svg width="72" height="45" fill="none" xmlns="http://www.w3.org/2000/svg"><path d="m3.375 22.217 5.188 3.07V13.605l-5.188 8.612z" fill="#828CAD"/><path d="M8.563 13.605v11.682l5.193-3.07-5.193-8.612z" fill="#63688E"/><path d="m3.375 23.205 5.188 7.313v-4.25l-5.188-3.063z" fill="#8A93B3"/><path d="M8.563 26.267v4.251l5.193-7.313-5.193 3.062z" fill="#63688E"/><path opacity=".6" d="m8.563 19.861-5.188 2.357 5.188 3.069V19.86z" fill="#63688E"/><path opacity=".6" d="M8.563 19.861v5.426l5.193-3.07-5.194-2.356z" fill="#474A75"/><path d="M30.094 16.734c.233 0 .422.19.422.422v4.084a2.39 2.39 0 0 1 3.938 1.823v2.53a.422.422 0 0 1-.845 0v-2.53a1.547 1.547 0 0 0-3.093 0v2.53a.422.422 0 0 1-.844 0v-8.437c0-.233.189-.422.422-.422zm32.344 3.938c-.59 0-1.13.214-1.547.568v-.146a.422.422 0 0 0-.844 0v4.5a.422.422 0 0 0 .844 0v-2.532a1.547 1.547 0 0 1 3.093 0v2.532a.422.422 0 0 0 .844 0v-2.532a1.547 1.547 0 0 1 3.094 0v2.532a.422.422 0 0 0 .844 0v-2.532a2.39 2.39 0 0 0-4.36-1.356 2.388 2.388 0 0 0-1.968-1.034zm-8.016.422a.422.422 0 1 0-.844 0v2.531a2.39 2.39 0 0 0 3.938 1.823v.146a.422.422 0 0 0 .843 0v-4.5a.422.422 0 1 0-.843 0v2.531a1.547 1.547 0 0 1-3.094 0v-2.531zm-11.25 0v4.5a.422.422 0 0 0 .844 0v-2.77l.004-.018a2.03 2.03 0 0 1 .277-.635c.22-.331.593-.655 1.266-.655a.422.422 0 0 0 0-.844c-.687 0-1.189.237-1.547.55v-.128a.422.422 0 0 0-.844 0zm-16.594-1.688a.422.422 0 0 0-.844 0v1.266h-.984a.422.422 0 0 0 0 .844h.984v4.078a.422.422 0 0 0 .844 0v-4.078h.985a.422.422 0 1 0 0-.844h-.985v-1.266z" fill="#63688E"/><path fill-rule="evenodd" clip-rule="evenodd" d="M20.392 20.706a2.672 2.672 0 1 0 1.725 4.226.422.422 0 1 0-.678-.502 1.829 1.829 0 0 1-3.249-.664h4.029a.422.422 0 0 0 .422-.422 2.672 2.672 0 0 0-2.249-2.638zm1.355 2.216H18.19a1.828 1.828 0 0 1 3.557 0zm15.958-1.861a2.672 2.672 0 0 1 4.06 2.283v.422h-4.45a1.827 1.827 0 0 0 3.249.664.422.422 0 1 1 .678.502 2.672 2.672 0 1 1-3.537-3.87zm-.39 1.86h3.558a1.828 1.828 0 0 0-3.558 0zm12.89-2.215a2.672 2.672 0 1 0 1.725 4.226.422.422 0 1 0-.679-.502 1.829 1.829 0 0 1-3.248-.664h4.45v-.422a2.672 2.672 0 0 0-2.248-2.638zm1.355 2.216h-3.558a1.828 1.828 0 0 1 3.558 0z" fill="#63688E"/></svg>