<svg width="72" height="45" fill="none" xmlns="http://www.w3.org/2000/svg"><path d="M15.792 14.625a7.919 7.919 0 1 0 0 15.837 7.919 7.919 0 0 0 0-15.837zm.128 8.18-.823 2.779h4.405a.226.226 0 0 1 .217.29l-.383 1.319a.303.303 0 0 1-.291.218h-6.73l1.138-3.842-1.258.383.277-.899 1.26-.383 1.598-5.398a.3.3 0 0 1 .29-.22h1.704a.226.226 0 0 1 .219.287l-1.341 4.565 1.258-.383-.27.914-1.27.37z" fill="#A5A8A9"/><path d="M30.843 16.965a.603.603 0 1 1 .12 1.2.603.603 0 0 1-.12-1.2zm-3.046.065h.494c.096 0 .153.041.138.152l-1.285 10.086a.148.148 0 0 1-.17.147h-.49c-.101 0-.134-.052-.122-.147l1.268-10.09a.158.158 0 0 1 .167-.149zm2.576 2.907h.489c.107 0 .14.052.136.151l-.903 7.18a.154.154 0 0 1-.113.144.155.155 0 0 1-.065.003h-.49c-.092 0-.15-.05-.138-.147l.915-7.184a.153.153 0 0 1 .17-.147z" fill="#4D4D4E"/><path fill-rule="evenodd" clip-rule="evenodd" d="M52.383 19.818a2.79 2.79 0 0 0-2.772 2.12 14.578 14.578 0 0 0-.305 1.736 15.414 15.414 0 0 0-.137 1.736 2.106 2.106 0 0 0 .61 1.532c.399.383.945.575 1.638.575a2.79 2.79 0 0 0 1.76-.575c.498-.382.85-.923.997-1.532.138-.572.24-1.151.304-1.736.078-.58.124-1.165.136-1.75a2.017 2.017 0 0 0-.603-1.533 2.265 2.265 0 0 0-1.628-.573zm1.385 3.159c-.046.366-.075.6-.085.697-.092.741-.174 1.272-.245 1.588a2.013 2.013 0 0 1-.703 1.15c-.35.284-.79.435-1.241.428a1.45 1.45 0 0 1-1.546-1.532 7.45 7.45 0 0 1 .069-.92c.046-.365.075-.597.084-.697.092-.71.175-1.24.245-1.586.097-.452.345-.858.704-1.149a1.94 1.94 0 0 1 1.24-.43 1.451 1.451 0 0 1 1.547 1.533 7.593 7.593 0 0 1-.07.918z" fill="#4D4D4E"/><path d="M56.934 19.937h.489c.095 0 .136.052.122.147l-.902 7.184a.153.153 0 0 1-.053.11.155.155 0 0 1-.116.037h-.49c-.092 0-.151-.044-.138-.147l.92-7.184a.159.159 0 0 1 .168-.147zm6.683.423c-.337-.352-.81-.526-1.423-.526a2.62 2.62 0 0 0-1.101.23 2.242 2.242 0 0 0-.859.689c-.04.038-.06.029-.06-.03l.076-.639c.011-.09-.029-.147-.123-.147h-.488a.156.156 0 0 0-.169.147l-.902 7.184c-.012.093.021.147.123.147h.49a.158.158 0 0 0 .153-.087.158.158 0 0 0 .015-.06l.658-5.147c.093-.447.33-.85.674-1.15a1.799 1.799 0 0 1 1.212-.44 1.356 1.356 0 0 1 1.037.415c.268.303.406.7.383 1.104.002.11-.003.219-.016.327l-.626 4.89a.119.119 0 0 0 .023.104.144.144 0 0 0 .115.044h.488a.156.156 0 0 0 .169-.147l.628-5.013a4.42 4.42 0 0 0 .03-.445 1.998 1.998 0 0 0-.507-1.45zm-5.844-3.327a.603.603 0 1 0-.56 1.069.603.603 0 0 0 .56-1.07zm-13.566 3.371a2.798 2.798 0 0 1 1.776-.586 2.26 2.26 0 0 1 1.63.565 2.012 2.012 0 0 1 .605 1.533v.174a.087.087 0 0 1-.026.063.088.088 0 0 1-.064.025h-.575a.113.113 0 0 1-.112-.117v-.011a1.451 1.451 0 0 0-1.548-1.533 1.93 1.93 0 0 0-1.24.43 2.014 2.014 0 0 0-.695 1.156c-.073.345-.153.876-.245 1.586-.012.1-.046.393-.084.698a7.584 7.584 0 0 0-.07.92 1.45 1.45 0 0 0 1.546 1.532c.451.007.89-.145 1.24-.43.36-.29.608-.696.705-1.149v-.029a.094.094 0 0 1 .094-.07h.603a.069.069 0 0 1 .067.053.07.07 0 0 1 0 .03 6.856 6.856 0 0 1-.04.164 2.727 2.727 0 0 1-.994 1.532 2.794 2.794 0 0 1-1.76.575c-.694 0-1.24-.192-1.639-.575a2.091 2.091 0 0 1-.612-1.532c.014-.58.06-1.16.137-1.736.07-.584.173-1.163.307-1.735a2.767 2.767 0 0 1 .994-1.533z" fill="#4D4D4E"/><path fill-rule="evenodd" clip-rule="evenodd" d="M41.04 20.397a2.264 2.264 0 0 0-1.63-.575 2.789 2.789 0 0 0-2.771 2.12 14.783 14.783 0 0 0-.305 1.736 11.719 11.719 0 0 0-.138 1.735 2.108 2.108 0 0 0 .611 1.533c.399.383.945.574 1.638.574a2.79 2.79 0 0 0 1.76-.574c.498-.382.85-.923.997-1.533l.04-.162a.069.069 0 0 0-.067-.085h-.61a.096.096 0 0 0-.093.071v.029a2.013 2.013 0 0 1-.703 1.15c-.353.28-.794.428-1.245.417a1.452 1.452 0 0 1-1.546-1.533 7.17 7.17 0 0 1 .055-.802l4.423-1.37a.18.18 0 0 0 .142-.178c.027-.23.044-.619.048-1.017a2.108 2.108 0 0 0-.605-1.536zm-.174 2.067a.101.101 0 0 1-.072.093l-3.667 1.132v-.015c.092-.71.175-1.241.245-1.586.097-.452.345-.858.703-1.15.352-.282.79-.434 1.242-.428a1.51 1.51 0 0 1 1.122.436c.452.443.454.916.427 1.517z" fill="#4D4D4E"/><path d="M34.586 26.605a.118.118 0 0 0-.062.015c-.314.148-.914.29-1.232.021-.228-.22-.18-.615-.127-1.056l.007-.055.536-4.315h1.532a.192.192 0 0 0 .123-.035.163.163 0 0 0 .046-.115l.042-.34c.006-.095-.034-.148-.122-.148h-1.533l.291-2.376c.014-.084-.01-.147-.122-.147h-.473a.154.154 0 0 0-.169.147l-.215 1.677-.091.756-.648 5.26c-.08.692.063 1.245.624 1.502a2.146 2.146 0 0 0 1.533-.021.18.18 0 0 0 .113-.144l.061-.496a.12.12 0 0 0-.053-.11.118.118 0 0 0-.06-.02z" fill="#4D4D4E"/></svg>