<svg width="72" height="45" fill="none" xmlns="http://www.w3.org/2000/svg"><path d="M25.968 18.687h.492c.126 0 .227.102.227.227v4.404c0 1.392.754 2.271 2.157 2.271s2.157-.879 2.157-2.27v-4.404c0-.126.102-.228.228-.228h.491c.126 0 .228.102.228.227v4.416c0 1.895-1.04 3.103-3.104 3.103s-3.103-1.22-3.103-3.092v-4.426a.223.223 0 0 1 .227-.227zm7.43 6a.201.201 0 0 1 .296-.021c.51.495 1.272.923 2.238.923 1.357 0 1.791-.73 1.791-1.312 0-.915-.923-1.165-1.928-1.438-1.22-.321-2.58-.662-2.58-2.157 0-1.256 1.12-2.111 2.616-2.111 1.074 0 1.924.328 2.55.907.09.082.099.222.02.315l-.297.364a.2.2 0 0 1-.29.018c-.557-.521-1.29-.76-2.053-.76-.914 0-1.564.492-1.564 1.207 0 .766.88.994 1.85 1.255 1.242.333 2.657.72 2.657 2.318 0 1.106-.754 2.235-2.806 2.235-1.229 0-2.155-.433-2.784-1.062a.23.23 0 0 1-.018-.303l.302-.377v-.001zm6.433-5.773c0-.126.101-.227.226-.227h2.373c2.361 0 3.904 1.654 3.904 3.811 0 2.168-1.54 3.798-3.904 3.798h-2.373a.227.227 0 0 1-.226-.226v-7.156zm2.602 6.538c1.849 0 2.92-1.324 2.92-2.955 0-1.644-1.04-2.966-2.92-2.966h-1.654v5.921h1.654zm13.37-1.915c0-1.599 1.052-2.888 2.729-2.888 1.676 0 2.727 1.29 2.727 2.888 0 1.598-1.051 2.9-2.727 2.9-1.678 0-2.728-1.305-2.728-2.9zm4.554 0c0-1.118-.65-2.123-1.825-2.123-1.177 0-1.838 1.005-1.838 2.123 0 1.129.661 2.134 1.837 2.134s1.825-1.005 1.825-2.134zm1.723-4.256c0-.32.262-.571.57-.571.32 0 .583.25.583.57a.583.583 0 0 1-.582.583.584.584 0 0 1-.571-.582zm.376 1.505h.399c.125 0 .226.102.226.226v5.058a.227.227 0 0 1-.226.226h-.4a.227.227 0 0 1-.227-.226v-5.058c0-.124.103-.226.227-.226zm5.557 1.906c0-.968-.492-1.278-1.232-1.278-.672 0-1.312.411-1.633.857v3.799a.227.227 0 0 1-.227.226h-.398a.227.227 0 0 1-.228-.226v-5.058c0-.124.102-.226.228-.226h.398c.126 0 .227.102.227.226v.571c.387-.456 1.142-.934 1.962-.934 1.153 0 1.758.582 1.758 1.78v3.637a.227.227 0 0 1-.226.228h-.4a.227.227 0 0 1-.227-.228v-3.374h-.002zm-19.516-.194c0-2.34 1.724-3.936 3.88-3.936 1.279 0 2.176.557 2.78 1.32a.201.201 0 0 1-.058.3l-.425.235a.227.227 0 0 1-.288-.055 2.599 2.599 0 0 0-2.008-.953c-1.633 0-2.9 1.28-2.9 3.092 0 1.803 1.267 3.092 2.9 3.092.83 0 1.56-.384 2.008-.952a.23.23 0 0 1 .288-.059l.431.237a.2.2 0 0 1 .058.303c-.63.768-1.507 1.316-2.786 1.316-2.157-.004-3.88-1.6-3.88-3.94z" fill="#4D4E50"/><path d="M12.375 31.5a9 9 0 1 0 0-18 9 9 0 0 0 0 18z" fill="#2775CA"/><path d="M10.688 28.512c0 .212-.165.333-.37.268a6.753 6.753 0 0 1 0-12.862c.205-.063.37.057.37.27v.522c0 .141-.109.307-.243.353a5.636 5.636 0 0 0-3.696 5.284 5.636 5.636 0 0 0 3.696 5.283.41.41 0 0 1 .243.353v.53z" fill="#fff"/><path d="M12.936 26.567a.283.283 0 0 1-.282.284h-.561a.284.284 0 0 1-.282-.284v-.889c-1.229-.166-1.829-.854-1.991-1.79a.262.262 0 0 1 .261-.303h.643c.134 0 .246.095.275.23.12.557.441.985 1.426.985.727 0 1.242-.407 1.242-1.014s-.303-.837-1.37-1.013c-1.573-.212-2.318-.688-2.318-1.924 0-.952.719-1.693 1.835-1.852v-.872c0-.156.127-.283.283-.283h.56c.156 0 .284.127.284.283v.896c.906.163 1.482.678 1.67 1.532a.261.261 0 0 1-.26.314h-.59a.286.286 0 0 1-.273-.207c-.158-.545-.546-.777-1.22-.777-.745 0-1.13.36-1.13.864 0 .534.218.802 1.361.968 1.548.211 2.344.652 2.344 1.969 0 1-.74 1.806-1.901 1.994v.89h-.006z" fill="#fff"/><path d="M14.434 28.78c-.205.064-.37-.057-.37-.269v-.523c0-.154.094-.3.242-.352a5.637 5.637 0 0 0 3.695-5.284 5.638 5.638 0 0 0-3.694-5.284.406.406 0 0 1-.244-.353v-.522c0-.211.166-.335.37-.268a6.752 6.752 0 0 1 4.694 6.43 6.758 6.758 0 0 1-4.693 6.424z" fill="#fff"/></svg>