<svg width="72" height="45" fill="none" xmlns="http://www.w3.org/2000/svg"><path d="m21.128 15.504 2.84 6.197-8.046 8.104L7.875 21.7l2.84-6.197h10.414zm-1.75 2.412h-7.022v1.73h2.578v1.136c-2.095.096-3.672.513-3.672 1.015 0 .501 1.577.919 3.672 1.017v3.637H16.8v-3.637c2.093-.097 3.666-.515 3.666-1.016 0-.5-1.573-.919-3.666-1.015l-.001-.002v-1.135h2.579v-1.73zm-4.444 2.995v1.27c.12.008.468.029.948.029.576 0 .863-.026.917-.03v-1.268c1.849.084 3.227.408 3.227.797 0 .387-1.38.712-3.227.795v-.002c-.049.004-.28.017-.782.019h-.144c-.482 0-.82-.013-.939-.019v.001c-1.852-.082-3.234-.407-3.234-.797 0-.387 1.383-.712 3.234-.794z" fill="#1DB193"/><path d="M30.02 18.389v1.835h1.77v1.377h-1.784v2.792c0 .616.338.918.834.918.247 0 .533-.08.767-.197l.444 1.363a3.543 3.543 0 0 1-1.316.275c-1.392.053-2.303-.747-2.303-2.36V21.6h-1.198v-1.377h1.198V18.56l1.586-.171h.001zm30.526 1.749.117.745c.495-.799 1.159-.917 1.81-.917.663 0 1.301.263 1.652.616l-.716 1.39c-.325-.276-.624-.42-1.144-.42-.834 0-1.602.445-1.602 1.637v3.409h-1.588v-6.463l1.471.003zm-3.891 2.476c-.105-.84-.755-1.26-1.666-1.26-.859 0-1.562.42-1.797 1.26h3.463zm-3.488 1.324c.104.8.794 1.377 1.913 1.377.585 0 1.354-.224 1.719-.604l1.014 1.01c-.677.707-1.783 1.049-2.76 1.049-2.212 0-3.528-1.377-3.528-3.448 0-1.966 1.328-3.382 3.411-3.382 2.148 0 3.489 1.337 3.242 3.998h-5.011zm-7.002-6.516v3.592c.573-.748 1.275-.97 2.004-.97 1.822 0 2.63 1.245 2.63 3.146v3.408H49.21v-3.393c0-1.18-.612-1.678-1.458-1.678-.938 0-1.588.799-1.588 1.77V26.6h-1.588v-9.176h1.588v-.002zm-4.217.892v1.835h1.77v1.377h-1.783v2.791c0 .617.34.918.833.918.248 0 .534-.079.769-.197l.442 1.363a3.526 3.526 0 0 1-1.314.276c-1.393.052-2.304-.749-2.304-2.36v-2.79h-1.198v-1.378h1.198v-1.662l1.587-.171v-.002zm-4.386 4.3c-.105-.838-.756-1.259-1.667-1.259-.858 0-1.562.42-1.796 1.26h3.463zm-3.489 1.325c.104.8.794 1.377 1.914 1.377.585 0 1.353-.224 1.718-.604l1.015 1.01c-.678.707-1.783 1.049-2.76 1.049-2.214 0-3.528-1.377-3.528-3.448 0-1.966 1.328-3.382 3.41-3.382 2.148 0 3.487 1.337 3.24 3.998h-5.009z" fill="#5B5A5D"/></svg>