<svg width="680" height="97" xmlns="http://www.w3.org/2000/svg"><g fill="none" fill-rule="evenodd"><path fill="#E5E5E5" d="M0 55h680v2H0z"/><path stroke="#DEDEDE" stroke-width="2" fill="#F2F2F2" d="M551 41h7v13h-7zM528 41h7v13h-7z"/><path fill="#2A3052" d="M517 0h52v43h-52z"/><path d="M537.31 28.216c.66 0 1.251-.102 1.773-.306a3.825 3.825 0 001.332-.855c.366-.366.645-.804.837-1.314.192-.51.288-1.071.288-1.683 0-.612-.093-1.158-.279-1.638a3.396 3.396 0 00-.783-1.215 3.518 3.518 0 00-1.188-.765 4.034 4.034 0 00-1.494-.27c-.66 0-1.179.126-1.557.378a3.951 3.951 0 00-1.017 1.008h-.126l.36-4.788h5.508v-1.332h-6.732l-.45 6.912 1.278.18a4.43 4.43 0 01.891-.747c.33-.21.783-.315 1.359-.315.864 0 1.518.228 1.962.684.444.456.666 1.098.666 1.926v.18c0 .828-.222 1.47-.666 1.926-.444.456-1.098.684-1.962.684-.384 0-.714-.039-.99-.117a2.462 2.462 0 01-.729-.333 2.947 2.947 0 01-.576-.522 5.567 5.567 0 01-.495-.684l-1.134.864c.192.276.405.54.639.792.234.252.507.48.819.684.312.204.669.366 1.071.486.402.12.867.18 1.395.18zm10.89 0c1.5 0 2.595-.57 3.285-1.71.69-1.14 1.035-2.736 1.035-4.788s-.345-3.648-1.035-4.788c-.69-1.14-1.785-1.71-3.285-1.71-1.5 0-2.595.57-3.285 1.71-.69 1.14-1.035 2.736-1.035 4.788s.345 3.648 1.035 4.788c.69 1.14 1.785 1.71 3.285 1.71zm0-1.314c-.492 0-.912-.102-1.26-.306a2.34 2.34 0 01-.846-.864 4.3 4.3 0 01-.477-1.314 8.46 8.46 0 01-.153-1.674v-2.052c0-.612.051-1.17.153-1.674a4.3 4.3 0 01.477-1.314 2.34 2.34 0 01.846-.864c.348-.204.768-.306 1.26-.306s.912.102 1.26.306c.348.204.63.492.846.864a4.3 4.3 0 01.477 1.314 8.46 8.46 0 01.153 1.674v2.052a8.46 8.46 0 01-.153 1.674 4.3 4.3 0 01-.477 1.314 2.34 2.34 0 01-.846.864c-.348.204-.768.306-1.26.306z" fill="#FFF" fill-rule="nonzero"/><path d="M511.248 96.156c.607 0 1.12-.078 1.54-.234.42-.156.761-.394 1.021-.715.26-.32.449-.724.565-1.209.117-.485.176-1.057.176-1.716v-5.356h-1.092v5.616c0 .867-.16 1.523-.481 1.97-.32.446-.884.669-1.69.669-.806 0-1.37-.223-1.69-.67-.32-.446-.481-1.102-.481-1.969v-5.616h-1.092v5.356c0 .659.054 1.23.163 1.716.108.485.288.888.539 1.209.251.32.583.559.995.715.411.156.92.234 1.527.234zm8.203 0c.485 0 .92-.065 1.306-.195a2.87 2.87 0 00.982-.546 2.32 2.32 0 00.617-.858c.143-.338.215-.715.215-1.131 0-.676-.2-1.218-.598-1.625-.399-.407-1.044-.71-1.937-.91l-.741-.169c-.572-.13-.999-.305-1.28-.526-.282-.221-.423-.549-.423-.982 0-.494.167-.864.5-1.111.334-.247.791-.371 1.372-.371.529 0 .97.1 1.326.299.355.2.659.472.91.819l.819-.598a3.391 3.391 0 00-1.241-1.105c-.49-.251-1.077-.377-1.762-.377-.442 0-.847.054-1.215.163a2.788 2.788 0 00-.95.474 2.14 2.14 0 00-.617.78 2.468 2.468 0 00-.221 1.066c0 .702.219 1.246.657 1.632.437.385 1.072.673 1.904.864l.741.169c.598.139 1.027.325 1.287.559.26.234.39.568.39 1.001 0 .52-.171.936-.513 1.248-.343.312-.839.468-1.489.468-.529 0-.988-.11-1.378-.331-.39-.221-.745-.544-1.066-.969l-.806.676a4 4 0 001.326 1.164c.52.281 1.148.422 1.885.422zm8.047-.156c.563 0 1.075-.095 1.534-.286.46-.19.852-.474 1.177-.852.325-.376.574-.849.747-1.416.173-.568.26-1.229.26-1.983s-.087-1.415-.26-1.982c-.173-.568-.422-1.04-.747-1.417a3.104 3.104 0 00-1.177-.852c-.46-.19-.97-.286-1.534-.286h-3.042V96h3.042zm0-.962h-1.95v-7.15h1.95c.373 0 .715.063 1.027.189.312.125.58.31.806.552.225.243.4.54.527.89.125.352.188.752.188 1.203v1.482c0 .45-.063.852-.188 1.203a2.555 2.555 0 01-.527.89 2.215 2.215 0 01-.806.553 2.724 2.724 0 01-1.027.188zm11.336.962l2.366-6.708h-1.001l-1.196 3.328-.728 2.288h-.065l-.728-2.288-1.17-3.328h-1.04L537.625 96h1.209zm6.24.156c.45 0 .86-.082 1.229-.247.368-.165.686-.4.955-.709.269-.307.477-.675.624-1.104.147-.43.221-.913.221-1.45 0-.529-.074-1.01-.221-1.443a3.266 3.266 0 00-.624-1.111 2.74 2.74 0 00-.955-.709 2.977 2.977 0 00-1.229-.247c-.45 0-.862.082-1.235.247-.373.165-.691.4-.956.709-.264.307-.47.678-.617 1.111a4.462 4.462 0 00-.221 1.443c0 .537.074 1.02.221 1.45.147.429.353.797.618 1.105.264.307.582.543.955.708.373.165.784.247 1.235.247zm0-.923c-.563 0-1.023-.173-1.378-.52-.355-.347-.533-.875-.533-1.586v-.962c0-.71.178-1.24.533-1.586.355-.347.815-.52 1.378-.52s1.023.173 1.378.52c.355.347.533.875.533 1.586v.962c0 .71-.178 1.24-.533 1.586-.355.347-.815.52-1.378.52zm6.773.767v-.91h-.988v-8.71h-1.04v8.541c0 .312.093.57.28.773.186.204.461.306.825.306h.923zm3.705.156c.277 0 .52-.035.728-.104.208-.07.386-.163.533-.28.147-.116.27-.25.37-.402.1-.152.185-.306.254-.462h.052V96h1.04v-6.708h-1.04v4.641c0 .225-.045.418-.136.579-.091.16-.213.292-.364.396a1.674 1.674 0 01-.52.234 2.336 2.336 0 01-.605.078c-1.023 0-1.534-.602-1.534-1.807v-4.121h-1.04v4.303c0 .815.204 1.445.611 1.892.407.446.958.669 1.651.669zm6.227-.156v-4.654a1.127 1.127 0 01.494-.962c.147-.104.316-.182.507-.234.19-.052.39-.078.598-.078.494 0 .858.152 1.092.455.234.303.351.754.351 1.352V96h1.04v-4.654c0-.217.043-.405.13-.565.087-.16.204-.293.351-.397a1.61 1.61 0 01.5-.234c.187-.052.384-.078.592-.078.511 0 .884.152 1.118.455.234.303.351.754.351 1.352V96h1.04v-4.303c0-.815-.193-1.445-.579-1.892-.385-.446-.92-.669-1.605-.669-.572 0-1.025.136-1.359.41a2.077 2.077 0 00-.682.955h-.026c-.182-.485-.46-.834-.832-1.047a2.426 2.426 0 00-1.222-.318 2.1 2.1 0 00-.676.097c-.19.065-.358.154-.5.267a1.667 1.667 0 00-.365.397c-.1.151-.188.314-.266.487h-.052v-1.092h-1.04V96h1.04zm12.831.156c.633 0 1.179-.14 1.638-.422.46-.282.797-.653 1.014-1.112l-.741-.533a1.961 1.961 0 01-.734.858 2.04 2.04 0 01-1.112.299c-.312 0-.591-.052-.838-.156a1.782 1.782 0 01-1.014-1.073 2.295 2.295 0 01-.137-.799v-.312h4.823v-.494a4.09 4.09 0 00-.201-1.313 3.044 3.044 0 00-.579-1.033 2.678 2.678 0 00-.91-.683 2.843 2.843 0 00-1.209-.247c-.46 0-.873.082-1.241.247-.369.165-.685.4-.95.709a3.242 3.242 0 00-.61 1.111 4.586 4.586 0 00-.215 1.443c0 .537.072 1.02.215 1.45.143.428.346.797.61 1.104.265.308.581.544.95.709a3.01 3.01 0 001.241.247zm1.781-4.03h-3.705v-.091c0-.295.048-.566.143-.813.095-.246.228-.461.397-.643a1.75 1.75 0 01.604-.422c.234-.1.494-.15.78-.15.537 0 .969.18 1.293.54.325.36.488.838.488 1.436v.143z" fill="#2A3052" fill-rule="nonzero"/><path d="M542.5 33a2.5 2.5 0 01.5 4.95V83h-1V37.95a2.5 2.5 0 01.5-4.95z" fill="#E98024"/><path d="M484.792 21.312V18.48h-11.184v2.832h11.184zm0 5.568v-2.832h-11.184v2.832h11.184z" fill="#E98024" fill-rule="nonzero"/><path stroke="#DEDEDE" stroke-width="2" fill="#F2F2F2" d="M424 41h7v13h-7zM401 41h7v13h-7z"/><path stroke="#DEDEDE" stroke-width="2" fill="#F2F2F2" d="M391 1h50v41h-50z"/><path d="M414.594 28v-1.332h-6.606l3.384-3.042c.396-.36.765-.72 1.107-1.08.342-.36.633-.729.873-1.107s.429-.777.567-1.197c.138-.42.207-.876.207-1.368 0-.54-.087-1.032-.261-1.476a3.323 3.323 0 00-.747-1.152 3.332 3.332 0 00-1.206-.756c-.48-.18-1.026-.27-1.638-.27-.612 0-1.143.084-1.593.252-.45.168-.834.39-1.152.666a3.839 3.839 0 00-.792.945c-.21.354-.375.717-.495 1.089l1.35.522c.084-.3.195-.579.333-.837s.312-.483.522-.675a2.28 2.28 0 01.747-.45 2.865 2.865 0 011.008-.162c.78 0 1.362.216 1.746.648.384.432.576.996.576 1.692v.216c0 .612-.198 1.221-.594 1.827a9.1 9.1 0 01-1.476 1.719l-4.104 3.78V28h8.244zm6.606.216c1.5 0 2.595-.57 3.285-1.71.69-1.14 1.035-2.736 1.035-4.788s-.345-3.648-1.035-4.788c-.69-1.14-1.785-1.71-3.285-1.71-1.5 0-2.595.57-3.285 1.71-.69 1.14-1.035 2.736-1.035 4.788s.345 3.648 1.035 4.788c.69 1.14 1.785 1.71 3.285 1.71zm0-1.314c-.492 0-.912-.102-1.26-.306a2.34 2.34 0 01-.846-.864 4.3 4.3 0 01-.477-1.314 8.46 8.46 0 01-.153-1.674v-2.052c0-.612.051-1.17.153-1.674a4.3 4.3 0 01.477-1.314 2.34 2.34 0 01.846-.864c.348-.204.768-.306 1.26-.306s.912.102 1.26.306c.348.204.63.492.846.864a4.3 4.3 0 01.477 1.314 8.46 8.46 0 01.153 1.674v2.052a8.46 8.46 0 01-.153 1.674 4.3 4.3 0 01-.477 1.314 2.34 2.34 0 01-.846.864c-.348.204-.768.306-1.26.306z" fill="#2A3052" fill-rule="nonzero"/><g><path d="M370.728 96.156c.763 0 1.413-.184 1.95-.553.537-.368.949-.873 1.235-1.514l-.871-.546c-.182.494-.468.89-.858 1.19-.39.299-.875.448-1.456.448-.789 0-1.4-.264-1.833-.793-.433-.529-.65-1.261-.65-2.197v-1.352c0-.468.056-.89.169-1.267.113-.378.275-.703.487-.976.213-.273.473-.483.78-.63a2.393 2.393 0 011.047-.221c.563 0 1.031.14 1.404.422s.65.657.832 1.125l.884-.533c-.286-.633-.687-1.122-1.203-1.469-.515-.347-1.154-.52-1.917-.52-1.153 0-2.05.41-2.691 1.228-.641.82-.962 1.992-.962 3.517s.32 2.68.962 3.464c.641.785 1.538 1.177 2.691 1.177zm7.306 0c.45 0 .86-.082 1.228-.247.369-.165.687-.4.956-.709.269-.307.477-.675.624-1.104.147-.43.221-.913.221-1.45 0-.529-.074-1.01-.221-1.443a3.266 3.266 0 00-.624-1.111 2.74 2.74 0 00-.956-.709 2.977 2.977 0 00-1.228-.247c-.45 0-.862.082-1.235.247-.373.165-.691.4-.956.709-.264.307-.47.678-.617 1.111a4.462 4.462 0 00-.221 1.443c0 .537.074 1.02.221 1.45.147.429.353.797.617 1.105.265.307.583.543.956.708.373.165.784.247 1.235.247zm0-.923c-.563 0-1.023-.173-1.378-.52-.355-.347-.533-.875-.533-1.586v-.962c0-.71.178-1.24.533-1.586.355-.347.815-.52 1.378-.52s1.023.173 1.378.52c.355.347.533.875.533 1.586v.962c0 .71-.178 1.24-.533 1.586-.355.347-.815.52-1.378.52zm5.785.767v-4.654a1.127 1.127 0 01.494-.962c.147-.104.316-.182.507-.234.19-.052.39-.078.598-.078.494 0 .858.152 1.092.455.234.303.351.754.351 1.352V96h1.04v-4.654c0-.217.043-.405.13-.565.087-.16.204-.293.351-.397a1.61 1.61 0 01.5-.234c.187-.052.384-.078.592-.078.511 0 .884.152 1.118.455.234.303.351.754.351 1.352V96h1.04v-4.303c0-.815-.193-1.445-.578-1.892-.386-.446-.921-.669-1.606-.669-.572 0-1.025.136-1.358.41a2.077 2.077 0 00-.683.955h-.026c-.182-.485-.46-.834-.832-1.047a2.426 2.426 0 00-1.222-.318 2.1 2.1 0 00-.676.097c-.19.065-.357.154-.5.267a1.667 1.667 0 00-.364.397c-.1.151-.189.314-.267.487h-.052v-1.092h-1.04V96h1.04zm11.349 0v-4.654a1.127 1.127 0 01.494-.962c.147-.104.316-.182.507-.234.19-.052.39-.078.598-.078.494 0 .858.152 1.092.455.234.303.351.754.351 1.352V96h1.04v-4.654c0-.217.043-.405.13-.565.087-.16.204-.293.351-.397a1.61 1.61 0 01.5-.234c.187-.052.384-.078.592-.078.511 0 .884.152 1.118.455.234.303.351.754.351 1.352V96h1.04v-4.303c0-.815-.193-1.445-.578-1.892-.386-.446-.921-.669-1.606-.669-.572 0-1.025.136-1.359.41a2.077 2.077 0 00-.682.955h-.026c-.182-.485-.46-.834-.832-1.047a2.426 2.426 0 00-1.222-.318 2.1 2.1 0 00-.676.097c-.19.065-.357.154-.5.267a1.667 1.667 0 00-.364.397c-.1.151-.189.314-.267.487h-.052v-1.092h-1.04V96h1.04zm10.829-8.281c.225 0 .388-.054.487-.163a.6.6 0 00.15-.422v-.169a.6.6 0 00-.15-.423c-.1-.108-.262-.162-.487-.162-.225 0-.388.054-.487.162a.6.6 0 00-.15.423v.169a.6.6 0 00.15.422c.1.109.262.163.487.163zm.52 8.281v-6.708h-1.04V96h1.04zm4.225.156c.771 0 1.378-.186 1.82-.559.442-.373.663-.884.663-1.534 0-.511-.156-.925-.468-1.241-.312-.317-.84-.531-1.586-.644l-.52-.078c-.416-.07-.735-.178-.956-.325-.22-.147-.331-.386-.331-.715 0-.32.11-.574.331-.76.221-.187.549-.28.982-.28.433 0 .793.085 1.079.254.286.169.503.357.65.565l.689-.624a3.074 3.074 0 00-.969-.793c-.368-.19-.825-.286-1.371-.286-.338 0-.654.041-.949.124a2.185 2.185 0 00-.76.37c-.213.165-.38.37-.501.618a1.939 1.939 0 00-.182.864c0 .312.054.58.162.806.109.225.26.414.455.566.195.151.423.273.683.364.26.09.546.158.858.201l.533.078c.442.07.747.197.916.384.17.186.254.409.254.669 0 .347-.124.615-.37.806-.248.19-.592.286-1.034.286a2.27 2.27 0 01-1.118-.266 2.917 2.917 0 01-.871-.761l-.741.598c.303.399.665.717 1.085.956.42.238.943.357 1.567.357zm6.331 0c.771 0 1.378-.186 1.82-.559.442-.373.663-.884.663-1.534 0-.511-.156-.925-.468-1.241-.312-.317-.84-.531-1.586-.644l-.52-.078c-.416-.07-.735-.178-.956-.325-.22-.147-.331-.386-.331-.715 0-.32.11-.574.331-.76.221-.187.549-.28.982-.28.433 0 .793.085 1.079.254.286.169.503.357.65.565l.689-.624a3.074 3.074 0 00-.969-.793c-.368-.19-.825-.286-1.371-.286-.338 0-.654.041-.949.124a2.185 2.185 0 00-.76.37c-.213.165-.38.37-.501.618a1.939 1.939 0 00-.182.864c0 .312.054.58.162.806.109.225.26.414.455.566.195.151.423.273.683.364.26.09.546.158.858.201l.533.078c.442.07.747.197.916.384.17.186.254.409.254.669 0 .347-.124.615-.37.806-.248.19-.592.286-1.034.286a2.27 2.27 0 01-1.118-.266 2.917 2.917 0 01-.871-.761l-.741.598c.303.399.665.717 1.085.956.42.238.943.357 1.567.357zm4.836-8.437c.225 0 .388-.054.488-.162a.6.6 0 00.149-.423v-.169a.6.6 0 00-.15-.423c-.1-.108-.262-.162-.487-.162-.225 0-.388.054-.487.162a.6.6 0 00-.15.423v.169a.6.6 0 00.15.422c.1.109.262.163.487.163zm.52 8.281v-6.708h-1.04V96h1.04zm4.745.156c.45 0 .86-.082 1.229-.247.368-.165.686-.4.955-.709.269-.307.477-.675.624-1.104.147-.43.221-.913.221-1.45 0-.529-.074-1.01-.221-1.443a3.266 3.266 0 00-.624-1.111 2.74 2.74 0 00-.956-.709 2.977 2.977 0 00-1.228-.247c-.45 0-.862.082-1.235.247-.373.165-.691.4-.956.709-.264.307-.47.678-.617 1.111a4.462 4.462 0 00-.221 1.443c0 .537.074 1.02.221 1.45.147.429.353.797.617 1.105.265.307.583.543.956.708.373.165.784.247 1.235.247zm0-.923c-.563 0-1.023-.173-1.378-.52-.355-.347-.533-.875-.533-1.586v-.962c0-.71.178-1.24.533-1.586.355-.347.815-.52 1.378-.52s1.023.173 1.378.52c.355.347.533.875.533 1.586v.962c0 .71-.178 1.24-.533 1.586-.355.347-.815.52-1.378.52zm5.785.767v-4.654c0-.217.045-.405.136-.565.091-.16.215-.293.371-.397.156-.104.332-.182.527-.234.195-.052.396-.078.604-.078 1.014 0 1.521.602 1.521 1.807V96h1.04v-4.303c0-.815-.201-1.445-.605-1.892-.403-.446-.95-.669-1.644-.669-.503 0-.904.113-1.203.338-.299.225-.53.529-.695.91h-.052v-1.092h-1.04V96h1.04zm10.452 0v-4.55c0-.32.158-.587.474-.8.317-.212.757-.318 1.32-.318h.611v-1.04h-.403c-.546 0-.975.126-1.287.377-.312.251-.529.537-.65.858h-.065v-1.235h-1.04V96h1.04zm5.447.156c.468 0 .871-.104 1.209-.312.338-.208.58-.52.728-.936h.065c.043.312.15.572.319.78.169.208.448.312.838.312h.585v-.91h-.767v-3.692c0-.71-.225-1.265-.676-1.664-.45-.399-1.083-.598-1.898-.598-.607 0-1.11.128-1.508.384-.399.255-.689.565-.871.929l.624.585a2.25 2.25 0 01.683-.728c.272-.182.613-.273 1.02-.273.537 0 .936.126 1.196.377.26.251.39.615.39 1.092v.663h-1.326c-.98 0-1.7.169-2.165.507-.463.338-.695.823-.695 1.456 0 .624.197 1.118.591 1.482.395.364.947.546 1.658.546zm.169-.884c-.407 0-.73-.091-.969-.273-.238-.182-.357-.438-.357-.767v-.273c0-.33.136-.58.41-.754.273-.173.708-.26 1.306-.26h1.378v1.105a.932.932 0 01-.13.481 1.289 1.289 0 01-.364.39c-.156.113-.342.2-.559.26-.217.06-.455.091-.715.091zm7.839.728v-.91h-1.365v-4.888h1.469v-.91h-1.469v-1.859h-.936v1.248c0 .225-.041.383-.124.474-.082.091-.236.137-.461.137h-.624v.91h1.105v4.693c0 .33.093.596.28.8.186.203.461.305.825.305h1.3zm4.303.156c.633 0 1.179-.14 1.638-.422.46-.282.797-.653 1.014-1.112l-.741-.533a1.961 1.961 0 01-.734.858 2.04 2.04 0 01-1.112.299c-.312 0-.591-.052-.838-.156a1.782 1.782 0 01-1.014-1.073 2.295 2.295 0 01-.137-.799v-.312h4.823v-.494a4.09 4.09 0 00-.201-1.313 3.044 3.044 0 00-.579-1.033 2.678 2.678 0 00-.91-.683 2.843 2.843 0 00-1.209-.247c-.46 0-.873.082-1.241.247-.369.165-.685.4-.95.709a3.242 3.242 0 00-.61 1.111 4.586 4.586 0 00-.215 1.443c0 .537.072 1.02.215 1.45.142.428.346.797.61 1.104.265.308.581.544.95.709a3.01 3.01 0 001.241.247zm1.781-4.03h-3.705v-.091c0-.295.048-.566.143-.813.095-.246.228-.461.397-.643a1.75 1.75 0 01.604-.422c.234-.1.494-.15.78-.15.537 0 .969.18 1.294.54.324.36.487.838.487 1.436v.143z" fill="#2A3052" fill-rule="nonzero"/><path d="M415.5 33a2.5 2.5 0 01.5 4.95V83h-1V37.95a2.5 2.5 0 01.5-4.95z" fill="#E98024"/></g><path d="M352.2 19.92c.752 0 1.288-.164 1.608-.492.32-.328.48-.716.48-1.164v-.576c0-.448-.16-.836-.48-1.164-.32-.328-.856-.492-1.608-.492-.752 0-1.288.164-1.608.492-.32.328-.48.716-.48 1.164v.576c0 .448.16.836.48 1.164.32.328.856.492 1.608.492zm5.568 4.152V21.24h-11.16v2.832h11.16zm-5.568 5.256c.752 0 1.288-.164 1.608-.492.32-.328.48-.716.48-1.164v-.576c0-.448-.16-.836-.48-1.164-.32-.328-.856-.492-1.608-.492-.752 0-1.288.164-1.608.492-.32.328-.48.716-.48 1.164v.576c0 .448.16.836.48 1.164.32.328.856.492 1.608.492z" fill="#E98024" fill-rule="nonzero"/><g><path stroke="#DEDEDE" stroke-width="2" fill="#F2F2F2" d="M277 41h7v13h-7zM141 41h7v13h-7z"/><path stroke="#DEDEDE" stroke-width="2" fill="#F2F2F2" d="M111 1h203v41H111z"/><path d="M126.12 30.466a8.387 8.387 0 01-1.341-1.512 11.02 11.02 0 01-1.035-1.836 10.981 10.981 0 01-.666-1.98 8.664 8.664 0 01-.234-1.962v-1.548c0-.624.078-1.272.234-1.944.156-.672.375-1.332.657-1.98.282-.648.624-1.26 1.026-1.836a9.106 9.106 0 011.359-1.548h-1.368a7.921 7.921 0 00-1.278 1.44 10.26 10.26 0 00-1.035 1.881 12.203 12.203 0 00-.945 4.743c0 .876.087 1.719.261 2.529.174.81.408 1.563.702 2.259s.639 1.326 1.035 1.89a7.252 7.252 0 001.26 1.404h1.368zm9.558-2.25c1.5 0 2.595-.57 3.285-1.71.69-1.14 1.035-2.736 1.035-4.788s-.345-3.648-1.035-4.788c-.69-1.14-1.785-1.71-3.285-1.71-1.5 0-2.595.57-3.285 1.71-.69 1.14-1.035 2.736-1.035 4.788s.345 3.648 1.035 4.788c.69 1.14 1.785 1.71 3.285 1.71zm0-1.314c-.492 0-.912-.102-1.26-.306a2.34 2.34 0 01-.846-.864 4.3 4.3 0 01-.477-1.314 8.46 8.46 0 01-.153-1.674v-2.052c0-.612.051-1.17.153-1.674a4.3 4.3 0 01.477-1.314 2.34 2.34 0 01.846-.864c.348-.204.768-.306 1.26-.306s.912.102 1.26.306c.348.204.63.492.846.864a4.3 4.3 0 01.477 1.314 8.46 8.46 0 01.153 1.674v2.052a8.46 8.46 0 01-.153 1.674 4.3 4.3 0 01-.477 1.314 2.34 2.34 0 01-.846.864c-.348.204-.768.306-1.26.306zm7.848 1.314c.384 0 .663-.096.837-.288.174-.192.261-.444.261-.756v-.234c0-.312-.087-.564-.261-.756-.174-.192-.453-.288-.837-.288-.384 0-.663.096-.837.288-.174.192-.261.444-.261.756v.234c0 .312.087.564.261.756.174.192.453.288.837.288zm7.848 0c1.5 0 2.595-.57 3.285-1.71.69-1.14 1.035-2.736 1.035-4.788s-.345-3.648-1.035-4.788c-.69-1.14-1.785-1.71-3.285-1.71-1.5 0-2.595.57-3.285 1.71-.69 1.14-1.035 2.736-1.035 4.788s.345 3.648 1.035 4.788c.69 1.14 1.785 1.71 3.285 1.71zm0-1.314c-.492 0-.912-.102-1.26-.306a2.34 2.34 0 01-.846-.864 4.3 4.3 0 01-.477-1.314 8.46 8.46 0 01-.153-1.674v-2.052c0-.612.051-1.17.153-1.674a4.3 4.3 0 01.477-1.314 2.34 2.34 0 01.846-.864c.348-.204.768-.306 1.26-.306s.912.102 1.26.306c.348.204.63.492.846.864a4.3 4.3 0 01.477 1.314 8.46 8.46 0 01.153 1.674v2.052a8.46 8.46 0 01-.153 1.674 4.3 4.3 0 01-.477 1.314 2.34 2.34 0 01-.846.864c-.348.204-.768.306-1.26.306zM166.62 28v-1.332h-3.24V15.436h-2.358l-3.33 3.114.882.954 3.168-2.952h.126v10.116h-3.51V28h8.262zm7.182 0l2.61-3.636h.054L178.878 28h1.692l-3.348-4.788 3.276-4.5h-1.602l-2.448 3.456h-.054l-2.358-3.456h-1.692l3.294 4.608L172.2 28h1.602zm17.442.216c.84 0 1.551-.108 2.133-.324a3.216 3.216 0 001.413-.99c.36-.444.621-1.002.783-1.674.162-.672.243-1.464.243-2.376v-7.416h-1.512v7.776c0 1.2-.222 2.109-.666 2.727-.444.618-1.224.927-2.34.927-1.116 0-1.896-.309-2.34-.927-.444-.618-.666-1.527-.666-2.727v-7.776h-1.512v7.416c0 .912.075 1.704.225 2.376.15.672.399 1.23.747 1.674.348.444.807.774 1.377.99.57.216 1.275.324 2.115.324zm11.358 0c.672 0 1.275-.09 1.809-.27.534-.18.987-.432 1.359-.756s.657-.72.855-1.188c.198-.468.297-.99.297-1.566 0-.936-.276-1.686-.828-2.25-.552-.564-1.446-.984-2.682-1.26l-1.026-.234c-.792-.18-1.383-.423-1.773-.729-.39-.306-.585-.759-.585-1.359 0-.684.231-1.197.693-1.539.462-.342 1.095-.513 1.899-.513.732 0 1.344.138 1.836.414.492.276.912.654 1.26 1.134l1.134-.828a4.695 4.695 0 00-1.719-1.53c-.678-.348-1.491-.522-2.439-.522-.612 0-1.173.075-1.683.225-.51.15-.948.369-1.314.657a2.963 2.963 0 00-.855 1.08c-.204.432-.306.924-.306 1.476 0 .972.303 1.725.909 2.259.606.534 1.485.933 2.637 1.197l1.026.234c.828.192 1.422.45 1.782.774.36.324.54.786.54 1.386 0 .72-.237 1.296-.711 1.728-.474.432-1.161.648-2.061.648-.732 0-1.368-.153-1.908-.459-.54-.306-1.032-.753-1.476-1.341l-1.116.936a5.54 5.54 0 001.836 1.611c.72.39 1.59.585 2.61.585zM213.744 28c.78 0 1.488-.132 2.124-.396a4.298 4.298 0 001.629-1.179c.45-.522.795-1.176 1.035-1.962.24-.786.36-1.701.36-2.745s-.12-1.959-.36-2.745-.585-1.44-1.035-1.962a4.298 4.298 0 00-1.629-1.179c-.636-.264-1.344-.396-2.124-.396h-4.212V28h4.212zm0-1.332h-2.7v-9.9h2.7c.516 0 .99.087 1.422.261.432.174.804.429 1.116.765.312.336.555.747.729 1.233.174.486.261 1.041.261 1.665v2.052c0 .624-.087 1.179-.261 1.665a3.538 3.538 0 01-.729 1.233 3.067 3.067 0 01-1.116.765 3.772 3.772 0 01-1.422.261zM234.03 28v-1.332h-3.24V15.436h-2.358l-3.33 3.114.882.954 3.168-2.952h.126v10.116h-3.51V28h8.262zm6.354.216c1.5 0 2.595-.57 3.285-1.71.69-1.14 1.035-2.736 1.035-4.788s-.345-3.648-1.035-4.788c-.69-1.14-1.785-1.71-3.285-1.71-1.5 0-2.595.57-3.285 1.71-.69 1.14-1.035 2.736-1.035 4.788s.345 3.648 1.035 4.788c.69 1.14 1.785 1.71 3.285 1.71zm0-1.314c-.492 0-.912-.102-1.26-.306a2.34 2.34 0 01-.846-.864 4.3 4.3 0 01-.477-1.314 8.46 8.46 0 01-.153-1.674v-2.052c0-.612.051-1.17.153-1.674a4.3 4.3 0 01.477-1.314 2.34 2.34 0 01.846-.864c.348-.204.768-.306 1.26-.306s.912.102 1.26.306c.348.204.63.492.846.864a4.3 4.3 0 01.477 1.314 8.46 8.46 0 01.153 1.674v2.052a8.46 8.46 0 01-.153 1.674 4.3 4.3 0 01-.477 1.314 2.34 2.34 0 01-.846.864c-.348.204-.768.306-1.26.306zm10.8 1.314c1.5 0 2.595-.57 3.285-1.71.69-1.14 1.035-2.736 1.035-4.788s-.345-3.648-1.035-4.788c-.69-1.14-1.785-1.71-3.285-1.71-1.5 0-2.595.57-3.285 1.71-.69 1.14-1.035 2.736-1.035 4.788s.345 3.648 1.035 4.788c.69 1.14 1.785 1.71 3.285 1.71zm0-1.314c-.492 0-.912-.102-1.26-.306a2.34 2.34 0 01-.846-.864 4.3 4.3 0 01-.477-1.314 8.46 8.46 0 01-.153-1.674v-2.052c0-.612.051-1.17.153-1.674a4.3 4.3 0 01.477-1.314 2.34 2.34 0 01.846-.864c.348-.204.768-.306 1.26-.306s.912.102 1.26.306c.348.204.63.492.846.864a4.3 4.3 0 01.477 1.314 8.46 8.46 0 01.153 1.674v2.052a8.46 8.46 0 01-.153 1.674 4.3 4.3 0 01-.477 1.314 2.34 2.34 0 01-.846.864c-.348.204-.768.306-1.26.306zm7.308 3.492a4.802 4.802 0 001.206-1.557c.288-.594.432-1.137.432-1.629v-.252c0-.312-.087-.567-.261-.765-.174-.198-.453-.297-.837-.297-.384 0-.663.099-.837.297-.174.198-.261.453-.261.765v.252c0 .24.057.444.171.612.114.168.291.282.531.342-.096.42-.255.801-.477 1.143a7.96 7.96 0 01-.873 1.089h1.206zm8.388-2.178c1.5 0 2.595-.57 3.285-1.71.69-1.14 1.035-2.736 1.035-4.788s-.345-3.648-1.035-4.788c-.69-1.14-1.785-1.71-3.285-1.71-1.5 0-2.595.57-3.285 1.71-.69 1.14-1.035 2.736-1.035 4.788s.345 3.648 1.035 4.788c.69 1.14 1.785 1.71 3.285 1.71zm0-1.314c-.492 0-.912-.102-1.26-.306a2.34 2.34 0 01-.846-.864 4.3 4.3 0 01-.477-1.314 8.46 8.46 0 01-.153-1.674v-2.052c0-.612.051-1.17.153-1.674a4.3 4.3 0 01.477-1.314 2.34 2.34 0 01.846-.864c.348-.204.768-.306 1.26-.306s.912.102 1.26.306c.348.204.63.492.846.864a4.3 4.3 0 01.477 1.314 8.46 8.46 0 01.153 1.674v2.052a8.46 8.46 0 01-.153 1.674 4.3 4.3 0 01-.477 1.314 2.34 2.34 0 01-.846.864c-.348.204-.768.306-1.26.306zm10.8 1.314c1.5 0 2.595-.57 3.285-1.71.69-1.14 1.035-2.736 1.035-4.788s-.345-3.648-1.035-4.788c-.69-1.14-1.785-1.71-3.285-1.71-1.5 0-2.595.57-3.285 1.71-.69 1.14-1.035 2.736-1.035 4.788s.345 3.648 1.035 4.788c.69 1.14 1.785 1.71 3.285 1.71zm0-1.314c-.492 0-.912-.102-1.26-.306a2.34 2.34 0 01-.846-.864 4.3 4.3 0 01-.477-1.314 8.46 8.46 0 01-.153-1.674v-2.052c0-.612.051-1.17.153-1.674a4.3 4.3 0 01.477-1.314 2.34 2.34 0 01.846-.864c.348-.204.768-.306 1.26-.306s.912.102 1.26.306c.348.204.63.492.846.864a4.3 4.3 0 01.477 1.314 8.46 8.46 0 01.153 1.674v2.052a8.46 8.46 0 01-.153 1.674 4.3 4.3 0 01-.477 1.314 2.34 2.34 0 01-.846.864c-.348.204-.768.306-1.26.306zm10.8 1.314c1.5 0 2.595-.57 3.285-1.71.69-1.14 1.035-2.736 1.035-4.788s-.345-3.648-1.035-4.788c-.69-1.14-1.785-1.71-3.285-1.71-1.5 0-2.595.57-3.285 1.71-.69 1.14-1.035 2.736-1.035 4.788s.345 3.648 1.035 4.788c.69 1.14 1.785 1.71 3.285 1.71zm0-1.314c-.492 0-.912-.102-1.26-.306a2.34 2.34 0 01-.846-.864 4.3 4.3 0 01-.477-1.314 8.46 8.46 0 01-.153-1.674v-2.052c0-.612.051-1.17.153-1.674a4.3 4.3 0 01.477-1.314 2.34 2.34 0 01.846-.864c.348-.204.768-.306 1.26-.306s.912.102 1.26.306c.348.204.63.492.846.864a4.3 4.3 0 01.477 1.314 8.46 8.46 0 01.153 1.674v2.052a8.46 8.46 0 01-.153 1.674 4.3 4.3 0 01-.477 1.314 2.34 2.34 0 01-.846.864c-.348.204-.768.306-1.26.306zm10.926 3.564c.444-.372.864-.84 1.26-1.404s.741-1.194 1.035-1.89c.294-.696.528-1.449.702-2.259.174-.81.261-1.653.261-2.529a12.203 12.203 0 00-.945-4.743 10.26 10.26 0 00-1.035-1.881 7.921 7.921 0 00-1.278-1.44h-1.368c.504.456.957.972 1.359 1.548.402.576.744 1.188 1.026 1.836.282.648.501 1.308.657 1.98.156.672.234 1.32.234 1.944v1.548c0 .636-.078 1.29-.234 1.962a10.981 10.981 0 01-.666 1.98 11.02 11.02 0 01-1.035 1.836 8.387 8.387 0 01-1.341 1.512h1.368z" fill="#2A3052" fill-rule="nonzero"/></g><g><path d="M104.951 97.781a6.057 6.057 0 01-.968-1.092 7.96 7.96 0 01-.748-1.326 7.93 7.93 0 01-.481-1.43 6.257 6.257 0 01-.169-1.417v-1.118c0-.45.056-.919.169-1.404.113-.485.27-.962.474-1.43.204-.468.451-.91.742-1.326.29-.416.617-.789.981-1.118h-.988c-.33.286-.637.633-.923 1.04a7.41 7.41 0 00-.748 1.359 8.813 8.813 0 00-.683 3.425c.001.633.064 1.241.19 1.826.125.586.294 1.13.506 1.632.213.503.462.958.748 1.365.286.407.59.745.91 1.014h.988zM110.229 96v-7.644h.065l.767 1.521 2.171 3.952 2.171-3.952.767-1.521h.065V96h1.066v-9.074h-1.404l-2.613 4.888h-.065l-2.6-4.888h-1.456V96h1.066zm9.906-8.281c.225 0 .388-.054.487-.163a.6.6 0 00.15-.422v-.169a.6.6 0 00-.15-.423c-.1-.108-.262-.162-.487-.162-.225 0-.388.054-.488.162a.6.6 0 00-.149.423v.169a.6.6 0 00.15.422c.1.109.262.163.487.163zm.52 8.281v-6.708h-1.04V96h1.04zm3.25 0v-4.654c0-.217.046-.405.136-.565.092-.16.215-.293.371-.397.156-.104.332-.182.527-.234.195-.052.396-.078.604-.078 1.014 0 1.521.602 1.521 1.807V96h1.04v-4.303c0-.815-.201-1.445-.604-1.892-.403-.446-.952-.669-1.645-.669-.503 0-.903.113-1.202.338-.3.225-.531.529-.696.91h-.052v-1.092h-1.04V96h1.04zm7.007.156c.277 0 .479-.07.605-.208.125-.139.188-.32.188-.546v-.169c0-.225-.063-.407-.188-.546-.126-.139-.328-.208-.605-.208-.277 0-.479.07-.604.208-.126.139-.189.32-.189.546v.169c0 .225.063.407.189.546.125.139.327.208.604.208zm8.437 0c.641 0 1.177-.143 1.606-.429.428-.286.751-.672.968-1.157l-.754-.507c-.373.78-.98 1.17-1.82 1.17-.615 0-1.081-.188-1.397-.566-.317-.376-.475-.86-.475-1.449v-1.144c0-.295.039-.565.117-.812a1.75 1.75 0 01.351-.637c.156-.178.351-.317.585-.416.234-.1.507-.15.819-.15.416 0 .763.095 1.04.286.277.19.477.46.598.806l.871-.442c-.2-.468-.5-.847-.903-1.138-.404-.29-.939-.435-1.606-.435-.468 0-.888.082-1.261.247a2.576 2.576 0 00-.943.702c-.255.303-.45.672-.585 1.105a4.907 4.907 0 00-.201 1.456c0 .537.067 1.023.201 1.456.135.433.33.802.585 1.105.256.303.57.537.943.702.373.165.793.247 1.261.247zm6.578 0c.45 0 .86-.082 1.229-.247.368-.165.686-.4.955-.709.269-.307.477-.675.624-1.104.147-.43.221-.913.221-1.45 0-.529-.074-1.01-.221-1.443a3.266 3.266 0 00-.624-1.111 2.74 2.74 0 00-.955-.709 2.977 2.977 0 00-1.229-.247c-.45 0-.862.082-1.235.247-.373.165-.691.4-.956.709-.264.307-.47.678-.617 1.111a4.462 4.462 0 00-.221 1.443c0 .537.074 1.02.221 1.45.147.429.353.797.617 1.105.265.307.583.543.956.708.373.165.784.247 1.235.247zm0-.923c-.563 0-1.023-.173-1.378-.52-.355-.347-.533-.875-.533-1.586v-.962c0-.71.178-1.24.533-1.586.355-.347.815-.52 1.378-.52s1.023.173 1.378.52c.355.347.533.875.533 1.586v.962c0 .71-.178 1.24-.533 1.586-.355.347-.815.52-1.378.52zm5.785.767v-4.654a1.127 1.127 0 01.494-.962c.147-.104.316-.182.507-.234.19-.052.39-.078.598-.078.494 0 .858.152 1.092.455.234.303.351.754.351 1.352V96h1.04v-4.654c0-.217.043-.405.13-.565.087-.16.204-.293.351-.397a1.61 1.61 0 01.5-.234c.187-.052.384-.078.592-.078.511 0 .884.152 1.118.455.234.303.351.754.351 1.352V96h1.04v-4.303c0-.815-.193-1.445-.578-1.892-.386-.446-.921-.669-1.606-.669-.572 0-1.025.136-1.358.41a2.077 2.077 0 00-.683.955h-.026c-.182-.485-.46-.834-.832-1.047a2.426 2.426 0 00-1.222-.318 2.1 2.1 0 00-.676.097c-.19.065-.358.154-.5.267a1.667 1.667 0 00-.365.397c-.1.151-.188.314-.266.487h-.052v-1.092h-1.04V96h1.04zm11.349 0v-4.654a1.127 1.127 0 01.494-.962c.147-.104.316-.182.507-.234.19-.052.39-.078.598-.078.494 0 .858.152 1.092.455.234.303.351.754.351 1.352V96h1.04v-4.654c0-.217.043-.405.13-.565.087-.16.204-.293.351-.397a1.61 1.61 0 01.5-.234c.187-.052.384-.078.592-.078.511 0 .884.152 1.118.455.234.303.351.754.351 1.352V96h1.04v-4.303c0-.815-.193-1.445-.578-1.892-.386-.446-.921-.669-1.606-.669-.572 0-1.025.136-1.358.41a2.077 2.077 0 00-.683.955h-.026c-.182-.485-.46-.834-.832-1.047a2.426 2.426 0 00-1.222-.318 2.1 2.1 0 00-.676.097c-.19.065-.357.154-.5.267a1.667 1.667 0 00-.364.397c-.1.151-.189.314-.267.487h-.052v-1.092h-1.04V96h1.04zm10.829-8.281c.225 0 .388-.054.487-.163a.6.6 0 00.15-.422v-.169a.6.6 0 00-.15-.423c-.1-.108-.262-.162-.487-.162-.225 0-.388.054-.487.162a.6.6 0 00-.15.423v.169a.6.6 0 00.15.422c.1.109.262.163.487.163zm.52 8.281v-6.708h-1.04V96h1.04zm4.225.156c.771 0 1.378-.186 1.82-.559.442-.373.663-.884.663-1.534 0-.511-.156-.925-.468-1.241-.312-.317-.84-.531-1.586-.644l-.52-.078c-.416-.07-.735-.178-.956-.325-.22-.147-.331-.386-.331-.715 0-.32.11-.574.331-.76.222-.187.549-.28.982-.28.433 0 .793.085 1.079.254.286.169.503.357.65.565l.689-.624a3.074 3.074 0 00-.969-.793c-.368-.19-.825-.286-1.371-.286-.338 0-.654.041-.949.124a2.185 2.185 0 00-.76.37c-.213.165-.38.37-.501.618a1.939 1.939 0 00-.182.864c0 .312.054.58.163.806.108.225.26.414.455.566.195.151.422.273.682.364.26.09.546.158.858.201l.533.078c.442.07.748.197.917.384.169.186.253.409.253.669 0 .347-.123.615-.37.806-.247.19-.592.286-1.034.286a2.27 2.27 0 01-1.118-.266 2.917 2.917 0 01-.871-.761l-.741.598c.303.399.665.717 1.086.956.42.238.942.357 1.566.357zm6.331 0c.771 0 1.378-.186 1.82-.559.442-.373.663-.884.663-1.534 0-.511-.156-.925-.468-1.241-.312-.317-.84-.531-1.586-.644l-.52-.078c-.416-.07-.734-.178-.956-.325-.22-.147-.331-.386-.331-.715 0-.32.11-.574.332-.76.22-.187.548-.28.981-.28.433 0 .793.085 1.079.254.286.169.503.357.65.565l.689-.624a3.074 3.074 0 00-.968-.793c-.369-.19-.826-.286-1.372-.286-.338 0-.654.041-.949.124a2.185 2.185 0 00-.76.37c-.213.165-.38.37-.501.618a1.939 1.939 0 00-.182.864c0 .312.054.58.163.806.108.225.26.414.455.566.195.151.422.273.682.364.26.09.546.158.858.201l.533.078c.442.07.748.197.917.384.169.186.253.409.253.669 0 .347-.123.615-.37.806-.247.19-.592.286-1.034.286a2.27 2.27 0 01-1.118-.266 2.917 2.917 0 01-.871-.761l-.741.598c.303.399.665.717 1.086.956.42.238.942.357 1.566.357zm4.836-8.437c.225 0 .388-.054.487-.162a.6.6 0 00.15-.423v-.169a.6.6 0 00-.15-.423c-.1-.108-.262-.162-.487-.162-.225 0-.388.054-.488.162a.6.6 0 00-.149.423v.169a.6.6 0 00.15.422c.1.109.262.163.487.163zm.52 8.281v-6.708h-1.04V96h1.04zm4.745.156c.45 0 .86-.082 1.229-.247.368-.165.686-.4.955-.709.269-.307.477-.675.624-1.104.147-.43.221-.913.221-1.45 0-.529-.074-1.01-.221-1.443a3.266 3.266 0 00-.624-1.111 2.74 2.74 0 00-.956-.709 2.977 2.977 0 00-1.228-.247c-.45 0-.862.082-1.235.247-.373.165-.691.4-.956.709-.264.307-.47.678-.617 1.111a4.462 4.462 0 00-.221 1.443c0 .537.074 1.02.221 1.45.147.429.353.797.618 1.105.264.307.582.543.955.708.373.165.784.247 1.235.247zm0-.923c-.563 0-1.023-.173-1.378-.52-.355-.347-.533-.875-.533-1.586v-.962c0-.71.178-1.24.533-1.586.355-.347.815-.52 1.378-.52s1.023.173 1.378.52c.355.347.533.875.533 1.586v.962c0 .71-.178 1.24-.533 1.586-.355.347-.815.52-1.378.52zm5.785.767v-4.654c0-.217.046-.405.137-.565.09-.16.214-.293.37-.397.156-.104.332-.182.527-.234.195-.052.396-.078.604-.078 1.014 0 1.521.602 1.521 1.807V96h1.04v-4.303c0-.815-.201-1.445-.604-1.892-.403-.446-.952-.669-1.645-.669-.503 0-.903.113-1.202.338-.3.225-.531.529-.696.91h-.052v-1.092h-1.04V96h1.04zm9.737 0l1.885-2.626h.039L214.255 96h1.222l-2.418-3.458 2.366-3.25h-1.157l-1.768 2.496h-.039l-1.703-2.496h-1.222l2.379 3.328-2.483 3.38h1.157zm9.633 0l.91-2.678h3.666l.91 2.678h1.144l-3.172-9.074h-1.391L219.117 96h1.105zm4.303-3.64h-3.133l1.534-4.42h.065l1.534 4.42zm6.006 3.796c.901 0 1.556-.416 1.963-1.248h.052V96h1.04v-9.62h-1.04v4.004h-.052c-.173-.425-.427-.739-.76-.942-.334-.204-.735-.306-1.203-.306-.416 0-.793.082-1.131.247a2.457 2.457 0 00-.864.702c-.239.303-.42.672-.546 1.105a5.223 5.223 0 00-.189 1.456c0 .537.063 1.023.189 1.456.125.433.307.802.546 1.105.238.303.526.537.864.702.338.165.715.247 1.131.247zm.286-.936c-.59 0-1.053-.184-1.391-.553-.338-.368-.507-.851-.507-1.449v-1.144c0-.598.169-1.081.507-1.45.338-.368.802-.552 1.391-.552.234 0 .457.032.67.097.212.065.396.154.552.267.156.113.28.25.37.41.092.16.137.331.137.513v2.496a1.2 1.2 0 01-.136.578 1.303 1.303 0 01-.371.43 1.68 1.68 0 01-.552.266c-.213.06-.436.091-.67.091zm5.499-7.501c.225 0 .388-.054.488-.163a.6.6 0 00.149-.422v-.169a.6.6 0 00-.15-.423c-.1-.108-.262-.162-.487-.162-.225 0-.388.054-.487.162a.6.6 0 00-.15.423v.169a.6.6 0 00.15.422c.1.109.262.163.487.163zM235.38 98.6c.503 0 .871-.143 1.105-.429.234-.286.351-.663.351-1.131v-7.748h-1.04v8.398h-1.092v.91h.676zm5.863-2.444c.277 0 .52-.035.728-.104.208-.07.386-.163.533-.28.147-.116.27-.25.37-.402.1-.152.185-.306.254-.462h.052V96h1.04v-6.708h-1.04v4.641c0 .225-.045.418-.136.579-.091.16-.213.292-.364.396a1.674 1.674 0 01-.52.234 2.336 2.336 0 01-.605.078c-1.023 0-1.534-.602-1.534-1.807v-4.121h-1.04v4.303c0 .815.204 1.445.611 1.892.407.446.958.669 1.651.669zm7.202 0c.771 0 1.378-.186 1.82-.559.442-.373.663-.884.663-1.534 0-.511-.156-.925-.468-1.241-.312-.317-.84-.531-1.586-.644l-.52-.078c-.416-.07-.734-.178-.955-.325-.221-.147-.332-.386-.332-.715 0-.32.11-.574.332-.76.22-.187.548-.28.981-.28.433 0 .793.085 1.079.254.286.169.503.357.65.565l.689-.624a3.074 3.074 0 00-.968-.793c-.369-.19-.826-.286-1.372-.286-.338 0-.654.041-.949.124a2.185 2.185 0 00-.76.37c-.213.165-.38.37-.501.618a1.939 1.939 0 00-.182.864c0 .312.054.58.163.806.108.225.26.414.455.566.195.151.422.273.682.364.26.09.546.158.858.201l.533.078c.442.07.748.197.917.384.169.186.253.409.253.669 0 .347-.123.615-.37.806-.247.19-.592.286-1.034.286a2.27 2.27 0 01-1.118-.266 2.917 2.917 0 01-.871-.761l-.741.598c.303.399.665.717 1.086.956.42.238.942.357 1.566.357zm7.098-.156v-.91h-1.365v-4.888h1.469v-.91h-1.469v-1.859h-.936v1.248c0 .225-.041.383-.123.474-.083.091-.237.137-.462.137h-.624v.91h1.105v4.693c0 .33.093.596.28.8.186.203.461.305.825.305h1.3zm4.303.156c.633 0 1.179-.14 1.638-.422.46-.282.797-.653 1.014-1.112l-.741-.533a1.961 1.961 0 01-.734.858 2.04 2.04 0 01-1.112.299c-.312 0-.591-.052-.838-.156a1.782 1.782 0 01-1.014-1.073 2.295 2.295 0 01-.137-.799v-.312h4.823v-.494a4.09 4.09 0 00-.201-1.313 3.044 3.044 0 00-.579-1.033 2.678 2.678 0 00-.91-.683 2.843 2.843 0 00-1.209-.247c-.46 0-.873.082-1.241.247-.369.165-.685.4-.95.709a3.242 3.242 0 00-.61 1.111 4.586 4.586 0 00-.215 1.443c0 .537.072 1.02.215 1.45.143.428.346.797.61 1.104.265.308.581.544.95.709a3.01 3.01 0 001.241.247zm1.781-4.03h-3.705v-.091c0-.295.048-.566.143-.813.095-.246.228-.461.397-.643a1.75 1.75 0 01.604-.422c.234-.1.494-.15.78-.15.537 0 .969.18 1.293.54.325.36.488.838.488 1.436v.143zm5.109 4.03c.901 0 1.556-.416 1.963-1.248h.052V96h1.04v-9.62h-1.04v4.004h-.052c-.173-.425-.427-.739-.76-.942-.334-.204-.735-.306-1.203-.306-.416 0-.793.082-1.131.247a2.457 2.457 0 00-.864.702c-.239.303-.42.672-.546 1.105a5.223 5.223 0 00-.189 1.456c0 .537.063 1.023.189 1.456.125.433.307.802.545 1.105.239.303.527.537.865.702.338.165.715.247 1.131.247zm.286-.936c-.59 0-1.053-.184-1.391-.553-.338-.368-.507-.851-.507-1.449v-1.144c0-.598.169-1.081.507-1.45.338-.368.802-.552 1.391-.552.234 0 .457.032.67.097.212.065.396.154.552.267.156.113.28.25.37.41.091.16.137.331.137.513v2.496a1.2 1.2 0 01-.137.578 1.303 1.303 0 01-.37.43 1.68 1.68 0 01-.553.266c-.212.06-.435.091-.669.091zm10.738.78l2.366-6.708h-1.001l-1.196 3.328-.728 2.288h-.065l-.728-2.288-1.17-3.328h-1.04L276.551 96h1.209zm6.24.156c.45 0 .86-.082 1.228-.247.369-.165.687-.4.956-.709.269-.307.477-.675.624-1.104.147-.43.221-.913.221-1.45 0-.529-.074-1.01-.221-1.443a3.266 3.266 0 00-.624-1.111 2.74 2.74 0 00-.956-.709 2.977 2.977 0 00-1.228-.247c-.45 0-.862.082-1.235.247-.373.165-.691.4-.956.709-.264.307-.47.678-.617 1.111a4.462 4.462 0 00-.221 1.443c0 .537.074 1.02.221 1.45.147.429.353.797.617 1.105.265.307.583.543.956.708.373.165.784.247 1.235.247zm0-.923c-.563 0-1.023-.173-1.378-.52-.355-.347-.533-.875-.533-1.586v-.962c0-.71.178-1.24.533-1.586.355-.347.815-.52 1.378-.52s1.023.173 1.378.52c.355.347.533.875.533 1.586v.962c0 .71-.178 1.24-.533 1.586-.355.347-.815.52-1.378.52zm6.773.767v-.91h-.988v-8.71h-1.04v8.541c0 .312.093.57.28.773.186.204.461.306.825.306h.923zm3.705.156c.277 0 .52-.035.728-.104.208-.07.386-.163.533-.28.147-.116.27-.25.37-.402.1-.152.185-.306.254-.462h.052V96h1.04v-6.708h-1.04v4.641c0 .225-.045.418-.136.579-.091.16-.213.292-.364.396a1.674 1.674 0 01-.52.234 2.336 2.336 0 01-.605.078c-1.023 0-1.534-.602-1.534-1.807v-4.121h-1.04v4.303c0 .815.204 1.445.611 1.892.407.446.958.669 1.651.669zm6.227-.156v-4.654a1.127 1.127 0 01.494-.962c.147-.104.316-.182.507-.234.19-.052.39-.078.598-.078.494 0 .858.152 1.092.455.234.303.351.754.351 1.352V96h1.04v-4.654c0-.217.043-.405.13-.565.087-.16.204-.293.351-.397a1.61 1.61 0 01.5-.234c.187-.052.384-.078.592-.078.511 0 .884.152 1.118.455.234.303.351.754.351 1.352V96h1.04v-4.303c0-.815-.193-1.445-.578-1.892-.386-.446-.921-.669-1.606-.669-.572 0-1.025.136-1.358.41a2.077 2.077 0 00-.683.955h-.026c-.182-.485-.46-.834-.832-1.047a2.426 2.426 0 00-1.222-.318 2.1 2.1 0 00-.676.097c-.19.065-.357.154-.5.267a1.667 1.667 0 00-.364.397c-.1.151-.189.314-.267.487h-.052v-1.092h-1.04V96h1.04zm12.831.156c.633 0 1.179-.14 1.638-.422.46-.282.797-.653 1.014-1.112l-.741-.533a1.961 1.961 0 01-.734.858 2.04 2.04 0 01-1.112.299c-.312 0-.591-.052-.838-.156a1.782 1.782 0 01-1.014-1.073 2.295 2.295 0 01-.137-.799v-.312h4.823v-.494a4.09 4.09 0 00-.201-1.313 3.044 3.044 0 00-.579-1.033 2.678 2.678 0 00-.91-.683 2.843 2.843 0 00-1.209-.247c-.46 0-.873.082-1.241.247-.369.165-.685.4-.95.709a3.242 3.242 0 00-.61 1.111 4.586 4.586 0 00-.215 1.443c0 .537.072 1.02.215 1.45.143.428.346.797.61 1.104.265.308.581.544.95.709a3.01 3.01 0 001.241.247zm1.781-4.03h-3.705v-.091c0-.295.048-.566.143-.813.095-.246.228-.461.397-.643a1.75 1.75 0 01.604-.422c.234-.1.494-.15.78-.15.537 0 .969.18 1.294.54.325.36.487.838.487 1.436v.143zm5.72 5.655c.32-.269.624-.607.91-1.014a7.33 7.33 0 00.748-1.365 9.092 9.092 0 00.507-1.632 8.675 8.675 0 00.188-1.826 8.813 8.813 0 00-.683-3.426 7.41 7.41 0 00-.747-1.358 5.721 5.721 0 00-.923-1.04h-.988c.364.33.691.702.981 1.118.29.416.538.858.742 1.326.203.468.361.945.474 1.43.113.485.169.953.169 1.404v1.118c0 .46-.056.932-.169 1.417a7.93 7.93 0 01-.481 1.43 7.96 7.96 0 01-.747 1.326c-.29.416-.614.78-.969 1.092h.988z" fill="#2A3052" fill-rule="nonzero"/><path d="M212.5 33a2.5 2.5 0 01.5 4.95V83h-1V37.95a2.5 2.5 0 01.5-4.95z" fill="#E98024"/></g></g></svg>