<svg width="35" height="35" fill="none" xmlns="http://www.w3.org/2000/svg"><path fill-rule="evenodd" clip-rule="evenodd" d="M17.5 35C27.165 35 35 27.165 35 17.5S27.165 0 17.5 0 0 7.835 0 17.5 7.835 35 17.5 35zm4.126-25.14c-1.099-.048-1.428-.058-4.21-.058-2.78 0-3.11.01-4.209.058-1.015.045-1.567.208-1.934.344a3.243 3.243 0 0 0-1.197.748c-.365.35-.59.684-.78 1.15-.142.353-.312.882-.358 1.857-.05 1.055-.061 1.37-.061 4.041 0 2.67.01 2.986.06 4.04.047.976.217 1.505.36 1.858.188.466.414.8.778 1.15.365.35.712.566 1.198.748.367.137.919.3 1.934.344 1.099.048 1.428.058 4.21.058 2.781 0 3.11-.01 4.209-.058 1.015-.045 1.567-.207 1.934-.344a3.244 3.244 0 0 0 1.198-.748c.364-.35.59-.683.779-1.15.143-.353.312-.882.359-1.857.05-1.055.06-1.37.06-4.041 0-2.67-.01-2.986-.06-4.04-.047-.976-.216-1.505-.359-1.858a3.089 3.089 0 0 0-.78-1.15 3.244 3.244 0 0 0-1.197-.748c-.367-.136-.918-.3-1.934-.344zm-8.504-1.8c1.11-.048 1.466-.06 4.295-.06 2.829 0 3.183.012 4.294.06 1.11.049 1.866.218 2.529.465a5.132 5.132 0 0 1 1.845 1.153c.58.556.935 1.114 1.201 1.772.258.636.434 1.363.485 2.427.05 1.067.062 1.407.062 4.123s-.012 3.056-.062 4.123c-.051 1.064-.227 1.791-.485 2.427a4.887 4.887 0 0 1-1.201 1.772c-.58.556-1.16.898-1.845 1.153-.663.247-1.42.416-2.529.465-1.11.048-1.465.06-4.294.06-2.83 0-3.184-.012-4.295-.06-1.109-.049-1.866-.218-2.529-.465a5.132 5.132 0 0 1-1.845-1.153 4.886 4.886 0 0 1-1.201-1.772c-.258-.636-.434-1.363-.484-2.427C7.012 21.056 7 20.716 7 18s.012-3.056.063-4.123c.05-1.064.226-1.791.484-2.427a4.887 4.887 0 0 1 1.201-1.772 5.133 5.133 0 0 1 1.845-1.153c.663-.247 1.42-.416 2.529-.465zM12.068 18c0-2.836 2.394-5.135 5.349-5.135 2.954 0 5.349 2.299 5.349 5.135s-2.395 5.135-5.35 5.135c-2.954 0-5.348-2.299-5.348-5.135zm1.876 0c0 1.841 1.555 3.333 3.473 3.333 1.917 0 3.472-1.492 3.472-3.333 0-1.84-1.555-3.333-3.472-3.333-1.918 0-3.473 1.492-3.473 3.333zm9.033-4.138c.69 0 1.25-.537 1.25-1.2 0-.663-.56-1.2-1.25-1.2s-1.25.537-1.25 1.2c0 .663.56 1.2 1.25 1.2z" fill="#DCDCDC"/></svg>