<svg width="48" height="48" fill="none" xmlns="http://www.w3.org/2000/svg"><path d="M0 12C0 5.373 5.373 0 12 0h24c6.627 0 12 5.373 12 12v24c0 6.627-5.373 12-12 12H12C5.373 48 0 42.627 0 36V12z" fill="#33658A"/><path d="M32.99 24.175A1.5 1.5 0 0130 24v-9.877l-3.44 3.438-.14.124a1.5 1.5 0 01-1.98-2.246l6-6a1.55 1.55 0 01.425-.298 1.508 1.508 0 011.192-.034 1.48 1.48 0 01.504.332l6 6 .124.142a1.5 1.5 0 01-.124 1.98l-.142.124a1.5 1.5 0 01-1.98-.124L33 14.123V24l-.01.175zM17.99 23.825A1.5 1.5 0 0015 24v9.877l-3.44-3.438-.14-.124a1.5 1.5 0 00-1.98 2.246l6 6a1.543 1.543 0 00.503.332 1.42 1.42 0 00.334.09 1.51 1.51 0 001.284-.422l6-6 .124-.142a1.5 1.5 0 00-.124-1.98l-.142-.124a1.5 1.5 0 00-1.98.124L18 33.877V24l-.01-.175z" fill="ivory"/></svg> 
