<svg width="48" height="48" fill="none" xmlns="http://www.w3.org/2000/svg"><path d="M0 12C0 5.373 5.373 0 12 0h24c6.627 0 12 5.373 12 12v24c0 6.627-5.373 12-12 12H12C5.373 48 0 42.627 0 36V12z" fill="#33658A"/><path fill-rule="evenodd" clip-rule="evenodd" d="M14.25 7.5a6.75 6.75 0 110 13.5 6.75 6.75 0 010-13.5zm0 3a3.75 3.75 0 100 7.5 3.75 3.75 0 000-7.5zM33.75 27a6.75 6.75 0 110 13.5 6.75 6.75 0 010-13.5zm0 3a3.75 3.75 0 100 7.5 3.75 3.75 0 000-7.5z" fill="#fff"/><path d="M38.56 9.44a1.5 1.5 0 00-2.12 0l-27 27-.125.14a1.5 1.5 0 002.246 1.98l27-27 .124-.14a1.5 1.5 0 00-.124-1.98z" fill="#fff"/></svg> 
