<svg width="680" height="97" xmlns="http://www.w3.org/2000/svg"><g fill="none" fill-rule="evenodd"><path fill="#E5E5E5" d="M0 55h680v2H0z"/><path stroke="#DEDEDE" stroke-width="2" fill="#F2F2F2" d="M508 41h7v13h-7zM452 41h7v13h-7z"/><path fill="#2A3052" d="M441 0h85v43h-85z"/><path d="M460.342 28v-1.332h-6.156v-4.356h5.796V20.98h-5.796v-4.212h6.156v-1.332h-7.668V28h7.668zm7.2.216c.84 0 1.551-.108 2.133-.324a3.216 3.216 0 001.413-.99c.36-.444.621-1.002.783-1.674.162-.672.243-1.464.243-2.376v-7.416h-1.512v7.776c0 1.2-.222 2.109-.666 2.727-.444.618-1.224.927-2.34.927-1.116 0-1.896-.309-2.34-.927-.444-.618-.666-1.527-.666-2.727v-7.776h-1.512v7.416c0 .912.075 1.704.225 2.376.15.672.399 1.23.747 1.674.348.444.807.774 1.377.99.57.216 1.275.324 2.115.324zm9.342-.216v-5.4h2.934l2.718 5.4h1.71l-2.88-5.544c.828-.192 1.455-.585 1.881-1.179.426-.594.639-1.353.639-2.277 0-1.152-.309-2.034-.927-2.646-.618-.612-1.479-.918-2.583-.918h-5.004V28h1.512zm3.492-6.696h-3.492v-4.536h3.492c.6 0 1.065.156 1.395.468.33.312.495.756.495 1.332v.936c0 .576-.165 1.02-.495 1.332-.33.312-.795.468-1.395.468zM499.06 28v-1.332h-6.606l3.384-3.042c.396-.36.765-.72 1.107-1.08.342-.36.633-.729.873-1.107s.429-.777.567-1.197c.138-.42.207-.876.207-1.368 0-.54-.087-1.032-.261-1.476a3.323 3.323 0 00-.747-1.152 3.332 3.332 0 00-1.206-.756c-.48-.18-1.026-.27-1.638-.27-.612 0-1.143.084-1.593.252-.45.168-.834.39-1.152.666a3.839 3.839 0 00-.792.945c-.21.354-.375.717-.495 1.089l1.35.522c.084-.3.195-.579.333-.837s.312-.483.522-.675a2.28 2.28 0 01.747-.45 2.865 2.865 0 011.008-.162c.78 0 1.362.216 1.746.648.384.432.576.996.576 1.692v.216c0 .612-.198 1.221-.594 1.827a9.1 9.1 0 01-1.476 1.719l-4.104 3.78V28h8.244zm3.654.216c.384 0 .663-.096.837-.288.174-.192.261-.444.261-.756v-.234c0-.312-.087-.564-.261-.756-.174-.192-.453-.288-.837-.288-.384 0-.663.096-.837.288-.174.192-.261.444-.261.756v.234c0 .312.087.564.261.756.174.192.453.288.837.288zm7.758 0c.66 0 1.251-.102 1.773-.306a3.825 3.825 0 001.332-.855c.366-.366.645-.804.837-1.314.192-.51.288-1.071.288-1.683 0-.612-.093-1.158-.279-1.638a3.396 3.396 0 00-.783-1.215 3.518 3.518 0 00-1.188-.765 4.034 4.034 0 00-1.494-.27c-.66 0-1.179.126-1.557.378a3.951 3.951 0 00-1.017 1.008h-.126l.36-4.788h5.508v-1.332h-6.732l-.45 6.912 1.278.18a4.43 4.43 0 01.891-.747c.33-.21.783-.315 1.359-.315.864 0 1.518.228 1.962.684.444.456.666 1.098.666 1.926v.18c0 .828-.222 1.47-.666 1.926-.444.456-1.098.684-1.962.684-.384 0-.714-.039-.99-.117a2.462 2.462 0 01-.729-.333 2.947 2.947 0 01-.576-.522 5.567 5.567 0 01-.495-.684l-1.134.864c.192.276.405.54.639.792.234.252.507.48.819.684.312.204.669.366 1.071.486.402.12.867.18 1.395.18z" fill="#FFF" fill-rule="nonzero"/><path d="M451.969 96.156c.762 0 1.412-.184 1.95-.553.537-.368.949-.873 1.235-1.514l-.871-.546c-.182.494-.468.89-.858 1.19-.39.299-.876.448-1.456.448-.79 0-1.4-.264-1.833-.793-.434-.529-.65-1.261-.65-2.197v-1.352c0-.468.056-.89.169-1.267.112-.378.275-.703.487-.976.212-.273.472-.483.78-.63a2.393 2.393 0 011.046-.221c.564 0 1.032.14 1.404.422.373.282.65.657.832 1.125l.884-.533c-.286-.633-.686-1.122-1.202-1.469-.516-.347-1.155-.52-1.918-.52-1.152 0-2.05.41-2.69 1.228-.642.82-.963 1.992-.963 3.517s.321 2.68.962 3.464c.642.785 1.539 1.177 2.691 1.177zm7.306 0c.45 0 .86-.082 1.228-.247.368-.165.687-.4.956-.709.268-.307.476-.675.623-1.104.148-.43.221-.913.221-1.45 0-.529-.073-1.01-.22-1.443a3.266 3.266 0 00-.625-1.111 2.74 2.74 0 00-.955-.709 2.977 2.977 0 00-1.229-.247c-.45 0-.862.082-1.235.247-.372.165-.69.4-.955.709-.264.307-.47.678-.618 1.111a4.462 4.462 0 00-.22 1.443c0 .537.073 1.02.22 1.45.148.429.354.797.618 1.105.264.307.583.543.955.708.373.165.785.247 1.235.247zm0-.923c-.564 0-1.023-.173-1.378-.52-.356-.347-.533-.875-.533-1.586v-.962c0-.71.177-1.24.533-1.586.355-.347.814-.52 1.378-.52.563 0 1.022.173 1.378.52.355.347.532.875.532 1.586v.962c0 .71-.177 1.24-.533 1.586-.355.347-.814.52-1.378.52zm5.785.767v-4.654a1.127 1.127 0 01.494-.962c.147-.104.316-.182.507-.234.19-.052.39-.078.598-.078.494 0 .858.152 1.092.455.234.303.35.754.35 1.352V96h1.04v-4.654c0-.217.044-.405.13-.565.087-.16.204-.293.352-.397a1.61 1.61 0 01.5-.234c.186-.052.384-.078.592-.078.51 0 .884.152 1.118.455.234.303.35.754.35 1.352V96h1.04v-4.303c0-.815-.192-1.445-.578-1.892-.386-.446-.92-.669-1.605-.669-.572 0-1.025.136-1.359.41a2.077 2.077 0 00-.682.955h-.026c-.182-.485-.46-.834-.832-1.047a2.426 2.426 0 00-1.222-.318 2.1 2.1 0 00-.676.097c-.191.065-.358.154-.501.267a1.667 1.667 0 00-.364.397c-.1.151-.188.314-.266.487h-.052v-1.092h-1.04V96h1.04zm11.349 0v-4.654a1.127 1.127 0 01.494-.962c.147-.104.316-.182.507-.234.19-.052.39-.078.598-.078.494 0 .858.152 1.092.455.234.303.35.754.35 1.352V96h1.04v-4.654c0-.217.044-.405.13-.565.087-.16.204-.293.352-.397a1.61 1.61 0 01.5-.234c.186-.052.384-.078.592-.078.51 0 .884.152 1.118.455.234.303.35.754.35 1.352V96h1.04v-4.303c0-.815-.192-1.445-.578-1.892-.386-.446-.92-.669-1.605-.669-.572 0-1.025.136-1.359.41a2.077 2.077 0 00-.682.955h-.026c-.182-.485-.46-.834-.832-1.047a2.426 2.426 0 00-1.222-.318 2.1 2.1 0 00-.676.097c-.191.065-.358.154-.501.267a1.667 1.667 0 00-.364.397c-.1.151-.188.314-.266.487h-.052v-1.092h-1.04V96h1.04zm10.829-8.281c.225 0 .387-.054.487-.163a.6.6 0 00.15-.422v-.169a.6.6 0 00-.15-.423c-.1-.108-.262-.162-.488-.162-.225 0-.387.054-.487.162a.6.6 0 00-.15.423v.169a.6.6 0 00.15.422c.1.109.262.163.487.163zm.52 8.281v-6.708h-1.04V96h1.04zm4.225.156c.77 0 1.378-.186 1.82-.559.442-.373.663-.884.663-1.534 0-.511-.156-.925-.468-1.241-.312-.317-.841-.531-1.586-.644l-.52-.078c-.416-.07-.735-.178-.956-.325-.221-.147-.331-.386-.331-.715 0-.32.11-.574.331-.76.221-.187.548-.28.982-.28.433 0 .793.085 1.079.254.286.169.502.357.65.565l.689-.624a3.074 3.074 0 00-.969-.793c-.368-.19-.825-.286-1.371-.286-.338 0-.655.041-.95.124a2.185 2.185 0 00-.76.37c-.212.165-.38.37-.5.618a1.939 1.939 0 00-.182.864c0 .312.054.58.162.806.108.225.26.414.455.566.195.151.423.273.683.364.26.09.546.158.858.201l.533.078c.442.07.747.197.916.384.169.186.254.409.254.669 0 .347-.124.615-.371.806-.247.19-.591.286-1.033.286a2.27 2.27 0 01-1.118-.266 2.917 2.917 0 01-.871-.761l-.741.598c.303.399.665.717 1.085.956.42.238.943.357 1.567.357zm6.33 0c.772 0 1.379-.186 1.82-.559.443-.373.664-.884.664-1.534 0-.511-.156-.925-.468-1.241-.312-.317-.841-.531-1.586-.644l-.52-.078c-.416-.07-.735-.178-.956-.325-.221-.147-.331-.386-.331-.715 0-.32.11-.574.331-.76.221-.187.548-.28.982-.28.433 0 .793.085 1.079.254.286.169.502.357.65.565l.689-.624a3.074 3.074 0 00-.969-.793c-.368-.19-.825-.286-1.371-.286-.338 0-.655.041-.95.124a2.185 2.185 0 00-.76.37c-.212.165-.38.37-.5.618a1.939 1.939 0 00-.182.864c0 .312.054.58.162.806.108.225.26.414.455.566.195.151.422.273.682.364.26.09.547.158.859.201l.533.078c.442.07.747.197.916.384.169.186.254.409.254.669 0 .347-.124.615-.371.806-.247.19-.591.286-1.033.286a2.27 2.27 0 01-1.118-.266 2.917 2.917 0 01-.871-.761l-.741.598c.303.399.665.717 1.085.956.42.238.943.357 1.567.357zm4.837-8.437c.225 0 .387-.054.487-.162a.6.6 0 00.15-.423v-.169a.6.6 0 00-.15-.423c-.1-.108-.262-.162-.487-.162-.226 0-.388.054-.488.162a.6.6 0 00-.15.423v.169a.6.6 0 00.15.422c.1.109.262.163.488.163zm.52 8.281v-6.708h-1.04V96h1.04zm4.745.156c.45 0 .86-.082 1.228-.247.368-.165.687-.4.956-.709.268-.307.476-.675.624-1.104.147-.43.22-.913.22-1.45 0-.529-.073-1.01-.22-1.443a3.266 3.266 0 00-.624-1.111 2.74 2.74 0 00-.956-.709 2.977 2.977 0 00-1.228-.247c-.451 0-.863.082-1.235.247-.373.165-.692.4-.956.709-.264.307-.47.678-.617 1.111a4.462 4.462 0 00-.221 1.443c0 .537.073 1.02.22 1.45.148.429.354.797.618 1.105.264.307.583.543.956.708.372.165.784.247 1.235.247zm0-.923c-.564 0-1.023-.173-1.378-.52-.356-.347-.533-.875-.533-1.586v-.962c0-.71.177-1.24.533-1.586.355-.347.814-.52 1.378-.52.563 0 1.022.173 1.378.52.355.347.533.875.533 1.586v.962c0 .71-.178 1.24-.533 1.586-.356.347-.815.52-1.378.52zM514.2 96v-4.654c0-.217.045-.405.136-.565.091-.16.215-.293.37-.397.156-.104.332-.182.527-.234.195-.052.396-.078.605-.078 1.014 0 1.52.602 1.52 1.807V96h1.04v-4.303c0-.815-.201-1.445-.604-1.892-.403-.446-.951-.669-1.645-.669-.502 0-.903.113-1.202.338-.299.225-.53.529-.696.91h-.052v-1.092h-1.04V96h1.04z" fill="#2A3052" fill-rule="nonzero"/><path d="M483.5 33a2.5 2.5 0 01.5 4.95V83h-1V37.95a2.5 2.5 0 01.5-4.95z" fill="#E98024"/><path d="M408.792 21.312V18.48h-11.184v2.832h11.184zm0 5.568v-2.832h-11.184v2.832h11.184z" fill="#E98024" fill-rule="nonzero"/><path stroke="#DEDEDE" stroke-width="2" fill="#F2F2F2" d="M348 41h7v13h-7zM320 41h7v13h-7z"/><path stroke="#DEDEDE" stroke-width="2" fill="#F2F2F2" d="M310 1h55v41h-55z"/><path d="M328.846 28v-1.332h-3.24V15.436h-2.358l-3.33 3.114.882.954 3.168-2.952h.126v10.116h-3.51V28h8.262zm9.54 0v-1.26h-1.368V14.68h-1.44v11.826c0 .432.129.789.387 1.071.258.282.639.423 1.143.423h1.278zm5.598.216c.624 0 1.191-.114 1.701-.342.51-.228.951-.555 1.323-.981.372-.426.66-.936.864-1.53.204-.594.306-1.263.306-2.007 0-.732-.102-1.398-.306-1.998a4.522 4.522 0 00-.864-1.539 3.793 3.793 0 00-1.323-.981 4.122 4.122 0 00-1.701-.342c-.624 0-1.194.114-1.71.342a3.687 3.687 0 00-1.323.981 4.607 4.607 0 00-.855 1.539 6.178 6.178 0 00-.306 1.998c0 .744.102 1.413.306 2.007.204.594.489 1.104.855 1.53.366.426.807.753 1.323.981a4.185 4.185 0 001.71.342zm0-1.278c-.78 0-1.416-.24-1.908-.72s-.738-1.212-.738-2.196V22.69c0-.984.246-1.716.738-2.196.492-.48 1.128-.72 1.908-.72s1.416.24 1.908.72.738 1.212.738 2.196v1.332c0 .984-.246 1.716-.738 2.196-.492.48-1.128.72-1.908.72zM354.406 28v-1.26h-1.89v-6.768h2.034v-1.26h-2.034v-2.574h-1.296v1.728c0 .312-.057.531-.171.657-.114.126-.327.189-.639.189h-.864v1.26h1.53v6.498c0 .456.129.825.387 1.107.258.282.639.423 1.143.423h1.8z" fill="#2A3052" fill-rule="nonzero"/><g><path d="M319.8 96l3.055-9.074h-1.13l-1.508 4.576-1.027 3.406h-.065l-1.001-3.406-1.495-4.576h-1.17L318.475 96h1.326zm6.955.156c.451 0 .86-.082 1.229-.247.368-.165.687-.4.956-.709.268-.307.476-.675.623-1.104.148-.43.221-.913.221-1.45 0-.529-.073-1.01-.22-1.443a3.266 3.266 0 00-.625-1.111 2.74 2.74 0 00-.955-.709 2.977 2.977 0 00-1.229-.247c-.45 0-.862.082-1.235.247-.372.165-.69.4-.955.709-.264.307-.47.678-.618 1.111a4.462 4.462 0 00-.22 1.443c0 .537.073 1.02.22 1.45.148.429.354.797.618 1.105.264.307.583.543.955.708.373.165.785.247 1.235.247zm0-.923c-.563 0-1.022-.173-1.378-.52-.355-.347-.533-.875-.533-1.586v-.962c0-.71.178-1.24.533-1.586.356-.347.815-.52 1.378-.52.564 0 1.023.173 1.378.52.356.347.533.875.533 1.586v.962c0 .71-.177 1.24-.533 1.586-.355.347-.814.52-1.378.52zm6.773.767v-.91h-.988v-8.71h-1.04v8.541c0 .312.094.57.28.773.186.204.461.306.825.306h.923zm3.705.156c.278 0 .52-.035.728-.104.208-.07.386-.163.533-.28.148-.116.271-.25.371-.402.1-.152.184-.306.254-.462h.052V96h1.04v-6.708h-1.04v4.641c0 .225-.046.418-.137.579-.091.16-.212.292-.364.396a1.674 1.674 0 01-.52.234 2.336 2.336 0 01-.604.078c-1.023 0-1.534-.602-1.534-1.807v-4.121h-1.04v4.303c0 .815.203 1.445.61 1.892.408.446.958.669 1.652.669zM343.46 96v-4.654a1.127 1.127 0 01.495-.962c.147-.104.316-.182.507-.234.19-.052.39-.078.598-.078.494 0 .858.152 1.092.455.234.303.35.754.35 1.352V96h1.04v-4.654c0-.217.044-.405.13-.565.087-.16.204-.293.351-.397a1.61 1.61 0 01.501-.234c.186-.052.383-.078.591-.078.512 0 .884.152 1.118.455.234.303.351.754.351 1.352V96h1.04v-4.303c0-.815-.192-1.445-.578-1.892-.386-.446-.92-.669-1.605-.669-.572 0-1.025.136-1.359.41a2.077 2.077 0 00-.682.955h-.026c-.183-.485-.46-.834-.833-1.047a2.426 2.426 0 00-1.222-.318 2.1 2.1 0 00-.676.097c-.19.065-.357.154-.5.267a1.667 1.667 0 00-.364.397c-.1.151-.188.314-.266.487h-.052v-1.092h-1.04V96h1.04zm12.831.156c.633 0 1.18-.14 1.638-.422.46-.282.798-.653 1.014-1.112l-.74-.533a1.961 1.961 0 01-.735.858 2.04 2.04 0 01-1.112.299c-.312 0-.591-.052-.838-.156a1.782 1.782 0 01-1.014-1.073 2.295 2.295 0 01-.137-.799v-.312h4.823v-.494a4.09 4.09 0 00-.201-1.313 3.044 3.044 0 00-.579-1.033 2.678 2.678 0 00-.91-.683 2.843 2.843 0 00-1.209-.247c-.459 0-.873.082-1.241.247-.368.165-.685.4-.949.709a3.242 3.242 0 00-.611 1.111 4.586 4.586 0 00-.215 1.443c0 .537.072 1.02.215 1.45.143.428.347.797.611 1.104.264.308.58.544.949.709a3.01 3.01 0 001.241.247zm1.781-4.03h-3.705v-.091c0-.295.048-.566.143-.813.096-.246.228-.461.397-.643a1.75 1.75 0 01.605-.422c.233-.1.493-.15.78-.15.537 0 .968.18 1.293.54.325.36.487.838.487 1.436v.143z" fill="#2A3052" fill-rule="nonzero"/><path d="M337.5 33a2.5 2.5 0 01.5 4.95V83h-1V37.95a2.5 2.5 0 01.5-4.95z" fill="#E98024"/></g><path fill="#E98024" fill-rule="nonzero" d="M269.128 30l2.328-4.104h.096L273.976 30h4.032l-4.2-6.288 4.176-6.312h-3.744l-2.28 3.96h-.096l-2.352-3.96h-4.032l4.104 6.192L265.432 30z"/><g><path stroke="#DEDEDE" stroke-width="2" fill="#F2F2F2" d="M217 41h7v13h-7zM161 41h7v13h-7z"/><path stroke="#DEDEDE" stroke-width="2" fill="#F2F2F2" d="M151 1h83v41h-83z"/><path d="M169.342 28v-1.332h-6.156v-4.356h5.796V20.98h-5.796v-4.212h6.156v-1.332h-7.668V28h7.668zm7.2.216c.84 0 1.551-.108 2.133-.324a3.216 3.216 0 001.413-.99c.36-.444.621-1.002.783-1.674.162-.672.243-1.464.243-2.376v-7.416h-1.512v7.776c0 1.2-.222 2.109-.666 2.727-.444.618-1.224.927-2.34.927-1.116 0-1.896-.309-2.34-.927-.444-.618-.666-1.527-.666-2.727v-7.776h-1.512v7.416c0 .912.075 1.704.225 2.376.15.672.399 1.23.747 1.674.348.444.807.774 1.377.99.57.216 1.275.324 2.115.324zm9.342-.216v-5.4h2.934l2.718 5.4h1.71l-2.88-5.544c.828-.192 1.455-.585 1.881-1.179.426-.594.639-1.353.639-2.277 0-1.152-.309-2.034-.927-2.646-.618-.612-1.479-.918-2.583-.918h-5.004V28h1.512zm3.492-6.696h-3.492v-4.536h3.492c.6 0 1.065.156 1.395.468.33.312.495.756.495 1.332v.936c0 .576-.165 1.02-.495 1.332-.33.312-.795.468-1.395.468zM208.06 28v-1.332h-6.606l3.384-3.042c.396-.36.765-.72 1.107-1.08.342-.36.633-.729.873-1.107s.429-.777.567-1.197c.138-.42.207-.876.207-1.368 0-.54-.087-1.032-.261-1.476a3.323 3.323 0 00-.747-1.152 3.332 3.332 0 00-1.206-.756c-.48-.18-1.026-.27-1.638-.27-.612 0-1.143.084-1.593.252-.45.168-.834.39-1.152.666a3.839 3.839 0 00-.792.945c-.21.354-.375.717-.495 1.089l1.35.522c.084-.3.195-.579.333-.837s.312-.483.522-.675a2.28 2.28 0 01.747-.45 2.865 2.865 0 011.008-.162c.78 0 1.362.216 1.746.648.384.432.576.996.576 1.692v.216c0 .612-.198 1.221-.594 1.827a9.1 9.1 0 01-1.476 1.719l-4.104 3.78V28h8.244zm3.654.216c.384 0 .663-.096.837-.288.174-.192.261-.444.261-.756v-.234c0-.312-.087-.564-.261-.756-.174-.192-.453-.288-.837-.288-.384 0-.663.096-.837.288-.174.192-.261.444-.261.756v.234c0 .312.087.564.261.756.174.192.453.288.837.288zm7.758 0c.66 0 1.251-.102 1.773-.306a3.825 3.825 0 001.332-.855c.366-.366.645-.804.837-1.314.192-.51.288-1.071.288-1.683 0-.612-.093-1.158-.279-1.638a3.396 3.396 0 00-.783-1.215 3.518 3.518 0 00-1.188-.765 4.034 4.034 0 00-1.494-.27c-.66 0-1.179.126-1.557.378a3.951 3.951 0 00-1.017 1.008h-.126l.36-4.788h5.508v-1.332h-6.732l-.45 6.912 1.278.18a4.43 4.43 0 01.891-.747c.33-.21.783-.315 1.359-.315.864 0 1.518.228 1.962.684.444.456.666 1.098.666 1.926v.18c0 .828-.222 1.47-.666 1.926-.444.456-1.098.684-1.962.684-.384 0-.714-.039-.99-.117a2.462 2.462 0 01-.729-.333 2.947 2.947 0 01-.576-.522 5.567 5.567 0 01-.495-.684l-1.134.864c.192.276.405.54.639.792.234.252.507.48.819.684.312.204.669.366 1.071.486.402.12.867.18 1.395.18z" fill="#2A3052" fill-rule="nonzero"/></g><g><path d="M147.728 96.156c.763 0 1.413-.184 1.95-.553.537-.368.949-.873 1.235-1.514l-.871-.546c-.182.494-.468.89-.858 1.19-.39.299-.875.448-1.456.448-.789 0-1.4-.264-1.833-.793-.433-.529-.65-1.261-.65-2.197v-1.352c0-.468.056-.89.169-1.267.113-.378.275-.703.488-.976.212-.273.472-.483.78-.63a2.393 2.393 0 011.046-.221c.563 0 1.031.14 1.404.422s.65.657.832 1.125l.884-.533c-.286-.633-.687-1.122-1.202-1.469-.516-.347-1.155-.52-1.918-.52-1.153 0-2.05.41-2.691 1.228-.641.82-.962 1.992-.962 3.517s.32 2.68.962 3.464c.641.785 1.538 1.177 2.691 1.177zm7.306 0c.45 0 .86-.082 1.229-.247.368-.165.686-.4.955-.709.269-.307.477-.675.624-1.104.147-.43.221-.913.221-1.45 0-.529-.074-1.01-.221-1.443a3.266 3.266 0 00-.624-1.111 2.74 2.74 0 00-.955-.709 2.977 2.977 0 00-1.229-.247c-.45 0-.862.082-1.235.247-.373.165-.691.4-.955.709-.265.307-.47.678-.618 1.111a4.462 4.462 0 00-.221 1.443c0 .537.074 1.02.221 1.45.147.429.353.797.617 1.105.265.307.583.543.956.708.373.165.784.247 1.235.247zm0-.923c-.563 0-1.023-.173-1.378-.52-.355-.347-.533-.875-.533-1.586v-.962c0-.71.178-1.24.533-1.586.355-.347.815-.52 1.378-.52s1.023.173 1.378.52c.355.347.533.875.533 1.586v.962c0 .71-.178 1.24-.533 1.586-.355.347-.815.52-1.378.52zm5.785.767v-4.654a1.127 1.127 0 01.494-.962c.147-.104.316-.182.507-.234.19-.052.39-.078.598-.078.494 0 .858.152 1.092.455.234.303.351.754.351 1.352V96h1.04v-4.654c0-.217.043-.405.13-.565.087-.16.204-.293.351-.397a1.61 1.61 0 01.5-.234c.187-.052.384-.078.592-.078.511 0 .884.152 1.118.455.234.303.351.754.351 1.352V96h1.04v-4.303c0-.815-.193-1.445-.579-1.892-.385-.446-.92-.669-1.605-.669-.572 0-1.025.136-1.359.41a2.077 2.077 0 00-.682.955h-.026c-.182-.485-.46-.834-.832-1.047a2.426 2.426 0 00-1.222-.318 2.1 2.1 0 00-.676.097c-.19.065-.358.154-.5.267a1.667 1.667 0 00-.365.397c-.1.151-.188.314-.266.487h-.052v-1.092h-1.04V96h1.04zm11.349 0v-4.654a1.127 1.127 0 01.494-.962c.147-.104.316-.182.507-.234.19-.052.39-.078.598-.078.494 0 .858.152 1.092.455.234.303.351.754.351 1.352V96h1.04v-4.654c0-.217.043-.405.13-.565.087-.16.204-.293.351-.397a1.61 1.61 0 01.5-.234c.187-.052.384-.078.592-.078.511 0 .884.152 1.118.455.234.303.351.754.351 1.352V96h1.04v-4.303c0-.815-.193-1.445-.579-1.892-.385-.446-.92-.669-1.605-.669-.572 0-1.025.136-1.359.41a2.077 2.077 0 00-.682.955h-.026c-.182-.485-.46-.834-.832-1.047a2.426 2.426 0 00-1.222-.318 2.1 2.1 0 00-.676.097c-.19.065-.358.154-.5.267a1.667 1.667 0 00-.365.397c-.1.151-.188.314-.266.487h-.052v-1.092h-1.04V96h1.04zm10.829-8.281c.225 0 .388-.054.487-.163a.6.6 0 00.15-.422v-.169a.6.6 0 00-.15-.423c-.1-.108-.262-.162-.487-.162-.225 0-.388.054-.487.162a.6.6 0 00-.15.423v.169a.6.6 0 00.15.422c.1.109.262.163.487.163zm.52 8.281v-6.708h-1.04V96h1.04zm4.225.156c.771 0 1.378-.186 1.82-.559.442-.373.663-.884.663-1.534 0-.511-.156-.925-.468-1.241-.312-.317-.84-.531-1.586-.644l-.52-.078c-.416-.07-.735-.178-.956-.325-.22-.147-.331-.386-.331-.715 0-.32.11-.574.332-.76.22-.187.548-.28.981-.28.433 0 .793.085 1.079.254.286.169.503.357.65.565l.689-.624a3.074 3.074 0 00-.968-.793c-.369-.19-.826-.286-1.372-.286-.338 0-.654.041-.949.124a2.185 2.185 0 00-.76.37c-.213.165-.38.37-.501.618a1.939 1.939 0 00-.182.864c0 .312.054.58.163.806.108.225.26.414.454.566.196.151.423.273.683.364.26.09.546.158.858.201l.533.078c.442.07.748.197.917.384.169.186.253.409.253.669 0 .347-.123.615-.37.806-.247.19-.592.286-1.034.286a2.27 2.27 0 01-1.118-.266 2.917 2.917 0 01-.871-.761l-.741.598c.303.399.665.717 1.086.956.42.238.942.357 1.566.357zm6.331 0c.771 0 1.378-.186 1.82-.559.442-.373.663-.884.663-1.534 0-.511-.156-.925-.468-1.241-.312-.317-.84-.531-1.586-.644l-.52-.078c-.416-.07-.734-.178-.955-.325-.221-.147-.332-.386-.332-.715 0-.32.11-.574.332-.76.22-.187.548-.28.981-.28.433 0 .793.085 1.079.254.286.169.503.357.65.565l.689-.624a3.074 3.074 0 00-.968-.793c-.369-.19-.826-.286-1.372-.286-.338 0-.654.041-.949.124a2.185 2.185 0 00-.76.37c-.213.165-.38.37-.501.618a1.939 1.939 0 00-.182.864c0 .312.054.58.163.806.108.225.26.414.455.566.195.151.422.273.682.364.26.09.546.158.858.201l.533.078c.442.07.748.197.917.384.169.186.253.409.253.669 0 .347-.123.615-.37.806-.247.19-.592.286-1.034.286a2.27 2.27 0 01-1.118-.266 2.917 2.917 0 01-.871-.761l-.741.598c.303.399.665.717 1.086.956.42.238.942.357 1.566.357zm4.836-8.437c.225 0 .388-.054.488-.162a.6.6 0 00.149-.423v-.169a.6.6 0 00-.15-.423c-.1-.108-.262-.162-.487-.162-.225 0-.388.054-.487.162a.6.6 0 00-.15.423v.169a.6.6 0 00.15.422c.1.109.262.163.487.163zm.52 8.281v-6.708h-1.04V96h1.04zm4.745.156c.45 0 .86-.082 1.229-.247.368-.165.686-.4.955-.709.269-.307.477-.675.624-1.104.147-.43.221-.913.221-1.45 0-.529-.074-1.01-.221-1.443a3.266 3.266 0 00-.624-1.111 2.74 2.74 0 00-.955-.709 2.977 2.977 0 00-1.229-.247c-.45 0-.862.082-1.235.247-.373.165-.691.4-.955.709-.265.307-.47.678-.618 1.111a4.462 4.462 0 00-.221 1.443c0 .537.074 1.02.221 1.45.147.429.353.797.618 1.105.264.307.582.543.955.708.373.165.784.247 1.235.247zm0-.923c-.563 0-1.023-.173-1.378-.52-.355-.347-.533-.875-.533-1.586v-.962c0-.71.178-1.24.533-1.586.355-.347.815-.52 1.378-.52s1.023.173 1.378.52c.355.347.533.875.533 1.586v.962c0 .71-.178 1.24-.533 1.586-.355.347-.815.52-1.378.52zm5.785.767v-4.654c0-.217.046-.405.137-.565.09-.16.214-.293.37-.397.156-.104.332-.182.527-.234.195-.052.396-.078.604-.078 1.014 0 1.521.602 1.521 1.807V96h1.04v-4.303c0-.815-.201-1.445-.604-1.892-.403-.446-.952-.669-1.645-.669-.503 0-.903.113-1.202.338-.3.225-.531.529-.696.91h-.052v-1.092h-1.04V96h1.04zm10.452 0v-4.55c0-.32.158-.587.475-.8.316-.212.756-.318 1.319-.318h.611v-1.04h-.403c-.546 0-.975.126-1.287.377-.312.251-.529.537-.65.858h-.065v-1.235h-1.04V96h1.04zm5.447.156c.468 0 .871-.104 1.209-.312.338-.208.58-.52.728-.936h.065c.043.312.15.572.319.78.169.208.448.312.838.312h.585v-.91h-.767v-3.692c0-.71-.225-1.265-.676-1.664-.45-.399-1.083-.598-1.898-.598-.607 0-1.11.128-1.508.384-.399.255-.689.565-.871.929l.624.585a2.25 2.25 0 01.683-.728c.273-.182.613-.273 1.02-.273.537 0 .936.126 1.196.377.26.251.39.615.39 1.092v.663h-1.326c-.98 0-1.7.169-2.164.507-.464.338-.696.823-.696 1.456 0 .624.197 1.118.592 1.482.394.364.946.546 1.657.546zm.169-.884c-.407 0-.73-.091-.968-.273-.239-.182-.358-.438-.358-.767v-.273c0-.33.137-.58.41-.754.273-.173.708-.26 1.306-.26h1.378v1.105a.932.932 0 01-.13.481 1.289 1.289 0 01-.364.39c-.156.113-.342.2-.559.26-.217.06-.455.091-.715.091zm7.839.728v-.91h-1.365v-4.888h1.469v-.91h-1.469v-1.859h-.936v1.248c0 .225-.041.383-.123.474-.083.091-.237.137-.462.137h-.624v.91h1.105v4.693c0 .33.093.596.28.8.186.203.461.305.825.305h1.3zm4.303.156c.633 0 1.179-.14 1.638-.422.46-.282.797-.653 1.014-1.112l-.741-.533a1.961 1.961 0 01-.734.858 2.04 2.04 0 01-1.112.299c-.312 0-.591-.052-.838-.156a1.782 1.782 0 01-1.014-1.073 2.295 2.295 0 01-.137-.799v-.312h4.823v-.494a4.09 4.09 0 00-.202-1.313 3.044 3.044 0 00-.578-1.033 2.678 2.678 0 00-.91-.683 2.843 2.843 0 00-1.209-.247c-.46 0-.873.082-1.242.247-.368.165-.684.4-.949.709a3.242 3.242 0 00-.61 1.111 4.586 4.586 0 00-.215 1.443c0 .537.071 1.02.214 1.45.143.428.347.797.611 1.104.265.308.581.544.95.709a3.01 3.01 0 001.241.247zm1.781-4.03h-3.705v-.091c0-.295.048-.566.143-.813.095-.246.228-.461.397-.643a1.75 1.75 0 01.604-.422c.234-.1.494-.15.78-.15.537 0 .969.18 1.294.54.325.36.487.838.487 1.436v.143z" fill="#2A3052" fill-rule="nonzero"/><path d="M192.5 33a2.5 2.5 0 01.5 4.95V83h-1V37.95a2.5 2.5 0 01.5-4.95z" fill="#E98024"/></g></g></svg>