<svg width="680" height="97" xmlns="http://www.w3.org/2000/svg"><g fill="none" fill-rule="evenodd"><path fill="#E5E5E5" d="M0 55h680v2H0z"/><path stroke="#DEDEDE" stroke-width="2" fill="#F2F2F2" d="M529 41h7v13h-7zM464 41h7v13h-7z"/><path fill="#2A3052" d="M443 0h114v43H443z"/><path d="M458.4 28.216c1.5 0 2.595-.57 3.285-1.71.69-1.14 1.035-2.736 1.035-4.788s-.345-3.648-1.035-4.788c-.69-1.14-1.785-1.71-3.285-1.71-1.5 0-2.595.57-3.285 1.71-.69 1.14-1.035 2.736-1.035 4.788s.345 3.648 1.035 4.788c.69 1.14 1.785 1.71 3.285 1.71zm0-1.314c-.492 0-.912-.102-1.26-.306a2.34 2.34 0 01-.846-.864 4.3 4.3 0 01-.477-1.314 8.46 8.46 0 01-.153-1.674v-2.052c0-.612.051-1.17.153-1.674a4.3 4.3 0 01.477-1.314 2.34 2.34 0 01.846-.864c.348-.204.768-.306 1.26-.306s.912.102 1.26.306c.348.204.63.492.846.864a4.3 4.3 0 01.477 1.314 8.46 8.46 0 01.153 1.674v2.052a8.46 8.46 0 01-.153 1.674 4.3 4.3 0 01-.477 1.314 2.34 2.34 0 01-.846.864c-.348.204-.768.306-1.26.306zm7.848 1.314c.384 0 .663-.096.837-.288.174-.192.261-.444.261-.756v-.234c0-.312-.087-.564-.261-.756-.174-.192-.453-.288-.837-.288-.384 0-.663.096-.837.288-.174.192-.261.444-.261.756v.234c0 .312.087.564.261.756.174.192.453.288.837.288zm7.848 0c1.5 0 2.595-.57 3.285-1.71.69-1.14 1.035-2.736 1.035-4.788s-.345-3.648-1.035-4.788c-.69-1.14-1.785-1.71-3.285-1.71-1.5 0-2.595.57-3.285 1.71-.69 1.14-1.035 2.736-1.035 4.788s.345 3.648 1.035 4.788c.69 1.14 1.785 1.71 3.285 1.71zm0-1.314c-.492 0-.912-.102-1.26-.306a2.34 2.34 0 01-.846-.864 4.3 4.3 0 01-.477-1.314 8.46 8.46 0 01-.153-1.674v-2.052c0-.612.051-1.17.153-1.674a4.3 4.3 0 01.477-1.314 2.34 2.34 0 01.846-.864c.348-.204.768-.306 1.26-.306s.912.102 1.26.306c.348.204.63.492.846.864a4.3 4.3 0 01.477 1.314 8.46 8.46 0 01.153 1.674v2.052a8.46 8.46 0 01-.153 1.674 4.3 4.3 0 01-.477 1.314 2.34 2.34 0 01-.846.864c-.348.204-.768.306-1.26.306zm10.8 1.314c1.5 0 2.595-.57 3.285-1.71.69-1.14 1.035-2.736 1.035-4.788s-.345-3.648-1.035-4.788c-.69-1.14-1.785-1.71-3.285-1.71-1.5 0-2.595.57-3.285 1.71-.69 1.14-1.035 2.736-1.035 4.788s.345 3.648 1.035 4.788c.69 1.14 1.785 1.71 3.285 1.71zm0-1.314c-.492 0-.912-.102-1.26-.306a2.34 2.34 0 01-.846-.864 4.3 4.3 0 01-.477-1.314 8.46 8.46 0 01-.153-1.674v-2.052c0-.612.051-1.17.153-1.674a4.3 4.3 0 01.477-1.314 2.34 2.34 0 01.846-.864c.348-.204.768-.306 1.26-.306s.912.102 1.26.306c.348.204.63.492.846.864a4.3 4.3 0 01.477 1.314 8.46 8.46 0 01.153 1.674v2.052a8.46 8.46 0 01-.153 1.674 4.3 4.3 0 01-.477 1.314 2.34 2.34 0 01-.846.864c-.348.204-.768.306-1.26.306zm10.8 1.314c1.5 0 2.595-.57 3.285-1.71.69-1.14 1.035-2.736 1.035-4.788s-.345-3.648-1.035-4.788c-.69-1.14-1.785-1.71-3.285-1.71-1.5 0-2.595.57-3.285 1.71-.69 1.14-1.035 2.736-1.035 4.788s.345 3.648 1.035 4.788c.69 1.14 1.785 1.71 3.285 1.71zm0-1.314c-.492 0-.912-.102-1.26-.306a2.34 2.34 0 01-.846-.864 4.3 4.3 0 01-.477-1.314 8.46 8.46 0 01-.153-1.674v-2.052c0-.612.051-1.17.153-1.674a4.3 4.3 0 01.477-1.314 2.34 2.34 0 01.846-.864c.348-.204.768-.306 1.26-.306s.912.102 1.26.306c.348.204.63.492.846.864a4.3 4.3 0 01.477 1.314 8.46 8.46 0 01.153 1.674v2.052a8.46 8.46 0 01-.153 1.674 4.3 4.3 0 01-.477 1.314 2.34 2.34 0 01-.846.864c-.348.204-.768.306-1.26.306zM509.286 28v-2.466h1.818v-1.26h-1.818v-8.838h-2.25l-5.256 8.766v1.332h6.066V28h1.44zm-1.44-3.726h-4.644l4.554-7.668h.09v7.668zM520.482 28v-1.26h-1.368V14.68h-1.44v11.826c0 .432.129.789.387 1.071.258.282.639.423 1.143.423h1.278zm5.598.216c.624 0 1.191-.114 1.701-.342.51-.228.951-.555 1.323-.981.372-.426.66-.936.864-1.53.204-.594.306-1.263.306-2.007 0-.732-.102-1.398-.306-1.998a4.522 4.522 0 00-.864-1.539 3.793 3.793 0 00-1.323-.981 4.122 4.122 0 00-1.701-.342c-.624 0-1.194.114-1.71.342a3.687 3.687 0 00-1.323.981 4.607 4.607 0 00-.855 1.539 6.178 6.178 0 00-.306 1.998c0 .744.102 1.413.306 2.007.204.594.489 1.104.855 1.53.366.426.807.753 1.323.981a4.185 4.185 0 001.71.342zm0-1.278c-.78 0-1.416-.24-1.908-.72s-.738-1.212-.738-2.196V22.69c0-.984.246-1.716.738-2.196.492-.48 1.128-.72 1.908-.72s1.416.24 1.908.72.738 1.212.738 2.196v1.332c0 .984-.246 1.716-.738 2.196-.492.48-1.128.72-1.908.72zM536.502 28v-1.26h-1.89v-6.768h2.034v-1.26h-2.034v-2.574h-1.296v1.728c0 .312-.057.531-.171.657-.114.126-.327.189-.639.189h-.864v1.26h1.53v6.498c0 .456.129.825.387 1.107.258.282.639.423 1.143.423h1.8zm5.256.216c1.068 0 1.908-.258 2.52-.774.612-.516.918-1.224.918-2.124 0-.708-.216-1.281-.648-1.719-.432-.438-1.164-.735-2.196-.891l-.72-.108c-.576-.096-1.017-.246-1.323-.45-.306-.204-.459-.534-.459-.99 0-.444.153-.795.459-1.053.306-.258.759-.387 1.359-.387s1.098.117 1.494.351c.396.234.696.495.9.783l.954-.864a4.257 4.257 0 00-1.341-1.098c-.51-.264-1.143-.396-1.899-.396-.468 0-.906.057-1.314.171a3.026 3.026 0 00-1.053.513 2.411 2.411 0 00-.693.855c-.168.342-.252.741-.252 1.197 0 .432.075.804.225 1.116.15.312.36.573.63.783.27.21.585.378.945.504s.756.219 1.188.279l.738.108c.612.096 1.035.273 1.269.531.234.258.351.567.351.927 0 .48-.171.852-.513 1.116-.342.264-.819.396-1.431.396-.588 0-1.104-.123-1.548-.369a4.038 4.038 0 01-1.206-1.053l-1.026.828c.42.552.921.993 1.503 1.323.582.33 1.305.495 2.169.495z" fill="#FFF" fill-rule="nonzero"/><path d="M463.56 96l3.055-9.074h-1.13l-1.508 4.576-1.027 3.406h-.065l-1.001-3.406-1.495-4.576h-1.17L462.235 96h1.326zm6.955.156c.451 0 .86-.082 1.229-.247.368-.165.687-.4.955-.709.27-.307.477-.675.624-1.104.148-.43.221-.913.221-1.45 0-.529-.073-1.01-.22-1.443a3.266 3.266 0 00-.625-1.111 2.74 2.74 0 00-.955-.709 2.977 2.977 0 00-1.229-.247c-.45 0-.862.082-1.235.247-.372.165-.69.4-.955.709-.264.307-.47.678-.618 1.111a4.462 4.462 0 00-.22 1.443c0 .537.073 1.02.22 1.45.148.429.354.797.618 1.105.264.307.583.543.955.708.373.165.785.247 1.235.247zm0-.923c-.563 0-1.022-.173-1.378-.52-.355-.347-.533-.875-.533-1.586v-.962c0-.71.178-1.24.533-1.586.356-.347.815-.52 1.378-.52.564 0 1.023.173 1.378.52.356.347.533.875.533 1.586v.962c0 .71-.177 1.24-.533 1.586-.355.347-.814.52-1.378.52zm6.773.767v-.91h-.988v-8.71h-1.04v8.541c0 .312.094.57.28.773.186.204.461.306.825.306h.923zm3.705.156c.278 0 .52-.035.728-.104.208-.07.386-.163.533-.28.148-.116.271-.25.371-.402.1-.152.184-.306.253-.462h.052V96h1.04v-6.708h-1.04v4.641c0 .225-.045.418-.136.579-.091.16-.212.292-.364.396a1.674 1.674 0 01-.52.234 2.336 2.336 0 01-.605.078c-1.022 0-1.533-.602-1.533-1.807v-4.121h-1.04v4.303c0 .815.203 1.445.61 1.892.408.446.958.669 1.652.669zM487.22 96v-4.654a1.127 1.127 0 01.494-.962c.148-.104.317-.182.507-.234.191-.052.39-.078.598-.078.494 0 .858.152 1.092.455.234.303.351.754.351 1.352V96h1.04v-4.654c0-.217.044-.405.13-.565.087-.16.204-.293.351-.397a1.61 1.61 0 01.501-.234c.186-.052.383-.078.592-.078.51 0 .884.152 1.118.455.233.303.35.754.35 1.352V96h1.04v-4.303c0-.815-.192-1.445-.578-1.892-.386-.446-.92-.669-1.605-.669-.573 0-1.025.136-1.359.41a2.077 2.077 0 00-.682.955h-.027c-.182-.485-.459-.834-.832-1.047a2.426 2.426 0 00-1.222-.318 2.1 2.1 0 00-.676.097c-.19.065-.357.154-.5.267a1.667 1.667 0 00-.364.397c-.1.151-.188.314-.266.487h-.052v-1.092h-1.04V96h1.04zm12.831.156c.633 0 1.18-.14 1.638-.422.46-.282.798-.653 1.014-1.112l-.74-.533a1.961 1.961 0 01-.735.858 2.04 2.04 0 01-1.112.299c-.312 0-.591-.052-.838-.156a1.782 1.782 0 01-1.014-1.073 2.295 2.295 0 01-.137-.799v-.312h4.823v-.494a4.09 4.09 0 00-.201-1.313 3.044 3.044 0 00-.579-1.033 2.678 2.678 0 00-.91-.683 2.843 2.843 0 00-1.209-.247c-.459 0-.873.082-1.241.247-.368.165-.685.4-.949.709a3.242 3.242 0 00-.611 1.111 4.586 4.586 0 00-.215 1.443c0 .537.072 1.02.215 1.45.143.428.347.797.611 1.104.264.308.58.544.949.709a3.01 3.01 0 001.241.247zm1.781-4.03h-3.705v-.091c0-.295.048-.566.143-.813.096-.246.228-.461.397-.643a1.75 1.75 0 01.605-.422c.233-.1.493-.15.78-.15.537 0 .968.18 1.293.54.325.36.487.838.487 1.436v.143zm6.422-4.407c.226 0 .388-.054.488-.162a.6.6 0 00.15-.423v-.169a.6.6 0 00-.15-.423c-.1-.108-.262-.162-.487-.162-.226 0-.388.054-.488.162a.6.6 0 00-.15.423v.169a.6.6 0 00.15.422c.1.109.262.163.487.163zm.52 8.281v-6.708h-1.04V96h1.04zm3.25 0v-4.654c0-.217.046-.405.137-.565.091-.16.215-.293.37-.397.156-.104.332-.182.527-.234.195-.052.397-.078.605-.078 1.014 0 1.52.602 1.52 1.807V96h1.04v-4.303c0-.815-.201-1.445-.604-1.892-.403-.446-.951-.669-1.645-.669-.502 0-.903.113-1.202.338-.299.225-.53.529-.696.91h-.052v-1.092h-1.04V96h1.04zm11.44 0v-.91h-.988v-8.71h-1.04v8.541c0 .312.094.57.28.773.186.204.462.306.826.306h.923zm4.043.156c.451 0 .86-.082 1.229-.247.368-.165.687-.4.956-.709.268-.307.476-.675.624-1.104.147-.43.22-.913.22-1.45 0-.529-.073-1.01-.22-1.443a3.266 3.266 0 00-.624-1.111 2.74 2.74 0 00-.956-.709 2.977 2.977 0 00-1.228-.247c-.451 0-.863.082-1.235.247-.373.165-.692.4-.956.709-.264.307-.47.678-.617 1.111a4.462 4.462 0 00-.221 1.443c0 .537.073 1.02.22 1.45.148.429.354.797.618 1.105.264.307.583.543.956.708.372.165.784.247 1.235.247zm0-.923c-.563 0-1.022-.173-1.377-.52-.356-.347-.533-.875-.533-1.586v-.962c0-.71.177-1.24.532-1.586.356-.347.815-.52 1.378-.52.564 0 1.023.173 1.379.52.355.347.533.875.533 1.586v.962c0 .71-.178 1.24-.533 1.586-.356.347-.815.52-1.378.52zm7.528.767v-.91h-1.365v-4.888h1.469v-.91h-1.47v-1.859h-.936v1.248c0 .225-.04.383-.123.474-.082.091-.236.137-.462.137h-.624v.91h1.105v4.693c0 .33.094.596.28.8.186.203.461.305.825.305h1.3zm3.796.156c.77 0 1.378-.186 1.82-.559.442-.373.663-.884.663-1.534 0-.511-.156-.925-.468-1.241-.312-.317-.841-.531-1.586-.644l-.52-.078c-.416-.07-.735-.178-.956-.325-.221-.147-.331-.386-.331-.715 0-.32.11-.574.331-.76.221-.187.548-.28.982-.28.433 0 .793.085 1.079.254.286.169.502.357.65.565l.689-.624a3.074 3.074 0 00-.969-.793c-.368-.19-.825-.286-1.371-.286-.338 0-.655.041-.95.124a2.185 2.185 0 00-.76.37c-.212.165-.38.37-.5.618a1.939 1.939 0 00-.182.864c0 .312.054.58.162.806.108.225.26.414.455.566.195.151.423.273.683.364.26.09.546.158.858.201l.533.078c.442.07.747.197.916.384.169.186.254.409.254.669 0 .347-.124.615-.371.806-.247.19-.591.286-1.033.286a2.27 2.27 0 01-1.118-.266 2.917 2.917 0 01-.871-.761l-.741.598c.303.399.665.717 1.085.956.42.238.943.357 1.567.357z" fill="#2A3052" fill-rule="nonzero"/><path d="M500.5 33a2.5 2.5 0 01.5 4.95V83h-1V37.95a2.5 2.5 0 01.5-4.95z" fill="#E98024"/><path d="M410.792 21.312V18.48h-11.184v2.832h11.184zm0 5.568v-2.832h-11.184v2.832h11.184z" fill="#E98024" fill-rule="nonzero"/><path stroke="#DEDEDE" stroke-width="2" fill="#F2F2F2" d="M351 41h7v13h-7zM271 41h7v13h-7z"/><path stroke="#DEDEDE" stroke-width="2" fill="#F2F2F2" d="M251 1h127v41H251z"/><path d="M266.048 28.216c.84 0 1.551-.108 2.133-.324a3.216 3.216 0 001.413-.99c.36-.444.621-1.002.783-1.674.162-.672.243-1.464.243-2.376v-7.416h-1.512v7.776c0 1.2-.222 2.109-.666 2.727-.444.618-1.224.927-2.34.927-1.116 0-1.896-.309-2.34-.927-.444-.618-.666-1.527-.666-2.727v-7.776h-1.512v7.416c0 .912.075 1.704.225 2.376.15.672.399 1.23.747 1.674.348.444.807.774 1.377.99.57.216 1.275.324 2.115.324zm11.358 0c.672 0 1.275-.09 1.809-.27.534-.18.987-.432 1.359-.756s.657-.72.855-1.188c.198-.468.297-.99.297-1.566 0-.936-.276-1.686-.828-2.25-.552-.564-1.446-.984-2.682-1.26l-1.026-.234c-.792-.18-1.383-.423-1.773-.729-.39-.306-.585-.759-.585-1.359 0-.684.231-1.197.693-1.539.462-.342 1.095-.513 1.899-.513.732 0 1.344.138 1.836.414.492.276.912.654 1.26 1.134l1.134-.828a4.695 4.695 0 00-1.719-1.53c-.678-.348-1.491-.522-2.439-.522-.612 0-1.173.075-1.683.225-.51.15-.948.369-1.314.657a2.963 2.963 0 00-.855 1.08c-.204.432-.306.924-.306 1.476 0 .972.303 1.725.909 2.259.606.534 1.485.933 2.637 1.197l1.026.234c.828.192 1.422.45 1.782.774.36.324.54.786.54 1.386 0 .72-.237 1.296-.711 1.728-.474.432-1.161.648-2.061.648-.732 0-1.368-.153-1.908-.459-.54-.306-1.032-.753-1.476-1.341l-1.116.936a5.54 5.54 0 001.836 1.611c.72.39 1.59.585 2.61.585zM288.548 28c.78 0 1.488-.132 2.124-.396a4.298 4.298 0 001.629-1.179c.45-.522.795-1.176 1.035-1.962.24-.786.36-1.701.36-2.745s-.12-1.959-.36-2.745-.585-1.44-1.035-1.962a4.298 4.298 0 00-1.629-1.179c-.636-.264-1.344-.396-2.124-.396h-4.212V28h4.212zm0-1.332h-2.7v-9.9h2.7c.516 0 .99.087 1.422.261.432.174.804.429 1.116.765.312.336.555.747.729 1.233.174.486.261 1.041.261 1.665v2.052c0 .624-.087 1.179-.261 1.665a3.538 3.538 0 01-.729 1.233 3.067 3.067 0 01-1.116.765 3.772 3.772 0 01-1.422.261zm15.75 1.548c.66 0 1.251-.102 1.773-.306a3.825 3.825 0 001.332-.855c.366-.366.645-.804.837-1.314.192-.51.288-1.071.288-1.683 0-.612-.093-1.158-.279-1.638a3.396 3.396 0 00-.783-1.215 3.518 3.518 0 00-1.188-.765 4.034 4.034 0 00-1.494-.27c-.66 0-1.179.126-1.557.378a3.951 3.951 0 00-1.017 1.008h-.126l.36-4.788h5.508v-1.332h-6.732l-.45 6.912 1.278.18a4.43 4.43 0 01.891-.747c.33-.21.783-.315 1.359-.315.864 0 1.518.228 1.962.684.444.456.666 1.098.666 1.926v.18c0 .828-.222 1.47-.666 1.926-.444.456-1.098.684-1.962.684-.384 0-.714-.039-.99-.117a2.462 2.462 0 01-.729-.333 2.947 2.947 0 01-.576-.522 5.567 5.567 0 01-.495-.684l-1.134.864c.192.276.405.54.639.792.234.252.507.48.819.684.312.204.669.366 1.071.486.402.12.867.18 1.395.18zm10.89 0c1.5 0 2.595-.57 3.285-1.71.69-1.14 1.035-2.736 1.035-4.788s-.345-3.648-1.035-4.788c-.69-1.14-1.785-1.71-3.285-1.71-1.5 0-2.595.57-3.285 1.71-.69 1.14-1.035 2.736-1.035 4.788s.345 3.648 1.035 4.788c.69 1.14 1.785 1.71 3.285 1.71zm0-1.314c-.492 0-.912-.102-1.26-.306a2.34 2.34 0 01-.846-.864 4.3 4.3 0 01-.477-1.314 8.46 8.46 0 01-.153-1.674v-2.052c0-.612.051-1.17.153-1.674a4.3 4.3 0 01.477-1.314 2.34 2.34 0 01.846-.864c.348-.204.768-.306 1.26-.306s.912.102 1.26.306c.348.204.63.492.846.864a4.3 4.3 0 01.477 1.314 8.46 8.46 0 01.153 1.674v2.052a8.46 8.46 0 01-.153 1.674 4.3 4.3 0 01-.477 1.314 2.34 2.34 0 01-.846.864c-.348.204-.768.306-1.26.306zm10.8 1.314c1.5 0 2.595-.57 3.285-1.71.69-1.14 1.035-2.736 1.035-4.788s-.345-3.648-1.035-4.788c-.69-1.14-1.785-1.71-3.285-1.71-1.5 0-2.595.57-3.285 1.71-.69 1.14-1.035 2.736-1.035 4.788s.345 3.648 1.035 4.788c.69 1.14 1.785 1.71 3.285 1.71zm0-1.314c-.492 0-.912-.102-1.26-.306a2.34 2.34 0 01-.846-.864 4.3 4.3 0 01-.477-1.314 8.46 8.46 0 01-.153-1.674v-2.052c0-.612.051-1.17.153-1.674a4.3 4.3 0 01.477-1.314 2.34 2.34 0 01.846-.864c.348-.204.768-.306 1.26-.306s.912.102 1.26.306c.348.204.63.492.846.864a4.3 4.3 0 01.477 1.314 8.46 8.46 0 01.153 1.674v2.052a8.46 8.46 0 01-.153 1.674 4.3 4.3 0 01-.477 1.314 2.34 2.34 0 01-.846.864c-.348.204-.768.306-1.26.306zm7.308 3.492a4.802 4.802 0 001.206-1.557c.288-.594.432-1.137.432-1.629v-.252c0-.312-.087-.567-.261-.765-.174-.198-.453-.297-.837-.297-.384 0-.663.099-.837.297-.174.198-.261.453-.261.765v.252c0 .24.057.444.171.612.114.168.291.282.531.342-.096.42-.255.801-.477 1.143a7.96 7.96 0 01-.873 1.089h1.206zm8.388-2.178c1.5 0 2.595-.57 3.285-1.71.69-1.14 1.035-2.736 1.035-4.788s-.345-3.648-1.035-4.788c-.69-1.14-1.785-1.71-3.285-1.71-1.5 0-2.595.57-3.285 1.71-.69 1.14-1.035 2.736-1.035 4.788s.345 3.648 1.035 4.788c.69 1.14 1.785 1.71 3.285 1.71zm0-1.314c-.492 0-.912-.102-1.26-.306a2.34 2.34 0 01-.846-.864 4.3 4.3 0 01-.477-1.314 8.46 8.46 0 01-.153-1.674v-2.052c0-.612.051-1.17.153-1.674a4.3 4.3 0 01.477-1.314 2.34 2.34 0 01.846-.864c.348-.204.768-.306 1.26-.306s.912.102 1.26.306c.348.204.63.492.846.864a4.3 4.3 0 01.477 1.314 8.46 8.46 0 01.153 1.674v2.052a8.46 8.46 0 01-.153 1.674 4.3 4.3 0 01-.477 1.314 2.34 2.34 0 01-.846.864c-.348.204-.768.306-1.26.306zm10.8 1.314c1.5 0 2.595-.57 3.285-1.71.69-1.14 1.035-2.736 1.035-4.788s-.345-3.648-1.035-4.788c-.69-1.14-1.785-1.71-3.285-1.71-1.5 0-2.595.57-3.285 1.71-.69 1.14-1.035 2.736-1.035 4.788s.345 3.648 1.035 4.788c.69 1.14 1.785 1.71 3.285 1.71zm0-1.314c-.492 0-.912-.102-1.26-.306a2.34 2.34 0 01-.846-.864 4.3 4.3 0 01-.477-1.314 8.46 8.46 0 01-.153-1.674v-2.052c0-.612.051-1.17.153-1.674a4.3 4.3 0 01.477-1.314 2.34 2.34 0 01.846-.864c.348-.204.768-.306 1.26-.306s.912.102 1.26.306c.348.204.63.492.846.864a4.3 4.3 0 01.477 1.314 8.46 8.46 0 01.153 1.674v2.052a8.46 8.46 0 01-.153 1.674 4.3 4.3 0 01-.477 1.314 2.34 2.34 0 01-.846.864c-.348.204-.768.306-1.26.306zm10.8 1.314c1.5 0 2.595-.57 3.285-1.71.69-1.14 1.035-2.736 1.035-4.788s-.345-3.648-1.035-4.788c-.69-1.14-1.785-1.71-3.285-1.71-1.5 0-2.595.57-3.285 1.71-.69 1.14-1.035 2.736-1.035 4.788s.345 3.648 1.035 4.788c.69 1.14 1.785 1.71 3.285 1.71zm0-1.314c-.492 0-.912-.102-1.26-.306a2.34 2.34 0 01-.846-.864 4.3 4.3 0 01-.477-1.314 8.46 8.46 0 01-.153-1.674v-2.052c0-.612.051-1.17.153-1.674a4.3 4.3 0 01.477-1.314 2.34 2.34 0 01.846-.864c.348-.204.768-.306 1.26-.306s.912.102 1.26.306c.348.204.63.492.846.864a4.3 4.3 0 01.477 1.314 8.46 8.46 0 01.153 1.674v2.052a8.46 8.46 0 01-.153 1.674 4.3 4.3 0 01-.477 1.314 2.34 2.34 0 01-.846.864c-.348.204-.768.306-1.26.306z" fill="#2A3052" fill-rule="nonzero"/><g><path d="M288.637 96.156c.485 0 .92-.065 1.306-.195a2.87 2.87 0 00.982-.546 2.32 2.32 0 00.617-.858c.143-.338.215-.715.215-1.131 0-.676-.2-1.218-.599-1.625-.398-.407-1.044-.71-1.937-.91l-.74-.169c-.573-.13-1-.305-1.281-.526-.282-.221-.423-.549-.423-.982 0-.494.167-.864.501-1.111.334-.247.79-.371 1.371-.371.53 0 .971.1 1.326.299.356.2.66.472.91.819l.82-.598a3.391 3.391 0 00-1.242-1.105c-.49-.251-1.077-.377-1.761-.377-.442 0-.848.054-1.216.163a2.788 2.788 0 00-.949.474 2.14 2.14 0 00-.617.78 2.468 2.468 0 00-.222 1.066c0 .702.22 1.246.657 1.632.438.385 1.072.673 1.904.864l.741.169c.598.139 1.027.325 1.287.559.26.234.39.568.39 1.001 0 .52-.17.936-.513 1.248-.342.312-.839.468-1.489.468-.528 0-.988-.11-1.378-.331-.39-.221-.745-.544-1.066-.969l-.806.676a4 4 0 001.326 1.164c.52.281 1.149.422 1.885.422zm5.94 2.444v-3.692h.052c.4.832 1.053 1.248 1.963 1.248.417 0 .794-.082 1.132-.247.338-.165.626-.399.864-.702.238-.303.42-.672.546-1.105.126-.433.189-.919.189-1.456 0-.537-.063-1.023-.189-1.456a3.217 3.217 0 00-.546-1.105 2.457 2.457 0 00-.864-.702 2.548 2.548 0 00-1.131-.247c-.468 0-.87.102-1.203.306-.334.203-.587.517-.76.942h-.052v-1.092h-1.04V98.6h1.04zm1.73-3.38c-.235 0-.458-.03-.67-.091a1.68 1.68 0 01-.553-.267 1.303 1.303 0 01-.37-.429 1.2 1.2 0 01-.137-.578v-2.496c0-.182.046-.353.137-.514.091-.16.214-.296.37-.409a1.87 1.87 0 01.553-.267c.212-.065.435-.097.67-.097.589 0 1.052.184 1.39.552.338.369.507.852.507 1.45v1.144c0 .598-.169 1.081-.507 1.45-.338.368-.801.552-1.39.552zm7.305.936c.451 0 .86-.082 1.229-.247.368-.165.687-.4.955-.709.27-.307.477-.675.624-1.104.148-.43.221-.913.221-1.45 0-.529-.073-1.01-.22-1.443a3.266 3.266 0 00-.625-1.111 2.74 2.74 0 00-.955-.709 2.977 2.977 0 00-1.229-.247c-.45 0-.862.082-1.235.247-.372.165-.69.4-.955.709-.264.307-.47.678-.618 1.111a4.462 4.462 0 00-.22 1.443c0 .537.073 1.02.22 1.45.148.429.354.797.618 1.105.264.307.583.543.955.708.373.165.785.247 1.235.247zm0-.923c-.563 0-1.022-.173-1.378-.52-.355-.347-.533-.875-.533-1.586v-.962c0-.71.178-1.24.533-1.586.356-.347.815-.52 1.378-.52.564 0 1.023.173 1.378.52.356.347.533.875.533 1.586v.962c0 .71-.177 1.24-.533 1.586-.355.347-.814.52-1.378.52zm7.527.767v-.91h-1.365v-4.888h1.47v-.91h-1.47v-1.859h-.936v1.248c0 .225-.04.383-.123.474-.082.091-.236.137-.462.137h-.624v.91h1.105v4.693c0 .33.094.596.28.8.186.203.461.305.825.305h1.3zm5.89 2.6v-3.692h.051c.4.832 1.053 1.248 1.963 1.248.416 0 .793-.082 1.131-.247.338-.165.627-.399.865-.702.238-.303.42-.672.546-1.105.126-.433.188-.919.188-1.456 0-.537-.062-1.023-.188-1.456a3.217 3.217 0 00-.546-1.105 2.457 2.457 0 00-.864-.702 2.548 2.548 0 00-1.132-.247c-.468 0-.868.102-1.202.306-.334.203-.587.517-.76.942h-.052v-1.092h-1.04V98.6h1.04zm1.728-3.38c-.234 0-.457-.03-.669-.091a1.68 1.68 0 01-.553-.267 1.303 1.303 0 01-.37-.429 1.2 1.2 0 01-.137-.578v-2.496c0-.182.046-.353.137-.514.091-.16.214-.296.37-.409a1.87 1.87 0 01.553-.267c.212-.065.435-.097.67-.097.589 0 1.052.184 1.39.552.338.369.507.852.507 1.45v1.144c0 .598-.169 1.081-.507 1.45-.338.368-.801.552-1.39.552zm5.811.78v-4.55c0-.32.159-.587.475-.8.316-.212.756-.318 1.32-.318h.61v-1.04h-.403c-.546 0-.975.126-1.287.377-.312.251-.528.537-.65.858h-.065v-1.235h-1.04V96h1.04zm4.251-8.281c.226 0 .388-.054.488-.163a.6.6 0 00.15-.422v-.169a.6.6 0 00-.15-.423c-.1-.108-.262-.162-.488-.162-.225 0-.387.054-.487.162a.6.6 0 00-.15.423v.169a.6.6 0 00.15.422c.1.109.262.163.487.163zm.52 8.281v-6.708h-1.04V96h1.04zm4.706.156c.642 0 1.177-.143 1.606-.429.429-.286.752-.672.968-1.157l-.754-.507c-.372.78-.979 1.17-1.82 1.17-.615 0-1.08-.188-1.397-.566-.316-.376-.475-.86-.475-1.449v-1.144c0-.295.04-.565.117-.812a1.75 1.75 0 01.351-.637c.156-.178.351-.317.585-.416.234-.1.507-.15.82-.15.415 0 .762.095 1.04.286.277.19.476.46.597.806l.871-.442c-.199-.468-.5-.847-.903-1.138-.403-.29-.938-.435-1.606-.435-.468 0-.888.082-1.26.247a2.576 2.576 0 00-.943.702c-.256.303-.45.672-.585 1.105a4.907 4.907 0 00-.202 1.456c0 .537.068 1.023.202 1.456.134.433.33.802.585 1.105.256.303.57.537.942.702.373.165.793.247 1.261.247zm6.565 0c.633 0 1.18-.14 1.638-.422.46-.282.798-.653 1.014-1.112l-.74-.533a1.961 1.961 0 01-.735.858 2.04 2.04 0 01-1.112.299c-.312 0-.591-.052-.838-.156a1.782 1.782 0 01-1.014-1.073 2.295 2.295 0 01-.137-.799v-.312h4.823v-.494a4.09 4.09 0 00-.201-1.313 3.044 3.044 0 00-.579-1.033 2.678 2.678 0 00-.91-.683 2.843 2.843 0 00-1.209-.247c-.459 0-.873.082-1.241.247-.368.165-.685.4-.949.709a3.242 3.242 0 00-.611 1.111 4.586 4.586 0 00-.215 1.443c0 .537.072 1.02.215 1.45.143.428.347.797.611 1.104.264.308.58.544.949.709a3.01 3.01 0 001.241.247zm1.781-4.03h-3.705v-.091c0-.295.048-.566.143-.813.096-.246.228-.461.397-.643a1.75 1.75 0 01.604-.422c.234-.1.494-.15.78-.15.538 0 .969.18 1.294.54.325.36.487.838.487 1.436v.143z" fill="#2A3052" fill-rule="nonzero"/><path d="M314.5 33a2.5 2.5 0 01.5 4.95V83h-1V37.95a2.5 2.5 0 01.5-4.95z" fill="#E98024"/></g><path d="M212.2 19.92c.752 0 1.288-.164 1.608-.492.32-.328.48-.716.48-1.164v-.576c0-.448-.16-.836-.48-1.164-.32-.328-.856-.492-1.608-.492-.752 0-1.288.164-1.608.492-.32.328-.48.716-.48 1.164v.576c0 .448.16.836.48 1.164.32.328.856.492 1.608.492zm5.568 4.152V21.24h-11.16v2.832h11.16zm-5.568 5.256c.752 0 1.288-.164 1.608-.492.32-.328.48-.716.48-1.164v-.576c0-.448-.16-.836-.48-1.164-.32-.328-.856-.492-1.608-.492-.752 0-1.288.164-1.608.492-.32.328-.48.716-.48 1.164v.576c0 .448.16.836.48 1.164.32.328.856.492 1.608.492z" fill="#E98024" fill-rule="nonzero"/><g><path stroke="#DEDEDE" stroke-width="2" fill="#F2F2F2" d="M158 41h7v13h-7zM134 41h7v13h-7z"/><path stroke="#DEDEDE" stroke-width="2" fill="#F2F2F2" d="M124 1h51v41h-51z"/><path d="M142.594 28v-1.332h-6.606l3.384-3.042c.396-.36.765-.72 1.107-1.08.342-.36.633-.729.873-1.107s.429-.777.567-1.197c.138-.42.207-.876.207-1.368 0-.54-.087-1.032-.261-1.476a3.323 3.323 0 00-.747-1.152 3.332 3.332 0 00-1.206-.756c-.48-.18-1.026-.27-1.638-.27-.612 0-1.143.084-1.593.252-.45.168-.834.39-1.152.666a3.839 3.839 0 00-.792.945c-.21.354-.375.717-.495 1.089l1.35.522c.084-.3.195-.579.333-.837s.312-.483.522-.675a2.28 2.28 0 01.747-.45 2.865 2.865 0 011.008-.162c.78 0 1.362.216 1.746.648.384.432.576.996.576 1.692v.216c0 .612-.198 1.221-.594 1.827a9.1 9.1 0 01-1.476 1.719l-4.104 3.78V28h8.244zm6.606.216c1.5 0 2.595-.57 3.285-1.71.69-1.14 1.035-2.736 1.035-4.788s-.345-3.648-1.035-4.788c-.69-1.14-1.785-1.71-3.285-1.71-1.5 0-2.595.57-3.285 1.71-.69 1.14-1.035 2.736-1.035 4.788s.345 3.648 1.035 4.788c.69 1.14 1.785 1.71 3.285 1.71zm0-1.314c-.492 0-.912-.102-1.26-.306a2.34 2.34 0 01-.846-.864 4.3 4.3 0 01-.477-1.314 8.46 8.46 0 01-.153-1.674v-2.052c0-.612.051-1.17.153-1.674a4.3 4.3 0 01.477-1.314 2.34 2.34 0 01.846-.864c.348-.204.768-.306 1.26-.306s.912.102 1.26.306c.348.204.63.492.846.864a4.3 4.3 0 01.477 1.314 8.46 8.46 0 01.153 1.674v2.052a8.46 8.46 0 01-.153 1.674 4.3 4.3 0 01-.477 1.314 2.34 2.34 0 01-.846.864c-.348.204-.768.306-1.26.306zm10.8 1.314c1.5 0 2.595-.57 3.285-1.71.69-1.14 1.035-2.736 1.035-4.788s-.345-3.648-1.035-4.788c-.69-1.14-1.785-1.71-3.285-1.71-1.5 0-2.595.57-3.285 1.71-.69 1.14-1.035 2.736-1.035 4.788s.345 3.648 1.035 4.788c.69 1.14 1.785 1.71 3.285 1.71zm0-1.314c-.492 0-.912-.102-1.26-.306a2.34 2.34 0 01-.846-.864 4.3 4.3 0 01-.477-1.314 8.46 8.46 0 01-.153-1.674v-2.052c0-.612.051-1.17.153-1.674a4.3 4.3 0 01.477-1.314 2.34 2.34 0 01.846-.864c.348-.204.768-.306 1.26-.306s.912.102 1.26.306c.348.204.63.492.846.864a4.3 4.3 0 01.477 1.314 8.46 8.46 0 01.153 1.674v2.052a8.46 8.46 0 01-.153 1.674 4.3 4.3 0 01-.477 1.314 2.34 2.34 0 01-.846.864c-.348.204-.768.306-1.26.306z" fill="#2A3052" fill-rule="nonzero"/></g><g><path d="M118.248 96.156c.607 0 1.12-.078 1.54-.234.42-.156.761-.394 1.021-.715.26-.32.449-.724.565-1.209.118-.485.176-1.057.176-1.716v-5.356h-1.092v5.616c0 .867-.16 1.523-.481 1.97-.32.446-.884.669-1.69.669-.806 0-1.37-.223-1.69-.67-.32-.446-.481-1.102-.481-1.969v-5.616h-1.092v5.356c0 .659.054 1.23.163 1.716.108.485.288.888.539 1.209.251.32.583.559.995.715.411.156.92.234 1.527.234zm8.203 0c.485 0 .92-.065 1.307-.195a2.87 2.87 0 00.981-.546 2.32 2.32 0 00.617-.858c.144-.338.215-.715.215-1.131 0-.676-.2-1.218-.598-1.625-.399-.407-1.044-.71-1.937-.91l-.741-.169c-.572-.13-.999-.305-1.28-.526-.282-.221-.423-.549-.423-.982 0-.494.167-.864.5-1.111.334-.247.791-.371 1.372-.371.529 0 .97.1 1.326.299.355.2.659.472.91.819l.819-.598a3.391 3.391 0 00-1.241-1.105c-.49-.251-1.077-.377-1.762-.377-.442 0-.847.054-1.216.163a2.788 2.788 0 00-.948.474 2.14 2.14 0 00-.618.78 2.468 2.468 0 00-.221 1.066c0 .702.219 1.246.656 1.632.438.385 1.073.673 1.905.864l.741.169c.598.139 1.027.325 1.287.559.26.234.39.568.39 1.001 0 .52-.171.936-.513 1.248-.343.312-.839.468-1.489.468-.529 0-.988-.11-1.378-.331-.39-.221-.745-.544-1.066-.969l-.806.676a4 4 0 001.326 1.164c.52.281 1.148.422 1.885.422zm8.047-.156c.563 0 1.075-.095 1.534-.286.46-.19.852-.474 1.177-.852.325-.376.574-.849.747-1.416.173-.568.26-1.229.26-1.983s-.087-1.415-.26-1.982c-.173-.568-.422-1.04-.747-1.417a3.104 3.104 0 00-1.177-.852c-.46-.19-.97-.286-1.534-.286h-3.042V96h3.042zm0-.962h-1.95v-7.15h1.95c.373 0 .715.063 1.027.189.312.125.58.31.806.552.225.243.4.54.527.89.125.352.188.752.188 1.203v1.482c0 .45-.063.852-.188 1.203a2.555 2.555 0 01-.527.89 2.215 2.215 0 01-.806.553 2.724 2.724 0 01-1.027.188zm11.336.962l2.366-6.708h-1.001l-1.196 3.328-.728 2.288h-.065l-.728-2.288-1.17-3.328h-1.04L144.625 96h1.209zm6.24.156c.45 0 .86-.082 1.229-.247.368-.165.686-.4.955-.709.269-.307.477-.675.624-1.104.147-.43.221-.913.221-1.45 0-.529-.074-1.01-.221-1.443a3.266 3.266 0 00-.624-1.111 2.74 2.74 0 00-.956-.709 2.977 2.977 0 00-1.228-.247c-.45 0-.862.082-1.235.247-.373.165-.691.4-.956.709-.264.307-.47.678-.617 1.111a4.462 4.462 0 00-.221 1.443c0 .537.074 1.02.221 1.45.147.429.353.797.617 1.105.265.307.583.543.956.708.373.165.784.247 1.235.247zm0-.923c-.563 0-1.023-.173-1.378-.52-.355-.347-.533-.875-.533-1.586v-.962c0-.71.178-1.24.533-1.586.355-.347.815-.52 1.378-.52s1.023.173 1.378.52c.355.347.533.875.533 1.586v.962c0 .71-.178 1.24-.533 1.586-.355.347-.815.52-1.378.52zm6.773.767v-.91h-.988v-8.71h-1.04v8.541c0 .312.093.57.28.773.186.204.461.306.825.306h.923zm3.705.156c.277 0 .52-.035.728-.104.208-.07.386-.163.533-.28.147-.116.27-.25.37-.402.1-.152.185-.306.254-.462h.052V96h1.04v-6.708h-1.04v4.641c0 .225-.045.418-.136.579-.091.16-.213.292-.364.396a1.674 1.674 0 01-.52.234 2.336 2.336 0 01-.605.078c-1.023 0-1.534-.602-1.534-1.807v-4.121h-1.04v4.303c0 .815.204 1.445.611 1.892.407.446.958.669 1.651.669zm6.227-.156v-4.654a1.127 1.127 0 01.494-.962c.147-.104.316-.182.507-.234.19-.052.39-.078.598-.078.494 0 .858.152 1.092.455.234.303.351.754.351 1.352V96h1.04v-4.654c0-.217.043-.405.13-.565.087-.16.204-.293.351-.397a1.61 1.61 0 01.5-.234c.187-.052.384-.078.592-.078.511 0 .884.152 1.118.455.234.303.351.754.351 1.352V96h1.04v-4.303c0-.815-.193-1.445-.578-1.892-.386-.446-.921-.669-1.606-.669-.572 0-1.025.136-1.358.41a2.077 2.077 0 00-.683.955h-.026c-.182-.485-.46-.834-.832-1.047a2.426 2.426 0 00-1.222-.318 2.1 2.1 0 00-.676.097c-.19.065-.357.154-.5.267a1.667 1.667 0 00-.364.397c-.1.151-.189.314-.267.487h-.052v-1.092h-1.04V96h1.04zm12.831.156c.633 0 1.179-.14 1.638-.422.46-.282.797-.653 1.014-1.112l-.741-.533a1.961 1.961 0 01-.734.858 2.04 2.04 0 01-1.112.299c-.312 0-.591-.052-.838-.156a1.782 1.782 0 01-1.014-1.073 2.295 2.295 0 01-.137-.799v-.312h4.823v-.494a4.09 4.09 0 00-.202-1.313 3.044 3.044 0 00-.578-1.033 2.678 2.678 0 00-.91-.683 2.843 2.843 0 00-1.209-.247c-.46 0-.873.082-1.242.247-.368.165-.684.4-.949.709a3.242 3.242 0 00-.61 1.111 4.586 4.586 0 00-.215 1.443c0 .537.071 1.02.214 1.45.143.428.347.797.611 1.104.265.308.581.544.95.709a3.01 3.01 0 001.241.247zm1.781-4.03h-3.705v-.091c0-.295.048-.566.143-.813.095-.246.228-.461.397-.643a1.75 1.75 0 01.604-.422c.234-.1.494-.15.78-.15.537 0 .969.18 1.293.54.326.36.488.838.488 1.436v.143z" fill="#2A3052" fill-rule="nonzero"/><path d="M149.5 33a2.5 2.5 0 01.5 4.95V83h-1V37.95a2.5 2.5 0 01.5-4.95z" fill="#E98024"/></g></g></svg>