<svg width="565" height="52" fill="none" xmlns="http://www.w3.org/2000/svg"><g clip-path="url(#a)"><path fill-rule="evenodd" clip-rule="evenodd" d="M470.5 45.589H560c2.781 0 5.066-2.34 5.066-5.19V5.19c0-2.848-2.285-5.19-5.066-5.19h-89.5v8.344c0 .51-.2 1.018-.5 1.425l-5.603 6.615c-.3.407-.5.915-.5 1.424v9.668c0 .508.2 1.017.5 1.424L470 35.515c.3.407.5.916.5 1.424v8.65Z" fill="#FF444F"/><path d="M460.177 45.284H39.558c-.516 0-1.033.203-1.447.509l-6.72 5.698c-.413.306-.93.509-1.446.509h-9.82c-.518 0-1.035-.203-1.448-.509l-6.72-5.698c-.413-.306-.93-.51-1.447-.51H5.652C3.067 45.284 1 43.249 1 40.706V4.579C1 2.035 3.067 0 5.652 0h4.858c.517 0 1.034.204 1.448.509l6.719 5.698c.413.306.93.51 1.447.51h9.82c.518 0 1.034-.204 1.448-.51L38.112.51c.413-.305.93-.509 1.446-.509H467v8.344c0 .51-.207 1.018-.517 1.425l-5.789 6.615c-.31.407-.517.915-.517 1.424v9.668c0 .508.207 1.017.517 1.424l5.789 6.615c.31.407.517.916.517 1.424v8.345h-6.823Z" fill="#fff"/><mask id="b" style="mask-type:alpha" maskUnits="userSpaceOnUse" x="1" y="0" width="465" height="52"><path d="M458.627 45.284H39.558c-.516 0-1.033.203-1.447.509l-6.72 5.698c-.413.306-.93.509-1.446.509h-9.82c-.518 0-1.035-.203-1.448-.509l-6.72-5.698c-.413-.306-.93-.51-1.447-.51H5.652C3.067 45.284 1 43.249 1 40.706V4.579C1 2.035 3.067 0 5.652 0h4.858c.517 0 1.034.204 1.448.509l6.719 5.698c.413.306.93.51 1.447.51h9.82c.518 0 1.034-.204 1.448-.51L38.112.51c.413-.305.93-.509 1.446-.509H465.45v8.344c0 .51-.207 1.018-.517 1.425l-5.789 6.615c-.31.407-.517.915-.517 1.424v9.668c0 .508.207 1.017.517 1.424l5.789 6.615c.31.407.517.916.517 1.424v8.141l-6.823.204Z" fill="#fff"/></mask><g mask="url(#b)"><path d="M.659 0h53.16l15.6 52H.659V0Z" fill="#D6DADB"/><g clip-path="url(#c)"><path d="M16.499 16a6 6 0 0 1 6-6h20a6 6 0 0 1 6 6v20a6 6 0 0 1-6 6h-20a6 6 0 0 1-6-6V16Z" fill="#2A3052"/><path fill-rule="evenodd" clip-rule="evenodd" d="M33.934 26.102a.445.445 0 0 0-.142-.293 1.08 1.08 0 0 1-.081-.09 1.836 1.836 0 0 0-.172-.177c-.953-1.012-.835-1.662-.823-1.728v-.005a1.392 1.392 0 0 0-.52-1.093l-.048-.063a.239.239 0 0 1-.036-.035c.505.141 1.02.251 1.538.329.23.041.465.055.698.04.52 0 .929-.063.955-.182a6.81 6.81 0 0 1-1.377-.405l-.02-.007c-.49-.19-.571-.221-.892-.326a11.774 11.774 0 0 1-.866-.334l.49.13c1.407.375 1.968.525 2.71.537.206.005.412-.014.613-.058.12 0 .48-.102.52-.226a2.997 2.997 0 0 1-1.013-.16c-1.29-.428-1.85-.722-2.364-.991a9.663 9.663 0 0 0-1.063-.498 10.23 10.23 0 0 0-1.764-.556 3.374 3.374 0 0 0-1.52 0c-1.587-.373-1.947-.333-2.414-.231a8.032 8.032 0 0 1 5.192-1.218V14.89H26.72a5.333 5.333 0 0 0-5.333 5.333v11.556a5.333 5.333 0 0 0 5.333 5.333h4.822v-3.853a33.882 33.882 0 0 0-.542-.09c-.527-.085-.856-.137-1.067-.283-.084-.054-.35-.196-.413-.16a.756.756 0 0 1-.911-.058.687.687 0 0 1-.084-.076.644.644 0 0 1-.125-.889c.085-.089-.067-.333-.067-.333s-.444-.662-.746-1.058a3.023 3.023 0 0 1-.382-1.306 3.692 3.692 0 0 1-.485-.734 1.835 1.835 0 0 0-.262-.315 1.704 1.704 0 0 1-.156-.174.075.075 0 0 1 0-.058c.122-.254.3-.477.52-.653.107-.071.565-.347.565-.347a.89.89 0 0 1 .666-.404 3.26 3.26 0 0 1 1.334.2l.284.089c.417.136.827.295 1.227.475.221.102.448.19.68.263.587.155 1.627-.32 1.844-.52.356-.325.507-.543.511-.725Zm-2.728-2.769-.29-.377a2.151 2.151 0 0 1 1.214 1.306c-1.169.28-.924-.929-.924-.929Z" fill="#fff"/><path d="M36.05 32.422a7.965 7.965 0 0 0 2.636-5.467h4.924v4.823a5.333 5.333 0 0 1-5.333 5.333h-4.822v-3.555a4.666 4.666 0 0 0 2.595-1.134Zm-7.91-2.582a1.836 1.836 0 0 1-.286-.729c1.027-.071.645.889.645.889l.204.382a1.835 1.835 0 0 1-.563-.543Zm5.315-14.951h4.822a5.333 5.333 0 0 1 5.333 5.333v4.81h-5.013A7.89 7.89 0 0 0 37.387 22l-.048-.044a8.244 8.244 0 0 0-.982-1.183 7.919 7.919 0 0 0-2.902-1.857v-4.027Z" fill="#fff"/></g></g><path d="M491.719 20.37V26h-1.52v-5.63h-1.89v-1.35h5.3v1.35h-1.89Zm4.386 5.75c-.4 0-.757-.063-1.07-.19a2.34 2.34 0 0 1-.8-.55 2.448 2.448 0 0 1-.49-.87c-.107-.34-.16-.72-.16-1.14 0-.413.053-.787.16-1.12.106-.34.263-.63.47-.87a2.1 2.1 0 0 1 .78-.55c.306-.133.656-.2 1.05-.2.433 0 .803.073 1.11.22.313.147.566.343.76.59.2.247.343.533.43.86.093.32.14.657.14 1.01v.44h-3.37v.08c0 .347.093.623.28.83.186.2.48.3.88.3.306 0 .556-.06.75-.18a3.15 3.15 0 0 0 .54-.45l.74.92c-.234.273-.54.487-.92.64-.374.153-.8.23-1.28.23Zm-.03-4.4c-.3 0-.537.1-.71.3-.167.193-.25.453-.25.78v.08h1.84v-.09c0-.32-.074-.577-.22-.77-.14-.2-.36-.3-.66-.3ZM499.53 26v-5.25h1.48v.89h.06a1.61 1.61 0 0 1 .49-.71c.233-.2.557-.3.97-.3.54 0 .947.18 1.22.54.28.36.42.873.42 1.54V26h-1.48v-3.17c0-.34-.053-.59-.16-.75-.107-.167-.297-.25-.57-.25-.12 0-.237.017-.35.05a.871.871 0 0 0-.31.14.758.758 0 0 0-.21.25.657.657 0 0 0-.08.33V26h-1.48Zm7.797 0c-.513 0-.903-.13-1.17-.39-.26-.26-.39-.64-.39-1.14V21.9h-.74v-1.15h.37c.2 0 .337-.047.41-.14.073-.1.11-.24.11-.42v-.86h1.33v1.42h1.04v1.15h-1.04v2.95h.96V26h-.88Zm4.139.12c-.4 0-.757-.063-1.07-.19a2.35 2.35 0 0 1-.8-.55 2.464 2.464 0 0 1-.49-.87c-.107-.34-.16-.72-.16-1.14 0-.413.053-.787.16-1.12.107-.34.263-.63.47-.87a2.1 2.1 0 0 1 .78-.55c.307-.133.657-.2 1.05-.2.433 0 .803.073 1.11.22.313.147.567.343.76.59.2.247.343.533.43.86.093.32.14.657.14 1.01v.44h-3.37v.08c0 .347.093.623.28.83.187.2.48.3.88.3.307 0 .557-.06.75-.18a3.15 3.15 0 0 0 .54-.45l.74.92c-.233.273-.54.487-.92.64-.373.153-.8.23-1.28.23Zm-.03-4.4c-.3 0-.537.1-.71.3-.167.193-.25.453-.25.78v.08h1.84v-.09c0-.32-.073-.577-.22-.77-.14-.2-.36-.3-.66-.3Zm9.698 4.28a.95.95 0 0 1-.67-.25 1.168 1.168 0 0 1-.33-.67h-.06c-.08.34-.256.6-.53.78-.273.173-.61.26-1.01.26-.526 0-.93-.14-1.21-.42-.28-.28-.42-.65-.42-1.11 0-.553.2-.963.6-1.23.407-.273.957-.41 1.65-.41h.83v-.33c0-.253-.066-.453-.2-.6-.133-.153-.356-.23-.67-.23-.293 0-.526.063-.7.19a1.9 1.9 0 0 0-.43.43l-.88-.78c.214-.313.48-.557.8-.73.327-.18.767-.27 1.32-.27.747 0 1.307.163 1.68.49.374.327.56.803.56 1.43v2.3h.49V26h-.82Zm-2.05-.91c.247 0 .457-.053.63-.16.18-.107.27-.28.27-.52v-.62h-.72c-.58 0-.87.197-.87.59v.15c0 .193.06.337.18.43.12.087.29.13.51.13Zm8.724 1.29c0 .28-.05.527-.15.74a1.26 1.26 0 0 1-.47.54c-.22.153-.514.267-.88.34-.36.08-.807.12-1.34.12-.454 0-.84-.03-1.16-.09a2.55 2.55 0 0 1-.77-.24 1.045 1.045 0 0 1-.43-.38.98.98 0 0 1-.13-.51c0-.293.086-.523.26-.69.173-.167.413-.27.72-.31v-.11c-.254-.047-.444-.153-.57-.32a.988.988 0 0 1-.19-.6c0-.14.026-.26.08-.36a.97.97 0 0 1 .22-.27c.093-.08.2-.143.32-.19.12-.047.24-.083.36-.11v-.04c-.32-.147-.557-.347-.71-.6-.154-.26-.23-.56-.23-.9 0-.533.183-.96.55-1.28.373-.327.94-.49 1.7-.49.346 0 .643.033.89.1v-.2c0-.28.066-.48.2-.6.14-.127.336-.19.59-.19h.83v1.1h-1.16v.06c.306.147.533.35.68.61.146.253.22.55.22.89 0 .527-.187.95-.56 1.27-.367.313-.93.47-1.69.47-.34 0-.65-.037-.93-.11-.154.1-.23.24-.23.42a.36.36 0 0 0 .14.3c.1.067.263.1.49.1h1.52c.64 0 1.103.133 1.39.4.293.267.44.643.44 1.13Zm-1.39.2c0-.153-.06-.27-.18-.35-.12-.08-.33-.12-.63-.12h-1.8a.67.67 0 0 0-.15.22.839.839 0 0 0-.04.25.44.44 0 0 0 .25.42c.166.093.45.14.85.14h.6c.4 0 .683-.047.85-.14a.44.44 0 0 0 .25-.42Zm-1.43-3.41c.293 0 .51-.06.65-.18.146-.127.22-.307.22-.54v-.12c0-.233-.074-.41-.22-.53-.14-.127-.357-.19-.65-.19-.294 0-.514.063-.66.19-.14.12-.21.297-.21.53v.12c0 .233.07.413.21.54.146.12.366.18.66.18Zm5.549 2.95c-.387 0-.734-.063-1.04-.19a2.12 2.12 0 0 1-.77-.55 2.542 2.542 0 0 1-.48-.87c-.114-.34-.17-.72-.17-1.14 0-.42.056-.8.17-1.14a2.43 2.43 0 0 1 .48-.86c.213-.24.47-.423.77-.55.306-.127.653-.19 1.04-.19.386 0 .73.063 1.03.19.306.127.563.31.77.55.213.233.376.52.49.86.113.34.17.72.17 1.14 0 .42-.057.8-.17 1.14-.114.34-.277.63-.49.87-.207.24-.464.423-.77.55-.3.127-.644.19-1.03.19Zm0-1.17c.293 0 .52-.09.68-.27.16-.18.24-.437.24-.77v-1.07c0-.333-.08-.59-.24-.77-.16-.18-.387-.27-.68-.27-.294 0-.52.09-.68.27-.16.18-.24.437-.24.77v1.07c0 .333.08.59.24.77.16.18.386.27.68.27Zm3.514 1.05v-5.25h1.48v1.14h.05c.027-.147.074-.287.14-.42a1.35 1.35 0 0 1 .26-.37c.114-.107.247-.19.4-.25.154-.067.334-.1.54-.1h.26v1.38h-.37c-.433 0-.756.057-.97.17-.206.113-.31.323-.31.63V26h-1.48Zm7.787 0a.948.948 0 0 1-.67-.25 1.156 1.156 0 0 1-.33-.67h-.06c-.08.34-.257.6-.53.78-.274.173-.61.26-1.01.26-.527 0-.93-.14-1.21-.42-.28-.28-.42-.65-.42-1.11 0-.553.2-.963.6-1.23.406-.273.956-.41 1.65-.41h.83v-.33c0-.253-.067-.453-.2-.6-.134-.153-.357-.23-.67-.23-.294 0-.527.063-.7.19a1.86 1.86 0 0 0-.43.43l-.88-.78a2.26 2.26 0 0 1 .8-.73c.326-.18.766-.27 1.32-.27.746 0 1.306.163 1.68.49.373.327.56.803.56 1.43v2.3h.49V26h-.82Zm-2.05-.91c.246 0 .456-.053.63-.16.18-.107.27-.28.27-.52v-.62h-.72c-.58 0-.87.197-.87.59v.15c0 .193.06.337.18.43.12.087.29.13.51.13Z" fill="#fff"/><path d="m95.084 27-.6-1.992h-2.796l-.6 1.992H89.24L92 18.624h2.256L96.98 27h-1.896Zm-1.98-6.72h-.06l-.924 3.18h1.92l-.936-3.18Zm7.483 6.864c-.472 0-.892-.076-1.26-.228a2.598 2.598 0 0 1-.924-.66 2.914 2.914 0 0 1-.564-1.044 4.559 4.559 0 0 1-.192-1.368c0-.504.064-.956.192-1.356.128-.408.316-.756.564-1.044.248-.288.556-.508.924-.66a3.278 3.278 0 0 1 1.26-.228c.64 0 1.172.144 1.596.432.432.288.74.692.924 1.212l-1.44.624a1.207 1.207 0 0 0-.348-.612c-.176-.168-.42-.252-.732-.252-.36 0-.632.12-.816.36-.184.232-.276.548-.276.948v1.176c0 .4.092.716.276.948.184.232.456.348.816.348.32 0 .572-.084.756-.252.192-.176.332-.404.42-.684l1.38.6c-.208.6-.532 1.04-.972 1.32-.432.28-.96.42-1.584.42Zm6.224 0c-.48 0-.908-.076-1.284-.228a2.817 2.817 0 0 1-.96-.66 2.956 2.956 0 0 1-.588-1.044 4.559 4.559 0 0 1-.192-1.368c0-.496.064-.944.192-1.344.128-.408.316-.756.564-1.044.256-.288.568-.508.936-.66.368-.16.788-.24 1.26-.24.52 0 .964.088 1.332.264.376.176.68.412.912.708.24.296.412.64.516 1.032.112.384.168.788.168 1.212v.528h-4.044v.096c0 .416.112.748.336.996.224.24.576.36 1.056.36.368 0 .668-.072.9-.216.232-.152.448-.332.648-.54l.888 1.104c-.28.328-.648.584-1.104.768-.448.184-.96.276-1.536.276Zm-.036-5.28c-.36 0-.644.12-.852.36-.2.232-.3.544-.3.936v.096h2.208v-.108c0-.384-.088-.692-.264-.924-.168-.24-.432-.36-.792-.36Zm6.283 5.28c-.608 0-1.12-.096-1.536-.288-.416-.2-.788-.48-1.116-.84l1.044-1.056c.224.248.472.444.744.588.272.144.58.216.924.216.352 0 .596-.052.732-.156a.547.547 0 0 0 .204-.444c0-.296-.212-.472-.636-.528l-.684-.084c-1.416-.176-2.124-.824-2.124-1.944 0-.304.056-.58.168-.828.12-.256.284-.472.492-.648a2.23 2.23 0 0 1 .768-.42 3.138 3.138 0 0 1 1.02-.156c.328 0 .616.024.864.072.256.04.48.104.672.192.2.08.38.184.54.312.168.12.332.256.492.408l-1.02 1.044c-.2-.2-.428-.356-.684-.468a1.744 1.744 0 0 0-.768-.18c-.304 0-.52.048-.648.144a.456.456 0 0 0-.192.384c0 .168.044.3.132.396.096.088.272.152.528.192l.708.096c1.384.184 2.076.816 2.076 1.896 0 .304-.064.584-.192.84s-.312.48-.552.672a2.587 2.587 0 0 1-.852.432 3.644 3.644 0 0 1-1.104.156Zm5.965 0c-.608 0-1.12-.096-1.536-.288-.416-.2-.788-.48-1.116-.84l1.044-1.056c.224.248.472.444.744.588.272.144.58.216.924.216.352 0 .596-.052.732-.156a.547.547 0 0 0 .204-.444c0-.296-.212-.472-.636-.528l-.684-.084c-1.416-.176-2.124-.824-2.124-1.944 0-.304.056-.58.168-.828.12-.256.284-.472.492-.648a2.23 2.23 0 0 1 .768-.42 3.138 3.138 0 0 1 1.02-.156c.328 0 .616.024.864.072.256.04.48.104.672.192.2.08.38.184.54.312.168.12.332.256.492.408l-1.02 1.044c-.2-.2-.428-.356-.684-.468a1.744 1.744 0 0 0-.768-.18c-.304 0-.52.048-.648.144a.456.456 0 0 0-.192.384c0 .168.044.3.132.396.096.088.272.152.528.192l.708.096c1.384.184 2.076.816 2.076 1.896 0 .304-.064.584-.192.84s-.312.48-.552.672a2.587 2.587 0 0 1-.852.432 3.644 3.644 0 0 1-1.104.156Zm6.538 0c-.48 0-.908-.076-1.284-.228a2.817 2.817 0 0 1-.96-.66 2.956 2.956 0 0 1-.588-1.044 4.559 4.559 0 0 1-.192-1.368c0-.496.064-.944.192-1.344.128-.408.316-.756.564-1.044.256-.288.568-.508.936-.66.368-.16.788-.24 1.26-.24.52 0 .964.088 1.332.264.376.176.68.412.912.708.24.296.412.64.516 1.032.112.384.168.788.168 1.212v.528h-4.044v.096c0 .416.112.748.336.996.224.24.576.36 1.056.36.368 0 .668-.072.9-.216.232-.152.448-.332.648-.54l.888 1.104c-.28.328-.648.584-1.104.768-.448.184-.96.276-1.536.276Zm-.036-5.28c-.36 0-.644.12-.852.36-.2.232-.3.544-.3.936v.096h2.208v-.108c0-.384-.088-.692-.264-.924-.168-.24-.432-.36-.792-.36Zm7.079-3.24h4.068c.696 0 1.236.196 1.62.588.392.392.588.912.588 1.56 0 .32-.044.592-.132.816-.08.224-.192.408-.336.552a1.29 1.29 0 0 1-.492.324c-.184.064-.384.1-.6.108v.072c.2 0 .408.036.624.108.224.072.428.188.612.348.184.152.336.352.456.6.128.248.192.552.192.912 0 .328-.056.64-.168.936-.104.288-.252.54-.444.756-.192.216-.42.388-.684.516-.264.12-.552.18-.864.18h-4.44v-8.376Zm1.824 6.84h2.1c.24 0 .428-.064.564-.192.144-.136.216-.324.216-.564V24.3c0-.24-.072-.424-.216-.552-.136-.136-.324-.204-.564-.204h-2.1v1.92Zm0-3.408h1.812c.24 0 .428-.068.564-.204.136-.136.204-.324.204-.564v-.36c0-.24-.068-.428-.204-.564-.136-.136-.324-.204-.564-.204h-1.812v1.896Zm6.972-2.028c-.36 0-.624-.08-.792-.24a.885.885 0 0 1-.24-.636v-.264c0-.256.08-.464.24-.624.168-.168.432-.252.792-.252.36 0 .62.084.78.252.168.16.252.368.252.624v.264a.862.862 0 0 1-.252.636c-.16.16-.42.24-.78.24Zm-.888.672h1.776V27h-1.776v-6.3Zm3.433 6.3v-6.3h1.776v1.068h.072c.112-.328.308-.612.588-.852.28-.24.668-.36 1.164-.36.648 0 1.136.216 1.464.648.336.432.504 1.048.504 1.848V27h-1.776v-3.804c0-.408-.064-.708-.192-.9-.128-.2-.356-.3-.684-.3-.144 0-.284.02-.42.06-.136.032-.26.088-.372.168a.918.918 0 0 0-.252.3.785.785 0 0 0-.096.396V27h-1.776Zm11.805 0c-.32 0-.588-.1-.804-.3-.208-.2-.34-.468-.396-.804h-.072a1.48 1.48 0 0 1-.636.936c-.328.208-.732.312-1.212.312-.632 0-1.116-.168-1.452-.504-.336-.336-.504-.78-.504-1.332 0-.664.24-1.156.72-1.476.488-.328 1.148-.492 1.98-.492h.996v-.396c0-.304-.08-.544-.24-.72-.16-.184-.428-.276-.804-.276-.352 0-.632.076-.84.228-.208.152-.38.324-.516.516l-1.056-.936c.256-.376.576-.668.96-.876.392-.216.92-.324 1.584-.324.896 0 1.568.196 2.016.588.448.392.672.964.672 1.716v2.76h.588V27h-.984Zm-2.46-1.092c.296 0 .548-.064.756-.192.216-.128.324-.336.324-.624v-.744h-.864c-.696 0-1.044.236-1.044.708v.18c0 .232.072.404.216.516.144.104.348.156.612.156ZM157.926 27v-6.3h1.776v1.368h.06c.032-.176.088-.344.168-.504.08-.168.184-.316.312-.444.136-.128.296-.228.48-.3.184-.08.4-.12.648-.12h.312v1.656h-.444c-.52 0-.908.068-1.164.204-.248.136-.372.388-.372.756V27h-1.776Zm8.785-6.3h1.656l-2.424 7.272c-.16.488-.388.848-.684 1.08-.288.232-.704.348-1.248.348h-1.104v-1.38h1.188l.216-.696-2.208-6.624h1.764l.924 2.94.456 1.824h.072l.468-1.824.924-2.94Zm5.49-2.076h4.068c.696 0 1.236.196 1.62.588.392.392.588.912.588 1.56 0 .32-.044.592-.132.816-.08.224-.192.408-.336.552a1.29 1.29 0 0 1-.492.324c-.184.064-.384.1-.6.108v.072c.2 0 .408.036.624.108.224.072.428.188.612.348.184.152.336.352.456.6.128.248.192.552.192.912 0 .328-.056.64-.168.936-.104.288-.252.54-.444.756-.192.216-.42.388-.684.516-.264.12-.552.18-.864.18h-4.44v-8.376Zm1.824 6.84h2.1c.24 0 .428-.064.564-.192.144-.136.216-.324.216-.564V24.3c0-.24-.072-.424-.216-.552-.136-.136-.324-.204-.564-.204h-2.1v1.92Zm0-3.408h1.812c.24 0 .428-.068.564-.204.136-.136.204-.324.204-.564v-.36c0-.24-.068-.428-.204-.564-.136-.136-.324-.204-.564-.204h-1.812v1.896Zm8.64 5.088c-.464 0-.88-.076-1.248-.228a2.544 2.544 0 0 1-.924-.66 3.063 3.063 0 0 1-.576-1.044 4.31 4.31 0 0 1-.204-1.368c0-.504.068-.96.204-1.368.136-.408.328-.752.576-1.032.256-.288.564-.508.924-.66a3.243 3.243 0 0 1 1.248-.228c.464 0 .876.076 1.236.228.368.152.676.372.924.66.256.28.452.624.588 1.032.136.408.204.864.204 1.368 0 .504-.068.96-.204 1.368a2.956 2.956 0 0 1-.588 1.044 2.416 2.416 0 0 1-.924.66c-.36.152-.772.228-1.236.228Zm0-1.404c.352 0 .624-.108.816-.324.192-.216.288-.524.288-.924v-1.284c0-.4-.096-.708-.288-.924-.192-.216-.464-.324-.816-.324-.352 0-.624.108-.816.324-.192.216-.288.524-.288.924v1.284c0 .4.096.708.288.924.192.216.464.324.816.324ZM189.02 27c-.616 0-1.084-.156-1.404-.468-.312-.312-.468-.768-.468-1.368V22.08h-.888V20.7h.444c.24 0 .404-.056.492-.168.088-.12.132-.288.132-.504v-1.032h1.596V20.7h1.248v1.38h-1.248v3.54h1.152V27h-1.056Zm5.222 0v-6.3h1.776v1.068h.072c.112-.328.308-.612.588-.852.28-.24.668-.36 1.164-.36.648 0 1.136.216 1.464.648.336.432.504 1.048.504 1.848V27h-1.776v-3.804c0-.408-.064-.708-.192-.9-.128-.2-.356-.3-.684-.3-.144 0-.284.02-.42.06-.136.032-.26.088-.372.168a.918.918 0 0 0-.252.3.785.785 0 0 0-.096.396V27h-1.776Zm11.805 0c-.32 0-.588-.1-.804-.3-.208-.2-.34-.468-.396-.804h-.072a1.48 1.48 0 0 1-.636.936c-.328.208-.732.312-1.212.312-.632 0-1.116-.168-1.452-.504-.336-.336-.504-.78-.504-1.332 0-.664.24-1.156.72-1.476.488-.328 1.148-.492 1.98-.492h.996v-.396c0-.304-.08-.544-.24-.72-.16-.184-.428-.276-.804-.276-.352 0-.632.076-.84.228-.208.152-.38.324-.516.516l-1.056-.936c.256-.376.576-.668.96-.876.392-.216.92-.324 1.584-.324.896 0 1.568.196 2.016.588.448.392.672.964.672 1.716v2.76h.588V27h-.984Zm-2.46-1.092c.296 0 .548-.064.756-.192.216-.128.324-.336.324-.624v-.744h-.864c-.696 0-1.044.236-1.044.708v.18c0 .232.072.404.216.516.144.104.348.156.612.156Zm7.567-7.284h3.156c.552 0 1.056.088 1.512.264.456.176.844.44 1.164.792.32.344.568.78.744 1.308.176.52.264 1.128.264 1.824 0 .696-.088 1.308-.264 1.836-.176.52-.424.956-.744 1.308a3.08 3.08 0 0 1-1.164.78c-.456.176-.96.264-1.512.264h-3.156v-8.376Zm3.156 6.756c.544 0 .972-.152 1.284-.456.312-.304.468-.792.468-1.464v-1.296c0-.672-.156-1.16-.468-1.464-.312-.304-.74-.456-1.284-.456h-1.332v5.136h1.332Zm7.744 1.764c-.48 0-.908-.076-1.284-.228a2.817 2.817 0 0 1-.96-.66 2.956 2.956 0 0 1-.588-1.044 4.559 4.559 0 0 1-.192-1.368c0-.496.064-.944.192-1.344.128-.408.316-.756.564-1.044.256-.288.568-.508.936-.66.368-.16.788-.24 1.26-.24.52 0 .964.088 1.332.264.376.176.68.412.912.708.24.296.412.64.516 1.032.112.384.168.788.168 1.212v.528h-4.044v.096c0 .416.112.748.336.996.224.24.576.36 1.056.36.368 0 .668-.072.9-.216.232-.152.448-.332.648-.54l.888 1.104c-.28.328-.648.584-1.104.768-.448.184-.96.276-1.536.276Zm-.036-5.28c-.36 0-.644.12-.852.36-.2.232-.3.544-.3.936v.096h2.208v-.108c0-.384-.088-.692-.264-.924-.168-.24-.432-.36-.792-.36ZM226.164 27v-6.3h1.776v1.368h.06c.032-.176.088-.344.168-.504.08-.168.184-.316.312-.444.136-.128.296-.228.48-.3.184-.08.4-.12.648-.12h.312v1.656h-.444c-.52 0-.908.068-1.164.204-.248.136-.372.388-.372.756V27h-1.776Zm5.74-6.972c-.36 0-.624-.08-.792-.24a.885.885 0 0 1-.24-.636v-.264c0-.256.08-.464.24-.624.168-.168.432-.252.792-.252.36 0 .62.084.78.252.168.16.252.368.252.624v.264a.862.862 0 0 1-.252.636c-.16.16-.42.24-.78.24Zm-.888.672h1.776V27h-1.776v-6.3Zm4.777 6.3-2.064-6.3h1.752l.78 2.544.588 2.28h.096l.588-2.28.756-2.544h1.68l-2.064 6.3h-2.112Zm10.577.144c-.48 0-.908-.076-1.284-.228a2.817 2.817 0 0 1-.96-.66 2.956 2.956 0 0 1-.588-1.044 4.559 4.559 0 0 1-.192-1.368c0-.496.064-.944.192-1.344.128-.408.316-.756.564-1.044.256-.288.568-.508.936-.66.368-.16.788-.24 1.26-.24.52 0 .964.088 1.332.264.376.176.68.412.912.708.24.296.412.64.516 1.032.112.384.168.788.168 1.212v.528h-4.044v.096c0 .416.112.748.336.996.224.24.576.36 1.056.36.368 0 .668-.072.9-.216.232-.152.448-.332.648-.54l.888 1.104c-.28.328-.648.584-1.104.768-.448.184-.96.276-1.536.276Zm-.036-5.28c-.36 0-.644.12-.852.36-.2.232-.3.544-.3.936v.096h2.208v-.108c0-.384-.088-.692-.264-.924-.168-.24-.432-.36-.792-.36ZM257.972 27c-.32 0-.588-.1-.804-.3-.208-.2-.34-.468-.396-.804h-.072a1.48 1.48 0 0 1-.636.936c-.328.208-.732.312-1.212.312-.632 0-1.116-.168-1.452-.504-.336-.336-.504-.78-.504-1.332 0-.664.24-1.156.72-1.476.488-.328 1.148-.492 1.98-.492h.996v-.396c0-.304-.08-.544-.24-.72-.16-.184-.428-.276-.804-.276-.352 0-.632.076-.84.228-.208.152-.38.324-.516.516l-1.056-.936c.256-.376.576-.668.96-.876.392-.216.92-.324 1.584-.324.896 0 1.568.196 2.016.588.448.392.672.964.672 1.716v2.76h.588V27h-.984Zm-2.46-1.092c.296 0 .548-.064.756-.192.216-.128.324-.336.324-.624v-.744h-.864c-.696 0-1.044.236-1.044.708v.18c0 .232.072.404.216.516.144.104.348.156.612.156Zm4.636-5.208h1.776v1.056h.06c.088-.352.288-.64.6-.864.32-.224.684-.336 1.092-.336.8 0 1.404.28 1.812.84.408.56.612 1.376.612 2.448s-.204 1.892-.612 2.46c-.408.56-1.012.84-1.812.84-.208 0-.404-.032-.588-.096a1.83 1.83 0 0 1-.504-.24 1.878 1.878 0 0 1-.372-.384 1.649 1.649 0 0 1-.228-.48h-.06V29.4h-1.776v-8.7Zm2.94 5.004c.336 0 .612-.116.828-.348.224-.24.336-.56.336-.96v-1.092c0-.4-.112-.716-.336-.948a1.064 1.064 0 0 0-.828-.36c-.336 0-.616.084-.84.252a.788.788 0 0 0-.324.672v1.86a.82.82 0 0 0 .324.684c.224.16.504.24.84.24ZM267.449 27v-6.3h1.776v1.368h.06c.032-.176.088-.344.168-.504.08-.168.184-.316.312-.444.136-.128.296-.228.48-.3.184-.08.4-.12.648-.12h.312v1.656h-.444c-.52 0-.908.068-1.164.204-.248.136-.372.388-.372.756V27h-1.776Zm7.349.144c-.464 0-.88-.076-1.248-.228a2.544 2.544 0 0 1-.924-.66 3.063 3.063 0 0 1-.576-1.044 4.31 4.31 0 0 1-.204-1.368c0-.504.068-.96.204-1.368.136-.408.328-.752.576-1.032.256-.288.564-.508.924-.66a3.243 3.243 0 0 1 1.248-.228c.464 0 .876.076 1.236.228.368.152.676.372.924.66.256.28.452.624.588 1.032.136.408.204.864.204 1.368 0 .504-.068.96-.204 1.368a2.956 2.956 0 0 1-.588 1.044 2.416 2.416 0 0 1-.924.66c-.36.152-.772.228-1.236.228Zm0-1.404c.352 0 .624-.108.816-.324.192-.216.288-.524.288-.924v-1.284c0-.4-.096-.708-.288-.924-.192-.216-.464-.324-.816-.324-.352 0-.624.108-.816.324-.192.216-.288.524-.288.924v1.284c0 .4.096.708.288.924.192.216.464.324.816.324Zm5.468 1.26-2.064-6.3h1.752l.78 2.544.588 2.28h.096l.588-2.28.756-2.544h1.68l-2.064 6.3h-2.112Zm7.647.144c-.48 0-.908-.076-1.284-.228a2.817 2.817 0 0 1-.96-.66 2.956 2.956 0 0 1-.588-1.044 4.559 4.559 0 0 1-.192-1.368c0-.496.064-.944.192-1.344.128-.408.316-.756.564-1.044.256-.288.568-.508.936-.66.368-.16.788-.24 1.26-.24.52 0 .964.088 1.332.264.376.176.68.412.912.708.24.296.412.64.516 1.032.112.384.168.788.168 1.212v.528h-4.044v.096c0 .416.112.748.336.996.224.24.576.36 1.056.36.368 0 .668-.072.9-.216.232-.152.448-.332.648-.54l.888 1.104c-.28.328-.648.584-1.104.768-.448.184-.96.276-1.536.276Zm-.036-5.28c-.36 0-.644.12-.852.36-.2.232-.3.544-.3.936v.096h2.208v-.108c0-.384-.088-.692-.264-.924-.168-.24-.432-.36-.792-.36Zm5.034-1.836c-.36 0-.624-.08-.792-.24a.885.885 0 0 1-.24-.636v-.264c0-.256.08-.464.24-.624.168-.168.432-.252.792-.252.36 0 .62.084.78.252.168.16.252.368.252.624v.264a.862.862 0 0 1-.252.636c-.16.16-.42.24-.78.24Zm-.888.672h1.776V27h-1.776v-6.3Zm5.642 6.3c-.616 0-1.084-.156-1.404-.468-.312-.312-.468-.768-.468-1.368V22.08h-.888V20.7h.444c.24 0 .404-.056.492-.168.088-.12.132-.288.132-.504v-1.032h1.596V20.7h1.248v1.38h-1.248v3.54h1.152V27h-1.056Zm4.967.144c-.48 0-.908-.076-1.284-.228a2.817 2.817 0 0 1-.96-.66 2.956 2.956 0 0 1-.588-1.044 4.559 4.559 0 0 1-.192-1.368c0-.496.064-.944.192-1.344.128-.408.316-.756.564-1.044.256-.288.568-.508.936-.66.368-.16.788-.24 1.26-.24.52 0 .964.088 1.332.264.376.176.68.412.912.708.24.296.412.64.516 1.032.112.384.168.788.168 1.212v.528h-4.044v.096c0 .416.112.748.336.996.224.24.576.36 1.056.36.368 0 .668-.072.9-.216.232-.152.448-.332.648-.54l.888 1.104c-.28.328-.648.584-1.104.768-.448.184-.96.276-1.536.276Zm-.036-5.28c-.36 0-.644.12-.852.36-.2.232-.3.544-.3.936v.096h2.208v-.108c0-.384-.088-.692-.264-.924-.168-.24-.432-.36-.792-.36ZM314.234 27c-.32 0-.588-.1-.804-.3-.208-.2-.34-.468-.396-.804h-.072a1.48 1.48 0 0 1-.636.936c-.328.208-.732.312-1.212.312-.632 0-1.116-.168-1.452-.504-.336-.336-.504-.78-.504-1.332 0-.664.24-1.156.72-1.476.488-.328 1.148-.492 1.98-.492h.996v-.396c0-.304-.08-.544-.24-.72-.16-.184-.428-.276-.804-.276-.352 0-.632.076-.84.228-.208.152-.38.324-.516.516l-1.056-.936c.256-.376.576-.668.96-.876.392-.216.92-.324 1.584-.324.896 0 1.568.196 2.016.588.448.392.672.964.672 1.716v2.76h.588V27h-.984Zm-2.46-1.092c.296 0 .548-.064.756-.192.216-.128.324-.336.324-.624v-.744h-.864c-.696 0-1.044.236-1.044.708v.18c0 .232.072.404.216.516.144.104.348.156.612.156Zm6.772 1.236c-.608 0-1.12-.096-1.536-.288-.416-.2-.788-.48-1.116-.84l1.044-1.056c.224.248.472.444.744.588.272.144.58.216.924.216.352 0 .596-.052.732-.156a.547.547 0 0 0 .204-.444c0-.296-.212-.472-.636-.528l-.684-.084c-1.416-.176-2.124-.824-2.124-1.944 0-.304.056-.58.168-.828.12-.256.284-.472.492-.648a2.23 2.23 0 0 1 .768-.42 3.138 3.138 0 0 1 1.02-.156c.328 0 .616.024.864.072.256.04.48.104.672.192.2.08.38.184.54.312.168.12.332.256.492.408l-1.02 1.044c-.2-.2-.428-.356-.684-.468a1.744 1.744 0 0 0-.768-.18c-.304 0-.52.048-.648.144a.456.456 0 0 0-.192.384c0 .168.044.3.132.396.096.088.272.152.528.192l.708.096c1.384.184 2.076.816 2.076 1.896 0 .304-.064.584-.192.84s-.312.48-.552.672a2.587 2.587 0 0 1-.852.432 3.644 3.644 0 0 1-1.104.156Zm6.747-.144v-6.3h1.776v1.068h.072c.112-.328.308-.612.588-.852.28-.24.668-.36 1.164-.36.648 0 1.136.216 1.464.648.336.432.504 1.048.504 1.848V27h-1.776v-3.804c0-.408-.064-.708-.192-.9-.128-.2-.356-.3-.684-.3-.144 0-.284.02-.42.06-.136.032-.26.088-.372.168a.918.918 0 0 0-.252.3.785.785 0 0 0-.096.396V27h-1.776Zm9.704.144c-.464 0-.88-.076-1.248-.228a2.544 2.544 0 0 1-.924-.66 3.063 3.063 0 0 1-.576-1.044 4.31 4.31 0 0 1-.204-1.368c0-.504.068-.96.204-1.368.136-.408.328-.752.576-1.032.256-.288.564-.508.924-.66a3.243 3.243 0 0 1 1.248-.228c.464 0 .876.076 1.236.228.368.152.676.372.924.66.256.28.452.624.588 1.032.136.408.204.864.204 1.368 0 .504-.068.96-.204 1.368a2.956 2.956 0 0 1-.588 1.044 2.416 2.416 0 0 1-.924.66c-.36.152-.772.228-1.236.228Zm0-1.404c.352 0 .624-.108.816-.324.192-.216.288-.524.288-.924v-1.284c0-.4-.096-.708-.288-.924-.192-.216-.464-.324-.816-.324-.352 0-.624.108-.816.324-.192.216-.288.524-.288.924v1.284c0 .4.096.708.288.924.192.216.464.324.816.324Zm5.468 1.26-2.064-6.3h1.752l.78 2.544.588 2.28h.096l.588-2.28.756-2.544h1.68l-2.064 6.3h-2.112Zm9.664 0c-.32 0-.588-.1-.804-.3-.208-.2-.34-.468-.396-.804h-.072a1.48 1.48 0 0 1-.636.936c-.328.208-.732.312-1.212.312-.632 0-1.116-.168-1.452-.504-.336-.336-.504-.78-.504-1.332 0-.664.24-1.156.72-1.476.488-.328 1.148-.492 1.98-.492h.996v-.396c0-.304-.08-.544-.24-.72-.16-.184-.428-.276-.804-.276-.352 0-.632.076-.84.228-.208.152-.38.324-.516.516l-1.056-.936c.256-.376.576-.668.96-.876.392-.216.92-.324 1.584-.324.896 0 1.568.196 2.016.588.448.392.672.964.672 1.716v2.76h.588V27h-.984Zm-2.46-1.092c.296 0 .548-.064.756-.192.216-.128.324-.336.324-.624v-.744h-.864c-.696 0-1.044.236-1.044.708v.18c0 .232.072.404.216.516.144.104.348.156.612.156Zm6.772 1.236c-.608 0-1.12-.096-1.536-.288-.416-.2-.788-.48-1.116-.84l1.044-1.056c.224.248.472.444.744.588.272.144.58.216.924.216.352 0 .596-.052.732-.156a.547.547 0 0 0 .204-.444c0-.296-.212-.472-.636-.528l-.684-.084c-1.416-.176-2.124-.824-2.124-1.944 0-.304.056-.58.168-.828.12-.256.284-.472.492-.648a2.23 2.23 0 0 1 .768-.42 3.138 3.138 0 0 1 1.02-.156c.328 0 .616.024.864.072.256.04.48.104.672.192.2.08.38.184.54.312.168.12.332.256.492.408l-1.02 1.044c-.2-.2-.428-.356-.684-.468a1.744 1.744 0 0 0-.768-.18c-.304 0-.52.048-.648.144a.456.456 0 0 0-.192.384c0 .168.044.3.132.396.096.088.272.152.528.192l.708.096c1.384.184 2.076.816 2.076 1.896 0 .304-.064.584-.192.84s-.312.48-.552.672a2.587 2.587 0 0 1-.852.432 3.644 3.644 0 0 1-1.104.156Zm6.746-6.444h1.776v1.056h.06c.088-.352.288-.64.6-.864.32-.224.684-.336 1.092-.336.8 0 1.404.28 1.812.84.408.56.612 1.376.612 2.448s-.204 1.892-.612 2.46c-.408.56-1.012.84-1.812.84-.208 0-.404-.032-.588-.096a1.83 1.83 0 0 1-.504-.24 1.878 1.878 0 0 1-.372-.384 1.649 1.649 0 0 1-.228-.48h-.06V29.4h-1.776v-8.7Zm2.94 5.004c.336 0 .612-.116.828-.348.224-.24.336-.56.336-.96v-1.092c0-.4-.112-.716-.336-.948a1.064 1.064 0 0 0-.828-.36c-.336 0-.616.084-.84.252a.788.788 0 0 0-.324.672v1.86a.82.82 0 0 0 .324.684c.224.16.504.24.84.24ZM370.252 27c-.608 0-1.056-.148-1.344-.444-.28-.296-.42-.724-.42-1.284V18.12h1.776v7.5h.792V27h-.804Zm6.525 0c-.32 0-.588-.1-.804-.3-.208-.2-.34-.468-.396-.804h-.072a1.48 1.48 0 0 1-.636.936c-.328.208-.732.312-1.212.312-.632 0-1.116-.168-1.452-.504-.336-.336-.504-.78-.504-1.332 0-.664.24-1.156.72-1.476.488-.328 1.148-.492 1.98-.492h.996v-.396c0-.304-.08-.544-.24-.72-.16-.184-.428-.276-.804-.276-.352 0-.632.076-.84.228-.208.152-.38.324-.516.516l-1.056-.936c.256-.376.576-.668.96-.876.392-.216.92-.324 1.584-.324.896 0 1.568.196 2.016.588.448.392.672.964.672 1.716v2.76h.588V27h-.984Zm-2.46-1.092c.296 0 .548-.064.756-.192.216-.128.324-.336.324-.624v-.744h-.864c-.696 0-1.044.236-1.044.708v.18c0 .232.072.404.216.516.144.104.348.156.612.156ZM381.091 27c-.616 0-1.084-.156-1.404-.468-.312-.312-.468-.768-.468-1.368V22.08h-.888V20.7h.444c.24 0 .404-.056.492-.168.088-.12.132-.288.132-.504v-1.032h1.596V20.7h1.248v1.38h-1.248v3.54h1.152V27h-1.056Zm7.041 0c-.32 0-.588-.1-.804-.3-.208-.2-.34-.468-.396-.804h-.072a1.48 1.48 0 0 1-.636.936c-.328.208-.732.312-1.212.312-.632 0-1.116-.168-1.452-.504-.336-.336-.504-.78-.504-1.332 0-.664.24-1.156.72-1.476.488-.328 1.148-.492 1.98-.492h.996v-.396c0-.304-.08-.544-.24-.72-.16-.184-.428-.276-.804-.276-.352 0-.632.076-.84.228-.208.152-.38.324-.516.516l-1.056-.936c.256-.376.576-.668.96-.876.392-.216.92-.324 1.584-.324.896 0 1.568.196 2.016.588.448.392.672.964.672 1.716v2.76h.588V27h-.984Zm-2.46-1.092c.296 0 .548-.064.756-.192.216-.128.324-.336.324-.624v-.744h-.864c-.696 0-1.044.236-1.044.708v.18c0 .232.072.404.216.516.144.104.348.156.612.156Zm4.948-3.828h-.888V20.7h.888v-.744c0-.608.16-1.064.48-1.368.32-.312.788-.468 1.404-.468h1.152v1.38h-1.26v1.2h1.26v1.38h-1.26V27h-1.776v-4.92Zm6.534 5.064c-.464 0-.88-.076-1.248-.228a2.544 2.544 0 0 1-.924-.66 3.063 3.063 0 0 1-.576-1.044 4.31 4.31 0 0 1-.204-1.368c0-.504.068-.96.204-1.368.136-.408.328-.752.576-1.032.256-.288.564-.508.924-.66a3.243 3.243 0 0 1 1.248-.228c.464 0 .876.076 1.236.228.368.152.676.372.924.66.256.28.452.624.588 1.032.136.408.204.864.204 1.368 0 .504-.068.96-.204 1.368a2.956 2.956 0 0 1-.588 1.044 2.416 2.416 0 0 1-.924.66c-.36.152-.772.228-1.236.228Zm0-1.404c.352 0 .624-.108.816-.324.192-.216.288-.524.288-.924v-1.284c0-.4-.096-.708-.288-.924-.192-.216-.464-.324-.816-.324-.352 0-.624.108-.816.324-.192.216-.288.524-.288.924v1.284c0 .4.096.708.288.924.192.216.464.324.816.324Zm4.217 1.26v-6.3h1.776v1.368h.06c.032-.176.088-.344.168-.504.08-.168.184-.316.312-.444.136-.128.296-.228.48-.3.184-.08.4-.12.648-.12h.312v1.656h-.444c-.52 0-.908.068-1.164.204-.248.136-.372.388-.372.756V27h-1.776Zm4.852 0v-6.3h1.776v1.068h.072c.112-.336.304-.62.576-.852.272-.24.644-.36 1.116-.36.432 0 .8.108 1.104.324.304.216.524.532.66.948h.036a1.687 1.687 0 0 1 .684-.9c.168-.112.356-.2.564-.264a2.04 2.04 0 0 1 .672-.108c.608 0 1.072.216 1.392.648.328.432.492 1.048.492 1.848V27h-1.776v-3.804c0-.8-.288-1.2-.864-1.2-.264 0-.504.076-.72.228-.216.152-.324.384-.324.696V27h-1.776v-3.804c0-.8-.288-1.2-.864-1.2-.128 0-.256.02-.384.06a.948.948 0 0 0-.336.168.993.993 0 0 0-.24.3.876.876 0 0 0-.084.396V27h-1.776Zm15.378 0c-.32 0-.588-.1-.804-.3-.208-.2-.34-.468-.396-.804h-.072a1.48 1.48 0 0 1-.636.936c-.328.208-.732.312-1.212.312-.632 0-1.116-.168-1.452-.504-.336-.336-.504-.78-.504-1.332 0-.664.24-1.156.72-1.476.488-.328 1.148-.492 1.98-.492h.996v-.396c0-.304-.08-.544-.24-.72-.16-.184-.428-.276-.804-.276-.352 0-.632.076-.84.228-.208.152-.38.324-.516.516l-1.056-.936c.256-.376.576-.668.96-.876.392-.216.92-.324 1.584-.324.896 0 1.568.196 2.016.588.448.392.672.964.672 1.716v2.76h.588V27h-.984Zm-2.46-1.092c.296 0 .548-.064.756-.192.216-.128.324-.336.324-.624v-.744h-.864c-.696 0-1.044.236-1.044.708v.18c0 .232.072.404.216.516.144.104.348.156.612.156Zm6.772 1.236c-.608 0-1.12-.096-1.536-.288-.416-.2-.788-.48-1.116-.84l1.044-1.056c.224.248.472.444.744.588.272.144.58.216.924.216.352 0 .596-.052.732-.156a.547.547 0 0 0 .204-.444c0-.296-.212-.472-.636-.528l-.684-.084c-1.416-.176-2.124-.824-2.124-1.944 0-.304.056-.58.168-.828.12-.256.284-.472.492-.648a2.23 2.23 0 0 1 .768-.42 3.138 3.138 0 0 1 1.02-.156c.328 0 .616.024.864.072.256.04.48.104.672.192.2.08.38.184.54.312.168.12.332.256.492.408l-1.02 1.044c-.2-.2-.428-.356-.684-.468a1.744 1.744 0 0 0-.768-.18c-.304 0-.52.048-.648.144a.456.456 0 0 0-.192.384c0 .168.044.3.132.396.096.088.272.152.528.192l.708.096c1.384.184 2.076.816 2.076 1.896 0 .304-.064.584-.192.84s-.312.48-.552.672a2.587 2.587 0 0 1-.852.432 3.644 3.644 0 0 1-1.104.156Z" fill="#333"/></g><defs><clipPath id="a"><path fill="#fff" d="M0 0h565v52H0z"/></clipPath><clipPath id="c"><path fill="#fff" transform="translate(16.499 10)" d="M0 0h32v32H0z"/></clipPath></defs></svg>