<svg width="565" height="52" fill="none" xmlns="http://www.w3.org/2000/svg"><g clip-path="url(#a)"><path fill-rule="evenodd" clip-rule="evenodd" d="M455.603 45.589H560c2.781 0 5.066-2.34 5.066-5.19V5.19c0-2.848-2.285-5.19-5.066-5.19H455.603v8.344c0 .51-.2 1.018-.5 1.425l-5.603 6.615c-.3.407-.5.915-.5 1.424v9.668c0 .508.2 1.017.5 1.424l5.603 6.615c.3.407.5.916.5 1.424v8.65Z" fill="#FF444F"/><path d="M445.397 45.284H38.317c-.5 0-1 .203-1.4.509l-6.503 5.698c-.4.306-.9.509-1.401.509h-9.504c-.5 0-1-.203-1.401-.509l-6.503-5.698c-.4-.306-.9-.51-1.4-.51H5.501C3.001 45.284 1 43.249 1 40.706V4.579C1 2.035 3 0 5.502 0h4.702c.5 0 1 .204 1.4.509l6.504 5.698c.4.306.9.51 1.4.51h9.505c.5 0 1-.204 1.4-.51L36.918.51c.4-.305.9-.509 1.4-.509H452v8.344c0 .51-.2 1.018-.5 1.425l-5.603 6.615c-.3.407-.5.915-.5 1.424v9.668c0 .508.2 1.017.5 1.424l5.603 6.615c.3.407.5.916.5 1.424v8.345h-6.603Z" fill="#fff"/><mask id="b" style="mask-type:alpha" maskUnits="userSpaceOnUse" x="1" y="0" width="450" height="52"><path d="M443.897 45.284H38.317c-.5 0-1 .203-1.4.509l-6.503 5.698c-.4.306-.9.509-1.401.509h-9.504c-.5 0-1-.203-1.401-.509l-6.503-5.698c-.4-.306-.9-.51-1.4-.51H5.501C3.001 45.284 1 43.249 1 40.706V4.579C1 2.035 3 0 5.502 0h4.702c.5 0 1 .204 1.4.509l6.504 5.698c.4.306.9.51 1.4.51h9.505c.5 0 1-.204 1.4-.51L36.918.51c.4-.305.9-.509 1.4-.509H450.5v8.344c0 .51-.2 1.018-.5 1.425l-5.603 6.615c-.3.407-.5.915-.5 1.424v9.668c0 .508.2 1.017.5 1.424L450 35.515c.3.407.5.916.5 1.424v8.141l-6.603.204Z" fill="#fff"/></mask><g mask="url(#b)"><path d="M-25 0h85.16l15.6 52H-25V0Z" fill="#D6DADB"/><path d="M19 16a6 6 0 0 1 6-6h20a6 6 0 0 1 6 6v20a6 6 0 0 1-6 6H25a6 6 0 0 1-6-6V16Z" fill="#2A3052"/><path fill-rule="evenodd" clip-rule="evenodd" d="M36.436 26.102a.445.445 0 0 0-.143-.293 1.08 1.08 0 0 1-.081-.09 1.836 1.836 0 0 0-.172-.177c-.953-1.012-.835-1.662-.823-1.728v-.005a1.392 1.392 0 0 0-.52-1.093l-.048-.063a.239.239 0 0 1-.036-.035c.506.141 1.02.251 1.538.329.23.041.465.055.698.04.52 0 .929-.063.956-.182a6.809 6.809 0 0 1-1.378-.405l-.019-.007a13.69 13.69 0 0 0-.892-.326 11.774 11.774 0 0 1-.867-.334l.49.13c1.407.375 1.968.525 2.71.537a2.6 2.6 0 0 0 .613-.058c.12 0 .48-.102.52-.226a2.997 2.997 0 0 1-1.013-.16c-1.29-.428-1.85-.722-2.364-.991a9.657 9.657 0 0 0-1.063-.498c-.57-.238-1.16-.424-1.764-.556a3.374 3.374 0 0 0-1.52 0c-1.587-.373-1.947-.333-2.413-.231a8.032 8.032 0 0 1 5.19-1.218V14.89h-4.813a5.333 5.333 0 0 0-5.333 5.333v11.556a5.333 5.333 0 0 0 5.333 5.333h4.822v-3.853a33.882 33.882 0 0 0-.542-.09c-.527-.085-.855-.137-1.066-.283-.085-.054-.352-.196-.414-.16a.756.756 0 0 1-.91-.058.687.687 0 0 1-.085-.076.644.644 0 0 1-.125-.889c.085-.089-.066-.333-.066-.333s-.445-.662-.747-1.058a3.023 3.023 0 0 1-.382-1.306 3.696 3.696 0 0 1-.485-.734 1.83 1.83 0 0 0-.262-.315 1.704 1.704 0 0 1-.155-.174.075.075 0 0 1 0-.058c.121-.254.3-.477.52-.653.106-.071.564-.347.564-.347a.89.89 0 0 1 .667-.404c.453-.027.907.041 1.333.2l.284.089c.417.136.827.295 1.227.475.221.102.448.19.68.263.587.155 1.627-.32 1.845-.52.355-.325.506-.543.51-.725Zm-2.73-2.769-.288-.377a2.151 2.151 0 0 1 1.213 1.306c-1.169.28-.924-.929-.924-.929Z" fill="#fff"/><path d="M38.551 32.422a7.965 7.965 0 0 0 2.636-5.467h4.924v4.823a5.333 5.333 0 0 1-5.333 5.333h-4.822v-3.555a4.666 4.666 0 0 0 2.595-1.134Zm-7.91-2.582a1.836 1.836 0 0 1-.285-.729C31.381 29.04 31 30 31 30l.204.382a1.835 1.835 0 0 1-.563-.543Zm5.315-14.951h4.822a5.333 5.333 0 0 1 5.333 5.333v4.81h-5.013A7.89 7.89 0 0 0 39.888 22l-.048-.044a8.244 8.244 0 0 0-.982-1.183 7.919 7.919 0 0 0-2.902-1.857v-4.027Z" fill="#fff"/></g><path d="M492.12 20.37V26h-1.52v-5.63h-1.89v-1.35h5.3v1.35h-1.89Zm2.401 5.63v-5.25h1.48v1.14h.05a1.557 1.557 0 0 1 .4-.79c.113-.107.247-.19.4-.25.153-.067.333-.1.54-.1h.26v1.38h-.37c-.433 0-.757.057-.97.17-.207.113-.31.323-.31.63V26h-1.48Zm7.321-5.25h1.38l-2.02 6.06c-.133.407-.323.707-.57.9-.24.193-.586.29-1.04.29h-.92v-1.15h.99l.18-.58-1.84-5.52h1.47l.77 2.45.38 1.52h.06l.39-1.52.77-2.45Zm4.495 5.25v-5.25h1.48v.89h.06a1.62 1.62 0 0 1 .49-.71c.234-.2.557-.3.97-.3.54 0 .947.18 1.22.54.28.36.42.873.42 1.54V26h-1.48v-3.17c0-.34-.053-.59-.16-.75-.106-.167-.296-.25-.57-.25-.12 0-.236.017-.35.05a.88.88 0 0 0-.31.14.782.782 0 0 0-.21.25.657.657 0 0 0-.08.33V26h-1.48Zm8.087.12a2.7 2.7 0 0 1-1.04-.19 2.13 2.13 0 0 1-.77-.55 2.575 2.575 0 0 1-.48-.87c-.113-.34-.17-.72-.17-1.14 0-.42.057-.8.17-1.14.114-.34.274-.627.48-.86.214-.24.47-.423.77-.55a2.7 2.7 0 0 1 1.04-.19c.387 0 .73.063 1.03.19.307.127.564.31.77.55.214.233.377.52.49.86.114.34.17.72.17 1.14 0 .42-.056.8-.17 1.14-.113.34-.276.63-.49.87-.206.24-.463.423-.77.55-.3.127-.643.19-1.03.19Zm0-1.17c.294 0 .52-.09.68-.27.16-.18.24-.437.24-.77v-1.07c0-.333-.08-.59-.24-.77-.16-.18-.386-.27-.68-.27-.293 0-.52.09-.68.27-.16.18-.24.437-.24.77v1.07c0 .333.08.59.24.77.16.18.387.27.68.27Zm2.917-4.2h1.43l.51 2.12.36 1.6h.04l.42-1.6.6-2.12h1.35l.61 2.12.43 1.6h.04l.36-1.6.51-2.12h1.37l-1.45 5.25h-1.55l-.64-2.22-.37-1.36h-.03l-.36 1.36-.64 2.22h-1.52l-1.47-5.25Z" fill="#fff"/><path d="M104.416 20.244V27h-1.824v-6.756h-2.268v-1.62h6.36v1.62h-2.268ZM107.297 27v-6.3h1.776v1.368h.06c.032-.176.088-.344.168-.504.08-.168.184-.316.312-.444.136-.128.296-.228.48-.3.184-.08.4-.12.648-.12h.312v1.656h-.444c-.52 0-.908.068-1.164.204-.248.136-.372.388-.372.756V27h-1.776Zm9.343 0c-.32 0-.588-.1-.804-.3-.208-.2-.34-.468-.396-.804h-.072a1.48 1.48 0 0 1-.636.936c-.328.208-.732.312-1.212.312-.632 0-1.116-.168-1.452-.504-.336-.336-.504-.78-.504-1.332 0-.664.24-1.156.72-1.476.488-.328 1.148-.492 1.98-.492h.996v-.396c0-.304-.08-.544-.24-.72-.16-.184-.428-.276-.804-.276-.352 0-.632.076-.84.228-.208.152-.38.324-.516.516l-1.056-.936c.256-.376.576-.668.96-.876.392-.216.92-.324 1.584-.324.896 0 1.568.196 2.016.588.448.392.672.964.672 1.716v2.76h.588V27h-.984Zm-2.46-1.092c.296 0 .548-.064.756-.192.216-.128.324-.336.324-.624v-.744h-.864c-.696 0-1.044.236-1.044.708v.18c0 .232.072.404.216.516.144.104.348.156.612.156Zm8.5.036h-.06a1.649 1.649 0 0 1-.228.48 1.634 1.634 0 0 1-.888.624 1.74 1.74 0 0 1-.576.096c-.8 0-1.404-.28-1.812-.84-.408-.568-.612-1.388-.612-2.46s.204-1.888.612-2.448c.408-.56 1.012-.84 1.812-.84.408 0 .768.112 1.08.336.32.224.524.512.612.864h.06V18.12h1.776V27h-1.776v-1.056Zm-1.164-.24c.336 0 .612-.08.828-.24a.81.81 0 0 0 .336-.684v-1.86a.779.779 0 0 0-.336-.672c-.216-.168-.492-.252-.828-.252-.336 0-.616.12-.84.36-.216.232-.324.548-.324.948v1.092c0 .4.108.72.324.96.224.232.504.348.84.348Zm7.229 1.44c-.48 0-.908-.076-1.284-.228a2.817 2.817 0 0 1-.96-.66 2.956 2.956 0 0 1-.588-1.044 4.559 4.559 0 0 1-.192-1.368c0-.496.064-.944.192-1.344.128-.408.316-.756.564-1.044.256-.288.568-.508.936-.66.368-.16.788-.24 1.26-.24.52 0 .964.088 1.332.264.376.176.68.412.912.708.24.296.412.64.516 1.032.112.384.168.788.168 1.212v.528h-4.044v.096c0 .416.112.748.336.996.224.24.576.36 1.056.36.368 0 .668-.072.9-.216.232-.152.448-.332.648-.54l.888 1.104c-.28.328-.648.584-1.104.768-.448.184-.96.276-1.536.276Zm-.036-5.28c-.36 0-.644.12-.852.36-.2.232-.3.544-.3.936v.096h2.208v-.108c0-.384-.088-.692-.264-.924-.168-.24-.432-.36-.792-.36Zm7.078-3.24h4.068c.696 0 1.236.196 1.62.588.392.392.588.912.588 1.56 0 .32-.044.592-.132.816-.08.224-.192.408-.336.552a1.29 1.29 0 0 1-.492.324c-.184.064-.384.1-.6.108v.072c.2 0 .408.036.624.108.224.072.428.188.612.348.184.152.336.352.456.6.128.248.192.552.192.912 0 .328-.056.64-.168.936-.104.288-.252.54-.444.756-.192.216-.42.388-.684.516-.264.12-.552.18-.864.18h-4.44v-8.376Zm1.824 6.84h2.1c.24 0 .428-.064.564-.192.144-.136.216-.324.216-.564V24.3c0-.24-.072-.424-.216-.552-.136-.136-.324-.204-.564-.204h-2.1v1.92Zm0-3.408h1.812c.24 0 .428-.068.564-.204.136-.136.204-.324.204-.564v-.36c0-.24-.068-.428-.204-.564-.136-.136-.324-.204-.564-.204h-1.812v1.896Zm6.972-2.028c-.36 0-.624-.08-.792-.24a.885.885 0 0 1-.24-.636v-.264c0-.256.08-.464.24-.624.168-.168.432-.252.792-.252.36 0 .62.084.78.252.168.16.252.368.252.624v.264a.862.862 0 0 1-.252.636c-.16.16-.42.24-.78.24Zm-.888.672h1.776V27h-1.776v-6.3Zm3.434 6.3v-6.3h1.776v1.068h.072c.112-.328.308-.612.588-.852.28-.24.668-.36 1.164-.36.648 0 1.136.216 1.464.648.336.432.504 1.048.504 1.848V27h-1.776v-3.804c0-.408-.064-.708-.192-.9-.128-.2-.356-.3-.684-.3-.144 0-.284.02-.42.06-.136.032-.26.088-.372.168a.918.918 0 0 0-.252.3.785.785 0 0 0-.096.396V27h-1.776Zm11.804 0c-.32 0-.588-.1-.804-.3-.208-.2-.34-.468-.396-.804h-.072a1.48 1.48 0 0 1-.636.936c-.328.208-.732.312-1.212.312-.632 0-1.116-.168-1.452-.504-.336-.336-.504-.78-.504-1.332 0-.664.24-1.156.72-1.476.488-.328 1.148-.492 1.98-.492h.996v-.396c0-.304-.08-.544-.24-.72-.16-.184-.428-.276-.804-.276-.352 0-.632.076-.84.228-.208.152-.38.324-.516.516l-1.056-.936c.256-.376.576-.668.96-.876.392-.216.92-.324 1.584-.324.896 0 1.568.196 2.016.588.448.392.672.964.672 1.716v2.76h.588V27h-.984Zm-2.46-1.092c.296 0 .548-.064.756-.192.216-.128.324-.336.324-.624v-.744h-.864c-.696 0-1.044.236-1.044.708v.18c0 .232.072.404.216.516.144.104.348.156.612.156ZM161.109 27v-6.3h1.776v1.368h.06c.032-.176.088-.344.168-.504.08-.168.184-.316.312-.444.136-.128.296-.228.48-.3.184-.08.4-.12.648-.12h.312v1.656h-.444c-.52 0-.908.068-1.164.204-.248.136-.372.388-.372.756V27h-1.776Zm8.786-6.3h1.656l-2.424 7.272c-.16.488-.388.848-.684 1.08-.288.232-.704.348-1.248.348h-1.104v-1.38h1.188l.216-.696-2.208-6.624h1.764l.924 2.94.456 1.824h.072l.468-1.824.924-2.94Zm5.49-2.076h4.068c.696 0 1.236.196 1.62.588.392.392.588.912.588 1.56 0 .32-.044.592-.132.816-.08.224-.192.408-.336.552a1.29 1.29 0 0 1-.492.324c-.184.064-.384.1-.6.108v.072c.2 0 .408.036.624.108.224.072.428.188.612.348.184.152.336.352.456.6.128.248.192.552.192.912 0 .328-.056.64-.168.936-.104.288-.252.54-.444.756-.192.216-.42.388-.684.516-.264.12-.552.18-.864.18h-4.44v-8.376Zm1.824 6.84h2.1c.24 0 .428-.064.564-.192.144-.136.216-.324.216-.564V24.3c0-.24-.072-.424-.216-.552-.136-.136-.324-.204-.564-.204h-2.1v1.92Zm0-3.408h1.812c.24 0 .428-.068.564-.204.136-.136.204-.324.204-.564v-.36c0-.24-.068-.428-.204-.564-.136-.136-.324-.204-.564-.204h-1.812v1.896Zm8.64 5.088c-.464 0-.88-.076-1.248-.228a2.544 2.544 0 0 1-.924-.66 3.063 3.063 0 0 1-.576-1.044 4.31 4.31 0 0 1-.204-1.368c0-.504.068-.96.204-1.368.136-.408.328-.752.576-1.032.256-.288.564-.508.924-.66a3.243 3.243 0 0 1 1.248-.228c.464 0 .876.076 1.236.228.368.152.676.372.924.66.256.28.452.624.588 1.032.136.408.204.864.204 1.368 0 .504-.068.96-.204 1.368a2.956 2.956 0 0 1-.588 1.044 2.416 2.416 0 0 1-.924.66c-.36.152-.772.228-1.236.228Zm0-1.404c.352 0 .624-.108.816-.324.192-.216.288-.524.288-.924v-1.284c0-.4-.096-.708-.288-.924-.192-.216-.464-.324-.816-.324-.352 0-.624.108-.816.324-.192.216-.288.524-.288.924v1.284c0 .4.096.708.288.924.192.216.464.324.816.324Zm6.355 1.26c-.616 0-1.084-.156-1.404-.468-.312-.312-.468-.768-.468-1.368V22.08h-.888V20.7h.444c.24 0 .404-.056.492-.168.088-.12.132-.288.132-.504v-1.032h1.596V20.7h1.248v1.38h-1.248v3.54h1.152V27h-1.056Zm7.778.144c-.464 0-.88-.076-1.248-.228a2.544 2.544 0 0 1-.924-.66 3.063 3.063 0 0 1-.576-1.044 4.31 4.31 0 0 1-.204-1.368c0-.504.068-.96.204-1.368.136-.408.328-.752.576-1.032.256-.288.564-.508.924-.66a3.243 3.243 0 0 1 1.248-.228c.464 0 .876.076 1.236.228.368.152.676.372.924.66.256.28.452.624.588 1.032.136.408.204.864.204 1.368 0 .504-.068.96-.204 1.368a2.956 2.956 0 0 1-.588 1.044 2.416 2.416 0 0 1-.924.66c-.36.152-.772.228-1.236.228Zm0-1.404c.352 0 .624-.108.816-.324.192-.216.288-.524.288-.924v-1.284c0-.4-.096-.708-.288-.924-.192-.216-.464-.324-.816-.324-.352 0-.624.108-.816.324-.192.216-.288.524-.288.924v1.284c0 .4.096.708.288.924.192.216.464.324.816.324Zm4.217 1.26v-6.3h1.776v1.068h.072c.112-.328.308-.612.588-.852.28-.24.668-.36 1.164-.36.648 0 1.136.216 1.464.648.336.432.504 1.048.504 1.848V27h-1.776v-3.804c0-.408-.064-.708-.192-.9-.128-.2-.356-.3-.684-.3-.144 0-.284.02-.42.06-.136.032-.26.088-.372.168a.918.918 0 0 0-.252.3.785.785 0 0 0-.096.396V27h-1.776Zm10.08-8.376h3.156c.552 0 1.056.088 1.512.264.456.176.844.44 1.164.792.32.344.568.78.744 1.308.176.52.264 1.128.264 1.824 0 .696-.088 1.308-.264 1.836-.176.52-.424.956-.744 1.308a3.08 3.08 0 0 1-1.164.78c-.456.176-.96.264-1.512.264h-3.156v-8.376Zm3.156 6.756c.544 0 .972-.152 1.284-.456.312-.304.468-.792.468-1.464v-1.296c0-.672-.156-1.16-.468-1.464-.312-.304-.74-.456-1.284-.456h-1.332v5.136h1.332Zm7.744 1.764c-.48 0-.908-.076-1.284-.228a2.817 2.817 0 0 1-.96-.66 2.956 2.956 0 0 1-.588-1.044 4.559 4.559 0 0 1-.192-1.368c0-.496.064-.944.192-1.344.128-.408.316-.756.564-1.044.256-.288.568-.508.936-.66.368-.16.788-.24 1.26-.24.52 0 .964.088 1.332.264.376.176.68.412.912.708.24.296.412.64.516 1.032.112.384.168.788.168 1.212v.528h-4.044v.096c0 .416.112.748.336.996.224.24.576.36 1.056.36.368 0 .668-.072.9-.216.232-.152.448-.332.648-.54l.888 1.104c-.28.328-.648.584-1.104.768-.448.184-.96.276-1.536.276Zm-.036-5.28c-.36 0-.644.12-.852.36-.2.232-.3.544-.3.936v.096h2.208v-.108c0-.384-.088-.692-.264-.924-.168-.24-.432-.36-.792-.36ZM229.289 27v-6.3h1.776v1.368h.06c.032-.176.088-.344.168-.504.08-.168.184-.316.312-.444.136-.128.296-.228.48-.3.184-.08.4-.12.648-.12h.312v1.656h-.444c-.52 0-.908.068-1.164.204-.248.136-.372.388-.372.756V27h-1.776Zm5.74-6.972c-.36 0-.624-.08-.792-.24a.885.885 0 0 1-.24-.636v-.264c0-.256.08-.464.24-.624.168-.168.432-.252.792-.252.36 0 .62.084.78.252.168.16.252.368.252.624v.264a.862.862 0 0 1-.252.636c-.16.16-.42.24-.78.24Zm-.888.672h1.776V27h-1.776v-6.3Zm4.777 6.3-2.064-6.3h1.752l.78 2.544.588 2.28h.096l.588-2.28.756-2.544h1.68L241.03 27h-2.112Zm12.605 0c-.32 0-.588-.1-.804-.3-.208-.2-.34-.468-.396-.804h-.072a1.48 1.48 0 0 1-.636.936c-.328.208-.732.312-1.212.312-.632 0-1.116-.168-1.452-.504-.336-.336-.504-.78-.504-1.332 0-.664.24-1.156.72-1.476.488-.328 1.148-.492 1.98-.492h.996v-.396c0-.304-.08-.544-.24-.72-.16-.184-.428-.276-.804-.276-.352 0-.632.076-.84.228-.208.152-.38.324-.516.516l-1.056-.936c.256-.376.576-.668.96-.876.392-.216.92-.324 1.584-.324.896 0 1.568.196 2.016.588.448.392.672.964.672 1.716v2.76h.588V27h-.984Zm-2.46-1.092c.296 0 .548-.064.756-.192.216-.128.324-.336.324-.624v-.744h-.864c-.696 0-1.044.236-1.044.708v.18c0 .232.072.404.216.516.144.104.348.156.612.156ZM253.699 27v-6.3h1.776v1.068h.072c.112-.328.308-.612.588-.852.28-.24.668-.36 1.164-.36.648 0 1.136.216 1.464.648.336.432.504 1.048.504 1.848V27h-1.776v-3.804c0-.408-.064-.708-.192-.9-.128-.2-.356-.3-.684-.3-.144 0-.284.02-.42.06-.136.032-.26.088-.372.168a.918.918 0 0 0-.252.3.785.785 0 0 0-.096.396V27h-1.776Zm11.013-1.056h-.06a1.649 1.649 0 0 1-.228.48 1.634 1.634 0 0 1-.888.624 1.74 1.74 0 0 1-.576.096c-.8 0-1.404-.28-1.812-.84-.408-.568-.612-1.388-.612-2.46s.204-1.888.612-2.448c.408-.56 1.012-.84 1.812-.84.408 0 .768.112 1.08.336.32.224.524.512.612.864h.06V18.12h1.776V27h-1.776v-1.056Zm-1.164-.24c.336 0 .612-.08.828-.24a.81.81 0 0 0 .336-.684v-1.86a.779.779 0 0 0-.336-.672c-.216-.168-.492-.252-.828-.252-.336 0-.616.12-.84.36-.216.232-.324.548-.324.948v1.092c0 .4.108.72.324.96.224.232.504.348.84.348Zm10.064 1.44c-.48 0-.908-.076-1.284-.228a2.817 2.817 0 0 1-.96-.66 2.956 2.956 0 0 1-.588-1.044 4.559 4.559 0 0 1-.192-1.368c0-.496.064-.944.192-1.344.128-.408.316-.756.564-1.044.256-.288.568-.508.936-.66.368-.16.788-.24 1.26-.24.52 0 .964.088 1.332.264.376.176.68.412.912.708.24.296.412.64.516 1.032.112.384.168.788.168 1.212v.528h-4.044v.096c0 .416.112.748.336.996.224.24.576.36 1.056.36.368 0 .668-.072.9-.216.232-.152.448-.332.648-.54l.888 1.104c-.28.328-.648.584-1.104.768-.448.184-.96.276-1.536.276Zm-.036-5.28c-.36 0-.644.12-.852.36-.2.232-.3.544-.3.936v.096h2.208v-.108c0-.384-.088-.692-.264-.924-.168-.24-.432-.36-.792-.36ZM277.723 27v-6.3h1.776v1.068h.072c.112-.328.308-.612.588-.852.28-.24.668-.36 1.164-.36.648 0 1.136.216 1.464.648.336.432.504 1.048.504 1.848V27h-1.776v-3.804c0-.408-.064-.708-.192-.9-.128-.2-.356-.3-.684-.3-.144 0-.284.02-.42.06-.136.032-.26.088-.372.168a.918.918 0 0 0-.252.3.785.785 0 0 0-.096.396V27h-1.776Zm7.148-6.3h1.776v6.972c0 .56-.14.988-.42 1.284-.28.296-.732.444-1.356.444h-.936v-1.38h.936V20.7Zm.888-.672c-.36 0-.624-.08-.792-.24a.885.885 0 0 1-.24-.636v-.264c0-.256.08-.464.24-.624.168-.168.432-.252.792-.252.36 0 .62.084.78.252.168.16.252.368.252.624v.264a.862.862 0 0 1-.252.636c-.16.16-.42.24-.78.24Zm5.102 7.116c-.464 0-.88-.076-1.248-.228a2.544 2.544 0 0 1-.924-.66 3.063 3.063 0 0 1-.576-1.044 4.31 4.31 0 0 1-.204-1.368c0-.504.068-.96.204-1.368.136-.408.328-.752.576-1.032.256-.288.564-.508.924-.66a3.243 3.243 0 0 1 1.248-.228c.464 0 .876.076 1.236.228.368.152.676.372.924.66.256.28.452.624.588 1.032.136.408.204.864.204 1.368 0 .504-.068.96-.204 1.368a2.956 2.956 0 0 1-.588 1.044 2.416 2.416 0 0 1-.924.66c-.36.152-.772.228-1.236.228Zm0-1.404c.352 0 .624-.108.816-.324.192-.216.288-.524.288-.924v-1.284c0-.4-.096-.708-.288-.924-.192-.216-.464-.324-.816-.324-.352 0-.624.108-.816.324-.192.216-.288.524-.288.924v1.284c0 .4.096.708.288.924.192.216.464.324.816.324Zm7.952-5.04h1.656l-2.424 7.272c-.16.488-.388.848-.684 1.08-.288.232-.704.348-1.248.348h-1.104v-1.38h1.188l.216-.696-2.208-6.624h1.764l.924 2.94.456 1.824h.072l.468-1.824.924-2.94Zm5.394 6.3v-6.3h1.776v1.068h.072c.112-.328.308-.612.588-.852.28-.24.668-.36 1.164-.36.648 0 1.136.216 1.464.648.336.432.504 1.048.504 1.848V27h-1.776v-3.804c0-.408-.064-.708-.192-.9-.128-.2-.356-.3-.684-.3-.144 0-.284.02-.42.06-.136.032-.26.088-.372.168a.918.918 0 0 0-.252.3.785.785 0 0 0-.096.396V27h-1.776Zm9.776.144c-.48 0-.908-.076-1.284-.228a2.817 2.817 0 0 1-.96-.66 2.956 2.956 0 0 1-.588-1.044 4.559 4.559 0 0 1-.192-1.368c0-.496.064-.944.192-1.344.128-.408.316-.756.564-1.044.256-.288.568-.508.936-.66.368-.16.788-.24 1.26-.24.52 0 .964.088 1.332.264.376.176.68.412.912.708.24.296.412.64.516 1.032.112.384.168.788.168 1.212v.528h-4.044v.096c0 .416.112.748.336.996.224.24.576.36 1.056.36.368 0 .668-.072.9-.216.232-.152.448-.332.648-.54l.888 1.104c-.28.328-.648.584-1.104.768-.448.184-.96.276-1.536.276Zm-.036-5.28c-.36 0-.644.12-.852.36-.2.232-.3.544-.3.936v.096h2.208v-.108c0-.384-.088-.692-.264-.924-.168-.24-.432-.36-.792-.36Zm3.488-1.164h1.716l.612 2.544.432 1.92h.048l.504-1.92.72-2.544h1.62l.732 2.544.516 1.92h.048l.432-1.92.612-2.544h1.644l-1.74 6.3h-1.86l-.768-2.664-.444-1.632h-.036l-.432 1.632-.768 2.664h-1.824l-1.764-6.3Zm13.526 0h1.776v1.056h.06c.088-.352.288-.64.6-.864.32-.224.684-.336 1.092-.336.8 0 1.404.28 1.812.84.408.56.612 1.376.612 2.448s-.204 1.892-.612 2.46c-.408.56-1.012.84-1.812.84-.208 0-.404-.032-.588-.096a1.83 1.83 0 0 1-.504-.24 1.878 1.878 0 0 1-.372-.384 1.649 1.649 0 0 1-.228-.48h-.06V29.4h-1.776v-8.7Zm2.94 5.004c.336 0 .612-.116.828-.348.224-.24.336-.56.336-.96v-1.092c0-.4-.112-.716-.336-.948a1.064 1.064 0 0 0-.828-.36c-.336 0-.616.084-.84.252a.788.788 0 0 0-.324.672v1.86a.82.82 0 0 0 .324.684c.224.16.504.24.84.24ZM340.026 27c-.608 0-1.056-.148-1.344-.444-.28-.296-.42-.724-.42-1.284V18.12h1.776v7.5h.792V27h-.804Zm6.524 0c-.32 0-.588-.1-.804-.3-.208-.2-.34-.468-.396-.804h-.072a1.48 1.48 0 0 1-.636.936c-.328.208-.732.312-1.212.312-.632 0-1.116-.168-1.452-.504-.336-.336-.504-.78-.504-1.332 0-.664.24-1.156.72-1.476.488-.328 1.148-.492 1.98-.492h.996v-.396c0-.304-.08-.544-.24-.72-.16-.184-.428-.276-.804-.276-.352 0-.632.076-.84.228-.208.152-.38.324-.516.516l-1.056-.936c.256-.376.576-.668.96-.876.392-.216.92-.324 1.584-.324.896 0 1.568.196 2.016.588.448.392.672.964.672 1.716v2.76h.588V27h-.984Zm-2.46-1.092c.296 0 .548-.064.756-.192.216-.128.324-.336.324-.624v-.744h-.864c-.696 0-1.044.236-1.044.708v.18c0 .232.072.404.216.516.144.104.348.156.612.156ZM350.864 27c-.616 0-1.084-.156-1.404-.468-.312-.312-.468-.768-.468-1.368V22.08h-.888V20.7h.444c.24 0 .404-.056.492-.168.088-.12.132-.288.132-.504v-1.032h1.596V20.7h1.248v1.38h-1.248v3.54h1.152V27h-1.056Zm2.698-4.92h-.888V20.7h.888v-.744c0-.608.16-1.064.48-1.368.32-.312.788-.468 1.404-.468h1.152v1.38h-1.26v1.2h1.26v1.38h-1.26V27h-1.776v-4.92Zm6.533 5.064c-.464 0-.88-.076-1.248-.228a2.544 2.544 0 0 1-.924-.66 3.063 3.063 0 0 1-.576-1.044 4.31 4.31 0 0 1-.204-1.368c0-.504.068-.96.204-1.368.136-.408.328-.752.576-1.032.256-.288.564-.508.924-.66a3.243 3.243 0 0 1 1.248-.228c.464 0 .876.076 1.236.228.368.152.676.372.924.66.256.28.452.624.588 1.032.136.408.204.864.204 1.368 0 .504-.068.96-.204 1.368a2.956 2.956 0 0 1-.588 1.044 2.416 2.416 0 0 1-.924.66c-.36.152-.772.228-1.236.228Zm0-1.404c.352 0 .624-.108.816-.324.192-.216.288-.524.288-.924v-1.284c0-.4-.096-.708-.288-.924-.192-.216-.464-.324-.816-.324-.352 0-.624.108-.816.324-.192.216-.288.524-.288.924v1.284c0 .4.096.708.288.924.192.216.464.324.816.324Zm4.217 1.26v-6.3h1.776v1.368h.06c.032-.176.088-.344.168-.504.08-.168.184-.316.312-.444.136-.128.296-.228.48-.3.184-.08.4-.12.648-.12h.312v1.656h-.444c-.52 0-.908.068-1.164.204-.248.136-.372.388-.372.756V27h-1.776Zm4.852 0v-6.3h1.776v1.068h.072c.112-.336.304-.62.576-.852.272-.24.644-.36 1.116-.36.432 0 .8.108 1.104.324.304.216.524.532.66.948h.036a1.687 1.687 0 0 1 .684-.9c.168-.112.356-.2.564-.264a2.04 2.04 0 0 1 .672-.108c.608 0 1.072.216 1.392.648.328.432.492 1.048.492 1.848V27h-1.776v-3.804c0-.8-.288-1.2-.864-1.2-.264 0-.504.076-.72.228-.216.152-.324.384-.324.696V27h-1.776v-3.804c0-.8-.288-1.2-.864-1.2-.128 0-.256.02-.384.06a.948.948 0 0 0-.336.168.993.993 0 0 0-.24.3.876.876 0 0 0-.084.396V27h-1.776Zm12.859.144c-.608 0-1.12-.096-1.536-.288-.416-.2-.788-.48-1.116-.84l1.044-1.056c.224.248.472.444.744.588.272.144.58.216.924.216.352 0 .596-.052.732-.156a.547.547 0 0 0 .204-.444c0-.296-.212-.472-.636-.528l-.684-.084c-1.416-.176-2.124-.824-2.124-1.944 0-.304.056-.58.168-.828.12-.256.284-.472.492-.648a2.23 2.23 0 0 1 .768-.42 3.138 3.138 0 0 1 1.02-.156c.328 0 .616.024.864.072.256.04.48.104.672.192.2.08.38.184.54.312.168.12.332.256.492.408l-1.02 1.044c-.2-.2-.428-.356-.684-.468a1.744 1.744 0 0 0-.768-.18c-.304 0-.52.048-.648.144a.456.456 0 0 0-.192.384c0 .168.044.3.132.396.096.088.272.152.528.192l.708.096c1.384.184 2.076.816 2.076 1.896 0 .304-.064.584-.192.84s-.312.48-.552.672a2.587 2.587 0 0 1-.852.432 3.644 3.644 0 0 1-1.104.156Zm8.954-.144c-.616 0-1.084-.156-1.404-.468-.312-.312-.468-.768-.468-1.368V22.08h-.888V20.7h.444c.24 0 .404-.056.492-.168.088-.12.132-.288.132-.504v-1.032h1.596V20.7h1.248v1.38h-1.248v3.54h1.152V27h-1.056Zm4.895.144c-.464 0-.88-.076-1.248-.228a2.544 2.544 0 0 1-.924-.66 3.063 3.063 0 0 1-.576-1.044 4.31 4.31 0 0 1-.204-1.368c0-.504.068-.96.204-1.368.136-.408.328-.752.576-1.032.256-.288.564-.508.924-.66a3.243 3.243 0 0 1 1.248-.228c.464 0 .876.076 1.236.228.368.152.676.372.924.66.256.28.452.624.588 1.032.136.408.204.864.204 1.368 0 .504-.068.96-.204 1.368a2.956 2.956 0 0 1-.588 1.044 2.416 2.416 0 0 1-.924.66c-.36.152-.772.228-1.236.228Zm0-1.404c.352 0 .624-.108.816-.324.192-.216.288-.524.288-.924v-1.284c0-.4-.096-.708-.288-.924-.192-.216-.464-.324-.816-.324-.352 0-.624.108-.816.324-.192.216-.288.524-.288.924v1.284c0 .4.096.708.288.924.192.216.464.324.816.324Zm6.774 1.404c-.464 0-.88-.076-1.248-.228a2.544 2.544 0 0 1-.924-.66 3.063 3.063 0 0 1-.576-1.044 4.31 4.31 0 0 1-.204-1.368c0-.504.068-.96.204-1.368.136-.408.328-.752.576-1.032.256-.288.564-.508.924-.66a3.243 3.243 0 0 1 1.248-.228c.464 0 .876.076 1.236.228.368.152.676.372.924.66.256.28.452.624.588 1.032.136.408.204.864.204 1.368 0 .504-.068.96-.204 1.368a2.956 2.956 0 0 1-.588 1.044 2.416 2.416 0 0 1-.924.66c-.36.152-.772.228-1.236.228Zm0-1.404c.352 0 .624-.108.816-.324.192-.216.288-.524.288-.924v-1.284c0-.4-.096-.708-.288-.924-.192-.216-.464-.324-.816-.324-.352 0-.624.108-.816.324-.192.216-.288.524-.288.924v1.284c0 .4.096.708.288.924.192.216.464.324.816.324Z" fill="#333"/></g><defs><clipPath id="a"><path fill="#fff" d="M0 0h565v52H0z"/></clipPath></defs></svg>