<svg width="138" height="32" fill="none" xmlns="http://www.w3.org/2000/svg"><g clip-path="url(#a)"><path d="M27.422 4.683A16 16 0 1 0 4.798 27.312a16 16 0 0 0 22.624-22.63Z" fill="#fff"/><path d="M11.652 20.203a2.92 2.92 0 0 0 1.34 2l-.31-.57s.59-1.54-1.03-1.43Z" fill="#293052"/><path d="M26.612 5.493a14.86 14.86 0 1 0 0 21 14.87 14.87 0 0 0 0-21Zm-1.5 19.51-.49.46c-3.57 2.91-6.32 1.46-6.35 1.46-1.86-.37-2.79-.38-3.31-.73-.13-.09-.55-.31-.65-.26a1.19 1.19 0 0 1-1.44-.09l-.13-.12a1 1 0 0 1-.19-1.41c.14-.14-.1-.53-.1-.53s-.7-1-1.18-1.66a4.651 4.651 0 0 1-.6-2.07 5.53 5.53 0 0 1-.77-1.13 2.942 2.942 0 0 0-.41-.5 2.627 2.627 0 0 1-.25-.27.11.11 0 0 1 0-.09 3 3 0 0 1 .82-1l.89-.55a1.441 1.441 0 0 1 1.1-.64 5.26 5.26 0 0 1 2.08.32l.45.14c.75.24 1.41.52 1.94.75.35.164.712.304 1.08.42a4.45 4.45 0 0 0 2.91-.82c.57-.52.81-.86.81-1.14a.64.64 0 0 0-.23-.47c-.08-.08-.19-.22-.33-.36l-.07-.07c-1.57-1.67-1.3-2.72-1.3-2.73a2.2 2.2 0 0 0-.82-1.73l-.2-.24c.799.223 1.61.397 2.43.52.363.063.733.084 1.1.06.82 0 1.46-.1 1.51-.28a11.262 11.262 0 0 1-2.18-.64c-.8-.31-.93-.35-1.44-.52-.51-.17-1.37-.53-1.37-.53 2.83.74 3.76 1 5.05 1.05a4.06 4.06 0 0 0 1-.09c.18 0 .76-.16.82-.36a4.62 4.62 0 0 1-1.6-.25c-3.32-1.09-3.58-1.63-5.43-2.35a16.387 16.387 0 0 0-2.78-.88 5.36 5.36 0 0 0-2.4 0c-2.5-.59-3.07-.52-3.81-.37a12.7 12.7 0 0 1 15.84 1.7c.575.573 1.094 1.2 1.55 1.87l.06.09a12.69 12.69 0 0 1-1.61 16.04Zm-8.35-14.35a2.91 2.91 0 0 1 1.64 1.77c-1.58.36-1.25-1.25-1.25-1.25l-.39-.52Z" fill="#293052"/><path d="M106.811 14.1c-.335.34-.716.633-1.13.87a2.85 2.85 0 0 1-2.46.09 2.808 2.808 0 0 1-.88-.64 2.903 2.903 0 0 1-.58-1 3.437 3.437 0 0 1-.2-1.18 3.348 3.348 0 0 1 .2-1.16 3.01 3.01 0 0 1 .56-1c.239-.267.527-.485.85-.64a2.452 2.452 0 0 1 1.07-.23 2.68 2.68 0 0 1 1.37.32c.401.24.767.533 1.09.87l.16.17 1.73-1.86-.14-.15a5.847 5.847 0 0 0-1.72-1.31 5.65 5.65 0 0 0-6.39 1.12 5.433 5.433 0 0 0-1.14 1.75 5.59 5.59 0 0 0-.41 2.11 5.54 5.54 0 0 0 .41 2.11c.264.646.65 1.233 1.14 1.73a5.454 5.454 0 0 0 3.9 1.59 5.249 5.249 0 0 0 2.53-.55 6.592 6.592 0 0 0 1.76-1.41l.14-.16-1.7-1.67-.16.23Zm12.3-5.71a5.397 5.397 0 0 0-1.77-1.17 5.728 5.728 0 0 0-2.23-.43 5.662 5.662 0 0 0-2.23.44 5.481 5.481 0 0 0-2.94 2.92 5.375 5.375 0 0 0-.43 2.13 5.476 5.476 0 0 0 .42 2.11c.271.66.672 1.259 1.18 1.76.51.497 1.111.89 1.77 1.16a5.95 5.95 0 0 0 4.45 0 5.44 5.44 0 0 0 2.95-2.92 5.26 5.26 0 0 0 .43-2.11 5.35 5.35 0 0 0-1.6-3.89Zm-4 6.91a2.683 2.683 0 0 1-1.13-.24 2.852 2.852 0 0 1-.9-.65 3.151 3.151 0 0 1-.59-1 3.225 3.225 0 0 1-.21-1.17c0-.399.068-.794.2-1.17.121-.348.312-.668.56-.94.252-.27.554-.488.89-.64a2.91 2.91 0 0 1 2.3 0c.34.155.646.376.9.65.26.292.46.631.59 1 .142.377.213.777.21 1.18.004.395-.06.787-.19 1.16-.124.35-.314.672-.56.95a2.814 2.814 0 0 1-.88.64 2.779 2.779 0 0 1-1.19.23Zm21.83-7.44a3.626 3.626 0 0 0-2.76-1.07 4.06 4.06 0 0 0-2.09.52c-.491.293-.93.664-1.3 1.1a3.393 3.393 0 0 0-1.07-1.09 3.49 3.49 0 0 0-2-.53 3.696 3.696 0 0 0-1.1.16 3.308 3.308 0 0 0-.89.42 4.024 4.024 0 0 0-.62.63l-.15.17V7h-2.77v10.51h2.77v-5.87a2.49 2.49 0 0 1 .53-1.7 1.755 1.755 0 0 1 1.39-.59 1.643 1.643 0 0 1 1.33.55 2.52 2.52 0 0 1 .48 1.67v6h2.77v-5.95a2.41 2.41 0 0 1 .54-1.7 1.793 1.793 0 0 1 1.39-.57 1.643 1.643 0 0 1 1.33.55c.354.49.524 1.088.48 1.69v5.93h2.77v-6.66a4.237 4.237 0 0 0-1.03-3Zm-39.47 8.35a1.53 1.53 0 1 0-3.06 0 1.53 1.53 0 0 0 3.06 0Z" fill="#E78024"/><path d="M59.621 6.79a3.78 3.78 0 0 0-1.12.16 3.801 3.801 0 0 0-1.64 1.02l-.16.18V7h-2.77v10.51h2.77v-5.89a2.36 2.36 0 0 1 .56-1.68 1.91 1.91 0 0 1 1.47-.59 1.75 1.75 0 0 1 1.38.56 2.48 2.48 0 0 1 .5 1.67v5.93h2.77v-6.63a4.32 4.32 0 0 0-1-3 3.57 3.57 0 0 0-2.76-1.09Zm10.21.07a8.76 8.76 0 0 0-2.17.23c-.6.157-1.185.364-1.75.62l-.18.09.77 2.26.21-.06c.43-.18.87-.33 1.32-.45a6 6 0 0 1 1.47-.16 2.53 2.53 0 0 1 1.69.5 1.72 1.72 0 0 1 .56 1.33 9.862 9.862 0 0 0-1-.23 9.233 9.233 0 0 0-1.59-.12 6.545 6.545 0 0 0-1.69.21c-.489.118-.95.328-1.36.62a3.07 3.07 0 0 0-.91 1.11 3.51 3.51 0 0 0-.33 1.56 3.16 3.16 0 0 0 .32 1.44c.206.39.492.73.84 1 .36.285.77.499 1.21.63.467.141.952.212 1.44.21a4.378 4.378 0 0 0 2-.44 4.86 4.86 0 0 0 1-.68v.92h2.73v-6.11A4.53 4.53 0 0 0 73.321 8a4.69 4.69 0 0 0-3.49-1.14Zm-.48 8.7a2.21 2.21 0 0 1-1.24-.34 1 1 0 0 1-.46-.92 1.1 1.1 0 0 1 .51-1 2.78 2.78 0 0 1 1.57-.38 6.676 6.676 0 0 1 2.09.33v.42a1.68 1.68 0 0 1-.17.77 1.81 1.81 0 0 1-.54.56 2.62 2.62 0 0 1-.78.4 3.359 3.359 0 0 1-.98.16Zm19.39-1.51L86.031 7h-2.92l4.29 10.29a2 2 0 0 1-.51.74 1.09 1.09 0 0 1-.69.2 2.149 2.149 0 0 1-.63-.1 3.685 3.685 0 0 1-.62-.26l-.21-.11-1 2.12.18.1a5.72 5.72 0 0 0 1.14.47c.44.118.894.175 1.35.17.39.005.777-.049 1.15-.16a2.92 2.92 0 0 0 1-.53 3.72 3.72 0 0 0 .77-.92c.254-.43.472-.883.65-1.35L94.111 7h-2.91l-2.46 7.05ZM49.681 7h2.77v10.52h-2.77V7Zm2.92-2.46a1.53 1.53 0 1 0-3.06 0 1.53 1.53 0 0 0 3.06 0Zm-5.21 6.55a4.004 4.004 0 0 0-.92-.73 7.291 7.291 0 0 0-.71-.35l-.16-.06.14-.09.37-.26a3.31 3.31 0 0 0 .68-.69 3.44 3.44 0 0 0 .45-.91c.127-.387.187-.793.18-1.2a3.35 3.35 0 0 0-1-2.46A5.17 5.17 0 0 0 42.611 3h-6.5v14.51h6.7a8.599 8.599 0 0 0 2.19-.26 5.228 5.228 0 0 0 1.71-.76 3.56 3.56 0 0 0 1.11-1.27 3.84 3.84 0 0 0 .39-1.75 3.78 3.78 0 0 0-.21-1.33 3 3 0 0 0-.61-1.05Zm-8.53-5.58h3.44a2.92 2.92 0 0 1 1.81.49 1.41 1.41 0 0 1 .58 1.21 1.46 1.46 0 0 1-.66 1.33 3.35 3.35 0 0 1-1.92.46h-3.25V5.51Zm6.57 7.69a1.49 1.49 0 0 1-.67 1.34 3.45 3.45 0 0 1-1.92.46h-4v-3.6h3.8a3.78 3.78 0 0 1 2.11.47 1.47 1.47 0 0 1 .66 1.29l.02.04Zm36.68-6.4a3.46 3.46 0 0 0-2.36.68 4.33 4.33 0 0 0-1 1.1V7h-2.8v10.51h2.77v-4.05a5.35 5.35 0 0 1 .24-1.68 3.2 3.2 0 0 1 .66-1.17 2.73 2.73 0 0 1 1-.69 3.56 3.56 0 0 1 1.31-.23h.34V6.81l-.16-.01ZM36.891 29l1-4.94h-1.78l.13-.64h4.37l-.13.64h-1.81l-1 4.94h-.78Zm2.67 0 .84-4h.61l-.17.83a2.81 2.81 0 0 1 .61-.69 1 1 0 0 1 .61-.22 1.2 1.2 0 0 1 .51.15l-.28.64a.65.65 0 0 0-.39-.13 1.06 1.06 0 0 0-.74.4 3.06 3.06 0 0 0-.6 1.45l-.35 1.57h-.65Zm5.35-.77a2 2 0 0 1-1.49.82 1.06 1.06 0 0 1-.75-.27.86.86 0 0 1-.29-.66 5.02 5.02 0 0 1 .13-.87l.49-2.33h.69l-.58 2.59a2.604 2.604 0 0 0 0 .49.459.459 0 0 0 .14.36.59.59 0 0 0 .41.13 1.23 1.23 0 0 0 .56-.14 1.5 1.5 0 0 0 .48-.38c.14-.17.252-.363.33-.57.082-.238.145-.482.19-.73l.37-1.75h.69l-.84 4h-.64l.11-.69Zm1.64-.65h.69a1.26 1.26 0 0 0 .09.51.72.72 0 0 0 .34.34c.176.09.372.135.57.13.24.018.48-.046.68-.18a.54.54 0 0 0 .23-.43.51.51 0 0 0-.14-.34 2.159 2.159 0 0 0-.69-.39 6.55 6.55 0 0 1-.7-.33 1.131 1.131 0 0 1-.38-.37.911.911 0 0 1-.13-.52 1.07 1.07 0 0 1 .38-.82 1.54 1.54 0 0 1 1.06-.34 1.7 1.7 0 0 1 1.16.35 1.22 1.22 0 0 1 .41.93h-.67a.77.77 0 0 0-.26-.58 1 1 0 0 0-.69-.21.85.85 0 0 0-.56.16.46.46 0 0 0-.2.35.43.43 0 0 0 .17.33 2.9 2.9 0 0 0 .59.3 4 4 0 0 1 1 .54.998.998 0 0 1 .33.77 1.08 1.08 0 0 1-.18.59 1.27 1.27 0 0 1-.56.46 2.13 2.13 0 0 1-.89.17 2 2 0 0 1-1.19-.35 1.23 1.23 0 0 1-.46-1.07Zm5.44.83-.11.56c-.157.04-.318.06-.48.06a1 1 0 0 1-.65-.2.511.511 0 0 1-.18-.41c.018-.205.052-.41.1-.61l.44-2.35h-.54l.11-.53h.54l.21-1 .79-.48-.31 1.47h.68l-.11.53h-.67l-.47 2.23c-.04.168-.07.338-.09.51a.24.24 0 0 0 .07.19.33.33 0 0 0 .23.06c.148.01.295 0 .44-.03Zm3.52-.82.67.07a2 2 0 0 1-.66.95 1.83 1.83 0 0 1-1.24.45 1.67 1.67 0 0 1-.82-.21 1.36 1.36 0 0 1-.57-.6 2 2 0 0 1-.2-.9 2.87 2.87 0 0 1 .31-1.28 2.19 2.19 0 0 1 .79-.92 2 2 0 0 1 1.05-.3 1.53 1.53 0 0 1 1.15.45 1.69 1.69 0 0 1 .43 1.22c0 .204-.016.409-.05.61h-3c-.004.07-.004.14 0 .21-.023.312.07.622.26.87a.81.81 0 0 0 .64.3 1.23 1.23 0 0 0 .7-.23 1.51 1.51 0 0 0 .54-.69Zm-2-1h2.27v-.15a1.12 1.12 0 0 0-.26-.79.87.87 0 0 0-.67-.28 1.22 1.22 0 0 0-.8.3 1.82 1.82 0 0 0-.54.92Zm6.09 1.79a1.66 1.66 0 0 1-1.23.68 1.23 1.23 0 0 1-1-.42 1.78 1.78 0 0 1-.38-1.23 3 3 0 0 1 .3-1.35 2.29 2.29 0 0 1 .76-.91 1.63 1.63 0 0 1 .91-.3 1.22 1.22 0 0 1 1.14.73l.46-2.17h.68L60.111 29h-.64l.13-.62Zm-1.89-1.11c-.01.226.018.453.08.67a.87.87 0 0 0 .29.4.75.75 0 0 0 .48.16 1.08 1.08 0 0 0 .85-.5 2.5 2.5 0 0 0 .51-1.6 1.06 1.06 0 0 0-.25-.75.83.83 0 0 0-.63-.27.929.929 0 0 0-.45.11 1.32 1.32 0 0 0-.4.37c-.148.204-.263.43-.34.67a2.279 2.279 0 0 0-.14.74Zm5.66 1.73 1.16-5.57h.69l-.41 2a2.44 2.44 0 0 1 .59-.42 1.3 1.3 0 0 1 .56-.12 1.219 1.219 0 0 1 .94.42c.276.348.411.787.38 1.23a3 3 0 0 1-.15 1 2.732 2.732 0 0 1-.38.75 2.36 2.36 0 0 1-.46.48 1.842 1.842 0 0 1-.49.27 1.441 1.441 0 0 1-.48.09 1.2 1.2 0 0 1-.7-.21 1.37 1.37 0 0 1-.51-.72l-.16.76-.58.04Zm1-1.66v.13c-.02.286.07.568.25.79a.8.8 0 0 0 .62.27 1 1 0 0 0 .66-.25 1.8 1.8 0 0 0 .5-.79 2.93 2.93 0 0 0 .19-1 1.17 1.17 0 0 0-.25-.79.77.77 0 0 0-.61-.28 1 1 0 0 0-.68.29 2.16 2.16 0 0 0-.52.88 2.34 2.34 0 0 0-.14.72l-.02.03Zm3.07 3.18v-.65c.133.039.271.059.41.06a.56.56 0 0 0 .34-.1 1.58 1.58 0 0 0 .37-.47l.22-.4-.67-4h.68l.3 2c.06.4.113.803.16 1.21l1.86-3.24h.72l-2.59 4.57a2.92 2.92 0 0 1-.66.89 1.08 1.08 0 0 1-.67.22 1.412 1.412 0 0 1-.47-.09Zm7.93-2.11-.11.56c-.157.04-.318.06-.48.06a1 1 0 0 1-.65-.2.511.511 0 0 1-.18-.41c.018-.205.052-.41.1-.61l.49-2.35h-.54l.11-.53h.54l.21-1 .79-.48-.31 1.47h.68l-.11.53h-.7l-.47 2.23c-.04.168-.07.338-.09.51a.24.24 0 0 0 .07.19.33.33 0 0 0 .23.06c.14.008.282-.002.42-.03Zm.55.59.84-4h.61l-.17.83a2.81 2.81 0 0 1 .61-.69 1 1 0 0 1 .61-.22 1.2 1.2 0 0 1 .51.15l-.28.64a.65.65 0 0 0-.39-.13 1.06 1.06 0 0 0-.74.4 3.06 3.06 0 0 0-.6 1.45l-.34 1.57h-.66Zm5.32-.54a2.74 2.74 0 0 1-.69.45 1.772 1.772 0 0 1-.71.14 1.251 1.251 0 0 1-.9-.33 1.118 1.118 0 0 1-.34-.84 1.15 1.15 0 0 1 .56-1.02 1.8 1.8 0 0 1 .62-.23 7.02 7.02 0 0 1 .88-.07c.315 0 .629-.047.93-.14a1.74 1.74 0 0 0 .08-.47.45.45 0 0 0-.17-.38 1.11 1.11 0 0 0-.7-.19 1.21 1.21 0 0 0-.71.19 1.08 1.08 0 0 0-.4.55l-.7-.06c.12-.37.354-.693.67-.92a2 2 0 0 1 1.17-.32 1.82 1.82 0 0 1 1.19.36.84.84 0 0 1 .33.69c-.006.253-.04.504-.1.75l-.22 1a3.76 3.76 0 0 0-.11.78c.007.186.034.37.08.55h-.7a2.534 2.534 0 0 1-.06-.49Zm.25-1.54c-.1.04-.204.07-.31.09l-.55.06a4.24 4.24 0 0 0-.85.13.71.71 0 0 0-.37.26.67.67 0 0 0-.13.4.62.62 0 0 0 .2.48.8.8 0 0 0 .57.19 1.34 1.34 0 0 0 1.16-.68 2.93 2.93 0 0 0 .28-.93Zm4.08 1.46a1.66 1.66 0 0 1-1.23.68 1.23 1.23 0 0 1-1-.42 1.78 1.78 0 0 1-.38-1.23 3 3 0 0 1 .3-1.35 2.29 2.29 0 0 1 .76-.91 1.63 1.63 0 0 1 .91-.3 1.22 1.22 0 0 1 1.14.73l.46-2.17h.68l-1.1 5.59h-.64l.1-.62Zm-1.89-1.11c-.01.226.018.453.08.67a.87.87 0 0 0 .29.4.75.75 0 0 0 .48.16 1.082 1.082 0 0 0 .85-.49 2.5 2.5 0 0 0 .51-1.6 1.06 1.06 0 0 0-.25-.75.83.83 0 0 0-.63-.27.929.929 0 0 0-.45.11 1.31 1.31 0 0 0-.4.37c-.148.204-.263.43-.34.67a2.3 2.3 0 0 0-.14.73Zm6.43.32.67.07a2 2 0 0 1-.66.95 1.83 1.83 0 0 1-1.24.45 1.67 1.67 0 0 1-.82-.21 1.36 1.36 0 0 1-.57-.6 2 2 0 0 1-.2-.9 2.87 2.87 0 0 1 .31-1.28 2.19 2.19 0 0 1 .79-.92 2 2 0 0 1 1.05-.3 1.53 1.53 0 0 1 1.15.45 1.689 1.689 0 0 1 .52 1.21c0 .204-.016.409-.05.61h-3c-.004.07-.004.14 0 .21-.023.312.07.622.26.87a.81.81 0 0 0 .64.3 1.23 1.23 0 0 0 .7-.23 1.51 1.51 0 0 0 .45-.68Zm-2-1h2.3v-.15a1.12 1.12 0 0 0-.26-.79.87.87 0 0 0-.67-.28 1.22 1.22 0 0 0-.8.3 1.82 1.82 0 0 0-.57.92Zm3.4 2.41.84-4h.61l-.17.83a2.81 2.81 0 0 1 .61-.69 1 1 0 0 1 .61-.22 1.2 1.2 0 0 1 .51.15l-.28.64a.65.65 0 0 0-.39-.13 1.06 1.06 0 0 0-.74.4 3.06 3.06 0 0 0-.6 1.45l-.35 1.57h-.65Zm2.66-1.42h.69a1.26 1.26 0 0 0 .09.51.72.72 0 0 0 .34.34c.176.09.372.135.57.13.24.018.48-.046.68-.18a.54.54 0 0 0 .23-.43.51.51 0 0 0-.14-.34 2.159 2.159 0 0 0-.69-.39 6.55 6.55 0 0 1-.7-.33 1.131 1.131 0 0 1-.38-.37.91.91 0 0 1-.13-.48 1.07 1.07 0 0 1 .38-.82 1.54 1.54 0 0 1 1.06-.34 1.7 1.7 0 0 1 1.16.35 1.22 1.22 0 0 1 .41.93h-.67a.77.77 0 0 0-.26-.58 1 1 0 0 0-.69-.21.85.85 0 0 0-.56.16.46.46 0 0 0-.2.35.43.43 0 0 0 .17.33c.184.122.382.223.59.3a4 4 0 0 1 1 .54.998.998 0 0 1 .33.77 1.08 1.08 0 0 1-.18.59 1.27 1.27 0 0 1-.56.46 2.13 2.13 0 0 1-.89.17 2 2 0 0 1-1.19-.35 1.231 1.231 0 0 1-.46-1.11Zm6.06 0h.69c-.006.175.025.348.09.51a.72.72 0 0 0 .34.34c.176.09.372.135.57.13.241.018.48-.046.68-.18a.543.543 0 0 0 .23-.43.513.513 0 0 0-.14-.34 2.16 2.16 0 0 0-.69-.39 6.55 6.55 0 0 1-.7-.33 1.137 1.137 0 0 1-.38-.37.911.911 0 0 1-.13-.48 1.079 1.079 0 0 1 .38-.82 1.541 1.541 0 0 1 1.06-.34c.417-.03.83.095 1.16.35a1.227 1.227 0 0 1 .41.93h-.67a.758.758 0 0 0-.26-.58 1 1 0 0 0-.69-.21.85.85 0 0 0-.56.16.462.462 0 0 0-.2.35.424.424 0 0 0 .17.33 2.9 2.9 0 0 0 .59.3c.357.132.694.313 1 .54a.993.993 0 0 1 .33.77c-.001.21-.064.415-.18.59a1.272 1.272 0 0 1-.56.46 2.13 2.13 0 0 1-.89.17 2 2 0 0 1-1.19-.35 1.237 1.237 0 0 1-.46-1.11Zm3.8 1.42.84-4h.69l-.84 4h-.69Zm1-4.8.16-.78h.68l-.16.78h-.68Zm.76 4.8.84-4h.62l-.15.7a3.32 3.32 0 0 1 .76-.6c.22-.122.468-.188.72-.19a1.07 1.07 0 0 1 .77.27.932.932 0 0 1 .28.71c-.012.24-.045.477-.1.71l-.5 2.4h-.69l.54-2.56c.044-.18.071-.364.08-.55a.415.415 0 0 0-.14-.33.579.579 0 0 0-.4-.13 1.35 1.35 0 0 0-.94.38 2.43 2.43 0 0 0-.61 1.3l-.4 1.89h-.68Zm7.11-1.51.69.07a2.31 2.31 0 0 1-.74 1.12 1.73 1.73 0 0 1-1.09.37 1.413 1.413 0 0 1-1.07-.43 1.652 1.652 0 0 1-.41-1.19c.001-.446.089-.888.26-1.3a2.1 2.1 0 0 1 .75-1 1.942 1.942 0 0 1 1.12-.33 1.42 1.42 0 0 1 1 .37 1.297 1.297 0 0 1 .38 1h-.68a.822.822 0 0 0-.22-.6.773.773 0 0 0-.58-.22 1.07 1.07 0 0 0-.72.26c-.23.218-.396.495-.48.8-.107.323-.165.66-.17 1-.022.28.06.557.23.78a.719.719 0 0 0 .56.26 1 1 0 0 0 .64-.25c.237-.184.421-.43.53-.71Zm4.08.1.67.07a2.002 2.002 0 0 1-.66.95 1.83 1.83 0 0 1-1.24.45 1.67 1.67 0 0 1-.82-.21 1.358 1.358 0 0 1-.57-.6 2.002 2.002 0 0 1-.2-.9c.003-.445.109-.883.31-1.28a2.19 2.19 0 0 1 .79-.92c.315-.195.679-.3 1.05-.3a1.531 1.531 0 0 1 1.15.45 1.68 1.68 0 0 1 .43 1.22c.001.204-.016.409-.05.61h-3c-.004.07-.004.14 0 .21-.022.312.07.622.26.87a.81.81 0 0 0 .64.3 1.23 1.23 0 0 0 .7-.23c.244-.172.432-.412.54-.69Zm-2-1h2.27v-.15a1.119 1.119 0 0 0-.26-.79.876.876 0 0 0-.67-.28 1.22 1.22 0 0 0-.8.3 1.818 1.818 0 0 0-.54.92Zm5.72 2.41c.055-.29.153-.569.29-.83.135-.237.303-.452.5-.64.207-.2.607-.533 1.2-1 .259-.199.506-.413.74-.64.168-.169.307-.365.41-.58a.997.997 0 0 0 .023-.773.893.893 0 0 0-.203-.297.907.907 0 0 0-.67-.27 1 1 0 0 0-.68.27 1.61 1.61 0 0 0-.42.87l-.67-.1c.043-.448.249-.865.58-1.17a1.71 1.71 0 0 1 1.19-.43c.299-.003.594.065.86.2.247.122.449.318.58.56.125.227.19.481.19.74a1.726 1.726 0 0 1-.4 1.07c-.437.462-.916.884-1.43 1.26a7.95 7.95 0 0 0-.76.66 2.387 2.387 0 0 0-.37.49h2.49l-.13.63-3.32-.02Zm4.41-1.86c.018-.908.251-1.8.68-2.6.144-.253.327-.482.54-.68a2.09 2.09 0 0 1 .55-.36c.19-.081.394-.122.6-.12a1.38 1.38 0 0 1 1.07.48 2 2 0 0 1 .43 1.37 5.838 5.838 0 0 1-.3 1.83 3.482 3.482 0 0 1-1 1.61 1.64 1.64 0 0 1-1.09.41 1.357 1.357 0 0 1-1.06-.49 2.108 2.108 0 0 1-.42-1.45Zm.67.17c-.014.277.044.553.17.8a.747.747 0 0 0 .69.4.997.997 0 0 0 .73-.36c.358-.429.603-.941.71-1.49a7.127 7.127 0 0 0 .24-1.61 1.319 1.319 0 0 0-.23-.87.755.755 0 0 0-.61-.27 1 1 0 0 0-.51.14 1.44 1.44 0 0 0-.45.48 4.88 4.88 0 0 0-.54 1.45 6.09 6.09 0 0 0-.18 1.33h-.02Zm3.68-.17c.018-.908.251-1.8.68-2.6.144-.253.327-.482.54-.68a2.09 2.09 0 0 1 .55-.36c.19-.081.394-.122.6-.12a1.38 1.38 0 0 1 1.07.48 2 2 0 0 1 .43 1.37 5.838 5.838 0 0 1-.3 1.83 3.482 3.482 0 0 1-1 1.61 1.64 1.64 0 0 1-1.09.41 1.357 1.357 0 0 1-1.06-.49 2.113 2.113 0 0 1-.42-1.45Zm.67.17c-.014.277.044.553.17.8a.747.747 0 0 0 .69.4.997.997 0 0 0 .73-.36c.358-.429.603-.941.71-1.49a7.127 7.127 0 0 0 .24-1.61 1.319 1.319 0 0 0-.23-.87.755.755 0 0 0-.61-.27 1 1 0 0 0-.51.14 1.44 1.44 0 0 0-.45.48 4.88 4.88 0 0 0-.54 1.45 6.12 6.12 0 0 0-.22 1.33h.02Zm3.66-.17c.018-.908.251-1.8.68-2.6.144-.253.327-.482.54-.68a2.09 2.09 0 0 1 .55-.36c.19-.081.394-.122.6-.12a1.38 1.38 0 0 1 1.07.48 2 2 0 0 1 .43 1.37 5.838 5.838 0 0 1-.3 1.83 3.482 3.482 0 0 1-1 1.61 1.64 1.64 0 0 1-1.09.41 1.357 1.357 0 0 1-1.06-.49 2.108 2.108 0 0 1-.42-1.45Zm.67.17c-.014.277.044.553.17.8a.747.747 0 0 0 .69.4.997.997 0 0 0 .73-.36c.358-.429.603-.941.71-1.49a7.127 7.127 0 0 0 .24-1.61 1.319 1.319 0 0 0-.23-.87.755.755 0 0 0-.61-.27 1 1 0 0 0-.51.14 1.44 1.44 0 0 0-.45.48 4.88 4.88 0 0 0-.54 1.45 6.04 6.04 0 0 0-.2 1.33Z" fill="#fff"/></g><defs><clipPath id="a"><path fill="#fff" transform="translate(.111)" d="M0 0h137.778v32H0z"/></clipPath></defs></svg>