<svg width="48" height="48" fill="none" xmlns="http://www.w3.org/2000/svg"><path d="M39 0H9a9 9 0 0 0-9 9v30a9 9 0 0 0 9 9h30a9 9 0 0 0 9-9V9a9 9 0 0 0-9-9Z" fill="#6950A1"/><path d="M33 19.5H15v-3c0-.825.675-1.5 1.5-1.5h15c.825 0 1.5.675 1.5 1.5v3Zm0 12V21H15v10.5c0 .825.675 1.5 1.5 1.5h15c.825 0 1.5-.675 1.5-1.5Z" fill="#fff"/><path d="M30.75 27h-13.5a.75.75 0 0 0 0 1.5h13.5a.75.75 0 0 0 0-1.5Zm0-3h-13.5a.75.75 0 0 0 0 1.5h13.5a.75.75 0 0 0 0-1.5Zm-13.5-6a.75.75 0 1 0 0-1.5.75.75 0 0 0 0 1.5Zm3 0a.75.75 0 1 0 0-1.5.75.75 0 0 0 0 1.5Z" fill="#6950A1"/></svg>