<svg width="40" height="40" fill="none" xmlns="http://www.w3.org/2000/svg"><path d="M0 20C0 8.954 8.954 0 20 0s20 8.954 20 20-8.954 20-20 20S0 31.046 0 20Z" fill="#333"/><path d="M25.51 8.005 22.393 8c-3.503 0-5.767 2.318-5.767 5.906v2.724H13.49a.49.49 0 0 0-.49.49v3.945c0 .27.22.49.49.49h3.135v9.956c0 .27.22.489.49.489h4.091a.49.49 0 0 0 .49-.49v-9.956h3.666a.49.49 0 0 0 .49-.489l.002-3.946a.49.49 0 0 0-.49-.49h-3.668v-2.308c0-1.11.265-1.673 1.713-1.673h2.101c.27 0 .49-.22.49-.49V8.494a.49.49 0 0 0-.49-.489Z" fill="#fff"/></svg>