<svg width="48" height="48" fill="none" xmlns="http://www.w3.org/2000/svg"><path d="M39 0H9a9 9 0 0 0-9 9v30a9 9 0 0 0 9 9h30a9 9 0 0 0 9-9V9a9 9 0 0 0-9-9Z" fill="#51A090"/><path d="M27.75 25.5a5.25 5.25 0 1 0 0-10.5 5.25 5.25 0 0 0 0 10.5Zm-7.5 7.5a5.256 5.256 0 0 0 5.25-5.25c0-.42-.06-.825-.15-1.215a6.788 6.788 0 0 1-3.885-3.885c-.39-.09-.795-.15-1.215-.15A5.256 5.256 0 0 0 15 27.75 5.256 5.256 0 0 0 20.25 33Z" fill="#fff"/><path d="M22.26 28.77c0-.9-.51-1.38-1.59-1.545l-.51-.075c-.435-.06-.615-.195-.615-.555 0-.315.24-.51.75-.51.54 0 .87.195 1.125.495l.75-.765c-.33-.36-.765-.6-1.29-.69v-.66h-1.245v.705c-.78.21-1.23.765-1.23 1.485 0 .87.495 1.41 1.605 1.56l.51.075c.48.06.6.27.6.555 0 .375-.27.63-.825.63-.51 0-.96-.195-1.305-.6l-.75.75c.345.375.795.675 1.38.78v.66h1.245v-.675c.885-.195 1.38-.81 1.38-1.62h.015Zm6.45-8.625V20.1c.585-.03 1.065-.345 1.065-1.23s-.57-1.47-1.5-1.47h-.15v-.765H26.76v.765H25.5v5.715h1.26v.75h1.365v-.75h.405c.84 0 1.47-.735 1.47-1.635 0-.975-.75-1.335-1.29-1.335Zm-1.965-1.695h1.23c.33 0 .525.195.525.525v.24c0 .33-.195.525-.525.525h-1.23v-1.29Zm1.965 3.105c0 .33-.21.51-.525.51H26.76V20.76h1.425c.33 0 .525.195.525.51v.285Z" fill="#51A090"/></svg>