<svg width="328" height="113" fill="none" xmlns="http://www.w3.org/2000/svg"><g clip-path="url(#a)"><path d="M77.966 48.207H30.874c-.483 0-.874-.37-.874-.826v-7.717c0-4.454 3.818-8.064 8.527-8.064h39.44c.482 0 .873.37.873.826v14.988c0 .456-.391.826-.874.826v-.033Z" fill="#35A8E0"/><path fill-rule="evenodd" clip-rule="evenodd" d="M31.033 48.24h46.774c.57 0 1.033-.432 1.033-.965v-14.71c0-.533-.462-.965-1.033-.965H38.678C33.885 31.6 30 35.229 30 39.705v7.57c0 .533.462.965 1.033.965Zm-.643-8.527c.005-4.264 3.705-7.72 8.27-7.724l39.147-.008c.168 0 .33.062.448.173a.573.573 0 0 1 .186.419v14.71a.572.572 0 0 1-.186.419.657.657 0 0 1-.448.173H31.024c-.35 0-.634-.265-.634-.591v-7.57Z" fill="#fff"/><path fill-rule="evenodd" clip-rule="evenodd" d="M47.246 45.507V39.34a.113.113 0 0 0-.038-.085.124.124 0 0 0-.091-.03h-4.918a.118.118 0 0 0-.12.115v2.395c0 .064.053.116.12.116h2.162c.066 0 .12.051.12.115v.395a.114.114 0 0 1-.052.099c-.295.196-.625.34-.973.428a3.528 3.528 0 0 1-1.12.099 3.35 3.35 0 0 1-1.093-.264 3.16 3.16 0 0 1-.957-.634 3.028 3.028 0 0 1-.953-2.194c0-.823.343-1.613.953-2.194a3.133 3.133 0 0 1 1.077-.675 3.422 3.422 0 0 1 2.446 0c.367.139.704.343.99.601a.123.123 0 0 0 .087.035.123.123 0 0 0 .086-.035l1.783-1.704a.113.113 0 0 0 .036-.082.113.113 0 0 0-.036-.083 5.849 5.849 0 0 0-1.895-1.177 6.288 6.288 0 0 0-4.53 0 5.867 5.867 0 0 0-1.99 1.26 5.468 5.468 0 0 0-1.31 1.901 5.627 5.627 0 0 0 0 4.322 5.487 5.487 0 0 0 1.301 1.87 5.868 5.868 0 0 0 1.99 1.259c.715.287 1.481.44 2.257.453.32-.002.64-.026.956-.074a5.23 5.23 0 0 0 .775-.173.126.126 0 0 1 .111.012.114.114 0 0 1 .053.095c0 .064.053.115.12.115h2.532a.118.118 0 0 0 .121-.115Zm9.01-1.136.413 1.185a.112.112 0 0 0 .032.087.123.123 0 0 0 .089.037h2.635a.123.123 0 0 0 .105-.047.111.111 0 0 0 .016-.11l-3.781-11.196a.12.12 0 0 0-.121-.082h-2.429a.12.12 0 0 0-.112.082l-3.988 11.196a.111.111 0 0 0 .013.106c.023.032.06.05.1.05h2.652a.12.12 0 0 0 .112-.082l.43-1.226a.12.12 0 0 1 .113-.083h3.6a.12.12 0 0 1 .12.083Zm-2.68-2.75h1.603a.122.122 0 0 0 .105-.047.11.11 0 0 0 .016-.11l-.776-2.288a.12.12 0 0 0-.116-.085.12.12 0 0 0-.116.085l-.862 2.289a.111.111 0 0 0 .02.123.125.125 0 0 0 .127.033Zm19.174-7.434h-2.636a.12.12 0 0 0-.112.09l-2.411 6.768a.12.12 0 0 1-.117.084.12.12 0 0 1-.116-.084l-2.48-6.767a.12.12 0 0 0-.112-.083H62.13a.119.119 0 0 0-.12.107l-.759 11.172a.112.112 0 0 0 .032.087.123.123 0 0 0 .089.036h2.532a.119.119 0 0 0 .12-.107l.276-4.165c0-.064.054-.116.121-.116s.12.052.12.116l1.551 4.231a.12.12 0 0 0 .112.083h2.584a.12.12 0 0 0 .112-.083l1.412-4a.12.12 0 0 1 .121-.116c.067 0 .12.052.12.115l.25 3.968a.12.12 0 0 0 .121.107h2.515a.123.123 0 0 0 .089-.036.112.112 0 0 0 .032-.087l-.69-11.213a.119.119 0 0 0-.12-.107Z" fill="#fff"/><path d="M79.725 31.6h47.73c.489 0 .885.37.885.828v7.732c0 4.463-3.868 8.08-8.639 8.08H79.725c-.489 0-.885-.37-.885-.828V32.395c.019-.445.41-.795.885-.795Z" fill="#1D1D1B"/><path fill-rule="evenodd" clip-rule="evenodd" d="M79.9 48.24h40.2c4.914-.005 8.896-3.629 8.901-8.101v-7.574c0-.533-.475-.965-1.06-.965H79.9c-.585 0-1.06.432-1.06.965v14.71c0 .533.475.965 1.06.965Zm-.65-15.667c0-.327.291-.592.65-.592l48.04-.008c.359 0 .65.265.65.592v7.574c-.005 4.266-3.803 7.723-8.491 7.728H79.9c-.359 0-.65-.265-.65-.592V32.573Z" fill="#fff"/><path fill-rule="evenodd" clip-rule="evenodd" d="M86.862 44.394a4.57 4.57 0 0 1-1.13-.144 3.992 3.992 0 0 1-1.069-.448 3.847 3.847 0 0 1-1.371-1.368 3.574 3.574 0 0 1-.492-1.72.107.107 0 0 1 .032-.084.126.126 0 0 1 .089-.036h2.561c.067 0 .121.05.121.112.002.212.074.42.207.592.104.134.232.25.38.344.188.12.409.19.638.2.23.01.462-.03.672-.12.14-.05.265-.126.371-.224.084-.079.157-.167.216-.264a.691.691 0 0 0 .086-.248c.022-.13.022-.262 0-.392a.758.758 0 0 0-.086-.256 1.04 1.04 0 0 0-.216-.264 1.418 1.418 0 0 0-.37-.232l-.38-.136-.431-.136-.863-.272a4.89 4.89 0 0 1-.862-.408 3.38 3.38 0 0 1-.966-.8 3.132 3.132 0 0 1-.681-2.264c.039-.41.165-.81.37-1.175.188-.336.436-.639.734-.896a3.55 3.55 0 0 1 .974-.6 3.783 3.783 0 0 1 1.156-.264 4.1 4.1 0 0 1 1.259.104c.397.085.776.23 1.12.432.328.192.62.432.863.712a3.024 3.024 0 0 1 .707 1.847.107.107 0 0 1-.032.085.125.125 0 0 1-.088.035H87.88a.118.118 0 0 1-.121-.096.473.473 0 0 0-.233-.384 1.786 1.786 0 0 0-.405-.175h-.138a.851.851 0 0 0-.276 0c-.112.017-.22.052-.32.103a.61.61 0 0 0-.258.264.636.636 0 0 0-.052.504c.05.172.167.32.328.416.163.085.333.157.509.216l.586.192.56.168c.19.059.383.128.579.208 1.387.566 2.285 1.835 2.294 3.24a3.33 3.33 0 0 1-.621 1.952c-.59.822-1.503 1.396-2.544 1.6a4.752 4.752 0 0 1-.906.08Zm36.858-6.432a4.267 4.267 0 0 1-.38 1.792 4.667 4.667 0 0 1-1.06 1.472 5.158 5.158 0 0 1-1.578 1.008 5.157 5.157 0 0 1-1.803.384c-.066 0-.121.05-.121.112v1.552c0 .062-.054.112-.12.112h-2.51c-.066 0-.121-.05-.121-.112v-10.88c0-.061.055-.111.121-.111h2.622a5.09 5.09 0 0 1 1.923.392c.589.245 1.124.59 1.578 1.016.452.423.812.922 1.061 1.471a4.29 4.29 0 0 1 .388 1.792Zm-4.912 2.082a.11.11 0 0 1-.038-.082v-4c.009-.058.065-.1.129-.096a2.363 2.363 0 0 1 1.414.64c.199.193.357.418.466.664a1.98 1.98 0 0 1 0 1.6 2.076 2.076 0 0 1-.466.664 2.361 2.361 0 0 1-1.414.64.128.128 0 0 1-.091-.03Zm-11.327-6.761a6.19 6.19 0 0 1 2.329.44 6.22 6.22 0 0 1 1.906 1.184 5.618 5.618 0 0 1 1.285 1.76 5.191 5.191 0 0 1 0 4.327 5.618 5.618 0 0 1-1.285 1.76c-.548.51-1.194.92-1.906 1.208a6.407 6.407 0 0 1-4.657 0c-1.431-.564-2.569-1.623-3.174-2.952a5.229 5.229 0 0 1 0-4.328c.605-1.329 1.743-2.387 3.174-2.951a6.182 6.182 0 0 1 2.328-.449Zm.005 8.551c.431.003.858-.076 1.254-.232a3.144 3.144 0 0 0 1.725-1.6 2.806 2.806 0 0 0 0-2.328c-.329-.72-.948-1.294-1.725-1.6a3.476 3.476 0 0 0-2.509 0c-.777.306-1.396.88-1.725 1.6a2.806 2.806 0 0 0 0 2.328c.329.72.948 1.295 1.725 1.6.397.157.824.236 1.255.232Z" fill="#fff"/><rect x="96" y="35.44" width="2.64" height="8.96" rx=".162" fill="#fff"/><rect x="93.36" y="34.16" width="7.92" height="2.56" rx=".162" fill="#fff"/></g><path fill-rule="evenodd" clip-rule="evenodd" d="M162.494 40.113V28.337c-.048-1.295-.622-2.503-1.57-3.308l-3.31-2.631s-1.576-1.253-.917.689l5.792 17.024-16.435-5.99c-1.873-.683-.665.948-.665.948l2.538 3.452c.806.995 1.963 1.586 3.192 1.63-1.229.045-2.386.636-3.192 1.63l-2.544 3.393s-1.207 1.63.665.947l16.446-5.994-5.797 17.041h.006c-.66 1.936.911.683.911.683l3.315-2.63c.949-.805 1.523-2.014 1.571-3.31V40.115l-.006-.002Zm0 0-.005-.002.005.017v-.015Z" fill="#D1010E"/><path fill-rule="evenodd" clip-rule="evenodd" d="M206.975 55.375c6.906 0 10.17-3.095 10.17-6.516 0-4.265-4.255-4.868-7.682-5.354-2.311-.327-4.246-.601-4.246-1.909-.004-.29.049-.578.156-.845a7.761 7.761 0 0 0 2.074.239c4.643 0 7.907-2.775 7.907-7.163a7.224 7.224 0 0 0-1.306-4.226c.348-.108.71-.163 1.073-.163a6.93 6.93 0 0 1 1.535.204l1.073-4.185a12.466 12.466 0 0 0-1.307-.082c-2.608 0-3.798.682-4.838 1.69-.155.163-.267.24-.461.123a7.427 7.427 0 0 0-3.798-.886c-5.605 0-7.868 3.823-7.868 7.163 0 2.495 1.073 4.826 3.186 5.992-1.457.845-2.419 2.174-2.419 3.497-.035.946.42 1.837 1.19 2.332-1.862.582-3.16 2.347-3.225 4.383 0 3.176 3.069 5.671 8.791 5.671l-.005.035ZM235 45.822h-4.76l-.812-1.609c-1.382 1.323-3.194 2.042-5.065 2.011-3.57 0-6.178-2.576-6.178-6.237-.093-2.215 1.106-4.267 3.03-5.187a10.905 10.905 0 0 1 4.799-1.166l2.88-.122v-.198c0-1.772-1.228-2.495-3.186-2.495a10.056 10.056 0 0 0-4.604 1.166l-1.802-3.824a15.839 15.839 0 0 1 7.485-1.848c5.605 0 7.907 2.612 7.907 7.24v8.527a14.917 14.917 0 0 0 .306 3.742Zm-6.122-4.955V37.33l-1.952.075a4.381 4.381 0 0 0-2.152.525c-.547.343-.86.983-.806 1.65 0 1.328.878 1.97 2.263 1.97a5.032 5.032 0 0 0 2.647-.682Zm-21.436-4.301c-1.73 0-2.569-1.446-2.569-2.914 0-2.011 1.112-2.915 2.496-2.915 1.763 0 2.647 1.527 2.647 2.979 0 1.888-1.112 2.856-2.569 2.856l-.005-.006Zm-4.137 12.036c0 1.568 1.646 2.652 4.526 2.652l-.011.041c2.052 0 3.892-.583 3.892-1.749 0-1.42-2.308-1.718-4.475-1.998-1.267-.165-2.486-.322-3.165-.695a2.428 2.428 0 0 0-.767 1.75ZM173.3 45.804h-5.8v-19.03h4.871l.562 1.947c1.69-1.33 3.764-2.413 5.95-2.413 2.302 0 3.986 1.002 4.948 2.692 2.191-1.847 4.493-2.692 6.373-2.692 3.336 0 6.428 1.73 6.428 7.04v12.474h-5.794V34.916c0-1.853-.267-3.38-2.419-3.38a5.882 5.882 0 0 0-3.453 1.247v13.039h-5.794V34.998c0-1.853-.234-3.462-2.38-3.462a5.989 5.989 0 0 0-3.492 1.247v13.021Z" fill="#818084"/><path fill-rule="evenodd" clip-rule="evenodd" d="M299 40c0-13.255-10.745-24-24-24s-24 10.745-24 24 10.745 24 24 24 24-10.745 24-24Zm-46 0c0-12.15 9.85-22 22-22s22 9.85 22 22-9.85 22-22 22-22-9.85-22-22Z" fill="#85ACB0"/><path fill-rule="evenodd" clip-rule="evenodd" d="M274.84 45.552c.661 0 1.251-.083 1.768-.248a3.916 3.916 0 0 0 1.304-.68c.352-.288.621-.63.808-1.024a2.99 2.99 0 0 0 .28-1.296c0-.715-.197-1.299-.592-1.752-.395-.453-.928-.77-1.6-.952v-.128a3.12 3.12 0 0 0 1.336-.928c.347-.416.52-.95.52-1.6 0-.427-.083-.821-.248-1.184a2.543 2.543 0 0 0-.736-.936 3.524 3.524 0 0 0-1.2-.608c-.475-.144-1.021-.216-1.64-.216s-1.165.072-1.64.216a3.524 3.524 0 0 0-1.2.608 2.543 2.543 0 0 0-.736.936 2.825 2.825 0 0 0-.248 1.184c0 .65.173 1.184.52 1.6a3.12 3.12 0 0 0 1.336.928v.128c-.672.181-1.205.499-1.6.952-.395.453-.592 1.037-.592 1.752 0 .47.093.901.28 1.296.187.395.456.736.808 1.024.352.288.787.515 1.304.68.517.165 1.107.248 1.768.248Zm-5.12-.192v-1.936h-2.368v-9.232h-3.68L261 37.712l1.536 1.2 2.272-2.976h.144v7.488h-3.008v1.936h7.776Zm3.952-6.936c.267.24.656.36 1.168.36.512 0 .901-.12 1.168-.36.267-.24.4-.568.4-.984v-.256c0-.416-.133-.744-.4-.984s-.656-.36-1.168-.36c-.512 0-.901.12-1.168.36-.267.24-.4.568-.4.984v.256c0 .416.133.744.4.984Zm1.168 5.288c-.533 0-.941-.125-1.224-.376-.283-.25-.424-.6-.424-1.048v-.32c0-.448.141-.797.424-1.048.283-.25.691-.376 1.224-.376s.941.125 1.224.376c.283.25.424.6.424 1.048v.32c0 .448-.141.797-.424 1.048-.283.25-.691.376-1.224.376Zm10.624-2.304v2.944h-2.048v-2.944h-2.704V39.52h2.704v-2.944h2.048v2.944h2.704v1.888h-2.704Z" fill="#85ACB0"/><g clip-path="url(#b)" fill="#333"><path d="M83.962 109H77.55v-1.204l3.192-2.94a7.18 7.18 0 0 0 1.148-1.33c.308-.476.462-.952.462-1.428v-.168c0-.541-.15-.98-.448-1.316-.299-.336-.751-.504-1.358-.504-.299 0-.56.042-.784.126-.224.084-.42.201-.588.35a2.112 2.112 0 0 0-.406.532 3.307 3.307 0 0 0-.252.644l-1.05-.406c.093-.289.22-.569.378-.84.168-.28.373-.527.616-.742a3.01 3.01 0 0 1 .896-.518c.355-.13.77-.196 1.246-.196s.9.07 1.274.21c.373.14.686.336.938.588.252.252.443.551.574.896.14.345.21.728.21 1.148 0 .383-.056.737-.168 1.064a4.063 4.063 0 0 1-.434.938 5.631 5.631 0 0 1-.686.854c-.261.28-.546.56-.854.84l-2.632 2.366h5.138V109Zm5.132.168c-1.166 0-2.02-.443-2.561-1.33-.532-.887-.799-2.128-.799-3.724s.267-2.837.799-3.724c.54-.887 1.395-1.33 2.561-1.33 1.167 0 2.017.443 2.549 1.33.54.887.811 2.128.811 3.724s-.27 2.837-.811 3.724c-.532.887-1.382 1.33-2.549 1.33Zm0-1.022c.383 0 .71-.079.98-.238.271-.159.49-.383.659-.672.167-.289.289-.63.364-1.022.084-.392.126-.826.126-1.302v-1.596c0-.476-.043-.91-.126-1.302a3.218 3.218 0 0 0-.364-1.022 1.825 1.825 0 0 0-.659-.672c-.27-.159-.597-.238-.98-.238-.382 0-.709.079-.98.238a1.82 1.82 0 0 0-.657.672 3.47 3.47 0 0 0-.378 1.022 6.984 6.984 0 0 0-.112 1.302v1.596c0 .476.037.91.112 1.302.084.392.21.733.378 1.022.168.289.387.513.658.672.27.159.597.238.98.238Zm11.657.854h-6.412v-1.204l3.192-2.94a7.18 7.18 0 0 0 1.148-1.33c.308-.476.462-.952.462-1.428v-.168c0-.541-.15-.98-.448-1.316-.299-.336-.751-.504-1.358-.504-.299 0-.56.042-.784.126-.224.084-.42.201-.588.35a2.112 2.112 0 0 0-.406.532 3.307 3.307 0 0 0-.252.644l-1.05-.406c.093-.289.22-.569.378-.84.168-.28.373-.527.616-.742.252-.215.55-.387.896-.518.355-.13.77-.196 1.246-.196s.9.07 1.274.21c.373.14.686.336.938.588.252.252.443.551.574.896.14.345.21.728.21 1.148 0 .383-.056.737-.168 1.064a4.08 4.08 0 0 1-.434.938 5.638 5.638 0 0 1-.686.854c-.261.28-.546.56-.854.84l-2.632 2.366h5.138V109Zm2.165 0v-1.036h2.73v-7.868h-.098l-2.464 2.296-.686-.742 2.59-2.422h1.834v8.736h2.52V109h-6.426Zm11.773-9.772h3.276a4.28 4.28 0 0 1 1.652.308c.494.205.914.513 1.26.924.354.401.625.91.812 1.526.186.607.28 1.316.28 2.128s-.094 1.526-.28 2.142c-.187.607-.458 1.115-.812 1.526a3.325 3.325 0 0 1-1.26.91 4.28 4.28 0 0 1-1.652.308h-3.276v-9.772Zm3.276 8.736c.401 0 .77-.065 1.106-.196.336-.14.625-.341.868-.602.242-.261.429-.579.56-.952.14-.383.21-.817.21-1.302v-1.596c0-.485-.07-.915-.21-1.288a2.67 2.67 0 0 0-.56-.966 2.323 2.323 0 0 0-.868-.588 2.849 2.849 0 0 0-1.106-.21h-2.1v7.7h2.1Zm8.72 1.204a3.3 3.3 0 0 1-1.344-.266 3.006 3.006 0 0 1-1.022-.756 3.776 3.776 0 0 1-.658-1.19 5.141 5.141 0 0 1-.224-1.568c0-.569.075-1.087.224-1.554.159-.467.378-.863.658-1.19.29-.336.63-.593 1.022-.77a3.3 3.3 0 0 1 1.344-.266c.486 0 .92.089 1.302.266.383.177.71.425.98.742.271.308.476.677.616 1.106.15.429.224.901.224 1.414v.532h-5.194v.336c0 .308.047.597.14.868.103.261.243.49.42.686.187.196.411.35.672.462.271.112.574.168.91.168.458 0 .854-.107 1.19-.322.346-.215.612-.523.798-.924l.798.574a2.814 2.814 0 0 1-1.092 1.204c-.494.299-1.082.448-1.764.448Zm0-6.622c-.308 0-.588.056-.84.168a1.883 1.883 0 0 0-.658.448 2.195 2.195 0 0 0-.42.7 2.369 2.369 0 0 0-.154.868v.098h3.99v-.154c0-.644-.177-1.157-.532-1.54-.345-.392-.807-.588-1.386-.588Zm4.968 6.454v-7.224h1.12v1.33h.07c.131-.345.364-.653.7-.924.336-.271.798-.406 1.386-.406h.434v1.12h-.658c-.607 0-1.083.117-1.428.35-.336.224-.504.509-.504.854v4.9h-1.12Zm5.701-8.918c-.243 0-.42-.056-.532-.168a.689.689 0 0 1-.154-.462v-.182c0-.187.051-.336.154-.448.112-.121.289-.182.532-.182.242 0 .415.06.518.182a.605.605 0 0 1 .168.448v.182c0 .187-.056.34-.168.462-.103.112-.276.168-.518.168Zm-.56 1.694h1.12V109h-1.12v-7.224ZM141.89 109l-2.534-7.224h1.12l1.26 3.584.784 2.464h.07l.784-2.464 1.288-3.584h1.078L143.192 109h-1.302Zm9.135 1.932V98.36h.952v12.572h-.952ZM164.434 109l-.98-2.884h-3.948l-.98 2.884h-1.19l3.416-9.772h1.498l3.416 9.772h-1.232Zm-2.926-8.68h-.07l-1.652 4.76h3.374l-1.652-4.76Zm6.854 8.68c-.392 0-.69-.107-.896-.322-.196-.224-.294-.504-.294-.84V98.64h1.12v9.38h1.064v.98h-.994Zm3.747 0c-.392 0-.691-.107-.896-.322-.196-.224-.294-.504-.294-.84V98.64h1.12v9.38h1.064v.98h-.994Zm5.933 0v-7.224h1.12v1.33h.07c.13-.345.364-.653.7-.924.336-.271.798-.406 1.386-.406h.434v1.12h-.658c-.607 0-1.083.117-1.428.35-.336.224-.504.509-.504.854v4.9h-1.12Zm5.7-8.918c-.242 0-.42-.056-.532-.168a.694.694 0 0 1-.154-.462v-.182a.64.64 0 0 1 .154-.448c.112-.121.29-.182.532-.182.243 0 .416.06.518.182a.605.605 0 0 1 .168.448v.182c0 .187-.056.34-.168.462-.102.112-.275.168-.518.168Zm-.56 1.694h1.12V109h-1.12v-7.224Zm9.59 8.022c0 .747-.294 1.293-.882 1.638-.578.355-1.451.532-2.618.532-1.129 0-1.941-.154-2.436-.462-.494-.308-.742-.747-.742-1.316 0-.392.103-.7.308-.924.206-.215.486-.373.84-.476v-.154c-.429-.205-.644-.541-.644-1.008 0-.364.117-.639.35-.826.234-.196.532-.341.896-.434v-.056a2.38 2.38 0 0 1-1.008-.882c-.233-.383-.35-.826-.35-1.33 0-.364.066-.7.196-1.008.131-.308.313-.569.546-.784a2.56 2.56 0 0 1 .854-.518 3.29 3.29 0 0 1 1.12-.182c.514 0 .971.093 1.372.28v-.126c0-.28.066-.509.196-.686.131-.187.346-.28.644-.28h1.078v.98h-1.372v.462c.262.224.462.495.602.812.15.308.224.658.224 1.05 0 .364-.065.7-.196 1.008-.13.308-.317.574-.56.798a2.482 2.482 0 0 1-.854.504 3.285 3.285 0 0 1-1.12.182c-.233 0-.466-.023-.7-.07a2.205 2.205 0 0 0-.658.294.576.576 0 0 0-.294.518c0 .215.103.359.308.434.206.075.472.112.798.112h1.54c.896 0 1.545.173 1.946.518.411.336.616.803.616 1.4Zm-1.05.084a.85.85 0 0 0-.336-.7c-.214-.168-.602-.252-1.162-.252h-2.408c-.448.205-.672.532-.672.98 0 .317.117.588.35.812.243.224.649.336 1.218.336h1.036c.626 0 1.111-.098 1.456-.294.346-.196.518-.49.518-.882Zm-2.506-4.186c.476 0 .854-.112 1.134-.336.28-.233.42-.588.42-1.064v-.392c0-.476-.14-.826-.42-1.05-.28-.233-.658-.35-1.134-.35-.476 0-.854.117-1.134.35-.28.224-.42.574-.42 1.05v.392c0 .476.14.831.42 1.064.28.224.658.336 1.134.336Zm4.863-7.056h1.12v4.312h.056c.177-.411.424-.737.742-.98.326-.243.76-.364 1.302-.364.746 0 1.334.243 1.764.728.438.476.658 1.153.658 2.03V109h-1.12v-4.438c0-1.297-.546-1.946-1.638-1.946-.224 0-.444.028-.658.084-.206.056-.392.14-.56.252a1.289 1.289 0 0 0-.406.434c-.094.168-.14.369-.14.602V109h-1.12V98.64Zm9.553 10.36c-.392 0-.691-.107-.896-.322-.196-.224-.294-.513-.294-.868v-5.054h-1.19v-.98h.672c.242 0 .406-.047.49-.14.093-.103.14-.275.14-.518v-1.344h1.008v2.002h1.582v.98h-1.582v5.264h1.47v.98h-1.4Zm5.482.168c-.672 0-1.237-.126-1.694-.378a3.961 3.961 0 0 1-1.162-1.036l.798-.644c.28.355.593.63.938.826.345.187.747.28 1.204.28.476 0 .845-.103 1.106-.308.271-.205.406-.495.406-.868a.996.996 0 0 0-.28-.714c-.177-.205-.504-.345-.98-.42l-.574-.084a5.23 5.23 0 0 1-.924-.21 2.951 2.951 0 0 1-.742-.392 1.858 1.858 0 0 1-.49-.616 2.058 2.058 0 0 1-.168-.868c0-.355.065-.663.196-.924a1.89 1.89 0 0 1 .532-.672c.233-.177.509-.308.826-.392.317-.093.658-.14 1.022-.14.588 0 1.078.103 1.47.308.401.205.751.49 1.05.854l-.742.672c-.159-.224-.392-.425-.7-.602-.308-.187-.695-.28-1.162-.28-.467 0-.821.103-1.064.308-.233.196-.35.467-.35.812 0 .355.117.611.35.77.243.159.588.275 1.036.35l.56.084c.803.121 1.372.355 1.708.7.336.336.504.779.504 1.33 0 .7-.238 1.251-.714 1.652s-1.129.602-1.96.602Zm7.961-.168v-7.224h1.12v1.33h.07c.13-.345.364-.653.7-.924.336-.271.798-.406 1.386-.406h.434v1.12h-.658c-.607 0-1.083.117-1.428.35-.336.224-.504.509-.504.854v4.9h-1.12Zm7.788.168c-.495 0-.943-.089-1.344-.266a2.996 2.996 0 0 1-1.022-.756 3.776 3.776 0 0 1-.658-1.19 5.141 5.141 0 0 1-.224-1.568c0-.569.075-1.087.224-1.554.159-.467.378-.863.658-1.19.289-.336.63-.593 1.022-.77a3.294 3.294 0 0 1 1.344-.266c.485 0 .919.089 1.302.266.383.177.709.425.98.742.271.308.476.677.616 1.106.149.429.224.901.224 1.414v.532h-5.194v.336c0 .308.047.597.14.868.103.261.243.49.42.686.187.196.411.35.672.462.271.112.574.168.91.168.457 0 .854-.107 1.19-.322.345-.215.611-.523.798-.924l.798.574a2.814 2.814 0 0 1-1.092 1.204c-.495.299-1.083.448-1.764.448Zm0-6.622c-.308 0-.588.056-.84.168a1.883 1.883 0 0 0-.658.448 2.348 2.348 0 0 0-.574 1.568v.098h3.99v-.154c0-.644-.177-1.157-.532-1.54-.345-.392-.807-.588-1.386-.588Zm7.138 6.622c-.672 0-1.237-.126-1.694-.378a3.949 3.949 0 0 1-1.162-1.036l.798-.644c.28.355.592.63.938.826.345.187.746.28 1.204.28.476 0 .844-.103 1.106-.308.27-.205.406-.495.406-.868a1 1 0 0 0-.28-.714c-.178-.205-.504-.345-.98-.42l-.574-.084a5.23 5.23 0 0 1-.924-.21 2.934 2.934 0 0 1-.742-.392 1.845 1.845 0 0 1-.49-.616 2.058 2.058 0 0 1-.168-.868c0-.355.065-.663.196-.924.13-.271.308-.495.532-.672.233-.177.508-.308.826-.392.317-.093.658-.14 1.022-.14.588 0 1.078.103 1.47.308.401.205.751.49 1.05.854l-.742.672c-.159-.224-.392-.425-.7-.602-.308-.187-.696-.28-1.162-.28-.467 0-.822.103-1.064.308-.234.196-.35.467-.35.812 0 .355.116.611.35.77.242.159.588.275 1.036.35l.56.084c.802.121 1.372.355 1.708.7.336.336.504.779.504 1.33 0 .7-.238 1.251-.714 1.652s-1.13.602-1.96.602Zm7.368 0c-.495 0-.943-.089-1.344-.266a2.996 2.996 0 0 1-1.022-.756 3.776 3.776 0 0 1-.658-1.19 5.141 5.141 0 0 1-.224-1.568c0-.569.075-1.087.224-1.554.159-.467.378-.863.658-1.19.289-.336.63-.593 1.022-.77a3.294 3.294 0 0 1 1.344-.266c.485 0 .919.089 1.302.266.383.177.709.425.98.742.271.308.476.677.616 1.106.149.429.224.901.224 1.414v.532h-5.194v.336c0 .308.047.597.14.868.103.261.243.49.42.686.187.196.411.35.672.462.271.112.574.168.91.168.457 0 .854-.107 1.19-.322.345-.215.611-.523.798-.924l.798.574a2.814 2.814 0 0 1-1.092 1.204c-.495.299-1.083.448-1.764.448Zm0-6.622c-.308 0-.588.056-.84.168a1.883 1.883 0 0 0-.658.448 2.348 2.348 0 0 0-.574 1.568v.098h3.99v-.154c0-.644-.177-1.157-.532-1.54-.345-.392-.807-.588-1.386-.588Zm4.967 6.454v-7.224h1.12v1.33h.07c.131-.345.364-.653.7-.924.336-.271.798-.406 1.386-.406h.434v1.12h-.658c-.606 0-1.082.117-1.428.35-.336.224-.504.509-.504.854v4.9h-1.12Zm6.874 0-2.534-7.224h1.12l1.26 3.584.784 2.464h.07l.784-2.464 1.288-3.584h1.078L252.512 109h-1.302Zm7.901.168c-.495 0-.943-.089-1.344-.266a2.996 2.996 0 0 1-1.022-.756 3.776 3.776 0 0 1-.658-1.19 5.141 5.141 0 0 1-.224-1.568c0-.569.075-1.087.224-1.554.159-.467.378-.863.658-1.19.289-.336.63-.593 1.022-.77a3.294 3.294 0 0 1 1.344-.266c.485 0 .919.089 1.302.266.383.177.709.425.98.742.271.308.476.677.616 1.106.149.429.224.901.224 1.414v.532h-5.194v.336c0 .308.047.597.14.868.103.261.243.49.42.686.187.196.411.35.672.462.271.112.574.168.91.168.457 0 .854-.107 1.19-.322.345-.215.611-.523.798-.924l.798.574a2.814 2.814 0 0 1-1.092 1.204c-.495.299-1.083.448-1.764.448Zm0-6.622c-.308 0-.588.056-.84.168a1.883 1.883 0 0 0-.658.448 2.348 2.348 0 0 0-.574 1.568v.098h3.99v-.154c0-.644-.177-1.157-.532-1.54-.345-.392-.807-.588-1.386-.588Zm9.588 5.278h-.056c-.439.896-1.144 1.344-2.114 1.344-.448 0-.854-.089-1.218-.266a2.7 2.7 0 0 1-.938-.756 3.64 3.64 0 0 1-.588-1.19 5.8 5.8 0 0 1-.196-1.568 5.8 5.8 0 0 1 .196-1.568 3.64 3.64 0 0 1 .588-1.19 2.7 2.7 0 0 1 .938-.756c.364-.177.77-.266 1.218-.266.504 0 .933.112 1.288.336.364.215.639.551.826 1.008h.056V98.64h1.12V109h-1.12v-1.176Zm-1.862.336c.252 0 .49-.033.714-.098a1.89 1.89 0 0 0 .602-.28c.168-.131.298-.285.392-.462.102-.187.154-.397.154-.63v-2.688c0-.196-.052-.378-.154-.546a1.293 1.293 0 0 0-.392-.448 1.89 1.89 0 0 0-.602-.28 2.234 2.234 0 0 0-.714-.112c-.635 0-1.134.201-1.498.602-.364.392-.546.91-.546 1.554v1.232c0 .644.182 1.167.546 1.568.364.392.863.588 1.498.588Z"/><path fill-rule="evenodd" clip-rule="evenodd" d="M64.5 97a8 8 0 1 1 0 16 8 8 0 0 1 0-16Zm0 1a7 7 0 1 0 0 14 7 7 0 0 0 0-14Zm-1.138 10.294a3.33 3.33 0 0 0 1.358.266c.69 0 1.267-.154 1.729-.462.462-.308.81-.723 1.043-1.246l-.812-.546c-.401.84-1.055 1.26-1.96 1.26-.663 0-1.164-.203-1.505-.609-.34-.406-.511-.926-.511-1.561v-1.232c0-.317.042-.609.126-.875.084-.266.21-.495.378-.686.168-.191.378-.341.63-.448.252-.107.546-.161.882-.161.448 0 .821.103 1.12.308a1.7 1.7 0 0 1 .644.868l.938-.476a2.862 2.862 0 0 0-.973-1.225c-.434-.313-1.01-.469-1.729-.469a3.33 3.33 0 0 0-1.358.266c-.401.177-.74.429-1.015.756a3.37 3.37 0 0 0-.63 1.19 5.283 5.283 0 0 0-.217 1.568c0 .579.072 1.101.217 1.568.145.467.355.863.63 1.19.275.327.614.579 1.015.756Z"/></g><defs><clipPath id="a"><path fill="#fff" transform="translate(30 25.6)" d="M0 0h99v28.8H0z"/></clipPath><clipPath id="b"><path fill="#fff" transform="translate(56.5 96)" d="M0 0h215v17H0z"/></clipPath></defs></svg>