<svg width="40" height="40" fill="none" xmlns="http://www.w3.org/2000/svg"><path d="M0 20C0 8.954 8.954 0 20 0s20 8.954 20 20-8.954 20-20 20S0 31.046 0 20Z" fill="#333"/><path fill-rule="evenodd" clip-rule="evenodd" d="M14.623 8h10.754A6.63 6.63 0 0 1 32 14.623v10.754A6.63 6.63 0 0 1 25.377 32H14.623A6.63 6.63 0 0 1 8 25.377V14.623A6.63 6.63 0 0 1 14.623 8Zm10.754 21.87a4.499 4.499 0 0 0 4.493-4.493V14.623a4.499 4.499 0 0 0-4.494-4.494H14.623a4.499 4.499 0 0 0-4.494 4.494v10.754a4.499 4.499 0 0 0 4.494 4.494h10.754ZM13.714 20A6.293 6.293 0 0 1 20 13.714 6.293 6.293 0 0 1 26.286 20 6.293 6.293 0 0 1 20 26.286 6.293 6.293 0 0 1 13.715 20Zm2.164 0a4.126 4.126 0 0 0 4.12 4.121A4.126 4.126 0 0 0 24.122 20 4.126 4.126 0 0 0 20 15.879 4.126 4.126 0 0 0 15.879 20Zm9.683-7.582a1.434 1.434 0 0 1 1.01-.418c.376 0 .745.152 1.01.418.266.265.418.634.418 1.01s-.152.745-.418 1.011a1.442 1.442 0 0 1-1.01.418 1.44 1.44 0 0 1-1.01-.418 1.44 1.44 0 0 1-.42-1.01c0-.377.154-.746.42-1.01Z" fill="#fff"/></svg>