<svg width="40" height="40" fill="none" xmlns="http://www.w3.org/2000/svg"><path d="M0 20C0 8.954 8.954 0 20 0s20 8.954 20 20-8.954 20-20 20S0 31.046 0 20Z" fill="#333"/><path d="M9.583 12.5h3.334c.46 0 .833-.302.833-.675v-2.4c0-.373-.373-.675-.833-.675H9.583c-.46 0-.833.302-.833.675v2.4c0 .373.373.675.833.675Zm0 16.25h3.334c.46 0 .833-.316.833-.705v-12.34c0-.39-.373-.705-.833-.705H9.583c-.46 0-.833.316-.833.705v12.34c0 .39.373.705.833.705Zm18.769-14.464c.796.358 1.398.815 1.805 1.37.409.555.693 1.185.853 1.89.16.704.24 1.713.24 3.026V28c0 .414-.325.75-.725.75H27.62a.738.738 0 0 1-.725-.75v-5.538c0-1.836-.093-3.024-.28-3.563-.185-.54-.487-.958-.906-1.257-.418-.3-.922-.449-1.51-.449-.755 0-1.431.214-2.03.64a3.22 3.22 0 0 0-1.233 1.698c-.222.705-.333 2.008-.333 3.908V28c0 .414-.324.75-.725.75h-2.904a.738.738 0 0 1-.725-.75V14.884c0-.414.325-.75.725-.75h2.594c.4 0 .725.336.725.75v1c0 .413.196.48.466.174 1.355-1.539 3.008-2.308 4.958-2.308.96 0 1.839.179 2.634.536Z" fill="#fff"/></svg>