<svg width="48" height="48" fill="none" xmlns="http://www.w3.org/2000/svg"><path d="M39 0H9a9 9 0 0 0-9 9v30a9 9 0 0 0 9 9h30a9 9 0 0 0 9-9V9a9 9 0 0 0-9-9Z" fill="#FFC71B"/><path d="M30 15c-1.65 0-3 1.35-3 3 0 1.02.51 1.905 1.275 2.445L25.8 27.03c-.105 0-.21-.03-.315-.03-.825 0-1.56.33-2.1.87l-2.535-1.515c.075-.27.135-.555.135-.84 0-1.65-1.35-3-3-3s-3 1.35-3 3 1.35 3 3 3c.825 0 1.56-.33 2.1-.87l2.535 1.515c-.075.27-.135.555-.135.84 0 1.65 1.35 3 3 3s3-1.35 3-3c0-1.02-.51-1.905-1.275-2.445l2.46-6.585c.105 0 .21.03.315.03 1.65 0 3-1.35 3-3s-1.35-3-3-3H30Z" fill="#fff"/></svg>