<svg width="564" height="52" fill="none" xmlns="http://www.w3.org/2000/svg"><path d="M425.397 45.284H37.317c-.5 0-1 .203-1.4.509l-6.503 5.698c-.4.306-.9.509-1.401.509h-9.504c-.5 0-1-.203-1.401-.509l-6.503-5.698c-.4-.306-.9-.51-1.4-.51H4.501C2.001 45.284 0 43.249 0 40.706V4.579C0 2.035 2 0 4.502 0h4.702c.5 0 1 .204 1.4.509l6.504 5.698c.4.306.9.51 1.4.51h9.505c.5 0 1-.204 1.4-.51L35.918.51c.4-.305.9-.509 1.4-.509H432v8.344c0 .51-.2 1.018-.5 1.425l-5.603 6.615c-.3.407-.5.915-.5 1.424v9.668c0 .508.2 1.017.5 1.424l5.603 6.615c.3.407.5.916.5 1.424v8.141l-6.603.204Z" fill="#fff"/><mask id="a" style="mask-type:alpha" maskUnits="userSpaceOnUse" x="0" y="0" width="432" height="52"><path d="M425.397 45.284H37.317c-.5 0-1 .203-1.4.509l-6.503 5.698c-.4.306-.9.509-1.401.509h-9.504c-.5 0-1-.203-1.401-.509l-6.503-5.698c-.4-.306-.9-.51-1.4-.51H4.501C2.001 45.284 0 43.249 0 40.706V4.579C0 2.035 2 0 4.502 0h4.702c.5 0 1 .204 1.4.509l6.504 5.698c.4.306.9.51 1.4.51h9.505c.5 0 1-.204 1.4-.51L35.918.51c.4-.305.9-.509 1.4-.509H432v8.344c0 .51-.2 1.018-.5 1.425l-5.603 6.615c-.3.407-.5.915-.5 1.424v9.668c0 .508.2 1.017.5 1.424l5.603 6.615c.3.407.5.916.5 1.424v8.141l-6.603.204Z" fill="#fff"/></mask><g mask="url(#a)"><path d="M-26 0h95.16l28.6 52H-26V0Z" fill="#E6E9E9"/><g opacity=".32" fill="#333"><path d="M12.93 1.295a2.645 2.645 0 1 0-3.74 3.74 2.645 2.645 0 0 0 3.74-3.74ZM12.49 4.1l-.495.496-.937-.936-.936.936-.496-.496.936-.936-.936-.936.496-.496.936.936.937-.936.495.496-.936.936.936.936Z"/><path d="M8.628 5.596a3.43 3.43 0 0 1-1.005-2.431H2.067A1.587 1.587 0 0 0 .48 4.752v7.406a1.587 1.587 0 0 0 1.587 1.587h7.405a1.587 1.587 0 0 0 1.587-1.587V6.6a3.431 3.431 0 0 1-2.431-1.005Zm-4.71-.957a.926.926 0 1 1 0 1.852.926.926 0 0 1 0-1.852ZM2.067 7.972a1.11 1.11 0 0 1 1.11-1.11H4.66a1.11 1.11 0 0 1 1.11 1.11v.37H2.068v-.37Zm7.405 3.967H2.067v-.66h7.405v.66Zm0-1.587H2.067v-.67h7.405v.67Z"/></g><g opacity=".32" fill="#333"><path d="M43.56 17.8v-7.68H19.421c-1.517 0-2.97.607-4.043 1.687a5.782 5.782 0 0 0-1.675 4.073v26.88c0 1.528.603 2.993 1.675 4.073a5.695 5.695 0 0 0 4.043 1.687h26.68c1.516 0 2.97-.607 4.042-1.687a5.782 5.782 0 0 0 1.674-4.073V21.64H47.37a3.8 3.8 0 0 1-2.694-1.126 3.858 3.858 0 0 1-1.118-2.714Zm-17.47-2.331c.66 0 1.305.197 1.853.566.549.37.976.894 1.229 1.508a3.383 3.383 0 0 1-.723 3.662 3.32 3.32 0 0 1-1.708.919 3.311 3.311 0 0 1-1.927-.191 3.34 3.34 0 0 1-1.496-1.238 3.378 3.378 0 0 1 .414-4.242 3.323 3.323 0 0 1 2.358-.984Zm-6.67 12.099a4.053 4.053 0 0 1 1.172-2.852 3.998 3.998 0 0 1 2.83-1.18h5.337c1.06 0 2.079.425 2.83 1.181a4.047 4.047 0 0 1 1.171 2.851v1.34H19.42v-1.34Zm26.68 14.4H19.42v-2.4H46.1v2.4Zm0-5.76H19.42v-2.43H46.1v2.43Z"/><path d="M45.465 17.587c.002.566.226 1.108.623 1.508.397.4.936.624 1.497.625h8.467c.561 0 1.1-.226 1.497-.625.397-.4.621-.942.623-1.508V4.785H45.465v12.802Zm2.12-10.67h8.467v10.67h-8.467V6.917Zm7.939-5.331L54.466.52h-5.295l-1.059 1.066h-3.705V3.72H59.23V1.586h-3.706Z"/><path d="M51.12 8.368h-1.973v7.77h1.974v-7.77Zm3.37 0h-1.974v7.77h1.974v-7.77Z"/></g><g opacity=".32" fill="#333"><path d="M64.721 37.94c.562 0 1.11-.164 1.577-.47a2.813 2.813 0 0 0 1.046-1.254c.215-.51.271-1.071.162-1.613a2.777 2.777 0 0 0-.777-1.429 2.854 2.854 0 0 0-1.454-.764 2.883 2.883 0 0 0-1.64.16 2.829 2.829 0 0 0-1.274 1.027 2.758 2.758 0 0 0-.478 1.551c0 .74.3 1.45.832 1.973a2.866 2.866 0 0 0 2.006.819Zm0-4.315c.307 0 .607.09.862.257s.454.405.571.684a1.501 1.501 0 0 1-.336 1.66 1.574 1.574 0 0 1-1.69.33 1.545 1.545 0 0 1-.695-.56 1.513 1.513 0 0 1-.26-.848 1.51 1.51 0 0 1 .455-1.074 1.56 1.56 0 0 1 1.093-.446v-.003Zm-4.199 10.459v-2.05a2.046 2.046 0 0 1 .615-1.453 2.116 2.116 0 0 1 1.477-.604h4.214c.442 0 .873.137 1.231.394a4.747 4.747 0 0 1 1.509-.248h.027a3.363 3.363 0 0 0-1.208-1.04 3.427 3.427 0 0 0-1.56-.376h-4.213a3.417 3.417 0 0 0-2.391.975 3.303 3.303 0 0 0-.993 2.351v3.318h5.713a4.097 4.097 0 0 1 0-1.27l-4.421.002Z"/><path d="M72.302 42.029a3.888 3.888 0 0 0-1.98-1.041 3.929 3.929 0 0 0-2.235.216 3.854 3.854 0 0 0-1.735 1.4 3.758 3.758 0 0 0-.652 2.113c0 .752.227 1.488.652 2.113a3.854 3.854 0 0 0 1.735 1.4 3.928 3.928 0 0 0 2.235.217 3.887 3.887 0 0 0 1.98-1.041 3.77 3.77 0 0 0 1.132-2.689 3.77 3.77 0 0 0-1.132-2.688Zm-.64 4.04-.725.713-1.37-1.351-1.368 1.346-.726-.714 1.37-1.346-1.37-1.346.726-.713 1.369 1.346 1.369-1.346.725.713-1.369 1.346 1.37 1.352Z"/></g></g><path d="M558.934 45.589 424 45.386V0h134.934C561.716 0 564 2.34 564 5.19V40.4c0 2.849-2.284 5.189-5.066 5.189Z" fill="#fff"/></svg>