<svg width="48" height="48" fill="none" xmlns="http://www.w3.org/2000/svg"><path d="M39 0H9a9 9 0 0 0-9 9v30a9 9 0 0 0 9 9h30a9 9 0 0 0 9-9V9a9 9 0 0 0-9-9Z" fill="#3C77AE"/><path d="M22.5 18c0 1.65-1.35 3-3 3s-3-1.35-3-3 1.35-3 3-3 3 1.35 3 3Zm3 6L24 22.5h-6c-1.65 0-3 1.35-3 3v6c0 .825.675 1.5 1.5 1.5h6c.825 0 1.5-.675 1.5-1.5v-3L22.5 27l1.5-1.5 1.5-1.5Zm1.5-5.25A2.247 2.247 0 0 0 29.25 21a2.247 2.247 0 0 0 2.25-2.25 2.247 2.247 0 0 0-2.25-2.25A2.247 2.247 0 0 0 27 18.75Zm-1.5 3.75L27 24l-1.5 1.5L24 27l1.5 1.5v3c0 .825.675 1.5 1.5 1.5h4.5c.825 0 1.5-.675 1.5-1.5v-6c0-1.65-1.35-3-3-3h-4.5Z" fill="#fff"/></svg>