<svg width="48" height="48" fill="none" xmlns="http://www.w3.org/2000/svg"><path d="M39 0H9a9 9 0 0 0-9 9v30a9 9 0 0 0 9 9h30a9 9 0 0 0 9-9V9a9 9 0 0 0-9-9Z" fill="#8CB761"/><path d="M19.5 21.75v7.5c0 .42-.33.75-.75.75H18v2.25c0 .405-.33.75-.75.75a.752.752 0 0 1-.75-.75V30h-.75c-.42 0-.75-.33-.75-.75v-7.5c0-.42.33-.75.75-.75h.75v-2.25c0-.42.33-.75.75-.75s.75.33.75.75V21h.75c.42 0 .75.33.75.75Zm5.25-5.25H24v-2.25c0-.42-.33-.75-.75-.75s-.75.33-.75.75v2.25h-.75c-.42 0-.75.33-.75.75v13.5c0 .42.33.75.75.75h.75v2.25c0 .405.33.75.75.75s.75-.345.75-.75V31.5h.75c.42 0 .75-.33.75-.75v-13.5c0-.42-.33-.75-.75-.75Zm6 1.5H30v-2.25c0-.42-.33-.75-.75-.75s-.75.33-.75.75V18h-.75c-.42 0-.75.33-.75.75v7.5c0 .42.33.75.75.75h.75v2.25c0 .405.33.75.75.75s.75-.345.75-.75V27h.75c.42 0 .75-.33.75-.75v-7.5c0-.42-.33-.75-.75-.75Z" fill="#fff"/></svg>