<svg width="48" height="48" fill="none" xmlns="http://www.w3.org/2000/svg"><path d="M39 0H9a9 9 0 0 0-9 9v30a9 9 0 0 0 9 9h30a9 9 0 0 0 9-9V9a9 9 0 0 0-9-9Z" fill="#FF444F"/><path d="M21 22.5h-4.5c-.825 0-1.5-.675-1.5-1.5v-4.5c0-.825.675-1.5 1.5-1.5H21c.825 0 1.5.675 1.5 1.5V21c0 .825-.675 1.5-1.5 1.5Zm1.5 9V27c0-.825-.675-1.5-1.5-1.5h-4.5c-.825 0-1.5.675-1.5 1.5v4.5c0 .825.675 1.5 1.5 1.5H21c.825 0 1.5-.675 1.5-1.5ZM33 21v-4.5c0-.825-.675-1.5-1.5-1.5H27c-.825 0-1.5.675-1.5 1.5V21c0 .825.675 1.5 1.5 1.5h4.5c.825 0 1.5-.675 1.5-1.5Zm0 10.5V27c0-.825-.675-1.5-1.5-1.5H27c-.825 0-1.5.675-1.5 1.5v4.5c0 .825.675 1.5 1.5 1.5h4.5c.825 0 1.5-.675 1.5-1.5Z" fill="#fff"/></svg>