<svg width="40" height="40" fill="none" xmlns="http://www.w3.org/2000/svg"><path d="M0 20C0 8.954 8.954 0 20 0s20 8.954 20 20-8.954 20-20 20S0 31.046 0 20Z" fill="#333"/><path d="M32 12.368c-.892.401-1.843.667-2.835.797a4.997 4.997 0 0 0 2.165-2.79 9.685 9.685 0 0 1-3.12 1.222A4.874 4.874 0 0 0 24.614 10c-2.723 0-4.916 2.268-4.916 5.048 0 .4.032.784.113 1.15-4.09-.204-7.71-2.215-10.141-5.278a5.18 5.18 0 0 0-.673 2.55 5.09 5.09 0 0 0 2.185 4.195 4.767 4.767 0 0 1-2.223-.622v.056c0 2.452 1.705 4.489 3.942 4.958-.4.112-.837.166-1.29.166-.315 0-.633-.018-.931-.086.637 1.998 2.446 3.468 4.597 3.515a9.73 9.73 0 0 1-6.1 2.153 8.95 8.95 0 0 1-1.178-.07A13.602 13.602 0 0 0 15.548 30c9.054 0 14.004-7.692 14.004-14.36 0-.223-.008-.439-.018-.652A9.96 9.96 0 0 0 32 12.368Z" fill="#fff"/></svg>