<svg xmlns="http://www.w3.org/2000/svg" width="16" height="16" viewBox="0 0 16 16" fill="none"><path d="M15.7 8.2C15.7 7.6 15.6 7.1 15.5 6.5H8V9.6H12.3C12.1 10.6 11.6 11.5 10.7 12.1V14.1H13.3C14.8 12.7 15.7 10.6 15.7 8.2Z" fill="#4285F4"/><path d="M8 16C10.2 16 12 15.3 13.3 14.1L10.7 12.1C10 12.5 9.1 12.8 8 12.8 5.9 12.8 4.2 11.4 3.5 9.5H0.9V11.6C2.2 14.2 4.9 16 8 16Z" fill="#34A853"/><path d="M3.5 9.5C3.4 9 3.3 8.5 3.3 8 3.3 7.5 3.4 7 3.5 6.5V4.4H0.9C0.3 5.5 0 6.7 0 8 0 9.3 0.3 10.5 0.9 11.6L3.5 9.5Z" fill="#FBBC05"/><path d="M8 3.2C9.2 3.2 10.2 3.6 11.1 4.4L13.4 2.1C12 0.8 10.2 0 8 0 4.9 0 2.2 1.8 0.9 4.4L3.5 6.5C4.2 4.6 5.9 3.2 8 3.2Z" fill="#EA4335"/></svg>
