<svg width="64" height="64" fill="none" xmlns="http://www.w3.org/2000/svg"><path d="M30.968 47.484h2.064c.57 0 1.032.463 1.032 1.032h2.065a3.1 3.1 0 00-3.097-3.097v-2.064h-2.064v2.064a3.1 3.1 0 00-3.097 3.097 3.1 3.1 0 003.097 3.097h2.064a1.033 1.033 0 010 2.064h-2.064c-.57 0-1.033-.463-1.033-1.032h-2.064a3.1 3.1 0 003.097 3.097v2.065h2.064v-2.065a3.1 3.1 0 003.097-3.097 3.1 3.1 0 00-3.097-3.097h-2.064a1.033 1.033 0 010-2.064z" fill="#2A3052"/><path d="M61.43 42.877l-5.398-6.748 2.775-3.47a4.87 4.87 0 001.064-3.031c0-2.428-1.798-4.427-4.13-4.78V3.096A3.1 3.1 0 0052.646 0h-41.29a3.1 3.1 0 00-3.097 3.097v23.742h-.177a3.957 3.957 0 00-3.952 3.952c0 1.055.41 2.047 1.157 2.795l2.621 2.62-5.337 6.67A11.774 11.774 0 000 50.206c0 6.468 5.262 11.73 11.73 11.73h1.313c3.182 0 6.142-1.265 8.337-3.503C23.452 61.767 27.137 64 31.343 64h1.313c4.206 0 7.892-2.233 9.963-5.568a11.607 11.607 0 008.337 3.503h1.312c6.47 0 11.732-5.262 11.732-11.73 0-2.654-.914-5.257-2.57-7.328zm-3.624-13.25a2.79 2.79 0 01-.612 1.743l-2.98 3.727h-5.27l-2.972-2.971a1.89 1.89 0 011.335-3.223h.354a1.89 1.89 0 011.887 1.888v.177h2.065v-1.34a2.792 2.792 0 012.788-2.79h.617a2.792 2.792 0 012.788 2.79zm-16.009 13.25c-.277.346-.527.712-.763 1.087l-4.615-5.77 2.775-3.469c.4-.5.682-1.08.859-1.692h4.006c.135.195.283.382.454.554l2.62 2.62-5.336 6.67zm-18.831 1.087a11.678 11.678 0 00-.762-1.087l-5.398-6.747 2.477-3.097h4.476a3.926 3.926 0 001.14 2.618l2.621 2.621-4.554 5.692zM49.548 27.34a3.902 3.902 0 00-1.887-.501h-.177V8.259H41.29v22.709h-1.105a4.803 4.803 0 00-.96-2.233V12.387h-6.193V27.18a4.847 4.847 0 00-2.064 1.556V18.581h-6.194v11.634c-.206.228-.38.481-.53.753H22.71V14.452h-6.194v10.396c-.238-.037-.476-.074-.723-.074h-.618c-.248 0-.486.037-.723.073V6.195h35.096V27.34zm-6.193 3.451c0 .06.014.118.017.177h-.017V10.323h2.064V27.34c-1.223.672-2.064 1.959-2.064 3.451zm-6.194-3.61a4.804 4.804 0 00-1.756-.342h-.308V14.452h2.064V27.18zm-8.258 1.821a3.89 3.89 0 00-.854-.099h-.356c-.294 0-.579.037-.854.1v-8.358h2.064v8.357zm-10.322-3.334v-9.152h2.064v14.452h-.205c.125-.435.205-.884.205-1.34 0-1.637-.82-3.08-2.064-3.96zm10.75 11.493l-2.972-2.97a1.89 1.89 0 011.335-3.223h.354a1.89 1.89 0 011.888 1.888v.176H32v-1.34a2.792 2.792 0 012.788-2.789h.617a2.792 2.792 0 012.788 2.79c0 .63-.216 1.248-.612 1.742l-2.98 3.726h-5.27zM11.355 2.065h41.29c.57 0 1.032.463 1.032 1.032v21.75a4.805 4.805 0 00-2.064.821V4.13H12.387v21.54a4.865 4.865 0 00-1.616 1.951 3.836 3.836 0 00-.448-.279V3.097c0-.569.462-1.032 1.032-1.032zM6.194 30.79a1.89 1.89 0 011.887-1.888h.355a1.89 1.89 0 011.887 1.888v.177h2.064v-1.34a2.792 2.792 0 012.788-2.79h.617a2.792 2.792 0 012.789 2.79c0 .63-.217 1.249-.613 1.742l-2.98 3.727h-5.27l-2.972-2.971a1.878 1.878 0 01-.552-1.335zm6.85 29.08h-1.312c-5.331 0-9.667-4.337-9.667-9.666 0-2.188.752-4.331 2.119-6.039l5.602-7.005h5.201l5.604 7.005c.39.488.716 1.023 1.005 1.577a11.788 11.788 0 00-1.983 6.526c0 1.471.284 2.873.78 4.172-1.844 2.179-4.486 3.43-7.35 3.43zm19.613 2.064h-1.312c-5.331 0-9.668-4.336-9.668-9.666 0-2.187.753-4.33 2.12-6.038l5.602-7.005H34.6l5.603 7.005a9.697 9.697 0 012.12 6.038c0 5.33-4.337 9.666-9.666 9.666zm19.612-2.064h-1.312c-2.863 0-5.505-1.251-7.35-3.43.496-1.299.78-2.702.78-4.172a11.78 11.78 0 00-1.984-6.526 9.694 9.694 0 011.005-1.577l5.604-7.005h5.201l5.603 7.005a9.696 9.696 0 012.12 6.039c0 5.33-4.337 9.666-9.667 9.666z" fill="#2A3052"/><path d="M12.387 43.355c1.139 0 2.065.926 2.065 2.064h2.064a4.133 4.133 0 00-4.129-4.129 4.133 4.133 0 00-4.129 4.13H6.194v2.064h2.064v2.064H6.194v2.065h2.064a4.133 4.133 0 004.13 4.129 4.133 4.133 0 004.128-4.13h-2.064a2.067 2.067 0 01-2.065 2.065 2.067 2.067 0 01-2.064-2.064h2.064v-2.065h-2.064v-2.064h2.064v-2.065h-2.064c0-1.138.926-2.064 2.064-2.064zm45.117-1.335l-1.46-1.46-4.431 4.432-4.431-4.431-1.46 1.46 4.859 4.858v.605h-2.065v2.064h2.065v2.065h-2.065v2.064h2.065v2.065h2.064v-2.065h2.065v-2.064h-2.065v-2.065h2.065v-2.064h-2.065v-.605l4.86-4.859z" fill="#2A3052"/></svg>