<svg width="77" height="64" fill="none" xmlns="http://www.w3.org/2000/svg"><path fill-rule="evenodd" clip-rule="evenodd" d="M30.57 55.708a1 1 0 00-.994-1.008H1.988V21.97a1 1 0 00-.994-1.008A1 1 0 000 21.97v33.738a1 1 0 00.994 1.008h28.582a1 1 0 00.994-1.008zM.994 16.983a1 1 0 00.994-1.008v-3.348h9.47a1 1 0 00.994-1.008V2.016h27.15v5.711c0 .557.445 1.009.994 1.009.55 0 .994-.452.994-1.009V1.008A1 1 0 0040.596 0H11.458a.979.979 0 00-.704.295L.294 10.903a1.011 1.011 0 00-.294.716v4.356a1 1 0 00.994 1.008zm2.4-6.372h7.07V3.442l-7.07 7.169zM13.52 23.255h1.336a1 1 0 01.994 1.008V38.83c0 .556-.445 1.008-.994 1.008H13.52v9.602c0 .557-.446 1.008-.995 1.008a1 1 0 01-.994-1.008v-9.6h-1.335a1 1 0 01-.994-1.008V24.263a1 1 0 01.994-1.008h1.335v-6.551c0-.557.446-1.009.995-1.009.548 0 .994.452.994 1.009v6.55zm-1.007 2.016h1.349v12.551H11.19V25.271h1.323zm10.613 5.583H21.79V20.62a1 1 0 00-.994-1.008 1 1 0 00-.994 1.008v10.233h-1.336a1 1 0 00-.994 1.008v10.61c0 .557.445 1.009.994 1.009h1.336v4.297a1 1 0 00.994 1.008 1 1 0 00.994-1.008V43.48h1.336c.55 0 .994-.452.994-1.009v-10.61a1 1 0 00-.994-1.008zm-2.33 10.61h1.336V32.87H19.46v8.594h1.336zm5.94-20.098h1.336V17.07a1 1 0 01.994-1.008 1 1 0 01.994 1.008v4.297h1.336a1 1 0 01.994 1.008v10.994a1 1 0 01-.994 1.008H30.06v13.595c0 .557-.446 1.008-.995 1.008a1 1 0 01-.994-1.008V34.376h-1.336c-.55 0-.995-.451-.995-1.008V22.374c0-.556.446-1.008.995-1.008zm.994 2.016h2.67v8.978h-2.671v-8.978zm8.475.885a1 1 0 00.994-1.008v-3.348h9.47c.549 0 .994-.452.994-1.008V9.3h27.15v52.684H37.198v-32.73a1 1 0 00-.994-1.008 1 1 0 00-.994 1.008v33.738c0 .556.445 1.008.994 1.008h39.602a1 1 0 00.994-1.008v-54.7a1 1 0 00-.994-1.008H46.667a.978.978 0 00-.703.295L35.502 18.19c-.18.183-.291.435-.291.714v4.356a1 1 0 00.994 1.008zm2.4-6.372h7.07v-7.17l-7.07 7.17zM48.73 30.538h1.336c.549 0 .994.452.994 1.009v14.567c0 .557-.445 1.009-.994 1.009H48.73v9.602a1 1 0 01-.994 1.008c-.55 0-.995-.451-.995-1.008v-9.602h-1.335a1 1 0 01-.994-1.008V31.547c0-.557.445-1.009.994-1.009h1.335v-6.55c0-.557.446-1.009.995-1.009.549 0 .994.452.994 1.009v6.55zm-1.004 2.017h1.346v12.551H46.4V32.555h1.326zm10.61 5.583H57V27.905c0-.557-.445-1.009-.994-1.009-.549 0-.994.452-.994 1.009v10.233h-1.336a1 1 0 00-.994 1.008v10.61c0 .557.445 1.009.994 1.009h1.336v4.297a1 1 0 00.994 1.008A1 1 0 0057 55.062v-4.297h1.336a1 1 0 00.994-1.008V39.145a1 1 0 00-.994-1.008zm-2.322 10.61h1.328v-8.594H54.67v8.594h1.343zm5.932-20.098h1.336v-4.297a1 1 0 01.994-1.008 1 1 0 01.994 1.008v4.297h1.336a1 1 0 01.994 1.008v10.994c0 .556-.445 1.008-.994 1.008H65.27v13.595c0 .556-.445 1.008-.994 1.008-.549 0-.994-.452-.994-1.008V41.66h-1.336c-.55 0-.995-.452-.995-1.008V29.658c0-.557.446-1.008.995-1.008zm.994 2.016h2.672v8.978H62.94v-8.978z" fill="#2A3052"/></svg>