<svg width="69" height="64" fill="none" xmlns="http://www.w3.org/2000/svg"><g clip-path="url(#clip0)" fill="#2A3052"><path d="M34.792 42.609c-.351 0-.696.133-.944.366a1.22 1.22 0 00-.392.884c0 .328.143.65.392.883.248.233.593.367.944.367s.696-.134.944-.367a1.22 1.22 0 00.392-.883 1.22 1.22 0 00-.392-.884 1.393 1.393 0 00-.944-.366zM34.792 28.752c5.892 0 10.685-4.486 10.685-10s-4.793-10-10.685-10-10.685 4.486-10.685 10 4.793 10 10.685 10zm0-17.5c4.419 0 8.014 3.365 8.014 7.5 0 4.136-3.595 7.5-8.014 7.5-4.419 0-8.014-3.364-8.014-7.5 0-4.135 3.595-7.5 8.014-7.5z"/><path d="M63.374 6.75H50.302l-3.816-3.572a1.384 1.384 0 00-.945-.366c-.354 0-.694.131-.944.366l-1.423 1.331a17.886 17.886 0 00-3.55-1.377V1.25c0-.69-.598-1.25-1.336-1.25h-6.992c-.738 0-1.336.56-1.336 1.25v1.882a17.882 17.882 0 00-3.55 1.377l-1.423-1.331a1.383 1.383 0 00-.944-.366c-.355 0-.694.131-.945.366L19.281 6.75H6.21C3.117 6.75.6 9.105.6 12v35.25c0 2.895 2.517 5.25 5.61 5.25h22.382v3.908c0 2.16-1.166 4.135-3.12 5.283-.504.297-.738.87-.573 1.405.165.535.688.904 1.283.904h17.22c.595 0 1.118-.369 1.283-.904.164-.535-.07-1.108-.573-1.404-1.954-1.15-3.12-3.124-3.12-5.284V52.5h22.382c3.093 0 5.61-2.355 5.61-5.25V12c0-2.895-2.517-5.25-5.61-5.25zm-39.332-.92l1.212 1.133a1.405 1.405 0 001.661.171 15.135 15.135 0 014.67-1.81c.611-.128 1.046-.635 1.046-1.221V2.5h4.322v1.603c0 .586.434 1.093 1.045 1.22 1.661.346 3.233.955 4.67 1.811a1.405 1.405 0 001.662-.17l1.212-1.135 3.055 2.86-1.21 1.134a1.19 1.19 0 00-.183 1.555 13.176 13.176 0 011.936 4.371c.136.572.678.979 1.304.979h1.71v4.044h-1.71c-.625 0-1.167.407-1.303.98a13.18 13.18 0 01-1.935 4.372 1.19 1.19 0 00.182 1.555l1.21 1.132-3.057 2.86-1.208-1.132a1.405 1.405 0 00-1.662-.17 15.133 15.133 0 01-4.673 1.812c-.61.127-1.045.635-1.045 1.22V35H32.63v-1.599c0-.586-.435-1.093-1.046-1.22a15.139 15.139 0 01-4.672-1.812 1.405 1.405 0 00-1.662.17l-1.208 1.132-3.056-2.86 1.209-1.132a1.19 1.19 0 00.182-1.555 13.174 13.174 0 01-1.935-4.373c-.136-.572-.678-.979-1.304-.979h-1.71v-4.044h1.71c.627 0 1.169-.407 1.305-.979a13.177 13.177 0 011.936-4.371 1.19 1.19 0 00-.182-1.555L20.987 8.69l3.055-2.86zM40.061 61.5H29.523a8.331 8.331 0 001.74-5.092V52.5h7.057v3.908a8.33 8.33 0 001.74 5.092zM63.374 50H6.21c-1.62 0-2.939-1.234-2.939-2.75v-2.141H28.8c.738 0 1.336-.56 1.336-1.25s-.598-1.25-1.336-1.25H3.271V12c0-1.516 1.318-2.75 2.939-2.75h11.694c.063.117.145.226.25.323l1.421 1.331a15.534 15.534 0 00-1.472 3.324h-2.01c-.737 0-1.335.56-1.335 1.25v6.544c0 .69.598 1.25 1.335 1.25h2.009c.357 1.157.849 2.27 1.472 3.325l-1.42 1.33a1.194 1.194 0 000 1.767l4.944 4.628a1.401 1.401 0 001.889 0l1.42-1.329a17.88 17.88 0 003.553 1.379v1.878c0 .69.598 1.25 1.335 1.25h6.993c.738 0 1.336-.56 1.336-1.25v-1.878a17.873 17.873 0 003.553-1.379l1.42 1.33a1.401 1.401 0 001.889 0l4.945-4.629a1.194 1.194 0 000-1.767l-1.42-1.33a15.548 15.548 0 001.471-3.325h2.008c.738 0 1.336-.56 1.336-1.25v-6.544c0-.69-.598-1.25-1.336-1.25h-2.01a15.553 15.553 0 00-1.471-3.324l1.422-1.33c.104-.098.186-.207.248-.324h11.695c1.62 0 2.938 1.234 2.938 2.75v30.609H40.82c-.738 0-1.336.56-1.336 1.25s.598 1.25 1.336 1.25h25.492v2.141c0 1.516-1.318 2.75-2.938 2.75z"/></g><defs><clipPath id="clip0"><path fill="#fff" transform="translate(.6)" d="M0 0h68.384v64H0z"/></clipPath></defs></svg>