<svg width="68" height="64" fill="none" xmlns="http://www.w3.org/2000/svg"><g clip-path="url(#clip0)" fill="#2A3052"><path d="M36.522 30.114h-.56V20.076h.56c2.313 0 4.344 1.482 4.975 3.705.28 1.01 1.401 1.617 2.452 1.347 1.051-.269 1.682-1.347 1.401-2.358-1.05-3.84-4.694-6.467-8.828-6.467h-.56v-5.39c0-1.077-.91-1.886-1.962-1.886-1.12 0-1.962.876-1.962 1.887v5.39h-.56c-2.452 0-4.765.942-6.446 2.56-1.752 1.683-2.662 3.84-2.662 6.197 0 4.85 4.133 8.825 9.178 8.825h.56v9.97h-.56c-2.312 0-4.344-1.481-4.975-3.57a2.006 2.006 0 00-1.961-1.55c-1.121 0-1.962.877-1.962 1.887 0 .202 0 .337.07.54 1.121 3.84 4.694 6.467 8.828 6.467h.56v5.389c0 1.078.911 1.886 1.962 1.886 1.121 0 1.962-.876 1.962-1.886v-5.39h.56c5.045 0 9.179-3.974 9.179-8.825a8.6 8.6 0 00-2.663-6.198 9.85 9.85 0 00-6.586-2.492zm-5.044 0c-2.873 0-5.185-2.224-5.185-4.986 0-1.347.56-2.627 1.472-3.503a5.316 5.316 0 013.643-1.482h.56v9.97h-.49zm5.044 13.81h-.56V33.886h.56c1.402 0 2.663.54 3.644 1.482.98.944 1.471 2.156 1.471 3.504.07 2.762-2.242 5.052-5.115 5.052z"/><path d="M34 0C15.644 0 .72 14.35.72 32S15.644 64 34 64c18.357 0 33.28-14.35 33.28-32S52.357 0 34 0zM4.714 32c0-7.074 2.732-13.541 7.286-18.526l4.975 4.783c.42.404.91.539 1.401.539.49 0 .981-.202 1.401-.54a1.86 1.86 0 000-2.694l-4.974-4.783c5.185-4.312 11.91-7.006 19.267-7.006 16.185 0 29.287 12.665 29.287 28.16 0 7.073-2.733 13.54-7.287 18.526l-4.974-4.783a2.044 2.044 0 00-2.803 0 1.86 1.86 0 000 2.694l4.975 4.784C48.083 57.465 41.357 60.16 34 60.16 17.816 60.16 4.714 47.562 4.714 32z"/></g><defs><clipPath id="clip0"><path fill="#fff" transform="translate(.72)" d="M0 0h66.56v64H0z"/></clipPath></defs></svg>