<svg width="16" height="16" fill="none" xmlns="http://www.w3.org/2000/svg"><circle cx="8" cy="8" r="7.5" fill="#333" stroke="#333"/><path fill-rule="evenodd" clip-rule="evenodd" d="M8 2.25c.122 0 .237.06.307.16L10.82 6h2.805a.375.375 0 010 .75h-.439l-1.067 5.694a.375.375 0 01-.369.306h-7.5a.375.375 0 01-.369-.306L2.814 6.75h-.439a.375.375 0 110-.75H5.18l2.513-3.59c.07-.1.185-.16.307-.16zm-2.63 4.5h5.25a.4.4 0 00.01 0h1.793L11.44 12H4.56l-.984-5.25H5.37zM9.905 6h-3.81L8 3.279 9.905 6zm-3.78 1.5c.207 0 .375.168.375.375v3a.375.375 0 01-.75 0v-3c0-.207.168-.375.375-.375zM8 7.5c.207 0 .375.168.375.375v3a.375.375 0 01-.75 0v-3c0-.207.168-.375.375-.375zm1.875 0c.207 0 .375.168.375.375v3a.375.375 0 01-.75 0v-3c0-.207.168-.375.375-.375z" fill="#fff"/></svg>