<svg width="16" height="16" fill="none" xmlns="http://www.w3.org/2000/svg"><path d="M14.177 2.118a.5.5 0 0 1 .646.764l-2.048 1.732A7.924 7.924 0 0 1 15.333 8c-1.153 2.927-4 5-7.333 5a7.83 7.83 0 0 1-3.908-1.038l-2.269 1.92a.5.5 0 1 1-.646-.764l2.048-1.733A7.925 7.925 0 0 1 .667 8C1.82 5.073 4.667 3 8 3a7.83 7.83 0 0 1 3.909 1.038l2.268-1.92zm-2.265 3.226L10.58 6.472c.267.448.42.97.42 1.528 0 1.653-1.347 3-3 3-.736 0-1.41-.267-1.933-.708l-1.106.935c.918.5 1.953.773 3.04.773 2.584 0 4.877-1.55 6-4a7.047 7.047 0 0 0-2.089-2.656zM8 4C5.422 4 3.123 5.55 2 8a7.05 7.05 0 0 0 2.087 2.656L5.42 9.528A2.98 2.98 0 0 1 5 8c0-1.653 1.347-3 3-3 .736 0 1.411.267 1.934.709l1.105-.935A6.336 6.336 0 0 0 8 4zm1.802 3.13L6.845 9.633A2 2 0 0 0 9.802 7.13zM8 6A2 2 0 0 0 6.2 8.87l2.956-2.503A1.99 1.99 0 0 0 8 6z" fill="#333"/></svg>