<svg xmlns="http://www.w3.org/2000/svg" width="16" height="16"><g fill="none"><path fill="#FF444F" d="M15.5 7.988V10h-5.334L12 11.835a1.989 1.989 0 0 1 0 2.815l-.006.007L8 10.663l2.248-2.248c.121-.124.225-.264.31-.415l4.942-.012zM4.006.343l4.242 4.243c.78.781.78 2.047 0 2.828l-4.242 4.243L4 11.65a1.988 1.988 0 0 1 0-2.814L5.834 7 .5 7.012V5h5.334L4 3.165A1.988 1.988 0 0 1 4 .35l.006-.007zm7.987 3a1.992 1.992 0 0 1 .126 2.695L12 6.167l-1.2 1.2a2.003 2.003 0 0 0-.44-1.66l-.112-.121L10 5.337l1.993-1.994z"/><path fill="#85ACB0" d="M9.5 13v3h-2v-3h2zm0-13v3h-2V0h2z"/></g></svg>